<?xml version="1.0" encoding="utf-8"?>
<!-- Generator: Adobe Illustrator 25.0.0, SVG Export Plug-In . SVG Version: 6.00 Build 0)  -->
<svg version="1.1" xmlns="http://www.w3.org/2000/svg" xmlns:xlink="http://www.w3.org/1999/xlink" x="0px" y="0px"
	 viewBox="0 0 256 256" style="enable-background:new 0 0 256 256;" xml:space="preserve">
<style type="text/css">
	.st0{opacity:0.18;fill:#FFFFFF;}
	.st1{fill:#FFFFFF;}
</style>
<g id="Capa_2">
	<circle class="st0" cx="128" cy="128" r="84.9"/>
</g>
<g id="Flat">
	<path class="st1" d="M236,122h-14.2c-3.1-47.2-40.6-84.7-87.8-87.8V20c0-3.3-2.7-6-6-6s-6,2.7-6,6v14.2
		C74.8,37.3,37.3,74.8,34.2,122H20c-3.3,0-6,2.7-6,6s2.7,6,6,6h14.2c3.1,47.2,40.6,84.7,87.8,87.8V236c0,3.3,2.7,6,6,6s6-2.7,6-6
		v-14.2c47.2-3.1,84.7-40.6,87.8-87.8H236c3.3,0,6-2.7,6-6S239.3,122,236,122z M134,209.8V196c0-3.3-2.7-6-6-6s-6,2.7-6,6v13.8
		c-40.5-3-72.7-35.2-75.8-75.8H60c3.3,0,6-2.7,6-6s-2.7-6-6-6H46.2c3-40.5,35.2-72.7,75.8-75.8V60c0,3.3,2.7,6,6,6s6-2.7,6-6V46.2
		c40.5,3,72.7,35.2,75.8,75.8H196c-3.3,0-6,2.7-6,6s2.7,6,6,6h13.8C206.7,174.5,174.5,206.7,134,209.8z M128,90c-21,0-38,17-38,38
		s17,38,38,38s38-17,38-38C166,107,149,90,128,90z M128,154c-14.4,0-26-11.6-26-26s11.6-26,26-26s26,11.6,26,26
		C154,142.4,142.4,154,128,154z"/>
</g>
</svg>
