<?xml version="1.0" encoding="utf-8"?>
<!-- Generator: Adobe Illustrator 25.0.0, SVG Export Plug-In . SVG Version: 6.00 Build 0)  -->
<svg version="1.1" xmlns="http://www.w3.org/2000/svg" xmlns:xlink="http://www.w3.org/1999/xlink" x="0px" y="0px"
	 viewBox="0 0 700 700" style="enable-background:new 0 0 700 700;" xml:space="preserve">
<style type="text/css">
	.st0{display:none;}
	.st1{display:inline;}
	.st2{fill:none;stroke:#000000;stroke-miterlimit:10;}
	.st3{display:none;fill:#141414;}
	.st4{fill:#EAB815;}
	.st5{fill:#141414;}
	.st6{fill:none;stroke:#000000;stroke-width:38;stroke-miterlimit:10;}
	.st7{fill:#FFFFFF;}
	.st8{fill:#A7D129;}
	.st9{display:inline;fill:#FFFFFF;}
	.st10{display:inline;fill:#A7D129;}
	.st11{fill:none;stroke:#00ACB4;stroke-width:20;stroke-miterlimit:10;}
	.st12{fill:#E7E7E7;}
	.st13{fill:#00ACB4;}
</style>
<g id="Capa_1" class="st0">
	<g id="Capa_2_1_" class="st1">
	</g>
	<g id="Capa_1_2_">
		<g id="Capa_1_1_" class="st1">
			<g>
				<circle class="st2" cx="173.3" cy="209.4" r="150"/>
				<circle class="st2" cx="173.3" cy="209.4" r="110"/>
			</g>
			<g>
				<circle class="st2" cx="473.3" cy="209.4" r="150"/>
				<circle class="st2" cx="473.3" cy="209.4" r="110"/>
			</g>
			<g>
				<circle class="st2" cx="173.3" cy="509.4" r="150"/>
				<circle class="st2" cx="173.3" cy="509.4" r="110"/>
			</g>
			<g>
				<circle class="st2" cx="473.3" cy="509.4" r="150"/>
				<circle class="st2" cx="473.3" cy="509.4" r="110"/>
			</g>
			<g>
				<circle class="st2" cx="173.3" cy="359.4" r="150"/>
				<circle class="st2" cx="173.3" cy="359.4" r="110"/>
			</g>
			<g>
				<circle class="st2" cx="473.3" cy="359.4" r="150"/>
				<circle class="st2" cx="473.3" cy="359.4" r="110"/>
			</g>
		</g>
		<g id="Capa_2_2_" class="st1">
			<path class="st3" d="M350,100c-138.1,0-250,111.9-250,250s111.9,250,250,250s250-111.9,250-250S488.1,100,350,100z M350,525
				c-96.6,0-175-78.4-175-175s78.4-175,175-175c83.8,0,153.8,58.9,171,137.5H349.5v75H521C503.8,466.1,433.8,525,350,525z"/>
			<path class="st4" d="M350-6.2c-138.1,0-250,111.9-250,250v450h75v-450c0-96.6,78.4-175,175-175s175,78.4,175,175v450h75v-450
				C600,105.7,488.1-6.2,350-6.2z"/>
			<path class="st5" d="M520.9,418.7C521,418.7,521,418.7,520.9,418.7H349.5v75H521c-17.2,78.6-87.2,137.5-171,137.5
				c-96.6,0-175-78.4-175-175s78.4-175,175-175c37.8,0,72.8,12,101.4,32.4L505,260c-42.6-33.7-96.4-53.8-155-53.8
				c-138.1,0-250,111.9-250,250s111.9,250,250,250s250-111.9,250-250c0-12.8-1-25.3-2.8-37.5H520.9z"/>
		</g>
	</g>
	<circle class="st6" cx="350" cy="350" r="300"/>
	<g>
		<g class="st1">
			<path class="st7" d="M154.5,428.4V226.1c0-27.2,8.5-49.6,25.5-67.1c17.9-18.3,41.2-27.4,70-27.4c28.2,0,51.6,9.1,70,27.4
				c17,16.9,25.5,39.3,25.5,67.1v185.3l-35.9,17h-1.9V295.3H192.3v116.1l-35.9,17H154.5z M192.3,260.9h115.3v-34.8
				c0-16.9-4.5-30.6-13.6-41c-11.2-13-25.9-19.5-44.1-19.5s-32.8,6.5-44.1,19.5c-9.1,10.5-13.6,24.1-13.6,41v34.8H192.3z"/>
		</g>
		<g class="st1">
			<path class="st8" d="M545.5,402.8V472c0,27.4-8.5,49.7-25.5,67.1c-17.9,18.3-41.2,27.4-70,27.4c-28.7,0-52.1-9.1-70-27.4
				c-17-17.4-25.5-39.8-25.5-67.1V368c0-27.4,8.5-49.7,25.5-67.1c17.9-18.3,41.2-27.4,70-27.4c29.7,0,53.1,9.1,70.1,27.4
				c17,18.3,25.4,39.4,25.4,63.3l-35.9,17h-1.9V368c0-16.9-4.5-30.6-13.6-41c-11.2-13-25.9-19.5-44.1-19.5s-32.8,6.5-44.1,19.5
				c-9.1,10.5-13.6,24.1-13.6,41v104c0,16.9,4.5,30.6,13.6,41c11.2,13,25.9,19.5,44.1,19.5s32.8-6.5,44.1-19.5
				c9.1-10.5,13.6-22.9,13.6-37.2v-38.6h-65.8v-1.9l15.3-32.5H545.5z"/>
		</g>
		<rect x="46.5" y="390.6" class="st9" width="145.8" height="37.9"/>
		<path class="st9" d="M608.2,458.3C565.9,559.2,466.2,630,350,630C209.1,630,92.6,526,72.9,390.6H33.3
			c20,157.1,154.1,278.6,316.7,278.6c138.3,0,256-87.9,300.4-210.9L608.2,458.3L608.2,458.3z"/>
		<rect x="507.7" y="344" class="st10" width="145.3" height="37.9"/>
		<path class="st10" d="M350,30.8c-164.2,0-299.4,123.9-317.2,283.4h39.5C89.9,176.4,207.5,70,350,70c154.6,0,280,125.4,280,280
			c0,10.8-0.6,21.4-1.8,31.9h39.5c1-10.5,1.6-21.1,1.6-31.9C669.2,173.7,526.3,30.8,350,30.8z"/>
	</g>
	<g class="st1">
		<g>
			<path class="st7" d="M154.5,428.4V226.1c0-27.2,8.5-49.6,25.5-67.1c17.9-18.3,41.2-27.4,70-27.4c28.2,0,51.6,9.1,70,27.4
				c17,16.9,25.5,39.3,25.5,67.1v185.3l-35.9,17h-1.9V295.3H192.3v116.1l-35.9,17H154.5z M192.3,260.9h115.3v-34.8
				c0-16.9-4.5-30.6-13.6-41c-11.2-13-25.9-19.5-44.1-19.5s-32.8,6.5-44.1,19.5c-9.1,10.5-13.6,24.1-13.6,41v34.8H192.3z"/>
		</g>
		<g>
			<path class="st7" d="M545.5,402.8V472c0,27.4-8.5,49.7-25.5,67.1c-17.9,18.3-41.2,27.4-70,27.4c-28.7,0-52.1-9.1-70-27.4
				c-17-17.4-25.5-39.8-25.5-67.1V368c0-27.4,8.5-49.7,25.5-67.1c17.9-18.3,41.2-27.4,70-27.4c29.7,0,53.1,9.1,70.1,27.4
				c17,18.3,25.4,39.4,25.4,63.3l-35.9,17h-1.9V368c0-16.9-4.5-30.6-13.6-41c-11.2-13-25.9-19.5-44.1-19.5s-32.8,6.5-44.1,19.5
				c-9.1,10.5-13.6,24.1-13.6,41v104c0,16.9,4.5,30.6,13.6,41c11.2,13,25.9,19.5,44.1,19.5s32.8-6.5,44.1-19.5
				c9.1-10.5,13.6-22.9,13.6-37.2v-38.6h-65.8v-1.9l15.3-32.5H545.5z"/>
		</g>
		<rect x="46.5" y="390.6" class="st7" width="145.8" height="37.9"/>
		<path class="st7" d="M608.2,458.3C565.9,559.2,466.2,630,350,630C209.1,630,92.6,526,72.9,390.6H33.3
			c20,157.1,154.1,278.6,316.7,278.6c138.3,0,256-87.9,300.4-210.9L608.2,458.3L608.2,458.3z"/>
		<rect x="507.7" y="344" class="st7" width="145.3" height="37.9"/>
		<path class="st7" d="M350,30.8c-164.2,0-299.4,123.9-317.2,283.4h39.5C89.9,176.4,207.5,70,350,70c154.6,0,280,125.4,280,280
			c0,10.8-0.6,21.4-1.8,31.9h39.5c1-10.5,1.6-21.1,1.6-31.9C669.2,173.7,526.3,30.8,350,30.8z"/>
	</g>
	<g class="st1">
		<path d="M307.6,260.9v-34.8c0-16.9-4.5-30.6-13.6-41c-11.2-13-25.9-19.5-44.1-19.5s-32.8,6.5-44.1,19.5
			c-9.1,10.5-13.6,24.1-13.6,41v34.8h0.1H307.6z"/>
		<path d="M350,20C167.7,20,20,167.7,20,350s147.7,330,330,330s330-147.7,330-330S532.3,20,350,20z M350,669.2
			c-162.6,0-296.7-121.5-316.7-278.6h13.2h26.4h81.6V226.1c0-27.2,8.5-49.6,25.5-67.1c17.9-18.3,41.2-27.4,70-27.4
			c28.2,0,51.6,9.1,70,27.4c17,16.9,25.5,39.3,25.5,67.1v185.3l-35.9,17h-1.9V295.3H192.3v95.3v20.8v17.1H81.1
			C115.1,544.9,222.6,630,350,630c116.2,0,215.9-70.8,258.2-171.7h42.2C606,581.3,488.3,669.2,350,669.2z M653,381.9h-24.8H507.7
			v-0.7V368c0-16.9-4.5-30.6-13.6-41c-11.2-13-25.9-19.5-44.1-19.5s-32.8,6.5-44.1,19.5c-9.1,10.5-13.6,24.1-13.6,41v104
			c0,16.9,4.5,30.6,13.6,41c11.2,13,25.9,19.5,44.1,19.5s32.8-6.5,44.1-19.5c9.1-10.5,13.6-22.9,13.6-37.2v-38.6h-65.8v-1.9
			l15.3-32.5h88.3V472c0,27.4-8.5,49.7-25.5,67.1c-17.9,18.3-41.2,27.4-70,27.4c-28.7,0-52.1-9.1-70-27.4
			c-17-17.4-25.5-39.8-25.5-67.1V368c0-27.4,8.5-49.7,25.5-67.1c17.9-18.3,41.2-27.4,70-27.4c29.7,0,53.1,9.1,70.1,27.4
			c12,13,19.7,27.3,23.2,43.1h86.6C626.7,192.2,502.6,70,350,70C207.5,70,89.9,176.4,72.3,314.2H32.8
			C50.6,154.7,185.8,30.8,350,30.8c176.3,0,319.2,142.9,319.3,319.2c0,10.8-0.6,21.4-1.6,31.9H653z"/>
	</g>
</g>
<g id="Capa_2">
	<path class="st11" d="M652.2,622.5H47.8c-13.7,0-24.8-11.1-24.8-24.8V102.3c0-13.7,11.1-24.8,24.8-24.8h604.4
		c13.7,0,24.8,11.1,24.8,24.8v495.4C677,611.4,665.9,622.5,652.2,622.5z"/>
	<g>
		<path class="st12" d="M167.3,509c0,6.2-1.2,10.7-3.7,13.5c-2.5,2.8-6.5,4.2-12.1,4.2H86.9c-5.6,0-9.6-1.4-12.1-4.2
			c-2.5-2.8-3.7-7.3-3.7-13.5V379.4c0-9.8,1.4-21.1,4.2-33.9c2.8-12.8,7.1-27.6,13-44.7l38.2-111.4c1.8-5.6,4.5-9.6,8.1-12.3
			c3.7-2.6,8.4-3.9,14.3-3.9h118.2c5.6,0,10.2,1.3,13.8,3.9c3.7,2.6,6.4,6.7,8.1,12.3l38.2,111.4c5.9,17,10.2,31.9,13,44.7
			c2.8,12.8,4.2,24,4.2,33.9V509c0,6.2-1.3,10.7-3.7,13.5c-2.5,2.8-6.5,4.2-12.1,4.2h-66.4c-5.9,0-10.2-1.4-13-4.2
			c-2.8-2.8-4.2-7.3-4.2-13.5v-68.7h-77.8V509z M192.4,276.4L171.7,351h69L220,276.4c-1.2-2.9-2.4-5.1-3.7-6.4c-1.3-1.3-2.9-2-4.6-2
			h-11c-1.8,0-3.3,0.7-4.6,2C194.8,271.3,193.5,273.4,192.4,276.4z"/>
	</g>
	<g>
		<path class="st13" d="M611.2,526.7H472.7c-36.6,0-63.8-8.2-81.5-24.5c-17.7-16.4-26.6-41.5-26.6-75.6V273.4
			c0-34,8.9-59.2,26.6-75.6c17.7-16.4,44.9-24.5,81.5-24.5h109.9c5.6,0,9.6,1.4,12.1,4.2c2.5,2.8,3.7,7.3,3.7,13.5v59.4
			c0,6.2-1.2,10.7-3.7,13.5c-2.5,2.8-6.5,4.2-12.1,4.2h-91.4c-9.1,0-15.8,2-20.2,6.1c-4.4,4.1-6.6,10.2-6.6,18.4v117.3
			c0,8.2,1.7,14.2,5.1,18.2c3.4,3.9,8.4,5.9,15.2,5.9h42.6v-76.6c0-6.2,1.2-10.7,3.7-13.5c2.5-2.8,6.5-4.2,12.1-4.2h68.1
			c5.6,0,9.6,1.4,12.1,4.2c2.5,2.8,3.7,7.3,3.7,13.5V509c0,6.2-1.3,10.7-3.7,13.5C620.8,525.3,616.7,526.7,611.2,526.7z"/>
	</g>
</g>
</svg>
