<?xml version="1.0" encoding="utf-8"?>
<!-- Generator: Adobe Illustrator 25.0.0, SVG Export Plug-In . SVG Version: 6.00 Build 0)  -->
<svg version="1.1" id="Capa_1" xmlns="http://www.w3.org/2000/svg" xmlns:xlink="http://www.w3.org/1999/xlink" x="0px" y="0px"
	 viewBox="0 0 1257 1280" style="enable-background:new 0 0 1257 1280;" xml:space="preserve">
<style type="text/css">
	.st0{opacity:4.000000e-02;}
	.st1{fill:#FFFFFF;}
</style>
<g transform="translate(0.000000,1280.000000) scale(0.100000,-0.100000)" class="st0">
	<path class="st1" d="M7484,12789c-67-19-123-121-109-198c15-81,61-135,125-148l30-6l-2-2120l-3-2121l-47,3l-48,3v-166v-166h-195
		h-195l-2,163l-3,162l-55,1l-55,1l-3,1128c-2,1114-2,1127,18,1152c27,35,43,99,35,142c-10,57-50,116-91,136c-49,23-148,17-186-10
		c-65-48-90-154-55-236c20-50,76-90,132-97l45-5l-2-1104l-3-1105l-85-2l-85-1l-3-162l-2-163h-195h-194v163v162h-83h-83l-5,720
		l-5,720l-542,3l-543,2v755v755l28,42c23,36,27,52,27,113c0,63-3,76-28,108c-38,50-75,67-145,67c-45,0-67-6-93-23
		c-67-44-98-153-65-230c17-41,76-93,115-102l31-7v-789v-789h555h555v-672v-673h-52h-53l-3-162l-2-163h-195h-195l-2,163l-3,162h-48
		h-47v418v417h-633h-634l-24,26c-37,40-73,54-137,54c-45,0-67-5-93-23c-110-74-104-253,11-314c109-58,238,3,257,122l6,35h553h554
		l-2-366l-3-367l-70-1l-70-1l-3-162l-2-163h-195h-195l-2,163l-3,162h-30l-30,1l-3,182l-2,182H3527H2435l-50,26
		c-123,63-255-19-255-159c0-62,19-105,63-144c93-82,246-32,279,91l12,46h1003h1004l-3-111l-3-111l-95-1l-95-2l-3-162l-2-163h-240
		h-240v-345v-345h-165h-165v-40v-40H2442H1403l-33,41c-94,117-272,81-310-63c-21-77,10-159,79-205c26-17,48-23,91-23
		c67,0,111,25,149,83l24,37h1039h1038v-90v-90h165h165v-195v-195h-165h-165v-70v-70H1870H260v930v930l25,16c41,27,68,96,63,165
		c-5,62-23,97-69,132c-56,41-152,41-208,0c-58-42-85-139-60-214c13-38,63-96,91-105c17-5,18-51,20-997l3-992l1677-3l1678-2v-60v-60
		h165h165v-195v-195h-164h-165l-3-47l-3-48l-1037-3l-1036-2l-31-39l-31-39v-740v-740l-35-6c-110-21-168-180-101-278
		c35-51,70-71,134-76c100-7,158,35,184,133c13,50,0,125-28,156c-12,13-14,125-14,753c0,489-3,744-10,757c-11,19,4,19,1000,19h1010
		v-95v-95h165h165v-285v-285h300h300v-165v-165h40h40v-779c0-772,0-779-21-805l-20-26h-657l-657,1l-20,31c-30,48-78,71-145,71
		c-104,0-173-71-174-178c-1-197,249-255,334-78l25,53h674h673l59,51l59,51v804v804h90h90v165v165h195h195v-161c0-152,1-161,20-166
		c20-5,20-14,20-1818V691l-26-20c-26-21-36-21-550-21c-330,0-524,4-524,10c0,18-65,83-97,96c-80,34-178,2-221-71
		c-33-58-28-157,11-209c41-53,78-69,151-64c74,4,116,30,143,88l18,39l541,1h541l74,53l74,53l3,1837l2,1836l108,3l107,3l3,163l2,162
		h195h195v-165v-165h50h50V2800V1281l-42-12c-110-29-154-161-94-277c32-62,117-93,197-72c116,31,163,186,88,291
		c-18,26-19,71-19,1568v1541h80h80v165v165h195h195v-165v-165h80h80V2325c0-1961,0-1994-19-2005c-13-6-241-10-671-10
		c-647,0-651,0-679,21c-78,57-194,37-255-44c-32-43-34-150-4-202c41-71,143-104,221-71c44,18,95,78,103,121l6,35h650h651l68,56
		l69,56v2019v2019h45h45v165v165h195h195l2-163l3-162h195h195l3,163l2,162h195h195v-165v-165h195h195v165v165h195h195l2-162l3-163
		l192-3l193-2l2,162l3,163l393,3l392,2v490v490h160h160v60v60h660h660v-770v-770l-39-24c-77-49-103-161-58-247
		c58-109,218-122,293-23c26,34,29,45,29,114s-3,80-29,114c-16,21-44,44-62,52l-34,14l-2,838l-3,837l-707,3l-708,2v68v67l-160-3
		l-160-3v201v200h160h159l3,88l3,87l801,3l801,2l18-41c61-134,254-130,316,6c65,143-52,291-201,255c-44-11-110-59-110-81
		c0-5-344-8-812-7l-813,3l-3,38l-3,37h-160h-159v530v530h-450h-450l-2,163c-2,123-6,161-15,160c-10-2-13,184-13,907v910h900h899
		l19-43c28-63,72-91,152-95c55-3,70,0,99,20c62,42,76,70,76,156c0,90-21,129-85,162c-70,36-149,24-205-31l-31-29l-964-2l-965-3
		l-3-975l-2-975l-125,3l-125,3v-165v-166h-197h-198v163v162l-45,1l-45,1l-3,1581l-2,1582l727,2l727,3l-3,446l-3,446l34,24
		c46,33,65,58,78,106c31,109-40,220-148,231c-65,6-114-11-151-53c-79-90-56-233,46-287l43-23v-398v-399l-740,3l-740,2l-3-1632
		l-2-1633l-80-1l-80-2l-3-162l-2-163h-195h-195l-2,163l-3,162l-73,1l-72,2v2137c0,2120,0,2137,20,2165c31,44,44,117,31,168
		C7693,12771,7595,12821,7484,12789z"/>
	<path class="st1" d="M7670,4298c0-2-1-621-3-1377l-2-1374l-44-13c-80-23-123-83-124-173c0-77,32-134,95-167c39-20,122-18,167,6
		c98,49,120,206,41,287l-30,31l-2,1388l-3,1389l-47,3C7691,4300,7670,4300,7670,4298z"/>
	<path class="st1" d="M8510,2775V1250h873l872-1l20-41c31-65,63-83,150-83c59,0,79,4,102,21c104,77,95,255-17,312
		c-25,12-62,22-85,22c-51-1-119-31-140-64l-17-26h-809h-809l-2,1453l-3,1452l-67,3l-68,3V2775z"/>
	<path class="st1" d="M9255,4288c-3-7-4-495-3-1083l3-1070l932-5l933-5l22-45c33-65,76-90,153-90c68,0,110,21,149,73
		c32,43,34,150,4,202c-41,71-143,104-221,71c-32-13-97-78-97-96c0-6-323-10-885-10h-885l-2,1033l-3,1032l-48,3
		C9275,4300,9258,4297,9255,4288z"/>
</g>
</svg>
