<?xml version="1.0" encoding="utf-8"?>
<!-- Generator: Adobe Illustrator 25.0.0, SVG Export Plug-In . SVG Version: 6.00 Build 0)  -->
<svg version="1.1" id="Layer_1" xmlns="http://www.w3.org/2000/svg" xmlns:xlink="http://www.w3.org/1999/xlink" x="0px" y="0px"
	 viewBox="0 0 373.9 336.3" style="enable-background:new 0 0 373.9 336.3;" xml:space="preserve">
<style type="text/css">
	._x005B_Default_x005D_{fill:#FFFFFF;stroke:#231F20;stroke-miterlimit:10;}
	.Round_x0020_Corners_x0020_2_x0020_pt{fill:#FFFFFF;stroke:#231F20;stroke-miterlimit:10;}
	.Live_x0020_Reflect_x0020_X{fill:none;}
	.Bevel_x0020_Soft{fill:url(#SVGID_1_);}
	.Dusk{fill:#FFFFFF;}
	.Pompadour_GS{fill-rule:evenodd;clip-rule:evenodd;fill:#44ADE2;}
	.st0{fill:url(#SVGID_2_);}
	.st1{fill:#A66651;}
	.st2{fill:url(#SVGID_3_);}
	.st3{opacity:0.4;fill:url(#SVGID_4_);}
	.st4{opacity:0.4;fill:url(#SVGID_5_);}
	.st5{fill:#353535;}
	.st6{fill:#292929;}
	.st7{fill:#5B5B5B;}
	.st8{fill:#4F4F4F;}
	.st9{filter:url(#Adobe_OpacityMaskFilter);}
	.st10{filter:url(#Adobe_OpacityMaskFilter_1_);}
	.st11{mask:url(#SVGID_6_);fill:url(#SVGID_7_);}
	.st12{fill:url(#SVGID_8_);}
	.st13{fill:url(#SVGID_9_);}
	.st14{fill:#E0E0E0;}
	.st15{fill:#A6A6A6;}
	.st16{fill:url(#SVGID_10_);}
</style>
<linearGradient id="SVGID_1_" gradientUnits="userSpaceOnUse" x1="1671.1846" y1="401.7681" x2="1671.8917" y2="402.4752">
	<stop  offset="0" style="stop-color:#DEDFE3"/>
	<stop  offset="0.1783" style="stop-color:#DADBDF"/>
	<stop  offset="0.3611" style="stop-color:#CECFD3"/>
	<stop  offset="0.546" style="stop-color:#B9BCBF"/>
	<stop  offset="0.7324" style="stop-color:#9CA0A2"/>
	<stop  offset="0.9181" style="stop-color:#787D7E"/>
	<stop  offset="1" style="stop-color:#656B6C"/>
</linearGradient>
<g>
	<g>
		<linearGradient id="SVGID_2_" gradientUnits="userSpaceOnUse" x1="233.1025" y1="275.0918" x2="233.1025" y2="280.3829">
			<stop  offset="5.618000e-03" style="stop-color:#E9BE62"/>
			<stop  offset="0.213" style="stop-color:#D89E57"/>
			<stop  offset="0.45" style="stop-color:#C77F4D"/>
			<stop  offset="0.6526" style="stop-color:#BE6D47"/>
			<stop  offset="0.7954" style="stop-color:#BA6645"/>
		</linearGradient>
		<rect x="186.1" y="278.6" class="st0" width="93.9" height="10.8"/>
		<path class="st1" d="M280.1,289.6h-93.9c-0.1,0-0.3-0.1-0.3-0.3v-10.8c0-0.1,0.1-0.3,0.3-0.3h93.9c0.1,0,0.3,0.1,0.3,0.3v10.8
			C280.3,289.5,280.2,289.6,280.1,289.6z M186.4,289.1h93.4v-10.2h-93.4V289.1z"/>
	</g>
	<g>
		<linearGradient id="SVGID_3_" gradientUnits="userSpaceOnUse" x1="217.2293" y1="267.1584" x2="265.5911" y2="320.8937">
			<stop  offset="5.618000e-03" style="stop-color:#E9BE62"/>
			<stop  offset="8.443396e-03" style="stop-color:#E9BE62"/>
			<stop  offset="0.2181" style="stop-color:#D09F56"/>
			<stop  offset="0.397" style="stop-color:#C08D4F"/>
			<stop  offset="0.5232" style="stop-color:#BB864C"/>
			<stop  offset="0.9221" style="stop-color:#E5CEA8"/>
			<stop  offset="1" style="stop-color:#EDDCBA"/>
		</linearGradient>
		<rect x="186.1" y="279.4" class="st2" width="93.9" height="10.8"/>
		<path class="st1" d="M280.1,290.5h-93.9c-0.1,0-0.3-0.1-0.3-0.3v-10.8c0-0.1,0.1-0.3,0.3-0.3h93.9c0.1,0,0.3,0.1,0.3,0.3v10.8
			C280.3,290.3,280.2,290.5,280.1,290.5z M186.4,289.9h93.4v-10.2h-93.4V289.9z"/>
	</g>
	<linearGradient id="SVGID_4_" gradientUnits="userSpaceOnUse" x1="202.1055" y1="290.4074" x2="202.1055" y2="281.9203">
		<stop  offset="5.618000e-03" style="stop-color:#E9BE62"/>
		<stop  offset="8.443396e-03" style="stop-color:#E9BE62"/>
		<stop  offset="0.2181" style="stop-color:#D09F56"/>
		<stop  offset="0.397" style="stop-color:#C08D4F"/>
		<stop  offset="0.5232" style="stop-color:#BB864C"/>
		<stop  offset="0.9221" style="stop-color:#E5CEA8"/>
		<stop  offset="1" style="stop-color:#EDDCBA"/>
	</linearGradient>
	<path class="st3" d="M213.4,279.4h-4.6c-6,3.5-12,7.1-18,10.8h6.1C202.4,286.6,207.9,283,213.4,279.4z"/>
	<linearGradient id="SVGID_5_" gradientUnits="userSpaceOnUse" x1="252.0478" y1="281.5098" x2="263.4658" y2="293.8682">
		<stop  offset="5.618000e-03" style="stop-color:#E9BE62"/>
		<stop  offset="8.443396e-03" style="stop-color:#E9BE62"/>
		<stop  offset="0.2181" style="stop-color:#D09F56"/>
		<stop  offset="0.397" style="stop-color:#C08D4F"/>
		<stop  offset="0.5232" style="stop-color:#BB864C"/>
		<stop  offset="0.9221" style="stop-color:#E5CEA8"/>
		<stop  offset="1" style="stop-color:#EDDCBA"/>
	</linearGradient>
	<path class="st4" d="M267.4,282.2c1.6-0.9,3.2-1.9,4.8-2.8h-17.7c-0.4,0.3-0.9,0.5-1.3,0.8c-5.2,3.1-10.2,6.5-15.3,10h17.3
		C259.3,287.4,263.3,284.7,267.4,282.2z"/>
	<g>
		<g>
			<path class="st5" d="M298,283.7C298,283.7,298,283.6,298,283.7L298,283.7c0-6.8-7.1-6.8-7.1-6.8h-14.4v6.4v0.9v6.4H291
				C291,290.5,298.1,290.5,298,283.7L298,283.7C298,283.7,298,283.7,298,283.7z"/>
			<path class="st6" d="M291,290.8L291,290.8h-14.4c-0.1,0-0.3-0.1-0.3-0.3v-13.6c0-0.1,0.1-0.3,0.3-0.3H291c0.1,0,3.4,0,5.6,2.2
				c1.2,1.2,1.8,2.8,1.8,4.8c0,0,0,0.1,0,0.1v0.1c0,2-0.6,3.6-1.8,4.8C294.4,290.7,291.1,290.8,291,290.8z M276.8,290.2H291h0
				c0,0,3.2,0,5.2-2c1.1-1.1,1.6-2.6,1.6-4.4l0.3-0.1l-0.3,0c0,0,0-0.1,0-0.1c0-1.9-0.5-3.4-1.6-4.5c-2-2-5.2-2-5.2-2h-14.2V290.2z"
				/>
		</g>
		<g>
			<path class="st7" d="M298,284.8C298,284.7,298,284.7,298,284.8L298,284.8c0-6.8-7.1-6.8-7.1-6.8h-14.4v6.4v0.9v6.4H291
				C291,291.6,298.1,291.6,298,284.8L298,284.8C298,284.8,298,284.8,298,284.8z"/>
			<path class="st8" d="M291,291.8L291,291.8h-14.4c-0.1,0-0.3-0.1-0.3-0.3V278c0-0.1,0.1-0.3,0.3-0.3H291c0.1,0,3.4,0,5.6,2.2
				c1.2,1.2,1.8,2.8,1.8,4.8c0,0,0,0.1,0,0.1v0.1c0,2-0.6,3.6-1.8,4.8C294.4,291.8,291.1,291.8,291,291.8z M276.8,291.3H291h0
				c0,0,3.2,0,5.2-2c1.1-1.1,1.6-2.6,1.6-4.4l0.3-0.1l-0.3,0c0,0,0-0.1,0-0.1c0-1.9-0.5-3.4-1.6-4.5c-2-2-5.2-2-5.2-2h-14.2V291.3z"
				/>
		</g>
		<defs>
			<filter id="Adobe_OpacityMaskFilter" filterUnits="userSpaceOnUse" x="277.7" y="279" width="19.2" height="11.1">
				<feFlood  style="flood-color:white;flood-opacity:1" result="back"/>
				<feBlend  in="SourceGraphic" in2="back" mode="normal"/>
			</filter>
		</defs>
		<mask maskUnits="userSpaceOnUse" x="277.7" y="279" width="19.2" height="11.1" id="SVGID_6_">
			<g class="st9">
				<defs>
					<filter id="Adobe_OpacityMaskFilter_1_" filterUnits="userSpaceOnUse" x="277.7" y="279" width="19.2" height="11.1">
						<feFlood  style="flood-color:white;flood-opacity:1" result="back"/>
						<feBlend  in="SourceGraphic" in2="back" mode="normal"/>
					</filter>
				</defs>
				<mask maskUnits="userSpaceOnUse" x="277.7" y="279" width="19.2" height="11.1" id="SVGID_6_">
					<g class="st10">
					</g>
				</mask>
				<linearGradient id="SVGID_7_" gradientUnits="userSpaceOnUse" x1="287.2968" y1="257.0913" x2="287.2968" y2="287.9418">
					<stop  offset="0" style="stop-color:#272727"/>
					<stop  offset="0.1813" style="stop-color:#6D6D6D"/>
					<stop  offset="0.5412" style="stop-color:#FFFFFF"/>
					<stop  offset="0.5821" style="stop-color:#F2F2F2"/>
					<stop  offset="0.6577" style="stop-color:#D0D0D0"/>
					<stop  offset="0.7597" style="stop-color:#999999"/>
					<stop  offset="0.8826" style="stop-color:#4D4D4D"/>
					<stop  offset="0.9985" style="stop-color:#000000"/>
				</linearGradient>
				<path class="st11" d="M296.9,284.5C296.9,284.5,296.9,284.5,296.9,284.5L296.9,284.5c0-5.5-6.3-5.5-6.3-5.5h-12.9v5.2v0.7v5.2
					h12.9C290.6,290,297,290,296.9,284.5L296.9,284.5C296.9,284.6,296.9,284.5,296.9,284.5z"/>
			</g>
		</mask>
		<linearGradient id="SVGID_8_" gradientUnits="userSpaceOnUse" x1="287.2968" y1="257.0913" x2="287.2968" y2="287.9418">
			<stop  offset="0" style="stop-color:#636567"/>
			<stop  offset="0.4544" style="stop-color:#A7A8A8"/>
			<stop  offset="0.5412" style="stop-color:#B5B5B5"/>
			<stop  offset="0.6217" style="stop-color:#A8A8A9"/>
			<stop  offset="0.7705" style="stop-color:#868788"/>
			<stop  offset="0.9696" style="stop-color:#505153"/>
			<stop  offset="0.9985" style="stop-color:#47494B"/>
		</linearGradient>
		<path class="st12" d="M296.9,284.5C296.9,284.5,296.9,284.5,296.9,284.5L296.9,284.5c0-5.5-6.3-5.5-6.3-5.5h-12.9v5.2v0.7v5.2
			h12.9C290.6,290,297,290,296.9,284.5L296.9,284.5C296.9,284.6,296.9,284.5,296.9,284.5z"/>
	</g>
</g>
<g>
	<linearGradient id="SVGID_9_" gradientUnits="userSpaceOnUse" x1="199.8588" y1="289.8984" x2="199.8588" y2="279.5863">
		<stop  offset="5.618000e-03" style="stop-color:#E9BE62"/>
		<stop  offset="0.2265" style="stop-color:#BC974F"/>
		<stop  offset="0.4669" style="stop-color:#92723D"/>
		<stop  offset="0.6845" style="stop-color:#735730"/>
		<stop  offset="0.8696" style="stop-color:#614728"/>
		<stop  offset="1" style="stop-color:#5A4125"/>
	</linearGradient>
	<path class="st13" d="M202.5,285.2c0,1.4-1.2,2.6-2.7,2.6c-1.5,0-2.7-1.2-2.7-2.6c0-1.4,1.2-2.6,2.7-2.6
		C201.3,282.6,202.5,283.7,202.5,285.2z"/>
	<g>
		<g>
			<path class="st14" d="M202.3,284.9c0,1.3-1.1,2.3-2.4,2.3c-1.3,0-2.4-1-2.4-2.3c0-1.3,1.1-2.3,2.4-2.3
				C201.2,282.6,202.3,283.6,202.3,284.9z"/>
			<path class="st15" d="M199.9,287.5c-1.5,0-2.7-1.2-2.7-2.6c0-1.4,1.2-2.6,2.7-2.6c1.5,0,2.7,1.2,2.7,2.6
				C202.5,286.3,201.3,287.5,199.9,287.5z M199.9,282.8c-1.2,0-2.1,0.9-2.1,2.1c0,1.1,1,2.1,2.1,2.1c1.2,0,2.1-0.9,2.1-2.1
				C202,283.8,201,282.8,199.9,282.8z"/>
		</g>
		<path class="st15" d="M199.9,282.6c-1.3,0-2.4,1-2.4,2.3c0,1.3,1.1,2.3,2.4,2.3c1.3,0,2.4-1,2.4-2.3
			C202.3,283.6,201.2,282.6,199.9,282.6z M199.8,286.2c-1.1,0-1.9-0.7-1.9-1.6c0-0.9,0.9-1.6,1.9-1.6c1.1,0,1.9,0.7,1.9,1.6
			C201.8,285.5,200.9,286.2,199.8,286.2z"/>
		<path class="st15" d="M201.3,285.8c-0.4-0.1-0.7-0.3-0.9-0.4c0.8-0.5,0.9-1.1,0.9-1.1c0-0.1,0-0.3-0.2-0.3c-0.1,0-0.3,0-0.3,0.1
			c0,0-0.2,0.5-1,1c-1-0.5-1.2-1-1.3-1c-0.1-0.1-0.2-0.2-0.3-0.1c-0.1,0.1-0.2,0.2-0.1,0.3c0,0,0.3,0.5,1.2,1.1
			c-0.3,0.1-0.6,0.3-1,0.4c-0.1,0-0.2,0.2-0.2,0.3c0,0.1,0.1,0.2,0.2,0.2c0,0,0,0,0.1,0c0.6-0.2,1-0.3,1.4-0.5
			c0.3,0.2,0.8,0.4,1.3,0.5c0,0,0.1,0,0.1,0c0.1,0,0.2-0.1,0.2-0.2C201.5,286,201.5,285.8,201.3,285.8z"/>
		<linearGradient id="SVGID_10_" gradientUnits="userSpaceOnUse" x1="199.321" y1="284.3269" x2="198.8057" y2="283.5332">
			<stop  offset="7.750490e-03" style="stop-color:#E8DC9F"/>
			<stop  offset="0.1373" style="stop-color:#D8BE82"/>
			<stop  offset="0.2944" style="stop-color:#C89F64"/>
			<stop  offset="0.4286" style="stop-color:#BE8D52"/>
			<stop  offset="0.5232" style="stop-color:#BB864C"/>
			<stop  offset="0.9221" style="stop-color:#E5CEA8"/>
			<stop  offset="1" style="stop-color:#EDDCBA"/>
		</linearGradient>
		<path class="st16" d="M198.6,284c0.4-0.3,0.9-0.5,1.4-0.5c-0.2-0.1-0.5-0.2-0.8-0.1c0,0-0.9,0.2-1.1,0.9c0,0,0,0.1,0,0.2
			C198.3,284.2,198.4,284.1,198.6,284z"/>
	</g>
</g>
</svg>
