<?xml version="1.0" encoding="utf-8"?>
<!-- Generator: Adobe Illustrator 25.0.0, SVG Export Plug-In . SVG Version: 6.00 Build 0)  -->
<svg version="1.1" id="Layer_1" xmlns="http://www.w3.org/2000/svg" xmlns:xlink="http://www.w3.org/1999/xlink" x="0px" y="0px"
	 viewBox="0 0 364.1 221.9" style="enable-background:new 0 0 364.1 221.9;" xml:space="preserve">
<style type="text/css">
	._x005B_Default_x005D_{fill:#FFFFFF;stroke:#231F20;stroke-miterlimit:10;}
	.Round_x0020_Corners_x0020_2_x0020_pt{fill:#FFFFFF;stroke:#231F20;stroke-miterlimit:10;}
	.Live_x0020_Reflect_x0020_X{fill:none;}
	.Bevel_x0020_Soft{fill:url(#SVGID_1_);}
	.Dusk{fill:#FFFFFF;}
	.Pompadour_GS{fill-rule:evenodd;clip-rule:evenodd;fill:#44ADE2;}
	.st0{fill:none;stroke:#7F4104;stroke-width:5;stroke-miterlimit:10;}
	.st1{fill:#C38F4A;}
	.st2{fill:#5C2F10;}
	.st3{fill:#CBC37C;}
	.st4{fill:#858585;}
	.st5{fill:#3B3B3B;}
	.st6{fill:#C7C7C7;}
	.st7{fill:#484848;}
	.st8{fill:#3B54A4;}
	.st9{fill:#FFFFFF;}
	.st10{fill:#737373;}
	.st11{fill:#474747;}
	.st12{fill:#FAEC8D;}
	.st13{fill:#ADADAD;}
	.st14{opacity:0.5;fill:#ADADAD;}
	.st15{fill:#FAECD0;}
	.st16{fill:#FABE52;}
</style>
<linearGradient id="SVGID_1_" gradientUnits="userSpaceOnUse" x1="-297.376" y1="893.1494" x2="-296.6689" y2="893.8565">
	<stop  offset="0" style="stop-color:#DEDFE3"/>
	<stop  offset="0.1783" style="stop-color:#DADBDF"/>
	<stop  offset="0.3611" style="stop-color:#CECFD3"/>
	<stop  offset="0.546" style="stop-color:#B9BCBF"/>
	<stop  offset="0.7324" style="stop-color:#9CA0A2"/>
	<stop  offset="0.9181" style="stop-color:#787D7E"/>
	<stop  offset="1" style="stop-color:#656B6C"/>
</linearGradient>
<path class="st0" d="M314.6,202.5h-257c-7.2,0-13-5.8-13-13V57.8c0-7.2,5.8-13,13-13h257c7.2,0,13,5.8,13,13v131.7
	C327.6,196.7,321.8,202.5,314.6,202.5z"/>
<g>
	<g>
		<g>
			<g>
				<g>
					<path class="st1" d="M93.3,41.9c-6.5,0-11.9,1.9-11.9,4.2c0,2.1,4.5,3.8,10.3,4.1l0,0h24v-8.3H93.3z"/>
					<path class="st2" d="M115.7,50.7h-24c-0.1,0-0.1,0-0.2,0C84.3,50.3,81,48,81,46.1c0-2.2,4.3-4.6,12.3-4.6h22.4
						c0.3,0,0.5,0.2,0.5,0.5v8.3C116.2,50.5,116,50.7,115.7,50.7z M91.9,49.8h23.3v-7.4h-22c-6.7,0-11.4,1.9-11.4,3.7
						c0,1.5,3.8,3.4,9.8,3.6C91.8,49.7,91.9,49.7,91.9,49.8z"/>
				</g>
				<g>
					<path class="st3" d="M93.3,40.7c-6.5,0-11.9,1.9-11.9,4.2c0,2.1,4.5,3.9,10.3,4.1l0,0h24v-8.3H93.3z"/>
					<path class="st2" d="M115.7,49.5h-24c-0.1,0-0.1,0-0.2,0C84.3,49,81,46.8,81,44.8c0-2.2,4.3-4.6,12.3-4.6h22.4
						c0.3,0,0.5,0.2,0.5,0.5V49C116.2,49.3,116,49.5,115.7,49.5z M91.9,48.5h23.3v-7.4h-22c-6.7,0-11.4,1.9-11.4,3.7
						c0,1.5,3.8,3.4,9.8,3.6C91.8,48.5,91.9,48.5,91.9,48.5z"/>
				</g>
			</g>
			<g>
				<g>
					<path class="st1" d="M273.5,41.9c6.5,0,11.9,1.9,11.9,4.2c0,2.1-4.5,3.8-10.3,4.1l0,0h-24v-8.3H273.5z"/>
					<path class="st2" d="M275.1,50.7C275.1,50.7,275.1,50.7,275.1,50.7h-24c-0.3,0-0.5-0.2-0.5-0.5v-8.3c0-0.3,0.2-0.5,0.5-0.5
						h22.4c8,0,12.3,2.4,12.3,4.6c0,2-3.3,4.2-10.5,4.6C275.3,50.7,275.2,50.7,275.1,50.7z M251.6,49.8h23.3c0.1,0,0.1,0,0.2,0
						c6.1-0.3,9.8-2.1,9.8-3.6c0-1.7-4.7-3.7-11.4-3.7h-22V49.8z"/>
				</g>
				<g>
					<path class="st3" d="M273.5,40.7c6.5,0,11.9,1.9,11.9,4.2c0,2.1-4.5,3.9-10.3,4.1l0,0h-24v-8.3H273.5z"/>
					<path class="st2" d="M275.1,49.5C275.1,49.5,275.1,49.5,275.1,49.5h-24c-0.3,0-0.5-0.2-0.5-0.5v-8.3c0-0.3,0.2-0.5,0.5-0.5
						h22.4c8,0,12.3,2.4,12.3,4.6c0,2-3.3,4.2-10.5,4.6C275.3,49.5,275.2,49.5,275.1,49.5z M251.6,48.5h23.3c0.1,0,0.1,0,0.2,0
						c6.1-0.3,9.8-2.1,9.8-3.6c0-1.7-4.7-3.7-11.4-3.7h-22V48.5z"/>
				</g>
			</g>
		</g>
		<g>
			<g>
				<polygon class="st4" points="101.6,27.8 106.3,15.8 106.3,42.5 101.6,54.9 				"/>
				<path class="st2" d="M101.6,55.4C101.6,55.4,101.6,55.4,101.6,55.4c-0.3,0-0.5-0.2-0.5-0.5V27.8c0-0.1,0-0.1,0-0.2l4.7-12
					c0.1-0.2,0.3-0.3,0.5-0.3c0.2,0,0.4,0.2,0.4,0.5v26.7c0,0.1,0,0.1,0,0.2l-4.7,12.4C102,55.3,101.8,55.4,101.6,55.4z M102.1,27.9
					v24.4l3.7-9.9V18.3L102.1,27.9z"/>
			</g>
			<g>
				<polygon class="st4" points="265.2,27.8 260.5,15.8 260.5,42.5 265.2,54.9 				"/>
				<path class="st2" d="M265.2,55.4c-0.2,0-0.4-0.1-0.4-0.3l-4.7-12.4c0-0.1,0-0.1,0-0.2V15.8c0-0.2,0.2-0.4,0.4-0.5
					c0.2,0,0.4,0.1,0.5,0.3l4.7,12c0,0.1,0,0.1,0,0.2v27.1C265.7,55.1,265.5,55.3,265.2,55.4C265.3,55.4,265.2,55.4,265.2,55.4z
					 M261,42.4l3.7,9.9V27.9l-3.7-9.6V42.4z"/>
			</g>
			<g>
				<rect x="106.3" y="15.8" class="st5" width="154.2" height="25.5"/>
				<path class="st2" d="M260.5,41.8H106.3c-0.3,0-0.5-0.2-0.5-0.5V15.8c0-0.3,0.2-0.5,0.5-0.5h154.2c0.3,0,0.5,0.2,0.5,0.5v25.5
					C261,41.6,260.8,41.8,260.5,41.8z M106.8,40.9h153.3V16.3H106.8V40.9z"/>
			</g>
			<g>
				<g>
					<path class="st6" d="M165.3,17.5h-11.5h-33h-11.5c-2,0-3.6,4.6-3.6,10.3c0,5.7,1.6,10.3,3.6,10.3h10.7h34.5h10.7
						c2,0,3.6-4.6,3.6-10.3C169,22.1,167.3,17.5,165.3,17.5z"/>
					<path class="st2" d="M165.3,38.5h-55.9c-2.7,0-4.1-5.5-4.1-10.7c0-5.2,1.4-10.7,4.1-10.7h55.9c2.7,0,4.1,5.5,4.1,10.7
						C169.4,33,168,38.5,165.3,38.5z M109.4,18c-1.5,0-3.1,4-3.1,9.8c0,5.8,1.7,9.8,3.1,9.8h55.9c1.5,0,3.1-4,3.1-9.8
						c0-5.8-1.7-9.8-3.1-9.8H109.4z"/>
				</g>
				<g>
					<path class="st4" d="M252.6,3.8h-26.8h-77.1h-26.8c-4.7,0-8.5,10.7-8.5,24c0,13.3,3.8,24,8.5,24h25h80.6h25
						c4.7,0,8.5-10.7,8.5-24C261.1,14.5,257.3,3.8,252.6,3.8z"/>
					<path class="st2" d="M252.6,52.3H121.9c-5,0-8.9-10.8-8.9-24.5c0-13.7,3.9-24.5,8.9-24.5h130.7c5,0,8.9,10.7,8.9,24.5
						C261.5,41.5,257.6,52.3,252.6,52.3z M121.9,4.3c-4.3,0-8,10.8-8,23.5c0,12.7,3.7,23.5,8,23.5h130.7c4.3,0,8-10.8,8-23.5
						c0-12.7-3.7-23.5-8-23.5H121.9z"/>
				</g>
				<g>
					<path class="st7" d="M121.9,10.7h26.8h77.1h26.8c4.7,0,8.5,7.7,8.5,17.1c0-13.3-3.8-24-8.5-24h-26.8h-77.1h-26.8
						c-4.7,0-8.5,10.7-8.5,24C113.4,18.3,117.2,10.7,121.9,10.7z"/>
					<path class="st7" d="M252.6,44.9h-25h-80.6h-25c-4.7,0-8.5-7.7-8.5-17.1c0,13.3,3.8,24,8.5,24h25h80.6h25
						c4.7,0,8.5-10.7,8.5-24C261.1,37.3,257.3,44.9,252.6,44.9z"/>
				</g>
				<path class="st8" d="M152.5,3.8h-30.7c-4.7,0-8.5,10.7-8.5,24c0,13.3,3.8,24,8.5,24h30.7V3.8z"/>
				<g>
					<polygon class="st9" points="129.3,17.2 125,17.2 125,25.7 116.5,25.7 116.5,29.9 125,29.9 125,38.4 129.3,38.4 129.3,29.9 
						137.7,29.9 137.7,25.7 129.3,25.7 					"/>
					<rect x="236.7" y="25.7" class="st9" width="21.2" height="4.3"/>
				</g>
			</g>
			<g>
				<rect x="101.6" y="27.8" class="st5" width="163.6" height="27.1"/>
				<path class="st2" d="M265.2,55.4H101.6c-0.3,0-0.5-0.2-0.5-0.5V27.8c0-0.3,0.2-0.5,0.5-0.5h163.6c0.3,0,0.5,0.2,0.5,0.5v27.1
					C265.7,55.2,265.5,55.4,265.2,55.4z M102.1,54.4h162.6V28.3H102.1V54.4z"/>
			</g>
		</g>
	</g>
	<g>
		<g>
			<path class="st10" d="M157.2,196.6v15c0,2.1,11.8,3.8,26.3,3.8c14.5,0,26.3-1.7,26.3-3.8v-15H157.2z"/>
			<path class="st2" d="M183.4,216c-10.7,0-26.7-1.1-26.7-4.3v-15c0-0.3,0.2-0.5,0.5-0.5h52.5c0.3,0,0.5,0.2,0.5,0.5v15
				C210.2,214.8,194.2,216,183.4,216z M157.6,197.1v14.6c0,1.2,8.9,3.3,25.8,3.3s25.8-2.2,25.8-3.3v-14.6H157.6z"/>
		</g>
		<g>
			<path class="st10" d="M157.2,208.1c0,2.1,11.8,3.8,26.3,3.8c14.5,0,26.3-1.7,26.3-3.8v-1.8h-52.5V208.1z"/>
		</g>
		<g>
			<path class="st11" d="M209.7,206.3c0,2.1-11.8,3.8-26.3,3.8c-14.5,0-26.3-1.7-26.3-3.8c0-2.1,11.8-3.8,26.3-3.8
				C197.9,202.5,209.7,204.2,209.7,206.3z"/>
			<path class="st2" d="M183.4,210.6c-10.7,0-26.7-1.1-26.7-4.3s16-4.3,26.7-4.3c10.7,0,26.7,1.1,26.7,4.3S194.2,210.6,183.4,210.6z
				 M183.4,203c-16.9,0-25.8,2.2-25.8,3.3c0,1.2,8.9,3.3,25.8,3.3s25.8-2.2,25.8-3.3C209.2,205.1,200.3,203,183.4,203z"/>
		</g>
		<g>
			<g>
				<g>
					<path class="st1" d="M145.3,197.9c-6.5,0-11.9,1.9-11.9,4.2c0,2.1,4.5,3.9,10.3,4.1l0,0h24v-8.3H145.3z"/>
					<path class="st2" d="M167.7,206.7h-24c-0.1,0-0.1,0-0.2,0c-7.2-0.4-10.5-2.6-10.5-4.6c0-2.2,4.3-4.6,12.3-4.6h22.4
						c0.3,0,0.5,0.2,0.5,0.5v8.3C168.2,206.5,168,206.7,167.7,206.7z M143.9,205.7h23.3v-7.4h-22c-6.7,0-11.4,1.9-11.4,3.7
						c0,1.5,3.8,3.4,9.8,3.6C143.8,205.7,143.8,205.7,143.9,205.7z"/>
				</g>
				<g>
					<path class="st3" d="M145.3,196.6c-6.5,0-11.9,1.9-11.9,4.2c0,2.1,4.5,3.9,10.3,4.1l0,0h24v-8.3H145.3z"/>
					<path class="st2" d="M167.7,205.4h-24c-0.1,0-0.1,0-0.2,0c-7.2-0.4-10.5-2.6-10.5-4.6c0-2.2,4.3-4.6,12.3-4.6h22.4
						c0.3,0,0.5,0.2,0.5,0.5v8.3C168.2,205.2,168,205.4,167.7,205.4z M143.9,204.5h23.3v-7.4h-22c-6.7,0-11.4,1.9-11.4,3.7
						c0,1.5,3.8,3.4,9.8,3.6C143.8,204.4,143.8,204.4,143.9,204.5z"/>
				</g>
			</g>
			<g>
				<g>
					<path class="st1" d="M221.6,197.9c6.5,0,11.9,1.9,11.9,4.2c0,2.1-4.5,3.9-10.3,4.1l0,0h-24v-8.3H221.6z"/>
					<path class="st2" d="M223.2,206.7C223.2,206.7,223.2,206.7,223.2,206.7h-24c-0.3,0-0.5-0.2-0.5-0.5v-8.3c0-0.3,0.2-0.5,0.5-0.5
						h22.4c8,0,12.3,2.4,12.3,4.6c0,2-3.3,4.2-10.5,4.6C223.3,206.7,223.2,206.7,223.2,206.7z M199.6,205.8h23.3c0.1,0,0.1,0,0.2,0
						c6.1-0.3,9.8-2.1,9.8-3.6c0-1.7-4.7-3.7-11.4-3.7h-22V205.8z"/>
				</g>
				<g>
					<path class="st3" d="M221.6,196.7c6.5,0,11.9,1.9,11.9,4.2c0,2.1-4.5,3.9-10.3,4.1l0,0h-24v-8.3H221.6z"/>
					<path class="st2" d="M223.2,205.5C223.2,205.5,223.2,205.5,223.2,205.5h-24c-0.3,0-0.5-0.2-0.5-0.5v-8.3c0-0.3,0.2-0.5,0.5-0.5
						h22.4c8,0,12.3,2.4,12.3,4.6c0,2-3.3,4.2-10.5,4.6C223.3,205.5,223.2,205.5,223.2,205.5z M199.6,204.5h23.3c0.1,0,0.1,0,0.2,0
						c6.1-0.3,9.8-2.1,9.8-3.6c0-1.7-4.7-3.7-11.4-3.7h-22V204.5z"/>
				</g>
			</g>
		</g>
		<g>
			<g>
				<path class="st10" d="M156.5,190.7v15c0,2.1,11.8,3.8,26.3,3.8c14.5,0,26.3-1.7,26.3-3.8v-15H156.5z"/>
				<path class="st2" d="M182.8,210.1c-10.7,0-26.7-1.1-26.7-4.3v-15c0-0.3,0.2-0.5,0.5-0.5H209c0.3,0,0.5,0.2,0.5,0.5v15
					C209.5,208.9,193.5,210.1,182.8,210.1z M157,191.2v14.6c0,1.2,8.9,3.3,25.8,3.3c16.9,0,25.8-2.2,25.8-3.3v-14.6H157z"/>
			</g>
			<g>
				<path class="st10" d="M156.5,192.5c0,2.1,11.8,3.8,26.3,3.8c14.5,0,26.3-1.7,26.3-3.8v-1.8h-52.5V192.5z"/>
			</g>
			<path class="st10" d="M164.6,190.7h-8.1v15c0,1.1,3.1,2.1,8.1,2.8V190.7z"/>
			<path class="st10" d="M193.6,190.7v18.5c9.1-0.6,15.4-1.9,15.4-3.5v-15H193.6z"/>
			<g>
				<path class="st11" d="M209,190.7c0,2.1-11.8,3.8-26.3,3.8c-14.5,0-26.3-1.7-26.3-3.8c0-2.1,11.8-3.8,26.3-3.8
					C197.3,186.9,209,188.6,209,190.7z"/>
				<path class="st2" d="M182.8,195c-10.7,0-26.7-1.1-26.7-4.3c0-3.2,16-4.3,26.7-4.3c10.7,0,26.7,1.1,26.7,4.3
					C209.5,193.9,193.5,195,182.8,195z M182.8,187.4c-16.9,0-25.8,2.2-25.8,3.3s8.9,3.3,25.8,3.3c16.9,0,25.8-2.2,25.8-3.3
					S199.7,187.4,182.8,187.4z"/>
			</g>
			<g>
				<g>
					<g>
						<path class="st12" d="M219.3,128.9c0-1.8-0.2-3.7-0.6-5.5c-3-15.5-18.1-27.3-36.3-27.3c-18.2,0-33.3,11.8-36.3,27.3
							c-0.4,1.8-0.6,3.7-0.6,5.5c0,0,0,0.1,0,0.1c0,0,0,0,0,0.1c0,0.8,0.1,1.6,0.1,2.4c0.1,1.8,0.5,3.5,0.9,5.3
							c2.6,10.2,9.2,19.6,12.4,25.2c5.1,9.1,6.1,19.1,6.1,19.7c0,0,0,0,0,0c0,1.1,7.8,2.1,17.3,2.1c9.6,0,17.3-0.9,17.3-2.1h0
							c0,0,0.9-10.3,6.1-19.7c3.2-5.7,9.8-15,12.4-25.2c0.5-1.7,0.8-3.5,0.9-5.3c0.1-0.8,0.1-1.6,0.1-2.4
							C219.3,129.1,219.3,129,219.3,128.9C219.3,129,219.3,129,219.3,128.9z"/>
						<path class="st2" d="M182.4,184.2c-4.6,0-9-0.2-12.3-0.6c-4.8-0.6-5.5-1.3-5.5-1.9c0,0,0-0.1,0-0.1c-0.1-1-1.2-10.6-6-19.4
							c-0.7-1.2-1.5-2.6-2.4-4c-3.4-5.6-8-13.2-10-21.3c-0.5-1.7-0.8-3.5-0.9-5.3c-0.1-0.9-0.1-1.7-0.1-2.4c0,0,0,0,0-0.1
							c0,0,0-0.1,0-0.1c0-1.9,0.2-3.8,0.6-5.6c3.1-16,18.5-27.6,36.8-27.6c18.2,0,33.7,11.6,36.8,27.6c0.4,1.8,0.6,3.7,0.6,5.6
							c0,0,0,0.1,0,0.1c0,0,0,0.1,0,0.1c0,0.7-0.1,1.5-0.1,2.4c-0.1,1.8-0.5,3.6-0.9,5.3c-2,8.1-6.7,15.7-10,21.3
							c-0.9,1.5-1.7,2.8-2.4,4c-5.1,9.2-6.1,19.4-6.1,19.5c0,0,0,0.1,0,0.1c-0.1,0.6-1,1.3-5.5,1.8
							C191.4,184,187.1,184.2,182.4,184.2z M165.6,181.6c0.7,0.7,7,1.7,16.8,1.7c9.9,0,16.2-1,16.8-1.7c0,0,0,0,0-0.1
							c0.1-1.1,1.2-10.9,6.2-19.8c0.7-1.2,1.5-2.6,2.4-4.1c3.3-5.5,7.9-13.1,9.9-21.1c0.5-1.7,0.8-3.4,0.9-5.2
							c0.1-0.9,0.1-1.6,0.1-2.3c0,0,0-0.1,0-0.1c0,0,0,0,0-0.1c0-1.8-0.2-3.6-0.6-5.4c-3-15.6-18.1-26.9-35.8-26.9
							c-17.8,0-32.8,11.3-35.8,26.9c-0.4,1.8-0.6,3.6-0.6,5.4c0,0,0,0.1,0,0.1c0,0,0,0,0,0.1c0,0.7,0,1.5,0.1,2.3
							c0.1,1.7,0.4,3.5,0.9,5.2c2,8,6.6,15.5,9.9,21.1c0.9,1.5,1.7,2.9,2.4,4.1C164.6,170.9,165.5,181.1,165.6,181.6
							C165.6,181.6,165.6,181.6,165.6,181.6z"/>
					</g>
					<g>
						<g>
							<g>
								<g>
									<path class="st13" d="M199.1,187.1C199.1,187.2,199.1,187.2,199.1,187.1c0,1.1-7.4,2-16.6,2c-9.2,0-16.6-0.9-16.6-2
										c0,0,0,0,0-0.1c-1.2,0.8-1.9,1.7-1.9,2.6c0,0.9,0.7,1.8,1.9,2.6c0.4,0.3,0.9,0.6,1.5,0.8c2.6,0.7,8.4,1.2,15.1,1.2
										c6.6,0,12.3-0.5,15-1.1c0.6-0.3,1.1-0.6,1.6-0.9c1.2-0.8,1.8-1.7,1.8-2.6C200.9,188.8,200.3,187.9,199.1,187.1z"/>
									<path class="st2" d="M182.6,194.8c-6.5,0-12.5-0.5-15.2-1.2c0,0-0.1,0-0.1,0c-0.6-0.3-1.1-0.6-1.5-0.8
										c-1.4-0.9-2.1-1.9-2.1-3c0-1.1,0.7-2.1,2.1-3c0.2-0.1,0.4-0.1,0.5,0c0.1,0.1,0.2,0.2,0.2,0.4c0.7,0.7,6.7,1.6,16.1,1.6
										c9.4,0,15.4-0.9,16.1-1.6c0-0.1,0.1-0.3,0.2-0.3c0.2-0.1,0.4-0.1,0.5,0c1.3,0.9,2,1.9,2,3c0,1.1-0.7,2.1-2,3
										c-0.5,0.3-1,0.6-1.7,0.9c0,0-0.1,0-0.1,0C194.9,194.4,189.1,194.8,182.6,194.8z M167.6,192.7c2.7,0.7,8.5,1.2,15,1.2
										c6.3,0,12.1-0.4,14.8-1.1c0.6-0.3,1.1-0.5,1.5-0.8c0.7-0.5,1.6-1.3,1.6-2.2c0-0.8-0.6-1.4-1.2-1.9
										c-0.5,0.4-1.9,0.9-4.9,1.2c-3.2,0.4-7.3,0.6-11.8,0.6c-4.4,0-8.6-0.2-11.8-0.6c-3.1-0.4-4.4-0.8-5-1.2
										c-0.6,0.5-1.2,1.2-1.2,1.9c0,0.9,0.9,1.7,1.6,2.2C166.6,192.2,167.1,192.5,167.6,192.7z"/>
								</g>
							</g>
							<g>
								<path class="st14" d="M181.1,191.1c3.1,0.1,18.4,1.2,18.1-3.7c0,0,0-0.1,0-0.1c0,0-0.1-0.1-0.1-0.1c0,0,0,0,0,0
									c0,1.1-7.4,2-16.6,2c-8.2,0-14.9-0.7-16.3-1.6C167.3,191.2,178.1,191,181.1,191.1z"/>
							</g>
							<g>
								<path class="st13" d="M199.7,181.6C199.7,181.6,199.7,181.6,199.7,181.6c0,1.2-7.8,2.1-17.3,2.1c-9.6,0-17.3-0.9-17.3-2.1
									c0,0,0,0,0-0.1c-1.2,0.8-1.9,1.8-1.9,2.8c0,1,0.7,1.9,1.9,2.8c0.4,0.3,1,0.6,1.5,0.8c2.7,0.7,8.8,1.2,15.8,1.2
									c6.9,0,12.9-0.5,15.7-1.2c0.6-0.3,1.2-0.6,1.7-0.9c1.2-0.8,1.9-1.7,1.9-2.7C201.6,183.4,200.9,182.4,199.7,181.6z"/>
								<path class="st2" d="M182.4,189.6c-6.8,0-13.1-0.5-15.9-1.2c0,0-0.1,0-0.1,0c-0.6-0.3-1.1-0.6-1.6-0.9c-1.4-1-2.1-2-2.1-3.1
									c0-1.1,0.7-2.2,2.2-3.2c0.2-0.1,0.4-0.1,0.6,0c0.1,0.1,0.2,0.2,0.2,0.4c0.7,0.7,7,1.7,16.8,1.7c9.9,0,16.2-1,16.8-1.7
									c0-0.2,0.1-0.3,0.3-0.4c0.2-0.1,0.3-0.1,0.5,0c1.4,0.9,2.1,2,2.1,3.1c0,1.1-0.7,2.2-2.1,3.1c-0.5,0.3-1.1,0.6-1.7,1
									c0,0-0.1,0-0.1,0C195.3,189.2,189.2,189.6,182.4,189.6z M166.8,187.5c2.8,0.7,8.9,1.2,15.6,1.2c6.6,0,12.7-0.5,15.5-1.2
									c0.6-0.3,1.1-0.6,1.5-0.9c0.8-0.5,1.7-1.3,1.7-2.3c0-0.8-0.6-1.5-1.3-2c-0.5,0.5-1.9,0.9-5.1,1.3c-3.3,0.4-7.7,0.6-12.3,0.6
									c-4.6,0-9-0.2-12.3-0.6c-3.3-0.4-4.6-0.8-5.2-1.3c-0.7,0.5-1.3,1.2-1.3,2c0,1,0.9,1.8,1.7,2.4
									C165.8,187,166.3,187.2,166.8,187.5z"/>
							</g>
							<path class="st13" d="M176.6,186.1c7.1,0.3,17.4,0.6,23.9-2.3c0.3-0.1,0.7-0.1,1,0.1c-0.2-0.8-0.8-1.5-1.8-2.2c0,0,0,0,0,0
								c0,1.1-7.8,2.1-17.3,2.1c-8.2,0-15.1-0.7-16.9-1.6C166,185.8,174.2,186,176.6,186.1z"/>
						</g>
					</g>
					<path class="st13" d="M201.5,129.3c0-0.2-0.1-0.4-0.2-0.6c-0.1-0.1-0.2-0.3-0.4-0.3c-0.2,0-0.4,0.1-0.5,0.1
						c-0.2,0.2-0.3,0.3-0.4,0.5c-0.1,0.2-0.2,0.3-0.3,0.5c-0.2,0.3-0.3,0.7-0.4,1c-0.9,2.6-1.4,5.3-1.7,7.9c0,0.1,0,0.2,0,0.2
						c-0.2-0.1-0.3-0.2-0.4-0.3c-0.4-0.5-0.7-1.2-0.9-1.9c-0.4-1.4-0.7-2.9-1.2-4.3c-0.2-0.7-0.5-1.4-0.8-2.1
						c-0.2-0.3-0.4-0.7-0.8-0.9c-0.2-0.1-0.4-0.1-0.7-0.1c-0.2,0.1-0.4,0.2-0.5,0.4c-0.5,0.6-0.8,1.3-1.1,2
						c-0.3,0.7-0.6,1.4-0.9,2.1c-0.3,0.7-0.6,1.4-0.9,2.1c-0.3,0.7-0.7,1.4-1.2,1.8c-0.3,0.2-0.6,0.3-0.9,0.1
						c-0.3-0.2-0.5-0.5-0.7-0.8c-0.4-0.6-0.7-1.3-1-2c-0.6-1.4-1.2-2.8-1.8-4.2c-0.2-0.4-0.3-0.7-0.5-1c-0.1-0.2-0.2-0.3-0.3-0.5
						c-0.1-0.2-0.3-0.3-0.6-0.4c-0.1,0-0.3-0.1-0.4,0c-0.1,0-0.3,0.1-0.3,0.2c-0.2,0.2-0.3,0.3-0.4,0.5c-0.2,0.4-0.3,0.7-0.5,1.1
						c-0.6,1.4-1.2,2.8-1.9,4.1c-0.3,0.6-0.7,1.3-1.2,1.7c-0.1,0.1-0.2,0.2-0.3,0.2c-0.1,0-0.2,0-0.3-0.1c-0.2-0.1-0.4-0.4-0.5-0.8
						c-0.6-1.4-1.2-2.8-1.8-4.1c-0.3-0.7-0.6-1.4-1.2-2c-0.1-0.2-0.3-0.3-0.6-0.4c-0.1-0.1-0.3-0.1-0.5-0.1c-0.2,0-0.3,0.1-0.4,0.2
						c-0.4,0.4-0.6,0.8-0.7,1.1c-0.3,0.7-0.5,1.4-0.7,2.2c-0.2,0.7-0.4,1.4-0.6,2.1c-0.2,0.7-0.4,1.4-0.7,2c-0.3,0.6-0.6,1.3-1,1.7
						c-0.1,0.1-0.2,0.2-0.3,0.3c0-0.1,0-0.1-0.1-0.2c-0.3-1.3-0.7-2.6-1.2-3.8c-0.2-0.6-0.5-1.3-0.8-1.9c-0.1-0.3-0.3-0.7-0.5-0.9
						c-0.2-0.3-0.4-0.6-0.6-0.9c-0.1-0.1-0.3-0.3-0.5-0.4c-0.1-0.1-0.2-0.1-0.4-0.2c-0.2,0-0.4,0-0.6,0.1c-0.2,0.1-0.3,0.2-0.4,0.4
						c-0.1,0.1-0.1,0.2-0.1,0.3c-0.1,0.2-0.1,0.4-0.1,0.6c0,0.8,0.1,1.5,0.2,2.2c0.3,1.4,0.9,2.8,1.8,4c0.5,0.6,0.9,1.2,1.7,1.6
						c0.2,0.1,0.5,0.2,0.8,0.2c0.6,2.2,1.1,4.3,1.5,6.4c0.5,2.4,1,4.7,1.5,7c0.5,2.2,0.9,4.4,1.3,6.4c0.2,1,0.4,2,0.6,3
						c0.2,1,0.4,1.9,0.5,2.8c0.3,1.8,0.6,3.5,0.8,5.1c0.1,0.8,0.2,1.6,0.3,2.3c0.1,0.7,0.2,1.4,0.3,2.1c0.3,2.6,0.5,4.7,0.7,6.1
						c0.1,1.4,0.2,2.2,0.2,2.2l0.1,0c0,0,0-0.8-0.1-2.2c-0.1-1.4-0.2-3.5-0.5-6.2c-0.1-0.7-0.1-1.4-0.2-2.1
						c-0.1-0.7-0.2-1.5-0.3-2.3c-0.2-1.6-0.4-3.3-0.7-5.2c-0.1-0.9-0.3-1.9-0.5-2.8c-0.2-1-0.3-2-0.5-3c-0.4-2-0.8-4.2-1.2-6.4
						c-0.8-4.2-1.7-8.6-2.9-13.3c0.3-0.1,0.6-0.3,0.8-0.5c0.6-0.6,0.9-1.3,1.2-2c0.3-0.7,0.5-1.4,0.7-2.1c0.4-1.4,0.7-2.9,1.2-4.2
						c0.1-0.3,0.3-0.6,0.4-0.8c0.1,0,0,0,0.1,0c0.1,0,0.2,0.1,0.3,0.2c0.4,0.5,0.8,1.2,1.1,1.8c0.6,1.3,1.2,2.7,1.9,4.1
						c0.2,0.4,0.4,0.7,0.8,1c0.2,0.1,0.5,0.2,0.8,0.2c0.3-0.1,0.5-0.2,0.6-0.4c0.6-0.6,1-1.3,1.3-2c0.7-1.4,1.2-2.8,1.8-4.2
						c0.1-0.4,0.3-0.7,0.4-1c0.1-0.2,0.2-0.3,0.3-0.4c0.1-0.1,0.2-0.1,0.3-0.1c0.2,0.1,0.4,0.4,0.6,0.7c0.2,0.3,0.4,0.6,0.5,1
						c0.6,1.4,1.2,2.8,1.9,4.2c0.3,0.7,0.7,1.4,1.1,2c0.2,0.3,0.5,0.6,0.9,0.9c0.2,0.1,0.4,0.2,0.7,0.1c0.2,0,0.4-0.1,0.6-0.3
						c0.3-0.3,0.5-0.6,0.7-0.9c0.2-0.3,0.4-0.7,0.5-1c0.3-0.7,0.6-1.4,0.9-2.1c0.3-0.7,0.6-1.4,0.9-2.1c0.3-0.7,0.6-1.4,1.1-1.9
						c0.2-0.3,0.6-0.4,0.8-0.2c0.3,0.2,0.5,0.5,0.6,0.8c0.3,0.6,0.6,1.4,0.8,2.1c0.4,1.4,0.8,2.8,1.2,4.3c0.2,0.7,0.4,1.4,0.9,2.1
						c0.2,0.2,0.4,0.4,0.7,0.5c-0.3,2.3-0.8,4.6-1.2,6.8c-0.4,2.4-0.8,4.8-1.3,7c-1.6,9-3,16.5-4,21.7c-0.9,5.2-1.5,8.2-1.5,8.2
						l0.1,0c0,0,0.2-0.7,0.5-2.1c0.3-1.4,0.7-3.4,1.3-6c0.5-2.6,1.2-5.8,1.9-9.4c0.7-3.6,1.5-7.7,2.4-12.2c0.8-4.3,1.7-9,2.5-14
						c0.3-0.1,0.5-0.3,0.7-0.4c0.6-0.5,0.9-1.2,1.2-1.9c0.3-0.7,0.5-1.4,0.7-2.1c0.4-1.4,0.6-2.8,0.6-4.3
						C201.6,130.1,201.6,129.7,201.5,129.3z M165.5,137.2c-0.8-1.1-1.3-2.4-1.6-3.7c-0.1-0.7-0.2-1.3-0.2-1.9c0-0.2,0-0.3,0.1-0.4
						c0,0,0,0,0-0.1c0.1,0.1,0.2,0.2,0.3,0.3c0.4,0.5,0.7,1.1,1,1.7c0.3,0.6,0.5,1.2,0.7,1.8c0.4,1.2,0.8,2.5,1.2,3.8
						c0,0-0.1,0-0.1,0C166.3,138.3,165.9,137.7,165.5,137.2z M200.5,134.5c-0.2,0.7-0.4,1.4-0.7,2c-0.3,0.6-0.6,1.3-1.1,1.8
						c-0.1,0.1-0.2,0.2-0.4,0.3c0,0,0,0,0-0.1c0.2-1.3,0.4-2.6,0.6-3.9c0.2-1.3,0.5-2.6,1-3.9c0.1-0.3,0.2-0.6,0.4-0.9
						c0.1-0.3,0.3-0.6,0.5-0.7c0,0,0,0,0,0c0,0.1,0.1,0.2,0.1,0.4c0.1,0.3,0.1,0.6,0.1,1C201,131.8,200.8,133.2,200.5,134.5z"/>
					<path class="st12" d="M219.3,128.9c0-1.8-0.2-3.7-0.6-5.5c-3-15.5-18.1-27.3-36.3-27.3c-18.2,0-33.3,11.8-36.3,27.3
						c-0.4,1.8-0.6,3.7-0.6,5.5c0,0,0,0.1,0,0.1c0,0,0,0,0,0.1c0,0.8,0.1,1.6,0.1,2.4c0.1,1.8,0.5,3.5,0.9,5.3
						c2.6,10.2,9.2,19.6,12.4,25.2c5.1,9.1,6.1,19.1,6.1,19.7c0,0,0,0,0,0c0,1.1,7.8,2.1,17.3,2.1c9.6,0,17.3-0.9,17.3-2.1h0
						c0,0,0.9-10.3,6.1-19.7c3.2-5.7,9.8-15,12.4-25.2c0.5-1.7,0.8-3.5,0.9-5.3c0.1-0.8,0.1-1.6,0.1-2.4
						C219.3,129.1,219.3,129,219.3,128.9C219.3,129,219.3,129,219.3,128.9z M202.2,153.7c-13.3,10.9-35.9,7.1-46.7-5.5
						c-5.8-6.8-8.5-17.9-6.5-26.6c2.2-9.6,8.4-15.9,16.8-20.3c0.5-0.3,4.9-2.4,5.2-2c17.1-4.3,28.7,0,37.4,10.8
						C219.3,123.6,215.7,142.7,202.2,153.7z"/>
					<path class="st12" d="M174.9,170.6c-6.5-1.5-11.7-4.5-15.8-8.5c5,9.1,6,19,6,19.5c0,0,0,0,0,0c0,1.1,7.8,2.1,17.3,2.1
						c9.6,0,17.3-0.9,17.3-2.1h0c0,0,0.9-10.3,6.1-19.7c0.3-0.5,0.6-1,0.9-1.6C198.1,168.5,187,173.3,174.9,170.6z"/>
					<path class="st15" d="M152.2,135.9c2.1,6.7,6.1,12.1,9.2,13.8c0,0-2.7-5.2-4.2-11.7C155.5,137.3,153.8,136.7,152.2,135.9z"/>
					<path class="st15" d="M182.2,99.4c0,0-19.6,1.3-28.1,15.4c-2.6,4.3-3.4,8.8-3.3,13.2c1.9,1.2,3.7,2.5,5.6,3.8
						c-0.3-5.3,0.5-11.1,5-14.8c18-14.8,41.4-9.4,50.1,4.1C211.5,121.2,207.5,99.4,182.2,99.4z"/>
				</g>
				<g>
					<g>
						<path class="st16" d="M140.7,131.8c0,0.3-0.3,0.6-0.6,0.6H127c-0.3,0-0.6-0.3-0.6-0.6l0,0c0-0.3,0.3-0.6,0.6-0.6h13.1
							C140.4,131.2,140.7,131.5,140.7,131.8L140.7,131.8z"/>
						<path class="st16" d="M240.5,131.8c0,0.3-0.3,0.6-0.6,0.6h-13.1c-0.3,0-0.6-0.3-0.6-0.6l0,0c0-0.3,0.3-0.6,0.6-0.6h13.1
							C240.2,131.2,240.5,131.5,240.5,131.8L240.5,131.8z"/>
					</g>
					<g>
						<path class="st16" d="M152.2,100.6c-0.2,0.2-0.6,0.2-0.8,0l-8.3-8.3c-0.2-0.2-0.2-0.6,0-0.8l0,0c0.2-0.2,0.6-0.2,0.8,0
							l8.3,8.3C152.4,100.1,152.4,100.4,152.2,100.6L152.2,100.6z"/>
						<path class="st16" d="M221.5,168.9c-0.2,0.2-0.6,0.2-0.8,0l-8.3-8.3c-0.2-0.2-0.2-0.6,0-0.8l0,0c0.2-0.2,0.6-0.2,0.8,0
							l8.3,8.3C221.7,168.4,221.7,168.7,221.5,168.9L221.5,168.9z"/>
					</g>
					<g>
						<path class="st16" d="M212.4,100.6c0.2,0.2,0.6,0.2,0.8,0l8.3-8.3c0.2-0.2,0.2-0.6,0-0.8l0,0c-0.2-0.2-0.6-0.2-0.8,0l-8.3,8.3
							C212.1,100.1,212.1,100.4,212.4,100.6L212.4,100.6z"/>
						<path class="st16" d="M143.1,168.9c0.2,0.2,0.6,0.2,0.8,0l8.3-8.3c0.2-0.2,0.2-0.6,0-0.8l0,0c-0.2-0.2-0.6-0.2-0.8,0l-8.3,8.3
							C142.9,168.4,142.9,168.7,143.1,168.9L143.1,168.9z"/>
					</g>
					<g>
						<path class="st16" d="M183.4,89.1c-0.3,0-0.6-0.3-0.6-0.6V75.4c0-0.3,0.3-0.6,0.6-0.6l0,0c0.3,0,0.6,0.3,0.6,0.6v13.1
							C184,88.8,183.8,89.1,183.4,89.1L183.4,89.1z"/>
					</g>
					<g>
						<path class="st16" d="M183.4,89.1c-0.3,0-0.6-0.3-0.6-0.6V75.4c0-0.3,0.3-0.6,0.6-0.6l0,0c0.3,0,0.6,0.3,0.6,0.6v13.1
							C184,88.8,183.8,89.1,183.4,89.1L183.4,89.1z"/>
					</g>
				</g>
			</g>
		</g>
	</g>
	<g>
		<g>
			<path class="st6" d="M97.1,41.8c0,1.9-3.2,3.4-7.2,3.4c-4,0-7.2-1.5-7.2-3.4c0-1.9,3.2-4.8,7.2-4.8C93.9,37.1,97.1,40,97.1,41.8z
				"/>
			<path class="st2" d="M89.9,45.8c-4.3,0-7.7-1.7-7.7-3.9c0-2.3,3.6-5.3,7.7-5.3s7.7,2.9,7.7,5.3C97.6,44,94.2,45.8,89.9,45.8z
				 M89.9,37.6c-3.9,0-6.8,2.8-6.8,4.3c0,1.4,2.7,2.9,6.8,2.9c4,0,6.8-1.5,6.8-2.9C96.6,40.4,93.8,37.6,89.9,37.6z"/>
		</g>
		<path class="st6" d="M93,41.1c0,1.1-2,2.1-4.4,2.1c-2.4,0-4.4-0.9-4.4-2.1c0-1.1,2-2.9,4.4-2.9C91.1,38.2,93,39.9,93,41.1z"/>
		<g>
			<g>
				<path class="st2" d="M84.4,41.8c-0.1,0.2-0.1,0.5,0.1,0.7c0.1,0.1,0.2,0.1,0.3,0.1c0.2,0,0.3-0.1,0.4-0.2
					c1.1-1.5,2.4-2.6,3.7-3.4c1.3,0.8,2.6,1.9,3.7,3.4c0.1,0.1,0.2,0.2,0.4,0.2c0.1,0,0.2,0,0.3-0.1c0.2-0.1,0.3-0.4,0.1-0.7
					c-1-1.5-2.3-2.6-3.5-3.4c0.8-0.4,1.5-0.7,2-0.9c-0.5-0.2-1.1-0.3-1.7-0.4c-0.4,0.2-0.8,0.4-1.3,0.7c-0.4-0.2-0.8-0.4-1.1-0.6
					c-0.5,0.1-1,0.2-1.5,0.4c0.5,0.2,1.1,0.4,1.7,0.8C86.7,39.2,85.5,40.3,84.4,41.8z"/>
			</g>
			<g>
				<g>
					<path class="st6" d="M268,41.8c0,1.9,3.2,3.4,7.2,3.4c4,0,7.2-1.5,7.2-3.4c0-1.9-3.2-4.8-7.2-4.8C271.2,37.1,268,40,268,41.8z"
						/>
					<path class="st2" d="M275.2,45.8c-4.3,0-7.7-1.7-7.7-3.9c0-2.3,3.6-5.3,7.7-5.3c4.1,0,7.7,2.9,7.7,5.3
						C283,44,279.6,45.8,275.2,45.8z M275.2,37.6c-3.9,0-6.8,2.8-6.8,4.3c0,1.4,2.7,2.9,6.8,2.9c4,0,6.8-1.5,6.8-2.9
						C282,40.4,279.1,37.6,275.2,37.6z"/>
				</g>
				<path class="st6" d="M272.1,41.1c0,1.1,2,2.1,4.4,2.1c2.4,0,4.4-0.9,4.4-2.1c0-1.1-2-2.9-4.4-2.9
					C274,38.2,272.1,39.9,272.1,41.1z"/>
				<g>
					<path class="st2" d="M280.1,41.8c0.1,0.2,0.1,0.5-0.1,0.7c-0.1,0.1-0.2,0.1-0.3,0.1c-0.2,0-0.3-0.1-0.4-0.2
						c-1.1-1.5-2.4-2.6-3.7-3.4c-1.3,0.8-2.6,1.9-3.7,3.4c-0.1,0.1-0.2,0.2-0.4,0.2c-0.1,0-0.2,0-0.3-0.1c-0.2-0.1-0.3-0.4-0.1-0.7
						c1-1.5,2.3-2.6,3.5-3.4c-0.8-0.4-1.5-0.7-2-0.9c0.5-0.2,1.1-0.3,1.7-0.4c0.4,0.2,0.8,0.4,1.3,0.7c0.4-0.2,0.8-0.4,1.1-0.6
						c0.5,0.1,1,0.2,1.5,0.4c-0.5,0.2-1.1,0.4-1.7,0.8C277.8,39.2,279,40.3,280.1,41.8z"/>
				</g>
			</g>
		</g>
	</g>
	<g>
		<g>
			<path class="st6" d="M217.2,197.8c0,1.9,3.2,3.4,7.2,3.4s7.2-1.5,7.2-3.4c0-1.9-3.2-4.8-7.2-4.8S217.2,196,217.2,197.8z"/>
			<path class="st2" d="M224.4,201.8c-4.3,0-7.7-1.7-7.7-3.9c0-2.3,3.6-5.2,7.7-5.2s7.7,2.9,7.7,5.2
				C232.1,200,228.8,201.8,224.4,201.8z M224.4,193.6c-3.9,0-6.8,2.8-6.8,4.3c0,1.4,2.7,2.9,6.8,2.9s6.8-1.5,6.8-2.9
				C231.2,196.4,228.3,193.6,224.4,193.6z"/>
		</g>
		<g>
			<path class="st6" d="M221.2,197.1c0,1.1,2,2.1,4.4,2.1c2.4,0,4.4-0.9,4.4-2.1c0-1.1-2-2.9-4.4-2.9
				C223.2,194.2,221.2,195.9,221.2,197.1z"/>
			<g>
				<g>
					<path class="st6" d="M149.7,197.8c0,1.9-3.2,3.4-7.2,3.4c-4,0-7.2-1.5-7.2-3.4c0-1.9,3.2-4.8,7.2-4.8
						C146.4,193,149.7,195.9,149.7,197.8z"/>
					<path class="st2" d="M142.4,201.7c-4.3,0-7.7-1.7-7.7-3.9c0-2.3,3.6-5.2,7.7-5.2c4.1,0,7.7,2.9,7.7,5.2
						C150.1,200,146.7,201.7,142.4,201.7z M142.4,193.5c-3.9,0-6.8,2.8-6.8,4.3c0,1.4,2.7,2.9,6.8,2.9c4,0,6.8-1.5,6.8-2.9
						C149.2,196.3,146.3,193.5,142.4,193.5z"/>
				</g>
				<path class="st6" d="M145.6,197c0,1.1-2,2.1-4.4,2.1c-2.4,0-4.4-0.9-4.4-2.1c0-1.1,2-2.9,4.4-2.9
					C143.6,194.1,145.6,195.9,145.6,197z"/>
				<g>
					<path class="st2" d="M137.6,197.8c-0.1,0.2-0.1,0.5,0.1,0.7c0.1,0.1,0.2,0.1,0.3,0.1c0.2,0,0.3-0.1,0.4-0.2
						c1.1-1.5,2.4-2.6,3.7-3.4c1.3,0.8,2.6,1.9,3.7,3.4c0.1,0.1,0.2,0.2,0.4,0.2c0.1,0,0.2,0,0.3-0.1c0.2-0.1,0.3-0.4,0.1-0.7
						c-1-1.5-2.3-2.6-3.5-3.4c0.8-0.4,1.5-0.7,2-0.9c-0.5-0.2-1.1-0.3-1.7-0.4c-0.4,0.2-0.8,0.4-1.3,0.7c-0.4-0.2-0.8-0.4-1.1-0.6
						c-0.5,0.1-1,0.2-1.5,0.4c0.5,0.2,1.1,0.4,1.7,0.8C139.9,195.2,138.6,196.3,137.6,197.8z"/>
				</g>
			</g>
		</g>
		<g>
			<path class="st2" d="M229.3,197.8c0.1,0.2,0.1,0.5-0.1,0.7c-0.1,0.1-0.2,0.1-0.3,0.1c-0.2,0-0.3-0.1-0.4-0.2
				c-1.1-1.5-2.4-2.6-3.7-3.4c-1.3,0.8-2.6,1.9-3.7,3.4c-0.1,0.1-0.2,0.2-0.4,0.2c-0.1,0-0.2,0-0.3-0.1c-0.2-0.1-0.3-0.4-0.1-0.7
				c1-1.5,2.3-2.6,3.5-3.4c-0.8-0.4-1.5-0.7-2-0.9c0.5-0.2,1.1-0.3,1.7-0.4c0.4,0.2,0.8,0.4,1.3,0.7c0.4-0.2,0.8-0.4,1.1-0.6
				c0.5,0.1,1,0.2,1.5,0.4c-0.5,0.2-1.1,0.4-1.7,0.8C227,195.2,228.2,196.3,229.3,197.8z"/>
		</g>
	</g>
</g>
</svg>
