<?xml version="1.0" encoding="utf-8"?>
<!-- Generator: Adobe Illustrator 25.0.0, SVG Export Plug-In . SVG Version: 6.00 Build 0)  -->
<svg version="1.1" id="Layer_1" xmlns="http://www.w3.org/2000/svg" xmlns:xlink="http://www.w3.org/1999/xlink" x="0px" y="0px"
	 viewBox="0 0 17.5 19.9" style="enable-background:new 0 0 17.5 19.9;" xml:space="preserve">
<style type="text/css">
	._x005B_Default_x005D_{fill:#FFFFFF;stroke:#231F20;stroke-miterlimit:10;}
	.Round_x0020_Corners_x0020_2_x0020_pt{fill:#FFFFFF;stroke:#231F20;stroke-miterlimit:10;}
	.Live_x0020_Reflect_x0020_X{fill:none;}
	.Bevel_x0020_Soft{fill:url(#SVGID_1_);}
	.Dusk{fill:#FFFFFF;}
	.Pompadour_GS{fill-rule:evenodd;clip-rule:evenodd;fill:#44ADE2;}
	.st0{fill:url(#SVGID_2_);}
	.st1{fill:#A66651;}
	.st2{fill:url(#SVGID_3_);}
	.st3{fill:url(#SVGID_4_);}
	.st4{fill:url(#SVGID_5_);}
	.st5{fill:url(#SVGID_6_);}
	.st6{fill:#E0E0E0;}
	.st7{fill:#A6A6A6;}
	.st8{fill:url(#SVGID_7_);}
</style>
<linearGradient id="SVGID_1_" gradientUnits="userSpaceOnUse" x1="1419.9624" y1="127.9348" x2="1420.6694" y2="128.6419">
	<stop  offset="0" style="stop-color:#DEDFE3"/>
	<stop  offset="0.1783" style="stop-color:#DADBDF"/>
	<stop  offset="0.3611" style="stop-color:#CECFD3"/>
	<stop  offset="0.546" style="stop-color:#B9BCBF"/>
	<stop  offset="0.7324" style="stop-color:#9CA0A2"/>
	<stop  offset="0.9181" style="stop-color:#787D7E"/>
	<stop  offset="1" style="stop-color:#656B6C"/>
</linearGradient>
<g>
	<g>
		<linearGradient id="SVGID_2_" gradientUnits="userSpaceOnUse" x1="8.8196" y1="7.6644" x2="8.8196" y2="-6.816">
			<stop  offset="5.618000e-03" style="stop-color:#E9BE62"/>
			<stop  offset="8.443396e-03" style="stop-color:#E9BE62"/>
			<stop  offset="0.2181" style="stop-color:#D09F56"/>
			<stop  offset="0.397" style="stop-color:#C08D4F"/>
			<stop  offset="0.5232" style="stop-color:#BB864C"/>
			<stop  offset="0.9221" style="stop-color:#E5CEA8"/>
			<stop  offset="1" style="stop-color:#EDDCBA"/>
		</linearGradient>
		<rect x="0.7" y="0.7" class="st0" width="16.1" height="16.1"/>
		<path class="st1" d="M16.9,17H0.7c-0.1,0-0.3-0.1-0.3-0.3V0.7c0-0.1,0.1-0.3,0.3-0.3h16.1c0.1,0,0.3,0.1,0.3,0.3v16.1
			C17.2,16.9,17,17,16.9,17z M1,16.5h15.6V1H1V16.5z"/>
	</g>
	<g>
		<linearGradient id="SVGID_3_" gradientUnits="userSpaceOnUse" x1="8.8196" y1="19.3046" x2="8.8196" y2="3.408">
			<stop  offset="5.618000e-03" style="stop-color:#E9BE62"/>
			<stop  offset="0.2265" style="stop-color:#BC974F"/>
			<stop  offset="0.4669" style="stop-color:#92723D"/>
			<stop  offset="0.6845" style="stop-color:#735730"/>
			<stop  offset="0.8696" style="stop-color:#614728"/>
			<stop  offset="1" style="stop-color:#5A4125"/>
		</linearGradient>
		<rect x="0.7" y="1.9" class="st2" width="16.1" height="14.9"/>
		<path class="st1" d="M16.9,17H0.7c-0.1,0-0.3-0.1-0.3-0.3V1.9c0-0.1,0.1-0.3,0.3-0.3h16.1c0.1,0,0.3,0.1,0.3,0.3v14.9
			C17.2,16.9,17,17,16.9,17z M1,16.5h15.6V2.1H1V16.5z"/>
	</g>
</g>
<g>
	<linearGradient id="SVGID_4_" gradientUnits="userSpaceOnUse" x1="8.8196" y1="10.5615" x2="8.8196" y2="-3.9205">
		<stop  offset="5.618000e-03" style="stop-color:#E9BE62"/>
		<stop  offset="8.443396e-03" style="stop-color:#E9BE62"/>
		<stop  offset="0.2181" style="stop-color:#D09F56"/>
		<stop  offset="0.397" style="stop-color:#C08D4F"/>
		<stop  offset="0.5232" style="stop-color:#BB864C"/>
		<stop  offset="0.9221" style="stop-color:#E5CEA8"/>
		<stop  offset="1" style="stop-color:#EDDCBA"/>
	</linearGradient>
	<rect x="0.7" y="3.6" class="st3" width="16.1" height="16.1"/>
	<path class="st1" d="M16.9,19.9H0.7c-0.1,0-0.3-0.1-0.3-0.3V3.6c0-0.1,0.1-0.3,0.3-0.3h16.1c0.1,0,0.3,0.1,0.3,0.3v16.1
		C17.2,19.8,17,19.9,16.9,19.9z M1,19.4h15.6V3.9H1V19.4z"/>
</g>
<g>
	<linearGradient id="SVGID_5_" gradientUnits="userSpaceOnUse" x1="2.4247" y1="17.1327" x2="29.9621" y2="-4.0313">
		<stop  offset="7.750490e-03" style="stop-color:#E8DC9F"/>
		<stop  offset="0.1373" style="stop-color:#D8BE82"/>
		<stop  offset="0.2944" style="stop-color:#C89F64"/>
		<stop  offset="0.4286" style="stop-color:#BE8D52"/>
		<stop  offset="0.5232" style="stop-color:#BB864C"/>
		<stop  offset="0.9221" style="stop-color:#E5CEA8"/>
		<stop  offset="1" style="stop-color:#EDDCBA"/>
	</linearGradient>
	<rect x="0.7" y="4.8" class="st4" width="16.1" height="14.9"/>
	<path class="st1" d="M16.9,19.9H0.7c-0.1,0-0.3-0.1-0.3-0.3V4.8c0-0.1,0.1-0.3,0.3-0.3h16.1c0.1,0,0.3,0.1,0.3,0.3v14.9
		C17.2,19.8,17,19.9,16.9,19.9z M1,19.4h15.6V5H1V19.4z"/>
</g>
<g>
	<linearGradient id="SVGID_6_" gradientUnits="userSpaceOnUse" x1="8.9317" y1="16.0651" x2="8.9317" y2="5.753">
		<stop  offset="5.618000e-03" style="stop-color:#E9BE62"/>
		<stop  offset="0.2265" style="stop-color:#BC974F"/>
		<stop  offset="0.4669" style="stop-color:#92723D"/>
		<stop  offset="0.6845" style="stop-color:#735730"/>
		<stop  offset="0.8696" style="stop-color:#614728"/>
		<stop  offset="1" style="stop-color:#5A4125"/>
	</linearGradient>
	<path class="st5" d="M11.6,11.3c0,1.4-1.2,2.6-2.7,2.6c-1.5,0-2.7-1.2-2.7-2.6c0-1.4,1.2-2.6,2.7-2.6C10.4,8.7,11.6,9.9,11.6,11.3z
		"/>
	<g>
		<g>
			<path class="st6" d="M11.3,11.1c0,1.3-1.1,2.3-2.4,2.3c-1.3,0-2.4-1-2.4-2.3c0-1.3,1.1-2.3,2.4-2.3C10.3,8.7,11.3,9.8,11.3,11.1z
				"/>
			<path class="st7" d="M8.9,13.7c-1.5,0-2.7-1.2-2.7-2.6c0-1.4,1.2-2.6,2.7-2.6c1.5,0,2.7,1.2,2.7,2.6
				C11.6,12.5,10.4,13.7,8.9,13.7z M8.9,9c-1.2,0-2.1,0.9-2.1,2.1c0,1.1,1,2.1,2.1,2.1c1.2,0,2.1-0.9,2.1-2.1C11.1,9.9,10.1,9,8.9,9
				z"/>
		</g>
		<path class="st7" d="M8.9,8.7c-1.3,0-2.4,1-2.4,2.3c0,1.3,1.1,2.3,2.4,2.3c1.3,0,2.4-1,2.4-2.3C11.3,9.8,10.3,8.7,8.9,8.7z
			 M8.9,12.4c-1.1,0-1.9-0.7-1.9-1.6c0-0.9,0.9-1.6,1.9-1.6c1.1,0,1.9,0.7,1.9,1.6C10.9,11.7,10,12.4,8.9,12.4z"/>
		<path class="st7" d="M10.4,12c-0.4-0.1-0.7-0.3-0.9-0.4c0.8-0.5,0.9-1.1,0.9-1.1c0-0.1,0-0.3-0.2-0.3c-0.1,0-0.3,0-0.3,0.1
			c0,0-0.2,0.5-1,1c-1-0.5-1.2-1-1.3-1c-0.1-0.1-0.2-0.2-0.3-0.1c-0.1,0.1-0.2,0.2-0.1,0.3c0,0,0.3,0.5,1.2,1.1
			c-0.3,0.1-0.6,0.3-1,0.4c-0.1,0-0.2,0.2-0.2,0.3c0,0.1,0.1,0.2,0.2,0.2c0,0,0,0,0.1,0c0.6-0.2,1-0.3,1.4-0.5
			c0.3,0.2,0.8,0.4,1.3,0.5c0,0,0.1,0,0.1,0c0.1,0,0.2-0.1,0.2-0.2C10.6,12.1,10.5,12,10.4,12z"/>
		<linearGradient id="SVGID_7_" gradientUnits="userSpaceOnUse" x1="8.3938" y1="10.4935" x2="7.8785" y2="9.7">
			<stop  offset="7.750490e-03" style="stop-color:#E8DC9F"/>
			<stop  offset="0.1373" style="stop-color:#D8BE82"/>
			<stop  offset="0.2944" style="stop-color:#C89F64"/>
			<stop  offset="0.4286" style="stop-color:#BE8D52"/>
			<stop  offset="0.5232" style="stop-color:#BB864C"/>
			<stop  offset="0.9221" style="stop-color:#E5CEA8"/>
			<stop  offset="1" style="stop-color:#EDDCBA"/>
		</linearGradient>
		<path class="st8" d="M7.7,10.1c0.4-0.3,0.9-0.5,1.4-0.5C8.9,9.5,8.6,9.5,8.3,9.5c0,0-0.9,0.2-1.1,0.9c0,0,0,0.1,0,0.2
			C7.3,10.4,7.5,10.3,7.7,10.1z"/>
	</g>
</g>
</svg>
