<?xml version="1.0" encoding="utf-8"?>
<!-- Generator: Adobe Illustrator 25.0.0, SVG Export Plug-In . SVG Version: 6.00 Build 0)  -->
<svg version="1.1" id="Capa_1" xmlns="http://www.w3.org/2000/svg" xmlns:xlink="http://www.w3.org/1999/xlink" x="0px" y="0px"
	 viewBox="0 0 192 176" style="enable-background:new 0 0 192 176;" xml:space="preserve">
<style type="text/css">
	.st0{fill:#2AA081;}
	.st1{fill:#8A81AF;}
	.st2{opacity:0.32;}
	.st3{fill:#3C2941;}
	.st4{opacity:0.53;}
</style>
<g>
	<g>
		<path class="st0" d="M146.5,157.1l-3.3-86.3l7.9,18.3l31.6-18.6c0,0-17.7-39.8-34.1-51C132.3,8.3,109.7,8,109.7,8
			s0.3,12.5-14.9,12C80.3,19.5,80,8,80,8S59.7,8.3,43.3,19.5c-16.4,11.1-33.9,51-33.9,51L41.1,89L49,70.7L47.3,157
			c0,0,12.1,10.7,49.8,10.7S146.5,157.1,146.5,157.1z"/>
	</g>
	<g>
		<path class="st1" d="M113.8,8.3C111.2,8,109.7,8,109.7,8s0.3,12.5-14.9,12C80.3,19.5,80,8,80,8s-1.7,0-4.5,0.3
			c0.7,5.5,3.9,15.8,19.1,15.8C110.2,24.1,113.2,13.5,113.8,8.3z"/>
	</g>
	<g>
		<path class="st1" d="M9.4,70.4L41.1,89l1.9-4.4L11.4,66.2C10.1,68.9,9.4,70.4,9.4,70.4z"/>
	</g>
	<g>
		<path class="st1" d="M183,70.4l-31.8,18.9l-1.9-4.3l31.4-18.8C182,68.8,183,70.4,183,70.4z"/>
	</g>
	<g class="st2">
		<path class="st3" d="M49,71.1L49,71.1c-0.2,0-0.4-0.2-0.4-0.4l1.8-41.9c0-0.2,0.2-0.4,0.4-0.4s0.4,0.2,0.4,0.4l-1.8,41.9
			C49.4,71,49.2,71.1,49,71.1z"/>
	</g>
	<g class="st2">
		<path class="st3" d="M143.2,71.1c-0.2,0-0.4-0.2-0.4-0.4L139,28.9c0-0.2,0.1-0.4,0.4-0.4c0.2,0,0.4,0.1,0.4,0.4l3.9,41.9
			C143.6,70.9,143.5,71.1,143.2,71.1L143.2,71.1z"/>
	</g>
	<g class="st4">
		<path class="st3" d="M94.6,24.5c-18.4,0-19.5-15.6-19.5-15.8s0.2-0.4,0.4-0.4c0.2,0,0.4,0.2,0.4,0.4c0,0.6,1.1,15,18.7,15
			s18.7-14.4,18.7-15c0-0.2,0.2-0.4,0.4-0.4c0.2,0,0.4,0.2,0.4,0.4C114.1,8.9,112.9,24.5,94.6,24.5z"/>
	</g>
</g>
</svg>
