<?xml version="1.0" encoding="utf-8"?>
<!-- Generator: Adobe Illustrator 25.0.0, SVG Export Plug-In . SVG Version: 6.00 Build 0)  -->
<svg version="1.1" id="Capa_1" xmlns="http://www.w3.org/2000/svg" xmlns:xlink="http://www.w3.org/1999/xlink" x="0px" y="0px"
	 viewBox="0 0 150 150" style="enable-background:new 0 0 150 150;" xml:space="preserve">
<style type="text/css">
	.Sombra_x0020_paralela{fill:none;}
	.Neón_x0020_azul_x0020_grueso{fill:none;stroke:#0073BC;stroke-width:10;stroke-linecap:round;stroke-linejoin:round;}
	.Agua_x0020_iluminada{fill:url(#SVGID_1_);stroke:#FFFFFF;stroke-width:0.25;stroke-miterlimit:1;}
	.Resalte_x0020_en_x0020_negro_x0020_{fill:url(#SVGID_2_);stroke:#FFFFFF;stroke-width:0.3629;stroke-miterlimit:1;}
	.Coco_GS{fill-rule:evenodd;clip-rule:evenodd;fill:#FFDD00;}
	.st0{fill:#322F34;}
	.st1{enable-background:new    ;}
	.st2{fill:#CFCFCF;}
	.st3{clip-path:url(#SVGID_3_);enable-background:new    ;}
	.st4{clip-path:url(#SVGID_4_);enable-background:new    ;}
	.st5{fill:#E4E2DF;}
	.st6{fill:#8F3C2F;}
	.st7{fill:#7E3529;}
	.st8{fill:#AB4433;}
	.st9{opacity:0.2;fill:#FFE6BE;}
	.st10{clip-path:url(#SVGID_5_);enable-background:new    ;}
	.st11{fill:#DEDEDE;}
</style>
<linearGradient id="SVGID_1_" gradientUnits="userSpaceOnUse" x1="0" y1="0" x2="6.123234e-17" y2="-1">
	<stop  offset="0" style="stop-color:#1D59F4"/>
	<stop  offset="0.618" style="stop-color:#2D65EE"/>
	<stop  offset="0.6292" style="stop-color:#3864F3"/>
	<stop  offset="0.9831" style="stop-color:#00DDFC"/>
</linearGradient>
<linearGradient id="SVGID_2_" gradientUnits="userSpaceOnUse" x1="0" y1="0" x2="6.123234e-17" y2="-1">
	<stop  offset="0" style="stop-color:#060606"/>
	<stop  offset="0.618" style="stop-color:#000000"/>
	<stop  offset="0.6292" style="stop-color:#000000"/>
	<stop  offset="0.9831" style="stop-color:#000000"/>
</linearGradient>
<g>
	<path class="st0" d="M98.8,140.6L98.8,140.6c-1.1,0-2-0.9-2-2l0-58.1c0-12.1-8.8-27.3-19.3-33.4l-9.1-5.3
		c-4.7-2.7-9.1-3.2-12.3-1.4c-3.2,1.8-4.9,5.9-4.9,11.3l0,58.1c0,1.1-0.9,2-2,2l0,0c-1.1,0-2-0.9-2-2l0-58.1c0-7,2.5-12.3,7-14.9
		c4.5-2.6,10.3-2.1,16.4,1.4l9.1,5.3c11.7,6.8,21.3,23.3,21.3,36.9l0,58.1C100.8,139.7,99.9,140.6,98.8,140.6z"/>
	<g>
		<g class="st1">
			<g>
				<polygon class="st2" points="41,78.2 41,81.8 37.8,83.7 37.8,80.1 				"/>
			</g>
			<g>
				<defs>
					<path id="SVGID_7_" d="M35,75.3l0-3.6c0,2.9,0.9,5.7,2.8,8.4l0,3.6C35.9,81,35,78.1,35,75.3z"/>
				</defs>
				<use xlink:href="#SVGID_7_"  style="overflow:visible;fill:#CFCFCF;"/>
				<clipPath id="SVGID_3_">
					<use xlink:href="#SVGID_7_"  style="overflow:visible;"/>
				</clipPath>
				<g class="st3">
					<path class="st2" d="M37.8,80.1l0,3.6C35.9,81,35,78.1,35,75.3l0-3.6C35,74.5,35.9,77.4,37.8,80.1L37.8,80.1z"/>
				</g>
			</g>
			<g>
				<polygon class="st2" points="58.3,80.8 58.2,84.5 41,81.8 41,78.2 				"/>
			</g>
			<g>
				<polygon class="st2" points="62.9,90.8 62.9,94.4 58.2,84.5 58.3,80.8 				"/>
			</g>
			<g>
				<defs>
					<path id="SVGID_9_" d="M112.8,71.9l0,3.6c0,5.7-3.8,11.4-11.3,15.8c-11.3,6.6-27.8,8.2-41.8,5l0-3.6c14,3.2,30.5,1.5,41.8-5
						C109,83.3,112.7,77.6,112.8,71.9z"/>
				</defs>
				<use xlink:href="#SVGID_9_"  style="overflow:visible;fill:#CFCFCF;"/>
				<clipPath id="SVGID_4_">
					<use xlink:href="#SVGID_9_"  style="overflow:visible;"/>
				</clipPath>
				<g class="st4">
					<path class="st2" d="M112.8,71.9l0,3.6c0,5.7-3.8,11.4-11.3,15.8c-11.3,6.6-27.8,8.2-41.8,5l0-3.6c14,3.2,30.5,1.5,41.8-5
						C109,83.3,112.7,77.6,112.8,71.9L112.8,71.9z"/>
				</g>
			</g>
			<g>
				<path class="st5" d="M101.3,55.9c15.2,8.8,15.3,23.1,0.2,31.9c-11.3,6.6-27.8,8.2-41.8,5l3.3-1.9l-4.7-10L41,78.2l-3.3,1.9
					C32.2,72,35,62.4,46.3,55.9C61.4,47.1,86,47.1,101.3,55.9z"/>
			</g>
		</g>
	</g>
	<g>
		<path class="st6" d="M99.5,17.4c13.5,7.8,13.5,20.4,0.2,28.1c-13.4,7.8-35.1,7.8-48.6,0c-13.5-7.8-13.5-20.4-0.2-28.1
			C64.2,9.6,86,9.6,99.5,17.4z"/>
	</g>
	<g>
		<g>
			<g class="st1">
				<path class="st7" d="M109.6,31.6l-0.3,37.3c0,0.6-0.1,1.3-0.2,1.9c-0.1,0.6-0.3,1.3-0.5,1.9c-0.2,0.6-0.5,1.2-0.8,1.9
					c-1.6,3.1-4.4,5.9-8.6,8.3c-0.5,0.3-1,0.6-1.5,0.8c-0.2,0.1-0.3,0.2-0.5,0.2c-0.4,0.2-0.8,0.4-1.2,0.6c-0.2,0.1-0.3,0.1-0.5,0.2
					c-0.5,0.2-1.1,0.5-1.7,0.7c0,0,0,0,0,0c-0.6,0.2-1.1,0.4-1.7,0.6c-0.2,0.1-0.3,0.1-0.5,0.2c-0.4,0.1-0.9,0.3-1.3,0.4
					c-0.2,0.1-0.4,0.1-0.5,0.2c-0.6,0.2-1.2,0.3-1.8,0.5c0,0,0,0,0,0c-0.6,0.1-1.2,0.3-1.9,0.4c-0.2,0-0.4,0.1-0.6,0.1
					c-0.5,0.1-0.9,0.2-1.4,0.2c-0.1,0-0.2,0-0.4,0.1c-0.1,0-0.1,0-0.2,0c-0.6,0.1-1.2,0.2-1.8,0.2c0,0-0.1,0-0.1,0
					c-0.6,0.1-1.3,0.1-1.9,0.2c-0.2,0-0.4,0-0.6,0c-0.5,0-1,0.1-1.4,0.1c-0.2,0-0.4,0-0.6,0c-0.6,0-1.2,0-1.7,0h-0.2
					c-0.7,0-1.3,0-2,0c-0.2,0-0.4,0-0.6,0c-0.5,0-1,0-1.4-0.1c-0.2,0-0.4,0-0.6,0c-0.5,0-1.1-0.1-1.6-0.1c-0.1,0-0.2,0-0.3,0
					c-0.6-0.1-1.3-0.2-1.9-0.2c-0.1,0-0.1,0-0.2,0c-0.1,0-0.2,0-0.4-0.1c-0.5-0.1-1-0.2-1.5-0.2c-0.2,0-0.4-0.1-0.6-0.1
					c-0.2,0-0.4-0.1-0.6-0.1c-0.3-0.1-0.7-0.1-1-0.2c-0.1,0-0.2,0-0.3-0.1c-0.6-0.1-1.2-0.3-1.9-0.5c-0.2,0-0.3-0.1-0.5-0.1
					c-0.5-0.1-0.9-0.3-1.4-0.4c-0.2-0.1-0.4-0.1-0.5-0.2c-0.5-0.2-1.1-0.4-1.6-0.6c-0.1,0-0.1,0-0.1-0.1c-0.6-0.2-1.1-0.4-1.7-0.7
					c-0.2-0.1-0.3-0.1-0.5-0.2c-0.4-0.2-0.8-0.4-1.2-0.6c-0.2-0.1-0.3-0.2-0.5-0.2c-0.5-0.3-1.1-0.5-1.6-0.8
					c-0.4-0.3-0.9-0.5-1.3-0.8c-0.1-0.1-0.3-0.2-0.4-0.3c-0.3-0.2-0.5-0.4-0.8-0.5c0,0-0.1,0-0.1-0.1c-0.2-0.2-0.5-0.3-0.7-0.5
					c0,0-0.1-0.1-0.1-0.1c-0.1-0.1-0.1-0.1-0.2-0.2c-0.3-0.2-0.5-0.4-0.8-0.6c-0.1,0-0.1-0.1-0.2-0.1c-0.3-0.2-0.5-0.5-0.8-0.7
					c-0.1-0.1-0.1-0.1-0.2-0.2c-0.2-0.2-0.4-0.4-0.7-0.7c0,0-0.1-0.1-0.1-0.1c-0.2-0.3-0.5-0.5-0.7-0.8c-0.1-0.1-0.1-0.1-0.1-0.2
					c-0.2-0.2-0.4-0.5-0.5-0.7c0,0,0-0.1-0.1-0.1c-0.2-0.3-0.4-0.5-0.5-0.8c0-0.1-0.1-0.1-0.1-0.2c-0.2-0.3-0.3-0.5-0.5-0.8
					c0,0,0,0,0,0c-0.1-0.3-0.3-0.6-0.4-0.8c0-0.1-0.1-0.1-0.1-0.2c-0.1-0.3-0.2-0.6-0.3-0.8c0,0,0,0,0,0c-0.1-0.2-0.1-0.4-0.2-0.6
					c0-0.1,0-0.1,0-0.2c0-0.1-0.1-0.2-0.1-0.3c0-0.2-0.1-0.4-0.1-0.6c0-0.1,0-0.2-0.1-0.3c0-0.2-0.1-0.4-0.1-0.6c0-0.1,0-0.2,0-0.3
					c0-0.3,0-0.6,0-0.9l0.2-24.8l0.1-12.5c0,0.3,0,0.6,0,0.9c0,0.1,0,0.2,0,0.3c0,0.2,0,0.4,0.1,0.6c0,0.1,0,0.2,0.1,0.3
					c0,0.2,0.1,0.4,0.1,0.6c0,0.1,0.1,0.2,0.1,0.3c0.1,0.3,0.1,0.5,0.2,0.8c0,0,0,0,0,0.1c0.1,0.3,0.2,0.6,0.3,0.8
					c0,0.1,0.1,0.1,0.1,0.2c0.1,0.3,0.2,0.6,0.4,0.8c0,0,0,0,0,0c0.1,0.3,0.3,0.5,0.4,0.8c0,0.1,0.1,0.1,0.1,0.2
					c0.2,0.3,0.3,0.5,0.5,0.8c0,0,0,0.1,0.1,0.1c0.2,0.2,0.4,0.5,0.5,0.7c0,0.1,0.1,0.1,0.1,0.2c0.2,0.3,0.4,0.5,0.7,0.8
					c0,0,0.1,0.1,0.1,0.1c0.2,0.2,0.4,0.5,0.7,0.7l0.2,0.2c0.3,0.2,0.5,0.5,0.8,0.7c0.1,0,0.1,0.1,0.2,0.1c0.2,0.2,0.5,0.4,0.8,0.6
					c0,0,0,0,0.1,0c0,0,0.1,0.1,0.1,0.1c0.3,0.2,0.6,0.5,0.9,0.7c0.3,0.2,0.5,0.4,0.8,0.5c0.1,0.1,0.3,0.2,0.4,0.3
					c0.4,0.3,0.8,0.5,1.3,0.8c0.5,0.3,1,0.6,1.6,0.8c0.2,0.1,0.3,0.2,0.5,0.2c0.4,0.2,0.8,0.4,1.2,0.6c0.2,0.1,0.3,0.1,0.5,0.2
					c0.6,0.2,1.1,0.5,1.7,0.7c0.1,0,0.1,0,0.1,0.1c0.5,0.2,1.1,0.4,1.6,0.6c0.2,0.1,0.4,0.1,0.5,0.2c0.5,0.1,0.9,0.3,1.4,0.4
					c0.2,0,0.3,0.1,0.5,0.1c0.6,0.2,1.2,0.3,1.9,0.5c0.1,0,0.2,0,0.3,0.1c0.2,0.1,0.5,0.1,0.7,0.2c0.3,0.1,0.6,0.1,0.9,0.2l0.6,0.1
					c0.5,0.1,1,0.2,1.5,0.2c0.2,0,0.3,0.1,0.5,0.1c0.6,0.1,1.3,0.2,1.9,0.2c0.1,0,0.2,0,0.3,0c0.5,0.1,1.1,0.1,1.6,0.1
					c0.2,0,0.4,0,0.6,0c0.5,0,1,0.1,1.4,0.1c0.2,0,0.4,0,0.6,0c0.7,0,1.3,0,2,0c0.1,0,0.2,0,0.2,0c0.6,0,1.2,0,1.7,0
					c0.2,0,0.4,0,0.6,0c0.5,0,1,0,1.4-0.1c0.2,0,0.4,0,0.6,0c0.6-0.1,1.3-0.1,1.9-0.2c0,0,0.1,0,0.1,0c0.6-0.1,1.2-0.2,1.8-0.2
					c0.2,0,0.4-0.1,0.6-0.1c0.5-0.1,0.9-0.2,1.4-0.2c0.2,0,0.4-0.1,0.6-0.1c0.6-0.1,1.3-0.3,1.9-0.4c0,0,0,0,0,0
					c0.6-0.1,1.2-0.3,1.8-0.5c0.2-0.1,0.4-0.1,0.5-0.2c0.4-0.1,0.9-0.3,1.3-0.4c0.2-0.1,0.4-0.1,0.5-0.2c0.6-0.2,1.2-0.4,1.7-0.6
					c0,0,0,0,0,0c0.6-0.2,1.1-0.4,1.7-0.7c0.2-0.1,0.3-0.1,0.5-0.2c0.4-0.2,0.8-0.4,1.2-0.6c0.2-0.1,0.3-0.2,0.5-0.2
					c0.5-0.3,1-0.5,1.5-0.8C106.3,41.7,109.6,36.6,109.6,31.6z"/>
				<g>
					<g>
						<path class="st8" d="M99.6,48.6c-13.4,7.8-35.1,7.8-48.6,0c-7.4-4.3-10.8-10-10-15.6c0.6,4.6,3.9,9.2,10,12.7
							c13.5,7.8,35.2,7.8,48.6,0c6-3.5,9.3-8,9.9-12.5C110.2,38.7,106.9,44.3,99.6,48.6z"/>
						<path class="st8" d="M99.6,52.4c-13.4,7.8-35.1,7.8-48.6,0c-7.4-4.3-10.8-10-10-15.6c0.6,4.6,3.9,9.2,10,12.7
							c13.5,7.8,35.2,7.8,48.6,0c6-3.5,9.3-8,9.9-12.5C110.2,42.5,106.9,48.2,99.6,52.4z"/>
						<path class="st8" d="M99.6,56.2C86.2,64,64.5,64,51,56.2c-7.4-4.3-10.8-10-10-15.6c0.6,4.6,3.9,9.2,10,12.7
							c13.5,7.8,35.2,7.8,48.6,0c6-3.5,9.3-8,9.9-12.5C110.2,46.3,106.9,52,99.6,56.2z"/>
						<path class="st8" d="M99.6,60c-13.4,7.8-35.1,7.8-48.6,0c-7.4-4.3-10.8-10-10-15.6c0.6,4.6,3.9,9.2,10,12.7
							c13.5,7.8,35.2,7.8,48.6,0c6-3.5,9.3-8,9.9-12.5C110.2,50.1,106.9,55.8,99.6,60z"/>
						<path class="st8" d="M99.6,63.9c-13.4,7.8-35.1,7.8-48.6,0c-7.4-4.3-10.8-10-10-15.6c0.6,4.6,3.9,9.2,10,12.7
							c13.5,7.8,35.2,7.8,48.6,0c6-3.5,9.3-8,9.9-12.5C110.2,54,106.9,59.6,99.6,63.9z"/>
						<path class="st8" d="M99.6,67.7c-13.4,7.8-35.1,7.8-48.6,0c-7.4-4.3-10.8-10-10-15.6c0.6,4.6,3.9,9.2,10,12.7
							c13.5,7.8,35.2,7.8,48.6,0c6-3.5,9.3-8,9.9-12.5C110.2,57.8,106.9,63.5,99.6,67.7z"/>
						<path class="st8" d="M99.6,71.5c-13.4,7.8-35.1,7.8-48.6,0c-7.4-4.3-10.8-10-10-15.6c0.6,4.6,3.9,9.2,10,12.7
							c13.5,7.8,35.2,7.8,48.6,0c6-3.5,9.3-8,9.9-12.5C110.2,61.6,106.9,67.3,99.6,71.5z"/>
						<path class="st8" d="M99.6,75.3c-13.4,7.8-35.1,7.8-48.6,0c-7.4-4.3-10.8-10-10-15.6c0.6,4.6,3.9,9.2,10,12.7
							c13.5,7.8,35.2,7.8,48.6,0c6-3.5,9.3-8,9.9-12.5C110.2,65.4,106.9,71.1,99.6,75.3z"/>
						<path class="st8" d="M99.6,79.2c-13.4,7.8-35.1,7.8-48.6,0c-7.4-4.3-10.8-10-10-15.6c0.6,4.6,3.9,9.2,10,12.7
							c13.5,7.8,35.2,7.8,48.6,0c6-3.5,9.3-8,9.9-12.5C110.2,69.3,106.9,74.9,99.6,79.2z"/>
						<path class="st8" d="M99.6,83c-13.4,7.8-35.1,7.8-48.6,0c-7.4-4.3-10.8-10-10-15.6c0.6,4.6,3.9,9.2,10,12.7
							c13.5,7.8,35.2,7.8,48.6,0c6-3.5,9.3-8,9.9-12.5C110.2,73.1,106.9,78.8,99.6,83z"/>
					</g>
				</g>
				<g>
					<path class="st6" d="M99.5,17.4c13.5,7.8,13.5,20.4,0.2,28.1c-13.4,7.8-35.1,7.8-48.6,0c-13.5-7.8-13.5-20.4-0.2-28.1
						C64.2,9.6,86,9.6,99.5,17.4z"/>
				</g>
				<g>
					<path class="st7" d="M94.3,40.2c-0.6,0.4-1.2,0.8-1.9,1.2c-0.6,0.3-1.2,0.7-1.8,1c-8.9,4.2-21.7,4.2-30.6,0
						c-0.6-0.3-1.3-0.6-1.8-1c-0.7-0.4-1.3-0.8-1.8-1.2c-7.1-5.1-7.1-12.5,0.1-17.6c0.5-0.4,1.1-0.7,1.6-1.1
						c0.7-0.4,1.4-0.8,2.1-1.1c8.8-4.1,21.4-4,30.2,0.1c0.7,0.3,1.3,0.6,1.9,1c0.6,0.4,1.2,0.7,1.8,1.1
						C101.2,27.8,101.3,35.1,94.3,40.2z"/>
				</g>
			</g>
		</g>
		<path class="st9" d="M63.5,50.1v37.4c-0.3-0.1-0.7-0.1-1-0.2c-0.1,0-0.2,0-0.3-0.1c-0.6-0.1-1.2-0.3-1.9-0.5
			c-0.2,0-0.3-0.1-0.5-0.1c-0.5-0.1-0.9-0.3-1.4-0.4c-0.2-0.1-0.4-0.1-0.5-0.2c-0.5-0.2-1.1-0.4-1.6-0.6c-0.1,0-0.1,0-0.1-0.1
			c-0.6-0.2-1.1-0.4-1.7-0.7c-0.2-0.1-0.3-0.1-0.5-0.2c-0.4-0.2-0.8-0.4-1.2-0.6c-0.2-0.1-0.3-0.2-0.5-0.2c-0.5-0.3-1.1-0.5-1.6-0.8
			c-0.4-0.3-0.9-0.5-1.3-0.8c-0.1-0.1-0.3-0.2-0.4-0.3c-0.3-0.2-0.5-0.4-0.8-0.5c0,0-0.1,0-0.1-0.1c-0.2-0.2-0.5-0.3-0.7-0.5V43.2
			c0,0,0.1,0.1,0.1,0.1c0.3,0.2,0.6,0.5,0.9,0.7c0.3,0.2,0.5,0.4,0.8,0.5c0.1,0.1,0.3,0.2,0.4,0.3c0.4,0.3,0.8,0.5,1.3,0.8
			c0.5,0.3,1,0.6,1.6,0.8c0.2,0.1,0.3,0.2,0.5,0.2c0.4,0.2,0.8,0.4,1.2,0.6c0.2,0.1,0.3,0.1,0.5,0.2c0.6,0.2,1.1,0.5,1.7,0.7
			c0.1,0,0.1,0,0.1,0.1c0.5,0.2,1.1,0.4,1.6,0.6c0.2,0.1,0.4,0.1,0.5,0.2c0.5,0.1,0.9,0.3,1.4,0.4c0.2,0,0.3,0.1,0.5,0.1
			c0.6,0.2,1.2,0.3,1.9,0.5c0.1,0,0.2,0,0.3,0.1C63,50,63.2,50.1,63.5,50.1z"/>
		<path class="st9" d="M58.6,48.8c-0.1,0-0.2-0.1-0.3-0.1c-0.5-0.2-1.1-0.4-1.6-0.6c-0.1,0-0.1,0-0.1-0.1c-0.6-0.2-1.1-0.5-1.7-0.7
			c-0.2-0.1-0.3-0.1-0.5-0.2c-0.4-0.2-0.8-0.4-1.2-0.6c0,0-0.1,0-0.1-0.1V84c0.4,0.2,0.7,0.4,1.1,0.5c0.2,0.1,0.3,0.1,0.5,0.2
			c0.6,0.2,1.1,0.5,1.7,0.7c0,0,0.1,0,0.1,0.1c0.5,0.2,1.1,0.4,1.6,0.6c0.2,0.1,0.4,0.1,0.5,0.2c0,0,0,0,0.1,0V48.8z"/>
	</g>
	<g>
		<g class="st1">
			<g>
				<defs>
					<path id="SVGID_11_" d="M114.4,30.8l0,4.3c0,5.8-3.8,11.6-11.4,16c-15.3,8.9-40.1,8.9-55.5,0C39.7,46.7,35.8,40.8,35.8,35
						l0-4.3c0,5.9,3.8,11.7,11.6,16.2c15.4,8.9,40.2,8.9,55.5,0C110.6,42.4,114.4,36.6,114.4,30.8z"/>
				</defs>
				<use xlink:href="#SVGID_11_"  style="overflow:visible;fill:#CFCFCF;"/>
				<clipPath id="SVGID_5_">
					<use xlink:href="#SVGID_11_"  style="overflow:visible;"/>
				</clipPath>
				<g class="st10">
					<path class="st2" d="M114.4,30.8l0,4.3c0,0.5,0,1-0.1,1.5l0-4.3C114.4,31.8,114.4,31.3,114.4,30.8L114.4,30.8z"/>
					<path class="st2" d="M114.3,32.3l0,4.3c-0.4,3.7-2.4,7.3-5.9,10.5l0-4.3C111.9,39.6,113.9,36,114.3,32.3L114.3,32.3z"/>
					<path class="st2" d="M108.4,42.8l0,4.3c-1.5,1.4-3.3,2.7-5.5,4c-4.7,2.7-10.2,4.6-16.1,5.7l0-4.3c5.9-1.1,11.5-2.9,16.1-5.7
						C105.1,45.6,106.9,44.2,108.4,42.8L108.4,42.8z"/>
					<path class="st2" d="M86.8,52.5l0,4.3c-6.2,1.1-12.8,1.3-19.1,0.6l0-4.3C74.1,53.8,80.6,53.6,86.8,52.5L86.8,52.5z"/>
					<path class="st2" d="M67.7,53.1l0,4.3c-7.4-0.8-14.5-2.9-20.2-6.2C39.7,46.7,35.8,40.8,35.8,35l0-4.3c0,5.9,3.8,11.7,11.6,16.2
						C53.2,50.1,60.3,52.2,67.7,53.1L67.7,53.1z"/>
				</g>
			</g>
			<g>
				<path class="st5" d="M102.8,14.7c15.4,8.9,15.5,23.3,0.2,32.1c-15.3,8.9-40.1,8.9-55.5,0C32.1,37.9,32,23.5,47.3,14.7
					C62.6,5.8,87.4,5.8,102.8,14.7z"/>
			</g>
			<g>
				<path class="st2" d="M92.8,20.5c9.8,5.7,9.9,14.9,0.1,20.6c-9.8,5.7-25.7,5.7-35.5,0c-9.8-5.7-9.9-14.9-0.1-20.6
					C67.1,14.8,83,14.8,92.8,20.5z"/>
			</g>
			<g>
				<path class="st11" d="M99.6,34c-1-2.6-3.3-5.1-6.8-7.1c-9.8-5.7-25.7-5.7-35.5,0c-3.5,2-5.7,4.5-6.7,7
					c-1.8-4.7,0.4-9.8,6.7-13.5c9.8-5.7,25.7-5.7,35.5,0C99.2,24.1,101.5,29.3,99.6,34z"/>
			</g>
		</g>
	</g>
</g>
</svg>
