<?xml version="1.0" encoding="utf-8"?>
<!-- Generator: Adobe Illustrator 25.0.0, SVG Export Plug-In . SVG Version: 6.00 Build 0)  -->
<svg version="1.1" id="Capa_1" xmlns="http://www.w3.org/2000/svg" xmlns:xlink="http://www.w3.org/1999/xlink" x="0px" y="0px"
	 viewBox="0 0 150 150" style="enable-background:new 0 0 150 150;" xml:space="preserve">
<style type="text/css">
	.st0{fill:#EFEFEF;stroke:#F2F2F2;stroke-miterlimit:10;}
	.st1{fill-rule:evenodd;clip-rule:evenodd;fill:#FF9900;}
</style>
<path class="st0" d="M46.6,64.4c0,1.6,0.2,2.9,0.5,3.8c0.3,1,0.8,2,1.4,3.1c0.2,0.3,0.3,0.7,0.3,1c0,0.4-0.3,0.9-0.8,1.3l-2.7,1.8
	c-0.4,0.3-0.8,0.4-1.1,0.4c-0.4,0-0.9-0.2-1.3-0.6c-0.6-0.6-1.1-1.3-1.6-2c-0.4-0.7-0.9-1.6-1.3-2.6c-3.4,4-7.6,6-12.7,6
	c-3.6,0-6.5-1-8.6-3.1s-3.2-4.8-3.2-8.3c0-3.7,1.3-6.7,3.9-8.9s6.1-3.4,10.6-3.4c1.5,0,3,0.1,4.6,0.3s3.2,0.6,5,1V51
	c0-3.3-0.7-5.6-2-6.9c-1.4-1.3-3.7-2-7-2c-1.5,0-3.1,0.2-4.7,0.6s-3.2,0.9-4.7,1.5c-0.7,0.3-1.2,0.5-1.5,0.6s-0.5,0.1-0.7,0.1
	c-0.6,0-0.9-0.4-0.9-1.3v-2.1c0-0.7,0.1-1.2,0.3-1.5c0.2-0.3,0.6-0.6,1.2-0.9c1.5-0.8,3.3-1.4,5.4-1.9c2.1-0.6,4.4-0.8,6.7-0.8
	c5.1,0,8.9,1.2,11.3,3.5s3.6,5.9,3.6,10.6V64.4L46.6,64.4z M29.1,70.9c1.4,0,2.9-0.3,4.5-0.8s2.9-1.5,4.1-2.8
	c0.7-0.8,1.2-1.7,1.5-2.8c0.3-1,0.4-2.3,0.4-3.8V59c-1.3-0.3-2.6-0.6-4-0.7S32.9,58,31.5,58c-2.9,0-5,0.6-6.4,1.7
	c-1.4,1.2-2.1,2.8-2.1,5c0,2,0.5,3.5,1.6,4.6C25.6,70.4,27.1,70.9,29.1,70.9L29.1,70.9z M63.8,75.6c-0.8,0-1.3-0.1-1.6-0.4
	s-0.6-0.9-0.9-1.7L51.1,40.1c-0.3-0.9-0.4-1.4-0.4-1.7c0-0.7,0.3-1.1,1-1.1H56c0.8,0,1.4,0.1,1.7,0.4c0.3,0.3,0.6,0.9,0.9,1.7
	L65.8,68l6.7-28.6c0.2-0.9,0.5-1.4,0.8-1.7s1-0.4,1.7-0.4h3.5c0.8,0,1.4,0.1,1.7,0.4c0.3,0.3,0.6,0.9,0.8,1.7l6.8,29l7.5-29
	c0.3-0.9,0.6-1.4,0.9-1.7s0.9-0.4,1.7-0.4h4c0.7,0,1.1,0.3,1.1,1.1c0,0.2,0,0.4-0.1,0.7c0,0.3-0.1,0.6-0.3,1.1L92.2,73.5
	c-0.3,0.9-0.6,1.4-0.9,1.7s-0.9,0.4-1.6,0.4H86c-0.8,0-1.4-0.1-1.7-0.4s-0.6-0.9-0.8-1.7l-6.7-27.9l-6.7,27.8
	c-0.2,0.9-0.5,1.4-0.8,1.7s-1,0.4-1.7,0.4h-3.8V75.6z M119.4,76.8c-2.2,0-4.5-0.3-6.7-0.8s-3.8-1.1-5-1.7c-0.7-0.4-1.2-0.8-1.3-1.2
	s-0.3-0.8-0.3-1.2v-2.2c0-0.9,0.3-1.3,1-1.3c0.3,0,0.5,0,0.8,0.1s0.6,0.3,1.1,0.4c1.5,0.6,3.1,1.2,4.8,1.5c1.7,0.3,3.4,0.5,5.1,0.5
	c2.7,0,4.8-0.5,6.3-1.4c1.5-1,2.2-2.3,2.2-4.1c0-1.2-0.4-2.2-1.2-3c-0.8-0.8-2.2-1.6-4.4-2.2l-6.3-1.9c-3.2-1-5.5-2.5-6.9-4.4
	s-2.2-4-2.2-6.3c0-1.8,0.4-3.4,1.2-4.8c0.8-1.4,1.8-2.6,3.1-3.5c1.3-1,2.8-1.7,4.5-2.2s3.5-0.7,5.4-0.7c1,0,1.9,0,2.9,0.2
	c1,0.1,1.9,0.3,2.8,0.5s1.7,0.4,2.5,0.7s1.4,0.5,1.8,0.8c0.6,0.3,1,0.7,1.3,1.1c0.3,0.3,0.4,0.8,0.4,1.4v2c0,0.9-0.3,1.4-1,1.4
	c-0.3,0-0.9-0.2-1.6-0.5c-2.5-1.1-5.2-1.7-8.3-1.7c-2.5,0-4.4,0.4-5.8,1.2s-2,2.1-2,3.8c0,1.2,0.4,2.2,1.3,3.1s2.5,1.6,4.8,2.4
	l6.1,1.9c3.1,1,5.4,2.4,6.7,4.2s2,3.8,2,6.1c0,1.9-0.4,3.5-1.1,5c-0.8,1.5-1.8,2.8-3.2,3.8c-1.3,1.1-2.9,1.9-4.8,2.4
	C123.6,76.5,121.6,76.8,119.4,76.8L119.4,76.8z"/>
<g>
	<path class="st1" d="M127.5,97.8c-14.2,10.5-34.9,16.1-52.7,16.1c-24.9,0-47.3-9.2-64.3-24.5c-1.3-1.2-0.1-2.9,1.5-1.9
		c18.3,10.6,40.9,17.1,64.3,17.1c15.8,0,33.1-3.3,49.1-10C127.8,93.4,129.9,96.1,127.5,97.8z"/>
	<path class="st1" d="M133.5,91c-1.8-2.3-12-1.1-16.6-0.6c-1.4,0.2-1.6-1-0.3-1.9c8.1-5.7,21.5-4.1,23-2.2c1.6,1.9-0.4,15.3-8,21.7
		c-1.2,1-2.3,0.5-1.8-0.8C131.4,103,135.3,93.3,133.5,91z"/>
</g>
</svg>
