<?xml version="1.0" encoding="utf-8"?>
<!-- Generator: Adobe Illustrator 25.0.0, SVG Export Plug-In . SVG Version: 6.00 Build 0)  -->
<svg version="1.1" id="Capa_1" xmlns="http://www.w3.org/2000/svg" xmlns:xlink="http://www.w3.org/1999/xlink" x="0px" y="0px"
	 viewBox="0 0 150 150" style="enable-background:new 0 0 150 150;" xml:space="preserve">
<style type="text/css">
	.st0{fill:#9CC2C8;}
	.st1{enable-background:new    ;}
	.st2{fill:#0B4782;}
	.st3{clip-path:url(#SVGID_1_);enable-background:new    ;}
	.st4{fill:#1585F4;}
	.st5{fill:#1064B7;}
	.st6{clip-path:url(#SVGID_2_);enable-background:new    ;}
	.st7{fill:#78B9F9;}
	.st8{clip-path:url(#SVGID_3_);enable-background:new    ;}
	.st9{clip-path:url(#SVGID_4_);enable-background:new    ;}
	.st10{clip-path:url(#SVGID_5_);enable-background:new    ;}
	.st11{clip-path:url(#SVGID_6_);enable-background:new    ;}
	.st12{clip-path:url(#SVGID_7_);enable-background:new    ;}
	.st13{clip-path:url(#SVGID_8_);enable-background:new    ;}
	.st14{clip-path:url(#SVGID_9_);enable-background:new    ;}
	.st15{clip-path:url(#SVGID_10_);enable-background:new    ;}
	.st16{clip-path:url(#SVGID_11_);enable-background:new    ;}
	.st17{clip-path:url(#SVGID_12_);enable-background:new    ;}
	.st18{clip-path:url(#SVGID_13_);enable-background:new    ;}
	.st19{clip-path:url(#SVGID_14_);enable-background:new    ;}
	.st20{clip-path:url(#SVGID_15_);enable-background:new    ;}
	.st21{clip-path:url(#SVGID_16_);enable-background:new    ;}
	.st22{clip-path:url(#SVGID_17_);enable-background:new    ;}
	.st23{clip-path:url(#SVGID_18_);enable-background:new    ;}
	.st24{clip-path:url(#SVGID_19_);enable-background:new    ;}
	.st25{clip-path:url(#SVGID_20_);enable-background:new    ;}
	.st26{clip-path:url(#SVGID_21_);enable-background:new    ;}
	.st27{clip-path:url(#SVGID_22_);enable-background:new    ;}
	.st28{clip-path:url(#SVGID_23_);enable-background:new    ;}
	.st29{clip-path:url(#SVGID_24_);enable-background:new    ;}
	.st30{clip-path:url(#SVGID_25_);enable-background:new    ;}
	.st31{clip-path:url(#SVGID_26_);enable-background:new    ;}
	.st32{clip-path:url(#SVGID_27_);enable-background:new    ;}
	.st33{clip-path:url(#SVGID_28_);enable-background:new    ;}
	.st34{clip-path:url(#SVGID_29_);enable-background:new    ;}
	.st35{clip-path:url(#SVGID_30_);enable-background:new    ;}
	.st36{clip-path:url(#SVGID_31_);enable-background:new    ;}
	.st37{clip-path:url(#SVGID_32_);enable-background:new    ;}
	.st38{clip-path:url(#SVGID_33_);enable-background:new    ;}
	.st39{clip-path:url(#SVGID_34_);enable-background:new    ;}
	.st40{clip-path:url(#SVGID_35_);enable-background:new    ;}
	.st41{clip-path:url(#SVGID_36_);enable-background:new    ;}
	.st42{clip-path:url(#SVGID_37_);enable-background:new    ;}
	.st43{clip-path:url(#SVGID_38_);enable-background:new    ;}
	.st44{clip-path:url(#SVGID_39_);enable-background:new    ;}
	.st45{clip-path:url(#SVGID_40_);enable-background:new    ;}
	.st46{clip-path:url(#SVGID_41_);enable-background:new    ;}
	.st47{clip-path:url(#SVGID_42_);enable-background:new    ;}
	.st48{clip-path:url(#SVGID_43_);enable-background:new    ;}
	.st49{clip-path:url(#SVGID_44_);enable-background:new    ;}
	.st50{clip-path:url(#SVGID_45_);enable-background:new    ;}
	.st51{clip-path:url(#SVGID_46_);enable-background:new    ;}
	.st52{clip-path:url(#SVGID_47_);enable-background:new    ;}
	.st53{clip-path:url(#SVGID_48_);enable-background:new    ;}
	.st54{clip-path:url(#SVGID_49_);enable-background:new    ;}
	.st55{clip-path:url(#SVGID_50_);enable-background:new    ;}
	.st56{clip-path:url(#SVGID_51_);enable-background:new    ;}
	.st57{clip-path:url(#SVGID_52_);enable-background:new    ;}
	.st58{clip-path:url(#SVGID_53_);enable-background:new    ;}
	.st59{clip-path:url(#SVGID_54_);enable-background:new    ;}
	.st60{clip-path:url(#SVGID_55_);enable-background:new    ;}
</style>
<g>
	<g>
		<path class="st0" d="M132.6,59.9L132.6,59.9c-1.8,0-3.3-1.5-3.3-3.3V34.5c0-0.3-0.1-0.5-0.4-0.6c-0.2-0.1-0.5-0.1-0.7,0l-8.8,5.4
			l-3.4-5.5l8.6-5.3c1.7-1,3.8-1.5,5.7-1c3.3,0.8,5.5,3.7,5.5,7v22.2C135.9,58.5,134.4,59.9,132.6,59.9z"/>
	</g>
	<g>
		<g class="st1">
			<g>
				<path class="st2" d="M117,30.1c3.5,2.1,6.3,7,6.2,11.1c-0.1,4-3,5.6-6.5,3.5c-3.5-2.1-6.3-7-6.2-11.1
					C110.6,29.6,113.5,28.1,117,30.1z"/>
			</g>
			<g class="st1">
				<defs>
					<path id="SVGID_111_" class="st1" d="M94,26.6c-2.6,1.5-4.3,4.7-4.4,9.3c-0.1,9.3,6.3,20.8,14.5,25.7c4.1,2.5,7.9,2.7,10.6,1.2
						c-3.6,2-7.4,1-8.9,0.5c-3.5-1.3-6.7-3.6-9.8-7.2c-1.3-1.6-4.6-5.9-6.3-11.8c-1.6-5.6-0.9-9.6-0.4-11.4
						C90.6,28.7,93,27.1,94,26.6z"/>
				</defs>
				<clipPath id="SVGID_1_">
					<use xlink:href="#SVGID_111_"  style="overflow:visible;"/>
				</clipPath>
				<g class="st3">
					<path class="st4" d="M94,26.6c-12.8,7.9-0.8,33.9,13.4,37.1c3.8,0.9,6.4-0.5,7.2-0.9c-2.6,1.5-6.4,1.2-10.5-1.2
						c-8.1-4.8-14.6-16.3-14.5-25.7C89.7,31.3,91.3,28.1,94,26.6L94,26.6z"/>
					<path class="st4" d="M104.1,61.5c-1.9-1.1-3.8-2.7-5.4-4.4c0,0-0.1-0.1-0.1-0.1c-3.4-3-5.1-6.5-6-9c-1.9-4-3-8.3-2.9-12.1
						c0.1-4.6,1.7-7.8,4.4-9.3c-0.1,0.1-0.3,0.2-0.5,0.3c-0.2,0.1-0.4,0.3-0.6,0.4l-0.4,0.4c-0.2,0.1-0.4,0.3-0.5,0.5l-0.4,0.4
						c-0.1,0.2-0.3,0.4-0.5,0.6l-0.4,0.5c-0.1,0.2-0.3,0.5-0.4,0.7L90,31c-0.1,0.3-0.3,0.7-0.4,0.9l-0.3,0.8
						c-0.1,0.4-0.2,0.9-0.3,1.3l-0.2,1c-0.1,1.3-0.1,1.4-0.2,2.2l0,1.2c0,0.5,0.1,1.2,0.1,1.7l0.2,1.3c0.1,0.5,0.2,1.1,0.3,1.5
						l0.4,1.4c0.1,0.4,0.3,1,0.5,1.5l0.5,1.4c0.2,0.4,0.4,1,0.6,1.4l0.6,1.3c0.2,0.4,0.5,0.9,0.7,1.3l0.8,1.3
						c0.2,0.4,0.6,0.9,0.8,1.3l0.9,1.2c0.3,0.4,0.6,0.8,0.9,1.2L97,57c0.3,0.3,0.7,0.8,1.1,1.1l1,0.9c0.4,0.3,0.8,0.7,1.2,1l1,0.7
						c0.4,0.3,1,0.6,1.4,0.9l0.9,0.5c1.1,0.6,1.3,0.6,2.3,1l0.8,0.2c0.4,0.1,0.9,0.2,1.3,0.3l0.7,0.1c0.3,0,0.7,0.1,1,0.1l0.6,0
						c0.3,0,0.6,0,0.8-0.1l0.6-0.1c0.2,0,0.5-0.1,0.7-0.2l0.5-0.2c0.2-0.1,0.5-0.2,0.7-0.2l0.5-0.2c0.2-0.1,0.4-0.2,0.6-0.3
						C112,64.3,108.2,64,104.1,61.5L104.1,61.5z"/>
					<path class="st5" d="M106.7,62.8c-11.4-1.8-18.9-19.7-16.9-23.7c-0.1-1.1-0.2-2.2-0.2-3.2c0.1-4.6,1.7-7.8,4.4-9.3
						c-0.1,0.1-0.3,0.2-0.5,0.3c-0.2,0.1-0.4,0.3-0.6,0.4l-0.4,0.4c-0.2,0.1-0.4,0.3-0.5,0.5l-0.4,0.4c-0.1,0.2-0.3,0.4-0.5,0.6
						l-0.4,0.5c-0.1,0.2-0.3,0.5-0.4,0.7L90,31c-0.1,0.3-0.3,0.7-0.4,0.9l-0.3,0.8c-0.1,0.4-0.2,0.9-0.3,1.3l-0.2,1
						c-0.1,1.3-0.1,1.4-0.2,2.2l0,1.2c0,0.5,0.1,1.2,0.1,1.7l0.2,1.3c0.1,0.5,0.2,1.1,0.3,1.5l0.4,1.4c0.1,0.4,0.3,1,0.5,1.5
						l0.5,1.4c0.2,0.4,0.4,1,0.6,1.4l0.6,1.3c0.2,0.4,0.5,0.9,0.7,1.3l0.8,1.3c0.2,0.4,0.6,0.9,0.8,1.3l0.9,1.2
						c0.3,0.4,0.6,0.8,0.9,1.2L97,57c0.3,0.3,0.7,0.8,1.1,1.1l1,0.9c0.4,0.3,0.8,0.7,1.2,1l1,0.7c0.4,0.3,1,0.6,1.4,0.9l0.9,0.5
						c1.1,0.6,1.3,0.6,2.3,1l0.8,0.2c0.4,0.1,0.9,0.2,1.3,0.3l0.7,0.1c0.3,0,0.7,0.1,1,0.1l0.6,0c0.3,0,0.6,0,0.8-0.1l0.6-0.1
						c0.2,0,0.5-0.1,0.7-0.2l0.5-0.2c0.2-0.1,0.5-0.2,0.7-0.2l0.5-0.2c0.2-0.1,0.4-0.2,0.6-0.3C112.6,63.9,109.8,64,106.7,62.8
						L106.7,62.8z"/>
				</g>
			</g>
			<g class="st1">
				<defs>
					<path id="SVGID_113_" class="st1" d="M98.1,24.2c-2.6,1.5-4.3,4.7-4.4,9.3c-0.1,9.3,6.3,20.8,14.5,25.7
						c4.1,2.5,7.9,2.7,10.6,1.2l-4.1,2.4c-2.7,1.6-6.5,1.3-10.6-1.2c-8.1-4.8-14.6-16.3-14.5-25.7c0.1-4.6,1.7-7.8,4.4-9.3
						C95.2,25.8,96.9,24.9,98.1,24.2z"/>
				</defs>
				<clipPath id="SVGID_2_">
					<use xlink:href="#SVGID_113_"  style="overflow:visible;"/>
				</clipPath>
				<g class="st6">
					<path class="st5" d="M98.1,24.2L94,26.6c-2.6,1.5-4.3,4.7-4.4,9.3c0,1,0.1,2.1,0.2,3.2l4.1-2.4c-0.1-1.1-0.2-2.2-0.2-3.2
						C93.8,28.9,95.5,25.7,98.1,24.2L98.1,24.2z"/>
					<path class="st4" d="M94,36.7l-4.1,2.4c0.4,3,1.3,6,2.7,8.9l4.1-2.4C95.3,42.7,94.3,39.7,94,36.7L94,36.7z"/>
					<path class="st7" d="M96.7,45.6L92.5,48c1.6,3.3,3.7,6.5,6.1,9.1l4.1-2.4C100.3,52.1,98.2,49,96.7,45.6L96.7,45.6z"/>
					<path class="st4" d="M102.8,54.7l-4.1,2.4c1.7,1.8,3.5,3.3,5.4,4.4c0.9,0.5,1.8,1,2.6,1.3l4.1-2.4c-0.8-0.3-1.7-0.8-2.6-1.3
						C106.3,58,104.5,56.5,102.8,54.7L102.8,54.7z"/>
					<path class="st5" d="M110.8,60.4l-4.1,2.4c3.1,1.2,5.9,1.1,8-0.1l4.1-2.4C116.7,61.5,113.9,61.6,110.8,60.4L110.8,60.4z"/>
				</g>
			</g>
			<g class="st1">
				<defs>
					<path id="SVGID_115_" class="st1" d="M114.6,24.8c1.5,0.9,2.4,2.7,2.3,5.4c-3.5-2.1-6.4-0.5-6.5,3.5c-0.1,4,2.7,9,6.2,11.1
						c3.5,2.1,6.4,0.5,6.5-3.5c0.1-4-2.7-9-6.2-11.1C117,27.5,116.1,25.6,114.6,24.8c4.3,2.6,6.7,5.9,8.1,8.1
						c0.9,1.5,3.2,5.4,3.8,10.5c0.3,2.8,0,4.7-0.2,6c-0.1,0.7-0.4,1.6-0.6,2.3c-0.2,0.7-0.6,1.6-0.9,2.2c-0.2,0.5-0.6,1.2-1,1.7
						c-0.9,1.3-0.9,1.3-1.9,2.3c-0.3,0.4-0.8,0.8-1.2,1.1c-0.6,0.4-1.4,1-2,1.3c-2.7,1.6-6.5,1.3-10.6-1.2
						c-8.1-4.8-14.6-16.3-14.5-25.7c0.1-4.6,1.7-7.8,4.4-9.3c0.7-0.4,2.1-1.1,4-1.6c2-0.5,3.4-0.4,4.5-0.4c0.7,0,2.2,0.2,4.2,0.8
						C112.6,23.6,114,24.4,114.6,24.8z"/>
				</defs>
				<clipPath id="SVGID_3_">
					<use xlink:href="#SVGID_115_"  style="overflow:visible;"/>
				</clipPath>
				<g class="st8">
					<path class="st4" d="M114.6,24.8c-2.2-1.2-8.7-4.8-16.5-0.6c-2.6,1.5-4.3,4.7-4.4,9.3c-0.1,9.3,6.3,20.8,14.5,25.7
						c4.1,2.5,7.9,2.7,10.6,1.2C132.7,51.6,126.3,31.8,114.6,24.8c1.5,0.9,2.4,2.7,2.3,5.4c3.5,2.1,6.3,7,6.2,11.1
						c-0.1,4-3,5.6-6.5,3.5c-3.5-2.1-6.3-7-6.2-11.1c0.1-4,3-5.6,6.5-3.5C117,27.5,116.1,25.6,114.6,24.8L114.6,24.8z"/>
					<path class="st4" d="M117,30.1c3.5,2.1,6.3,7,6.2,11.1c-0.1,4-3,5.6-6.5,3.5c-3.5-2.1-6.3-7-6.2-11.1
						C110.6,29.6,113.5,28.1,117,30.1c0-2.6-0.9-4.5-2.3-5.4c-0.3-0.2-0.8-0.4-1.1-0.6c-0.5-0.2-1.1-0.5-1.5-0.7l-1.2-0.4
						c-0.5-0.2-1.3-0.4-1.8-0.5l-1.2-0.2c-0.7-0.1-1.5-0.1-2.2-0.1l-1.2,0c-1.5,0.2-1.6,0.2-2.5,0.4l-1.1,0.3
						c-1.4,0.5-1.6,0.6-2.8,1.2c-2.6,1.5-4.3,4.7-4.4,9.3c-0.1,3.9,1,8.1,2.9,12.1c0-0.3,0-0.6,0-0.8c0.7-3.9,4-4.3,8.2,1.7
						c3.8,5.4,2.6,9-0.9,8.5c-0.4,0-0.9-0.2-1.2-0.3c1.7,1.8,3.5,3.3,5.4,4.4c4.1,2.5,7.9,2.7,10.6,1.2c0.3-0.2,0.7-0.4,1-0.6
						c0.4-0.3,0.9-0.7,1.3-1l0.9-0.8c0.4-0.4,0.9-0.9,1.2-1.4l0.7-1c0.3-0.5,0.7-1.2,1-1.7l0.5-1.1c0.2-0.6,0.5-1.5,0.7-2.2l0.3-1.2
						c0.2-1.5,0.3-1.8,0.3-3.2l0-1.3c0-0.5-0.1-1.1-0.1-1.5l-0.2-1.2c-0.1-0.4-0.2-0.9-0.3-1.3l-0.3-1.2c-0.1-0.4-0.3-0.9-0.4-1.2
						l-0.4-1.1c-0.1-0.3-0.3-0.8-0.5-1.1l-0.5-1.1c-0.2-0.3-0.4-0.8-0.6-1.1l-0.6-1c-0.2-0.3-0.5-0.7-0.7-1l-0.7-1
						c-0.2-0.3-0.5-0.7-0.8-1l-0.8-0.9c-0.3-0.3-0.6-0.7-0.9-0.9l-0.9-0.8c-0.3-0.3-0.7-0.6-1.1-0.9l-1-0.8
						c-0.4-0.2-0.9-0.6-1.3-0.8C116.1,25.6,117,27.5,117,30.1L117,30.1z"/>
					<path class="st5" d="M117,30.1c3.5,2.1,6.3,7,6.2,11.1c-0.1,4-3,5.6-6.5,3.5c-3.5-2.1-6.3-7-6.2-11.1
						C110.6,29.6,113.5,28.1,117,30.1c0-2.6-0.9-4.5-2.3-5.4c-0.3-0.2-0.8-0.4-1.1-0.6c-0.5-0.2-1.1-0.5-1.5-0.7l-1.2-0.4
						c-0.5-0.2-1.3-0.4-1.8-0.5l-1.2-0.2c-0.7-0.1-1.5-0.1-2.2-0.1l-1.2,0c-1.5,0.2-1.6,0.2-2.5,0.4l-1.1,0.3
						c-1.4,0.5-1.6,0.6-2.8,1.2c-2.6,1.5-4.3,4.7-4.4,9.3c0,1,0.1,2.1,0.2,3.2c0.2-0.1,0.4-0.3,0.6-0.4c7.7-3.7,20.2,17.6,18.6,21.8
						c-0.5,1.4-1.6,2-2.3,2.3c3.1,1.2,5.9,1.1,8-0.1c0.3-0.2,0.7-0.4,1-0.6c0.4-0.3,0.9-0.7,1.3-1l0.9-0.8c0.4-0.4,0.9-0.9,1.2-1.4
						l0.7-1c0.3-0.5,0.7-1.2,1-1.7l0.5-1.1c0.2-0.6,0.5-1.5,0.7-2.2l0.3-1.2c0.2-1.5,0.3-1.8,0.3-3.2l0-1.3c0-0.5-0.1-1.1-0.1-1.5
						l-0.2-1.2c-0.1-0.4-0.2-0.9-0.3-1.3l-0.3-1.2c-0.1-0.4-0.3-0.9-0.4-1.2l-0.4-1.1c-0.1-0.3-0.3-0.8-0.5-1.1l-0.5-1.1
						c-0.2-0.3-0.4-0.8-0.6-1.1l-0.6-1c-0.2-0.3-0.5-0.7-0.7-1l-0.7-1c-0.2-0.3-0.5-0.7-0.8-1l-0.8-0.9c-0.3-0.3-0.6-0.7-0.9-0.9
						l-0.9-0.8c-0.3-0.3-0.7-0.6-1.1-0.9l-1-0.8c-0.4-0.2-0.9-0.6-1.3-0.8C116.1,25.6,117,27.5,117,30.1L117,30.1z"/>
					<path class="st7" d="M104.5,50.2c0-2.3-3.4-6.2-4.8-4.7c-0.4,0.4-0.7,2,0.5,3.9c1.1,1.7,2.7,2.3,3.4,2.1
						c0.2-0.1,0.5-0.2,0.6-0.4C104.5,50.9,104.5,50.5,104.5,50.2L104.5,50.2z"/>
				</g>
			</g>
			<g class="st1">
				<defs>
					<path id="SVGID_117_" class="st1" d="M88.7,37.1c0.1-6.3,2.9-9.2,5.3-10.6c2.7-1.6,6.5-1.3,10.6,1.2c-0.8,0.5-1.6,1.4-1.9,2.5
						c-7.5-4.4-13.6-1.1-13.8,7.5c-0.1,8.6,5.8,19.1,13.3,23.6c7.5,4.4,13.6,1.1,13.8-7.5c0.1-8.6-5.8-19.1-13.3-23.6
						c0.4-1.1,1.1-2,1.9-2.5c8.1,4.8,14.6,16.3,14.5,25.7c-0.1,4.6-1.7,7.8-4.4,9.3c-0.9,0.5-1.9,1-3.7,1.2c-2,0.2-3.9-0.3-4-0.3
						c-0.9-0.2-2.5-0.7-4.5-1.9c-2.4-1.5-4-3-4.5-3.5C92.3,52.5,88.6,44.1,88.7,37.1z"/>
				</defs>
				<clipPath id="SVGID_4_">
					<use xlink:href="#SVGID_117_"  style="overflow:visible;"/>
				</clipPath>
				<g class="st9">
					<path class="st4" d="M88.7,37.1c0.2-7.3,3.9-9.7,5.1-10.5c2.8-1.6,6.6-1.4,10.7,1.1c-0.8,0.5-1.6,1.4-1.9,2.5
						c-7.5-4.4-13.6-1.1-13.8,7.5c-0.1,8.6,5.8,19.1,13.3,23.6c7.5,4.4,13.6,1.1,13.8-7.5c0.1-8.6-5.8-19.1-13.3-23.6
						c0.4-1.1,1.1-2,1.9-2.5c8.1,4.8,14.6,16.3,14.5,25.7c-0.1,4.6-1.7,7.8-4.4,9.3C103.6,68.6,88.4,51.2,88.7,37.1L88.7,37.1z"/>
					<path class="st4" d="M104.6,27.7c8.1,4.8,14.6,16.3,14.5,25.7c-0.1,4.6-1.7,7.8-4.4,9.3c-0.1,0.1-0.3,0.2-0.5,0.3
						c-0.2,0.1-0.4,0.2-0.6,0.3l-0.5,0.2c-0.2,0.1-0.5,0.1-0.7,0.2l-0.6,0.1c-0.2,0-0.5,0.1-0.8,0.1l-0.6,0c-0.3,0-0.6,0-0.9,0
						l-0.7,0c-0.3,0-0.7-0.1-1-0.1l-0.8-0.2c-0.4-0.1-0.9-0.3-1.3-0.4l-0.9-0.3c-1.1-0.5-1.3-0.6-2.3-1.2l-1-0.6
						c-0.4-0.3-0.9-0.7-1.3-1l-1-0.8c-0.3-0.3-0.8-0.7-1.2-1.1l-1-1c-0.3-0.3-0.7-0.8-1-1.2l-0.9-1.2c-0.3-0.4-0.6-0.9-0.9-1.2
						l-0.8-1.3c-0.2-0.4-0.5-0.9-0.8-1.3l-0.7-1.3c-0.2-0.4-0.5-0.9-0.6-1.4L90.7,47c-0.2-0.4-0.4-1-0.5-1.4l-0.4-1.4
						c-0.1-0.4-0.3-1-0.4-1.5l-0.3-1.3C89,41,88.9,40.4,88.9,40l-0.1-1.2c0-0.5,0-1.1,0-1.6l0-1c0.1-1.3,0.1-1.4,0.3-2.1l0.2-0.8
						c0.1-0.4,0.3-0.9,0.4-1.2l0.3-0.7c0.1-0.3,0.3-0.6,0.4-0.9l0.3-0.6c0.1-0.2,0.3-0.5,0.5-0.7l0.4-0.5c0.2-0.2,0.4-0.4,0.5-0.6
						l0.4-0.4c0.2-0.1,0.4-0.3,0.5-0.5l0.4-0.3c0.2-0.1,0.4-0.3,0.6-0.4C96.7,25,100.5,25.3,104.6,27.7c-0.8,0.5-1.6,1.4-1.9,2.5
						c-7.5-4.4-13.6-1.1-13.8,7.5c-0.1,8.6,5.8,19.1,13.3,23.6c7.5,4.4,13.6,1.1,13.8-7.5c0.1-8.6-5.8-19.1-13.3-23.6
						C103,29.1,103.8,28.2,104.6,27.7L104.6,27.7z"/>
					<path class="st5" d="M104.6,27.7c8.1,4.8,14.6,16.3,14.5,25.7c-0.1,4.6-1.7,7.8-4.4,9.3c-0.1,0.1-0.3,0.2-0.5,0.3
						c-0.2,0.1-0.4,0.2-0.6,0.3l-0.5,0.2c-0.2,0.1-0.5,0.1-0.7,0.2l-0.6,0.1c-0.2,0-0.5,0.1-0.8,0.1l-0.6,0c-0.3,0-0.6,0-0.9,0
						l-0.7,0c-0.3,0-0.7-0.1-1-0.1l-0.8-0.2c-0.4-0.1-0.9-0.3-1.3-0.4l-0.9-0.3c-1.1-0.5-1.3-0.6-2.3-1.2l-1-0.6
						c-0.4-0.3-0.9-0.7-1.3-1l-1-0.8c-0.3-0.3-0.8-0.7-1.2-1.1l-1-1c-0.3-0.3-0.7-0.8-1-1.2l-0.9-1.2c-0.3-0.4-0.6-0.9-0.9-1.2
						l-0.8-1.3c-0.2-0.4-0.5-0.9-0.8-1.3l-0.7-1.3c-0.2-0.4-0.5-0.9-0.6-1.4L90.7,47c-0.2-0.4-0.4-1-0.5-1.4l-0.4-1.4
						c-0.1-0.4-0.3-1-0.4-1.5l-0.3-1.3C89,41,88.9,40.4,88.9,40l-0.1-1.2c0-0.5,0-1.1,0-1.6l0-1c0.1-1.3,0.1-1.4,0.3-2.1l0.2-0.8
						c0.1-0.4,0.3-0.9,0.4-1.2l0.3-0.7c0.1-0.3,0.3-0.6,0.4-0.9l0.3-0.6c0.1-0.2,0.3-0.5,0.5-0.7l0.4-0.5c0.2-0.2,0.4-0.4,0.5-0.6
						l0.4-0.4c0.2-0.1,0.4-0.3,0.5-0.5l0.4-0.3c0.2-0.1,0.4-0.3,0.6-0.4C96.7,25,100.5,25.3,104.6,27.7c-0.8,0.5-1.6,1.4-1.9,2.5
						c-7.5-4.4-13.6-1.1-13.8,7.5c-0.1,8.6,5.8,19.1,13.3,23.6c7.5,4.4,13.6,1.1,13.8-7.5c0.1-8.6-5.8-19.1-13.3-23.6
						C103,29.1,103.8,28.2,104.6,27.7L104.6,27.7z"/>
				</g>
			</g>
			<g class="st1">
				<defs>
					<path id="SVGID_119_" class="st1" d="M102.7,30.2l-0.2,0.5C95.2,26.3,89.2,29.6,89,38c-0.1,8.4,5.7,18.7,13,23
						c7.3,4.3,13.3,1.1,13.4-7.3c0.1-8.4-5.7-18.7-13-23L102.7,30.2c7.5,4.4,13.4,15,13.3,23.6c-0.1,8.6-6.3,11.9-13.8,7.5
						c-7.5-4.4-13.4-15-13.3-23.6C89,29.1,95.2,25.7,102.7,30.2z"/>
				</defs>
				<clipPath id="SVGID_5_">
					<use xlink:href="#SVGID_119_"  style="overflow:visible;"/>
				</clipPath>
				<g class="st10">
					<path class="st5" d="M102.7,30.2l-0.2,0.5C95.2,26.3,89.2,29.6,89,38c-0.1,8.4,5.7,18.7,13,23c7.3,4.3,13.3,1.1,13.4-7.3
						c0.1-8.4-5.7-18.7-13-23L102.7,30.2c7.5,4.4,13.4,15,13.3,23.6c-0.1,8.6-6.3,11.9-13.8,7.5c-7.5-4.4-13.4-15-13.3-23.6
						C89,29.1,95.2,25.7,102.7,30.2L102.7,30.2z"/>
				</g>
			</g>
			<g class="st1">
				<defs>
					<path id="SVGID_121_" class="st1" d="M91.9,32.2c-0.8,0.5-1.5,1.3-1.9,2.2c-0.4,0.9-0.8,2-0.8,4.2c-0.1,4.4,1.7,8.5,2.3,9.9
						c2.5,5.6,7.8,12.1,13.4,13.5c1.5,0.4,2.8,0.3,3.9-0.3c0.8-0.5,1.9-0.3,2.8,0.3c-2.4,1.4-5.8,1.2-9.5-1
						c-7.3-4.3-13.1-14.6-13-23c0.1-4.1,1.5-7,3.9-8.4C93.1,30.7,92.7,31.7,91.9,32.2z"/>
				</defs>
				<clipPath id="SVGID_6_">
					<use xlink:href="#SVGID_121_"  style="overflow:visible;"/>
				</clipPath>
				<g class="st11">
					<path class="st4" d="M91.9,32.2c-2.9,1.8-4,8-0.4,16.3c2.5,5.6,7.8,12.1,13.4,13.5c2.2,0.6,3.4,0,3.8-0.2c1-0.5,2-0.4,2.9,0.3
						c-2.4,1.4-5.8,1.2-9.5-1c-7.3-4.3-13.1-14.6-13-23c0.1-4.1,1.5-7,3.9-8.4C93.1,30.7,92.7,31.7,91.9,32.2L91.9,32.2z"/>
					<path class="st4" d="M111.5,62c-2.4,1.4-5.8,1.2-9.5-1c-7.3-4.3-13.1-14.6-13-23c0.1-4.1,1.5-7,3.9-8.4
						c0.1,1.1-0.3,2.1-1.1,2.6c-0.1,0-0.1,0.1-0.2,0.1c-0.1,0.1-0.2,0.1-0.3,0.2l-0.2,0.2c-0.1,0.1-0.2,0.2-0.2,0.2l-0.2,0.2
						c-0.1,0.1-0.2,0.2-0.2,0.3l-0.2,0.3c-0.1,0.1-0.2,0.3-0.2,0.4L90,34.4c-0.1,0.2-0.2,0.4-0.2,0.6l-0.2,0.5
						c-0.1,0.3-0.1,0.6-0.2,0.9L89.3,37c0,0.5-0.1,1.1-0.1,1.5l0,1c0,0.4,0.1,1,0.1,1.4l0.2,1.1c0.1,0.4,0.2,1,0.3,1.4l0.3,1.2
						c0.1,0.4,0.3,0.9,0.4,1.3l0.5,1.3c0.2,0.4,0.4,0.9,0.5,1.3l0.6,1.3c0.2,0.4,0.5,0.9,0.7,1.2l0.7,1.2c0.2,0.4,0.5,0.8,0.8,1.2
						l0.8,1.1c0.3,0.3,0.6,0.8,0.9,1.1l0.9,1c0.3,0.3,0.7,0.7,1,1l0.9,0.8c0.3,0.3,0.7,0.6,1,0.9l0.8,0.6c0.3,0.2,0.8,0.5,1.1,0.7
						l0.7,0.4c0.9,0.5,0.9,0.5,1.4,0.6l0.6,0.2c0.3,0.1,0.6,0.2,0.9,0.2l0.4,0.1c0.2,0,0.4,0.1,0.6,0.1l0.3,0c0.1,0,0.3,0,0.5,0
						l0.3,0c0.1,0,0.3,0,0.4-0.1l0.2-0.1c0.1,0,0.2-0.1,0.3-0.1l0.2-0.1c0.1-0.1,0.2-0.1,0.3-0.2l0.1-0.1
						C109.3,61.5,110.2,61.1,111.5,62L111.5,62z"/>
					<path class="st5" d="M111.5,62c-2.4,1.4-5.8,1.2-9.5-1c-7.3-4.3-13.1-14.6-13-23c0.1-4.1,1.5-7,3.9-8.4
						c0.1,1.1-0.3,2.1-1.1,2.6c-0.1,0-0.1,0.1-0.2,0.1c-0.1,0.1-0.2,0.1-0.3,0.2l-0.2,0.2c-0.1,0.1-0.2,0.2-0.2,0.2l-0.2,0.2
						c-0.1,0.1-0.2,0.2-0.2,0.3l-0.2,0.3c-0.1,0.1-0.2,0.3-0.2,0.4L90,34.4c-0.1,0.2-0.2,0.4-0.2,0.6l-0.2,0.5
						c-0.1,0.3-0.1,0.6-0.2,0.9L89.3,37c0,0.5-0.1,1.1-0.1,1.5l0,1c0,0.4,0.1,1,0.1,1.4l0.2,1.1c0.1,0.4,0.2,1,0.3,1.4l0.3,1.2
						c0.1,0.4,0.3,0.9,0.4,1.3l0.5,1.3c0.2,0.4,0.4,0.9,0.5,1.3l0.6,1.3c0.2,0.4,0.5,0.9,0.7,1.2l0.7,1.2c0.2,0.4,0.5,0.8,0.8,1.2
						l0.8,1.1c0.3,0.3,0.6,0.8,0.9,1.1l0.9,1c0.3,0.3,0.7,0.7,1,1l0.9,0.8c0.3,0.3,0.7,0.6,1,0.9l0.8,0.6c0.3,0.2,0.8,0.5,1.1,0.7
						l0.7,0.4c0.9,0.5,0.9,0.5,1.4,0.6l0.6,0.2c0.3,0.1,0.6,0.2,0.9,0.2l0.4,0.1c0.2,0,0.4,0.1,0.6,0.1l0.3,0c0.1,0,0.3,0,0.5,0
						l0.3,0c0.1,0,0.3,0,0.4-0.1l0.2-0.1c0.1,0,0.2-0.1,0.3-0.1l0.2-0.1c0.1-0.1,0.2-0.1,0.3-0.2C109.6,61.2,110.7,61.4,111.5,62
						L111.5,62z"/>
				</g>
			</g>
			<g class="st1">
				<defs>
					<path id="SVGID_123_" class="st1" d="M89.2,38.6c-0.1,5.3,2.6,12.2,6.8,17.1c3.3,3.9,6.2,5.3,7.1,5.7c0.3,0.1,1.7,0.8,3.1,0.9
						c1.4,0.1,2.2-0.3,2.6-0.5c-2.2,1.3-5.3,1.1-8.7-0.9c-6.6-3.9-11.9-13.3-11.8-20.9c0.1-3.7,1.4-6.4,3.6-7.6
						C90.7,32.9,89.3,34.5,89.2,38.6z"/>
				</defs>
				<clipPath id="SVGID_7_">
					<use xlink:href="#SVGID_123_"  style="overflow:visible;"/>
				</clipPath>
				<g class="st12">
					<path class="st4" d="M89.2,38.6c0.1-3.1,0.9-5.2,2.6-6.3c-2.1,1.2-3.4,3.8-3.5,7.6c-0.1,7.6,5.2,17,11.8,20.9
						c3.4,2,6.4,2.2,8.7,0.9C102.3,65.1,88.9,51.2,89.2,38.6L89.2,38.6z"/>
					<path class="st4" d="M108.2,61.9c-0.3,0.1-0.3,0.1-0.5,0.2l-0.3,0.1c-0.1,0-0.3,0-0.4,0l-0.3,0c-0.1,0-0.3,0-0.5,0l-0.4,0
						c-0.2,0-0.4-0.1-0.6-0.1l-0.5-0.1c-0.3-0.1-0.6-0.2-0.9-0.3l-0.7-0.3c-0.9-0.4-0.9-0.5-1.4-0.8l-0.8-0.5
						c-0.3-0.2-0.8-0.6-1.1-0.8l-0.9-0.7c-0.3-0.3-0.7-0.7-1-0.9l-0.9-0.9c-0.3-0.3-0.7-0.7-0.9-1.1l-0.8-1.1
						c-0.2-0.3-0.6-0.8-0.8-1.1l-0.8-1.2c-0.2-0.4-0.5-0.8-0.7-1.2l-0.7-1.2c-0.2-0.4-0.4-0.9-0.6-1.3L91,47.2
						c-0.1-0.4-0.3-0.9-0.5-1.3l-0.4-1.2c-0.1-0.4-0.3-0.9-0.3-1.3l-0.2-1.1c-0.1-0.4-0.2-0.9-0.2-1.3l-0.1-1c0-0.4,0-0.9,0-1.3
						l0-0.8c0-0.4,0.1-1,0.2-1.4l0.1-0.6c0.1-0.2,0.2-0.6,0.2-0.8l0.2-0.4c0.1-0.2,0.2-0.4,0.2-0.5l0.2-0.3c0.1-0.1,0.2-0.3,0.2-0.4
						l0.2-0.2c0.1-0.1,0.2-0.2,0.2-0.3l0.2-0.2c0.1-0.1,0.2-0.1,0.2-0.2l0.2-0.1c0.1-0.1,0.2-0.1,0.3-0.2c-2.1,1.2-3.5,3.9-3.6,7.6
						c0,3.2,0.8,6.6,2.4,9.9c0.1,0.2,0.3,0.5,0.5,0.7c0,0.1,4.4,6.5,4.5,6.7c1.4,1.4,2.9,2.7,4.4,3.6c3.4,2,6.4,2.2,8.7,0.9
						c-0.1,0-0.1,0.1-0.2,0.1C108.5,61.8,108.3,61.9,108.2,61.9L108.2,61.9z"/>
					<path class="st5" d="M108.2,61.9c-0.3,0.1-0.3,0.1-0.5,0.2l-0.3,0.1c-0.1,0-0.3,0-0.4,0l-0.3,0c-0.1,0-0.3,0-0.5,0l-0.4,0
						c-0.2,0-0.4-0.1-0.6-0.1l-0.5-0.1c-0.3-0.1-0.6-0.2-0.9-0.3l-0.7-0.3c-0.9-0.4-0.9-0.5-1.4-0.8l-0.8-0.5
						c-0.3-0.2-0.8-0.6-1.1-0.8l-0.9-0.7c-0.3-0.3-0.7-0.7-1-0.9l-0.9-0.9c-0.3-0.3-0.7-0.7-0.9-1.1l-0.8-1.1
						c-0.2-0.3-0.6-0.8-0.8-1.1l-0.8-1.2c-0.2-0.4-0.5-0.8-0.7-1.2l-0.7-1.2c-0.2-0.4-0.4-0.9-0.6-1.3L91,47.2
						c-0.1-0.4-0.3-0.9-0.5-1.3l-0.4-1.2c-0.1-0.4-0.3-0.9-0.3-1.3l-0.2-1.1c-0.1-0.4-0.2-0.9-0.2-1.3l-0.1-1c0-0.4,0-0.9,0-1.3
						l0-0.8c0-0.4,0.1-1,0.2-1.4l0.1-0.6c0.1-0.2,0.2-0.6,0.2-0.8l0.2-0.4c0.1-0.2,0.2-0.4,0.2-0.5l0.2-0.3c0.1-0.1,0.2-0.3,0.2-0.4
						l0.2-0.2c0.1-0.1,0.2-0.2,0.2-0.3l0.2-0.2c0.1-0.1,0.2-0.1,0.2-0.2l0.2-0.1c0.1-0.1,0.2-0.1,0.3-0.2c-2.1,1.2-3.5,3.9-3.6,7.6
						c0,0.8,0,1.7,0.2,2.6c0,0,0.1,0,0.1,0c0.1,0.1,0.3,0.2,0.3,0.3c0.2,0.3,0.4,0.6,0.9,1.9c0.8,2.1,2.2,5.9,5,9.5
						c2,2.6,3.7,4.4,6.2,6.2c1.1,0.8,1.4,1,1.3,1.4c2.5,1,4.8,0.9,6.5-0.1c-0.1,0-0.1,0.1-0.2,0.1C108.5,61.8,108.3,61.9,108.2,61.9
						L108.2,61.9z"/>
				</g>
			</g>
			<g class="st1">
				<defs>
					<path id="SVGID_125_" class="st1" d="M91.9,32.2c-2.1,1.2-3.5,3.9-3.6,7.6c-0.1,7.6,5.2,17,11.8,20.9c3.4,2,6.4,2.2,8.7,0.9
						l-1.9,1.1c-2.2,1.3-5.3,1.1-8.7-0.9c-6.6-3.9-11.9-13.3-11.8-20.9c0.1-3.7,1.4-6.4,3.6-7.6C90.5,33,91.3,32.5,91.9,32.2z"/>
				</defs>
				<clipPath id="SVGID_8_">
					<use xlink:href="#SVGID_125_"  style="overflow:visible;"/>
				</clipPath>
				<g class="st13">
					<path class="st5" d="M91.9,32.2l-1.9,1.1c-2.1,1.2-3.5,3.9-3.6,7.6c0,0.9,0,1.7,0.2,2.6l1.9-1.1c-0.1-0.9-0.2-1.8-0.2-2.6
						C88.4,36,89.7,33.4,91.9,32.2L91.9,32.2z"/>
					<path class="st4" d="M88.5,42.4l-1.9,1.1c0.3,2.4,1.1,4.9,2.2,7.3l1.9-1.1C89.5,47.3,88.8,44.8,88.5,42.4L88.5,42.4z"/>
					<path class="st7" d="M90.7,49.7l-1.9,1.1c1.3,2.7,3,5.3,5,7.4l1.9-1.1C93.7,55,91.9,52.4,90.7,49.7L90.7,49.7z"/>
					<path class="st4" d="M95.7,57.1l-1.9,1.1c1.4,1.4,2.9,2.7,4.4,3.6c0.7,0.4,1.4,0.8,2.1,1l1.9-1.1c-0.7-0.3-1.4-0.6-2.1-1
						C98.5,59.8,97,58.6,95.7,57.1L95.7,57.1z"/>
					<path class="st5" d="M102.2,61.8l-1.9,1.1c2.5,1,4.8,0.9,6.5-0.1l1.9-1.1C107,62.7,104.8,62.8,102.2,61.8L102.2,61.8z"/>
				</g>
			</g>
			<g class="st1">
				<defs>
					<path id="SVGID_127_" class="st1" d="M89.9,33.3c-2.1,1.2-3.5,3.9-3.6,7.6c-0.1,7.6,5.2,17,11.8,20.9c3.4,2,6.4,2.2,8.7,0.9
						c-0.8,0.5-1.3,1.5-1.1,2.7c-2.5,1.4-5.8,1.2-9.6-1C88.9,60,83,49.7,83.2,41.3c0.1-4.1,1.6-7,3.9-8.4
						C88,33.6,89.1,33.8,89.9,33.3z"/>
				</defs>
				<clipPath id="SVGID_9_">
					<use xlink:href="#SVGID_127_"  style="overflow:visible;"/>
				</clipPath>
				<g class="st14">
					<path class="st4" d="M89.9,33.3c-0.8,0.5-1.9,0.3-2.8-0.4c-2.4,1.4-3.9,4.3-3.9,8.4c-0.1,8.4,5.7,18.8,13,23.1
						c3.7,2.2,7.1,2.4,9.6,1c-0.2-1.1,0.2-2.2,1.1-2.7c-2.2,1.3-5.3,1.1-8.7-0.9c-6.6-3.9-11.9-13.3-11.8-20.9
						C86.4,37.2,87.8,34.5,89.9,33.3L89.9,33.3z"/>
					<path class="st4" d="M106.8,62.8c-2.2,1.3-5.3,1.1-8.7-0.9c-1.6-0.9-3.1-2.2-4.4-3.6c0.1,0.2,0.2,0.4,0.3,0.5
						c0.2,0.3,0.4,0.8,0.2,1c-1.6,1.2-7.9-7.9-7.1-10.3c0-0.1,0.1-0.2,0.1-0.2c0.3-0.2,0.9,0.8,1.5,1.6c-1.5-3.3-2.4-6.7-2.4-9.9
						c0.1-3.7,1.4-6.4,3.6-7.6c-0.8,0.5-1.9,0.3-2.8-0.4c-2.4,1.4-3.9,4.3-3.9,8.4c-0.1,8.4,5.7,18.8,13,23.1c3.7,2.2,7.1,2.4,9.6,1
						C105.6,64.3,106,63.3,106.8,62.8L106.8,62.8z"/>
					<path class="st5" d="M106.8,62.8c-1.7,1-4,1.1-6.5,0.1c0,0-0.1,0.1-0.1,0.1c-4.4,3-16.4-9.5-14.7-17.8c0.3-1.5,0.9-1.6,1.1-1.6
						c-0.1-0.9-0.2-1.8-0.2-2.6c0.1-3.7,1.4-6.4,3.6-7.6c-0.8,0.5-1.9,0.3-2.8-0.4c-2.4,1.4-3.9,4.3-3.9,8.4
						c-0.1,8.4,5.7,18.8,13,23.1c3.7,2.2,7.1,2.4,9.6,1C105.6,64.3,106,63.3,106.8,62.8L106.8,62.8z"/>
					<path class="st7" d="M91.7,56.6c-0.3-0.7-2.7-4.4-3-4.4c-0.1,0-0.1,0.1-0.2,0.1c-0.1,0.3,0.9,2.3,1,2.5c0,0,1.6,2.4,2.2,2.4
						c0.1,0,0.1,0,0.2-0.1C91.9,57,91.7,56.8,91.7,56.6L91.7,56.6z"/>
				</g>
			</g>
			<g class="st1">
				<defs>
					<path id="SVGID_129_" class="st1" d="M98.1,24.2c1.4-0.8,2-1.1,3.9-1.6c1.2-0.3,2.9-0.5,3.6-0.4c1.4,0.1,2.6,0.1,4.5,0.6
						c1.1,0.3,2.5,0.8,4.5,1.9c-1.5-0.9-3.6-0.8-5.9,0.6C104.6,22.9,100.8,22.6,98.1,24.2z"/>
				</defs>
				<clipPath id="SVGID_10_">
					<use xlink:href="#SVGID_129_"  style="overflow:visible;"/>
				</clipPath>
				<g class="st15">
					<path class="st4" d="M98.1,24.2c5.4-2.8,11-2.6,16.5,0.6c-1.5-0.9-3.6-0.8-5.9,0.6C104.6,22.9,100.8,22.6,98.1,24.2L98.1,24.2z
						"/>
					<path class="st4" d="M102,22.6c1-0.2,2.1-0.4,3.6-0.4l1.2,0c0.7,0.1,1.5,0.2,2.2,0.3l1.2,0.3c0.5,0.2,1.3,0.4,1.8,0.6l1.1,0.5
						c0.5,0.2,1.1,0.6,1.5,0.8c-1.5-0.9-3.6-0.8-5.9,0.6c-4.1-2.5-7.9-2.7-10.6-1.2l0,0C99.2,23.6,100.4,23,102,22.6L102,22.6z"/>
					<path class="st5" d="M102,22.6c1-0.2,2.1-0.4,3.6-0.4l1.2,0c0.7,0.1,1.5,0.2,2.2,0.3l1.2,0.3c0.5,0.2,1.3,0.4,1.8,0.6l1.1,0.5
						c0.5,0.2,1.1,0.6,1.5,0.8c-0.6-0.4-1.4-0.6-2.2-0.6c-0.3-0.1-0.7-0.2-1-0.3c-2-0.4-3.2-0.6-5.3,0.2c-3.1-1.2-5.9-1.1-8,0.1l0,0
						C99.2,23.6,100.4,23,102,22.6L102,22.6z"/>
				</g>
			</g>
			<g class="st1">
				<defs>
					<path id="SVGID_131_" class="st1" d="M84.3,32.5C81.7,34,80,37.1,80,41.7c-0.1,9.2,6.2,20.5,14.3,25.3
						c4.1,2.4,7.8,2.7,10.5,1.1l-4.9,2.8c-2.7,1.5-6.4,1.3-10.5-1.1c-8-4.8-14.4-16.1-14.3-25.3c0.1-4.5,1.7-7.7,4.3-9.2
						C80.8,34.4,82.8,33.3,84.3,32.5z"/>
				</defs>
				<clipPath id="SVGID_11_">
					<use xlink:href="#SVGID_131_"  style="overflow:visible;"/>
				</clipPath>
				<g class="st16">
					<path class="st5" d="M84.3,32.5l-4.9,2.8c-2.6,1.5-4.2,4.7-4.3,9.2c0,1,0,2.1,0.2,3.2l4.9-2.8c-0.1-1.1-0.2-2.1-0.2-3.2
						C80,37.1,81.7,34,84.3,32.5L84.3,32.5z"/>
					<path class="st4" d="M80.2,44.8l-4.9,2.8c0.4,2.9,1.3,5.9,2.7,8.8l4.9-2.8C81.5,50.7,80.5,47.7,80.2,44.8L80.2,44.8z"/>
					<path class="st7" d="M82.8,53.6l-4.9,2.8c1.5,3.3,3.6,6.4,6,9l4.9-2.8C86.4,60,84.4,56.9,82.8,53.6L82.8,53.6z"/>
					<path class="st4" d="M88.9,62.6L84,65.4c1.7,1.7,3.5,3.2,5.4,4.4c0.9,0.5,1.7,0.9,2.6,1.3l4.9-2.8c-0.8-0.3-1.7-0.7-2.6-1.3
						C92.3,65.8,90.5,64.3,88.9,62.6L88.9,62.6z"/>
					<path class="st5" d="M96.8,68.2L91.9,71c3.1,1.2,5.8,1.1,7.9-0.1l4.9-2.8C102.6,69.3,99.8,69.4,96.8,68.2L96.8,68.2z"/>
				</g>
			</g>
			<g class="st1">
				<defs>
					<path id="SVGID_133_" class="st1" d="M94,26.6l4.1-2.4c2.7-1.6,6.5-1.3,10.6,1.2l-4.1,2.4C100.5,25.3,96.7,25,94,26.6z"/>
				</defs>
				<clipPath id="SVGID_12_">
					<use xlink:href="#SVGID_133_"  style="overflow:visible;"/>
				</clipPath>
				<g class="st17">
					<path class="st4" d="M108.7,25.3l-4.1,2.4c-0.9-0.5-1.8-1-2.6-1.3l4.1-2.4C107,24.4,107.9,24.8,108.7,25.3L108.7,25.3z"/>
					<path class="st5" d="M106.1,24.1l-4.1,2.4c-3.1-1.2-5.9-1.1-8,0.1l4.1-2.4C100.3,23,103,22.9,106.1,24.1L106.1,24.1z"/>
				</g>
			</g>
			<g class="st1">
				<defs>
					<path id="SVGID_135_" class="st1" d="M91.9,32.2c0.8-0.5,1.2-1.5,1.1-2.6c2.4-1.4,5.8-1.2,9.5,1c-0.4,1-1.1,2-2,2.5
						C97.2,31.1,94.1,30.9,91.9,32.2z"/>
				</defs>
				<clipPath id="SVGID_13_">
					<use xlink:href="#SVGID_135_"  style="overflow:visible;"/>
				</clipPath>
				<g class="st18">
					<path class="st4" d="M91.9,32.2c0.8-0.5,1.2-1.5,1.1-2.6c2.4-1.4,5.8-1.2,9.5,1c-0.4,1-1.1,2-2,2.5
						C97.2,31.1,94.1,30.9,91.9,32.2L91.9,32.2z"/>
					<path class="st4" d="M93,29.6c2.4-1.4,5.8-1.2,9.5,1c-0.4,1-1.1,2-2,2.5c-3.4-2-6.4-2.2-8.7-0.9C92.7,31.7,93.1,30.7,93,29.6
						L93,29.6z"/>
					<path class="st5" d="M93,29.6c2.4-1.4,5.8-1.2,9.5,1c-0.2,0.5-0.4,0.9-0.7,1.3c-0.1,0-0.2,0-0.2-0.1c-2.2-0.5-2.9,0-3.1,0.2
						c-2.5-1-4.8-0.9-6.5,0.1C92.7,31.7,93.1,30.7,93,29.6L93,29.6z"/>
				</g>
			</g>
			<g class="st1">
				<defs>
					<path id="SVGID_137_" class="st1" d="M89.9,33.3l1.9-1.1c2.2-1.3,5.3-1.1,8.7,0.9l-1.9,1.1C95.2,32.2,92.2,32,89.9,33.3z"/>
				</defs>
				<clipPath id="SVGID_14_">
					<use xlink:href="#SVGID_137_"  style="overflow:visible;"/>
				</clipPath>
				<g class="st19">
					<path class="st4" d="M100.5,33.1l-1.9,1.1c-0.7-0.4-1.4-0.8-2.1-1l1.9-1.1C99.1,32.4,99.8,32.7,100.5,33.1L100.5,33.1z"/>
					<path class="st5" d="M98.4,32.1l-1.9,1.1c-2.5-1-4.8-0.9-6.5,0.1l1.9-1.1C93.6,31.2,95.9,31.1,98.4,32.1L98.4,32.1z"/>
				</g>
			</g>
			<g class="st1">
				<defs>
					<path id="SVGID_139_" class="st1" d="M126.7,46.2c-0.1,4.7-1.5,7.2-2.4,8.7c-0.9,1.5-2.2,2.9-2.7,3.4c-0.4,0.4-1.3,1.1-2.8,2.1
						c2.6-1.5,4.3-4.7,4.4-9.3c0.1-9.3-6.3-20.8-14.5-25.7c2.3-1.3,4.4-1.4,5.9-0.6c1.5,1,2.9,1.8,5.1,4.2c0.3,0.3,2.1,2.2,3.6,5
						C126.5,39.5,126.7,44.4,126.7,46.2z"/>
				</defs>
				<clipPath id="SVGID_15_">
					<use xlink:href="#SVGID_139_"  style="overflow:visible;"/>
				</clipPath>
				<g class="st20">
					<path class="st4" d="M126.7,46.2c-0.2,8-4.4,12.1-7.8,14.1c2.6-1.5,4.3-4.7,4.4-9.3c0.1-9.3-6.3-20.8-14.5-25.7
						c2.3-1.3,4.4-1.4,5.9-0.6C124.4,31,126.8,41.2,126.7,46.2L126.7,46.2z"/>
					<path class="st4" d="M114.6,24.8c0.7,0.4,1.3,0.8,2.3,1.6l1,0.8c0.3,0.3,0.7,0.6,1,0.9l0.9,0.9c0.3,0.3,0.6,0.7,0.8,1l0.8,1
						c0.2,0.3,0.5,0.7,0.7,1l0.7,1c0.2,0.3,0.4,0.7,0.6,1l0.6,1.1c0.2,0.3,0.4,0.8,0.5,1.1l0.5,1.1c0.1,0.3,0.3,0.8,0.4,1.2l0.4,1.2
						c0.1,0.4,0.2,0.9,0.3,1.2l0.3,1.2c0.1,0.4,0.2,1,0.2,1.4l0.1,1.3c0,0.5,0,1.1,0,1.5l-0.1,1.3c-0.2,1.5-0.2,1.8-0.5,3.1
						l-0.3,1.2c-0.2,0.6-0.6,1.5-0.9,2.1l-0.6,1c-0.3,0.5-0.8,1.2-1.1,1.6l-0.8,0.9c-0.4,0.4-0.9,0.9-1.3,1.3l-0.9,0.7
						c-0.4,0.3-0.9,0.6-1.4,0.9c2.6-1.5,4.3-4.7,4.4-9.3c0.1-3.9-1-8.1-2.9-12.1c0-0.4,0-0.9-0.1-1.3c-1.3-5.4-4.4-7.2-6.1-7.8
						c-1.7-1.8-3.5-3.3-5.4-4.4C111.1,24,113.2,23.9,114.6,24.8L114.6,24.8z"/>
					<path class="st5" d="M114.6,24.8c0.7,0.4,1.3,0.8,2.3,1.6l1,0.8c0.3,0.3,0.7,0.6,1,0.9l0.9,0.9c0.3,0.3,0.6,0.7,0.8,1l0.8,1
						c0.2,0.3,0.5,0.7,0.7,1l0.7,1c0.2,0.3,0.4,0.7,0.6,1l0.6,1.1c0.2,0.3,0.4,0.8,0.5,1.1l0.5,1.1c0.1,0.3,0.3,0.8,0.4,1.2l0.4,1.2
						c0.1,0.4,0.2,0.9,0.3,1.2l0.3,1.2c0.1,0.4,0.2,1,0.2,1.4l0.1,1.3c0,0.5,0,1.1,0,1.5l-0.1,1.3c-0.2,1.5-0.2,1.8-0.5,3.1
						l-0.3,1.2c-0.2,0.6-0.6,1.5-0.9,2.1l-0.6,1c-0.3,0.5-0.8,1.2-1.1,1.6l-0.8,0.9c-0.4,0.4-0.9,0.9-1.3,1.3l-0.9,0.7
						c-0.4,0.3-0.9,0.6-1.4,0.9c2.6-1.5,4.3-4.7,4.4-9.3c0-1-0.1-2.1-0.2-3.2c0.2-0.2,0.4-0.4,0.5-0.5c4.9-6.1-1.6-19.5-11.1-23.1
						C113.2,24.2,114,24.4,114.6,24.8L114.6,24.8z"/>
				</g>
			</g>
			<g class="st1">
				<defs>
					<path id="SVGID_141_" class="st1" d="M97.1,34.4c-1-0.6-2.3-1.3-4.1-1.6c-0.8-0.1-2-0.1-3.1,0.5c2.2-1.3,5.3-1.1,8.7,0.9
						C98,34.6,97.5,34.6,97.1,34.4z"/>
				</defs>
				<clipPath id="SVGID_16_">
					<use xlink:href="#SVGID_141_"  style="overflow:visible;"/>
				</clipPath>
				<g class="st21">
					<path class="st4" d="M97.1,34.4c-1.1-0.6-4.6-2.5-7.2-1.1c2.2-1.3,5.3-1.1,8.7,0.9C98,34.6,97.5,34.6,97.1,34.4L97.1,34.4z"/>
					<path class="st4" d="M98.6,34.2c-0.6,0.3-1.1,0.4-1.5,0.1c-0.2-0.1-0.5-0.3-0.7-0.4c-0.4-0.2-1-0.5-1.4-0.6l-0.6-0.2
						c-0.3-0.1-0.6-0.2-0.9-0.2L93,32.8c-0.2,0-0.4,0-0.6-0.1l-0.3,0c-0.1,0-0.3,0-0.5,0l-0.3,0c-0.1,0-0.3,0-0.4,0.1L90.7,33
						c-0.1,0-0.2,0.1-0.3,0.1l-0.2,0.1c-0.1,0-0.2,0.1-0.3,0.1C92.2,32,95.2,32.2,98.6,34.2L98.6,34.2z"/>
					<path class="st5" d="M96.5,33.2c0,0,0,0.1,0,0.1c0,0.1,0.1,0.4,0.2,0.4c0.1,0.1,0.1,0.1,1,0.8c-0.2,0-0.4,0-0.6-0.1
						c-0.2-0.1-0.5-0.3-0.7-0.4c-0.4-0.2-1-0.5-1.4-0.6l-0.6-0.2c-0.3-0.1-0.6-0.2-0.9-0.2L93,32.8c-0.2,0-0.4,0-0.6-0.1l-0.3,0
						c-0.1,0-0.3,0-0.5,0l-0.3,0c-0.1,0-0.3,0-0.4,0.1L90.7,33c-0.1,0-0.2,0.1-0.3,0.1l-0.2,0.1c-0.1,0-0.2,0.1-0.3,0.1
						C91.7,32.3,93.9,32.2,96.5,33.2L96.5,33.2z"/>
				</g>
			</g>
			<g class="st1">
				<defs>
					<path id="SVGID_143_" class="st1" d="M89.9,33.3c-0.8,0.5-1.9,0.3-2.8-0.4c2.5-1.4,5.8-1.2,9.6,1c0.1,0.2,0.2,0.4,0.4,0.5
						c-0.7-0.4-2.3-1.3-3.8-1.5C92.2,32.7,91.1,32.6,89.9,33.3z"/>
				</defs>
				<clipPath id="SVGID_17_">
					<use xlink:href="#SVGID_143_"  style="overflow:visible;"/>
				</clipPath>
				<g class="st22">
					<path class="st4" d="M89.9,33.3c2.4-1.3,5.2,0,7.2,1.1c-0.2-0.1-0.3-0.3-0.4-0.5c-3.7-2.2-7.1-2.4-9.6-1
						C88,33.6,89.1,33.8,89.9,33.3L89.9,33.3z"/>
					<path class="st4" d="M89.9,33.3c0.1-0.1,0.2-0.1,0.5-0.2l0.2-0.1c0.1,0,0.2-0.1,0.3-0.1l0.3-0.1c0.1,0,0.3,0,0.4-0.1l0.3,0
						c0.1,0,0.3,0,0.5,0l0.4,0c0.2,0,0.5,0.1,0.6,0.1L94,33c0.3,0.1,0.7,0.2,0.9,0.3l0.7,0.3c0.4,0.2,1,0.5,1.4,0.8
						c-0.2-0.1-0.3-0.3-0.4-0.5c-3.7-2.2-7.1-2.4-9.6-1C88,33.6,89.1,33.8,89.9,33.3L89.9,33.3z"/>
					<path class="st5" d="M89.9,33.3c0.1-0.1,0.2-0.1,0.5-0.2l0.2-0.1c0.1,0,0.2-0.1,0.3-0.1l0.3-0.1c0.1,0,0.3,0,0.4-0.1l0.3,0
						c0.1,0,0.3,0,0.5,0l0.4,0c0.2,0,0.5,0.1,0.6,0.1L94,33c0.3,0.1,0.7,0.2,0.9,0.3l0.7,0.3c0.4,0.2,1,0.5,1.4,0.8
						c-0.2-0.1-0.3-0.3-0.4-0.5c-3.7-2.2-7.1-2.4-9.6-1C88,33.6,89.1,33.8,89.9,33.3L89.9,33.3z"/>
				</g>
			</g>
			<g class="st1">
				<defs>
					<path id="SVGID_145_" class="st1" d="M111.5,62c-0.9-0.7-2-0.8-2.8-0.3c2.1-1.2,3.5-3.9,3.6-7.6c0.1-7.6-5.2-17-11.8-20.9
						c0.8-0.5,1.6-1.4,2-2.5c7.3,4.3,13.1,14.6,13,23C115.4,57.8,113.9,60.7,111.5,62z"/>
				</defs>
				<clipPath id="SVGID_18_">
					<use xlink:href="#SVGID_145_"  style="overflow:visible;"/>
				</clipPath>
				<g class="st23">
					<path class="st4" d="M111.5,62c-0.9-0.7-2-0.8-2.8-0.3c2.1-1.2,3.5-3.9,3.6-7.6c0.1-7.6-5.2-17-11.8-20.9
						c0.8-0.5,1.6-1.4,2-2.5c7.3,4.3,13.1,14.6,13,23C115.4,57.8,113.9,60.7,111.5,62L111.5,62z"/>
					<path class="st4" d="M102.5,30.7c7.3,4.3,13.1,14.6,13,23c-0.1,4.1-1.5,7-3.9,8.4c0,0-0.1-0.1-0.1-0.1
						c-1.3-0.9-2.3-0.4-2.6-0.3c2.1-1.2,3.5-3.9,3.6-7.6c0-3.2-0.8-6.6-2.4-9.9c0.1,0.1,0.2,0.3,0.3,0.5c0.4,0.5,0.8,1,1,1
						c1.2-0.1-1-6.5-5-9.6c-1.4-1.1-1.8-0.8-1.8-0.8c-0.3,0.2,0.1,0.9,0.5,1.5c-1.4-1.4-2.9-2.7-4.4-3.6
						C101.3,32.7,102.1,31.7,102.5,30.7L102.5,30.7z"/>
					<path class="st5" d="M102.5,30.7c7.3,4.3,13.1,14.6,13,23c-0.1,4.1-1.5,7-3.9,8.4c-0.9-0.7-2-0.8-2.8-0.3
						c2.1-1.2,3.5-3.9,3.6-7.6c0-0.9,0-1.7-0.2-2.6c0,0,0.1,0,0.1,0c3-1.4-0.9-15.8-10.1-19.4c-0.1,0-0.3-0.1-0.4-0.1
						C102.1,31.6,102.3,31.1,102.5,30.7L102.5,30.7z"/>
					<path class="st7" d="M107.1,37.7c1.7,1.1,3.3,4.6,3.1,5.1c0,0-0.1,0.1-0.1,0.1c-0.4,0-3.6-4.8-3.4-5.2c0,0,0.1-0.1,0.1-0.1
						C106.9,37.6,107,37.7,107.1,37.7L107.1,37.7z"/>
				</g>
			</g>
			<g class="st1">
				<defs>
					<path id="SVGID_147_" class="st1" d="M118.9,60.3l-4.1,2.4c2.6-1.5,4.3-4.7,4.4-9.3c0.1-9.3-6.3-20.8-14.5-25.7l4.1-2.4
						c8.1,4.8,14.6,16.3,14.5,25.7C123.1,55.6,121.5,58.8,118.9,60.3z"/>
				</defs>
				<clipPath id="SVGID_19_">
					<use xlink:href="#SVGID_147_"  style="overflow:visible;"/>
				</clipPath>
				<g class="st24">
					<path class="st5" d="M118.9,60.3l-4.1,2.4c2.6-1.5,4.3-4.7,4.4-9.3c0-1-0.1-2.1-0.2-3.2l4.1-2.4c0.1,1.1,0.2,2.2,0.2,3.2
						C123.1,55.6,121.5,58.8,118.9,60.3L118.9,60.3z"/>
					<path class="st4" d="M123,47.8l-4.1,2.4c-0.4-3-1.3-6-2.7-8.9l4.1-2.4C121.7,41.8,122.6,44.8,123,47.8L123,47.8z"/>
					<path class="st7" d="M120.3,38.9l-4.1,2.4c-1.6-3.3-3.7-6.5-6.1-9.1l4.1-2.4C116.6,32.4,118.7,35.5,120.3,38.9L120.3,38.9z"/>
					<path class="st4" d="M114.2,29.8l-4.1,2.4c-1.7-1.8-3.5-3.3-5.4-4.4l4.1-2.4C110.7,26.5,112.5,28,114.2,29.8L114.2,29.8z"/>
				</g>
			</g>
			<g class="st1">
				<defs>
					<path id="SVGID_149_" class="st1" d="M108.8,61.7l-1.9,1.1c2.1-1.2,3.5-3.9,3.6-7.6c0.1-7.6-5.2-17-11.8-20.9l1.9-1.1
						c6.6,3.9,11.9,13.3,11.8,20.9C112.3,57.8,110.9,60.4,108.8,61.7z"/>
				</defs>
				<clipPath id="SVGID_20_">
					<use xlink:href="#SVGID_149_"  style="overflow:visible;"/>
				</clipPath>
				<g class="st25">
					<path class="st5" d="M108.8,61.7l-1.9,1.1c2.1-1.2,3.5-3.9,3.6-7.6c0-0.9,0-1.7-0.2-2.6l1.9-1.1c0.1,0.9,0.2,1.8,0.2,2.6
						C112.3,57.8,110.9,60.4,108.8,61.7L108.8,61.7z"/>
					<path class="st4" d="M112.2,51.5l-1.9,1.1c-0.3-2.4-1.1-4.9-2.2-7.3l1.9-1.1C111.1,46.6,111.9,49.1,112.2,51.5L112.2,51.5z"/>
					<path class="st7" d="M110,44.2l-1.9,1.1c-1.3-2.7-3-5.3-5-7.4l1.9-1.1C107,38.9,108.7,41.4,110,44.2L110,44.2z"/>
					<path class="st4" d="M105,36.7l-1.9,1.1c-1.4-1.4-2.9-2.7-4.4-3.6l1.9-1.1C102.1,34.1,103.6,35.3,105,36.7L105,36.7z"/>
				</g>
			</g>
			<g class="st1">
				<defs>
					<path id="SVGID_151_" class="st1" d="M106.8,62.8c0.3-0.2,1.1-0.7,1.7-1.9c0.5-0.9,0.8-2,0.9-3.2c0.3-3.3-0.5-6.5-1.2-8.7
						c-1.7-4.8-5.5-11.2-11.1-14.6c0.4,0.2,0.9,0.2,1.5-0.1c6.6,3.9,11.9,13.3,11.8,20.9C110.4,58.9,109,61.5,106.8,62.8z"/>
				</defs>
				<clipPath id="SVGID_21_">
					<use xlink:href="#SVGID_151_"  style="overflow:visible;"/>
				</clipPath>
				<g class="st26">
					<path class="st4" d="M106.8,62.8c6.2-3.8,1.3-21.7-9.8-28.4c0.4,0.2,0.9,0.2,1.5-0.1c6.6,3.9,11.9,13.3,11.8,20.9
						C110.4,58.9,109,61.5,106.8,62.8L106.8,62.8z"/>
					<path class="st4" d="M98.6,34.2c1.6,0.9,3.1,2.2,4.4,3.6c0.1,0.2,0.2,0.4,0.3,0.5c1.1,1.6,3.8,5.5,4.7,6.9
						c1.5,3.3,2.4,6.7,2.4,9.9c-0.1,3.7-1.4,6.4-3.6,7.6c0.1,0,0.1-0.1,0.2-0.1c0.1-0.1,0.2-0.1,0.2-0.2l0.2-0.2
						c0.1-0.1,0.2-0.2,0.2-0.2l0.2-0.2c0.1-0.1,0.2-0.2,0.2-0.3l0.2-0.3c0.1-0.1,0.2-0.3,0.2-0.4l0.2-0.4c0.1-0.2,0.2-0.4,0.2-0.6
						l0.2-0.5c0.1-0.3,0.2-0.7,0.2-1l0.1-0.7c0-0.4,0.1-0.9,0.1-1.3l0-1c0-0.4-0.1-1-0.1-1.4l-0.2-1.1c-0.1-0.4-0.2-0.9-0.3-1.4
						l-0.3-1.2c-0.1-0.4-0.3-0.9-0.4-1.3l-0.5-1.3c-0.2-0.4-0.4-0.9-0.5-1.3l-0.6-1.3c-0.2-0.4-0.5-0.9-0.7-1.2l-0.7-1.2
						c-0.2-0.4-0.5-0.8-0.8-1.2l-0.8-1.1c-0.3-0.3-0.6-0.8-0.9-1.1l-0.9-1c-0.3-0.3-0.7-0.7-1-1l-0.9-0.8c-0.3-0.3-0.7-0.6-1-0.9
						l-0.8-0.6c-0.3-0.2-0.8-0.5-1.1-0.7C97.5,34.6,98,34.6,98.6,34.2L98.6,34.2z"/>
					<path class="st5" d="M97.7,34.5c0.1,0,6.9,3.9,11.3,15.7c0.7,1.9,0.9,2.1,1.2,2.3l0.1,0.1l0,0c0.1,0.9,0.2,1.8,0.2,2.6
						c-0.1,3.7-1.4,6.4-3.6,7.6c0.1,0,0.1-0.1,0.2-0.1c0.1-0.1,0.2-0.1,0.2-0.2l0.2-0.2c0.1-0.1,0.2-0.2,0.2-0.2l0.2-0.2
						c0.1-0.1,0.2-0.2,0.2-0.3l0.2-0.3c0.1-0.1,0.2-0.3,0.2-0.4l0.2-0.4c0.1-0.2,0.2-0.4,0.2-0.6l0.2-0.5c0.1-0.3,0.2-0.7,0.2-1
						l0.1-0.7c0-0.4,0.1-0.9,0.1-1.3l0-1c0-0.4-0.1-1-0.1-1.4l-0.2-1.1c-0.1-0.4-0.2-0.9-0.3-1.4l-0.3-1.2c-0.1-0.4-0.3-0.9-0.4-1.3
						l-0.5-1.3c-0.2-0.4-0.4-0.9-0.5-1.3l-0.6-1.3c-0.2-0.4-0.5-0.9-0.7-1.2l-0.7-1.2c-0.2-0.4-0.5-0.8-0.8-1.2l-0.8-1.1
						c-0.3-0.3-0.6-0.8-0.9-1.1l-0.9-1c-0.3-0.3-0.7-0.7-1-1l-0.9-0.8c-0.3-0.3-0.7-0.6-1-0.9l-0.8-0.6c-0.3-0.2-0.8-0.5-1.1-0.7
						C97.2,34.5,97.4,34.5,97.7,34.5L97.7,34.5z"/>
				</g>
			</g>
			<g class="st1">
				<defs>
					<path id="SVGID_153_" class="st1" d="M109.5,56.4c0.1-3.7-1.3-8.3-3.6-12.4c-1.2-2.1-2.5-4-4.1-5.6c-2.1-2.3-3.6-3.2-4.8-4
						c-0.2-0.1-0.3-0.3-0.4-0.5c7.3,4.4,13.2,14.7,13,23.1c-0.1,4.1-1.6,7-3.9,8.4c-0.2-1.1,0.2-2.2,1.1-2.7
						C108,62.1,109.4,60.4,109.5,56.4z"/>
				</defs>
				<clipPath id="SVGID_22_">
					<use xlink:href="#SVGID_153_"  style="overflow:visible;"/>
				</clipPath>
				<g class="st27">
					<path class="st4" d="M109.5,56.4c-0.1,3.1-1,5.3-2.6,6.3c-0.9,0.5-1.3,1.5-1.1,2.7c2.4-1.4,3.9-4.3,3.9-8.4
						c0.1-8.4-5.7-18.8-13-23.1c0.1,0.2,0.2,0.4,0.4,0.5C105.9,40,109.7,50.6,109.5,56.4L109.5,56.4z"/>
					<path class="st4" d="M97.1,34.4c0.6,0.4,1,0.6,2,1.4l0.9,0.7c0.3,0.3,0.7,0.7,1,0.9l0.9,0.9c0.3,0.3,0.6,0.7,0.9,1l0.8,1.1
						c0.2,0.3,0.6,0.8,0.8,1.1l0.8,1.2c0.2,0.4,0.5,0.8,0.7,1.2l0.7,1.2c0.2,0.4,0.4,0.9,0.6,1.3l0.5,1.3c0.1,0.4,0.3,0.9,0.5,1.3
						l0.4,1.2c0.1,0.4,0.3,0.9,0.3,1.3l0.2,1.2c0.1,0.4,0.2,0.9,0.2,1.3l0.1,1c0,0.4,0,0.9,0,1.3l0,0.8c0,0.4-0.1,0.8-0.1,1.2
						l-0.1,0.6c-0.1,0.3-0.2,0.6-0.3,0.9l-0.2,0.4c-0.1,0.2-0.2,0.4-0.3,0.6l-0.2,0.3c-0.1,0.1-0.2,0.3-0.3,0.4l-0.2,0.2
						c-0.1,0.1-0.2,0.2-0.2,0.3l-0.2,0.2c-0.1,0.1-0.2,0.1-0.2,0.2l-0.2,0.1c-0.1,0-0.2,0.1-0.3,0.2c-0.8,0.5-1.3,1.5-1.1,2.7
						c2.4-1.4,3.9-4.3,3.9-8.4c0.1-8.4-5.7-18.8-13-23.1C96.8,34.1,96.9,34.3,97.1,34.4L97.1,34.4z"/>
					<path class="st5" d="M97.1,34.4c0.6,0.4,1,0.6,2,1.4l0.9,0.7c0.3,0.3,0.7,0.7,1,0.9l0.9,0.9c0.3,0.3,0.6,0.7,0.9,1l0.8,1.1
						c0.2,0.3,0.6,0.8,0.8,1.1l0.8,1.2c0.2,0.4,0.5,0.8,0.7,1.2l0.7,1.2c0.2,0.4,0.4,0.9,0.6,1.3l0.5,1.3c0.1,0.4,0.3,0.9,0.5,1.3
						l0.4,1.2c0.1,0.4,0.3,0.9,0.3,1.3l0.2,1.2c0.1,0.4,0.2,0.9,0.2,1.3l0.1,1c0,0.4,0,0.9,0,1.3l0,0.8c0,0.4-0.1,0.8-0.1,1.2
						l-0.1,0.6c-0.1,0.3-0.2,0.6-0.3,0.9l-0.2,0.4c-0.1,0.2-0.2,0.4-0.3,0.6l-0.2,0.3c-0.1,0.1-0.2,0.3-0.3,0.4l-0.2,0.2
						c-0.1,0.1-0.2,0.2-0.2,0.3l-0.2,0.2c-0.1,0.1-0.2,0.1-0.2,0.2l-0.2,0.1c-0.1,0-0.2,0.1-0.3,0.2c-0.8,0.5-1.3,1.5-1.1,2.7
						c2.4-1.4,3.9-4.3,3.9-8.4c0.1-8.4-5.7-18.8-13-23.1C96.8,34.1,96.9,34.3,97.1,34.4L97.1,34.4z"/>
				</g>
			</g>
			<g class="st1">
				<defs>
					<path id="SVGID_155_" class="st1" d="M96.3,33.5c0.2,0.1,0.3,0.3,0.4,0.5c-3.7-2.2-7.1-2.4-9.6-1c-2.4,1.4-3.9,4.3-3.9,8.4
						c-0.1,8.4,5.7,18.8,13,23.1c3.7,2.2,7.1,2.4,9.6,1c2.4-1.4,3.9-4.3,3.9-8.4c0.1-8.4-5.7-18.8-13-23.1
						C96.6,33.7,96.4,33.6,96.3,33.5c4.1,2.5,6.7,5.7,8.2,8c1.5,2.2,3.6,5.8,4.8,10.6c0.6,2.5,1.1,6.2,0,10
						c-0.2,0.7-0.7,2.2-1.8,3.6c-1.1,1.4-2.1,2.1-2.8,2.5c-2.7,1.5-6.4,1.3-10.5-1.1c-8-4.8-14.4-16.1-14.3-25.3
						c0.1-4.5,1.7-7.7,4.3-9.2c2.1-1.2,4.2-1.3,5.5-1.2C92.9,31.5,95.2,32.9,96.3,33.5z"/>
				</defs>
				<clipPath id="SVGID_23_">
					<use xlink:href="#SVGID_155_"  style="overflow:visible;"/>
				</clipPath>
				<g class="st28">
					<path class="st4" d="M96.3,33.5c-2.9-1.6-7.2-3.5-11.9-1C81.7,34,80,37.1,80,41.7c-0.1,9.2,6.2,20.5,14.3,25.3
						c4.1,2.4,7.8,2.7,10.5,1.1C115.1,61.7,108.3,40.8,96.3,33.5c0.2,0.1,0.3,0.3,0.4,0.5c7.3,4.4,13.2,14.7,13,23.1
						c-0.1,4.1-1.6,7-3.9,8.4c-2.5,1.4-5.8,1.2-9.6-1C88.9,60,83,49.7,83.2,41.3c0.1-4.1,1.6-7,3.9-8.4c2.5-1.4,5.8-1.2,9.6,1
						C96.6,33.7,96.4,33.6,96.3,33.5L96.3,33.5z"/>
					<path class="st4" d="M96.7,33.9c7.3,4.4,13.2,14.7,13,23.1c-0.1,4.1-1.6,7-3.9,8.4c-2.5,1.4-5.8,1.2-9.6-1
						C88.9,60,83,49.7,83.2,41.3c0.1-4.1,1.6-7,3.9-8.4C89.5,31.5,92.9,31.7,96.7,33.9c-0.1-0.2-0.2-0.4-0.4-0.5
						c-0.3-0.2-0.7-0.4-0.9-0.5c-1.2-0.6-1.3-0.6-1.9-0.9l-0.8-0.3c-0.4-0.1-0.9-0.2-1.3-0.3l-0.7-0.1c-0.3,0-0.7-0.1-1-0.1l-0.6,0
						c-0.3,0-0.6,0-0.9,0.1l-0.6,0.1c-0.2,0-0.5,0.1-0.8,0.2L86,31.7c-0.2,0.1-0.5,0.2-0.7,0.2l-0.5,0.2c-0.2,0.1-0.4,0.2-0.6,0.3
						C81.7,34,80,37.1,80,41.7c-0.1,3.8,1,8,2.9,12c-0.1-0.2-0.2-0.5-0.2-0.8c-0.4-1.6-0.2-1.8-0.1-1.9c0.6-0.4,8.4,12.1,8.4,12.3
						c0,0.1,0,0.2,0,0.2c-0.3,0.4-1.5-0.6-2-0.9c1.6,1.7,3.5,3.2,5.3,4.4c4.1,2.4,7.8,2.7,10.5,1.1c0.1-0.1,0.3-0.2,0.5-0.3l0.4-0.3
						l0.4-0.4c0.2-0.1,0.4-0.3,0.5-0.5l0.4-0.4c0.1-0.2,0.4-0.4,0.5-0.6l0.4-0.5c0.1-0.2,0.3-0.5,0.4-0.7l0.3-0.6
						c0.1-0.3,0.3-0.7,0.4-1l0.3-0.8c0.1-0.4,0.2-0.9,0.3-1.3l0.2-1c0.1-1.3,0.1-1.3,0.1-2.1l0-1.2c0-0.5-0.1-1.1-0.1-1.6l-0.2-1.3
						c-0.1-0.5-0.2-1.1-0.3-1.5l-0.4-1.3c-0.1-0.4-0.3-1-0.5-1.4l-0.5-1.4c-0.2-0.4-0.4-1-0.6-1.4l-0.6-1.3
						c-0.2-0.4-0.5-0.9-0.7-1.3l-0.8-1.3c-0.2-0.4-0.6-0.9-0.8-1.2l-0.9-1.2c-0.3-0.3-0.6-0.8-0.9-1.2l-0.9-1.1
						c-0.3-0.3-0.7-0.8-1-1.1l-1-0.9c-0.4-0.3-0.8-0.7-1.2-1l-1-0.7c-0.4-0.3-0.9-0.6-1.3-0.9C96.4,33.6,96.6,33.7,96.7,33.9
						L96.7,33.9z"/>
					<path class="st5" d="M96.7,33.9c7.3,4.4,13.2,14.7,13,23.1c-0.1,4.1-1.6,7-3.9,8.4c-2.5,1.4-5.8,1.2-9.6-1
						C88.9,60,83,49.7,83.2,41.3c0.1-4.1,1.6-7,3.9-8.4C89.5,31.5,92.9,31.7,96.7,33.9c-0.1-0.2-0.2-0.4-0.4-0.5
						c-0.3-0.2-0.7-0.4-0.9-0.5c-1.2-0.6-1.3-0.6-1.9-0.9l-0.8-0.3c-0.4-0.1-0.9-0.2-1.3-0.3l-0.7-0.1c-0.3,0-0.7-0.1-1-0.1l-0.6,0
						c-0.3,0-0.6,0-0.9,0.1l-0.6,0.1c-0.2,0-0.5,0.1-0.8,0.2L86,31.7c-0.2,0.1-0.5,0.2-0.7,0.2l-0.5,0.2c-0.2,0.1-0.4,0.2-0.6,0.3
						C81.7,34,80,37.1,80,41.7c0,1,0.1,2.1,0.2,3.1c0,0,0.1-0.1,0.1-0.1c0.2-0.1,0.5-0.3,1,0.5c0.4,0.5,0.4,0.5,2.1,4.3
						c0.6,1.3,2.4,5.2,5.3,9c2.7,3.6,5.1,5.7,6.1,6.7c1.3,1.2,2.5,2.3,2.4,2.7c-0.1,0.2-0.2,0.3-0.4,0.3c3.1,1.2,5.8,1.1,7.9-0.1
						c0.1-0.1,0.3-0.2,0.5-0.3l0.4-0.3l0.4-0.4c0.2-0.1,0.4-0.3,0.5-0.5l0.4-0.4c0.1-0.2,0.4-0.4,0.5-0.6l0.4-0.5
						c0.1-0.2,0.3-0.5,0.4-0.7l0.3-0.6c0.1-0.3,0.3-0.7,0.4-1l0.3-0.8c0.1-0.4,0.2-0.9,0.3-1.3l0.2-1c0.1-1.3,0.1-1.3,0.1-2.1l0-1.2
						c0-0.5-0.1-1.1-0.1-1.6l-0.2-1.3c-0.1-0.5-0.2-1.1-0.3-1.5l-0.4-1.3c-0.1-0.4-0.3-1-0.5-1.4l-0.5-1.4c-0.2-0.4-0.4-1-0.6-1.4
						l-0.6-1.3c-0.2-0.4-0.5-0.9-0.7-1.3l-0.8-1.3c-0.2-0.4-0.6-0.9-0.8-1.2l-0.9-1.2c-0.3-0.3-0.6-0.8-0.9-1.2l-0.9-1.1
						c-0.3-0.3-0.7-0.8-1-1.1l-1-0.9c-0.4-0.3-0.8-0.7-1.2-1l-1-0.7c-0.4-0.3-0.9-0.6-1.3-0.9C96.4,33.6,96.6,33.7,96.7,33.9
						L96.7,33.9z"/>
					<path class="st7" d="M88.1,60.3c0.1-0.3-3.5-5.7-3.8-5.8c0,0-0.1,0-0.2,0.1c-0.4,0.7,2.9,5.9,3.8,5.9
						C88,60.4,88.1,60.4,88.1,60.3C88.1,60.3,88.1,60.3,88.1,60.3L88.1,60.3z"/>
				</g>
			</g>
			<g class="st1">
				<defs>
					<path id="SVGID_157_" class="st1" d="M84.3,32.5c0.7-0.4,1.5-0.8,2.9-1.1c1.2-0.2,2.4-0.1,3-0.1c1.1,0.1,3.2,0.5,6.1,2.2
						c-0.4-0.2-0.9-0.2-1.5,0.1C90.7,31.2,86.9,30.9,84.3,32.5z"/>
				</defs>
				<clipPath id="SVGID_24_">
					<use xlink:href="#SVGID_157_"  style="overflow:visible;"/>
				</clipPath>
				<g class="st29">
					<path class="st4" d="M84.3,32.5c3.6-1.9,7.6-1.6,12,1c-0.4-0.2-0.9-0.2-1.5,0.1C90.7,31.2,86.9,30.9,84.3,32.5L84.3,32.5z"/>
					<path class="st4" d="M85.4,31.9c0.7-0.3,0.7-0.3,1.2-0.4l0.6-0.1c0.2,0,0.5-0.1,0.8-0.1l0.6,0c0.3,0,0.6,0,0.9,0l0.7,0.1
						c0.3,0,0.7,0.1,1.1,0.2l0.8,0.2c0.4,0.1,0.9,0.3,1.3,0.4l0.9,0.4c1.2,0.6,1.3,0.6,2,1c-0.4-0.2-0.9-0.2-1.5,0.1
						c-4.1-2.4-7.8-2.7-10.5-1.1c0.1-0.1,0.3-0.2,0.5-0.3C84.9,32.1,85.2,32,85.4,31.9L85.4,31.9z"/>
					<path class="st5" d="M85.4,31.9c0.7-0.3,0.7-0.3,1.2-0.4l0.6-0.1c0.2,0,0.5-0.1,0.8-0.1l0.6,0c0.3,0,0.6,0,0.9,0l0.7,0.1
						c0.3,0,0.7,0.1,1.1,0.2l0.8,0.2c0.4,0.1,0.9,0.3,1.3,0.4l0.9,0.4c1.2,0.6,1.3,0.6,2,1c-0.2-0.1-0.4-0.1-0.6-0.1
						c-0.9-0.4-2-1-3.2-1l-0.2,0l0,0c-3.1-1.2-5.8-1.1-7.9,0.1c0.1-0.1,0.3-0.2,0.5-0.3C84.9,32.1,85.2,32,85.4,31.9L85.4,31.9z"/>
				</g>
			</g>
			<g class="st1">
				<defs>
					<path id="SVGID_159_" class="st1" d="M79.4,35.3l4.9-2.8c2.7-1.5,6.4-1.3,10.5,1.1l-4.9,2.8C85.8,34,82.1,33.7,79.4,35.3z"/>
				</defs>
				<clipPath id="SVGID_25_">
					<use xlink:href="#SVGID_159_"  style="overflow:visible;"/>
				</clipPath>
				<g class="st30">
					<path class="st4" d="M94.7,33.6l-4.9,2.8c-0.9-0.5-1.7-0.9-2.6-1.3l4.9-2.8C93,32.7,93.9,33.1,94.7,33.6L94.7,33.6z"/>
					<path class="st5" d="M92.2,32.3l-4.9,2.8c-3.1-1.2-5.8-1.1-7.9,0.1l4.9-2.8C86.4,31.3,89.1,31.2,92.2,32.3L92.2,32.3z"/>
				</g>
			</g>
			<g class="st1">
				<defs>
					<path id="SVGID_161_" class="st1" d="M109.9,57.7c-0.1,2.5-0.5,4.5-1.5,6.4c-1.2,2.5-3.1,3.6-3.7,4c2.6-1.5,4.2-4.7,4.3-9.2
						c0.1-9.2-6.2-20.5-14.3-25.3c0.6-0.3,1.1-0.4,1.5-0.1c1.4,0.9,3.1,1.9,5.4,4.5c1.6,1.7,3.1,3.8,4.3,6
						C108.6,48.5,110,53.5,109.9,57.7z"/>
				</defs>
				<clipPath id="SVGID_26_">
					<use xlink:href="#SVGID_161_"  style="overflow:visible;"/>
				</clipPath>
				<g class="st31">
					<path class="st4" d="M109.9,57.7c-0.1,4.9-1.9,8.4-5.2,10.4c2.6-1.5,4.2-4.7,4.3-9.2c0.1-9.2-6.2-20.5-14.3-25.3
						c0.6-0.3,1.1-0.4,1.5-0.1C106.5,40,110,51.5,109.9,57.7L109.9,57.7z"/>
					<path class="st4" d="M96.3,33.5c0.7,0.4,1.2,0.8,2.3,1.6l1,0.8c0.3,0.3,0.8,0.7,1.1,1l1,1c0.3,0.3,0.7,0.8,1,1.1l0.9,1.1
						c0.3,0.4,0.6,0.8,0.9,1.2l0.8,1.2c0.2,0.4,0.5,0.9,0.8,1.3l0.7,1.3c0.2,0.4,0.5,0.9,0.6,1.3l0.6,1.3c0.2,0.4,0.4,1,0.5,1.4
						l0.4,1.3c0.1,0.4,0.3,1,0.4,1.4l0.3,1.3c0.1,0.5,0.2,1.1,0.2,1.5l0.1,1.2c0,0.5,0,1.1,0,1.6l0,1c-0.1,1.3-0.1,1.3-0.3,2
						l-0.2,0.8c-0.1,0.4-0.3,0.9-0.4,1.3l-0.3,0.7c-0.1,0.3-0.3,0.6-0.5,0.9l-0.3,0.6c-0.1,0.2-0.3,0.5-0.5,0.7l-0.4,0.5
						c-0.2,0.2-0.4,0.4-0.5,0.6l-0.4,0.4c-0.2,0.1-0.4,0.3-0.6,0.5l-0.5,0.3l-0.4,0.3c2.6-1.5,4.2-4.7,4.3-9.2c0.1-3.8-1-8-2.9-12
						c-0.1-0.3-0.3-0.7-0.4-1c-0.6-1.5-2.3-5.1-5.7-7.9c-1.6-1.7-3.5-3.2-5.3-4.4C95.3,33.3,95.9,33.2,96.3,33.5L96.3,33.5z"/>
					<path class="st5" d="M96.3,33.5c0.7,0.4,1.2,0.8,2.3,1.6l1,0.8c0.3,0.3,0.8,0.7,1.1,1l1,1c0.3,0.3,0.7,0.8,1,1.1l0.9,1.1
						c0.3,0.4,0.6,0.8,0.9,1.2l0.8,1.2c0.2,0.4,0.5,0.9,0.8,1.3l0.7,1.3c0.2,0.4,0.5,0.9,0.6,1.3l0.6,1.3c0.2,0.4,0.4,1,0.5,1.4
						l0.4,1.3c0.1,0.4,0.3,1,0.4,1.4l0.3,1.3c0.1,0.5,0.2,1.1,0.2,1.5l0.1,1.2c0,0.5,0,1.1,0,1.6l0,1c-0.1,1.3-0.1,1.3-0.3,2
						l-0.2,0.8c-0.1,0.4-0.3,0.9-0.4,1.3l-0.3,0.7c-0.1,0.3-0.3,0.6-0.5,0.9l-0.3,0.6c-0.1,0.2-0.3,0.5-0.5,0.7l-0.4,0.5
						c-0.2,0.2-0.4,0.4-0.5,0.6l-0.4,0.4c-0.2,0.1-0.4,0.3-0.6,0.5l-0.5,0.3l-0.4,0.3c2.6-1.5,4.2-4.7,4.3-9.2c0-1-0.1-2.1-0.2-3.1
						c0-0.1,0.1-0.2,0.1-0.2c1.3-4.3-3.8-17-13-22.1c-0.1,0-0.1-0.1-0.2-0.1C95.9,33.3,96.1,33.4,96.3,33.5L96.3,33.5z"/>
				</g>
			</g>
			<g class="st1">
				<defs>
					<path id="SVGID_163_" class="st1" d="M104.7,68.1l-4.9,2.8c2.6-1.5,4.2-4.7,4.3-9.2c0.1-9.2-6.2-20.5-14.3-25.3l4.9-2.8
						c8,4.8,14.4,16.1,14.3,25.3C108.9,63.4,107.3,66.6,104.7,68.1z"/>
				</defs>
				<clipPath id="SVGID_27_">
					<use xlink:href="#SVGID_163_"  style="overflow:visible;"/>
				</clipPath>
				<g class="st32">
					<path class="st5" d="M104.7,68.1l-4.9,2.8c2.6-1.5,4.2-4.7,4.3-9.2c0-1,0-2.1-0.2-3.2l4.9-2.8c0.1,1.1,0.2,2.1,0.2,3.2
						C108.9,63.4,107.3,66.6,104.7,68.1L104.7,68.1z"/>
					<path class="st4" d="M108.8,55.8l-4.9,2.8c-0.4-2.9-1.3-5.9-2.7-8.8l4.9-2.8C107.5,49.8,108.4,52.8,108.8,55.8L108.8,55.8z"/>
					<path class="st7" d="M106.1,46.9l-4.9,2.8c-1.5-3.3-3.6-6.4-6-9l4.9-2.8C102.5,40.5,104.6,43.6,106.1,46.9L106.1,46.9z"/>
					<path class="st4" d="M100.1,38l-4.9,2.8c-1.7-1.7-3.5-3.2-5.4-4.4l4.9-2.8C96.6,34.7,98.4,36.2,100.1,38L100.1,38z"/>
				</g>
			</g>
			<g class="st1">
				<defs>
					<path id="SVGID_165_" class="st1" d="M79.4,35.3c-2.6,1.5-4.2,4.7-4.3,9.2c-0.1,9.2,6.2,20.5,14.3,25.3
						c4.1,2.4,7.8,2.7,10.5,1.1L64,91.5c-2.7,1.5-6.4,1.3-10.5-1.1c-8-4.8-14.4-16.1-14.3-25.3c0.1-4.5,1.7-7.7,4.3-9.2
						C54.3,49.7,68.6,41.4,79.4,35.3z"/>
				</defs>
				<clipPath id="SVGID_28_">
					<use xlink:href="#SVGID_165_"  style="overflow:visible;"/>
				</clipPath>
				<g class="st33">
					<path class="st5" d="M79.4,35.3L43.5,55.8c-2.6,1.5-4.2,4.7-4.3,9.2c0,1,0,2.1,0.2,3.2l35.9-20.6c-0.1-1.1-0.2-2.1-0.2-3.2
						C75.1,39.9,76.8,36.8,79.4,35.3L79.4,35.3z"/>
					<path class="st4" d="M75.3,47.6L39.4,68.2c0.4,2.9,1.3,5.9,2.7,8.8l35.9-20.6C76.6,53.5,75.7,50.5,75.3,47.6L75.3,47.6z"/>
					<path class="st7" d="M77.9,56.4L42.1,77c1.5,3.3,3.6,6.4,6,9L84,65.4C81.6,62.8,79.5,59.7,77.9,56.4L77.9,56.4z"/>
					<path class="st4" d="M84,65.4L48.1,86c1.7,1.7,3.5,3.2,5.4,4.4c0.9,0.5,1.7,0.9,2.6,1.3L91.9,71c-0.8-0.3-1.7-0.7-2.6-1.3
						C87.4,68.6,85.6,67.1,84,65.4L84,65.4z"/>
					<path class="st5" d="M91.9,71L56,91.6c3.1,1.2,5.8,1.1,7.9-0.1l35.9-20.6C97.7,72.1,95,72.2,91.9,71L91.9,71z"/>
				</g>
			</g>
			<g class="st1">
				<defs>
					<path id="SVGID_167_" class="st1" d="M38.1,59c-2.6,1.5-4.2,4.7-4.3,9.2C33.6,77.4,40,88.7,48,93.5c4.1,2.4,7.8,2.7,10.5,1.1
						c-4,2.2-7.9,0.8-9.2,0.4c-2.3-0.8-4.4-2.4-5.1-2.9c-1.9-1.4-3.5-3.3-4.1-4c-1.3-1.5-4.4-5.6-6.2-11.6c-0.5-1.8-1.7-6.6-0.5-11
						C34.6,61.1,37.1,59.6,38.1,59z"/>
				</defs>
				<clipPath id="SVGID_29_">
					<use xlink:href="#SVGID_167_"  style="overflow:visible;"/>
				</clipPath>
				<g class="st34">
					<path class="st4" d="M38.1,59c-12.4,7.7-1,33,12.8,36.5c4,1,6.6-0.3,7.5-0.8c-2.6,1.5-6.3,1.2-10.3-1.2
						c-8-4.8-14.4-16.1-14.3-25.3C33.8,63.6,35.5,60.5,38.1,59L38.1,59z"/>
					<path class="st4" d="M48,93.5c-1.9-1.1-3.7-2.6-5.3-4.4c-0.2-0.2-0.4-0.4-0.6-0.5c-1.8-1.8-3.8-4-5.4-8.4
						c-1.9-3.9-2.9-8.2-2.9-12c0.1-4.5,1.7-7.7,4.3-9.2c-0.1,0.1-0.3,0.2-0.5,0.3c-0.2,0.1-0.4,0.3-0.6,0.4L36.6,60
						c-0.2,0.2-0.4,0.4-0.5,0.5L35.6,61c-0.1,0.2-0.3,0.4-0.5,0.6l-0.4,0.5c-0.1,0.2-0.3,0.5-0.4,0.8L34,63.6
						c-0.1,0.3-0.3,0.7-0.4,1l-0.2,0.8c-0.1,0.4-0.2,1-0.3,1.4l-0.1,1c0,0.5-0.1,1.2-0.1,1.7l0,1.2c0,0.5,0.1,1.1,0.1,1.6l0.2,1.3
						c0.1,0.5,0.2,1.1,0.3,1.5l0.4,1.3c0.1,0.4,0.3,1,0.5,1.4l0.5,1.4c0.2,0.4,0.4,1,0.6,1.4l0.6,1.3c0.2,0.4,0.5,0.9,0.7,1.3
						l0.8,1.3c0.2,0.4,0.6,0.9,0.8,1.2l0.9,1.2c0.3,0.3,0.6,0.8,0.9,1.2L41,89c0.3,0.3,0.7,0.8,1,1.1l1,0.9c0.4,0.3,0.8,0.7,1.2,1
						l1,0.7c0.4,0.3,0.9,0.6,1.3,0.9l0.9,0.5c0.5,0.3,1.3,0.6,1.8,0.8l0.8,0.3c0.4,0.1,0.9,0.3,1.4,0.4l0.7,0.1
						c0.3,0,0.7,0.1,1.1,0.1l0.7,0c0.3,0,0.6,0,0.9,0l0.6-0.1c0.2,0,0.5-0.1,0.8-0.2l0.6-0.2c0.2-0.1,0.5-0.2,0.7-0.2l0.5-0.2
						c0.2-0.1,0.4-0.2,0.6-0.3C55.8,96.1,52.1,95.9,48,93.5L48,93.5z"/>
					<path class="st5" d="M50.6,94.7C39.5,93.2,32,75.4,33.9,71.3c-0.1-1.1-0.2-2.1-0.2-3.1c0.1-4.5,1.7-7.7,4.3-9.2
						c-0.1,0.1-0.3,0.2-0.5,0.3c-0.2,0.1-0.4,0.3-0.6,0.4L36.6,60c-0.2,0.2-0.4,0.4-0.5,0.5L35.6,61c-0.1,0.2-0.3,0.4-0.5,0.6
						l-0.4,0.5c-0.1,0.2-0.3,0.5-0.4,0.8L34,63.6c-0.1,0.3-0.3,0.7-0.4,1l-0.2,0.8c-0.1,0.4-0.2,1-0.3,1.4l-0.1,1
						c0,0.5-0.1,1.2-0.1,1.7l0,1.2c0,0.5,0.1,1.1,0.1,1.6l0.2,1.3c0.1,0.5,0.2,1.1,0.3,1.5l0.4,1.3c0.1,0.4,0.3,1,0.5,1.4l0.5,1.4
						c0.2,0.4,0.4,1,0.6,1.4l0.6,1.3c0.2,0.4,0.5,0.9,0.7,1.3l0.8,1.3c0.2,0.4,0.6,0.9,0.8,1.2l0.9,1.2c0.3,0.3,0.6,0.8,0.9,1.2
						L41,89c0.3,0.3,0.7,0.8,1,1.1l1,0.9c0.4,0.3,0.8,0.7,1.2,1l1,0.7c0.4,0.3,0.9,0.6,1.3,0.9l0.9,0.5c0.5,0.3,1.3,0.6,1.8,0.8
						l0.8,0.3c0.4,0.1,0.9,0.3,1.4,0.4l0.7,0.1c0.3,0,0.7,0.1,1.1,0.1l0.7,0c0.3,0,0.6,0,0.9,0l0.6-0.1c0.2,0,0.5-0.1,0.8-0.2
						l0.6-0.2c0.2-0.1,0.5-0.2,0.7-0.2l0.5-0.2c0.2-0.1,0.4-0.2,0.6-0.3C56.4,95.8,53.6,95.9,50.6,94.7L50.6,94.7z"/>
				</g>
			</g>
			<g class="st1">
				<defs>
					<path id="SVGID_169_" class="st1" d="M43.5,55.8c-2.6,1.5-4.2,4.7-4.3,9.2c-0.1,9.2,6.2,20.5,14.3,25.3
						c4.1,2.4,7.8,2.7,10.5,1.1l-5.5,3.1c-2.7,1.5-6.4,1.3-10.5-1.1c-8-4.8-14.4-16.1-14.3-25.3c0.1-4.5,1.7-7.7,4.3-9.2
						C39.7,58,41.9,56.8,43.5,55.8z"/>
				</defs>
				<clipPath id="SVGID_30_">
					<use xlink:href="#SVGID_169_"  style="overflow:visible;"/>
				</clipPath>
				<g class="st35">
					<path class="st5" d="M43.5,55.8L38.1,59c-2.6,1.5-4.2,4.7-4.3,9.2c0,1,0.1,2.1,0.2,3.1l5.5-3.1c-0.1-1.1-0.2-2.1-0.2-3.2
						C39.3,60.5,40.9,57.3,43.5,55.8L43.5,55.8z"/>
					<path class="st4" d="M39.4,68.2l-5.5,3.1c0.4,2.9,1.3,5.9,2.7,8.8l5.5-3.1C40.7,74.1,39.8,71.1,39.4,68.2L39.4,68.2z"/>
					<path class="st7" d="M42.1,77l-5.5,3.1c1.5,3.3,3.6,6.4,6,9l5.5-3.1C45.7,83.4,43.6,80.3,42.1,77L42.1,77z"/>
					<path class="st4" d="M48.1,86l-5.5,3.1c1.7,1.7,3.5,3.2,5.4,4.4c0.9,0.5,1.7,0.9,2.6,1.3l5.5-3.1c-0.8-0.3-1.7-0.7-2.6-1.3
						C51.6,89.2,49.8,87.7,48.1,86L48.1,86z"/>
					<path class="st5" d="M56,91.6l-5.5,3.1c3.1,1.2,5.8,1.1,7.9-0.1l5.5-3.1C61.8,92.7,59.1,92.8,56,91.6L56,91.6z"/>
				</g>
			</g>
			<g class="st1">
				<defs>
					<path id="SVGID_171_" class="st1" d="M32.9,69.4c0.1-6.2,2.9-9.1,5.2-10.4c2.7-1.5,6.4-1.3,10.5,1.1c-0.8,0.5-1.6,1.5-2,2.6
						c-3.7-2.2-7.1-2.4-9.6-1C34.6,63,33.1,65.9,33,70c-0.1,8.4,5.7,18.8,13,23.1c3.7,2.2,7.1,2.4,9.6,1c2.4-1.4,3.9-4.3,3.9-8.4
						c0.1-8.4-5.7-18.8-13-23.1c0.4-1.1,1.1-2.1,2-2.6c8,4.8,14.4,16.1,14.3,25.3c-0.1,4.5-1.7,7.7-4.3,9.2
						c-0.9,0.5-3.6,1.9-7.9,0.8c-3.7-1-6.7-3.4-8.6-5.3C36.4,84.6,32.7,76.2,32.9,69.4z"/>
				</defs>
				<clipPath id="SVGID_31_">
					<use xlink:href="#SVGID_171_"  style="overflow:visible;"/>
				</clipPath>
				<g class="st36">
					<path class="st4" d="M32.9,69.4c0.2-7.2,3.9-9.6,5.1-10.3c2.8-1.6,6.5-1.4,10.6,1.1c-0.8,0.5-1.6,1.5-2,2.6
						c-3.7-2.2-7.1-2.4-9.6-1C34.6,63,33.1,65.9,33,70c-0.1,8.4,5.7,18.8,13,23.1c3.7,2.2,7.1,2.4,9.6,1c2.4-1.4,3.9-4.3,3.9-8.4
						c0.1-8.4-5.7-18.8-13-23.1c0.4-1.1,1.1-2.1,2-2.6c8,4.8,14.4,16.1,14.3,25.3c-0.1,4.5-1.7,7.7-4.3,9.2
						C47.5,100.4,32.5,83.3,32.9,69.4L32.9,69.4z"/>
					<path class="st4" d="M48.5,60.1c8,4.8,14.4,16.1,14.3,25.3c-0.1,4.5-1.7,7.7-4.3,9.2c-0.1,0.1-0.3,0.2-0.5,0.3
						c-0.2,0.1-0.5,0.2-0.7,0.3l-0.5,0.2c-0.2,0.1-0.5,0.1-0.7,0.2l-0.6,0.1c-0.2,0-0.5,0.1-0.8,0.1l-0.6,0c-0.3,0-0.6,0-0.9,0
						l-0.7-0.1c-0.3,0-0.7-0.1-1.1-0.2l-0.8-0.2c-0.4-0.1-1-0.3-1.4-0.4l-0.9-0.4c-0.6-0.3-1.3-0.7-1.8-1l-1-0.6
						c-0.4-0.3-0.9-0.7-1.3-1l-1-0.8c-0.3-0.3-0.8-0.7-1.1-1l-1-1c-0.3-0.3-0.7-0.8-1-1.1l-0.9-1.1c-0.3-0.4-0.6-0.8-0.9-1.2
						l-0.8-1.2c-0.2-0.4-0.5-0.9-0.8-1.3L36,81.8c-0.2-0.4-0.5-0.9-0.6-1.3l-0.6-1.3c-0.2-0.4-0.4-1-0.5-1.4l-0.4-1.3
						c-0.1-0.4-0.3-1-0.4-1.4l-0.3-1.3c-0.1-0.5-0.2-1.1-0.2-1.5L32.9,71c0-0.5,0-1.1,0-1.6l0-1c0-0.5,0.1-1.1,0.2-1.6l0.2-0.8
						c0.1-0.4,0.3-0.9,0.4-1.3l0.3-0.7c0.1-0.3,0.3-0.7,0.4-1l0.3-0.6c0.1-0.2,0.3-0.5,0.5-0.7l0.4-0.5c0.2-0.2,0.4-0.4,0.5-0.6
						l0.4-0.4c0.2-0.1,0.4-0.3,0.6-0.5l0.5-0.3c0.2-0.1,0.4-0.3,0.6-0.4C40.7,57.4,44.5,57.7,48.5,60.1c-0.8,0.5-1.6,1.5-2,2.6
						c-3.7-2.2-7.1-2.4-9.6-1C34.6,63,33.1,65.9,33,70c-0.1,8.4,5.7,18.8,13,23.1c3.7,2.2,7.1,2.4,9.6,1c2.4-1.4,3.9-4.3,3.9-8.4
						c0.1-8.4-5.7-18.8-13-23.1C46.9,61.6,47.7,60.6,48.5,60.1L48.5,60.1z"/>
					<path class="st5" d="M48.5,60.1c8,4.8,14.4,16.1,14.3,25.3c-0.1,4.5-1.7,7.7-4.3,9.2c-0.1,0.1-0.3,0.2-0.5,0.3
						c-0.2,0.1-0.5,0.2-0.7,0.3l-0.5,0.2c-0.2,0.1-0.5,0.1-0.7,0.2l-0.6,0.1c-0.2,0-0.5,0.1-0.8,0.1l-0.6,0c-0.3,0-0.6,0-0.9,0
						l-0.7-0.1c-0.3,0-0.7-0.1-1.1-0.2l-0.8-0.2c-0.4-0.1-1-0.3-1.4-0.4l-0.9-0.4c-0.6-0.3-1.3-0.7-1.8-1l-1-0.6
						c-0.4-0.3-0.9-0.7-1.3-1l-1-0.8c-0.3-0.3-0.8-0.7-1.1-1l-1-1c-0.3-0.3-0.7-0.8-1-1.1l-0.9-1.1c-0.3-0.4-0.6-0.8-0.9-1.2
						l-0.8-1.2c-0.2-0.4-0.5-0.9-0.8-1.3L36,81.8c-0.2-0.4-0.5-0.9-0.6-1.3l-0.6-1.3c-0.2-0.4-0.4-1-0.5-1.4l-0.4-1.3
						c-0.1-0.4-0.3-1-0.4-1.4l-0.3-1.3c-0.1-0.5-0.2-1.1-0.2-1.5L32.9,71c0-0.5,0-1.1,0-1.6l0-1c0-0.5,0.1-1.1,0.2-1.6l0.2-0.8
						c0.1-0.4,0.3-0.9,0.4-1.3l0.3-0.7c0.1-0.3,0.3-0.7,0.4-1l0.3-0.6c0.1-0.2,0.3-0.5,0.5-0.7l0.4-0.5c0.2-0.2,0.4-0.4,0.5-0.6
						l0.4-0.4c0.2-0.1,0.4-0.3,0.6-0.5l0.5-0.3c0.2-0.1,0.4-0.3,0.6-0.4C40.7,57.4,44.5,57.7,48.5,60.1c-0.8,0.5-1.6,1.5-2,2.6
						c-3.7-2.2-7.1-2.4-9.6-1C34.6,63,33.1,65.9,33,70c-0.1,8.4,5.7,18.8,13,23.1c3.7,2.2,7.1,2.4,9.6,1c2.4-1.4,3.9-4.3,3.9-8.4
						c0.1-8.4-5.7-18.8-13-23.1C46.9,61.6,47.7,60.6,48.5,60.1L48.5,60.1z"/>
				</g>
			</g>
			<g class="st1">
				<defs>
					<path id="SVGID_173_" class="st1" d="M35.9,64.3c-0.9,0.6-1.5,1.3-2,2.5c-0.2,0.6-0.6,1.8-0.7,3.9c-0.1,3,0.7,6.3,2.3,9.9
						c1,2.3,2.9,5.7,6.2,9c1.1,1.1,3.9,3.7,7.3,4.5c1,0.3,2.5,0.4,3.8-0.3c0.8-0.5,1.9-0.3,2.8,0.4c-2.5,1.4-5.8,1.2-9.6-1
						C38.8,88.8,32.9,78.4,33,70c0.1-4.1,1.6-7,3.9-8.4C37.2,62.8,36.7,63.8,35.9,64.3z"/>
				</defs>
				<clipPath id="SVGID_32_">
					<use xlink:href="#SVGID_173_"  style="overflow:visible;"/>
				</clipPath>
				<g class="st37">
					<path class="st4" d="M35.9,64.3C29,68.5,36.8,91.1,49,94.1c2.2,0.5,3.4-0.1,3.8-0.3c0.9-0.5,2-0.3,2.9,0.4
						c-2.5,1.4-5.8,1.2-9.6-1C38.8,88.8,32.9,78.4,33,70c0.1-4.1,1.6-7,3.9-8.4C37.2,62.8,36.7,63.8,35.9,64.3L35.9,64.3z"/>
					<path class="st4" d="M55.7,94.2c-2.5,1.4-5.8,1.2-9.6-1C38.8,88.8,32.9,78.4,33,70c0.1-4.1,1.6-7,3.9-8.4
						c0.2,1.1-0.2,2.2-1.1,2.7c-0.1,0-0.1,0.1-0.2,0.1l-0.2,0.1l-0.2,0.2c-0.1,0.1-0.2,0.1-0.2,0.2l-0.2,0.2
						c-0.1,0.1-0.2,0.2-0.2,0.3l-0.2,0.3c-0.1,0.1-0.2,0.3-0.2,0.4l-0.2,0.4c-0.1,0.2-0.2,0.4-0.2,0.6l-0.2,0.5
						c-0.1,0.3-0.2,0.6-0.2,0.9l-0.1,0.7c-0.1,1-0.1,1-0.1,1.6l0,1c0,0.4,0.1,1,0.1,1.4l0.2,1.1c0.1,0.4,0.2,0.9,0.3,1.4l0.3,1.2
						c0.1,0.4,0.3,0.9,0.4,1.3l0.5,1.3c0.2,0.4,0.4,0.9,0.5,1.3l0.6,1.3c0.2,0.4,0.5,0.9,0.7,1.2l0.7,1.2c0.2,0.4,0.5,0.8,0.8,1.2
						l0.8,1.1c0.3,0.3,0.6,0.8,0.9,1.1l0.9,1c0.3,0.3,0.7,0.7,1,1l0.9,0.8c0.3,0.3,0.7,0.6,1,0.9l0.8,0.6c0.3,0.2,0.8,0.5,1.1,0.7
						l0.7,0.4c0.9,0.5,1,0.5,1.5,0.7l0.6,0.2c0.3,0.1,0.6,0.2,0.9,0.2l0.4,0.1c0.2,0,0.4,0,0.6,0.1l0.3,0c0.1,0,0.3,0,0.5,0l0.3,0
						c0.1,0,0.3,0,0.4-0.1l0.2-0.1c0.1,0,0.2-0.1,0.3-0.1l0.2-0.1c0.1,0,0.2-0.1,0.2-0.1C53.7,93.3,54.8,93.4,55.7,94.2L55.7,94.2z"
						/>
					<path class="st5" d="M55.7,94.2c-2.5,1.4-5.8,1.2-9.6-1C38.8,88.8,32.9,78.4,33,70c0.1-4.1,1.6-7,3.9-8.4
						c0.2,1.1-0.2,2.2-1.1,2.7c-0.1,0-0.1,0.1-0.2,0.1l-0.2,0.1l-0.2,0.2c-0.1,0.1-0.2,0.1-0.2,0.2l-0.2,0.2
						c-0.1,0.1-0.2,0.2-0.2,0.3l-0.2,0.3c-0.1,0.1-0.2,0.3-0.2,0.4l-0.2,0.4c-0.1,0.2-0.2,0.4-0.2,0.6l-0.2,0.5
						c-0.1,0.3-0.2,0.6-0.2,0.9l-0.1,0.7c-0.1,1-0.1,1-0.1,1.6l0,1c0,0.4,0.1,1,0.1,1.4l0.2,1.1c0.1,0.4,0.2,0.9,0.3,1.4l0.3,1.2
						c0.1,0.4,0.3,0.9,0.4,1.3l0.5,1.3c0.2,0.4,0.4,0.9,0.5,1.3l0.6,1.3c0.2,0.4,0.5,0.9,0.7,1.2l0.7,1.2c0.2,0.4,0.5,0.8,0.8,1.2
						l0.8,1.1c0.3,0.3,0.6,0.8,0.9,1.1l0.9,1c0.3,0.3,0.7,0.7,1,1l0.9,0.8c0.3,0.3,0.7,0.6,1,0.9l0.8,0.6c0.3,0.2,0.8,0.5,1.1,0.7
						l0.7,0.4c0.9,0.5,1,0.5,1.5,0.7l0.6,0.2c0.3,0.1,0.6,0.2,0.9,0.2l0.4,0.1c0.2,0,0.4,0,0.6,0.1l0.3,0c0.1,0,0.3,0,0.5,0l0.3,0
						c0.1,0,0.3,0,0.4-0.1l0.2-0.1c0.1,0,0.2-0.1,0.3-0.1l0.2-0.1c0.1,0,0.2-0.1,0.2-0.1C53.7,93.3,54.8,93.4,55.7,94.2L55.7,94.2z"
						/>
				</g>
			</g>
			<g class="st1">
				<defs>
					<path id="SVGID_175_" class="st1" d="M33.2,70.7c-0.1,5.3,2.6,12.1,6.8,17.1c3.3,3.9,6.1,5.2,7.2,5.7c0.4,0.2,1.7,0.7,3.2,0.8
						c1.3,0.1,2.1-0.4,2.4-0.5c-2.2,1.3-5.3,1.1-8.7-0.9c-6.6-3.9-11.9-13.3-11.8-20.9c0.1-3.7,1.4-6.4,3.6-7.6
						c-0.3,0.2-1.3,0.8-1.9,2.3C33.5,67.8,33.3,69,33.2,70.7z"/>
				</defs>
				<clipPath id="SVGID_33_">
					<use xlink:href="#SVGID_175_"  style="overflow:visible;"/>
				</clipPath>
				<g class="st38">
					<path class="st4" d="M33.2,70.7c0.1-3.2,1-5.3,2.7-6.4c-2.2,1.2-3.5,3.9-3.6,7.6c-0.1,7.6,5.2,17,11.8,20.9
						c3.4,2,6.4,2.2,8.7,0.9C46.3,97.2,32.9,83.3,33.2,70.7L33.2,70.7z"/>
					<path class="st4" d="M52.4,94c-0.3,0.1-0.3,0.1-0.5,0.2l-0.3,0.1c-0.1,0-0.3,0-0.4,0.1l-0.3,0c-0.1,0-0.3,0-0.5,0l-0.4,0
						c-0.2,0-0.4-0.1-0.6-0.1L48.8,94c-0.3-0.1-0.6-0.2-0.9-0.3l-0.7-0.3c-0.9-0.4-1-0.5-1.5-0.8l-0.9-0.5c-0.3-0.2-0.8-0.6-1.1-0.8
						l-0.9-0.7c-0.3-0.3-0.7-0.7-1-0.9l-0.9-0.9c-0.3-0.3-0.7-0.7-0.9-1l-0.8-1.1c-0.2-0.3-0.6-0.8-0.8-1.1l-0.8-1.2
						c-0.2-0.4-0.5-0.8-0.7-1.2l-0.7-1.2c-0.2-0.4-0.4-0.9-0.6-1.3L35,79.3c-0.1-0.4-0.3-0.9-0.5-1.3l-0.4-1.2
						c-0.1-0.4-0.3-0.9-0.3-1.3l-0.2-1.2c-0.1-0.4-0.2-0.9-0.2-1.3l-0.1-1c0-0.4,0-0.9,0-1.3l0-0.8c0.1-1,0.1-1,0.2-1.5l0.1-0.6
						c0.1-0.3,0.2-0.6,0.3-0.8l0.2-0.4c0.1-0.2,0.2-0.4,0.3-0.5l0.2-0.3c0.1-0.1,0.2-0.3,0.2-0.4l0.2-0.2c0.1-0.1,0.2-0.2,0.2-0.3
						l0.2-0.2c0.1-0.1,0.2-0.1,0.2-0.2l0.2-0.1l0.2-0.1c-2.2,1.2-3.5,3.9-3.6,7.6c0,3.2,0.8,6.7,2.4,9.9c0.1,0.2,0.3,0.5,0.5,0.7
						c1.5,2.2,3.1,4.4,4.5,6.7c1.4,1.4,2.9,2.7,4.4,3.6c3.4,2,6.4,2.2,8.7,0.9c-0.1,0-0.1,0.1-0.2,0.1C52.5,93.9,52.4,94,52.4,94
						L52.4,94z"/>
					<path class="st5" d="M52.4,94c-0.3,0.1-0.3,0.1-0.5,0.2l-0.3,0.1c-0.1,0-0.3,0-0.4,0.1l-0.3,0c-0.1,0-0.3,0-0.5,0l-0.4,0
						c-0.2,0-0.4-0.1-0.6-0.1L48.8,94c-0.3-0.1-0.6-0.2-0.9-0.3l-0.7-0.3c-0.9-0.4-1-0.5-1.5-0.8l-0.9-0.5c-0.3-0.2-0.8-0.6-1.1-0.8
						l-0.9-0.7c-0.3-0.3-0.7-0.7-1-0.9l-0.9-0.9c-0.3-0.3-0.7-0.7-0.9-1l-0.8-1.1c-0.2-0.3-0.6-0.8-0.8-1.1l-0.8-1.2
						c-0.2-0.4-0.5-0.8-0.7-1.2l-0.7-1.2c-0.2-0.4-0.4-0.9-0.6-1.3L35,79.3c-0.1-0.4-0.3-0.9-0.5-1.3l-0.4-1.2
						c-0.1-0.4-0.3-0.9-0.3-1.3l-0.2-1.2c-0.1-0.4-0.2-0.9-0.2-1.3l-0.1-1c0-0.4,0-0.9,0-1.3l0-0.8c0.1-1,0.1-1,0.2-1.5l0.1-0.6
						c0.1-0.3,0.2-0.6,0.3-0.8l0.2-0.4c0.1-0.2,0.2-0.4,0.3-0.5l0.2-0.3c0.1-0.1,0.2-0.3,0.2-0.4l0.2-0.2c0.1-0.1,0.2-0.2,0.2-0.3
						l0.2-0.2c0.1-0.1,0.2-0.1,0.2-0.2l0.2-0.1l0.2-0.1c-2.2,1.2-3.5,3.9-3.6,7.6c0,0.8,0,1.7,0.2,2.6v0c0.4,0.1,0.6,0.2,1.3,2.3
						c0.6,1.5,1.7,4.7,3.8,7.8c1.3,2,3.5,5,7.3,7.8c0.5,0.4,1.1,0.8,1.3,1c0.1,0.2,0.2,0.2,0.1,0.4c2.5,1,4.8,0.9,6.5-0.1
						c-0.1,0-0.1,0.1-0.2,0.1C52.5,93.9,52.4,94,52.4,94L52.4,94z"/>
				</g>
			</g>
			<g class="st1">
				<defs>
					<path id="SVGID_177_" class="st1" d="M35.9,64.3c-2.2,1.2-3.5,3.9-3.6,7.6c-0.1,7.6,5.2,17,11.8,20.9c3.4,2,6.4,2.2,8.7,0.9
						l-1.4,0.8c-2.2,1.3-5.3,1.1-8.7-0.9C36.2,89.7,30.9,80.3,31,72.7c0.1-3.7,1.4-6.4,3.6-7.6C35,64.8,35.5,64.5,35.9,64.3z"/>
				</defs>
				<clipPath id="SVGID_34_">
					<use xlink:href="#SVGID_177_"  style="overflow:visible;"/>
				</clipPath>
				<g class="st39">
					<path class="st5" d="M35.9,64.3l-1.4,0.8c-2.2,1.2-3.5,3.9-3.6,7.6c0,0.9,0,1.7,0.2,2.6l1.4-0.8c-0.1-0.9-0.2-1.8-0.2-2.6
						C32.4,68.1,33.8,65.5,35.9,64.3L35.9,64.3z"/>
					<path class="st4" d="M32.5,74.5l-1.4,0.8c0.3,2.4,1.1,4.9,2.2,7.3l1.4-0.8C33.6,79.4,32.8,76.9,32.5,74.5L32.5,74.5z"/>
					<path class="st7" d="M34.7,81.8l-1.4,0.8c1.3,2.7,3,5.3,5,7.4l1.4-0.8C37.7,87.1,36,84.5,34.7,81.8L34.7,81.8z"/>
					<path class="st4" d="M39.7,89.2L38.4,90c1.4,1.4,2.9,2.7,4.4,3.6c0.7,0.4,1.4,0.8,2.1,1l1.4-0.8c-0.7-0.3-1.4-0.6-2.1-1
						C42.6,91.9,41.1,90.7,39.7,89.2L39.7,89.2z"/>
					<path class="st5" d="M46.3,93.9l-1.4,0.8c2.5,1,4.8,0.9,6.5-0.1l1.4-0.8C51.1,94.8,48.8,94.9,46.3,93.9L46.3,93.9z"/>
				</g>
			</g>
			<g class="st1">
				<defs>
					<path id="SVGID_179_" class="st1" d="M34.6,65.1c-2.2,1.2-3.5,3.9-3.6,7.6c-0.1,7.6,5.2,17,11.8,20.9c3.4,2,6.4,2.2,8.7,0.9
						c-0.8,0.5-1.2,1.5-1.1,2.6c-2.4,1.4-5.8,1.2-9.5-1c-7.3-4.3-13.1-14.6-13-23c0.1-4.1,1.5-7,3.9-8.4
						C32.7,65.4,33.7,65.5,34.6,65.1z"/>
				</defs>
				<clipPath id="SVGID_35_">
					<use xlink:href="#SVGID_179_"  style="overflow:visible;"/>
				</clipPath>
				<g class="st40">
					<path class="st4" d="M34.6,65.1c-0.8,0.5-1.9,0.3-2.8-0.4c-2.4,1.4-3.8,4.2-3.9,8.4c-0.1,8.4,5.7,18.7,13,23
						c3.7,2.2,7.1,2.4,9.5,1c-0.1-1.1,0.3-2.1,1.1-2.6c-2.2,1.3-5.3,1.1-8.7-0.9C36.2,89.7,30.9,80.3,31,72.7
						C31,68.9,32.4,66.3,34.6,65.1L34.6,65.1z"/>
					<path class="st4" d="M51.5,94.5c-2.2,1.3-5.3,1.1-8.7-0.9c-1.6-0.9-3.1-2.2-4.4-3.6c0.1,0.1,0.2,0.3,0.3,0.5
						c0.2,0.4,0.4,0.9,0.2,1c-1.7,1.4-8-7.7-7.1-10.3c0-0.1,0.1-0.2,0.1-0.2c0.3-0.2,0.9,0.8,1.5,1.6c-1.5-3.3-2.4-6.7-2.4-9.9
						c0.1-3.7,1.4-6.4,3.6-7.6c-0.8,0.5-1.9,0.3-2.8-0.4c-2.4,1.4-3.8,4.2-3.9,8.4c-0.1,8.4,5.7,18.7,13,23c3.7,2.2,7.1,2.4,9.5,1
						C50.2,96,50.7,95,51.5,94.5L51.5,94.5z"/>
					<path class="st5" d="M51.5,94.5c-1.7,1-4,1.1-6.5,0.1c0,0-0.1,0.1-0.1,0.1c-4.2,2.9-16.4-9.7-14.7-17.9c0.1-0.6,0.4-1.4,1-1.5
						C31,74.4,31,73.5,31,72.7c0.1-3.7,1.4-6.4,3.6-7.6c-0.8,0.5-1.9,0.3-2.8-0.4c-2.4,1.4-3.8,4.2-3.9,8.4c-0.1,8.4,5.7,18.7,13,23
						c3.7,2.2,7.1,2.4,9.5,1C50.2,96,50.7,95,51.5,94.5L51.5,94.5z"/>
					<path class="st7" d="M36.5,88.9c0.1-0.4-2.8-4.8-3.2-4.9c-0.1,0-0.1,0-0.2,0.1c-0.3,0.7,2.5,5,3.2,4.9
						C36.4,89,36.5,89,36.5,88.9L36.5,88.9z"/>
				</g>
			</g>
			<g class="st1">
				<defs>
					<path id="SVGID_181_" class="st1" d="M43.5,55.8l35.9-20.6c2.7-1.5,6.4-1.3,10.5,1.1L54,57C49.9,54.6,46.2,54.3,43.5,55.8z"/>
				</defs>
				<clipPath id="SVGID_36_">
					<use xlink:href="#SVGID_181_"  style="overflow:visible;"/>
				</clipPath>
				<g class="st41">
					<path class="st4" d="M89.9,36.4L54,57c-0.9-0.5-1.7-0.9-2.6-1.3l35.9-20.6C88.1,35.5,89,35.9,89.9,36.4L89.9,36.4z"/>
					<path class="st5" d="M87.3,35.1L51.4,55.7c-3.1-1.2-5.8-1.1-7.9,0.1l35.9-20.6C81.5,34.1,84.2,34,87.3,35.1L87.3,35.1z"/>
				</g>
			</g>
			<g class="st1">
				<defs>
					<path id="SVGID_183_" class="st1" d="M28.2,64.3c-2.6,1.5-4.3,4.7-4.4,9.3c-0.1,9.3,6.3,20.8,14.5,25.7
						c4.1,2.5,7.9,2.7,10.6,1.2l-3.8,2.2c-2.7,1.6-6.5,1.3-10.6-1.2C26.5,96.6,20,85.1,20.1,75.7c0.1-4.6,1.7-7.8,4.4-9.3
						C25.6,65.8,27.1,64.9,28.2,64.3z"/>
				</defs>
				<clipPath id="SVGID_37_">
					<use xlink:href="#SVGID_183_"  style="overflow:visible;"/>
				</clipPath>
				<g class="st42">
					<path class="st5" d="M28.2,64.3l-3.8,2.2c-2.6,1.5-4.3,4.7-4.4,9.3c0,1,0.1,2.1,0.2,3.2l3.8-2.2c-0.1-1.1-0.2-2.2-0.2-3.2
						C24,69,25.6,65.8,28.2,64.3L28.2,64.3z"/>
					<path class="st4" d="M24.1,76.8l-3.8,2.2c0.4,3,1.3,6,2.7,8.9l3.8-2.2C25.4,82.8,24.5,79.7,24.1,76.8L24.1,76.8z"/>
					<path class="st7" d="M26.8,85.7L23,87.9c1.6,3.3,3.7,6.5,6.1,9.1l3.8-2.2C30.5,92.2,28.4,89.1,26.8,85.7L26.8,85.7z"/>
					<path class="st4" d="M32.9,94.8L29.2,97c1.7,1.8,3.5,3.3,5.4,4.4c0.9,0.5,1.8,1,2.6,1.3l3.8-2.2c-0.8-0.3-1.7-0.8-2.6-1.3
						C36.4,98.1,34.6,96.6,32.9,94.8L32.9,94.8z"/>
					<path class="st5" d="M41,100.5l-3.8,2.2c3.1,1.2,5.9,1.1,8-0.1l3.8-2.2C46.8,101.6,44.1,101.7,41,100.5L41,100.5z"/>
				</g>
			</g>
			<g class="st1">
				<defs>
					<path id="SVGID_185_" class="st1" d="M24.5,66.4c-2.6,1.5-4.3,4.7-4.4,9.3c-0.1,9.3,6.3,20.8,14.5,25.7
						c4.1,2.5,7.9,2.7,10.6,1.2c-0.8,0.4-2.6,1.4-5.2,1.8c-2.7,0.4-4.6,0-5.7-0.2c-1.2-0.2-5.6-1.3-9.9-5.5
						c-2.2-2.2-5.2-5.9-6.9-11.6c-1.2-4-1.2-8.3-0.1-11.8c0.8-2.6,2-4.3,2.5-4.9c0.9-1.1,1.4-1.6,2.1-2.2
						C22.9,67.4,23.3,67.1,24.5,66.4z"/>
				</defs>
				<clipPath id="SVGID_38_">
					<use xlink:href="#SVGID_185_"  style="overflow:visible;"/>
				</clipPath>
				<g class="st43">
					<path class="st4" d="M24.5,66.4c-15.3,9.6-6,34.6,9.8,37.8c5.1,1,8.7-0.4,10.9-1.6c-2.7,1.6-6.5,1.3-10.6-1.2
						C26.5,96.6,20,85.1,20.1,75.7C20.2,71.1,21.8,67.9,24.5,66.4L24.5,66.4z"/>
					<path class="st4" d="M34.6,101.4c-1.9-1.1-3.8-2.7-5.4-4.4c-0.1,0-0.2,0-0.2-0.1c-5-2.5-5.9-6.7-5.9-9c-1.9-4-3-8.3-2.9-12.1
						c0.1-4.6,1.7-7.8,4.4-9.3c-0.3,0.2-0.7,0.4-1,0.6c-0.4,0.3-1,0.8-1.4,1.1L21.2,69c-0.4,0.4-0.9,1-1.2,1.4l-0.7,1
						c-0.3,0.5-0.7,1.2-1,1.7l-0.5,1.1c-0.2,0.7-0.5,1.6-0.7,2.2l-0.3,1.2c-0.2,1.6-0.2,1.7-0.3,3l0,1.3c0,0.5,0.1,1.1,0.1,1.5
						l0.2,1.2c0.1,0.4,0.2,0.9,0.3,1.3l0.3,1.2c0.1,0.4,0.3,0.9,0.4,1.2l0.4,1.1c0.1,0.3,0.3,0.8,0.5,1.1l0.5,1.1
						c0.2,0.3,0.4,0.8,0.6,1.1l0.6,1c0.2,0.3,0.5,0.7,0.7,1l0.7,1c0.2,0.3,0.5,0.7,0.8,1l0.8,0.9c0.3,0.3,0.6,0.7,0.9,0.9l0.9,0.8
						c0.3,0.3,0.7,0.6,1.1,0.9l1,0.8c0.4,0.2,0.9,0.6,1.3,0.8l1.1,0.6c0.5,0.2,1.1,0.5,1.5,0.7l1.2,0.4c0.5,0.2,1.3,0.4,1.8,0.5
						l1.2,0.2c0.7,0.1,1.5,0.1,2.2,0.1l1.2,0c1.5-0.2,1.6-0.2,2.5-0.4l1.1-0.3c1.4-0.5,1.6-0.6,2.8-1.2
						C42.5,104.1,38.7,103.9,34.6,101.4L34.6,101.4z"/>
					<path class="st5" d="M37.2,102.7c-1.2,0-2.4,0.6-3.6,0.5c-1.8-0.2-3.5-1-4.1-1.2c-1.2-0.6-4.4-2.3-7.3-6.2
						c-4.4-5.9-5.5-13-2.5-16.3c0.1-0.2,0.4-0.4,0.5-0.5c-0.1-1.1-0.2-2.2-0.2-3.2c0.1-4.6,1.7-7.8,4.4-9.3c-0.3,0.2-0.7,0.4-1,0.6
						c-0.4,0.3-1,0.8-1.4,1.1L21.2,69c-0.4,0.4-0.9,1-1.2,1.4l-0.7,1c-0.3,0.5-0.7,1.2-1,1.7l-0.5,1.1c-0.2,0.7-0.5,1.6-0.7,2.2
						l-0.3,1.2c-0.2,1.6-0.2,1.7-0.3,3l0,1.3c0,0.5,0.1,1.1,0.1,1.5l0.2,1.2c0.1,0.4,0.2,0.9,0.3,1.3l0.3,1.2
						c0.1,0.4,0.3,0.9,0.4,1.2l0.4,1.1c0.1,0.3,0.3,0.8,0.5,1.1l0.5,1.1c0.2,0.3,0.4,0.8,0.6,1.1l0.6,1c0.2,0.3,0.5,0.7,0.7,1l0.7,1
						c0.2,0.3,0.5,0.7,0.8,1l0.8,0.9c0.3,0.3,0.6,0.7,0.9,0.9l0.9,0.8c0.3,0.3,0.7,0.6,1.1,0.9l1,0.8c0.4,0.2,0.9,0.6,1.3,0.8
						l1.1,0.6c0.5,0.2,1.1,0.5,1.5,0.7l1.2,0.4c0.5,0.2,1.3,0.4,1.8,0.5l1.2,0.2c0.7,0.1,1.5,0.1,2.2,0.1l1.2,0
						c1.5-0.2,1.6-0.2,2.5-0.4l1.1-0.3c1.4-0.5,1.6-0.6,2.8-1.2C43.1,103.8,40.3,103.9,37.2,102.7L37.2,102.7z"/>
				</g>
			</g>
			<g class="st1">
				<defs>
					<path id="SVGID_187_" class="st1" d="M38.1,59l5.5-3.1c2.7-1.5,6.4-1.3,10.5,1.1l-5.5,3.1C44.5,57.7,40.7,57.4,38.1,59z"/>
				</defs>
				<clipPath id="SVGID_39_">
					<use xlink:href="#SVGID_187_"  style="overflow:visible;"/>
				</clipPath>
				<g class="st44">
					<path class="st4" d="M54,57l-5.5,3.1c-0.9-0.5-1.7-0.9-2.6-1.3l5.5-3.1C52.3,56,53.1,56.5,54,57L54,57z"/>
					<path class="st5" d="M51.4,55.7L46,58.8c-3.1-1.2-5.8-1.1-7.9,0.1l5.5-3.1C45.6,54.6,48.4,54.5,51.4,55.7L51.4,55.7z"/>
				</g>
			</g>
			<g class="st1">
				<defs>
					<path id="SVGID_189_" class="st1" d="M35.9,64.3c0.8-0.5,1.3-1.5,1.1-2.7c2.5-1.4,5.8-1.2,9.6,1c-0.4,1.1-1.1,2.1-2,2.6
						C41.2,63.2,38.1,63,35.9,64.3z"/>
				</defs>
				<clipPath id="SVGID_40_">
					<use xlink:href="#SVGID_189_"  style="overflow:visible;"/>
				</clipPath>
				<g class="st45">
					<path class="st4" d="M35.9,64.3c0.8-0.5,1.3-1.5,1.1-2.7c2.5-1.4,5.8-1.2,9.6,1c-0.4,1.1-1.1,2.1-2,2.6
						C41.2,63.2,38.1,63,35.9,64.3L35.9,64.3z"/>
					<path class="st4" d="M37,61.6c2.5-1.4,5.8-1.2,9.6,1c-0.4,1.1-1.1,2.1-2,2.6c-3.4-2-6.4-2.2-8.7-0.9
						C36.7,63.8,37.2,62.8,37,61.6L37,61.6z"/>
					<path class="st5" d="M37,61.6c2.5-1.4,5.8-1.2,9.6,1c-0.2,0.5-0.4,1-0.7,1.4c-0.8-0.3-2.3-0.6-3.3,0l-0.1,0.1l0,0
						c-2.5-1-4.8-0.9-6.5,0.1C36.7,63.8,37.2,62.8,37,61.6L37,61.6z"/>
				</g>
			</g>
			<g class="st1">
				<defs>
					<path id="SVGID_191_" class="st1" d="M99.8,70.9L64,91.5c2.6-1.5,4.2-4.7,4.3-9.2C68.4,73.1,62,61.7,54,57l35.9-20.6
						c8,4.8,14.4,16.1,14.3,25.3C104,66.2,102.4,69.4,99.8,70.9z"/>
				</defs>
				<clipPath id="SVGID_41_">
					<use xlink:href="#SVGID_191_"  style="overflow:visible;"/>
				</clipPath>
				<g class="st46">
					<path class="st5" d="M99.8,70.9L64,91.5c2.6-1.5,4.2-4.7,4.3-9.2c0-1,0-2.1-0.2-3.2l35.9-20.6c0.1,1.1,0.2,2.1,0.2,3.2
						C104,66.2,102.4,69.4,99.8,70.9L99.8,70.9z"/>
					<path class="st4" d="M103.9,58.6L68.1,79.1c-0.4-2.9-1.3-5.9-2.7-8.8l35.9-20.6C102.6,52.6,103.5,55.6,103.9,58.6L103.9,58.6z"
						/>
					<path class="st7" d="M101.3,49.7L65.4,70.3c-1.5-3.3-3.6-6.4-6-9l35.9-20.6C97.6,43.3,99.7,46.4,101.3,49.7L101.3,49.7z"/>
					<path class="st4" d="M95.2,40.8L59.3,61.3c-1.7-1.7-3.5-3.2-5.4-4.4l35.9-20.6C91.8,37.5,93.6,39,95.2,40.8L95.2,40.8z"/>
				</g>
			</g>
			<g class="st1">
				<defs>
					<path id="SVGID_193_" class="st1" d="M34.6,65.1l1.4-0.8c2.2-1.3,5.3-1.1,8.7,0.9L43.2,66C39.8,64,36.8,63.8,34.6,65.1z"/>
				</defs>
				<clipPath id="SVGID_42_">
					<use xlink:href="#SVGID_193_"  style="overflow:visible;"/>
				</clipPath>
				<g class="st47">
					<path class="st4" d="M44.6,65.2L43.2,66c-0.7-0.4-1.4-0.8-2.1-1l1.4-0.8C43.1,64.4,43.9,64.8,44.6,65.2L44.6,65.2z"/>
					<path class="st5" d="M42.5,64.2L41.1,65c-2.5-1-4.8-0.9-6.5,0.1l1.4-0.8C37.7,63.3,39.9,63.2,42.5,64.2L42.5,64.2z"/>
				</g>
			</g>
			<g class="st1">
				<defs>
					<path id="SVGID_195_" class="st1" d="M41.7,66.1c-1.3-0.8-2.4-1.3-4.2-1.6c-0.5-0.1-1.8-0.2-3,0.5c2.2-1.3,5.3-1.1,8.7,0.9
						C42.6,66.3,42.1,66.4,41.7,66.1z"/>
				</defs>
				<clipPath id="SVGID_43_">
					<use xlink:href="#SVGID_195_"  style="overflow:visible;"/>
				</clipPath>
				<g class="st48">
					<path class="st4" d="M41.7,66.1c-1.1-0.6-4.5-2.5-7.2-1.1c2.2-1.3,5.3-1.1,8.7,0.9C42.6,66.3,42.1,66.4,41.7,66.1L41.7,66.1z"
						/>
					<path class="st4" d="M43.2,66c-0.6,0.3-1.1,0.4-1.5,0.1c-0.2-0.1-0.5-0.3-0.7-0.4c-0.9-0.4-1-0.5-1.7-0.7l-0.5-0.2
						c-0.2-0.1-0.6-0.1-0.8-0.2l-0.4-0.1c-0.2,0-0.4,0-0.6,0l-0.3,0c-0.1,0-0.3,0-0.4,0l-0.3,0c-0.1,0-0.2,0-0.3,0.1l-0.2,0.1
						c-0.1,0-0.2,0.1-0.3,0.1l-0.2,0.1c-0.1,0-0.2,0.1-0.3,0.1C36.8,63.8,39.8,64,43.2,66L43.2,66z"/>
					<path class="st5" d="M41.1,65c0,0,0,0.1,0,0.1c0,0.1,0,0.2,0.2,0.4c0.1,0.1,0.1,0.1,1,0.8c-0.2,0-0.4,0-0.6-0.1
						c-0.2-0.1-0.5-0.3-0.7-0.4c-0.9-0.4-1-0.5-1.7-0.7l-0.5-0.2c-0.2-0.1-0.6-0.1-0.8-0.2l-0.4-0.1c-0.2,0-0.4,0-0.6,0l-0.3,0
						c-0.1,0-0.3,0-0.4,0l-0.3,0c-0.1,0-0.2,0-0.3,0.1l-0.2,0.1c-0.1,0-0.2,0.1-0.3,0.1l-0.2,0.1c-0.1,0-0.2,0.1-0.3,0.1
						C36.3,64.1,38.6,64,41.1,65L41.1,65z"/>
				</g>
			</g>
			<g class="st1">
				<defs>
					<path id="SVGID_197_" class="st1" d="M34.6,65.1c-0.8,0.5-1.9,0.3-2.8-0.4c2.4-1.4,5.8-1.2,9.5,1c0.1,0.2,0.2,0.3,0.4,0.4
						C38.7,64.4,36.3,64.1,34.6,65.1z"/>
				</defs>
				<clipPath id="SVGID_44_">
					<use xlink:href="#SVGID_197_"  style="overflow:visible;"/>
				</clipPath>
				<g class="st49">
					<path class="st4" d="M34.6,65.1c1.8-1,4.2-0.6,7.2,1.1c-0.2-0.1-0.3-0.2-0.4-0.4c-3.7-2.2-7.1-2.4-9.5-1
						C32.7,65.4,33.7,65.5,34.6,65.1L34.6,65.1z"/>
					<path class="st4" d="M34.6,65.1c0.1-0.1,0.2-0.1,0.5-0.2l0.2-0.1c0.1,0,0.2-0.1,0.3-0.1l0.3-0.1c0.1,0,0.3,0,0.4-0.1l0.3,0
						c0.1,0,0.3,0,0.4,0l0.4,0c0.2,0,0.4,0.1,0.6,0.1l0.5,0.1c0.3,0.1,0.6,0.2,0.8,0.2l0.7,0.3c0.8,0.4,1,0.4,1.8,0.9
						c-0.2-0.1-0.3-0.2-0.4-0.4c-3.7-2.2-7.1-2.4-9.5-1C32.7,65.4,33.7,65.5,34.6,65.1L34.6,65.1z"/>
					<path class="st5" d="M34.6,65.1c0.1-0.1,0.2-0.1,0.5-0.2l0.2-0.1c0.1,0,0.2-0.1,0.3-0.1l0.3-0.1c0.1,0,0.3,0,0.4-0.1l0.3,0
						c0.1,0,0.3,0,0.4,0l0.4,0c0.2,0,0.4,0.1,0.6,0.1l0.5,0.1c0.3,0.1,0.6,0.2,0.8,0.2l0.7,0.3c0.8,0.4,1,0.4,1.8,0.9
						c-0.2-0.1-0.3-0.2-0.4-0.4c-3.7-2.2-7.1-2.4-9.5-1C32.7,65.4,33.7,65.5,34.6,65.1L34.6,65.1z"/>
				</g>
			</g>
			<g class="st1">
				<defs>
					<path id="SVGID_199_" class="st1" d="M64,91.5l-5.5,3.1c2.6-1.5,4.2-4.7,4.3-9.2c0.1-9.2-6.2-20.5-14.3-25.3L54,57
						c8,4.8,14.4,16.1,14.3,25.3C68.2,86.8,66.6,90,64,91.5z"/>
				</defs>
				<clipPath id="SVGID_45_">
					<use xlink:href="#SVGID_199_"  style="overflow:visible;"/>
				</clipPath>
				<g class="st50">
					<path class="st5" d="M64,91.5l-5.5,3.1c2.6-1.5,4.2-4.7,4.3-9.2c0-1-0.1-2.1-0.2-3.2l5.5-3.1c0.1,1.1,0.2,2.1,0.2,3.2
						C68.2,86.8,66.6,90,64,91.5L64,91.5z"/>
					<path class="st4" d="M68.1,79.1l-5.5,3.1c-0.4-2.9-1.3-5.9-2.7-8.8l5.5-3.1C66.7,73.2,67.7,76.2,68.1,79.1L68.1,79.1z"/>
					<path class="st7" d="M65.4,70.3l-5.5,3.1c-1.5-3.3-3.6-6.4-6-9l5.5-3.1C61.8,63.9,63.9,67,65.4,70.3L65.4,70.3z"/>
					<path class="st4" d="M59.3,61.3l-5.5,3.1c-1.7-1.7-3.5-3.2-5.4-4.4L54,57C55.9,58.1,57.7,59.6,59.3,61.3L59.3,61.3z"/>
				</g>
			</g>
			<g class="st1">
				<defs>
					<path id="SVGID_201_" class="st1" d="M55.7,94.2c-0.9-0.7-2-0.9-2.8-0.4c2.2-1.2,3.5-3.9,3.6-7.6c0.1-7.6-5.2-17-11.8-20.9
						c0.8-0.5,1.6-1.5,2-2.6c7.3,4.4,13.2,14.7,13,23.1C59.5,89.9,58,92.8,55.7,94.2z"/>
				</defs>
				<clipPath id="SVGID_46_">
					<use xlink:href="#SVGID_201_"  style="overflow:visible;"/>
				</clipPath>
				<g class="st51">
					<path class="st4" d="M55.7,94.2c-0.9-0.7-2-0.9-2.8-0.4c2.2-1.2,3.5-3.9,3.6-7.6c0.1-7.6-5.2-17-11.8-20.9
						c0.8-0.5,1.6-1.5,2-2.6c7.3,4.4,13.2,14.7,13,23.1C59.5,89.9,58,92.8,55.7,94.2L55.7,94.2z"/>
					<path class="st4" d="M46.6,62.7c7.3,4.4,13.2,14.7,13,23.1c-0.1,4.1-1.6,7-3.9,8.4c-0.9-0.7-2-0.9-2.8-0.4
						c2.2-1.2,3.5-3.9,3.6-7.6c0-3.2-0.8-6.7-2.4-9.9c0.1,0.2,0.3,0.4,0.4,0.6c0.7,0.9,0.9,1.1,1.1,1c1.2-0.3-1.7-7.6-5.8-10.1
						c-0.2-0.1-1.1-0.7-1.3-0.2c-0.1,0.2,0.2,0.6,0.6,1.4c-1.4-1.4-2.9-2.7-4.4-3.6C45.4,64.7,46.2,63.7,46.6,62.7L46.6,62.7z"/>
					<path class="st5" d="M46.6,62.7c7.3,4.4,13.2,14.7,13,23.1c-0.1,4.1-1.6,7-3.9,8.4c-0.9-0.7-2-0.9-2.8-0.4
						c2.2-1.2,3.5-3.9,3.6-7.6c0-0.8,0-1.7-0.2-2.6c2.6-0.4,0.8-12.2-7.5-18c-0.7-0.5-0.9-0.7-2.2-1.2l-0.7-0.3l-0.1,0
						C46.1,63.6,46.4,63.2,46.6,62.7L46.6,62.7z"/>
					<path class="st7" d="M51.1,69.8c0.5,0,2.1,2.4,2.2,2.4c0.1,0.1,1.2,2.1,1,2.5c0,0.1-0.1,0.1-0.2,0.1c-0.4,0-3.3-4.5-3.2-4.9
						C50.9,69.9,51,69.8,51.1,69.8L51.1,69.8z"/>
				</g>
			</g>
			<g class="st1">
				<defs>
					<path id="SVGID_203_" class="st1" d="M52.8,93.8l-1.4,0.8c2.2-1.2,3.5-3.9,3.6-7.6c0.1-7.6-5.2-17-11.8-20.9l1.4-0.8
						c6.6,3.9,11.9,13.3,11.8,20.9C56.3,89.9,55,92.5,52.8,93.8z"/>
				</defs>
				<clipPath id="SVGID_47_">
					<use xlink:href="#SVGID_203_"  style="overflow:visible;"/>
				</clipPath>
				<g class="st52">
					<path class="st5" d="M52.8,93.8l-1.4,0.8c2.2-1.2,3.5-3.9,3.6-7.6c0-0.9,0-1.7-0.2-2.6l1.4-0.8c0.1,0.9,0.2,1.8,0.2,2.6
						C56.3,89.9,55,92.5,52.8,93.8L52.8,93.8z"/>
					<path class="st4" d="M56.2,83.6l-1.4,0.8c-0.3-2.4-1.1-4.9-2.2-7.3l1.4-0.8C55.1,78.6,55.9,81.1,56.2,83.6L56.2,83.6z"/>
					<path class="st7" d="M54,76.3L52.7,77c-1.3-2.7-3-5.3-5-7.4l1.4-0.8C51,71,52.7,73.5,54,76.3L54,76.3z"/>
					<path class="st4" d="M49,68.8l-1.4,0.8c-1.4-1.4-2.9-2.7-4.4-3.6l1.4-0.8C46.1,66.2,47.6,67.4,49,68.8L49,68.8z"/>
				</g>
			</g>
			<g class="st1">
				<defs>
					<path id="SVGID_205_" class="st1" d="M51.5,94.5c0.8-0.5,1.4-1.1,1.9-2.2c0.6-1.2,0.7-2.6,0.8-3.3c0.1-0.8,0.2-3.9-1.3-8.3
						c-1.7-4.8-5.5-11.2-11.1-14.7c0.4,0.2,0.9,0.2,1.5-0.1c6.6,3.9,11.9,13.3,11.8,20.9C55,90.7,53.6,93.3,51.5,94.5z"/>
				</defs>
				<clipPath id="SVGID_48_">
					<use xlink:href="#SVGID_205_"  style="overflow:visible;"/>
				</clipPath>
				<g class="st53">
					<path class="st4" d="M51.5,94.5c6.2-3.8,1.3-21.7-9.8-28.4c0.4,0.2,0.9,0.2,1.5-0.1c6.6,3.9,11.9,13.3,11.8,20.9
						C55,90.7,53.6,93.3,51.5,94.5L51.5,94.5z"/>
					<path class="st4" d="M43.2,66c1.6,0.9,3.1,2.2,4.4,3.6l0,0c1.6,2.5,3.4,4.9,5,7.4c1.5,3.3,2.4,6.7,2.4,9.9
						c-0.1,3.7-1.4,6.4-3.6,7.6c0.1,0,0.1-0.1,0.2-0.1c0.1-0.1,0.2-0.1,0.2-0.2l0.2-0.2c0.1-0.1,0.2-0.2,0.2-0.2l0.2-0.2
						c0.1-0.1,0.2-0.2,0.2-0.3l0.2-0.3c0.1-0.1,0.2-0.3,0.2-0.4l0.2-0.4c0.1-0.2,0.2-0.4,0.2-0.6l0.2-0.5c0.1-0.3,0.2-0.6,0.2-0.8
						l0.1-0.7c0.1-1,0.1-1,0.1-1.6l0-1c0-0.4-0.1-1-0.1-1.4l-0.2-1.1c-0.1-0.4-0.2-1-0.3-1.4l-0.3-1.2c-0.1-0.4-0.3-0.9-0.4-1.3
						l-0.5-1.3c-0.2-0.4-0.4-0.9-0.5-1.3L51.2,77c-0.2-0.4-0.5-0.9-0.7-1.2l-0.7-1.2c-0.2-0.4-0.5-0.8-0.8-1.2l-0.8-1.1
						c-0.3-0.3-0.6-0.8-0.9-1.1l-0.9-1c-0.3-0.3-0.7-0.7-1-1l-0.9-0.8c-0.3-0.3-0.7-0.6-1-0.9l-0.8-0.6c-0.3-0.2-0.8-0.5-1.1-0.7
						C42.1,66.4,42.6,66.3,43.2,66L43.2,66z"/>
					<path class="st5" d="M42.3,66.3c0.1,0,6.9,3.9,11.3,15.8c0.7,1.8,0.9,2,1.1,2.1l0.1,0.1l0,0c0.1,0.9,0.2,1.8,0.2,2.6
						c-0.1,3.7-1.4,6.4-3.6,7.6c0.1,0,0.1-0.1,0.2-0.1c0.1-0.1,0.2-0.1,0.2-0.2l0.2-0.2c0.1-0.1,0.2-0.2,0.2-0.2l0.2-0.2
						c0.1-0.1,0.2-0.2,0.2-0.3l0.2-0.3c0.1-0.1,0.2-0.3,0.2-0.4l0.2-0.4c0.1-0.2,0.2-0.4,0.2-0.6l0.2-0.5c0.1-0.3,0.2-0.6,0.2-0.8
						l0.1-0.7c0.1-1,0.1-1,0.1-1.6l0-1c0-0.4-0.1-1-0.1-1.4l-0.2-1.1c-0.1-0.4-0.2-1-0.3-1.4l-0.3-1.2c-0.1-0.4-0.3-0.9-0.4-1.3
						l-0.5-1.3c-0.2-0.4-0.4-0.9-0.5-1.3L51.2,77c-0.2-0.4-0.5-0.9-0.7-1.2l-0.7-1.2c-0.2-0.4-0.5-0.8-0.8-1.2l-0.8-1.1
						c-0.3-0.3-0.6-0.8-0.9-1.1l-0.9-1c-0.3-0.3-0.7-0.7-1-1l-0.9-0.8c-0.3-0.3-0.7-0.6-1-0.9l-0.8-0.6c-0.3-0.2-0.8-0.5-1.1-0.7
						C41.9,66.2,42.1,66.3,42.3,66.3L42.3,66.3z"/>
				</g>
			</g>
			<g class="st1">
				<defs>
					<path id="SVGID_207_" class="st1" d="M54.1,88.2c0.1-3.7-1.3-8.3-3.6-12.4c-1.2-2.1-2.5-4-4.1-5.6c-2.1-2.3-3.7-3.3-4.8-4
						c-0.2-0.1-0.3-0.2-0.4-0.4c7.3,4.3,13.1,14.6,13,23c-0.1,4.1-1.5,7-3.9,8.4c-0.1-1.1,0.3-2.1,1.1-2.6
						C52.6,93.9,54.1,92.2,54.1,88.2z"/>
				</defs>
				<clipPath id="SVGID_49_">
					<use xlink:href="#SVGID_207_"  style="overflow:visible;"/>
				</clipPath>
				<g class="st54">
					<path class="st4" d="M54.1,88.2c-0.1,3.1-1,5.3-2.6,6.3c-0.9,0.5-1.3,1.5-1.1,2.6c2.4-1.4,3.8-4.2,3.9-8.4
						c0.1-8.4-5.7-18.7-13-23c0.1,0.2,0.2,0.3,0.4,0.4C50.5,71.7,54.3,82.4,54.1,88.2L54.1,88.2z"/>
					<path class="st4" d="M41.7,66.1L41.7,66.1c1.1,0.7,1.2,0.7,2,1.4l0.9,0.7c0.3,0.3,0.7,0.7,1,0.9l0.9,0.9
						c0.3,0.3,0.7,0.7,0.9,1.1l0.8,1.1c0.2,0.3,0.6,0.8,0.8,1.1l0.8,1.2c0.2,0.4,0.5,0.8,0.7,1.2l0.7,1.2c0.2,0.4,0.4,0.9,0.6,1.3
						l0.5,1.3c0.1,0.4,0.3,0.9,0.5,1.3l0.4,1.2c0.1,0.4,0.3,0.9,0.3,1.3l0.2,1.1c0.1,0.4,0.2,0.9,0.2,1.3l0.1,1c0,0.4,0,0.9,0,1.3
						l0,0.8c-0.1,1-0.1,1-0.2,1.5L53.8,91c-0.1,0.2-0.2,0.6-0.2,0.8l-0.2,0.4c-0.1,0.2-0.2,0.4-0.2,0.5L53,93
						c-0.1,0.1-0.2,0.3-0.2,0.4l-0.2,0.2c-0.1,0.1-0.2,0.2-0.2,0.3L52.2,94c-0.1,0.1-0.2,0.1-0.2,0.2l-0.2,0.1
						c-0.1,0-0.2,0.1-0.3,0.2c-0.8,0.5-1.2,1.5-1.1,2.6c2.4-1.4,3.8-4.2,3.9-8.4c0.1-8.4-5.7-18.7-13-23
						C41.4,65.9,41.5,66,41.7,66.1L41.7,66.1z"/>
					<path class="st5" d="M41.7,66.1L41.7,66.1c1.1,0.7,1.2,0.7,2,1.4l0.9,0.7c0.3,0.3,0.7,0.7,1,0.9l0.9,0.9
						c0.3,0.3,0.7,0.7,0.9,1.1l0.8,1.1c0.2,0.3,0.6,0.8,0.8,1.1l0.8,1.2c0.2,0.4,0.5,0.8,0.7,1.2l0.7,1.2c0.2,0.4,0.4,0.9,0.6,1.3
						l0.5,1.3c0.1,0.4,0.3,0.9,0.5,1.3l0.4,1.2c0.1,0.4,0.3,0.9,0.3,1.3l0.2,1.1c0.1,0.4,0.2,0.9,0.2,1.3l0.1,1c0,0.4,0,0.9,0,1.3
						l0,0.8c-0.1,1-0.1,1-0.2,1.5L53.8,91c-0.1,0.2-0.2,0.6-0.2,0.8l-0.2,0.4c-0.1,0.2-0.2,0.4-0.2,0.5L53,93
						c-0.1,0.1-0.2,0.3-0.2,0.4l-0.2,0.2c-0.1,0.1-0.2,0.2-0.2,0.3L52.2,94c-0.1,0.1-0.2,0.1-0.2,0.2l-0.2,0.1
						c-0.1,0-0.2,0.1-0.3,0.2c-0.8,0.5-1.2,1.5-1.1,2.6c2.4-1.4,3.8-4.2,3.9-8.4c0.1-8.4-5.7-18.7-13-23
						C41.4,65.9,41.5,66,41.7,66.1L41.7,66.1z"/>
				</g>
			</g>
			<g class="st1">
				<defs>
					<path id="SVGID_209_" class="st1" d="M40.8,65.2c0.2,0.1,0.4,0.3,0.5,0.5c-3.7-2.2-7.1-2.4-9.5-1c-2.4,1.4-3.8,4.2-3.9,8.4
						c-0.1,8.4,5.7,18.7,13,23c3.7,2.2,7.1,2.4,9.5,1c2.4-1.4,3.8-4.2,3.9-8.4c0.1-8.4-5.7-18.7-13-23C41.2,65.5,41,65.3,40.8,65.2
						c4.1,2.5,6.7,5.8,8.2,8c1,1.5,3.6,5.5,4.8,10.6c1.1,4.9,0.5,8.4,0,10c-1.3,4.3-3.9,6-4.9,6.6c-2.7,1.6-6.5,1.3-10.6-1.2
						c-8.1-4.8-14.6-16.3-14.5-25.7c0.1-4.6,1.7-7.8,4.4-9.3c1.4-0.8,3.2-1.5,6.1-1.3C37.3,63.2,40,64.7,40.8,65.2z"/>
				</defs>
				<clipPath id="SVGID_50_">
					<use xlink:href="#SVGID_209_"  style="overflow:visible;"/>
				</clipPath>
				<g class="st55">
					<path class="st4" d="M40.8,65.2c-1.9-1.1-7.1-4-12.6-1c-2.6,1.5-4.3,4.7-4.4,9.3c-0.1,9.3,6.3,20.8,14.5,25.7
						c4.1,2.5,7.9,2.7,10.6,1.2C59.9,93.7,53.3,72.8,40.8,65.2c0.2,0.1,0.4,0.3,0.5,0.5c7.3,4.3,13.1,14.6,13,23
						c-0.1,4.1-1.5,7-3.9,8.4c-2.4,1.4-5.8,1.2-9.5-1c-7.3-4.3-13.1-14.6-13-23c0.1-4.1,1.5-7,3.9-8.4c2.4-1.4,5.8-1.2,9.5,1
						C41.2,65.5,41,65.3,40.8,65.2L40.8,65.2z"/>
					<path class="st4" d="M41.3,65.7c7.3,4.3,13.1,14.6,13,23c-0.1,4.1-1.5,7-3.9,8.4c-2.4,1.4-5.8,1.2-9.5-1
						c-7.3-4.3-13.1-14.6-13-23c0.1-4.1,1.5-7,3.9-8.4C34.2,63.3,37.6,63.5,41.3,65.7c-0.1-0.2-0.3-0.4-0.5-0.5
						c-0.3-0.2-0.7-0.4-0.9-0.5c-1.3-0.6-1.3-0.6-1.9-0.9l-0.8-0.3c-0.4-0.1-0.9-0.3-1.3-0.4l-0.7-0.1C34.8,63,34.3,63,34,63l-0.7,0
						c-0.3,0-0.6,0-0.9,0L31.8,63c-0.2,0-0.6,0.1-0.8,0.1l-0.6,0.1c-0.2,0.1-0.5,0.2-0.7,0.2l-0.5,0.2c-0.3,0.1-0.6,0.3-0.9,0.4
						c-2.6,1.5-4.3,4.7-4.4,9.3c-0.1,3.9,1,8.2,2.9,12.2c-0.1-0.2-0.2-0.6-0.2-0.8c-0.3-1.6,0-1.9,0-1.9c0.1,0,0.2-0.1,0.2-0.1
						c0.2,0,8.8,12.1,8.3,12.7c-0.4,0.4-1.5-0.4-2.1-0.8c1.7,1.8,3.5,3.3,5.4,4.4c4.1,2.5,7.9,2.7,10.6,1.2c0.2-0.1,0.4-0.2,0.5-0.3
						c0.2-0.1,0.5-0.3,0.7-0.5l0.5-0.4c0.2-0.2,0.4-0.4,0.5-0.5l0.4-0.5c0.2-0.2,0.4-0.4,0.5-0.6l0.4-0.5c0.1-0.2,0.3-0.5,0.5-0.8
						l0.3-0.7c0.1-0.3,0.3-0.7,0.4-1l0.3-0.8c0.1-0.4,0.2-0.9,0.3-1.3l0.2-1c0.1-0.6,0.1-1.4,0.1-2l0-1.2c0-0.5-0.1-1.2-0.1-1.7
						l-0.2-1.3c-0.1-0.5-0.2-1.1-0.3-1.5l-0.3-1.3c-0.1-0.4-0.3-1-0.5-1.4l-0.5-1.3c-0.2-0.4-0.4-1-0.6-1.4L51.3,77
						c-0.2-0.4-0.5-0.9-0.7-1.3l-0.8-1.3c-0.2-0.4-0.6-0.9-0.8-1.2L48.2,72c-0.3-0.3-0.6-0.8-0.9-1.2l-0.9-1.1
						c-0.3-0.3-0.7-0.8-1-1.1l-1-0.9c-0.4-0.3-0.8-0.7-1.2-1l-1-0.7c-0.4-0.3-1-0.6-1.4-0.9C41,65.3,41.2,65.5,41.3,65.7L41.3,65.7z
						"/>
					<path class="st5" d="M41.3,65.7c7.3,4.3,13.1,14.6,13,23c-0.1,4.1-1.5,7-3.9,8.4c-2.4,1.4-5.8,1.2-9.5-1
						c-7.3-4.3-13.1-14.6-13-23c0.1-4.1,1.5-7,3.9-8.4C34.2,63.3,37.6,63.5,41.3,65.7c-0.1-0.2-0.3-0.4-0.5-0.5
						c-0.3-0.2-0.7-0.4-0.9-0.5c-1.3-0.6-1.3-0.6-1.9-0.9l-0.8-0.3c-0.4-0.1-0.9-0.3-1.3-0.4l-0.7-0.1C34.8,63,34.3,63,34,63l-0.7,0
						c-0.3,0-0.6,0-0.9,0L31.8,63c-0.2,0-0.6,0.1-0.8,0.1l-0.6,0.1c-0.2,0.1-0.5,0.2-0.7,0.2l-0.5,0.2c-0.3,0.1-0.6,0.3-0.9,0.4
						c-2.6,1.5-4.3,4.7-4.4,9.3c0,1,0.1,2.1,0.2,3.2c0,0,0.1-0.1,0.2-0.1c0.2-0.1,0.7-0.4,1.5,0.6c2.8,3.8,4.2,8.3,6.9,12.2
						c2.4,3.5,6,6,8.4,9.5c0.2,0.3,0.6,0.8,0.4,1.2c-0.1,0.3-0.4,0.4-0.5,0.4c3.1,1.2,5.9,1.1,8-0.1c0.2-0.1,0.4-0.2,0.5-0.3
						c0.2-0.1,0.5-0.3,0.7-0.5l0.5-0.4c0.2-0.2,0.4-0.4,0.5-0.5l0.4-0.5c0.2-0.2,0.4-0.4,0.5-0.6l0.4-0.5c0.1-0.2,0.3-0.5,0.5-0.8
						l0.3-0.7c0.1-0.3,0.3-0.7,0.4-1l0.3-0.8c0.1-0.4,0.2-0.9,0.3-1.3l0.2-1c0.1-0.6,0.1-1.4,0.1-2l0-1.2c0-0.5-0.1-1.2-0.1-1.7
						l-0.2-1.3c-0.1-0.5-0.2-1.1-0.3-1.5l-0.3-1.3c-0.1-0.4-0.3-1-0.5-1.4l-0.5-1.3c-0.2-0.4-0.4-1-0.6-1.4L51.3,77
						c-0.2-0.4-0.5-0.9-0.7-1.3l-0.8-1.3c-0.2-0.4-0.6-0.9-0.8-1.2L48.2,72c-0.3-0.3-0.6-0.8-0.9-1.2l-0.9-1.1
						c-0.3-0.3-0.7-0.8-1-1.1l-1-0.9c-0.4-0.3-0.8-0.7-1.2-1l-1-0.7c-0.4-0.3-1-0.6-1.4-0.9C41,65.3,41.2,65.5,41.3,65.7L41.3,65.7z
						"/>
					<path class="st7" d="M32.2,91.8c-0.3-0.8-3.3-5.3-3.7-5.3c-0.1,0-0.2,0.1-0.2,0.1c-0.2,0.4,1.2,3,1.2,3c0,0,1.9,2.8,2.6,2.9
						c0.1,0,0.2,0,0.2-0.1C32.4,92.3,32.2,92,32.2,91.8L32.2,91.8z"/>
				</g>
			</g>
			<g class="st1">
				<defs>
					<path id="SVGID_211_" class="st1" d="M28.2,64.3c0.7-0.4,2.8-1.5,5.8-1.3c0.9,0.1,3.5,0.3,6.8,2.3c-0.5-0.3-1.2-0.2-2,0.2
						C34.7,63,31,62.7,28.2,64.3z"/>
				</defs>
				<clipPath id="SVGID_51_">
					<use xlink:href="#SVGID_211_"  style="overflow:visible;"/>
				</clipPath>
				<g class="st56">
					<path class="st4" d="M28.2,64.3c4.9-2.6,9.5-0.7,12.5,0.9c-0.5-0.3-1.2-0.2-1.9,0.2C34.7,63,31,62.7,28.2,64.3L28.2,64.3z"/>
					<path class="st4" d="M29.7,63.6c0.7-0.2,0.8-0.3,1.3-0.4l0.6-0.1c0.2,0,0.6-0.1,0.8-0.1l0.7,0c0.3,0,0.6,0,0.9,0l0.7,0.1
						c0.3,0,0.8,0.1,1.1,0.2l0.8,0.2c0.4,0.1,1,0.3,1.4,0.4l0.9,0.4c1.2,0.6,1.3,0.6,1.9,1c-0.5-0.3-1.2-0.2-2,0.2
						c-4.1-2.5-7.9-2.7-10.6-1.2c0.2-0.1,0.4-0.2,0.5-0.3C29,63.9,29.4,63.7,29.7,63.6L29.7,63.6z"/>
					<path class="st5" d="M29.7,63.6c0.7-0.2,0.8-0.3,1.3-0.4l0.6-0.1c0.2,0,0.6-0.1,0.8-0.1l0.7,0c0.3,0,0.6,0,0.9,0l0.7,0.1
						c0.3,0,0.8,0.1,1.1,0.2l0.8,0.2c0.4,0.1,1,0.3,1.4,0.4l0.9,0.4c1.2,0.6,1.3,0.6,1.9,1c-0.2-0.1-0.5-0.2-0.7-0.2
						c-0.9-0.4-2.2-1-3.5-1l-0.3,0l0,0c-3.1-1.2-5.9-1.1-8,0.1c0.2-0.1,0.4-0.2,0.5-0.3C29,63.9,29.4,63.7,29.7,63.6L29.7,63.6z"/>
				</g>
			</g>
			<g class="st1">
				<defs>
					<path id="SVGID_213_" class="st1" d="M24.5,66.4l3.8-2.2c2.7-1.6,6.5-1.3,10.6,1.2l-3.8,2.2C31,65.1,27.2,64.9,24.5,66.4z"/>
				</defs>
				<clipPath id="SVGID_52_">
					<use xlink:href="#SVGID_213_"  style="overflow:visible;"/>
				</clipPath>
				<g class="st57">
					<path class="st4" d="M38.9,65.4l-3.8,2.2c-0.9-0.5-1.8-1-2.6-1.3l3.8-2.2C37.1,64.5,38,64.9,38.9,65.4L38.9,65.4z"/>
					<path class="st5" d="M36.3,64.1l-3.8,2.2c-3.1-1.2-5.9-1.1-8,0.1l3.8-2.2C30.4,63,33.2,62.9,36.3,64.1L36.3,64.1z"/>
				</g>
			</g>
			<g>
				<path class="st2" d="M26.6,82c3.5,2.1,6.3,7,6.2,11.1c-0.1,4-3,5.6-6.5,3.5c-3.5-2.1-6.3-7-6.2-11.1
					C20.2,81.5,23.1,79.9,26.6,82z"/>
			</g>
			<g class="st1">
				<defs>
					<path id="SVGID_215_" class="st1" d="M54.5,89.5c-0.1,2.5-0.5,4.7-1.4,6.5c-1.3,2.6-2.9,3.8-4.1,4.4c2.6-1.5,4.3-4.7,4.4-9.3
						c0.1-9.3-6.3-20.8-14.5-25.7c0.8-0.4,1.4-0.5,2-0.2c1.4,0.9,3.1,2,5.5,4.5c1.6,1.7,3.1,3.8,4.3,6
						C53.2,80.2,54.6,85.3,54.5,89.5z"/>
				</defs>
				<clipPath id="SVGID_53_">
					<use xlink:href="#SVGID_215_"  style="overflow:visible;"/>
				</clipPath>
				<g class="st58">
					<path class="st4" d="M54.5,89.5c-0.1,6.4-3.1,9.5-5.5,10.9c2.6-1.5,4.3-4.7,4.4-9.3c0.1-9.3-6.3-20.8-14.5-25.7
						c0.8-0.4,1.4-0.5,2-0.2C51.1,71.7,54.6,83.3,54.5,89.5L54.5,89.5z"/>
					<path class="st4" d="M40.8,65.2c0.7,0.4,1.2,0.8,2.4,1.6l1,0.8c0.3,0.3,0.8,0.7,1.1,1.1l1,1c0.3,0.3,0.7,0.8,1,1.1l0.9,1.1
						c0.3,0.4,0.6,0.8,0.9,1.2l0.8,1.2c0.2,0.4,0.5,0.9,0.8,1.3l0.7,1.3c0.2,0.4,0.5,0.9,0.6,1.3l0.6,1.3c0.2,0.4,0.4,1,0.5,1.4
						l0.4,1.3c0.1,0.4,0.3,1,0.4,1.4l0.3,1.3c0.1,0.5,0.2,1.1,0.2,1.5l0.1,1.2c0,0.5,0,1.1,0,1.6l0,1c-0.1,0.6-0.2,1.4-0.2,2
						L54,93.3c-0.1,0.4-0.3,0.9-0.4,1.3l-0.3,0.7c-0.1,0.3-0.3,0.7-0.4,0.9l-0.3,0.6c-0.1,0.2-0.3,0.5-0.5,0.7l-0.4,0.5
						c-0.2,0.2-0.4,0.4-0.5,0.6l-0.4,0.4c-0.2,0.2-0.4,0.4-0.6,0.5l-0.5,0.4c-0.2,0.1-0.5,0.3-0.7,0.4c2.6-1.5,4.3-4.7,4.4-9.3
						c0.1-3.9-1-8.2-2.9-12.2c-0.1-0.3-0.3-0.7-0.4-1c-1.2-3.1-3.3-6.1-5.8-8c-1.7-1.8-3.5-3.3-5.4-4.4C39.6,65,40.3,64.9,40.8,65.2
						L40.8,65.2z"/>
					<path class="st5" d="M40.8,65.2c0.7,0.4,1.2,0.8,2.4,1.6l1,0.8c0.3,0.3,0.8,0.7,1.1,1.1l1,1c0.3,0.3,0.7,0.8,1,1.1l0.9,1.1
						c0.3,0.4,0.6,0.8,0.9,1.2l0.8,1.2c0.2,0.4,0.5,0.9,0.8,1.3l0.7,1.3c0.2,0.4,0.5,0.9,0.6,1.3l0.6,1.3c0.2,0.4,0.4,1,0.5,1.4
						l0.4,1.3c0.1,0.4,0.3,1,0.4,1.4l0.3,1.3c0.1,0.5,0.2,1.1,0.2,1.5l0.1,1.2c0,0.5,0,1.1,0,1.6l0,1c-0.1,0.6-0.2,1.4-0.2,2
						L54,93.3c-0.1,0.4-0.3,0.9-0.4,1.3l-0.3,0.7c-0.1,0.3-0.3,0.7-0.4,0.9l-0.3,0.6c-0.1,0.2-0.3,0.5-0.5,0.7l-0.4,0.5
						c-0.2,0.2-0.4,0.4-0.5,0.6l-0.4,0.4c-0.2,0.2-0.4,0.4-0.6,0.5l-0.5,0.4c-0.2,0.1-0.5,0.3-0.7,0.4c2.6-1.5,4.3-4.7,4.4-9.3
						c0-1-0.1-2.1-0.2-3.2c0-0.1,0.1-0.2,0.1-0.2C55,83.3,49.9,70.2,40.1,65C40.4,65,40.6,65.1,40.8,65.2L40.8,65.2z"/>
				</g>
			</g>
			<g class="st1">
				<defs>
					<path id="SVGID_217_" class="st1" d="M16.7,80.5c0.1-4.1,1.2-6.6,2.3-8.5c0.9-1.7,2.2-2.9,2.7-3.4c0.5-0.5,1.4-1.3,2.9-2.2
						c2.7-1.6,6.5-1.3,10.6,1.2c-4.6,2.7-8.4,9.1-8.5,14.4c-3.5-2.1-6.4-0.5-6.5,3.5c-0.1,4,2.7,9,6.2,11.1c3.5,2.1,6.4,0.5,6.5-3.5
						c0.1-4-2.7-9-6.2-11.1c0.1-5.3,3.9-11.8,8.5-14.4c8.1,4.8,14.6,16.3,14.5,25.7c-0.1,4.6-1.7,7.8-4.4,9.3l0,0
						c-0.4,0.1-0.7,0.4-1.1,0.6c-0.6,0.3-1.5,0.7-2.2,0.8c-1.4,0.4-1.9,0.4-3,0.5c-1,0.1-2.8,0.1-4.7-0.3c-4.8-1-8.3-3.9-9.9-5.5
						c-0.9-1-1.9-2-3.2-3.8c-1.5-2.2-2.4-4.2-2.4-4.2c-0.4-1-1.2-2.8-1.6-4.7C17.1,85.1,16.6,82.9,16.7,80.5z"/>
				</defs>
				<clipPath id="SVGID_54_">
					<use xlink:href="#SVGID_217_"  style="overflow:visible;"/>
				</clipPath>
				<g class="st59">
					<path class="st4" d="M16.7,80.5c0.2-7.9,4.4-12,7.8-14.1c2.7-1.6,6.5-1.3,10.6,1.2c-4.6,2.7-8.4,9.1-8.5,14.4
						c-3.5-2.1-6.4-0.5-6.5,3.5c-0.1,4,2.7,9,6.2,11.1c3.5,2.1,6.4,0.5,6.5-3.5c0.1-4-2.7-9-6.2-11.1c0.1-5.3,3.9-11.8,8.5-14.4
						c8.1,4.8,14.6,16.3,14.5,25.7c-0.1,4.6-1.7,7.8-4.4,9.3C30.5,110.2,16.3,94,16.7,80.5L16.7,80.5z"/>
					<path class="st4" d="M35.1,67.6c1.9,1.1,3.8,2.7,5.4,4.4c-0.4-0.1-0.8-0.2-1.2-0.3c-6.5,0-2,7.9,1.3,11.3
						c2.7,2.7,5.8,2.6,6-1.9c1.9,4,3,8.3,2.9,12.1c-0.1,4.6-1.7,7.8-4.4,9.3l0,0c-1.3,0.7-2,1.1-3.9,1.6l-1.2,0.2
						c-1.5,0.2-1.6,0.2-2.5,0.2l-1.2,0c-0.7-0.1-1.5-0.2-2.2-0.3l-1.2-0.3c-0.5-0.2-1.3-0.4-1.8-0.6l-1.1-0.5
						c-0.5-0.2-1.1-0.6-1.5-0.8l-1.1-0.7c-0.4-0.3-0.9-0.6-1.2-0.9l-1-0.8c-0.3-0.3-0.7-0.6-1-0.9l-0.9-0.9c-0.3-0.3-0.6-0.7-0.8-1
						l-0.8-1c-0.2-0.3-0.5-0.7-0.7-1l-0.7-1c-0.2-0.3-0.4-0.7-0.6-1l-0.6-1.1c-0.2-0.3-0.4-0.8-0.5-1.1l-0.5-1.1
						c-0.1-0.3-0.3-0.8-0.4-1.2l-0.4-1.2c-0.1-0.4-0.2-0.9-0.3-1.2L17,84.7c-0.1-0.4-0.2-1-0.2-1.4l-0.1-1.3c0-0.5,0-1.1,0-1.5
						l0.1-1.3c0.2-1.6,0.2-1.8,0.5-2.9l0.3-1.2c0.2-0.7,0.6-1.5,0.9-2.2l0.6-1c0.3-0.5,0.7-1.2,1.1-1.6l0.7-0.9
						c0.4-0.4,0.9-0.9,1.3-1.3l0.9-0.7c0.4-0.3,1-0.7,1.5-1C27.2,64.9,31,65.1,35.1,67.6c-4.6,2.7-8.4,9.1-8.5,14.4
						c-3.5-2.1-6.4-0.5-6.5,3.5c-0.1,4,2.7,9,6.2,11.1c3.5,2.1,6.4,0.5,6.5-3.5c0.1-4-2.7-9-6.2-11.1C26.7,76.7,30.5,70.2,35.1,67.6
						L35.1,67.6z"/>
					<path class="st5" d="M30.2,72.1c0.1,0.2,10.2,22.4,18.6,18.3c0.2-0.1,0.4-0.3,0.6-0.4c0.1,1.1,0.2,2.2,0.2,3.2
						c-0.1,4.6-1.7,7.8-4.4,9.3l0,0c-1.3,0.7-2,1.1-3.9,1.6l-1.2,0.2c-1.5,0.2-1.6,0.2-2.5,0.2l-1.2,0c-0.7-0.1-1.5-0.2-2.2-0.3
						l-1.2-0.3c-0.5-0.2-1.3-0.4-1.8-0.6l-1.1-0.5c-0.5-0.2-1.1-0.6-1.5-0.8l-1.1-0.7c-0.4-0.3-0.9-0.6-1.2-0.9l-1-0.8
						c-0.3-0.3-0.7-0.6-1-0.9l-0.9-0.9c-0.3-0.3-0.6-0.7-0.8-1l-0.8-1c-0.2-0.3-0.5-0.7-0.7-1l-0.7-1c-0.2-0.3-0.4-0.7-0.6-1
						l-0.6-1.1c-0.2-0.3-0.4-0.8-0.5-1.1l-0.5-1.1c-0.1-0.3-0.3-0.8-0.4-1.2l-0.4-1.2c-0.1-0.4-0.2-0.9-0.3-1.2L17,84.7
						c-0.1-0.4-0.2-1-0.2-1.4l-0.1-1.3c0-0.5,0-1.1,0-1.5l0.1-1.3c0.2-1.6,0.2-1.8,0.5-2.9l0.3-1.2c0.2-0.7,0.6-1.5,0.9-2.2l0.6-1
						c0.3-0.5,0.7-1.2,1.1-1.6l0.7-0.9c0.4-0.4,0.9-0.9,1.3-1.3l0.9-0.7c0.4-0.3,1-0.7,1.5-1c2.1-1.2,4.9-1.3,8-0.1
						c-0.2,0.1-0.4,0.2-0.6,0.3C31.1,67.2,29.3,68.5,30.2,72.1c-2.2,3-3.6,6.6-3.7,9.9c-3.5-2.1-6.4-0.5-6.5,3.5
						c-0.1,4,2.7,9,6.2,11.1c3.5,2.1,6.4,0.5,6.5-3.5c0.1-4-2.7-9-6.2-11.1C26.6,78.8,28.1,75.1,30.2,72.1L30.2,72.1z"/>
					<path class="st7" d="M39.6,75.2c2.3-0.5,5.5,4.3,4,6c-1.3,1.5-4.7-2.4-4.8-4.7c0-0.3,0-0.7,0.2-1
						C39.1,75.4,39.4,75.2,39.6,75.2L39.6,75.2z"/>
				</g>
			</g>
			<g class="st1">
				<defs>
					<path id="SVGID_219_" class="st1" d="M49,100.4l-3.8,2.2c2.6-1.5,4.3-4.7,4.4-9.3c0.1-9.3-6.3-20.8-14.5-25.7l3.8-2.2
						c8.1,4.8,14.6,16.3,14.5,25.7C53.3,95.7,51.6,98.9,49,100.4z"/>
				</defs>
				<clipPath id="SVGID_55_">
					<use xlink:href="#SVGID_219_"  style="overflow:visible;"/>
				</clipPath>
				<g class="st60">
					<path class="st5" d="M49,100.4l-3.8,2.2c2.6-1.5,4.3-4.7,4.4-9.3c0-1-0.1-2.1-0.2-3.2l3.8-2.2c0.1,1.1,0.2,2.2,0.2,3.2
						C53.3,95.7,51.6,98.9,49,100.4L49,100.4z"/>
					<path class="st4" d="M53.1,87.9L49.4,90c-0.4-3-1.3-6-2.7-8.9l3.8-2.2C51.8,81.9,52.8,84.9,53.1,87.9L53.1,87.9z"/>
					<path class="st7" d="M50.4,78.9l-3.8,2.2c-1.6-3.3-3.7-6.5-6.1-9.1l3.8-2.2C46.8,72.4,48.9,75.6,50.4,78.9L50.4,78.9z"/>
					<path class="st4" d="M44.3,69.8L40.5,72c-1.7-1.8-3.5-3.3-5.4-4.4l3.8-2.2C40.8,66.6,42.6,68.1,44.3,69.8L44.3,69.8z"/>
				</g>
			</g>
		</g>
	</g>
	<g>
		<path class="st0" d="M13.6,122.2c-1.8,0-3.3-1.5-3.3-3.3v-17c0-4.5,2.4-8.7,6.2-10.9c2-1.2,3.9-2.4,5.9-3.5c1.8-1,4.9-1.3,5.5,1.2
			c0.5,2.1-0.7,3.5-2.4,4.5c-1.9,1.1-3.8,2.3-5.7,3.4c-1.9,1.1-3.1,3.1-3.1,5.3v17C16.8,120.7,15.4,122.2,13.6,122.2z"/>
	</g>
</g>
</svg>
