<?xml version="1.0" encoding="utf-8"?>
<!-- Generator: Adobe Illustrator 25.0.0, SVG Export Plug-In . SVG Version: 6.00 Build 0)  -->
<svg version="1.1" id="Capa_1" xmlns="http://www.w3.org/2000/svg" xmlns:xlink="http://www.w3.org/1999/xlink" x="0px" y="0px"
	 viewBox="0 0 150 150" style="enable-background:new 0 0 150 150;" xml:space="preserve">
<path d="M70.9,12.5c-0.3,0-1.1,0.1-1.9,0.2c-17.8,1.6-34.4,11.2-44.9,25.9c-5.9,8.2-9.6,17.5-11,27.3c-0.5,3.4-0.6,4.4-0.6,9.1
	c0,4.7,0.1,5.7,0.6,9.1c3.4,23.5,20.1,43.2,42.8,50.5c4.1,1.3,8.3,2.2,13.2,2.7c1.9,0.2,10.1,0.2,12,0c8.4-0.9,15.5-3,22.5-6.6
	c1.1-0.5,1.3-0.7,1.1-0.8c-0.1-0.1-4.7-6.2-10.2-13.6l-10-13.5L71.9,84.3c-6.9-10.2-12.6-18.5-12.6-18.5c0,0-0.1,8.2-0.1,18.3
	c0,17.6,0,18.3-0.3,18.7c-0.3,0.6-0.6,0.8-1.1,1.1c-0.4,0.2-0.7,0.2-2.6,0.2h-2.1l-0.6-0.4c-0.4-0.2-0.6-0.5-0.8-0.9l-0.3-0.5
	l0-24.5l0-24.5l0.4-0.5c0.2-0.3,0.6-0.6,0.9-0.7c0.5-0.2,0.7-0.3,2.8-0.3c2.5,0,2.9,0.1,3.6,0.8c0.2,0.2,7,10.4,15.1,22.7
	s19.2,29.1,24.7,37.4l9.9,15l0.5-0.3c4.4-2.9,9.1-7,12.8-11.3c7.9-9.1,13-20.1,14.7-32c0.5-3.4,0.6-4.4,0.6-9.1s-0.1-5.7-0.6-9.1
	c-3.4-23.5-20.1-43.2-42.8-50.5c-4-1.3-8.2-2.2-13-2.7C80,12.6,71.9,12.4,70.9,12.5L70.9,12.5z M96.5,50.3c0.6,0.3,1.1,0.9,1.2,1.4
	c0.1,0.3,0.1,7.1,0.1,22.4l0,22l-3.9-5.9L90,84.3v-16c0-10.3,0-16.1,0.1-16.4c0.2-0.7,0.6-1.2,1.2-1.5c0.5-0.3,0.7-0.3,2.6-0.3
	C95.8,50.1,96.1,50.1,96.5,50.3L96.5,50.3z"/>
<path d="M108.3,127.9c-0.4,0.3-0.6,0.5-0.2,0.2c0.3-0.2,0.7-0.5,0.6-0.5C108.7,127.7,108.5,127.8,108.3,127.9z M107.4,128.5
	C107.2,128.7,107.2,128.7,107.4,128.5c0.2,0,0.3-0.1,0.3-0.1C107.7,128.3,107.7,128.3,107.4,128.5L107.4,128.5z M106.8,128.8
	C106.6,129,106.6,129,106.8,128.8c0.2,0,0.3-0.1,0.3-0.1C107.1,128.6,107.1,128.6,106.8,128.8L106.8,128.8z M106.2,129.2
	C106,129.4,106,129.4,106.2,129.2c0.2,0,0.3-0.1,0.3-0.1C106.5,129,106.5,129,106.2,129.2L106.2,129.2z M105.3,129.7
	c-0.5,0.2-0.4,0.3,0,0.1c0.2-0.1,0.4-0.2,0.4-0.2C105.7,129.5,105.7,129.5,105.3,129.7z"/>
</svg>
