<?xml version="1.0" encoding="utf-8"?>
<!-- Generator: Adobe Illustrator 25.0.0, SVG Export Plug-In . SVG Version: 6.00 Build 0)  -->
<svg version="1.1" id="Capa_1" xmlns="http://www.w3.org/2000/svg" xmlns:xlink="http://www.w3.org/1999/xlink" x="0px" y="0px"
	 viewBox="0 0 150 150" style="enable-background:new 0 0 150 150;" xml:space="preserve">
<style type="text/css">
	.st0{fill:#FF3E00;}
	.st1{fill:#FFFFFF;}
</style>
<g>
	<path class="st0" d="M120.4,29c-11.6-16.6-34.6-21.5-51.1-11L40.1,36.6c-2,1.2-3.8,2.7-5.4,4.3c-1.7,1.6-3.2,3.4-4.5,5.3
		c-1.3,1.9-2.4,4-3.3,6.1c-0.9,2.1-1.5,4.4-1.9,6.6c-0.3,1.9-0.5,3.8-0.6,5.8c0,1.9,0.1,3.9,0.4,5.8c0.3,1.9,0.7,3.8,1.4,5.7
		c0.6,1.8,1.4,3.6,2.3,5.4c-0.6,0.9-1.2,1.9-1.7,2.9c-0.5,1-1,2-1.4,3.1c-0.4,1-0.8,2.1-1.1,3.2s-0.6,2.2-0.8,3.3
		c-0.8,4.7-0.7,9.5,0.3,14.1c0.5,2.3,1.3,4.6,2.2,6.7s2.1,4.2,3.5,6.1c11.6,16.6,34.6,21.5,51.1,11l29.1-18.5c2-1.2,3.8-2.7,5.4-4.3
		c1.7-1.6,3.2-3.4,4.5-5.3c1.3-1.9,2.4-4,3.3-6.1c0.9-2.1,1.5-4.4,1.9-6.6c0.3-1.9,0.5-3.8,0.6-5.8c0-1.9-0.1-3.9-0.4-5.8
		c-0.3-1.9-0.7-3.8-1.4-5.7c-0.6-1.8-1.4-3.6-2.3-5.4c0.6-0.9,1.2-1.9,1.7-2.9c0.5-1,1-2,1.4-3.1c0.4-1,0.8-2.1,1.1-3.2
		c0.3-1.1,0.6-2.2,0.8-3.3c0.4-2.3,0.6-4.7,0.5-7.1c-0.1-2.4-0.3-4.7-0.9-7c-0.5-2.3-1.3-4.6-2.2-6.7C123,33.1,121.8,31.1,120.4,29"
		/>
	<path class="st1" d="M66.4,122.6c-2.3,0.6-4.6,0.8-7,0.7c-2.4-0.1-4.7-0.6-6.9-1.4c-2.2-0.8-4.3-2-6.1-3.4
		c-1.9-1.4-3.5-3.2-4.8-5.1c-0.8-1.2-1.5-2.4-2.1-3.7c-0.6-1.3-1-2.6-1.3-4c-0.3-1.4-0.5-2.8-0.5-4.2s0.1-2.8,0.3-4.2
		c0-0.2,0.1-0.5,0.1-0.7c0-0.2,0.1-0.5,0.2-0.7c0.1-0.2,0.1-0.4,0.2-0.7c0.1-0.2,0.1-0.4,0.2-0.7l0.5-1.7l1.5,1.1
		c0.9,0.6,1.7,1.2,2.6,1.8c0.9,0.6,1.8,1.1,2.8,1.5c0.9,0.5,1.9,0.9,2.9,1.3c1,0.4,2,0.7,3,1l1.1,0.3L53,101c-0.1,0.8,0,1.5,0.2,2.3
		c0.1,0.4,0.2,0.7,0.4,1.1c0.2,0.3,0.4,0.7,0.6,1c0.4,0.6,0.9,1.1,1.5,1.5c0.6,0.4,1.2,0.8,1.8,1c0.7,0.2,1.4,0.4,2.1,0.4
		c0.7,0,1.4,0,2.1-0.2c0.2,0,0.3-0.1,0.5-0.1c0.2-0.1,0.3-0.1,0.5-0.2c0.2-0.1,0.3-0.1,0.4-0.2c0.1-0.1,0.3-0.2,0.4-0.2l29.1-18.6
		c0.4-0.2,0.7-0.5,1-0.8c0.3-0.3,0.6-0.6,0.8-1c0.2-0.3,0.4-0.7,0.6-1.1c0.2-0.4,0.3-0.8,0.3-1.2c0.1-0.4,0.1-0.9,0.1-1.3
		c0-0.4-0.1-0.9-0.2-1.3c-0.1-0.4-0.2-0.8-0.4-1.2c-0.2-0.4-0.4-0.8-0.6-1.1c-0.4-0.6-0.9-1.1-1.5-1.5c-0.6-0.4-1.2-0.8-1.8-1
		c-0.7-0.2-1.4-0.4-2.1-0.4c-0.7,0-1.4,0-2.1,0.2c-0.2,0-0.3,0.1-0.5,0.1c-0.2,0.1-0.3,0.1-0.5,0.2c-0.2,0.1-0.3,0.1-0.4,0.2
		c-0.1,0.1-0.3,0.2-0.4,0.2l-11.2,7.1c-0.5,0.3-0.9,0.6-1.4,0.8c-0.5,0.3-1,0.5-1.5,0.7c-0.5,0.2-1,0.4-1.5,0.6
		c-0.5,0.2-1,0.3-1.5,0.5c-2.3,0.6-4.6,0.8-7,0.7c-2.3-0.1-4.7-0.6-6.9-1.4c-2.2-0.8-4.3-2-6.1-3.4c-1.9-1.4-3.5-3.2-4.8-5.1
		c-0.8-1.2-1.5-2.4-2.1-3.7c-0.6-1.3-1-2.6-1.3-4c-0.3-1.4-0.5-2.8-0.5-4.2c0-1.4,0.1-2.8,0.3-4.2c0.5-2.8,1.6-5.4,3.1-7.7
		c1.6-2.3,3.6-4.3,6-5.8l29.2-18.6c0.5-0.3,0.9-0.6,1.4-0.8c0.5-0.3,1-0.5,1.4-0.7c0.5-0.2,1-0.4,1.5-0.6c0.5-0.2,1-0.3,1.5-0.5
		c2.3-0.6,4.6-0.8,7-0.7c2.4,0.1,4.7,0.6,6.9,1.4c2.2,0.8,4.3,2,6.1,3.4c1.9,1.4,3.5,3.2,4.8,5.1c0.8,1.2,1.5,2.4,2.1,3.7
		c0.6,1.3,1,2.6,1.3,4c0.3,1.4,0.5,2.8,0.5,4.2c0,1.4-0.1,2.8-0.3,4.2c0,0.2-0.1,0.5-0.1,0.7c-0.1,0.2-0.1,0.5-0.2,0.7
		c-0.1,0.2-0.1,0.5-0.2,0.7c-0.1,0.2-0.1,0.4-0.2,0.7l-0.6,1.7l-1.5-1.1c-0.9-0.6-1.7-1.2-2.7-1.8c-0.9-0.6-1.8-1.1-2.8-1.6
		c-1.9-1-3.9-1.7-5.9-2.4l-1.1-0.3l0.1-1.1c0-0.4,0-0.8,0-1.1c0-0.4-0.1-0.8-0.2-1.1c-0.1-0.4-0.2-0.7-0.4-1.1
		c-0.2-0.3-0.4-0.7-0.6-1c-0.4-0.6-0.9-1.1-1.5-1.5c-0.6-0.4-1.2-0.8-1.8-1c-1.3-0.5-2.8-0.5-4.1-0.2c-0.2,0-0.3,0.1-0.5,0.1
		c-0.2,0.1-0.3,0.1-0.5,0.2c-0.1,0.1-0.3,0.1-0.4,0.2c-0.1,0.1-0.3,0.2-0.4,0.2L57.4,61.3c-0.4,0.2-0.7,0.5-1,0.8
		c-0.3,0.3-0.6,0.6-0.8,1c-0.2,0.3-0.4,0.7-0.6,1.1c-0.2,0.4-0.3,0.8-0.4,1.2c-0.1,0.4-0.1,0.9-0.1,1.3c0,0.9,0.2,1.7,0.6,2.5
		c0.2,0.4,0.4,0.8,0.6,1.1c0.4,0.6,0.9,1.1,1.4,1.5c0.6,0.4,1.2,0.8,1.8,1c1.3,0.5,2.8,0.6,4.1,0.2c0.2,0,0.3-0.1,0.5-0.1
		c0.2-0.1,0.3-0.1,0.5-0.2c0.1-0.1,0.3-0.1,0.4-0.2c0.1-0.1,0.3-0.2,0.4-0.2l11.2-7.1c0.5-0.3,0.9-0.6,1.4-0.8
		c0.5-0.3,1-0.5,1.5-0.7c0.5-0.2,1-0.4,1.5-0.6c0.5-0.2,1-0.3,1.6-0.5c2.3-0.6,4.6-0.8,7-0.7c2.4,0.1,4.7,0.6,6.9,1.4
		c2.2,0.8,4.3,2,6.1,3.4c1.9,1.4,3.5,3.2,4.8,5.1c0.8,1.2,1.5,2.4,2.1,3.7c0.6,1.3,1,2.6,1.3,4c0.3,1.4,0.5,2.8,0.5,4.2
		c0,1.4-0.1,2.8-0.3,4.2c-0.2,1.4-0.6,2.7-1.2,4c-0.5,1.3-1.2,2.5-2,3.7c-0.8,1.2-1.7,2.2-2.7,3.2s-2.1,1.8-3.3,2.6L72.3,120
		c-0.5,0.3-0.9,0.6-1.4,0.8c-0.5,0.3-1,0.5-1.5,0.7c-0.5,0.2-1,0.4-1.5,0.6C67.5,122.3,66.9,122.4,66.4,122.6"/>
</g>
</svg>
