<?xml version="1.0" encoding="utf-8"?>
<!-- Generator: Adobe Illustrator 25.0.0, SVG Export Plug-In . SVG Version: 6.00 Build 0)  -->
<svg version="1.1" id="Capa_1" xmlns="http://www.w3.org/2000/svg" xmlns:xlink="http://www.w3.org/1999/xlink" x="0px" y="0px"
	 viewBox="0 0 150 150" style="enable-background:new 0 0 150 150;" xml:space="preserve">
<style type="text/css">
	.st0{fill:#9CC2C8;}
	.st1{fill:#81B414;}
	.st2{fill:#A0CF40;}
	.st3{fill:#6C9E00;}
	.st4{fill:#6E9A1D;}
	.st5{fill:#B6D239;}
</style>
<path class="st0" d="M69.5,82.5l-5.1,0.1v55.7v0v0l0,0c0,0.4,0.3,0.7,0.8,1c1,0.6,2.6,0.6,3.6,0c0.5-0.3,0.7-0.7,0.7-1h0V82.5z"/>
<path class="st0" d="M89.5,71.3l-5.1,0.1v55.7v0v0l0,0c0,0.4,0.3,0.7,0.8,1c1,0.6,2.6,0.6,3.6,0c0.5-0.3,0.7-0.7,0.7-1h0V71.3z"/>
<g>
	<path class="st1" d="M106.6,79.8H46V90h0c-0.2,4.6,2.8,9.3,8.9,12.8c11.9,6.8,31,6.9,42.8,0.1c5.9-3.4,8.8-7.9,8.8-12.4h0V79.8z"/>
	<path class="st2" d="M97.8,92.2C86,99,66.8,99,54.9,92.1S43,74.2,54.8,67.4c11.8-6.8,31-6.8,42.8,0.1S109.6,85.4,97.8,92.2z"/>
	<polygon class="st1" points="49.8,79.5 49.8,38.7 102.8,38.7 102.8,80.3 	"/>
	<path class="st3" d="M95.1,90.3c-10.3,6-27.1,5.9-37.5-0.1c-10.4-6-10.4-15.7-0.1-21.7c10.3-6,27.1-5.9,37.5,0.1
		C105.4,74.7,105.4,84.4,95.1,90.3z"/>
	<path class="st1" d="M95.1,49.6c-10.3,6-27.1,5.9-37.5-0.1c-10.4-6-10.4-15.7-0.1-21.7c10.3-6,27.1-5.9,37.5,0.1
		C105.4,33.9,105.4,43.6,95.1,49.6z"/>
	<path class="st1" d="M76.3,3.3L76.3,3.3c-14.6,0-26.5,11.9-26.5,26.5v8.9h53.1V29c0-14.2-11.5-25.7-25.7-25.7H76.3z"/>
	<path class="st2" d="M87,11.6c-2.4,0.9-6.7,0.3-9.5-1.4c-2.8-1.6-3.2-3.7-0.8-4.6c2.4-0.9,6.7-0.3,9.5,1.4
		C89.1,8.7,89.4,10.7,87,11.6z"/>
	<g>
		<polygon class="st4" points="83.8,25.7 81,27.3 81,31.4 71.3,54.3 76.3,56.4 81.8,48.2 81.8,59.9 83.8,58.7 		"/>
		<polygon class="st4" points="78.3,33.9 83.3,36 67,50.8 67,73.5 62,71.3 62,48.7 65.8,40.9 		"/>
		<polygon class="st4" points="79.5,69.2 84.4,71.3 91.4,59.3 86.4,57.2 79.5,61.2 		"/>
		<polygon class="st4" points="62,87.3 67,89.4 67.2,77.7 62,79.3 		"/>
		<polygon class="st4" points="81.2,76.2 86.2,78.3 86.2,66.6 81.2,68.2 		"/>
		<polygon class="st4" points="81.2,60.2 86.2,62.3 89.6,27.3 84.6,25.2 81.2,27.2 		"/>
		<polygon class="st4" points="60.2,80.3 65.2,82.5 72.1,70.5 67.2,68.3 60.2,72.4 		"/>
	</g>
	<g>
		<polygon class="st5" points="88.8,27.8 86,29.4 86,33.6 76.3,56.4 86.8,50.3 86.8,62 88.8,60.8 		"/>
		<polygon class="st5" points="83.3,36 74.2,57 70.4,59.2 70.4,71.5 67,73.5 67,50.8 70.8,43.1 		"/>
		<polygon class="st5" points="84.4,71.3 91.4,67.3 91.4,59.3 84.4,63.4 		"/>
		<polygon class="st5" points="67,89.4 70.4,87.4 70.4,79.5 67,81.4 		"/>
		<polygon class="st5" points="86.2,78.3 89.6,76.3 89.6,68.3 86.2,70.3 		"/>
		<polygon class="st5" points="86.2,62.3 89.6,60.4 89.6,27.3 86.2,29.3 		"/>
		<polygon class="st5" points="65.2,82.5 72.1,78.4 72.1,70.5 65.2,74.5 		"/>
	</g>
</g>
</svg>
