<?xml version="1.0" encoding="utf-8"?>
<!-- Generator: Adobe Illustrator 25.0.0, SVG Export Plug-In . SVG Version: 6.00 Build 0)  -->
<svg version="1.1" id="Capa_1" xmlns="http://www.w3.org/2000/svg" xmlns:xlink="http://www.w3.org/1999/xlink" x="0px" y="0px"
	 viewBox="0 0 150 150" style="enable-background:new 0 0 150 150;" xml:space="preserve">
<style type="text/css">
	.st0{fill:#E76F00;}
	.st1{fill:#5382A1;}
</style>
<g>
	<path class="st0" d="M109.5,115.4h-0.5v-0.3h1.4v0.3h-0.5v1.5h-0.4V115.4z M112.3,115.5L112.3,115.5l-0.5,1.4h-0.2l-0.5-1.4h0v1.4
		h-0.3v-1.8h0.5l0.5,1.3l0.5-1.3h0.5v1.8h-0.3L112.3,115.5z"/>
	<path class="st1" d="M62.3,79.3c0,0-3.7,2.1,2.6,2.9c7.6,0.9,11.5,0.7,19.9-0.8c0,0,2.2,1.4,5.3,2.6C71.2,91.9,47.5,83.4,62.3,79.3
		 M60,68.7c0,0-4.1,3,2.2,3.7c8.1,0.8,14.5,0.9,25.7-1.2c0,0,1.5,1.6,4,2.4C69,80.3,43.7,74.1,60,68.7"/>
	<path class="st0" d="M79.3,50.9C84,56.2,78.1,61,78.1,61s11.8-6.1,6.4-13.7c-5-7.1-8.9-10.6,12-22.8C96.5,24.6,63.6,32.8,79.3,50.9
		"/>
	<path class="st1" d="M104.2,87c0,0,2.7,2.2-3,4c-10.9,3.3-45.2,4.3-54.7,0.1c-3.4-1.5,3-3.6,5-4c2.1-0.5,3.3-0.4,3.3-0.4
		C51,84.1,30.2,92,44.3,94.3C82.6,100.5,114.1,91.5,104.2,87 M64,57.9c0,0-17.5,4.1-6.2,5.7c4.8,0.6,14.2,0.5,23.1-0.2
		c7.2-0.6,14.5-1.9,14.5-1.9s-2.5,1.1-4.4,2.3c-17.7,4.7-52,2.5-42.1-2.3C57.2,57.4,64,57.9,64,57.9 M95.3,75.4
		c18-9.4,9.7-18.4,3.9-17.1c-1.4,0.3-2.1,0.6-2.1,0.6s0.5-0.8,1.5-1.2c11.5-4,20.3,11.9-3.7,18.3C95,75.8,95.2,75.6,95.3,75.4"/>
	<path class="st0" d="M84.5,5c0,0,10,10-9.5,25.3c-15.6,12.3-3.6,19.3,0,27.4c-9.1-8.2-15.8-15.4-11.3-22.2
		C70.3,25.6,88.5,20.9,84.5,5"/>
	<path class="st1" d="M65.8,100.7c17.3,1.1,43.8-0.6,44.5-8.8c0,0-1.2,3.1-14.3,5.6c-14.8,2.8-33,2.5-43.8,0.7
		C52.2,98.2,54.4,100,65.8,100.7"/>
	<path class="st0" d="M63,132c-1.6,1.4-3.4,2.2-4.9,2.2c-2.2,0-3.4-1.3-3.4-3.4c0-2.3,1.3-4,6.4-4H63L63,132 M67.5,137.1v-15.7
		c0-4-2.3-6.7-7.8-6.7c-3.2,0-6,0.8-8.3,1.8l0.7,2.8c1.8-0.7,4.1-1.3,6.4-1.3c3.2,0,4.6,1.3,4.6,3.9v2h-1.6c-7.7,0-11.2,3-11.2,7.5
		c0,3.9,2.3,6.1,6.6,6.1c2.8,0,4.9-1.1,6.8-2.8l0.4,2.4L67.5,137.1L67.5,137.1z M82.5,137.1h-5.6l-6.8-22H75l4.2,13.5l0.9,4.1
		c2.1-5.9,3.6-11.8,4.4-17.6h4.8C88,122.3,85.7,130.3,82.5,137.1 M104,132c-1.6,1.4-3.4,2.2-4.9,2.2c-2.2,0-3.4-1.3-3.4-3.4
		c0-2.3,1.3-4,6.4-4h1.9V132 M108.5,137.1v-15.7c0-4-2.3-6.7-7.8-6.7c-3.2,0-6.1,0.8-8.3,1.8l0.7,2.8c1.8-0.7,4.2-1.3,6.4-1.3
		c3.2,0,4.5,1.3,4.5,3.9v2h-1.6c-7.7,0-11.2,3-11.2,7.5c0,3.9,2.3,6.1,6.6,6.1c2.8,0,4.9-1.1,6.8-2.8l0.4,2.4L108.5,137.1
		L108.5,137.1z M45.2,140.8c-1.3,1.9-3.4,3.4-5.6,4.2l-2.2-2.6c1.7-0.9,3.2-2.3,3.9-3.7c0.6-1.2,0.8-2.7,0.8-6.4v-25.1h4.8V132
		C46.9,136.9,46.5,138.9,45.2,140.8"/>
</g>
</svg>
