<?xml version="1.0" encoding="utf-8"?>
<!-- Generator: Adobe Illustrator 25.0.0, SVG Export Plug-In . SVG Version: 6.00 Build 0)  -->
<svg version="1.1" id="Capa_1" xmlns="http://www.w3.org/2000/svg" xmlns:xlink="http://www.w3.org/1999/xlink" x="0px" y="0px"
	 viewBox="0 0 150 150" style="enable-background:new 0 0 150 150;" xml:space="preserve">
<style type="text/css">
	.st0{fill:#06B6D4;}
</style>
<path class="st0" d="M75,33c-18.7,0-30.3,9.3-35,28c7-9.3,15.2-12.8,24.5-10.5c5.3,1.3,9.1,5.2,13.3,9.5c6.9,7,14.8,15,32.2,15
	c18.7,0,30.3-9.3,35-28c-7,9.3-15.2,12.8-24.5,10.5c-5.3-1.3-9.1-5.2-13.3-9.5C100.3,41.1,92.3,33,75,33L75,33z M40,75
	c-18.7,0-30.3,9.3-35,28c7-9.3,15.2-12.8,24.5-10.5c5.3,1.3,9.1,5.2,13.3,9.5c6.9,7,14.8,15,32.2,15c18.7,0,30.3-9.3,35-28
	c-7,9.3-15.2,12.8-24.5,10.5c-5.3-1.3-9.1-5.2-13.3-9.5C65.3,83.1,57.3,75,40,75L40,75z"/>
</svg>
