<?xml version="1.0" encoding="utf-8"?>
<!-- Generator: Adobe Illustrator 25.0.0, SVG Export Plug-In . SVG Version: 6.00 Build 0)  -->
<svg version="1.1" id="Capa_1" xmlns="http://www.w3.org/2000/svg" xmlns:xlink="http://www.w3.org/1999/xlink" x="0px" y="0px"
	 viewBox="0 0 150 150" style="enable-background:new 0 0 150 150;" xml:space="preserve">
<style type="text/css">
	.st0{enable-background:new    ;}
	.st1{fill:url(#SVGID_1_);}
	.st2{fill:url(#SVGID_2_);}
	.st3{fill:url(#SVGID_3_);}
	.st4{fill:#E5E1D6;}
	.st5{fill:url(#SVGID_4_);}
	.st6{fill:url(#Cylinder_face_1_);}
	.st7{opacity:0.8;fill:#8A6AA5;}
</style>
<g id="_x38_">
	<g class="st0">
		<g>
			<linearGradient id="SVGID_1_" gradientUnits="userSpaceOnUse" x1="114.2622" y1="48.1341" x2="135.0954" y2="48.1341">
				<stop  offset="0" style="stop-color:#C3BEAE"/>
				<stop  offset="0.7241" style="stop-color:#B5B0A0"/>
				<stop  offset="1" style="stop-color:#B7B2A2"/>
			</linearGradient>
			<path class="st1" d="M132,45.6c-4.1-2.4-10.7-2.4-14.7,0c-2,1.2-3,2.7-3,4.2l0,2.6c0-1.5,1-3.1,3-4.2c4.1-2.4,10.6-2.4,14.7,0
				c2.1,1.2,3.1,2.7,3.1,4.3l0-2.6C135.1,48.3,134.1,46.8,132,45.6z"/>
			<linearGradient id="SVGID_2_" gradientUnits="userSpaceOnUse" x1="13.6179" y1="106.6222" x2="34.4511" y2="106.6222">
				<stop  offset="0" style="stop-color:#C3BEAE"/>
				<stop  offset="0.7241" style="stop-color:#B5B0A0"/>
				<stop  offset="1" style="stop-color:#B7B2A2"/>
			</linearGradient>
			<path class="st2" d="M31.4,104.1c-4.1-2.4-10.7-2.4-14.7,0c-2,1.2-3,2.7-3,4.2l0,2.6c0-1.5,1-3.1,3-4.2c4.1-2.4,10.6-2.4,14.7,0
				c2.1,1.2,3.1,2.7,3.1,4.3l0-2.6C34.5,106.8,33.4,105.3,31.4,104.1z"/>
		</g>
		<linearGradient id="SVGID_3_" gradientUnits="userSpaceOnUse" x1="6.4776" y1="86.5301" x2="142.1766" y2="86.5301">
			<stop  offset="0" style="stop-color:#BCB7A7"/>
			<stop  offset="7.354700e-02" style="stop-color:#B7B2A2"/>
			<stop  offset="0.2759" style="stop-color:#B5B0A0"/>
			<stop  offset="0.5574" style="stop-color:#C3BDAD"/>
			<stop  offset="1" style="stop-color:#D6CFBF"/>
		</linearGradient>
		<path class="st3" d="M140.2,57.3c-26.5,35.8-25.3,35.9-33.3,40.6c-8.1,4.7-8.7,4.1-70,19.5c-9.3,2.4-18.3,0.9-24.1-2.5
			c-3.9-2.3-6.4-5.4-6.3-8.7l0,2.6c0,3.4,2.4,6.5,6.3,8.7c5.8,3.3,14.8,4.8,24.1,2.5c61.3-15.4,61.9-14.7,70-19.5
			c8-4.7,6.9-4.8,33.3-40.6c1.3-1.8,1.9-3.6,1.9-5.2l0-2.6C142.2,53.7,141.6,55.5,140.2,57.3z"/>
		<path class="st4" d="M135.9,43.3c-5.8-3.4-14.8-4.8-23.5-2.6C51.2,56,51.1,55.5,43.8,59.3c-9.8,5.1-9.1,6.2-35.5,41.9
			c-3.7,5-1.2,10.3,4.6,13.6c5.8,3.3,14.8,4.8,24.1,2.5c61.3-15.4,61.9-14.7,70-19.5c8-4.7,6.9-4.8,33.3-40.6
			C144.3,51.9,141.7,46.7,135.9,43.3z M31.4,112.6c-4.1,2.4-10.6,2.4-14.7,0s-4.1-6.2,0-8.5c4.1-2.4,10.6-2.4,14.7,0
			C35.5,106.4,35.5,110.2,31.4,112.6z M132.1,54.1c-4.1,2.4-10.6,2.4-14.7,0c-4.1-2.4-4.1-6.2,0-8.5c4.1-2.4,10.6-2.4,14.7,0
			C136.1,47.9,136.1,51.7,132.1,54.1z"/>
	</g>
	<g>
		<g id="Axonometric_Cylinder_1_">
			<linearGradient id="SVGID_4_" gradientUnits="userSpaceOnUse" x1="36.9378" y1="78.3153" x2="115.4787" y2="78.3153">
				<stop  offset="0" style="stop-color:#BCB7A7"/>
				<stop  offset="7.354700e-02" style="stop-color:#B7B2A2"/>
				<stop  offset="0.2759" style="stop-color:#B5B0A0"/>
				<stop  offset="0.5574" style="stop-color:#C3BDAD"/>
				<stop  offset="1" style="stop-color:#D6CFBF"/>
			</linearGradient>
			<path class="st5" d="M36.9,57.1v20.4c0.1,5.7,3.9,11.4,11.5,15.8c15.3,8.9,40.2,8.9,55.5,0c7.8-4.5,11.6-10.4,11.5-16.2V56.7
				L36.9,57.1z"/>
			<linearGradient id="Cylinder_face_1_" gradientUnits="userSpaceOnUse" x1="88.2033" y1="36.1134" x2="62.1552" y2="81.2299">
				<stop  offset="0" style="stop-color:#E5E1D6"/>
				<stop  offset="0.8675" style="stop-color:#DFDACD"/>
				<stop  offset="1" style="stop-color:#DED8CB"/>
			</linearGradient>
			<ellipse id="Cylinder_face_5_" class="st6" cx="76.2" cy="56.9" rx="39.3" ry="22.7"/>
			<ellipse id="Cylinder_face_4_" class="st4" cx="76.2" cy="55" rx="34.2" ry="19.7"/>
		</g>
		<path class="st7" d="M78.3,50.1l-11.7,6.7L63.6,55l11.7-6.7L78.3,50.1z M86.1,50.2l-15.5,8.9l3.1,1.8L89.2,52L86.1,50.2z"/>
	</g>
</g>
</svg>
