<?xml version="1.0" encoding="utf-8"?>
<!-- Generator: Adobe Illustrator 25.0.0, SVG Export Plug-In . SVG Version: 6.00 Build 0)  -->
<svg version="1.1" id="Capa_1" xmlns="http://www.w3.org/2000/svg" xmlns:xlink="http://www.w3.org/1999/xlink" x="0px" y="0px"
	 viewBox="0 0 150 150" style="enable-background:new 0 0 150 150;" xml:space="preserve">
<style type="text/css">
	.st0{enable-background:new    ;}
	.st1{fill:#B5B0A0;}
	.st2{fill:#D6CFBF;}
	.st3{fill:#343135;}
	.st4{fill:#3C373D;}
	.st5{fill:#1C231C;}
	.st6{fill:#464047;}
	.st7{fill:#29352A;}
	.st8{fill:#BC3131;}
	.st9{opacity:0.4;fill:#3C373D;}
</style>
<g id="_x31_1">
	<g>
		<g>
			<g class="st0">
				<g>
					<polygon class="st1" points="19.6,102.6 18.2,101.8 18.2,141.5 19.6,142.3 					"/>
				</g>
				<g>
					<polygon class="st2" points="19.6,102.5 19.6,142.3 21,141.5 21,101.6 					"/>
				</g>
			</g>
		</g>
		<g>
			<g class="st0">
				<g>
					<polygon class="st1" points="112.8,48.7 111.5,48 111.5,87.7 112.8,88.5 					"/>
				</g>
				<g>
					<polygon class="st2" points="112.8,48.6 112.8,88.5 114.3,87.7 114.3,47.8 					"/>
				</g>
			</g>
		</g>
	</g>
	<g>
		<g id="Axonometric_Cube_15_">
			<polygon id="Cube_face_-_left_197_" class="st3" points="23.4,119.8 13.3,114 13.3,66.1 23.4,71.9 			"/>
			<polygon id="Cube_face_-_right_197_" class="st4" points="127.3,59.8 23.4,119.8 23.4,71.9 127.3,11.9 			"/>
			<polygon class="st5" points="26.8,73.9 123.9,17.8 123.9,57.8 26.8,113.9 			"/>
			<polygon id="Cube_face_-_top_197_" class="st6" points="23.4,71.9 13.3,66.1 117.2,6.1 127.3,11.9 			"/>
		</g>
		<g>
			<g>
				<polygon class="st7" points="34.7,90.4 33.2,89.8 34.7,87.5 45.2,81.4 46.7,82 45.2,84.4 				"/>
				<polygon class="st8" points="34.7,75.3 33.2,74.6 34.7,72.3 45.2,66.2 46.7,66.8 45.2,69.2 				"/>
				<polygon class="st8" points="46.4,79.5 46.4,69.7 47.9,67.3 49.4,68 49.4,77.8 47.9,80.2 				"/>
				<polygon class="st8" points="46.4,94.7 46.4,84.9 47.9,82.5 49.4,83.2 49.4,93 47.9,95.3 				"/>
				<polygon class="st8" points="30.5,88.7 30.5,78.9 32,76.5 33.6,77.1 33.6,86.9 32,89.4 				"/>
				<polygon class="st8" points="30.5,103.9 30.5,94.1 32,91.7 33.6,92.3 33.6,102.1 32,104.5 				"/>
				<polygon class="st8" points="34.7,105.6 33.2,105 34.7,102.6 45.2,96.6 46.7,97.2 45.2,99.6 				"/>
			</g>
			<g>
				<polygon class="st7" points="58.3,76.8 56.8,76.2 58.3,73.9 68.8,67.8 70.3,68.4 68.8,70.8 				"/>
				<polygon class="st8" points="58.3,61.7 56.8,61 58.3,58.7 68.8,52.6 70.3,53.2 68.8,55.6 				"/>
				<polygon class="st8" points="69.9,65.9 69.9,56.1 71.5,53.7 73,54.4 73,64.2 71.5,66.6 				"/>
				<polygon class="st8" points="69.9,81.1 69.9,71.3 71.5,68.9 73,69.6 73,79.4 71.5,81.7 				"/>
				<polygon class="st8" points="54.1,75.1 54.1,65.3 55.6,62.9 57.1,63.5 57.1,73.3 55.6,75.8 				"/>
				<polygon class="st8" points="54.1,90.3 54.1,80.5 55.6,78.1 57.1,78.7 57.1,88.5 55.6,90.9 				"/>
				<polygon class="st8" points="58.3,92 56.8,91.4 58.3,89 68.8,83 70.3,83.6 68.8,86 				"/>
			</g>
			<g>
				<polygon class="st8" points="81.8,63.2 80.3,62.6 81.8,60.3 92.3,54.2 93.8,54.8 92.3,57.2 				"/>
				<polygon class="st8" points="81.8,48.1 80.3,47.4 81.8,45.1 92.3,39 93.8,39.6 92.3,42 				"/>
				<polygon class="st8" points="93.5,52.3 93.5,42.5 95,40.1 96.5,40.8 96.5,50.6 95,53 				"/>
				<polygon class="st8" points="93.5,67.5 93.5,57.7 95,55.3 96.5,56 96.5,65.8 95,68.1 				"/>
				<polygon class="st7" points="77.6,61.5 77.6,51.7 79.1,49.3 80.7,49.9 80.7,59.7 79.1,62.2 				"/>
				<polygon class="st7" points="77.6,76.7 77.6,66.9 79.1,64.5 80.7,65.1 80.7,74.9 79.1,77.3 				"/>
				<polygon class="st8" points="81.8,78.4 80.3,77.8 81.8,75.4 92.3,69.4 93.8,70 92.3,72.4 				"/>
			</g>
			<g>
				<polygon class="st7" points="105.4,49.6 103.9,49 105.4,46.7 115.9,40.6 117.4,41.2 115.9,43.6 				"/>
				<polygon class="st8" points="105.4,34.5 103.9,33.8 105.4,31.5 115.9,25.4 117.4,26 115.9,28.4 				"/>
				<polygon class="st8" points="117,38.7 117,28.9 118.6,26.5 120.1,27.2 120.1,37 118.6,39.4 				"/>
				<polygon class="st8" points="117,53.9 117,44.1 118.6,41.7 120.1,42.4 120.1,52.2 118.6,54.5 				"/>
				<polygon class="st7" points="101.2,47.9 101.2,38.1 102.7,35.7 104.2,36.3 104.2,46.1 102.7,48.6 				"/>
				<polygon class="st7" points="101.2,63.1 101.2,53.3 102.7,50.9 104.2,51.5 104.2,61.3 102.7,63.7 				"/>
				<polygon class="st7" points="105.4,64.8 103.9,64.2 105.4,61.8 115.9,55.8 117.4,56.4 115.9,58.8 				"/>
			</g>
		</g>
	</g>
	<polygon id="Cube_face_-_top_252_" class="st9" points="25.7,67.5 20.9,64.8 115,10.5 119.7,13.2 	"/>
	<polygon class="st4" points="115,11.3 119,13.6 119.7,13.2 115,10.5 20.9,64.8 21.6,65.2 	"/>
</g>
</svg>
