<?xml version="1.0" encoding="utf-8"?>
<!-- Generator: Adobe Illustrator 25.0.0, SVG Export Plug-In . SVG Version: 6.00 Build 0)  -->
<svg version="1.1" id="Layer_1" xmlns="http://www.w3.org/2000/svg" xmlns:xlink="http://www.w3.org/1999/xlink" x="0px" y="0px"
	 viewBox="0 0 150 150" style="enable-background:new 0 0 150 150;" xml:space="preserve">
<style type="text/css">
	.st0{fill:#007ACC;}
	.st1{fill:#FFFFFF;}
</style>
<path class="st0" d="M12.5,75V12.5h125v125h-125"/>
<path class="st1" d="M35.7,75.2v5.7h18.2v51.8h12.9V80.9H85v-5.6c0-3.2,0-5.7-0.1-5.8c0-0.1-11.1-0.1-24.6-0.1l-24.5,0.1v5.7
	L35.7,75.2L35.7,75.2z M117.5,69.4c3.6,0.8,6.3,2.4,8.8,5c1.3,1.4,3.2,3.9,3.4,4.5c0,0.2-6.1,4.3-9.7,6.6c-0.1,0.1-0.7-0.5-1.3-1.4
	c-1.8-2.6-3.7-3.7-6.6-3.9c-4.2-0.3-7,1.9-7,5.6c0,1.1,0.2,1.8,0.6,2.7c0.9,1.9,2.7,3.1,8.1,5.5c10,4.3,14.3,7.1,17,11.2
	c3,4.5,3.6,11.7,1.6,17c-2.2,5.8-7.7,9.8-15.5,11.1c-2.4,0.4-8,0.4-10.7-0.1c-5.6-1.1-11-3.9-14.2-7.5c-1.3-1.4-3.8-5.1-3.6-5.4
	l1.3-0.8l5.2-3l4-2.3l0.9,1.2c1.2,1.8,3.7,4.3,5.2,5.1c4.6,2.3,10.6,2,13.7-0.7c1.3-1.2,1.9-2.4,1.9-4.2c0-1.6-0.2-2.3-1-3.6
	c-1.1-1.5-3.4-2.8-9.7-5.6c-7.2-3.1-10.3-5-13.2-8c-1.6-1.8-3.2-4.7-3.8-7c-0.5-2-0.7-7-0.2-9c1.5-7,6.8-11.9,14.3-13.3
	C109.4,68.5,115.1,68.7,117.5,69.4L117.5,69.4L117.5,69.4z"/>
</svg>
