<?xml version="1.0" encoding="utf-8"?>
<!-- Generator: Adobe Illustrator 25.0.0, SVG Export Plug-In . SVG Version: 6.00 Build 0)  -->
<svg version="1.1" id="Capa_1" xmlns="http://www.w3.org/2000/svg" xmlns:xlink="http://www.w3.org/1999/xlink" x="0px" y="0px"
	 viewBox="0 0 150 150" style="enable-background:new 0 0 150 150;" xml:space="preserve">
<style type="text/css">
	.Sombra_x0020_paralela{fill:none;}
	.Neón_x0020_azul_x0020_grueso{fill:none;stroke:#0073BC;stroke-width:10;stroke-linecap:round;stroke-linejoin:round;}
	.Agua_x0020_iluminada{fill:url(#SVGID_1_);stroke:#FFFFFF;stroke-width:0.25;stroke-miterlimit:1;}
	.Resalte_x0020_en_x0020_negro_x0020_{fill:url(#SVGID_2_);stroke:#FFFFFF;stroke-width:0.3629;stroke-miterlimit:1;}
	.Coco_GS{fill-rule:evenodd;clip-rule:evenodd;fill:#FFDD00;}
	.st0{fill:#322F34;}
	.st1{enable-background:new    ;}
	.st2{clip-path:url(#SVGID_4_);enable-background:new    ;}
	.st3{fill:#CDCDCD;}
	.st4{fill:#DEDEDE;}
	.st5{fill:#E7E8E8;}
	.st6{fill:#F2F0ED;}
	.st7{fill:#FB6767;}
	.st8{fill:#35373C;}
</style>
<linearGradient id="SVGID_1_" gradientUnits="userSpaceOnUse" x1="0" y1="0" x2="6.123234e-17" y2="-1">
	<stop  offset="0" style="stop-color:#1D59F4"/>
	<stop  offset="0.618" style="stop-color:#2D65EE"/>
	<stop  offset="0.6292" style="stop-color:#3864F3"/>
	<stop  offset="0.9831" style="stop-color:#00DDFC"/>
</linearGradient>
<linearGradient id="SVGID_2_" gradientUnits="userSpaceOnUse" x1="0" y1="0" x2="6.123234e-17" y2="-1">
	<stop  offset="0" style="stop-color:#060606"/>
	<stop  offset="0.618" style="stop-color:#000000"/>
	<stop  offset="0.6292" style="stop-color:#000000"/>
	<stop  offset="0.9831" style="stop-color:#000000"/>
</linearGradient>
<g>
	<g>
		<g>
			<path class="st0" d="M38.3,61.1v51.3c0,1.8,1.4,3.2,3.2,3.2c1.8,0,3.2-1.4,3.2-3.2l0-51.3H38.3z"/>
			<path class="st0" d="M72.8,61.1l0,71.3c0,1.8,1.4,3.2,3.2,3.2c1.8,0,3.2-1.4,3.2-3.2l0-71.3H72.8z"/>
		</g>
		<g>
			<path class="st0" d="M107.3,61.1l0,51.3c0,1.8,1.4,3.2,3.2,3.2c1.8,0,3.2-1.4,3.2-3.2l0-51.3H107.3z"/>
			<path class="st0" d="M72.8,61.1l0,71.3c0,1.8,1.4,3.2,3.2,3.2c1.8,0,3.2-1.4,3.2-3.2l0-71.3H72.8z"/>
		</g>
		<g>
			<g class="st1">
				<g class="st1">
					<defs>
						<path id="SVGID_3_" class="st1" d="M118.9,34.9L118.5,60c0,6.3-4.2,12.6-12.5,17.4c-16.7,9.7-43.8,9.7-60.6,0
							C37,72.6,32.8,66.2,32.8,59.8l0.3-25.1c0,6.4,4.2,12.8,12.6,17.7c16.8,9.7,43.9,9.7,60.6,0C114.7,47.6,118.8,41.3,118.9,34.9z
							"/>
					</defs>
					<use xlink:href="#SVGID_3_"  style="overflow:visible;fill:#1A4B6C;"/>
					<clipPath id="SVGID_4_">
						<use xlink:href="#SVGID_3_"  style="overflow:visible;"/>
					</clipPath>
					<g class="st2">
						<path class="st3" d="M118.9,34.9L118.5,60c0,6.3-4.2,12.6-12.5,17.4c-5.6,3.2-12.3,5.4-19.4,6.5L87,58.8
							c7.1-1.1,13.8-3.2,19.4-6.5C114.7,47.6,118.8,41.3,118.9,34.9L118.9,34.9z"/>
						<path class="st4" d="M87,58.8l-0.3,25.1c-7,1.1-14.5,1.1-21.6,0l0.3-25.1C72.5,59.9,80,59.9,87,58.8L87,58.8z"/>
						<path class="st5" d="M65.5,58.9l-0.3,25.1c-7.2-1.1-14-3.2-19.7-6.5c-1.1-0.7-2.2-1.4-3.2-2.1l0.3-25.1c1,0.7,2.1,1.4,3.2,2.1
							C51.5,55.6,58.3,57.8,65.5,58.9L65.5,58.9z"/>
						<path class="st3" d="M33.7,38.7c-0.4-1.3-0.6-2.7-0.6-4l-0.3,25.1c0,1.3,0.2,2.7,0.6,4c1.2,4.1,4.1,8.1,8.9,11.6l0.3-25.1
							C37.8,46.9,34.9,42.9,33.7,38.7z"/>
					</g>
				</g>
				<g>
					<path class="st6" d="M106.2,17.3c16.8,9.7,16.9,25.4,0.2,35.1s-43.8,9.7-60.6,0C29,42.7,28.9,27,45.6,17.3S89.4,7.6,106.2,17.3
						z"/>
				</g>
				<g>
					<path class="st7" d="M97.1,22.6c11.7,6.8,11.8,17.7,0.1,24.5c-11.6,6.8-30.6,6.8-42.3,0c-11.7-6.8-11.8-17.7-0.1-24.5
						C66.4,15.8,85.4,15.8,97.1,22.6z"/>
				</g>
			</g>
		</g>
	</g>
	<path class="st8" d="M106.4,56.5c-0.9,0.5-1.9,1-2.9,1.5v5.8c0.9-0.4,1.7-0.9,2.6-1.4c8.3-4.8,12.6-11,12.7-17.3l0.1-4.7
		C118.2,46.3,114.1,52.1,106.4,56.5z"/>
	<path class="st8" d="M106.4,68.2c-0.9,0.5-1.9,1-2.9,1.5v5.8c0.9-0.4,1.7-0.9,2.6-1.4c8.3-4.8,12.6-11,12.7-17.3l0.1-4.7
		C118.2,58,114.1,63.7,106.4,68.2z"/>
</g>
</svg>
