<?xml version="1.0" encoding="utf-8"?>
<!-- Generator: Adobe Illustrator 25.0.0, SVG Export Plug-In . SVG Version: 6.00 Build 0)  -->
<svg version="1.1" id="Capa_1" xmlns="http://www.w3.org/2000/svg" xmlns:xlink="http://www.w3.org/1999/xlink" x="0px" y="0px"
	 viewBox="0 0 150 150" style="enable-background:new 0 0 150 150;" xml:space="preserve">
<style type="text/css">
	.Sombra_x0020_paralela{fill:none;}
	.Neón_x0020_azul_x0020_grueso{fill:none;stroke:#0073BC;stroke-width:10;stroke-linecap:round;stroke-linejoin:round;}
	.Agua_x0020_iluminada{fill:url(#SVGID_1_);stroke:#FFFFFF;stroke-width:0.25;stroke-miterlimit:1;}
	.Resalte_x0020_en_x0020_negro_x0020_{fill:url(#SVGID_2_);stroke:#FFFFFF;stroke-width:0.3629;stroke-miterlimit:1;}
	.Coco_GS{fill-rule:evenodd;clip-rule:evenodd;fill:#FFDD00;}
	.st0{fill:#322F34;}
	.st1{enable-background:new    ;}
	.st2{clip-path:url(#SVGID_4_);}
	.st3{fill:#FDB013;}
	.st4{fill:#FFBB33;}
	.st5{opacity:0.2;}
	.st6{fill:#312E33;}
	.st7{opacity:0.2;fill:#F2F0ED;}
</style>
<linearGradient id="SVGID_1_" gradientUnits="userSpaceOnUse" x1="0" y1="0" x2="6.123234e-17" y2="-1">
	<stop  offset="0" style="stop-color:#1D59F4"/>
	<stop  offset="0.618" style="stop-color:#2D65EE"/>
	<stop  offset="0.6292" style="stop-color:#3864F3"/>
	<stop  offset="0.9831" style="stop-color:#00DDFC"/>
</linearGradient>
<linearGradient id="SVGID_2_" gradientUnits="userSpaceOnUse" x1="0" y1="0" x2="6.123234e-17" y2="-1">
	<stop  offset="0" style="stop-color:#060606"/>
	<stop  offset="0.618" style="stop-color:#000000"/>
	<stop  offset="0.6292" style="stop-color:#000000"/>
	<stop  offset="0.9831" style="stop-color:#000000"/>
</linearGradient>
<g>
	<path class="st0" d="M84.2,139.9c-1.2,0-2.2-1-2.2-2.2l0-57.7c0-4.6-3.3-10.4-7.3-12.6l-3.8-2.2c-1.5-0.9-2.8-1.1-3.7-0.6
		c-0.9,0.5-1.4,1.8-1.4,3.5l0,57.7c0,1.2-1,2.2-2.2,2.2l0,0c-1.2,0-2.2-1-2.2-2.2l0-57.7c0-3.4,1.3-6.1,3.6-7.4
		c2.3-1.3,5.3-1.1,8.2,0.6l3.8,2.2c5.4,3.1,9.5,10.4,9.5,16.5l0,57.7C86.4,138.9,85.4,139.9,84.2,139.9z"/>
	<g>
		<g class="st1">
			<g class="st1">
				<defs>
					<path id="SVGID_3_" class="st1" d="M103.8,62.2l-0.2,5.5c0,4.4-2.9,8.8-8.7,12.1c-11.6,6.8-30.5,6.8-42.2,0
						c-5.9-3.4-8.8-7.9-8.8-12.3l0.2-5.5c0,4.5,2.9,8.9,8.8,12.3c11.7,6.8,30.6,6.8,42.2,0C100.9,71,103.8,66.6,103.8,62.2z"/>
				</defs>
				<use xlink:href="#SVGID_3_"  style="overflow:visible;fill:#EA6060;"/>
				<clipPath id="SVGID_4_">
					<use xlink:href="#SVGID_3_"  style="overflow:visible;"/>
				</clipPath>
				<g class="st2">
					<path class="st3" d="M103.8,62.2l-0.2,5.5c0,4.4-2.9,8.8-8.7,12.1c-3.9,2.2-8.6,3.8-13.5,4.5l0.2-5.5c5-0.8,9.6-2.3,13.5-4.5
						C100.9,71,103.8,66.6,103.8,62.2L103.8,62.2z"/>
					<path class="st3" d="M81.6,78.8l-0.2,5.5c-4.9,0.7-10.1,0.8-15,0l0.2-5.5C71.5,79.6,76.7,79.6,81.6,78.8L81.6,78.8z"/>
					<path class="st3" d="M66.6,78.8l-0.2,5.5c-5-0.7-9.8-2.3-13.7-4.5c-0.8-0.5-1.5-0.9-2.2-1.4l0.2-5.5c0.7,0.5,1.4,1,2.2,1.4
						C56.9,76.6,61.6,78.1,66.6,78.8L66.6,78.8z"/>
					<path class="st3" d="M44.5,64.8c-0.3-0.9-0.4-1.9-0.4-2.8l-0.2,5.5c0,0.9,0.1,1.9,0.4,2.8c0.8,2.9,2.9,5.7,6.2,8.1l0.2-5.5
						C47.4,70.5,45.3,67.7,44.5,64.8z"/>
				</g>
			</g>
			<g>
				<path class="st4" d="M95,49.9c11.7,6.8,11.8,17.7,0.1,24.5c-11.6,6.8-30.5,6.8-42.2,0c-11.7-6.8-11.8-17.7-0.1-24.5
					C64.4,43.1,83.3,43.1,95,49.9z"/>
			</g>
		</g>
	</g>
	<g>
		<path class="st4" d="M100.4,59.7V35.5C100.4,20.9,88.4,9,73.8,9l0,0C59.2,9,47.3,20.9,47.3,35.5v24.2H100.4z"/>
		<g>
			<path class="st3" d="M92.7,70.6c-1.9,1.1-4,2-6.3,2.7c-1.4,0.4-2.9,0.8-4.5,1.1c-5.2,1-10.8,0.9-16,0c-1.5-0.3-3-0.6-4.5-1.1
				c-2.3-0.7-4.4-1.6-6.3-2.7c-10.4-6-10.4-15.7-0.1-21.7c10.3-6,27.1-6,37.5,0C102.9,54.9,103,64.6,92.7,70.6z"/>
		</g>
	</g>
	<g class="st5">
		<path class="st6" d="M65.9,50.2l17.9-18.4l-22.3-1l0,28.1l0,0v14.5c1.4,0.4,3,0.8,4.5,1.1V57h0V50.2z"/>
		<path class="st6" d="M86.4,57l0-13.5l0-6.6L74,50.5v11.4l7.9,4.6v7.9c1.5-0.3,3-0.6,4.5-1.1L86.4,57L86.4,57z"/>
	</g>
	<path class="st7" d="M66.3,29.1C62,34.2,56,36.4,52.9,33.8c-3.2-2.6-2.3-8.9,2-14.1c4.3-5.2,10.3-7.3,13.4-4.7
		C71.4,17.5,70.6,23.9,66.3,29.1z"/>
</g>
</svg>
