<?xml version="1.0" encoding="utf-8"?>
<!-- Generator: Adobe Illustrator 25.0.0, SVG Export Plug-In . SVG Version: 6.00 Build 0)  -->
<svg version="1.1" id="Capa_1" xmlns="http://www.w3.org/2000/svg" xmlns:xlink="http://www.w3.org/1999/xlink" x="0px" y="0px"
	 viewBox="0 0 150 150" style="enable-background:new 0 0 150 150;" xml:space="preserve">
<style type="text/css">
	.st0{fill:#778D9A;}
	.st1{fill:#DCE2E5;}
	.st2{fill:#B4CDD2;}
	.st3{fill:#484246;}
</style>
<g>
	<path class="st0" d="M133.3,93.5H17.2v11.9h0c-0.4,8.9,5.3,17.8,17.1,24.6c22.7,13.1,59.5,13.2,82.1,0.1
		c11.3-6.6,17-15.2,16.9-23.8l0,0V93.5z"/>
	
		<ellipse transform="matrix(5.421390e-03 -1 1 5.421390e-03 -18.6911 168.2226)" class="st1" cx="75.2" cy="93.5" rx="33.5" ry="58.1"/>
	
		<ellipse transform="matrix(5.423367e-03 -1 1 5.423367e-03 -18.6913 168.2227)" class="st2" cx="75.2" cy="93.5" rx="31.4" ry="54.4"/>
	<path class="st0" d="M131.5,42.5L19,38.6v46.8h0c-0.3,8.6,5.2,17.3,16.6,23.8c22,12.7,57.6,12.8,79.5,0.1c11-6.3,16.4-14.7,16.3-23
		l0,0V42.5z"/>
	
		<ellipse transform="matrix(5.420305e-03 -1 1 5.420305e-03 32.343 117.4646)" class="st2" cx="75.2" cy="42.5" rx="32.5" ry="56.2"/>
	
		<ellipse transform="matrix(5.420305e-03 -1 1 5.420305e-03 32.343 117.4646)" class="st1" cx="75.2" cy="42.5" rx="32.5" ry="56.2"/>
	
		<ellipse transform="matrix(5.419997e-03 -1 1 5.419997e-03 31.5238 114.3736)" class="st2" cx="73.3" cy="41.3" rx="31" ry="53.8"/>
	<path class="st3" d="M103.2,14.4L26.6,58.6C14.1,46.2,17,30,35.3,19.4C53.7,8.8,81.7,7.2,103.2,14.4z"/>
</g>
</svg>
