<?xml version="1.0" encoding="utf-8"?>
<!-- Generator: Adobe Illustrator 25.0.0, SVG Export Plug-In . SVG Version: 6.00 Build 0)  -->
<svg version="1.1" id="Capa_1" xmlns="http://www.w3.org/2000/svg" xmlns:xlink="http://www.w3.org/1999/xlink" x="0px" y="0px"
	 viewBox="0 0 150 150" style="enable-background:new 0 0 150 150;" xml:space="preserve">
<style type="text/css">
	.Sombra_x0020_paralela{fill:none;}
	.Neón_x0020_azul_x0020_grueso{fill:none;stroke:#0073BC;stroke-width:10;stroke-linecap:round;stroke-linejoin:round;}
	.Agua_x0020_iluminada{fill:url(#SVGID_1_);stroke:#FFFFFF;stroke-width:0.25;stroke-miterlimit:1;}
	.Resalte_x0020_en_x0020_negro_x0020_{fill:url(#SVGID_2_);stroke:#FFFFFF;stroke-width:0.3629;stroke-miterlimit:1;}
	.Coco_GS{fill-rule:evenodd;clip-rule:evenodd;fill:#FFDD00;}
	.st0{fill:#D7E0E9;}
	.st1{enable-background:new    ;}
	.st2{clip-path:url(#SVGID_3_);fill:#282A2E;}
	.st3{fill:#202225;}
	.st4{fill:#191B1D;}
	.st5{clip-path:url(#SVGID_4_);}
	.st6{fill:#282A2E;}
	.st7{fill:#35373C;}
</style>
<linearGradient id="SVGID_1_" gradientUnits="userSpaceOnUse" x1="0" y1="0" x2="6.123234e-17" y2="-1">
	<stop  offset="0" style="stop-color:#1D59F4"/>
	<stop  offset="0.618" style="stop-color:#2D65EE"/>
	<stop  offset="0.6292" style="stop-color:#3864F3"/>
	<stop  offset="0.9831" style="stop-color:#00DDFC"/>
</linearGradient>
<linearGradient id="SVGID_2_" gradientUnits="userSpaceOnUse" x1="0" y1="0" x2="6.123234e-17" y2="-1">
	<stop  offset="0" style="stop-color:#060606"/>
	<stop  offset="0.618" style="stop-color:#000000"/>
	<stop  offset="0.6292" style="stop-color:#000000"/>
	<stop  offset="0.9831" style="stop-color:#000000"/>
</linearGradient>
<g>
	<g>
		<g>
			<path class="st0" d="M87.8,143.6c-1.3,0-2.4-1.1-2.4-2.4l0-73.1c0-5.9-4.3-13.5-9.5-16.4l-4.8-2.8c-2-1.2-3.9-1.4-5.2-0.7
				c-1.2,0.7-2,2.5-2,4.8l0,73.1c0,1.3-1.1,2.4-2.4,2.4s-2.4-1.1-2.4-2.4l0-73.1c0-4.2,1.5-7.3,4.3-8.9c2.8-1.6,6.3-1.3,9.9,0.7
				l4.8,2.8c6.6,3.8,11.8,12.9,11.8,20.5l0,73.1C90.2,142.5,89.2,143.6,87.8,143.6z"/>
		</g>
		<g>
			<g class="st1">
				<g class="st1">
					<defs>
						<path id="SVGID_5_" class="st1" d="M103.2,52.2l-0.2,8.2c0,4.2-2.7,8.3-8.2,11.5c-11,6.4-28.9,6.4-40,0
							c-5.6-3.2-8.4-7.4-8.3-11.7l0.2-8.2c0,4.2,2.8,8.4,8.3,11.7c11.1,6.4,29,6.4,40,0C100.5,60.5,103.2,56.4,103.2,52.2z"/>
					</defs>
					<use xlink:href="#SVGID_5_"  style="overflow:visible;fill:#1A4B6C;"/>
					<clipPath id="SVGID_3_">
						<use xlink:href="#SVGID_5_"  style="overflow:visible;"/>
					</clipPath>
					<path class="st2" d="M95,63.7c-3.7,2.1-8.1,3.5-12.8,4.3c-4.6,0.7-9.6,0.7-14.2,0c-4.7-0.7-9.2-2.1-13-4.3
						c-0.8-0.4-1.5-0.9-2.1-1.4c-3.1-2.3-5.1-4.9-5.9-7.6c-0.2-0.9-0.4-1.8-0.4-2.7l-0.2,8.2c0,0.9,0.1,1.8,0.4,2.7
						c0.8,2.7,2.7,5.4,5.9,7.6c0.7,0.5,1.4,0.9,2.1,1.4c3.7,2.1,8.2,3.6,13,4.3c4.7,0.7,9.6,0.7,14.2,0c4.7-0.7,9.1-2.1,12.8-4.3
						c5.5-3.2,8.2-7.3,8.2-11.5l0.2-8.2C103.2,56.4,100.5,60.5,95,63.7z"/>
				</g>
				<g>
					<path class="st3" d="M94.9,40.6C105.9,47,106,57.3,95,63.7s-28.9,6.4-40,0C44,57.3,43.9,47,54.9,40.6
						C65.9,34.2,83.8,34.2,94.9,40.6z"/>
				</g>
			</g>
		</g>
		<path class="st4" d="M51,31.3l-0.1,20.2c0,0.2,0,0.4,0,0.6c0,0.1,0,0.1,0,0.2c0,0.1,0,0.3,0.1,0.4c0,0.1,0,0.2,0,0.2
			c0,0.1,0.1,0.3,0.1,0.4c0,0.1,0,0.2,0.1,0.2c0,0,0,0.1,0,0.1c0,0.1,0.1,0.3,0.1,0.4c0,0,0,0,0,0c0.1,0.2,0.1,0.4,0.2,0.6
			c0,0,0,0.1,0.1,0.1c0.1,0.2,0.2,0.4,0.3,0.6c0,0,0,0,0,0c0.1,0.2,0.2,0.4,0.3,0.6c0,0,0.1,0.1,0.1,0.1c0.1,0.2,0.2,0.4,0.4,0.6
			c0,0,0,0,0,0.1c0.1,0.2,0.2,0.3,0.4,0.5c0,0,0.1,0.1,0.1,0.1c0.1,0.2,0.3,0.4,0.5,0.5c0,0,0.1,0.1,0.1,0.1
			c0.1,0.2,0.3,0.3,0.5,0.5c0,0,0.1,0.1,0.1,0.1c0.2,0.2,0.4,0.3,0.6,0.5c0,0,0.1,0.1,0.1,0.1c0.2,0.1,0.3,0.3,0.5,0.4
			c0,0,0.1,0.1,0.1,0.1c0.2,0.1,0.4,0.3,0.6,0.4c0,0,0,0,0.1,0c0.2,0.1,0.4,0.3,0.6,0.4c0.1,0.1,0.2,0.1,0.3,0.2
			c0.3,0.2,0.6,0.4,0.9,0.5c0.4,0.2,0.7,0.4,1.1,0.6c0.1,0.1,0.2,0.1,0.3,0.2c0.3,0.1,0.6,0.3,0.9,0.4c0.1,0,0.2,0.1,0.3,0.1
			c0.4,0.2,0.8,0.3,1.2,0.5c0,0,0.1,0,0.1,0c0.4,0.1,0.7,0.3,1.1,0.4c0.1,0,0.2,0.1,0.4,0.1c0.3,0.1,0.6,0.2,0.9,0.3
			c0.1,0,0.2,0.1,0.3,0.1c0.4,0.1,0.9,0.2,1.3,0.3c0.1,0,0.1,0,0.2,0c0.4,0.1,0.8,0.2,1.1,0.2c0.1,0,0.3,0.1,0.4,0.1
			c0.3,0.1,0.7,0.1,1,0.2c0.1,0,0.2,0,0.2,0c0,0,0.1,0,0.1,0c0.4,0.1,0.9,0.1,1.3,0.2c0.1,0,0.1,0,0.2,0c0.4,0,0.8,0.1,1.1,0.1
			c0.1,0,0.3,0,0.4,0c0.3,0,0.7,0,1,0.1c0.1,0,0.3,0,0.4,0c0.5,0,0.9,0,1.4,0c0.1,0,0.1,0,0.2,0c0.4,0,0.8,0,1.2,0
			c0.1,0,0.3,0,0.4,0c0.3,0,0.7,0,1-0.1c0.1,0,0.3,0,0.4,0c0.5,0,0.9-0.1,1.3-0.1c0,0,0,0,0.1,0c0.4,0,0.8-0.1,1.3-0.2
			c0.1,0,0.1,0,0.2,0c0.1,0,0.2,0,0.2,0c0.3-0.1,0.7-0.1,1-0.2c0.1,0,0.3,0,0.4-0.1c0.4-0.1,0.9-0.2,1.3-0.3c0,0,0,0,0,0
			c0.4-0.1,0.8-0.2,1.3-0.3c0.1,0,0.2-0.1,0.4-0.1c0.3-0.1,0.6-0.2,0.9-0.3c0.1,0,0.2-0.1,0.4-0.1c0.4-0.1,0.8-0.3,1.2-0.4
			c0,0,0,0,0,0c0.4-0.2,0.8-0.3,1.2-0.5c0.1,0,0.2-0.1,0.3-0.2c0.3-0.1,0.6-0.3,0.8-0.4c0.1-0.1,0.2-0.1,0.3-0.2
			c0.4-0.2,0.7-0.4,1.1-0.6c4.6-2.7,6.9-6.2,6.9-9.7l0.1-20.4H51z"/>
		<g>
			<g class="st1">
				<g class="st1">
					<defs>
						<path id="SVGID_7_" class="st1" d="M100.9,21.2l0,24.6c0,3.8-2.5,7.7-7.6,10.6c-10.2,5.9-26.7,5.9-36.9,0
							c-5.1-3-7.7-6.9-7.7-10.8l0-24.6c0,3.9,2.6,7.8,7.7,10.8c10.2,5.9,26.8,5.9,36.9,0C98.3,28.9,100.9,25,100.9,21.2z"/>
					</defs>
					<use xlink:href="#SVGID_7_"  style="overflow:visible;fill:#1A4B6C;"/>
					<clipPath id="SVGID_4_">
						<use xlink:href="#SVGID_7_"  style="overflow:visible;"/>
					</clipPath>
					<g class="st5">
						<path class="st6" d="M93.3,31.8c-3.4,2-7.5,3.3-11.8,3.9c-4.3,0.7-8.8,0.7-13.1,0c-4.4-0.6-8.5-2-12-4c-0.7-0.4-1.3-0.8-2-1.3
							l0,24.6c0.6,0.4,1.3,0.9,2,1.3c3.4,2,7.6,3.3,12,4c4.3,0.6,8.8,0.6,13.1,0c4.3-0.7,8.4-2,11.8-3.9c5-2.9,7.6-6.8,7.6-10.6
							l0-24.6C100.9,25,98.3,28.9,93.3,31.8z"/>
						<path class="st6" d="M54.4,30.6c-2.9-2.1-4.7-4.5-5.4-7.1c-0.2-0.8-0.3-1.6-0.3-2.5l0,24.6c0,0.8,0.1,1.6,0.3,2.5
							c0.7,2.5,2.5,5,5.4,7.1L54.4,30.6z"/>
					</g>
				</g>
				<g>
					<path class="st7" d="M93.2,10.4c10.2,5.9,10.3,15.5,0.1,21.4c-10.2,5.9-26.7,5.9-36.9,0c-10.2-5.9-10.3-15.5-0.1-21.4
						C66.4,4.5,82.9,4.5,93.2,10.4z"/>
				</g>
				<g>
					<path class="st3" d="M87.7,13.6c7.2,4.2,7.2,10.9,0.1,15.1c-7.2,4.2-18.8,4.2-26,0c-7.2-4.2-7.2-10.9-0.1-15.1
						C68.9,9.4,80.5,9.4,87.7,13.6z"/>
				</g>
				<g>
					<path class="st4" d="M93,22.7c-0.5-2.2-2.3-4.4-5.2-6.1c-7.2-4.2-18.9-4.2-26,0c-2.9,1.7-4.6,3.8-5.2,6c-0.8-3.2,0.9-6.6,5.2-9
						c7.2-4.2,18.8-4.2,26,0C92,16.1,93.8,19.4,93,22.7z"/>
				</g>
			</g>
		</g>
	</g>
</g>
</svg>
