<?xml version="1.0" encoding="utf-8"?>
<!-- Generator: Adobe Illustrator 25.0.0, SVG Export Plug-In . SVG Version: 6.00 Build 0)  -->
<svg version="1.1" id="Capa_1" xmlns="http://www.w3.org/2000/svg" xmlns:xlink="http://www.w3.org/1999/xlink" x="0px" y="0px"
	 viewBox="0 0 150 150" style="enable-background:new 0 0 150 150;" xml:space="preserve">
<style type="text/css">
	.st0{fill:#778D9A;}
	.st1{fill:#4B6879;}
	.st2{fill:#B4CDD2;}
	.st3{fill:#22181C;}
	.st4{fill:#4ECE02;}
</style>
<polygon class="st0" points="90.4,120 7,71.8 7,58.8 145.1,75.4 145.1,88.4 "/>
<polygon class="st1" points="90.4,107 90.4,120 7,71.8 7,58.8 "/>
<polygon class="st2" points="90.4,107 7,58.8 61.7,27.2 145.1,75.4 "/>
<polygon class="st3" points="90.1,102.9 14,59 62,31.3 138.1,75.3 "/>
<g>
	<polygon class="st4" points="46.7,48.5 43.8,46.8 60.8,37 63.8,38.7 	"/>
	<polygon class="st4" points="26.8,60 23.9,58.4 40.9,48.5 43.8,50.2 	"/>
	<polygon class="st4" points="63.6,58.3 60.7,56.6 77.8,46.8 80.7,48.5 	"/>
	<polygon class="st4" points="43.7,69.8 40.8,68.1 57.8,58.3 60.7,60 	"/>
	<polygon class="st4" points="59.5,55.9 56.6,57.6 45,50.9 47.9,49.2 	"/>
	<polygon class="st4" points="78,45.3 75.1,46.9 63.5,40.2 66.4,38.5 	"/>
	<polygon class="st4" points="41.1,66.6 38.1,68.3 26.5,61.6 29.4,59.9 	"/>
</g>
<g>
	<polygon class="st4" points="70.5,62.3 67.6,60.6 84.6,50.7 87.5,52.4 	"/>
	<polygon class="st4" points="50.6,73.8 47.6,72.1 64.7,62.2 67.6,63.9 	"/>
	<polygon class="st4" points="87.4,72 84.5,70.3 101.5,60.5 104.4,62.2 	"/>
	<polygon class="st4" points="67.5,83.5 64.5,81.8 81.6,72 84.5,73.7 	"/>
	<polygon class="st4" points="83.3,69.6 80.4,71.3 68.8,64.6 71.7,62.9 	"/>
	<polygon class="st4" points="101.8,59 98.9,60.7 87.3,53.9 90.2,52.3 	"/>
	<polygon class="st4" points="64.8,80.3 61.9,82 50.3,75.3 53.2,73.6 	"/>
</g>
<g>
	<polygon class="st4" points="94.3,76 91.3,74.3 108.4,64.5 111.3,66.1 	"/>
	<polygon class="st4" points="74.3,87.5 71.4,85.8 88.4,76 91.4,77.7 	"/>
	<polygon class="st4" points="111.2,85.7 108.3,84 125.3,74.2 128.2,75.9 	"/>
	<polygon class="st4" points="91.2,97.2 88.3,95.6 105.3,85.7 108.3,87.4 	"/>
	<polygon class="st4" points="107.1,83.4 104.2,85 92.5,78.3 95.5,76.7 	"/>
	<polygon class="st4" points="125.6,72.7 122.7,74.4 111,67.7 113.9,66 	"/>
	<polygon class="st4" points="88.6,94 85.7,95.7 74.1,89 77,87.3 	"/>
</g>
</svg>
