<?xml version="1.0" encoding="utf-8"?>
<!-- Generator: Adobe Illustrator 25.0.0, SVG Export Plug-In . SVG Version: 6.00 Build 0)  -->
<svg version="1.1" id="Capa_1" xmlns="http://www.w3.org/2000/svg" xmlns:xlink="http://www.w3.org/1999/xlink" x="0px" y="0px"
	 viewBox="0 0 150 150" style="enable-background:new 0 0 150 150;" xml:space="preserve">
<style type="text/css">
	.Sombra_x0020_paralela{fill:none;}
	.Neón_x0020_azul_x0020_grueso{fill:none;stroke:#0073BC;stroke-width:10;stroke-linecap:round;stroke-linejoin:round;}
	.Agua_x0020_iluminada{fill:url(#SVGID_1_);stroke:#FFFFFF;stroke-width:0.25;stroke-miterlimit:1;}
	.Resalte_x0020_en_x0020_negro_x0020_{fill:url(#SVGID_2_);stroke:#FFFFFF;stroke-width:0.3629;stroke-miterlimit:1;}
	.Coco_GS{fill-rule:evenodd;clip-rule:evenodd;fill:#FFDD00;}
	.st0{fill:#322F34;}
	.st1{enable-background:new    ;}
	.st2{fill:#FDB013;}
	.st3{fill:#E7A111;}
	.st4{fill:#7EB033;}
	.st5{fill:#312E33;}
	.st6{fill:#FB6767;}
	.st7{fill:#DEDEDE;}
	.st8{opacity:0.3;fill:#FFFCDF;}
</style>
<linearGradient id="SVGID_1_" gradientUnits="userSpaceOnUse" x1="0" y1="0" x2="6.123234e-17" y2="-1">
	<stop  offset="0" style="stop-color:#1D59F4"/>
	<stop  offset="0.618" style="stop-color:#2D65EE"/>
	<stop  offset="0.6292" style="stop-color:#3864F3"/>
	<stop  offset="0.9831" style="stop-color:#00DDFC"/>
</linearGradient>
<linearGradient id="SVGID_2_" gradientUnits="userSpaceOnUse" x1="0" y1="0" x2="6.123234e-17" y2="-1">
	<stop  offset="0" style="stop-color:#060606"/>
	<stop  offset="0.618" style="stop-color:#000000"/>
	<stop  offset="0.6292" style="stop-color:#000000"/>
	<stop  offset="0.9831" style="stop-color:#000000"/>
</linearGradient>
<g>
	<g>
		<path class="st0" d="M15,58L15,58c-1.6,0-2.9-1.3-2.9-2.9l0-21.8c0-6.7,2.4-11.8,6.8-14.3c4.4-2.5,10-2.1,15.8,1.3L64,37.2
			c1.4,0.8,1.8,2.6,1.1,3.9c-0.8,1.4-2.6,1.8-3.9,1.1L31.9,25.3c-4-2.3-7.5-2.7-10.1-1.3c-2.5,1.5-3.9,4.8-3.9,9.4l0,21.8
			C17.8,56.7,16.6,58,15,58z"/>
		<g>
			<g class="st1">
				<path class="st2" d="M127.1,51.9c-1.1-0.6-2.3-1-3.6-1.1c-0.2,0-0.5,0-0.7,0c-0.3,0-0.5,0-0.8,0c-1.4,0.1-2.9,0.6-4.5,1.3
					c-0.5,0.2-1,0.5-1.6,0.8c-2,1.2-3.9,2.7-5.7,4.5c-5.9,6-10.1,15.1-10.1,22.8c0,2.5,0.5,4.6,1.2,6.3c0.4,0.9,0.9,1.6,1.4,2.2
					c0.3,0.3,0.6,0.6,0.9,0.9c0.3,0.3,0.7,0.5,1,0.7l-72-41.9c-2.8-1.6-4.6-5.2-4.6-10.1c0-1.2,0.1-2.4,0.3-3.6
					c1-6.7,4.7-14,9.7-19.1c1.8-1.9,3.8-3.5,5.8-4.6c0.4-0.3,0.9-0.5,1.3-0.7c2.2-1.1,4.4-1.6,6.3-1.5c1.4,0.1,2.6,0.4,3.7,1.1
					l47.7,27.7L127.1,51.9z"/>
				<g>
					<path class="st3" d="M115.9,53c8.7-5,15.8-1,15.9,9c0,10-7,22.3-15.8,27.3c-8.7,5-15.8,1-15.9-9
						C100.1,70.3,107.2,58.1,115.9,53z"/>
				</g>
				<g>
					<path class="st2" d="M115.9,59c5.9-3.4,10.7-0.7,10.7,6.1c0,6.8-4.7,15-10.6,18.4c-5.9,3.4-10.7,0.7-10.7-6.1
						C105.3,70.6,110,62.3,115.9,59z"/>
				</g>
			</g>
		</g>
		<g>
			<path class="st0" d="M134.8,127.9L134.8,127.9c-1.6,0-2.9-1.3-2.9-2.9l0-21.8c0-10.6-7.7-24-16.9-29.3c-1.4-0.8-1.8-2.6-1.1-3.9
				c0.8-1.4,2.6-1.8,3.9-1.1c10.9,6.3,19.8,21.7,19.8,34.3l0,21.8C137.7,126.6,136.4,127.9,134.8,127.9z"/>
		</g>
		<path class="st4" d="M120.6,48.1l-1.6-0.9c-2.9-1.7-6.9-1.4-11.2,1.1C99,53.3,92,65.6,92,75.6c0,3.1,0.7,5.7,1.9,7.5
			c0.2,0.4,0.5,0.7,0.8,1c0.3,0.3,0.6,0.6,0.9,0.9c0.3,0.3,0.7,0.5,1,0.7l1.6,0.9c-2.8-1.6-4.6-5.2-4.6-10.1c0-10,7-22.2,15.8-27.3
			c1.6-1,3.2-1.6,4.7-1.9c0.5-0.1,1-0.2,1.5-0.2c0.5,0,0.9-0.1,1.4,0C118.3,47.1,119.5,47.5,120.6,48.1L120.6,48.1
			C120.6,48.1,120.6,48.1,120.6,48.1z"/>
		<path class="st5" d="M107.8,40.7l-1.6-0.9c-2.9-1.7-6.9-1.4-11.2,1.1c-8.7,5-15.8,17.3-15.8,27.3c0,3.1,0.7,5.7,1.9,7.5
			c0.2,0.4,0.5,0.7,0.8,1c0.3,0.3,0.6,0.6,0.9,0.9c0.3,0.3,0.7,0.5,1,0.7l1.6,0.9c-2.8-1.6-4.6-5.2-4.6-10.1c0-10,7-22.2,15.8-27.3
			c1.6-1,3.2-1.6,4.7-1.9c0.5-0.1,1-0.2,1.5-0.2c0.5,0,0.9-0.1,1.4,0C105.5,39.7,106.8,40.1,107.8,40.7L107.8,40.7L107.8,40.7z"/>
		<path class="st6" d="M100.4,36.4l-1.6-0.9c-2.9-1.7-6.9-1.4-11.2,1.1c-8.7,5-15.8,17.3-15.8,27.3c0,3.1,0.7,5.7,1.9,7.5
			c0.2,0.4,0.5,0.7,0.8,1c0.3,0.3,0.6,0.6,0.9,0.9c0.3,0.3,0.7,0.5,1,0.7l1.6,0.9c-2.8-1.6-4.6-5.2-4.6-10.1c0-10,7-22.2,15.8-27.3
			c1.6-1,3.2-1.6,4.7-1.9c0.5-0.1,1-0.2,1.5-0.2c0.5,0,0.9-0.1,1.4,0C98.1,35.4,99.4,35.7,100.4,36.4L100.4,36.4L100.4,36.4z"/>
		<path class="st7" d="M113.7,44.1l-1.6-0.9c-2.9-1.7-6.9-1.4-11.2,1.1c-8.7,5-15.8,17.3-15.8,27.3c0,3.1,0.7,5.7,1.9,7.5
			c0.2,0.4,0.5,0.7,0.8,1c0.3,0.3,0.6,0.6,0.9,0.9s0.7,0.5,1,0.7l1.6,0.9c-2.8-1.6-4.6-5.2-4.6-10.1c0-10,7-22.2,15.8-27.3
			c1.6-1,3.2-1.6,4.7-1.9c0.5-0.1,1-0.2,1.5-0.2c0.5,0,0.9-0.1,1.4,0C111.4,43.1,112.6,43.5,113.7,44.1L113.7,44.1
			C113.7,44.1,113.7,44.1,113.7,44.1z"/>
	</g>
	<path class="st8" d="M117.5,52.2L45.2,10.5c-0.4,0.2-0.9,0.4-1.3,0.7c-2.1,1.2-4,2.8-5.8,4.6l72.2,41.7L117.5,52.2z"/>
</g>
</svg>
