<?xml version="1.0" encoding="utf-8"?>
<!-- Generator: Adobe Illustrator 25.0.0, SVG Export Plug-In . SVG Version: 6.00 Build 0)  -->
<svg version="1.1" id="Capa_1" xmlns="http://www.w3.org/2000/svg" xmlns:xlink="http://www.w3.org/1999/xlink" x="0px" y="0px"
	 viewBox="0 0 150 150" style="enable-background:new 0 0 150 150;" xml:space="preserve">
<style type="text/css">
	.st0{fill:#E5E1D6;}
	.st1{opacity:0.6;fill:#D6CFBF;}
	.st2{fill:#F0B324;}
	.st3{fill:#FFD040;}
	.st4{fill:#3C373D;}
	.st5{fill:#464047;}
	.st6{fill:#343135;}
</style>
<g>
	<path class="st0" d="M84.4,89.2l51.1-29.5c4.5-2.6,4.5-6.9,0-9.5c-4.5-2.6-11.9-2.6-16.4,0L68,79.7L84.4,89.2z"/>
	<path class="st1" d="M135.9,50.5c1.6,2.4,0.8,5.2-2.6,7.2L82.2,87.1l-13.6-7.8L68,79.7l16.4,9.5l51.1-29.5
		C139.9,57.1,140,53.1,135.9,50.5z"/>
	<g>
		<g id="Axonometric_Cube_20_">
			<polygon id="Cube_face_-_right_251_" class="st2" points="114.7,81.6 65.2,110.2 65.2,84.3 114.7,55.7 			"/>
			<polygon id="Cube_face_-_top_251_" class="st3" points="65.2,84.3 37,68.1 86.6,39.5 114.7,55.7 			"/>
		</g>
		<polygon id="Cube_face_-_right_248_" class="st4" points="128.1,73.9 114.1,81.9 114.1,56.1 128.1,48 		"/>
		<polygon id="Cube_face_-_top_248_" class="st5" points="114.1,56.1 86,39.8 99.9,31.8 128.1,48 		"/>
		<g id="Axonometric_Cube_19_">
			<polygon id="Cube_face_-_left_250_" class="st6" points="54.3,116.4 26.2,100.2 26.2,74.3 54.3,90.6 			"/>
			<polygon id="Cube_face_-_right_250_" class="st4" points="68.3,108.4 54.3,116.4 54.3,90.6 68.3,82.5 			"/>
			<polygon id="Cube_face_-_top_250_" class="st5" points="54.3,90.6 26.2,74.3 40.1,66.3 68.3,82.5 			"/>
		</g>
	</g>
	<path class="st0" d="M45.4,111.7l-14.6,8.4c-4.5,2.6-11.9,2.6-16.4,0c-4.5-2.6-4.5-6.9,0-9.5l14.6-8.4
		C33.8,98.2,43.5,103,45.4,111.7z"/>
	<path class="st1" d="M32.4,115.7c-4.1,2.4-10.8,2.4-14.9,0c-2.5-1.4-3.4-3.4-2.9-5.2c-4.7,2.7-4.7,7-0.2,9.6
		c4.5,2.6,11.9,2.6,16.4,0l14.6-8.4c-0.2-1-0.6-2-1-2.9L32.4,115.7z"/>
</g>
</svg>
