<?xml version="1.0" encoding="utf-8"?>
<!-- Generator: Adobe Illustrator 25.0.0, SVG Export Plug-In . SVG Version: 6.00 Build 0)  -->
<svg version="1.1" id="Capa_1" xmlns="http://www.w3.org/2000/svg" xmlns:xlink="http://www.w3.org/1999/xlink" x="0px" y="0px"
	 viewBox="0 0 150 150" style="enable-background:new 0 0 150 150;" xml:space="preserve">
<style type="text/css">
	.Sombra_x0020_paralela{fill:none;}
	.Neón_x0020_azul_x0020_grueso{fill:none;stroke:#0073BC;stroke-width:10;stroke-linecap:round;stroke-linejoin:round;}
	.Agua_x0020_iluminada{fill:url(#SVGID_1_);stroke:#FFFFFF;stroke-width:0.25;stroke-miterlimit:1;}
	.Resalte_x0020_en_x0020_negro_x0020_{fill:url(#SVGID_2_);stroke:#FFFFFF;stroke-width:0.3629;stroke-miterlimit:1;}
	.Coco_GS{fill-rule:evenodd;clip-rule:evenodd;fill:#FFDD00;}
	.st0{fill:#322F34;}
	.st1{enable-background:new    ;}
	.st2{clip-path:url(#SVGID_3_);enable-background:new    ;}
	.st3{fill:#A03737;}
	.st4{clip-path:url(#SVGID_4_);}
	.st5{fill:#FB6767;}
	.st6{clip-path:url(#SVGID_5_);}
	.st7{clip-path:url(#SVGID_6_);}
	.st8{fill:#D84B4B;}
	.st9{fill:#DEDEDE;}
</style>
<linearGradient id="SVGID_1_" gradientUnits="userSpaceOnUse" x1="0" y1="0" x2="6.123234e-17" y2="-1">
	<stop  offset="0" style="stop-color:#1D59F4"/>
	<stop  offset="0.618" style="stop-color:#2D65EE"/>
	<stop  offset="0.6292" style="stop-color:#3864F3"/>
	<stop  offset="0.9831" style="stop-color:#00DDFC"/>
</linearGradient>
<linearGradient id="SVGID_2_" gradientUnits="userSpaceOnUse" x1="0" y1="0" x2="6.123234e-17" y2="-1">
	<stop  offset="0" style="stop-color:#060606"/>
	<stop  offset="0.618" style="stop-color:#000000"/>
	<stop  offset="0.6292" style="stop-color:#000000"/>
	<stop  offset="0.9831" style="stop-color:#000000"/>
</linearGradient>
<g>
	<g>
		<g>
			<path class="st0" d="M97.2,116.7c-1,0-1.7-0.8-1.7-1.7l0-29.5c-1.9-0.4-5.5-1.5-5.5-5.5c0-1.1,0-3.3,5.7-10.1V59.3
				c0-1,0.8-1.7,1.7-1.7c1,0,1.7,0.8,1.7,1.7v11c0,0.4-0.1,0.8-0.4,1.1c-3.4,4-5.3,7-5.3,8.4c0,1.1,0.7,1.7,3.2,2.2
				c0.5,0.1,0.9,0.2,1.2,0.3c0.7,0.3,1.1,0.9,1.1,1.6l0,30.9C98.9,115.9,98.2,116.7,97.2,116.7z"/>
			<path class="st0" d="M59,138.7c-1,0-1.7-0.8-1.7-1.7l0-30.9c0-0.3,0.1-0.7,0.3-1c0.3-0.4,0.6-0.9,1-1.5c1.5-2,4.2-5.8,4.2-8.1
				c0-0.8-2.2-1.1-4-1.1c-0.9,0-1.7-0.8-1.7-1.7V54.5c0-1,0.8-1.7,1.7-1.7s1.7,0.8,1.7,1.7V91c3.8,0.4,5.7,1.9,5.7,4.5
				c0,3.5-2.9,7.5-4.9,10.2c-0.2,0.3-0.5,0.6-0.6,0.9l0,30.4C60.8,137.9,60,138.7,59,138.7z"/>
		</g>
		<g>
			<g>
				<g class="st1">
					<g class="st1">
						<defs>
							<path id="SVGID_9_" class="st1" d="M87.5,61.4l3.7,2.1c-0.8-0.4-1.5-1.1-2-2.1l-3.7-2.1C86.1,60.3,86.7,61,87.5,61.4z"/>
						</defs>
						<clipPath id="SVGID_3_">
							<use xlink:href="#SVGID_9_"  style="overflow:visible;"/>
						</clipPath>
						<g class="st2">
							<path class="st3" d="M89.2,61.5l-3.7-2.1c0.5,1,1.2,1.7,2,2.1l3.7,2.1C90.4,63.1,89.7,62.4,89.2,61.5L89.2,61.5z"/>
						</g>
					</g>
					<g class="st1">
						<defs>
							<path id="SVGID_11_" class="st1" d="M53.1,82.5l3.7,2.1c-1.8-1.1-2.2-5-0.6-9.8c0.4-1.1,0.8-2.2,1.3-3.2l-3.7-2.1
								c-0.5,1-0.9,2.1-1.3,3.2C50.9,77.5,51.2,81.4,53.1,82.5z"/>
						</defs>
						<clipPath id="SVGID_4_">
							<use xlink:href="#SVGID_11_"  style="overflow:visible;"/>
						</clipPath>
						<g class="st4">
							<path class="st5" d="M57.5,71.7l-3.7-2.1c-0.5,1-0.9,2.1-1.3,3.2c-1.6,4.7-1.3,8.7,0.6,9.8l3.7,2.1c-1.8-1.1-2.2-5-0.6-9.8
								C56.5,73.8,57,72.7,57.5,71.7L57.5,71.7z"/>
						</g>
					</g>
					<g class="st1">
						<defs>
							<path id="SVGID_13_" class="st1" d="M96.3,8.9l-3.7-2.1C87.9,4,81.3,4.4,74,8.6l3.7,2.1C84.9,6.5,91.6,6.1,96.3,8.9z"/>
						</defs>
						<clipPath id="SVGID_5_">
							<use xlink:href="#SVGID_13_"  style="overflow:visible;"/>
						</clipPath>
						<g class="st6">
							<path class="st5" d="M96.3,8.9l-3.7-2.1C87.9,4,81.3,4.4,74,8.6l3.7,2.1C84.9,6.5,91.6,6.1,96.3,8.9L96.3,8.9z"/>
						</g>
					</g>
					<g class="st1">
						<defs>
							<path id="SVGID_15_" class="st1" d="M77.7,10.7L74,8.6C59.5,17,47.8,37.3,47.8,53.9c0,7.2,2.3,12.6,6,15.6l3.7,2.1
								c-3.7-3.1-5.9-8.4-6-15.6C51.4,39.4,63.2,19.1,77.7,10.7z"/>
						</defs>
						<clipPath id="SVGID_6_">
							<use xlink:href="#SVGID_15_"  style="overflow:visible;"/>
						</clipPath>
						<g class="st7">
							<path class="st5" d="M77.7,10.7L74,8.6c-1.1,0.6-2.1,1.3-3.2,2.1l3.7,2.1C75.5,12.1,76.6,11.4,77.7,10.7L77.7,10.7z"/>
							<path class="st5" d="M74.5,12.8l-3.7-2.1c-2.4,1.7-4.7,3.8-6.9,6.1l3.7,2.1C69.7,16.6,72,14.5,74.5,12.8L74.5,12.8z"/>
							<path class="st5" d="M67.6,18.9l-3.7-2.1c-9.5,10-16.1,24.6-16.1,37.2c0,7.2,2.3,12.6,6,15.6l3.7,2.1
								c-3.7-3.1-5.9-8.4-6-15.6C51.5,43.5,58.1,28.9,67.6,18.9L67.6,18.9z"/>
						</g>
					</g>
					<g>
						<path class="st8" d="M77.7,10.7c-14.5,8.4-26.2,28.7-26.2,45.3c0,7.2,2.3,12.6,6,15.6c-0.5,1-0.9,2.1-1.3,3.2
							c-1.9,5.6-1.1,10.1,1.8,10c0.6,0,1.2-0.2,1.8-0.6c2.5-1.4,5.2-5.2,6.6-9.7c3.5-0.1,7.3-1.2,11.4-3.6c4.1-2.4,7.9-5.7,11.4-9.6
							c1.5,2.7,4.2,3.4,6.7,2c0.6-0.4,1.3-0.9,1.8-1.5c2.8-3.2,3.6-8.6,1.7-12c-0.4-0.7-0.8-1.2-1.3-1.7c3.7-7.3,5.9-15.2,5.9-22.5
							C103.9,9.1,92.1,2.4,77.7,10.7z"/>
					</g>
				</g>
			</g>
		</g>
	</g>
	<g>
		<polygon class="st9" points="68.8,49.6 63.5,52.6 63.5,44.1 68.8,41.1 		"/>
		<polygon class="st9" points="76.6,42 70.5,45.5 70.5,43.3 76.6,39.8 		"/>
		<polygon class="st9" points="91.8,36.4 78.5,44 78.5,35.5 91.8,27.8 		"/>
		<polygon class="st9" points="92,47.8 63.5,64.2 63.5,55.7 92,39.3 		"/>
	</g>
</g>
</svg>
