<?xml version="1.0" encoding="utf-8"?>
<!-- Generator: Adobe Illustrator 25.0.0, SVG Export Plug-In . SVG Version: 6.00 Build 0)  -->
<svg version="1.1" id="Capa_1" xmlns="http://www.w3.org/2000/svg" xmlns:xlink="http://www.w3.org/1999/xlink" x="0px" y="0px"
	 viewBox="0 0 150 150" style="enable-background:new 0 0 150 150;" xml:space="preserve">
<style type="text/css">
	.st0{fill:#C6C0B0;}
	.st1{enable-background:new    ;}
	.st2{fill:url(#SVGID_1_);}
	.st3{fill:url(#SVGID_2_);}
	.st4{fill:url(#SVGID_3_);}
	.st5{fill:url(#SVGID_4_);}
	.st6{fill:url(#SVGID_5_);}
	.st7{opacity:0.4;fill:url(#SVGID_6_);}
	.st8{fill:#B5B0A0;}
</style>
<path class="st0" d="M135.4,63V28.6c0-3-1.5-5.7-4.1-7.2c-2.6-1.5-5.7-1.5-8.3,0L97.2,36.2c-1.1,0.6-2.5,0.3-3.1-0.8
	s-0.3-2.5,0.8-3.1l25.7-14.9c4-2.3,8.9-2.3,12.9,0c4,2.3,6.4,6.5,6.4,11.2V63C140,65,135.4,65,135.4,63z"/>
<g class="st1">
	<linearGradient id="SVGID_1_" gradientUnits="userSpaceOnUse" x1="67.9719" y1="32.9567" x2="83.4913" y2="59.8371">
		<stop  offset="0" style="stop-color:#E5E1D6"/>
		<stop  offset="0.472" style="stop-color:#E0DBCE"/>
		<stop  offset="1" style="stop-color:#D6CFBF"/>
	</linearGradient>
	<path class="st2" d="M40.4,49.1l47.5-27.6c2-1.2,4.8-1,7.8,0.8c6.1,3.5,10.9,12,10.9,18.9c0,3.5-1.2,5.9-3.2,7L55.9,75.8L40.4,49.1
		z"/>
	<linearGradient id="SVGID_2_" gradientUnits="userSpaceOnUse" x1="73.4729" y1="29.8442" x2="88.9212" y2="56.6014">
		<stop  offset="0" style="stop-color:#598EC1"/>
		<stop  offset="1" style="stop-color:#467DAA"/>
	</linearGradient>
	<path class="st3" d="M68.1,33c2-1.2,4.8-1,7.8,0.8c6.1,3.5,10.9,12,10.9,18.9c0,3.5-1.2,5.9-3.2,7l3-1.8c2-1.1,3.2-3.6,3.2-7
		c0-6.9-4.9-15.4-10.9-18.9c-3-1.8-5.8-1.9-7.8-0.8L68.1,33L68.1,33z"/>
	<linearGradient id="SVGID_3_" gradientUnits="userSpaceOnUse" x1="63.5088" y1="35.6347" x2="78.957" y2="62.3919">
		<stop  offset="0" style="stop-color:#F0B324"/>
		<stop  offset="1" style="stop-color:#D28D05"/>
	</linearGradient>
	<path class="st4" d="M58.1,38.8c2-1.2,4.8-1,7.8,0.8c6.1,3.5,10.9,12,10.9,18.9c0,3.5-1.2,5.9-3.2,7l3-1.8c2-1.1,3.2-3.6,3.2-7
		c0-6.9-4.9-15.4-10.9-18.9c-3-1.8-5.8-1.9-7.8-0.8L58.1,38.8L58.1,38.8z"/>
	<linearGradient id="SVGID_4_" gradientUnits="userSpaceOnUse" x1="53.537" y1="41.4298" x2="68.9852" y2="68.1869">
		<stop  offset="0" style="stop-color:#417C63"/>
		<stop  offset="1" style="stop-color:#2E5947"/>
	</linearGradient>
	<path class="st5" d="M48.1,44.6c2-1.2,4.8-1,7.8,0.8c6.1,3.5,10.9,12,10.9,18.9c0,3.5-1.2,5.9-3.2,7l3-1.8c2-1.1,3.2-3.6,3.2-7
		c0-6.9-4.9-15.4-10.9-18.9c-3-1.8-5.8-1.9-7.8-0.8L48.1,44.6L48.1,44.6z"/>
	<linearGradient id="SVGID_5_" gradientUnits="userSpaceOnUse" x1="83.4379" y1="24.0532" x2="98.8862" y2="50.8104">
		<stop  offset="0" style="stop-color:#F0B324"/>
		<stop  offset="1" style="stop-color:#D28D05"/>
	</linearGradient>
	<path class="st6" d="M78,27.2c2-1.2,4.8-1,7.8,0.8c6.1,3.5,10.9,12,10.9,18.9c0,3.5-1.2,5.9-3.2,7l3-1.8c2-1.1,3.2-3.6,3.2-7
		c0-6.9-4.9-15.4-10.9-18.9c-3-1.8-5.8-1.9-7.8-0.8L78,27.2L78,27.2z"/>
	<linearGradient id="SVGID_6_" gradientUnits="userSpaceOnUse" x1="68.8693" y1="34.8334" x2="73.5219" y2="42.8921">
		<stop  offset="0" style="stop-color:#E5E1D6"/>
		<stop  offset="0.1083" style="stop-color:#DDD9CF"/>
		<stop  offset="0.2767" style="stop-color:#C7C3BA"/>
		<stop  offset="0.4842" style="stop-color:#A3A098"/>
		<stop  offset="0.7226" style="stop-color:#716F6A"/>
		<stop  offset="0.9842" style="stop-color:#32312F"/>
		<stop  offset="1" style="stop-color:#2E2D2B"/>
	</linearGradient>
	<path class="st7" d="M46,58.8l55-31.8c-1.6-2-3.4-3.6-5.4-4.8c-1-0.6-2-1-2.9-1.2L41.3,50.7L46,58.8z"/>
	<path class="st0" d="M48.1,75c6.1,3.5,11,0.7,11-6.3c0-6.9-4.9-15.4-10.9-18.9c-6.1-3.5-11-0.7-11,6.3C37.2,63,42,71.5,48.1,75z"/>
	<path class="st8" d="M47.2,73.4c5,2.9,9.1,0.6,9.2-5.2c0-5.8-4.1-12.9-9.1-15.8c-5-2.9-9.1-0.6-9.2,5.2
		C38.1,63.4,42.2,70.5,47.2,73.4z"/>
</g>
<path class="st0" d="M10,135.4V96.8c0-9.5,5.1-18.4,13.4-23.2l23-13.3c1.8-1,4.3,2.9,2.3,4l-23,13.3c-6.9,4-11.1,11.3-11.1,19.2
	v38.6C14.6,137.4,10,137.6,10,135.4z"/>
</svg>
