<?xml version="1.0" encoding="utf-8"?>
<!-- Generator: Adobe Illustrator 25.0.0, SVG Export Plug-In . SVG Version: 6.00 Build 0)  -->
<svg version="1.1" id="Capa_1" xmlns="http://www.w3.org/2000/svg" xmlns:xlink="http://www.w3.org/1999/xlink" x="0px" y="0px"
	 viewBox="0 0 150 150" style="enable-background:new 0 0 150 150;" xml:space="preserve">
<style type="text/css">
	.Sombra_x0020_paralela{fill:none;}
	.Neón_x0020_azul_x0020_grueso{fill:none;stroke:#0073BC;stroke-width:10;stroke-linecap:round;stroke-linejoin:round;}
	.Agua_x0020_iluminada{fill:url(#SVGID_1_);stroke:#FFFFFF;stroke-width:0.25;stroke-miterlimit:1;}
	.Resalte_x0020_en_x0020_negro_x0020_{fill:url(#SVGID_2_);stroke:#FFFFFF;stroke-width:0.3629;stroke-miterlimit:1;}
	.Coco_GS{fill-rule:evenodd;clip-rule:evenodd;fill:#FFDD00;}
	.st0{fill:#191B1D;}
	.st1{fill:#202225;}
	.st2{enable-background:new    ;}
	.st3{fill:#282A2E;}
	.st4{fill:#35373C;}
	.st5{clip-path:url(#SVGID_3_);enable-background:new    ;}
	.st6{fill:#014040;}
	.st7{fill:#045049;}
	.st8{fill:#035951;}
	.st9{fill:#0A2F2F;}
	.st10{fill:#0D2626;}
	.st11{clip-path:url(#SVGID_4_);enable-background:new    ;}
	.st12{fill:#0E746B;}
	.st13{fill:#DEDEDE;}
	.st14{fill:#CDCDCD;}
</style>
<linearGradient id="SVGID_1_" gradientUnits="userSpaceOnUse" x1="0" y1="0" x2="6.123234e-17" y2="-1">
	<stop  offset="0" style="stop-color:#1D59F4"/>
	<stop  offset="0.618" style="stop-color:#2D65EE"/>
	<stop  offset="0.6292" style="stop-color:#3864F3"/>
	<stop  offset="0.9831" style="stop-color:#00DDFC"/>
</linearGradient>
<linearGradient id="SVGID_2_" gradientUnits="userSpaceOnUse" x1="0" y1="0" x2="6.123234e-17" y2="-1">
	<stop  offset="0" style="stop-color:#060606"/>
	<stop  offset="0.618" style="stop-color:#000000"/>
	<stop  offset="0.6292" style="stop-color:#000000"/>
	<stop  offset="0.9831" style="stop-color:#000000"/>
</linearGradient>
<g>
	<g>
		<g>
			<g>
				<path class="st0" d="M96.9,98.5c11.5,6.6,11.5,17.4,0.1,24c-11.4,6.6-29.9,6.6-41.4,0c-11.5-6.6-11.5-17.4-0.1-24
					C66.9,91.8,85.5,91.8,96.9,98.5z"/>
			</g>
			<g>
				<path class="st1" d="M105.5,112c-0.6-3.9-3.4-7.6-8.5-10.6c-11.5-6.6-30-6.6-41.4,0c-5,2.9-7.8,6.7-8.4,10.5
					c-0.7-4.8,2.1-9.7,8.4-13.4c11.4-6.6,29.9-6.6,41.4,0C103.3,102.2,106.2,107.1,105.5,112z"/>
			</g>
			<g>
				<g class="st2">
					<g>
						<polygon class="st1" points="114.2,119.3 114.2,126.3 80.1,146.1 80.1,139.1 						"/>
					</g>
					<g>
						<polygon class="st3" points="80.1,139.1 80.1,146.1 31.6,118.1 31.6,111.1 						"/>
					</g>
				</g>
			</g>
			<path class="st4" d="M103.8,97.2l-17.8-2.8c4,0.8,7.7,2.1,10.9,4c11.5,6.6,11.5,17.4,0.1,24c-11.4,6.6-29.9,6.6-41.4,0
				c-11.5-6.6-11.5-17.4-0.1-24c7-4.1,16.8-5.7,26-4.7l-15.8-2.5l-34.1,19.8l48.5,28l34.1-19.8L103.8,97.2z"/>
			<polygon class="st0" points="48.5,124.8 60.6,131.8 60.6,127.9 86.4,113 77.6,107.9 51.4,119.2 51.4,123.1 			"/>
			<g>
				<polygon class="st1" points="48.5,120.9 48.5,124.8 48.5,124.8 51.4,123.1 51.4,119.2 				"/>
			</g>
		</g>
		<g>
			<g class="st2">
				<g class="st2">
					<defs>
						<path id="SVGID_5_" class="st2" d="M104.6,102l-0.2,8.1c0,4.1-2.7,8.1-8,11.3c-10.8,6.3-28.3,6.3-39.1,0
							c-5.5-3.2-8.2-7.3-8.2-11.4l0.2-8.1c0,4.1,2.7,8.3,8.2,11.4c10.8,6.3,28.4,6.3,39.1,0C101.9,110.2,104.6,106.1,104.6,102z"/>
					</defs>
					<use xlink:href="#SVGID_5_"  style="overflow:visible;fill:#1A4B6C;"/>
					<clipPath id="SVGID_3_">
						<use xlink:href="#SVGID_5_"  style="overflow:visible;"/>
					</clipPath>
					<g class="st5">
						<path class="st6" d="M104.6,102l-0.2,8.1c0,4.1-2.7,8.1-8,11.3c-3.6,2.1-7.9,3.5-12.5,4.2l0.2-8.1c4.6-0.7,8.9-2.1,12.5-4.2
							C101.9,110.2,104.6,106.1,104.6,102L104.6,102z"/>
						<path class="st7" d="M84,117.5l-0.2,8.1c-4.6,0.7-9.4,0.7-13.9,0l0.2-8.1C74.7,118.2,79.5,118.2,84,117.5L84,117.5z"/>
						<path class="st8" d="M70.1,117.5l-0.2,8.1c-4.6-0.7-9.1-2.1-12.7-4.2c-0.7-0.4-1.4-0.9-2.1-1.3l0.2-8.1
							c0.6,0.5,1.3,0.9,2.1,1.3C61.1,115.4,65.5,116.8,70.1,117.5L70.1,117.5z"/>
						<path class="st6" d="M49.6,104.5c-0.2-0.9-0.4-1.7-0.4-2.6l-0.2,8.1c0,0.9,0.1,1.7,0.4,2.6c0.7,2.7,2.7,5.3,5.7,7.5l0.2-8.1
							C52.3,109.7,50.3,107.2,49.6,104.5z"/>
					</g>
				</g>
				<g>
					<path class="st9" d="M96.4,90.6c10.8,6.3,10.9,16.4,0.1,22.7s-28.3,6.3-39.1,0c-10.8-6.3-10.9-16.4-0.1-22.7
						S85.6,84.4,96.4,90.6z"/>
				</g>
			</g>
		</g>
		<path class="st10" d="M51.5,79.6L51.4,101c0,0.2,0,0.4,0,0.7c0,0.1,0,0.1,0,0.2c0,0.1,0,0.3,0.1,0.4c0,0.1,0,0.2,0,0.2
			c0,0.1,0.1,0.3,0.1,0.4c0,0.1,0,0.2,0.1,0.2c0,0,0,0.1,0,0.2c0,0.1,0.1,0.3,0.1,0.4c0,0,0,0,0,0c0.1,0.2,0.1,0.4,0.2,0.6
			c0,0,0,0.1,0.1,0.1c0.1,0.2,0.2,0.4,0.3,0.6c0,0,0,0,0,0c0.1,0.2,0.2,0.4,0.3,0.6c0,0,0.1,0.1,0.1,0.1c0.1,0.2,0.2,0.4,0.4,0.6
			c0,0,0,0,0,0.1c0.1,0.2,0.3,0.4,0.4,0.5c0,0,0.1,0.1,0.1,0.1c0.2,0.2,0.3,0.4,0.5,0.6c0,0,0.1,0.1,0.1,0.1
			c0.2,0.2,0.3,0.3,0.5,0.5c0,0,0.1,0.1,0.1,0.1c0.2,0.2,0.4,0.4,0.6,0.5c0,0,0.1,0.1,0.1,0.1c0.2,0.2,0.4,0.3,0.6,0.5
			c0,0,0.1,0.1,0.1,0.1c0.2,0.2,0.4,0.3,0.6,0.4c0,0,0,0,0.1,0c0.2,0.1,0.4,0.3,0.6,0.4c0.1,0.1,0.2,0.1,0.3,0.2
			c0.3,0.2,0.6,0.4,0.9,0.6c0.4,0.2,0.8,0.4,1.2,0.6c0.1,0.1,0.2,0.1,0.3,0.2c0.3,0.1,0.6,0.3,0.9,0.4c0.1,0.1,0.2,0.1,0.3,0.2
			c0.4,0.2,0.8,0.3,1.2,0.5c0,0,0.1,0,0.1,0c0.4,0.1,0.8,0.3,1.2,0.4c0.1,0,0.3,0.1,0.4,0.1c0.3,0.1,0.7,0.2,1,0.3
			c0.1,0,0.2,0.1,0.4,0.1c0.4,0.1,0.9,0.2,1.4,0.3c0.1,0,0.1,0,0.2,0c0.4,0.1,0.8,0.2,1.2,0.3c0.1,0,0.3,0.1,0.4,0.1
			c0.4,0.1,0.7,0.1,1.1,0.2c0.1,0,0.2,0,0.3,0c0,0,0.1,0,0.1,0c0.5,0.1,0.9,0.1,1.4,0.2c0.1,0,0.2,0,0.2,0c0.4,0,0.8,0.1,1.2,0.1
			c0.1,0,0.3,0,0.4,0c0.4,0,0.7,0,1.1,0.1c0.1,0,0.3,0,0.4,0c0.5,0,1,0,1.4,0c0.1,0,0.1,0,0.2,0c0.4,0,0.9,0,1.3,0
			c0.1,0,0.3,0,0.4,0c0.4,0,0.7,0,1.1-0.1c0.1,0,0.3,0,0.4,0c0.5,0,1-0.1,1.4-0.1c0,0,0,0,0.1,0c0.5-0.1,0.9-0.1,1.3-0.2
			c0.1,0,0.1,0,0.2,0c0.1,0,0.2,0,0.3,0c0.3-0.1,0.7-0.1,1-0.2c0.1,0,0.3-0.1,0.4-0.1c0.5-0.1,0.9-0.2,1.4-0.3c0,0,0,0,0,0
			c0.4-0.1,0.9-0.2,1.3-0.3c0.1,0,0.3-0.1,0.4-0.1c0.3-0.1,0.7-0.2,1-0.3c0.1,0,0.3-0.1,0.4-0.1c0.4-0.1,0.9-0.3,1.3-0.5
			c0,0,0,0,0,0c0.4-0.2,0.8-0.3,1.2-0.5c0.1-0.1,0.2-0.1,0.4-0.2c0.3-0.1,0.6-0.3,0.9-0.4c0.1-0.1,0.2-0.1,0.3-0.2
			c0.4-0.2,0.8-0.4,1.1-0.6c4.9-2.8,7.3-6.6,7.3-10.3l0.1-21.6H51.5z"/>
		<g>
			<g class="st2">
				<g class="st2">
					<defs>
						<path id="SVGID_7_" class="st2" d="M104.5,20.1l-0.2,76c0,4.1-2.7,8.1-8,11.3c-10.8,6.3-28.3,6.3-39.1,0
							c-5.5-3.2-8.2-7.3-8.2-11.4l0.2-76c0,4.1,2.7,8.3,8.2,11.4c10.8,6.3,28.4,6.3,39.1,0C101.8,28.3,104.5,24.2,104.5,20.1z"/>
					</defs>
					<use xlink:href="#SVGID_7_"  style="overflow:visible;fill:#035951;"/>
					<clipPath id="SVGID_4_">
						<use xlink:href="#SVGID_7_"  style="overflow:visible;"/>
					</clipPath>
					<g class="st11">
						<path class="st6" d="M104.5,20.1l-0.2,76c0,4.1-2.7,8.1-8,11.3c-3.6,2.1-7.9,3.5-12.5,4.2l0.2-76c4.6-0.7,8.9-2.1,12.5-4.2
							C101.8,28.3,104.5,24.2,104.5,20.1L104.5,20.1z"/>
						<path class="st7" d="M84,35.5l-0.2,76c-4.6,0.7-9.4,0.7-13.9,0l0.2-76C74.6,36.2,79.4,36.2,84,35.5L84,35.5z"/>
						<path class="st8" d="M70,35.6l-0.2,76c-4.6-0.7-9.1-2.1-12.7-4.2c-0.7-0.4-1.4-0.9-2.1-1.3l0.2-76c0.6,0.5,1.3,0.9,2.1,1.3
							C61,33.5,65.4,34.9,70,35.6L70,35.6z"/>
						<path class="st6" d="M49.5,22.6c-0.2-0.9-0.4-1.7-0.4-2.6L49,96c0,0.9,0.1,1.7,0.4,2.6c0.7,2.7,2.7,5.3,5.7,7.5l0.2-76
							C52.2,27.8,50.3,25.2,49.5,22.6z"/>
					</g>
				</g>
				<g>
					<path class="st12" d="M96.3,8.7c10.8,6.3,10.9,16.4,0.1,22.7s-28.3,6.3-39.1,0C46.5,25.1,46.4,15,57.2,8.7
						C68,2.4,85.5,2.4,96.3,8.7z"/>
				</g>
				<g>
					<path class="st13" d="M92.2,27c-0.5,0.3-1,0.7-1.5,1c-0.5,0.3-1,0.5-1.5,0.8c-7.1,3.4-17.5,3.4-24.6,0c-0.5-0.2-1-0.5-1.5-0.8
						c-0.5-0.3-1-0.6-1.5-1c-5.7-4.1-5.7-10.1,0.1-14.2c0.4-0.3,0.9-0.6,1.3-0.8c0.5-0.3,1.1-0.6,1.7-0.9c7.1-3.3,17.2-3.3,24.3,0.1
						c0.5,0.3,1.1,0.5,1.6,0.8c0.5,0.3,1,0.6,1.4,0.9C97.7,17.1,97.8,22.9,92.2,27z"/>
				</g>
				<g>
					<g>
						<path class="st7" d="M92.2,27c-0.5,0.3-1,0.7-1.5,1c-0.5,0.3-1,0.5-1.5,0.8l-12.3-7.1l-3-1.7l-9.7-5.6
							c0.5-0.3,0.9-0.5,1.4-0.7c0.6-0.3,1.3-0.5,1.9-0.8l9.3,5.4l3,1.7L92.2,27z"/>
					</g>
					<g>
						<path class="st7" d="M90.4,13.9L79.9,20l-3,1.7l-12.3,7.1c-0.5-0.2-1-0.5-1.5-0.8c-0.5-0.3-1-0.6-1.5-1L73.9,20l3-1.7l9.9-5.7
							c1.1,0.3,2.1,0.7,3.1,1.2C90.1,13.7,90.3,13.8,90.4,13.9z"/>
					</g>
				</g>
			</g>
		</g>
		<g>
			<path class="st14" d="M96.2,18.8c-0.7-1.2-1.8-2.4-3.3-3.4c-0.4-0.3-0.9-0.6-1.4-0.9c-0.5-0.3-1-0.6-1.6-0.8
				c-7.1-3.3-17.2-3.3-24.3-0.1c-0.6,0.3-1.1,0.6-1.7,0.9c-0.5,0.3-0.9,0.6-1.3,0.8c-3.4,2.4-4.8,5.4-4.2,8.3
				c-2.1-3.6-1-7.7,3.3-10.8c0.4-0.3,0.9-0.6,1.3-0.8c0.5-0.3,1.1-0.6,1.7-0.9c7.1-3.3,17.2-3.3,24.3,0.1c0.5,0.3,1.1,0.5,1.6,0.8
				c0.5,0.3,1,0.6,1.4,0.9C94.4,14.7,95.8,16.7,96.2,18.8z"/>
		</g>
	</g>
	<path class="st14" d="M98.9,33.9c-0.7,0.6-1.6,1.1-2.5,1.6c-2.1,1.2-4.4,2.2-6.9,2.9v6.1c2.4-0.8,4.6-1.8,6.7-2.8
		c1.1-0.5,1.9-1,2.7-1.4V33.9z"/>
	<path class="st14" d="M98.9,44.3c-0.7,0.4-1.6,0.9-2.5,1.4c-2.1,1.2-4.4,2.1-6.9,2.7v14.3c2.5-0.7,4.8-1.7,6.9-2.9
		c0.9-0.5,1.7-1.1,2.5-1.6V44.3z"/>
	<g>
		<polygon class="st13" points="64.1,104.2 57.3,100.3 57.3,64.7 64.1,68.6 		"/>
		<polygon class="st13" points="64.1,60.7 57.3,56.8 57.3,62.7 64.1,66.6 		"/>
		<polygon class="st13" points="64.1,41 57.3,37.2 57.3,55.2 64.1,59.1 		"/>
	</g>
</g>
</svg>
