<?xml version="1.0" encoding="utf-8"?>
<!-- Generator: Adobe Illustrator 25.0.0, SVG Export Plug-In . SVG Version: 6.00 Build 0)  -->
<svg version="1.1" id="Capa_1" xmlns="http://www.w3.org/2000/svg" xmlns:xlink="http://www.w3.org/1999/xlink" x="0px" y="0px"
	 viewBox="0 0 150 150" style="enable-background:new 0 0 150 150;" xml:space="preserve">
<style type="text/css">
	.st0{fill:#99425B;}
	.st1{fill:#FFFFFF;}
</style>
<g>
	<path class="st0" d="M130.4,73.9c0-7.2-5.8-13-13-13c-0.5,0-0.9,0-1.4,0.1l17.9-52.8H57.9l17.9,52.7c-0.3,0-0.5,0-0.8,0
		c-7.2,0-13,5.8-13,13c0,5.8,3.8,10.7,9.1,12.4c-2.8,4.8-6.3,9.1-10.2,12.9c-5.4,5.1-11.6,9-18.3,11.3c-8-4.1-11.7-13.2-8.3-21.1
		c0.4-0.9,0.8-1.8,1.1-2.7c5.8-1.3,10.1-6.5,10.1-12.7c0-7.2-5.8-13-13-13s-13,5.8-13,13c0,4.4,2.2,8.3,5.6,10.7
		c-3.2,7.3-8,15-9.4,23.9c-1.8,10.7,0,22,9.2,28.4c21.5,14.9,44.8-9.2,69.5-15.3c8.9-2.2,18.7-1.8,26.6-6.4
		c5.9-3.4,9.8-9.1,10.9-15.4c1.1-6.3-0.5-12.5-4.2-17.6C129.4,79.9,130.5,77,130.4,73.9"/>
	<path class="st1" d="M128.4,99.3c-1,5.5-4.4,10.3-9.4,13.2c-4.6,2.7-10.2,3.5-16.1,4.3c-3.2,0.5-6.4,0.9-9.6,1.7
		c-8.4,2.1-16.6,6.1-24.5,10.1c-15.8,7.9-29.5,14.6-42.4,5.7c-9.4-6.5-9-18.6-7.9-25.3c1-6.1,3.8-11.8,6.4-17.3
		c0.5-0.9,0.9-1.9,1.4-2.8c1.3,0.5,2.8,0.9,4.2,1.1c-2.7,8.9,1.6,18.7,10.5,23.3l1.2,0.6l1.3-0.5c7.1-2.5,13.6-6.6,19.4-12
		c3.7-3.5,7-7.4,9.6-11.6c0.8,0.1,1.6,0.2,2.4,0.2c8.2,0,15-6.1,16.1-14.1c3.4-0.1,6.9-0.1,10.3,0c1.1,7.9,7.9,14.1,16.1,14.1
		c3.4,0,6.6-1.1,9.2-2.9C128.5,91,129.2,95.2,128.4,99.3L128.4,99.3z M32.4,64.2c5.4,0,9.8,4.4,9.8,9.8c0,2-0.6,3.8-1.6,5.3
		c-1.6,2.6-4.4,4.3-7.6,4.5c-0.2,0-0.4,0-0.7,0c-1.2,0-2.4-0.2-3.4-0.6c-2.2-0.8-4-2.4-5.1-4.4c-0.9-1.5-1.3-3.2-1.3-4.9
		C22.5,68.6,26.9,64.2,32.4,64.2L32.4,64.2z M65.1,73.9c0-4.9,3.6-9,8.4-9.7c0.5-0.1,1-0.1,1.5-0.1c3.2,0,6,1.5,7.8,3.8
		c0.5,0.6,0.8,1.2,1.1,1.9c0.6,1.3,0.9,2.7,0.9,4.2c0,0.8-0.1,1.6-0.3,2.3c-1,4-4.4,7.1-8.6,7.5c-0.3,0-0.7,0-1,0
		c-1.9,0-3.7-0.5-5.3-1.6C66.9,80.4,65.1,77.4,65.1,73.9L65.1,73.9z M106.2,62.2c-2.1,2-3.7,4.6-4.5,7.5c-3.7-0.1-7.4-0.1-11.1,0
		c-0.8-3.1-2.6-5.8-4.9-7.9l10.2-20.6L106.2,62.2z M62.3,11.4h67.2l-15.9,46.8c-0.7,0.2-1.4,0.4-2,0.6L96,26.8L80.2,58.6
		c-0.7-0.2-1.4-0.4-2.1-0.6L62.3,11.4z M127.3,73.9c0,1-0.1,1.9-0.4,2.8c-0.6,2.1-2,4-3.8,5.2c-1.7,1.2-3.6,1.8-5.6,1.8
		c-4.5,0-8.4-3.1-9.5-7.3c-0.2-0.8-0.3-1.7-0.3-2.6c0-1.3,0.3-2.6,0.8-3.8c0.3-0.6,0.6-1.2,0.9-1.7c1.8-2.6,4.8-4.3,8.2-4.3
		c0.3,0,0.6,0,0.9,0C123.3,64.6,127.3,68.8,127.3,73.9L127.3,73.9z M133.6,73.9c0-7.9-5.7-14.5-13.2-15.9l18-53H53.4l18,53.1
		c-7.3,1.6-12.7,8.1-12.7,15.8c0,5.8,3.1,10.9,7.7,13.8c-2.2,3.3-4.8,6.4-7.8,9.2c-4.8,4.5-10.1,7.9-15.8,10.1
		c-5.8-3.6-8.2-10.5-5.7-16.4l0.2-0.5l0.4-0.9C44,87.1,48.6,81.1,48.6,74c0-8.9-7.3-16.2-16.2-16.2S16.1,65.1,16.1,74
		c0,4.5,1.9,8.6,4.8,11.5c-0.6,1.2-1.1,2.4-1.7,3.5c-2.7,5.6-5.8,12-7,19c-2.3,14,1.4,25.2,10.6,31.5c5.5,3.8,11.2,5.3,16.8,5.3
		c10.7,0,21.4-5.4,32-10.6c7.6-3.8,15.5-7.7,23.2-9.6c2.9-0.7,5.9-1.1,9-1.6c6.2-0.9,12.7-1.8,18.4-5.1c6.6-3.8,11.2-10.3,12.4-17.7
		c1.1-6.3-0.2-12.7-3.5-18.1C132.8,79.8,133.6,76.9,133.6,73.9L133.6,73.9z"/>
</g>
</svg>
