<?xml version="1.0" encoding="utf-8"?>
<!-- Generator: Adobe Illustrator 25.0.0, SVG Export Plug-In . SVG Version: 6.00 Build 0)  -->
<svg version="1.1" id="Capa_1" xmlns="http://www.w3.org/2000/svg" xmlns:xlink="http://www.w3.org/1999/xlink" x="0px" y="0px"
	 viewBox="0 0 150 150" style="enable-background:new 0 0 150 150;" xml:space="preserve">
<style type="text/css">
	.Sombra_x0020_paralela{fill:none;}
	.Neón_x0020_azul_x0020_grueso{fill:none;stroke:#0073BC;stroke-width:10;stroke-linecap:round;stroke-linejoin:round;}
	.Agua_x0020_iluminada{fill:url(#SVGID_1_);stroke:#FFFFFF;stroke-width:0.25;stroke-miterlimit:1;}
	.Resalte_x0020_en_x0020_negro_x0020_{fill:url(#SVGID_2_);stroke:#FFFFFF;stroke-width:0.3629;stroke-miterlimit:1;}
	.Coco_GS{fill-rule:evenodd;clip-rule:evenodd;fill:#FFDD00;}
	.st0{enable-background:new    ;}
	.st1{fill:#E4E2DF;}
	.st2{fill:#B6B4B2;}
	.st3{fill:#7B7A78;}
	.st4{fill:#999896;}
	.st5{clip-path:url(#SVGID_3_);enable-background:new    ;}
	.st6{fill:#232528;}
	.st7{clip-path:url(#SVGID_4_);enable-background:new    ;}
	.st8{fill:#222326;}
	.st9{fill:#1B1C1E;}
	.st10{clip-path:url(#SVGID_5_);enable-background:new    ;}
	.st11{fill:#323439;}
	.st12{fill:#AFAEAC;}
	.st13{clip-path:url(#SVGID_6_);enable-background:new    ;}
	.st14{clip-path:url(#SVGID_7_);enable-background:new    ;}
	.st15{clip-path:url(#SVGID_8_);enable-background:new    ;}
	.st16{fill:#282A2E;}
</style>
<linearGradient id="SVGID_1_" gradientUnits="userSpaceOnUse" x1="0" y1="0" x2="6.123234e-17" y2="-1">
	<stop  offset="0" style="stop-color:#1D59F4"/>
	<stop  offset="0.618" style="stop-color:#2D65EE"/>
	<stop  offset="0.6292" style="stop-color:#3864F3"/>
	<stop  offset="0.9831" style="stop-color:#00DDFC"/>
</linearGradient>
<linearGradient id="SVGID_2_" gradientUnits="userSpaceOnUse" x1="0" y1="0" x2="6.123234e-17" y2="-1">
	<stop  offset="0" style="stop-color:#060606"/>
	<stop  offset="0.618" style="stop-color:#000000"/>
	<stop  offset="0.6292" style="stop-color:#000000"/>
	<stop  offset="0.9831" style="stop-color:#000000"/>
</linearGradient>
<g>
	<g>
		<g>
			<g>
				<g>
					<g class="st0">
						<g>
							<polygon class="st1" points="143.1,65.7 139.3,63.6 143.3,61.3 147,63.4 							"/>
						</g>
						<g>
							<polygon class="st2" points="134.9,61.5 131.2,59.3 139.3,63.6 143.1,65.7 							"/>
						</g>
						<g>
							<polygon class="st3" points="127.3,66.8 123.6,64.6 123.6,63.7 127.3,65.9 							"/>
						</g>
						<g>
							<polygon class="st1" points="127.3,65.9 123.6,63.7 131.2,59.3 134.9,61.5 							"/>
						</g>
						<g>
							<polygon class="st4" points="134.9,61.5 143.1,65.7 147,63.4 147,64.3 142.8,66.8 134.7,62.5 127.3,66.8 127.3,65.9 							
								"/>
						</g>
					</g>
				</g>
			</g>
			<g>
				<g>
					<g class="st0">
						<g>
							<polygon class="st1" points="136.4,61.9 132.7,59.7 136.6,57.4 140.3,59.6 							"/>
						</g>
						<g>
							<polygon class="st2" points="128.3,57.7 124.5,55.5 132.7,59.7 136.4,61.9 							"/>
						</g>
						<g>
							<polygon class="st3" points="120.6,62.9 116.9,60.8 116.9,59.9 120.6,62.1 							"/>
						</g>
						<g>
							<polygon class="st1" points="120.6,62.1 116.9,59.9 124.5,55.5 128.3,57.7 							"/>
						</g>
						<g>
							<polygon class="st4" points="128.3,57.7 136.4,61.9 140.3,59.6 140.3,60.5 136.1,62.9 128,58.7 120.6,62.9 120.6,62.1 
															"/>
						</g>
					</g>
				</g>
			</g>
			<g>
				<g>
					<g class="st0">
						<g>
							<polygon class="st1" points="129.7,58 126,55.9 129.9,53.6 133.7,55.7 							"/>
						</g>
						<g>
							<polygon class="st2" points="121.6,53.8 117.9,51.6 126,55.9 129.7,58 							"/>
						</g>
						<g>
							<polygon class="st3" points="114,59.1 110.2,56.9 110.2,56 114,58.2 							"/>
						</g>
						<g>
							<polygon class="st1" points="114,58.2 110.2,56 117.9,51.6 121.6,53.8 							"/>
						</g>
						<g>
							<polygon class="st4" points="121.6,53.8 129.7,58 133.7,55.7 133.7,56.6 129.4,59.1 121.3,54.8 114,59.1 114,58.2 							"/>
						</g>
					</g>
				</g>
			</g>
			<g>
				<g>
					<g class="st0">
						<g>
							<polygon class="st1" points="123,54.2 119.3,52 123.3,49.7 127,51.9 							"/>
						</g>
						<g>
							<polygon class="st2" points="114.9,50 111.2,47.8 119.3,52 123,54.2 							"/>
						</g>
						<g>
							<polygon class="st3" points="107.3,55.2 103.6,53.1 103.6,52.2 107.3,54.4 							"/>
						</g>
						<g>
							<polygon class="st1" points="107.3,54.4 103.6,52.2 111.2,47.8 114.9,50 							"/>
						</g>
						<g>
							<polygon class="st4" points="114.9,50 123,54.2 127,51.9 127,52.8 122.7,55.2 114.6,51 107.3,55.2 107.3,54.4 							"/>
						</g>
					</g>
				</g>
			</g>
			<g>
				<g>
					<g class="st0">
						<g>
							<polygon class="st1" points="116.4,49.5 112.6,47.3 116.6,45 120.3,47.2 							"/>
						</g>
						<g>
							<polygon class="st2" points="108.3,45.2 104.5,43.1 112.6,47.3 116.4,49.5 							"/>
						</g>
						<g>
							<polygon class="st3" points="100.6,50.5 96.9,48.3 96.9,47.5 100.6,49.7 							"/>
						</g>
						<g>
							<polygon class="st1" points="100.6,49.7 96.9,47.5 104.5,43.1 108.3,45.2 							"/>
						</g>
						<g>
							<polygon class="st4" points="108.3,45.2 116.4,49.5 120.3,47.2 120.3,48.1 116.1,50.5 108,46.3 100.6,50.5 100.6,49.7 
															"/>
						</g>
					</g>
				</g>
			</g>
			<g>
				<g>
					<g class="st0">
						<g>
							<polygon class="st1" points="109.7,45.6 106,43.5 109.9,41.2 113.6,43.4 							"/>
						</g>
						<g>
							<polygon class="st2" points="101.6,41.4 97.9,39.2 106,43.5 109.7,45.6 							"/>
						</g>
						<g>
							<polygon class="st3" points="94,46.7 90.2,44.5 90.2,43.7 93.9,45.8 							"/>
						</g>
						<g>
							<polygon class="st1" points="93.9,45.8 90.2,43.7 97.9,39.2 101.6,41.4 							"/>
						</g>
						<g>
							<polygon class="st4" points="101.6,41.4 109.7,45.6 113.6,43.4 113.6,44.2 109.4,46.7 101.3,42.4 94,46.7 93.9,45.8 							
								"/>
						</g>
					</g>
				</g>
			</g>
			<g>
				<g>
					<g class="st0">
						<g>
							<polygon class="st1" points="103,41.8 99.3,39.6 103.2,37.3 107,39.5 							"/>
						</g>
						<g>
							<polygon class="st2" points="94.9,37.5 91.2,35.4 99.3,39.6 103,41.8 							"/>
						</g>
						<g>
							<polygon class="st3" points="87.3,42.8 83.6,40.6 83.6,39.8 87.3,42 							"/>
						</g>
						<g>
							<polygon class="st1" points="87.3,42 83.6,39.8 91.2,35.4 94.9,37.5 							"/>
						</g>
						<g>
							<polygon class="st4" points="94.9,37.5 103,41.8 107,39.5 107,40.4 102.7,42.8 94.6,38.6 87.3,42.8 87.3,42 							"/>
						</g>
					</g>
				</g>
			</g>
			<g>
				<g>
					<g class="st0">
						<g>
							<polygon class="st1" points="96.4,37.9 92.6,35.8 96.6,33.5 100.3,35.7 							"/>
						</g>
						<g>
							<polygon class="st2" points="88.2,33.7 84.5,31.5 92.6,35.8 96.4,37.9 							"/>
						</g>
						<g>
							<polygon class="st3" points="80.6,39 76.9,36.8 76.9,36 80.6,38.1 							"/>
						</g>
						<g>
							<polygon class="st1" points="80.6,38.1 76.9,36 84.5,31.5 88.2,33.7 							"/>
						</g>
						<g>
							<polygon class="st4" points="88.2,33.7 96.4,37.9 100.3,35.7 100.3,36.5 96.1,39 88,34.7 80.6,39 80.6,38.1 							"/>
						</g>
					</g>
				</g>
			</g>
		</g>
		<g>
			<g>
				<g>
					<g class="st0">
						<g>
							<polygon class="st1" points="6.7,65.7 10.5,63.6 6.5,61.3 2.8,63.4 							"/>
						</g>
						<g>
							<polygon class="st2" points="14.8,61.5 18.6,59.3 10.5,63.6 6.7,65.7 							"/>
						</g>
						<g>
							<polygon class="st3" points="22.5,66.8 26.2,64.6 26.2,63.7 22.5,65.9 							"/>
						</g>
						<g>
							<polygon class="st1" points="22.5,65.9 26.2,63.7 18.6,59.3 14.8,61.5 							"/>
						</g>
						<g>
							<polygon class="st4" points="14.8,61.5 6.7,65.7 2.8,63.4 2.8,64.3 7,66.8 15.1,62.5 22.5,66.8 22.5,65.9 							"/>
						</g>
					</g>
				</g>
			</g>
			<g>
				<g>
					<g class="st0">
						<g>
							<polygon class="st1" points="13.4,61.9 17.1,59.7 13.2,57.4 9.5,59.6 							"/>
						</g>
						<g>
							<polygon class="st2" points="21.5,57.7 25.2,55.5 17.1,59.7 13.4,61.9 							"/>
						</g>
						<g>
							<polygon class="st3" points="29.1,62.9 32.9,60.8 32.9,59.9 29.1,62.1 							"/>
						</g>
						<g>
							<polygon class="st1" points="29.1,62.1 32.9,59.9 25.2,55.5 21.5,57.7 							"/>
						</g>
						<g>
							<polygon class="st4" points="21.5,57.7 13.4,61.9 9.5,59.6 9.4,60.5 13.7,62.9 21.8,58.7 29.1,62.9 29.1,62.1 							"/>
						</g>
					</g>
				</g>
			</g>
			<g>
				<g>
					<g class="st0">
						<g>
							<polygon class="st1" points="20.1,58 23.8,55.9 19.8,53.6 16.1,55.7 							"/>
						</g>
						<g>
							<polygon class="st2" points="28.2,53.8 31.9,51.6 23.8,55.9 20.1,58 							"/>
						</g>
						<g>
							<polygon class="st3" points="35.8,59.1 39.5,56.9 39.5,56 35.8,58.2 							"/>
						</g>
						<g>
							<polygon class="st1" points="35.8,58.2 39.5,56 31.9,51.6 28.2,53.8 							"/>
						</g>
						<g>
							<polygon class="st4" points="28.2,53.8 20.1,58 16.1,55.7 16.1,56.6 20.4,59.1 28.5,54.8 35.8,59.1 35.8,58.2 							"/>
						</g>
					</g>
				</g>
			</g>
			<g>
				<g>
					<g class="st0">
						<g>
							<polygon class="st1" points="26.7,54.2 30.5,52 26.5,49.7 22.8,51.9 							"/>
						</g>
						<g>
							<polygon class="st2" points="34.8,50 38.6,47.8 30.5,52 26.7,54.2 							"/>
						</g>
						<g>
							<polygon class="st3" points="42.5,55.2 46.2,53.1 46.2,52.2 42.5,54.4 							"/>
						</g>
						<g>
							<polygon class="st1" points="42.5,54.4 46.2,52.2 38.6,47.8 34.8,50 							"/>
						</g>
						<g>
							<polygon class="st4" points="34.8,50 26.7,54.2 22.8,51.9 22.8,52.8 27,55.2 35.1,51 42.5,55.2 42.5,54.4 							"/>
						</g>
					</g>
				</g>
			</g>
			<g>
				<g>
					<g class="st0">
						<g>
							<polygon class="st1" points="33.4,49.5 37.1,47.3 33.2,45 29.5,47.2 							"/>
						</g>
						<g>
							<polygon class="st2" points="41.5,45.2 45.2,43.1 37.1,47.3 33.4,49.5 							"/>
						</g>
						<g>
							<polygon class="st3" points="49.2,50.5 52.9,48.3 52.9,47.5 49.2,49.7 							"/>
						</g>
						<g>
							<polygon class="st1" points="49.2,49.7 52.9,47.5 45.2,43.1 41.5,45.2 							"/>
						</g>
						<g>
							<polygon class="st4" points="41.5,45.2 33.4,49.5 29.5,47.2 29.5,48.1 33.7,50.5 41.8,46.3 49.2,50.5 49.2,49.7 							"/>
						</g>
					</g>
				</g>
			</g>
			<g>
				<g>
					<g class="st0">
						<g>
							<polygon class="st1" points="40.1,45.6 43.8,43.5 39.9,41.2 36.1,43.4 							"/>
						</g>
						<g>
							<polygon class="st2" points="48.2,41.4 51.9,39.2 43.8,43.5 40.1,45.6 							"/>
						</g>
						<g>
							<polygon class="st3" points="55.8,46.7 59.6,44.5 59.6,43.7 55.8,45.8 							"/>
						</g>
						<g>
							<polygon class="st1" points="55.8,45.8 59.6,43.7 51.9,39.2 48.2,41.4 							"/>
						</g>
						<g>
							<polygon class="st4" points="48.2,41.4 40.1,45.6 36.1,43.4 36.1,44.2 40.4,46.7 48.5,42.4 55.8,46.7 55.8,45.8 							"/>
						</g>
					</g>
				</g>
			</g>
			<g>
				<g>
					<g class="st0">
						<g>
							<polygon class="st1" points="46.8,41.8 50.5,39.6 46.5,37.3 42.8,39.5 							"/>
						</g>
						<g>
							<polygon class="st2" points="54.9,37.5 58.6,35.4 50.5,39.6 46.8,41.8 							"/>
						</g>
						<g>
							<polygon class="st3" points="62.5,42.8 66.2,40.6 66.2,39.8 62.5,42 							"/>
						</g>
						<g>
							<polygon class="st1" points="62.5,42 66.2,39.8 58.6,35.4 54.9,37.5 							"/>
						</g>
						<g>
							<polygon class="st4" points="54.9,37.5 46.8,41.8 42.8,39.5 42.8,40.4 47.1,42.8 55.2,38.6 62.5,42.8 62.5,42 							"/>
						</g>
					</g>
				</g>
			</g>
			<g>
				<g>
					<g class="st0">
						<g>
							<polygon class="st1" points="53.4,37.9 57.1,35.8 53.2,33.5 49.5,35.7 							"/>
						</g>
						<g>
							<polygon class="st2" points="61.5,33.7 65.3,31.5 57.1,35.8 53.4,37.9 							"/>
						</g>
						<g>
							<polygon class="st3" points="69.2,39 72.9,36.8 72.9,36 69.2,38.1 							"/>
						</g>
						<g>
							<polygon class="st1" points="69.2,38.1 72.9,36 65.3,31.5 61.5,33.7 							"/>
						</g>
						<g>
							<polygon class="st4" points="61.5,33.7 53.4,37.9 49.5,35.7 49.5,36.5 53.7,39 61.8,34.7 69.2,39 69.2,38.1 							"/>
						</g>
					</g>
				</g>
			</g>
		</g>
		<g>
			<g class="st0">
				<g class="st0">
					<defs>
						<path id="SVGID_13_" class="st0" d="M134.4,71.1l0,7.6c0,1.3-0.9,2.7-2.6,3.7l0-7.6C133.6,73.8,134.4,72.4,134.4,71.1z"/>
					</defs>
					<clipPath id="SVGID_3_">
						<use xlink:href="#SVGID_13_"  style="overflow:visible;"/>
					</clipPath>
					<g class="st5">
						<path class="st6" d="M134.4,71.1l0,7.6c0,1.3-0.9,2.7-2.6,3.7l0-7.6C133.6,73.8,134.4,72.4,134.4,71.1L134.4,71.1z"/>
					</g>
				</g>
				<g class="st0">
					<defs>
						<path id="SVGID_15_" class="st0" d="M14.1,78.6l0-7.6c0,1.4,0.9,2.7,2.7,3.7l0,7.6C15,81.3,14.1,80,14.1,78.6z"/>
					</defs>
					<clipPath id="SVGID_4_">
						<use xlink:href="#SVGID_15_"  style="overflow:visible;"/>
					</clipPath>
					<g class="st7">
						<path class="st6" d="M16.8,74.8l0,7.6c-1.8-1-2.7-2.4-2.7-3.7l0-7.6C14.1,72.4,15,73.8,16.8,74.8L16.8,74.8z"/>
					</g>
				</g>
				<g>
					<polygon class="st8" points="131.8,74.8 131.8,82.3 80.8,111.9 80.9,104.4 					"/>
				</g>
				<g>
					<polygon class="st9" points="68.1,104.4 68,111.9 16.7,82.3 16.8,74.8 					"/>
				</g>
				<g class="st0">
					<defs>
						<path id="SVGID_17_" class="st0" d="M80.9,104.4l0,7.6c-3.5,2-9.2,2.1-12.8,0l0-7.6C71.6,106.4,77.3,106.4,80.9,104.4z"/>
					</defs>
					<clipPath id="SVGID_5_">
						<use xlink:href="#SVGID_17_"  style="overflow:visible;"/>
					</clipPath>
					<g class="st10">
						<path class="st6" d="M80.9,104.4l0,7.6c-3.5,2-9.2,2.1-12.8,0l0-7.6C71.6,106.4,77.3,106.4,80.9,104.4L80.9,104.4z"/>
					</g>
				</g>
				<g>
					<path class="st11" d="M131.8,67.4c3.6,2.1,3.6,5.4,0,7.4l-50.9,29.6c-3.5,2-9.2,2.1-12.8,0L16.8,74.8c-3.5-2-3.6-5.4,0-7.4
						l50.9-29.6c3.5-2,9.3-2,12.8,0L131.8,67.4z"/>
				</g>
			</g>
		</g>
		<g>
			<g>
				<g class="st0">
					<g>
						<polygon class="st1" points="19.2,76.6 15.7,74.5 22.9,70.4 26.4,72.4 						"/>
					</g>
					<g>
						<polygon class="st12" points="11.6,89.4 8.1,87.3 15.7,74.5 19.2,76.6 						"/>
					</g>
					<g>
						<polygon class="st1" points="7.9,91.5 4.4,89.5 8.1,87.3 11.6,89.4 						"/>
					</g>
					<g>
						<polygon class="st3" points="7.9,92.3 4.4,90.3 4.4,89.5 7.9,91.5 						"/>
					</g>
					<g>
						<polygon class="st4" points="26.4,72.4 26.4,73.2 19.5,77.2 11.9,90 7.9,92.3 7.9,91.5 11.6,89.4 19.2,76.6 						"/>
					</g>
				</g>
			</g>
			<g>
				<g class="st0">
					<g>
						<polygon class="st1" points="25.7,80.3 22.2,78.3 29.4,74.1 32.9,76.1 						"/>
					</g>
					<g>
						<polygon class="st12" points="18.1,93.1 14.6,91.1 22.2,78.3 25.7,80.3 						"/>
					</g>
					<g>
						<polygon class="st1" points="14.4,95.3 10.8,93.2 14.6,91.1 18.1,93.1 						"/>
					</g>
					<g>
						<polygon class="st3" points="14.4,96.1 10.9,94 10.8,93.2 14.4,95.3 						"/>
					</g>
					<g>
						<polygon class="st4" points="32.9,76.1 32.9,77 26,81 18.4,93.8 14.4,96.1 14.4,95.3 18.1,93.1 25.7,80.3 						"/>
					</g>
				</g>
			</g>
			<g>
				<g class="st0">
					<g>
						<polygon class="st1" points="32.1,84.1 28.6,82 35.8,77.8 39.4,79.9 						"/>
					</g>
					<g>
						<polygon class="st12" points="24.5,96.9 21,94.8 28.6,82 32.1,84.1 						"/>
					</g>
					<g>
						<polygon class="st1" points="20.8,99 17.3,97 21,94.8 24.5,96.9 						"/>
					</g>
					<g>
						<polygon class="st3" points="20.8,99.8 17.3,97.8 17.3,97 20.8,99 						"/>
					</g>
					<g>
						<polygon class="st4" points="39.4,79.9 39.4,80.7 32.4,84.7 24.8,97.5 20.8,99.8 20.8,99 24.5,96.9 32.1,84.1 						"/>
					</g>
				</g>
			</g>
			<g>
				<g class="st0">
					<g>
						<polygon class="st1" points="38.6,87.8 35.1,85.7 42.3,81.5 45.8,83.6 						"/>
					</g>
					<g>
						<polygon class="st12" points="31,100.5 27.5,98.5 35.1,85.7 38.6,87.8 						"/>
					</g>
					<g>
						<polygon class="st1" points="27.3,102.7 23.8,100.7 27.5,98.5 31,100.5 						"/>
					</g>
					<g>
						<polygon class="st3" points="27.3,103.5 23.8,101.5 23.8,100.7 27.3,102.7 						"/>
					</g>
					<g>
						<polygon class="st4" points="45.8,83.6 45.8,84.4 38.9,88.4 31.3,101.2 27.3,103.5 27.3,102.7 31,100.5 38.6,87.8 						"/>
					</g>
				</g>
			</g>
			<g>
				<g class="st0">
					<g>
						<polygon class="st1" points="45.1,91.5 41.5,89.4 48.8,85.3 52.3,87.3 						"/>
					</g>
					<g>
						<polygon class="st12" points="37.5,104.3 34,102.2 41.5,89.4 45.1,91.5 						"/>
					</g>
					<g>
						<polygon class="st1" points="33.7,106.4 30.2,104.4 34,102.2 37.5,104.3 						"/>
					</g>
					<g>
						<polygon class="st3" points="33.7,107.2 30.2,105.2 30.2,104.4 33.7,106.4 						"/>
					</g>
					<g>
						<polygon class="st4" points="52.3,87.3 52.3,88.1 45.4,92.1 37.8,104.9 33.7,107.2 33.7,106.4 37.5,104.3 45.1,91.5 						"/>
					</g>
				</g>
			</g>
			<g>
				<g class="st0">
					<g>
						<polygon class="st1" points="51.5,95.2 48,93.2 55.2,89 58.7,91.1 						"/>
					</g>
					<g>
						<polygon class="st12" points="43.9,108 40.4,106 48,93.2 51.5,95.2 						"/>
					</g>
					<g>
						<polygon class="st1" points="40.2,110.2 36.7,108.1 40.4,106 43.9,108 						"/>
					</g>
					<g>
						<polygon class="st3" points="40.2,111 36.7,108.9 36.7,108.1 40.2,110.2 						"/>
					</g>
					<g>
						<polygon class="st4" points="58.7,91.1 58.7,91.9 51.8,95.9 44.2,108.7 40.2,111 40.2,110.2 43.9,108 51.5,95.2 						"/>
					</g>
				</g>
			</g>
			<g>
				<g class="st0">
					<g>
						<polygon class="st1" points="58,99 54.5,96.9 61.7,92.8 65.2,94.8 						"/>
					</g>
					<g>
						<polygon class="st12" points="50.4,111.8 46.9,109.7 54.5,96.9 58,99 						"/>
					</g>
					<g>
						<polygon class="st1" points="46.7,113.9 43.1,111.9 46.9,109.7 50.4,111.8 						"/>
					</g>
					<g>
						<polygon class="st3" points="46.7,114.7 43.2,112.7 43.1,111.9 46.7,113.9 						"/>
					</g>
					<g>
						<polygon class="st4" points="65.2,94.8 65.2,95.6 58.3,99.6 50.7,112.4 46.7,114.7 46.7,113.9 50.4,111.8 58,99 						"/>
					</g>
				</g>
			</g>
			<g>
				<g class="st0">
					<g>
						<polygon class="st1" points="64.4,102.7 60.9,100.7 68.1,96.5 71.7,98.6 						"/>
					</g>
					<g>
						<polygon class="st12" points="56.8,115.5 53.3,113.5 60.9,100.7 64.4,102.7 						"/>
					</g>
					<g>
						<polygon class="st1" points="53.1,117.7 49.6,115.6 53.3,113.5 56.8,115.5 						"/>
					</g>
					<g>
						<polygon class="st3" points="53.1,118.5 49.6,116.4 49.6,115.6 53.1,117.7 						"/>
					</g>
					<g>
						<polygon class="st4" points="71.7,98.6 71.7,99.4 64.7,103.4 57.1,116.2 53.1,118.5 53.1,117.7 56.8,115.5 64.4,102.7 						
							"/>
					</g>
				</g>
			</g>
		</g>
		<g>
			<g>
				<g class="st0">
					<g>
						<polygon class="st1" points="130.4,76.3 133.9,74.3 126.7,70.1 123.2,72.2 						"/>
					</g>
					<g>
						<polygon class="st12" points="138,89.1 141.5,87.1 133.9,74.3 130.4,76.3 						"/>
					</g>
					<g>
						<polygon class="st1" points="141.7,91.3 145.2,89.2 141.5,87.1 138,89.1 						"/>
					</g>
					<g>
						<polygon class="st3" points="141.7,92.1 145.2,90.1 145.2,89.2 141.7,91.3 						"/>
					</g>
					<g>
						<polygon class="st4" points="123.2,72.2 123.2,73 130.1,77 137.7,89.8 141.7,92.1 141.7,91.3 138,89.1 130.4,76.3 						"/>
					</g>
				</g>
			</g>
			<g>
				<g class="st0">
					<g>
						<polygon class="st1" points="124,80.1 127.5,78 120.3,73.9 116.7,75.9 						"/>
					</g>
					<g>
						<polygon class="st12" points="131.6,92.9 135.1,90.8 127.5,78 124,80.1 						"/>
					</g>
					<g>
						<polygon class="st1" points="135.3,95 138.8,93 135.1,90.8 131.6,92.9 						"/>
					</g>
					<g>
						<polygon class="st3" points="135.3,95.8 138.8,93.8 138.8,93 135.3,95 						"/>
					</g>
					<g>
						<polygon class="st4" points="116.7,75.9 116.7,76.7 123.7,80.7 131.3,93.5 135.3,95.8 135.3,95 131.6,92.9 124,80.1 						"/>
					</g>
				</g>
			</g>
			<g>
				<g class="st0">
					<g>
						<polygon class="st1" points="117.5,83.8 121,81.8 113.8,77.6 110.3,79.7 						"/>
					</g>
					<g>
						<polygon class="st12" points="125.1,96.6 128.6,94.6 121,81.8 117.5,83.8 						"/>
					</g>
					<g>
						<polygon class="st1" points="128.8,98.8 132.3,96.7 128.6,94.6 125.1,96.6 						"/>
					</g>
					<g>
						<polygon class="st3" points="128.8,99.6 132.3,97.5 132.3,96.7 128.8,98.8 						"/>
					</g>
					<g>
						<polygon class="st4" points="110.3,79.7 110.3,80.5 117.2,84.5 124.8,97.3 128.8,99.6 128.8,98.8 125.1,96.6 117.5,83.8 
													"/>
					</g>
				</g>
			</g>
			<g>
				<g class="st0">
					<g>
						<polygon class="st1" points="111,87.5 114.6,85.5 107.3,81.3 103.8,83.3 						"/>
					</g>
					<g>
						<polygon class="st12" points="118.6,100.3 122.1,98.3 114.6,85.5 111,87.5 						"/>
					</g>
					<g>
						<polygon class="st1" points="122.4,102.5 125.9,100.4 122.1,98.3 118.6,100.3 						"/>
					</g>
					<g>
						<polygon class="st3" points="122.4,103.3 125.9,101.2 125.9,100.4 122.4,102.5 						"/>
					</g>
					<g>
						<polygon class="st4" points="103.8,83.3 103.8,84.2 110.7,88.2 118.3,101 122.4,103.3 122.4,102.5 118.6,100.3 111,87.5 
													"/>
					</g>
				</g>
			</g>
			<g>
				<g class="st0">
					<g>
						<polygon class="st1" points="104.6,91.2 108.1,89.2 100.9,85 97.4,87.1 						"/>
					</g>
					<g>
						<polygon class="st12" points="112.2,104 115.7,102 108.1,89.2 104.6,91.2 						"/>
					</g>
					<g>
						<polygon class="st1" points="115.9,106.2 119.4,104.1 115.7,102 112.2,104 						"/>
					</g>
					<g>
						<polygon class="st3" points="115.9,107 119.4,105 119.4,104.1 115.9,106.2 						"/>
					</g>
					<g>
						<polygon class="st4" points="97.4,87.1 97.4,87.9 104.3,91.9 111.9,104.7 115.9,107 115.9,106.2 112.2,104 104.6,91.2 						
							"/>
					</g>
				</g>
			</g>
			<g>
				<g class="st0">
					<g>
						<polygon class="st1" points="98.1,95 101.6,93 94.4,88.8 90.9,90.8 						"/>
					</g>
					<g>
						<polygon class="st12" points="105.7,107.8 109.2,105.7 101.6,93 98.1,95 						"/>
					</g>
					<g>
						<polygon class="st1" points="109.4,109.9 113,107.9 109.2,105.7 105.7,107.8 						"/>
					</g>
					<g>
						<polygon class="st3" points="109.4,110.8 112.9,108.7 113,107.9 109.4,109.9 						"/>
					</g>
					<g>
						<polygon class="st4" points="90.9,90.8 90.9,91.6 97.8,95.6 105.4,108.4 109.4,110.8 109.4,109.9 105.7,107.8 98.1,95 						
							"/>
					</g>
				</g>
			</g>
			<g>
				<g class="st0">
					<g>
						<polygon class="st1" points="91.7,98.7 95.2,96.7 88,92.5 84.4,94.6 						"/>
					</g>
					<g>
						<polygon class="st12" points="99.3,111.5 102.8,109.5 95.2,96.7 91.7,98.7 						"/>
					</g>
					<g>
						<polygon class="st1" points="103,113.7 106.5,111.6 102.8,109.5 99.3,111.5 						"/>
					</g>
					<g>
						<polygon class="st3" points="103,114.5 106.5,112.5 106.5,111.6 103,113.7 						"/>
					</g>
					<g>
						<polygon class="st4" points="84.4,94.6 84.4,95.4 91.4,99.4 99,112.2 103,114.5 103,113.7 99.3,111.5 91.7,98.7 						"/>
					</g>
				</g>
			</g>
			<g>
				<g class="st0">
					<g>
						<polygon class="st1" points="85.2,102.5 88.7,100.5 81.5,96.3 78,98.3 						"/>
					</g>
					<g>
						<polygon class="st12" points="92.8,115.3 96.3,113.3 88.7,100.5 85.2,102.5 						"/>
					</g>
					<g>
						<polygon class="st1" points="96.5,117.4 100,115.4 96.3,113.3 92.8,115.3 						"/>
					</g>
					<g>
						<polygon class="st3" points="96.5,118.3 100,116.2 100,115.4 96.5,117.4 						"/>
					</g>
					<g>
						<polygon class="st4" points="78,98.3 78,99.1 84.9,103.1 92.5,115.9 96.5,118.3 96.5,117.4 92.8,115.3 85.2,102.5 						"/>
					</g>
				</g>
			</g>
		</g>
		<g>
			<g class="st0">
				<g class="st0">
					<defs>
						<path id="SVGID_19_" class="st0" d="M134.4,64.1l0,4.3c0,1.3-0.9,2.7-2.6,3.7l0-4.3C133.5,66.8,134.4,65.4,134.4,64.1z"/>
					</defs>
					<clipPath id="SVGID_6_">
						<use xlink:href="#SVGID_19_"  style="overflow:visible;"/>
					</clipPath>
					<g class="st13">
						<path class="st6" d="M134.4,64.1l0,4.3c0,1.3-0.9,2.7-2.6,3.7l0-4.3C133.5,66.8,134.4,65.4,134.4,64.1L134.4,64.1z"/>
					</g>
				</g>
				<g class="st0">
					<defs>
						<path id="SVGID_21_" class="st0" d="M14.1,68.4l0-4.3c0,1.4,0.9,2.7,2.7,3.7l0,4.3C15,71.1,14.1,69.7,14.1,68.4z"/>
					</defs>
					<clipPath id="SVGID_7_">
						<use xlink:href="#SVGID_21_"  style="overflow:visible;"/>
					</clipPath>
					<g class="st14">
						<path class="st6" d="M16.8,67.8l0,4.3c-1.8-1-2.7-2.4-2.7-3.7l0-4.3C14.1,65.4,15,66.8,16.8,67.8L16.8,67.8z"/>
					</g>
				</g>
				<g>
					<polygon class="st8" points="131.8,67.8 131.8,72.1 80.8,101.7 80.9,97.4 					"/>
				</g>
				<g>
					<polygon class="st9" points="68.1,97.4 68,101.7 16.8,72.1 16.8,67.8 					"/>
				</g>
				<g class="st0">
					<defs>
						<path id="SVGID_23_" class="st0" d="M80.9,97.4l0,4.3c-3.5,2-9.2,2.1-12.8,0l0-4.3C71.6,99.4,77.3,99.4,80.9,97.4z"/>
					</defs>
					<clipPath id="SVGID_8_">
						<use xlink:href="#SVGID_23_"  style="overflow:visible;"/>
					</clipPath>
					<g class="st15">
						<path class="st6" d="M80.9,97.4l0,4.3c-3.5,2-9.2,2.1-12.8,0l0-4.3C71.6,99.4,77.3,99.4,80.9,97.4L80.9,97.4z"/>
					</g>
				</g>
				<g>
					<path class="st11" d="M131.8,60.4c3.6,2.1,3.6,5.4,0,7.4L80.9,97.4c-3.5,2-9.2,2.1-12.8,0L16.8,67.8c-3.5-2-3.6-5.4,0-7.4
						l50.9-29.6c3.5-2,9.3-2,12.8,0L131.8,60.4z"/>
					<path class="st16" d="M74.5,96.1c-1.9,0-3.7-0.4-5-1.2L18.2,65.4c-0.9-0.5-1.3-1.1-1.3-1.3c0-0.2,0.3-0.7,1.2-1.3l50.9-29.6
						c1.3-0.7,3.1-1.2,5-1.2c1.9,0,3.7,0.4,5,1.2l51.3,29.6c0.9,0.5,1.3,1.1,1.3,1.3c0,0.2-0.3,0.7-1.2,1.3L79.4,95
						C78.2,95.7,76.4,96.1,74.5,96.1z"/>
				</g>
			</g>
		</g>
	</g>
	<g>
		<g>
			<g>
				<polygon class="st9" points="108.4,72.7 59.7,44.5 69.3,38.9 118.1,67.1 				"/>
			</g>
			<g>
				<polygon class="st9" points="99.3,77.9 50.5,49.8 56.3,46.5 105.1,74.6 				"/>
			</g>
			<g>
				<polygon class="st9" points="79.5,89.3 30.8,61.2 36.6,57.9 85.3,86 				"/>
			</g>
			<g>
				<g>
					<polygon class="st9" points="61,67.2 40.7,55.5 46.4,52.2 66.7,63.9 					"/>
				</g>
				<g>
					<polygon class="st9" points="89.4,83.6 69.1,71.9 74.9,68.6 95.2,80.3 					"/>
				</g>
			</g>
		</g>
	</g>
</g>
</svg>
