<?xml version="1.0" encoding="utf-8"?>
<!-- Generator: Adobe Illustrator 25.0.0, SVG Export Plug-In . SVG Version: 6.00 Build 0)  -->
<svg version="1.1" id="Capa_1" xmlns="http://www.w3.org/2000/svg" xmlns:xlink="http://www.w3.org/1999/xlink" x="0px" y="0px"
	 viewBox="0 0 150 150" style="enable-background:new 0 0 150 150;" xml:space="preserve">
<style type="text/css">
	.Sombra_x0020_paralela{fill:none;}
	.Neón_x0020_azul_x0020_grueso{fill:none;stroke:#0073BC;stroke-width:10;stroke-linecap:round;stroke-linejoin:round;}
	.Agua_x0020_iluminada{fill:url(#SVGID_1_);stroke:#FFFFFF;stroke-width:0.25;stroke-miterlimit:1;}
	.Resalte_x0020_en_x0020_negro_x0020_{fill:url(#SVGID_2_);stroke:#FFFFFF;stroke-width:0.3629;stroke-miterlimit:1;}
	.Coco_GS{fill-rule:evenodd;clip-rule:evenodd;fill:#FFDD00;}
	.st0{enable-background:new    ;}
	.st1{fill:#133952;}
	.st2{fill:#1A435E;}
	.st3{fill:#142B3A;}
	.st4{fill:#F2F0ED;}
	.st5{fill:#CDCDCD;}
	.st6{fill:#21597E;}
</style>
<linearGradient id="SVGID_1_" gradientUnits="userSpaceOnUse" x1="0" y1="0" x2="6.123234e-17" y2="-1">
	<stop  offset="0" style="stop-color:#1D59F4"/>
	<stop  offset="0.618" style="stop-color:#2D65EE"/>
	<stop  offset="0.6292" style="stop-color:#3864F3"/>
	<stop  offset="0.9831" style="stop-color:#00DDFC"/>
</linearGradient>
<linearGradient id="SVGID_2_" gradientUnits="userSpaceOnUse" x1="0" y1="0" x2="6.123234e-17" y2="-1">
	<stop  offset="0" style="stop-color:#060606"/>
	<stop  offset="0.618" style="stop-color:#000000"/>
	<stop  offset="0.6292" style="stop-color:#000000"/>
	<stop  offset="0.9831" style="stop-color:#000000"/>
</linearGradient>
<g>
	<g>
		<g class="st0">
			<g>
				<polygon class="st1" points="132.7,63.8 132.6,68.4 75.5,101.6 75.6,97 				"/>
			</g>
			<g>
				<polygon class="st2" points="75.6,97 75.5,101.6 18.1,68.4 18.2,63.9 				"/>
			</g>
			<g>
				<polygon class="st3" points="132.7,63.8 75.6,97 18.2,63.9 75.2,30.7 				"/>
			</g>
		</g>
	</g>
	<g>
		<g>
			<g class="st0">
				<g>
					<polygon class="st4" points="24.4,67.2 23.1,66.5 29.8,62.6 31.1,63.3 					"/>
				</g>
				<g>
					<polygon class="st5" points="13.1,85.5 11.8,84.7 23.1,66.5 24.4,67.2 					"/>
				</g>
				<g>
					<polygon class="st4" points="8.6,88 7.4,87.3 11.8,84.7 13.1,85.5 					"/>
				</g>
				<g>
					<polygon class="st5" points="8.6,88.5 7.4,87.8 7.4,87.3 8.6,88 					"/>
				</g>
				<g>
					<polygon class="st5" points="31.1,63.3 31.1,63.8 24.6,67.6 13.2,85.9 8.6,88.5 8.6,88 13.1,85.5 24.4,67.2 					"/>
				</g>
			</g>
		</g>
		<g>
			<g class="st0">
				<g>
					<polygon class="st4" points="28,69.3 26.7,68.5 33.4,64.6 34.7,65.4 					"/>
				</g>
				<g>
					<polygon class="st5" points="16.6,87.5 15.3,86.8 26.7,68.5 28,69.3 					"/>
				</g>
				<g>
					<polygon class="st4" points="12.2,90.1 10.9,89.3 15.3,86.8 16.6,87.5 					"/>
				</g>
				<g>
					<polygon class="st5" points="12.2,90.6 10.9,89.8 10.9,89.3 12.2,90.1 					"/>
				</g>
				<g>
					<polygon class="st5" points="34.7,65.4 34.7,65.9 28.1,69.7 16.8,87.9 12.2,90.6 12.2,90.1 16.6,87.5 28,69.3 					"/>
				</g>
			</g>
		</g>
		<g>
			<g class="st0">
				<g>
					<polygon class="st4" points="31.5,71.3 30.2,70.6 37,66.7 38.3,67.4 					"/>
				</g>
				<g>
					<polygon class="st5" points="20.2,89.6 18.9,88.8 30.2,70.6 31.5,71.3 					"/>
				</g>
				<g>
					<polygon class="st4" points="15.8,92.1 14.5,91.4 18.9,88.8 20.2,89.6 					"/>
				</g>
				<g>
					<polygon class="st5" points="15.8,92.6 14.5,91.9 14.5,91.4 15.8,92.1 					"/>
				</g>
				<g>
					<polygon class="st5" points="38.3,67.4 38.3,67.9 31.7,71.7 20.4,90 15.8,92.6 15.8,92.1 20.2,89.6 31.5,71.3 					"/>
				</g>
			</g>
		</g>
		<g>
			<g class="st0">
				<g>
					<polygon class="st4" points="35.1,73.4 33.8,72.6 40.5,68.7 41.8,69.5 					"/>
				</g>
				<g>
					<polygon class="st5" points="23.8,91.6 22.5,90.9 33.8,72.6 35.1,73.4 					"/>
				</g>
				<g>
					<polygon class="st4" points="19.3,94.2 18.1,93.4 22.5,90.9 23.8,91.6 					"/>
				</g>
				<g>
					<polygon class="st5" points="19.3,94.7 18.1,93.9 18.1,93.4 19.3,94.2 					"/>
				</g>
				<g>
					<polygon class="st5" points="41.8,69.5 41.8,70 35.3,73.8 23.9,92 19.3,94.7 19.3,94.2 23.8,91.6 35.1,73.4 					"/>
				</g>
			</g>
		</g>
		<g>
			<g class="st0">
				<g>
					<polygon class="st4" points="38.7,75.4 37.4,74.7 44.1,70.8 45.4,71.5 					"/>
				</g>
				<g>
					<polygon class="st5" points="27.3,93.7 26,92.9 37.4,74.7 38.7,75.4 					"/>
				</g>
				<g>
					<polygon class="st4" points="22.9,96.2 21.6,95.5 26,92.9 27.3,93.7 					"/>
				</g>
				<g>
					<polygon class="st5" points="22.9,96.7 21.6,96 21.6,95.5 22.9,96.2 					"/>
				</g>
				<g>
					<polygon class="st5" points="45.4,71.5 45.4,72 38.8,75.8 27.5,94.1 22.9,96.7 22.9,96.2 27.3,93.7 38.7,75.4 					"/>
				</g>
			</g>
		</g>
		<g>
			<g class="st0">
				<g>
					<polygon class="st4" points="42.2,77.5 40.9,76.7 47.7,72.9 48.9,73.6 					"/>
				</g>
				<g>
					<polygon class="st5" points="30.9,95.8 29.6,95 40.9,76.7 42.2,77.5 					"/>
				</g>
				<g>
					<polygon class="st4" points="26.5,98.3 25.2,97.6 29.6,95 30.9,95.8 					"/>
				</g>
				<g>
					<polygon class="st5" points="26.5,98.8 25.2,98 25.2,97.6 26.5,98.3 					"/>
				</g>
				<g>
					<polygon class="st5" points="48.9,73.6 49,74.1 42.4,77.9 31,96.2 26.5,98.8 26.5,98.3 30.9,95.8 42.2,77.5 					"/>
				</g>
			</g>
		</g>
		<g>
			<g class="st0">
				<g>
					<polygon class="st4" points="45.8,79.5 44.5,78.8 51.2,74.9 52.5,75.7 					"/>
				</g>
				<g>
					<polygon class="st5" points="34.4,97.8 33.2,97 44.5,78.8 45.8,79.5 					"/>
				</g>
				<g>
					<polygon class="st4" points="30,100.3 28.7,99.6 33.2,97 34.4,97.8 					"/>
				</g>
				<g>
					<polygon class="st5" points="30,100.8 28.7,100.1 28.7,99.6 30,100.3 					"/>
				</g>
				<g>
					<polygon class="st5" points="52.5,75.7 52.5,76.1 45.9,79.9 34.6,98.2 30,100.8 30,100.3 34.4,97.8 45.8,79.5 					"/>
				</g>
			</g>
		</g>
		<g>
			<g class="st0">
				<g>
					<polygon class="st4" points="49.3,81.6 48.1,80.8 54.8,77 56.1,77.7 					"/>
				</g>
				<g>
					<polygon class="st5" points="38,99.8 36.7,99.1 48.1,80.8 49.3,81.6 					"/>
				</g>
				<g>
					<polygon class="st4" points="33.6,102.4 32.3,101.7 36.7,99.1 38,99.8 					"/>
				</g>
				<g>
					<polygon class="st5" points="33.6,102.9 32.3,102.1 32.3,101.7 33.6,102.4 					"/>
				</g>
				<g>
					<polygon class="st5" points="56.1,77.7 56.1,78.2 49.5,82 38.2,100.3 33.6,102.9 33.6,102.4 38,99.8 49.3,81.6 					"/>
				</g>
			</g>
		</g>
		<g>
			<g class="st0">
				<g>
					<polygon class="st4" points="52.9,83.6 51.6,82.9 58.4,79 59.6,79.8 					"/>
				</g>
				<g>
					<polygon class="st5" points="41.6,101.9 40.3,101.1 51.6,82.9 52.9,83.6 					"/>
				</g>
				<g>
					<polygon class="st4" points="37.2,104.4 35.9,103.7 40.3,101.1 41.6,101.9 					"/>
				</g>
				<g>
					<polygon class="st5" points="37.2,104.9 35.9,104.2 35.9,103.7 37.2,104.4 					"/>
				</g>
				<g>
					<polygon class="st5" points="59.6,79.8 59.6,80.2 53.1,84 41.7,102.3 37.2,104.9 37.2,104.4 41.6,101.9 52.9,83.6 					"/>
				</g>
			</g>
		</g>
		<g>
			<g class="st0">
				<g>
					<polygon class="st4" points="56.5,85.7 55.2,85 61.9,81.1 63.2,81.8 					"/>
				</g>
				<g>
					<polygon class="st5" points="45.1,104 43.9,103.2 55.2,85 56.5,85.7 					"/>
				</g>
				<g>
					<polygon class="st4" points="40.7,106.5 39.4,105.8 43.9,103.2 45.1,104 					"/>
				</g>
				<g>
					<polygon class="st5" points="40.7,107 39.4,106.3 39.4,105.8 40.7,106.5 					"/>
				</g>
				<g>
					<polygon class="st5" points="63.2,81.8 63.2,82.3 56.6,86.1 45.3,104.4 40.7,107 40.7,106.5 45.1,104 56.5,85.7 					"/>
				</g>
			</g>
		</g>
		<g>
			<g class="st0">
				<g>
					<polygon class="st4" points="60,87.8 58.7,87 65.5,83.1 66.8,83.9 					"/>
				</g>
				<g>
					<polygon class="st5" points="48.7,106 47.4,105.3 58.7,87 60,87.8 					"/>
				</g>
				<g>
					<polygon class="st4" points="44.3,108.6 43,107.8 47.4,105.3 48.7,106 					"/>
				</g>
				<g>
					<polygon class="st5" points="44.3,109.1 43,108.3 43,107.8 44.3,108.6 					"/>
				</g>
				<g>
					<polygon class="st5" points="66.8,83.9 66.8,84.4 60.2,88.2 48.9,106.4 44.3,109.1 44.3,108.6 48.7,106 60,87.8 					"/>
				</g>
			</g>
		</g>
		<g>
			<g class="st0">
				<g>
					<polygon class="st4" points="63.6,89.9 62.3,89.1 69,85.2 70.3,86 					"/>
				</g>
				<g>
					<polygon class="st5" points="52.3,108.1 51,107.4 62.3,89.1 63.6,89.9 					"/>
				</g>
				<g>
					<polygon class="st4" points="47.8,110.7 46.6,109.9 51,107.4 52.3,108.1 					"/>
				</g>
				<g>
					<polygon class="st5" points="47.8,111.2 46.6,110.4 46.6,109.9 47.8,110.7 					"/>
				</g>
				<g>
					<polygon class="st5" points="70.3,86 70.3,86.5 63.8,90.3 52.4,108.5 47.8,111.2 47.8,110.7 52.3,108.1 63.6,89.9 					"/>
				</g>
			</g>
		</g>
		<g>
			<g class="st0">
				<g>
					<polygon class="st4" points="67.2,91.9 65.9,91.2 72.6,87.3 73.9,88 					"/>
				</g>
				<g>
					<polygon class="st5" points="55.8,110.2 54.5,109.4 65.9,91.2 67.2,91.9 					"/>
				</g>
				<g>
					<polygon class="st4" points="51.4,112.7 50.1,112 54.5,109.4 55.8,110.2 					"/>
				</g>
				<g>
					<polygon class="st5" points="51.4,113.2 50.1,112.5 50.1,112 51.4,112.7 					"/>
				</g>
				<g>
					<polygon class="st5" points="73.9,88 73.9,88.5 67.3,92.3 56,110.6 51.4,113.2 51.4,112.7 55.8,110.2 67.2,91.9 					"/>
				</g>
			</g>
		</g>
		<g>
			<g class="st0">
				<g>
					<polygon class="st4" points="70.7,94 69.4,93.2 76.2,89.3 77.5,90.1 					"/>
				</g>
				<g>
					<polygon class="st5" points="59.4,112.2 58.1,111.5 69.4,93.2 70.7,94 					"/>
				</g>
				<g>
					<polygon class="st4" points="55,114.8 53.7,114 58.1,111.5 59.4,112.2 					"/>
				</g>
				<g>
					<polygon class="st5" points="55,115.3 53.7,114.5 53.7,114 55,114.8 					"/>
				</g>
				<g>
					<polygon class="st5" points="77.5,90.1 77.5,90.6 70.9,94.4 59.6,112.6 55,115.3 55,114.8 59.4,112.2 70.7,94 					"/>
				</g>
			</g>
		</g>
	</g>
	<g>
		<g>
			<g class="st0">
				<g>
					<polygon class="st4" points="127,67.2 128.2,66.5 121.5,62.6 120.2,63.3 					"/>
				</g>
				<g>
					<polygon class="st5" points="138.3,85.5 139.6,84.7 128.2,66.5 127,67.2 					"/>
				</g>
				<g>
					<polygon class="st4" points="142.7,88 144,87.3 139.6,84.7 138.3,85.5 					"/>
				</g>
				<g>
					<polygon class="st5" points="142.7,88.5 144,87.8 144,87.3 142.7,88 					"/>
				</g>
				<g>
					<polygon class="st5" points="120.2,63.3 120.2,63.8 126.8,67.6 138.1,85.9 142.7,88.5 142.7,88 138.3,85.5 127,67.2 					"/>
				</g>
			</g>
		</g>
		<g>
			<g class="st0">
				<g>
					<polygon class="st4" points="123.4,69.3 124.7,68.5 118,64.6 116.7,65.4 					"/>
				</g>
				<g>
					<polygon class="st5" points="134.7,87.5 136,86.8 124.7,68.5 123.4,69.3 					"/>
				</g>
				<g>
					<polygon class="st4" points="139.1,90.1 140.4,89.3 136,86.8 134.7,87.5 					"/>
				</g>
				<g>
					<polygon class="st5" points="139.1,90.6 140.4,89.8 140.4,89.3 139.1,90.1 					"/>
				</g>
				<g>
					<polygon class="st5" points="116.7,65.4 116.7,65.9 123.2,69.7 134.6,87.9 139.1,90.6 139.1,90.1 134.7,87.5 123.4,69.3 					
						"/>
				</g>
			</g>
		</g>
		<g>
			<g class="st0">
				<g>
					<polygon class="st4" points="119.8,71.3 121.1,70.6 114.4,66.7 113.1,67.4 					"/>
				</g>
				<g>
					<polygon class="st5" points="131.2,89.6 132.5,88.8 121.1,70.6 119.8,71.3 					"/>
				</g>
				<g>
					<polygon class="st4" points="135.6,92.1 136.9,91.4 132.5,88.8 131.2,89.6 					"/>
				</g>
				<g>
					<polygon class="st5" points="135.6,92.6 136.9,91.9 136.9,91.4 135.6,92.1 					"/>
				</g>
				<g>
					<polygon class="st5" points="113.1,67.4 113.1,67.9 119.7,71.7 131,90 135.6,92.6 135.6,92.1 131.2,89.6 119.8,71.3 					"/>
				</g>
			</g>
		</g>
		<g>
			<g class="st0">
				<g>
					<polygon class="st4" points="116.3,73.4 117.6,72.6 110.8,68.7 109.5,69.5 					"/>
				</g>
				<g>
					<polygon class="st5" points="127.6,91.6 128.9,90.9 117.6,72.6 116.3,73.4 					"/>
				</g>
				<g>
					<polygon class="st4" points="132,94.2 133.3,93.4 128.9,90.9 127.6,91.6 					"/>
				</g>
				<g>
					<polygon class="st5" points="132,94.7 133.3,93.9 133.3,93.4 132,94.2 					"/>
				</g>
				<g>
					<polygon class="st5" points="109.5,69.5 109.5,70 116.1,73.8 127.4,92 132,94.7 132,94.2 127.6,91.6 116.3,73.4 					"/>
				</g>
			</g>
		</g>
		<g>
			<g class="st0">
				<g>
					<polygon class="st4" points="112.7,75.4 114,74.7 107.3,70.8 106,71.5 					"/>
				</g>
				<g>
					<polygon class="st5" points="124,93.7 125.3,92.9 114,74.7 112.7,75.4 					"/>
				</g>
				<g>
					<polygon class="st4" points="128.5,96.2 129.7,95.5 125.3,92.9 124,93.7 					"/>
				</g>
				<g>
					<polygon class="st5" points="128.5,96.7 129.7,96 129.7,95.5 128.5,96.2 					"/>
				</g>
				<g>
					<polygon class="st5" points="106,71.5 106,72 112.5,75.8 123.9,94.1 128.5,96.7 128.5,96.2 124,93.7 112.7,75.4 					"/>
				</g>
			</g>
		</g>
		<g>
			<g class="st0">
				<g>
					<polygon class="st4" points="109.1,77.5 110.4,76.7 103.7,72.9 102.4,73.6 					"/>
				</g>
				<g>
					<polygon class="st5" points="120.5,95.8 121.8,95 110.4,76.7 109.1,77.5 					"/>
				</g>
				<g>
					<polygon class="st4" points="124.9,98.3 126.2,97.6 121.8,95 120.5,95.8 					"/>
				</g>
				<g>
					<polygon class="st5" points="124.9,98.8 126.2,98 126.2,97.6 124.9,98.3 					"/>
				</g>
				<g>
					<polygon class="st5" points="102.4,73.6 102.4,74.1 109,77.9 120.3,96.2 124.9,98.8 124.9,98.3 120.5,95.8 109.1,77.5 					"/>
				</g>
			</g>
		</g>
		<g>
			<g class="st0">
				<g>
					<polygon class="st4" points="105.6,79.5 106.9,78.8 100.1,74.9 98.8,75.7 					"/>
				</g>
				<g>
					<polygon class="st5" points="116.9,97.8 118.2,97 106.9,78.8 105.6,79.5 					"/>
				</g>
				<g>
					<polygon class="st4" points="121.3,100.3 122.6,99.6 118.2,97 116.9,97.8 					"/>
				</g>
				<g>
					<polygon class="st5" points="121.3,100.8 122.6,100.1 122.6,99.6 121.3,100.3 					"/>
				</g>
				<g>
					<polygon class="st5" points="98.8,75.7 98.8,76.1 105.4,79.9 116.7,98.2 121.3,100.8 121.3,100.3 116.9,97.8 105.6,79.5 					
						"/>
				</g>
			</g>
		</g>
		<g>
			<g class="st0">
				<g>
					<polygon class="st4" points="102,81.6 103.3,80.8 96.6,77 95.3,77.7 					"/>
				</g>
				<g>
					<polygon class="st5" points="113.3,99.8 114.6,99.1 103.3,80.8 102,81.6 					"/>
				</g>
				<g>
					<polygon class="st4" points="117.8,102.4 119.1,101.7 114.6,99.1 113.3,99.8 					"/>
				</g>
				<g>
					<polygon class="st5" points="117.8,102.9 119.1,102.1 119.1,101.7 117.8,102.4 					"/>
				</g>
				<g>
					<polygon class="st5" points="95.3,77.7 95.3,78.2 101.8,82 113.2,100.3 117.8,102.9 117.8,102.4 113.3,99.8 102,81.6 					"/>
				</g>
			</g>
		</g>
		<g>
			<g class="st0">
				<g>
					<polygon class="st4" points="98.4,83.6 99.7,82.9 93,79 91.7,79.8 					"/>
				</g>
				<g>
					<polygon class="st5" points="109.8,101.9 111.1,101.1 99.7,82.9 98.4,83.6 					"/>
				</g>
				<g>
					<polygon class="st4" points="114.2,104.4 115.5,103.7 111.1,101.1 109.8,101.9 					"/>
				</g>
				<g>
					<polygon class="st5" points="114.2,104.9 115.5,104.2 115.5,103.7 114.2,104.4 					"/>
				</g>
				<g>
					<polygon class="st5" points="91.7,79.8 91.7,80.2 98.3,84 109.6,102.3 114.2,104.9 114.2,104.4 109.8,101.9 98.4,83.6 					"/>
				</g>
			</g>
		</g>
		<g>
			<g class="st0">
				<g>
					<polygon class="st4" points="94.9,85.7 96.2,85 89.4,81.1 88.2,81.8 					"/>
				</g>
				<g>
					<polygon class="st5" points="106.2,104 107.5,103.2 96.2,85 94.9,85.7 					"/>
				</g>
				<g>
					<polygon class="st4" points="110.6,106.5 111.9,105.8 107.5,103.2 106.2,104 					"/>
				</g>
				<g>
					<polygon class="st5" points="110.6,107 111.9,106.3 111.9,105.8 110.6,106.5 					"/>
				</g>
				<g>
					<polygon class="st5" points="88.2,81.8 88.2,82.3 94.7,86.1 106.1,104.4 110.6,107 110.6,106.5 106.2,104 94.9,85.7 					"/>
				</g>
			</g>
		</g>
		<g>
			<g class="st0">
				<g>
					<polygon class="st4" points="91.3,87.8 92.6,87 85.9,83.1 84.6,83.9 					"/>
				</g>
				<g>
					<polygon class="st5" points="102.7,106 103.9,105.3 92.6,87 91.3,87.8 					"/>
				</g>
				<g>
					<polygon class="st4" points="107.1,108.6 108.4,107.8 103.9,105.3 102.7,106 					"/>
				</g>
				<g>
					<polygon class="st5" points="107.1,109.1 108.4,108.3 108.4,107.8 107.1,108.6 					"/>
				</g>
				<g>
					<polygon class="st5" points="84.6,83.9 84.6,84.4 91.2,88.2 102.5,106.4 107.1,109.1 107.1,108.6 102.7,106 91.3,87.8 					"/>
				</g>
			</g>
		</g>
		<g>
			<g class="st0">
				<g>
					<polygon class="st4" points="87.8,89.9 89,89.1 82.3,85.2 81,86 					"/>
				</g>
				<g>
					<polygon class="st5" points="99.1,108.1 100.4,107.4 89,89.1 87.8,89.9 					"/>
				</g>
				<g>
					<polygon class="st4" points="103.5,110.7 104.8,109.9 100.4,107.4 99.1,108.1 					"/>
				</g>
				<g>
					<polygon class="st5" points="103.5,111.2 104.8,110.4 104.8,109.9 103.5,110.7 					"/>
				</g>
				<g>
					<polygon class="st5" points="81,86 81,86.5 87.6,90.3 98.9,108.5 103.5,111.2 103.5,110.7 99.1,108.1 87.8,89.9 					"/>
				</g>
			</g>
		</g>
		<g>
			<g class="st0">
				<g>
					<polygon class="st4" points="84.2,91.9 85.5,91.2 78.8,87.3 77.5,88 					"/>
				</g>
				<g>
					<polygon class="st5" points="95.5,110.2 96.8,109.4 85.5,91.2 84.2,91.9 					"/>
				</g>
				<g>
					<polygon class="st4" points="99.9,112.7 101.2,112 96.8,109.4 95.5,110.2 					"/>
				</g>
				<g>
					<polygon class="st5" points="99.9,113.2 101.2,112.5 101.2,112 99.9,112.7 					"/>
				</g>
				<g>
					<polygon class="st5" points="77.5,88 77.5,88.5 84,92.3 95.4,110.6 99.9,113.2 99.9,112.7 95.5,110.2 84.2,91.9 					"/>
				</g>
			</g>
		</g>
		<g>
			<g class="st0">
				<g>
					<polygon class="st4" points="80.6,94 81.9,93.2 75.2,89.3 73.9,90.1 					"/>
				</g>
				<g>
					<polygon class="st5" points="92,112.2 93.3,111.5 81.9,93.2 80.6,94 					"/>
				</g>
				<g>
					<polygon class="st4" points="96.4,114.8 97.7,114 93.3,111.5 92,112.2 					"/>
				</g>
				<g>
					<polygon class="st5" points="96.4,115.3 97.7,114.5 97.7,114 96.4,114.8 					"/>
				</g>
				<g>
					<polygon class="st5" points="73.9,90.1 73.9,90.6 80.5,94.4 91.8,112.6 96.4,115.3 96.4,114.8 92,112.2 80.6,94 					"/>
				</g>
			</g>
		</g>
	</g>
	<g>
		<g>
			<g>
				<g class="st0">
					<g>
						<polygon class="st4" points="139.5,65.9 138.2,65.2 142.6,62.6 143.9,63.4 						"/>
					</g>
					<g>
						<polygon class="st4" points="128.1,60.8 126.8,60.1 138.2,65.2 139.5,65.9 						"/>
					</g>
					<g>
						<polygon class="st4" points="121.3,65.2 120,64.4 120,63.9 121.3,64.7 						"/>
					</g>
					<g>
						<polygon class="st4" points="121.3,64.7 120,63.9 126.8,60.1 128.1,60.8 						"/>
					</g>
					<g>
						<polygon class="st5" points="128.1,60.8 139.5,65.9 143.9,63.4 143.9,63.9 139.3,66.5 127.9,61.4 121.3,65.2 121.3,64.7 
													"/>
					</g>
				</g>
			</g>
		</g>
		<g>
			<g>
				<g class="st0">
					<g>
						<polygon class="st4" points="135.9,63.9 134.6,63.1 139,60.6 140.3,61.3 						"/>
					</g>
					<g>
						<polygon class="st4" points="124.5,58.7 123.2,58 134.6,63.1 135.9,63.9 						"/>
					</g>
					<g>
						<polygon class="st4" points="117.8,63.1 116.5,62.4 116.5,61.9 117.7,62.6 						"/>
					</g>
					<g>
						<polygon class="st4" points="117.7,62.6 116.5,61.9 123.2,58 124.5,58.7 						"/>
					</g>
					<g>
						<polygon class="st5" points="124.5,58.7 135.9,63.9 140.3,61.3 140.3,61.8 135.7,64.5 124.3,59.3 117.8,63.1 117.7,62.6 
													"/>
					</g>
				</g>
			</g>
		</g>
		<g>
			<g>
				<g class="st0">
					<g>
						<polygon class="st4" points="132.3,61.8 131,61 135.4,58.5 136.7,59.2 						"/>
					</g>
					<g>
						<polygon class="st4" points="120.9,56.7 119.6,55.9 131,61 132.3,61.8 						"/>
					</g>
					<g>
						<polygon class="st4" points="114.2,61 112.9,60.3 112.9,59.8 114.2,60.5 						"/>
					</g>
					<g>
						<polygon class="st4" points="114.2,60.5 112.9,59.8 119.6,55.9 120.9,56.7 						"/>
					</g>
					<g>
						<polygon class="st5" points="120.9,56.7 132.3,61.8 136.7,59.2 136.7,59.7 132.1,62.4 120.7,57.2 114.2,61 114.2,60.5 						
							"/>
					</g>
				</g>
			</g>
		</g>
		<g>
			<g>
				<g class="st0">
					<g>
						<polygon class="st4" points="128.7,59.7 127.5,59 131.9,56.4 133.2,57.2 						"/>
					</g>
					<g>
						<polygon class="st4" points="117.3,54.6 116.1,53.8 127.5,59 128.7,59.7 						"/>
					</g>
					<g>
						<polygon class="st4" points="110.6,59 109.3,58.2 109.3,57.7 110.6,58.5 						"/>
					</g>
					<g>
						<polygon class="st4" points="110.6,58.5 109.3,57.7 116.1,53.8 117.3,54.6 						"/>
					</g>
					<g>
						<polygon class="st5" points="117.3,54.6 128.7,59.7 133.2,57.2 133.2,57.7 128.6,60.3 117.2,55.2 110.6,59 110.6,58.5 						
							"/>
					</g>
				</g>
			</g>
		</g>
		<g>
			<g>
				<g class="st0">
					<g>
						<polygon class="st4" points="125.2,57.7 123.9,56.9 128.3,54.4 129.6,55.1 						"/>
					</g>
					<g>
						<polygon class="st4" points="113.8,52.6 112.5,51.8 123.9,56.9 125.2,57.7 						"/>
					</g>
					<g>
						<polygon class="st4" points="107,56.9 105.8,56.2 105.7,55.7 107,56.4 						"/>
					</g>
					<g>
						<polygon class="st4" points="107,56.4 105.7,55.7 112.5,51.8 113.8,52.6 						"/>
					</g>
					<g>
						<polygon class="st5" points="113.8,52.6 125.2,57.7 129.6,55.1 129.6,55.6 125,58.3 113.6,53.2 107,56.9 107,56.4 						"/>
					</g>
				</g>
			</g>
		</g>
		<g>
			<g>
				<g class="st0">
					<g>
						<polygon class="st4" points="121.6,55.6 120.3,54.9 124.7,52.3 126,53.1 						"/>
					</g>
					<g>
						<polygon class="st4" points="110.2,50.5 108.9,49.7 120.3,54.9 121.6,55.6 						"/>
					</g>
					<g>
						<polygon class="st4" points="103.5,54.9 102.2,54.1 102.2,53.6 103.5,54.4 						"/>
					</g>
					<g>
						<polygon class="st4" points="103.5,54.4 102.2,53.6 108.9,49.7 110.2,50.5 						"/>
					</g>
					<g>
						<polygon class="st5" points="110.2,50.5 121.6,55.6 126,53.1 126,53.6 121.4,56.2 110,51.1 103.5,54.9 103.5,54.4 						"/>
					</g>
				</g>
			</g>
		</g>
		<g>
			<g>
				<g class="st0">
					<g>
						<polygon class="st4" points="118,53.5 116.7,52.8 121.2,50.2 122.4,51 						"/>
					</g>
					<g>
						<polygon class="st4" points="106.6,48.4 105.3,47.7 116.7,52.8 118,53.5 						"/>
					</g>
					<g>
						<polygon class="st4" points="99.9,52.8 98.6,52 98.6,51.5 99.9,52.3 						"/>
					</g>
					<g>
						<polygon class="st4" points="99.9,52.3 98.6,51.5 105.3,47.7 106.6,48.4 						"/>
					</g>
					<g>
						<polygon class="st5" points="106.6,48.4 118,53.5 122.4,51 122.4,51.5 117.9,54.1 106.5,49 99.9,52.8 99.9,52.3 						"/>
					</g>
				</g>
			</g>
		</g>
		<g>
			<g>
				<g class="st0">
					<g>
						<polygon class="st4" points="114.5,51.5 113.2,50.7 117.6,48.2 118.9,48.9 						"/>
					</g>
					<g>
						<polygon class="st4" points="103.1,46.3 101.8,45.6 113.2,50.7 114.5,51.5 						"/>
					</g>
					<g>
						<polygon class="st4" points="96.3,50.7 95,50 95,49.5 96.3,50.2 						"/>
					</g>
					<g>
						<polygon class="st4" points="96.3,50.2 95,49.5 101.8,45.6 103.1,46.3 						"/>
					</g>
					<g>
						<polygon class="st5" points="103.1,46.3 114.5,51.5 118.9,48.9 118.9,49.4 114.3,52.1 102.9,46.9 96.3,50.7 96.3,50.2 						
							"/>
					</g>
				</g>
			</g>
		</g>
		<g>
			<g>
				<g class="st0">
					<g>
						<polygon class="st4" points="110.9,49.5 109.6,48.7 114,46.2 115.3,46.9 						"/>
					</g>
					<g>
						<polygon class="st4" points="99.5,44.3 98.2,43.6 109.6,48.7 110.9,49.5 						"/>
					</g>
					<g>
						<polygon class="st4" points="92.8,48.7 91.5,48 91.5,47.5 92.8,48.2 						"/>
					</g>
					<g>
						<polygon class="st4" points="92.8,48.2 91.5,47.5 98.2,43.6 99.5,44.3 						"/>
					</g>
					<g>
						<polygon class="st5" points="99.5,44.3 110.9,49.5 115.3,46.9 115.3,47.4 110.7,50 99.3,44.9 92.8,48.7 92.8,48.2 						"/>
					</g>
				</g>
			</g>
		</g>
		<g>
			<g>
				<g class="st0">
					<g>
						<polygon class="st4" points="107.3,47.4 106,46.6 110.4,44.1 111.7,44.8 						"/>
					</g>
					<g>
						<polygon class="st4" points="95.9,42.3 94.6,41.5 106,46.6 107.3,47.4 						"/>
					</g>
					<g>
						<polygon class="st4" points="89.2,46.6 87.9,45.9 87.9,45.4 89.2,46.1 						"/>
					</g>
					<g>
						<polygon class="st4" points="89.2,46.1 87.9,45.4 94.6,41.5 95.9,42.3 						"/>
					</g>
					<g>
						<polygon class="st5" points="95.9,42.3 107.3,47.4 111.7,44.8 111.7,45.3 107.2,48 95.8,42.8 89.2,46.6 89.2,46.1 						"/>
					</g>
				</g>
			</g>
		</g>
		<g>
			<g>
				<g class="st0">
					<g>
						<polygon class="st4" points="103.7,45.3 102.5,44.5 106.9,42 108.2,42.7 						"/>
					</g>
					<g>
						<polygon class="st4" points="92.3,40.2 91.1,39.4 102.5,44.5 103.7,45.3 						"/>
					</g>
					<g>
						<polygon class="st4" points="85.6,44.5 84.3,43.8 84.3,43.3 85.6,44 						"/>
					</g>
					<g>
						<polygon class="st4" points="85.6,44 84.3,43.3 91.1,39.4 92.3,40.2 						"/>
					</g>
					<g>
						<polygon class="st5" points="92.3,40.2 103.7,45.3 108.2,42.7 108.2,43.2 103.6,45.9 92.2,40.8 85.6,44.5 85.6,44 						"/>
					</g>
				</g>
			</g>
		</g>
		<g>
			<g>
				<g class="st0">
					<g>
						<polygon class="st4" points="100.2,43.2 98.9,42.5 103.3,39.9 104.6,40.7 						"/>
					</g>
					<g>
						<polygon class="st4" points="88.8,38.1 87.5,37.4 98.9,42.5 100.2,43.2 						"/>
					</g>
					<g>
						<polygon class="st4" points="82,42.5 80.8,41.7 80.8,41.2 82,42 						"/>
					</g>
					<g>
						<polygon class="st4" points="82,42 80.8,41.2 87.5,37.4 88.8,38.1 						"/>
					</g>
					<g>
						<polygon class="st5" points="88.8,38.1 100.2,43.2 104.6,40.7 104.6,41.2 100,43.8 88.6,38.7 82,42.5 82,42 						"/>
					</g>
				</g>
			</g>
		</g>
		<g>
			<g>
				<g class="st0">
					<g>
						<polygon class="st4" points="96.6,41.2 95.3,40.5 99.7,37.9 101,38.7 						"/>
					</g>
					<g>
						<polygon class="st4" points="85.2,36.1 83.9,35.3 95.3,40.5 96.6,41.2 						"/>
					</g>
					<g>
						<polygon class="st4" points="78.5,40.5 77.2,39.7 77.2,39.2 78.5,40 						"/>
					</g>
					<g>
						<polygon class="st4" points="78.5,40 77.2,39.2 83.9,35.3 85.2,36.1 						"/>
					</g>
					<g>
						<polygon class="st5" points="85.2,36.1 96.6,41.2 101,38.7 101,39.1 96.4,41.8 85,36.7 78.5,40.5 78.5,40 						"/>
					</g>
				</g>
			</g>
		</g>
		<g>
			<g>
				<g class="st0">
					<g>
						<polygon class="st4" points="93,39.1 91.7,38.4 96.2,35.8 97.4,36.6 						"/>
					</g>
					<g>
						<polygon class="st4" points="81.6,34 80.3,33.3 91.7,38.4 93,39.1 						"/>
					</g>
					<g>
						<polygon class="st4" points="74.9,38.4 73.6,37.6 73.6,37.1 74.9,37.9 						"/>
					</g>
					<g>
						<polygon class="st4" points="74.9,37.9 73.6,37.1 80.3,33.3 81.6,34 						"/>
					</g>
					<g>
						<polygon class="st5" points="81.6,34 93,39.1 97.4,36.6 97.5,37.1 92.9,39.7 81.5,34.6 74.9,38.4 74.9,37.9 						"/>
					</g>
				</g>
			</g>
		</g>
		<g>
			<g>
				<g class="st0">
					<g>
						<polygon class="st4" points="89.5,37 88.2,36.3 92.6,33.7 93.9,34.5 						"/>
					</g>
					<g>
						<polygon class="st4" points="78.1,31.9 76.8,31.2 88.2,36.3 89.5,37 						"/>
					</g>
					<g>
						<polygon class="st4" points="71.3,36.3 70,35.5 70,35.1 71.3,35.8 						"/>
					</g>
					<g>
						<polygon class="st4" points="71.3,35.8 70,35.1 76.8,31.2 78.1,31.9 						"/>
					</g>
					<g>
						<polygon class="st5" points="78.1,31.9 89.5,37 93.9,34.5 93.9,35 89.3,37.6 77.9,32.5 71.3,36.3 71.3,35.8 						"/>
					</g>
				</g>
			</g>
		</g>
		<g>
			<g>
				<g class="st0">
					<g>
						<polygon class="st4" points="85.9,35 84.6,34.2 89,31.7 90.3,32.4 						"/>
					</g>
					<g>
						<polygon class="st4" points="74.5,29.8 73.2,29.1 84.6,34.2 85.9,35 						"/>
					</g>
					<g>
						<polygon class="st4" points="67.8,34.2 66.5,33.5 66.5,33 67.8,33.7 						"/>
					</g>
					<g>
						<polygon class="st4" points="67.8,33.7 66.5,33 73.2,29.1 74.5,29.8 						"/>
					</g>
					<g>
						<polygon class="st5" points="74.5,29.8 85.9,35 90.3,32.4 90.3,32.9 85.7,35.6 74.3,30.4 67.8,34.2 67.8,33.7 						"/>
					</g>
				</g>
			</g>
		</g>
	</g>
	<g>
		<g>
			<g>
				<g class="st0">
					<g>
						<polygon class="st4" points="10.2,65 11.5,64.2 7.1,61.7 5.8,62.4 						"/>
					</g>
					<g>
						<polygon class="st4" points="21.6,59.8 22.9,59.1 11.5,64.2 10.2,65 						"/>
					</g>
					<g>
						<polygon class="st4" points="28.3,64.2 29.6,63.5 29.6,63 28.3,63.7 						"/>
					</g>
					<g>
						<polygon class="st4" points="28.3,63.7 29.6,63 22.9,59.1 21.6,59.8 						"/>
					</g>
					<g>
						<polygon class="st5" points="21.6,59.8 10.2,65 5.8,62.4 5.8,62.9 10.4,65.6 21.8,60.4 28.3,64.2 28.3,63.7 						"/>
					</g>
				</g>
			</g>
		</g>
		<g>
			<g>
				<g class="st0">
					<g>
						<polygon class="st4" points="13.8,62.9 15.1,62.2 10.6,59.6 9.3,60.4 						"/>
					</g>
					<g>
						<polygon class="st4" points="25.2,57.8 26.5,57 15.1,62.2 13.8,62.9 						"/>
					</g>
					<g>
						<polygon class="st4" points="31.9,62.2 33.2,61.4 33.2,60.9 31.9,61.7 						"/>
					</g>
					<g>
						<polygon class="st4" points="31.9,61.7 33.2,60.9 26.5,57 25.2,57.8 						"/>
					</g>
					<g>
						<polygon class="st5" points="25.2,57.8 13.8,62.9 9.3,60.4 9.3,60.9 13.9,63.5 25.3,58.4 31.9,62.2 31.9,61.7 						"/>
					</g>
				</g>
			</g>
		</g>
		<g>
			<g>
				<g class="st0">
					<g>
						<polygon class="st4" points="17.3,60.8 18.6,60.1 14.2,57.5 12.9,58.3 						"/>
					</g>
					<g>
						<polygon class="st4" points="28.7,55.7 30,54.9 18.6,60.1 17.3,60.8 						"/>
					</g>
					<g>
						<polygon class="st4" points="35.5,60.1 36.8,59.3 36.8,58.8 35.5,59.6 						"/>
					</g>
					<g>
						<polygon class="st4" points="35.5,59.6 36.8,58.8 30,54.9 28.7,55.7 						"/>
					</g>
					<g>
						<polygon class="st5" points="28.7,55.7 17.3,60.8 12.9,58.3 12.9,58.8 17.5,61.4 28.9,56.3 35.5,60.1 35.5,59.6 						"/>
					</g>
				</g>
			</g>
		</g>
		<g>
			<g>
				<g class="st0">
					<g>
						<polygon class="st4" points="20.9,58.8 22.2,58 17.8,55.5 16.5,56.2 						"/>
					</g>
					<g>
						<polygon class="st4" points="32.3,53.6 33.6,52.9 22.2,58 20.9,58.8 						"/>
					</g>
					<g>
						<polygon class="st4" points="39,58 40.3,57.3 40.3,56.8 39,57.5 						"/>
					</g>
					<g>
						<polygon class="st4" points="39,57.5 40.3,56.8 33.6,52.9 32.3,53.6 						"/>
					</g>
					<g>
						<polygon class="st5" points="32.3,53.6 20.9,58.8 16.5,56.2 16.5,56.7 21.1,59.4 32.5,54.2 39,58 39,57.5 						"/>
					</g>
				</g>
			</g>
		</g>
		<g>
			<g>
				<g class="st0">
					<g>
						<polygon class="st4" points="24.5,56.7 25.8,56 21.3,53.4 20.1,54.2 						"/>
					</g>
					<g>
						<polygon class="st4" points="35.9,51.6 37.2,50.9 25.8,56 24.5,56.7 						"/>
					</g>
					<g>
						<polygon class="st4" points="42.6,56 43.9,55.2 43.9,54.7 42.6,55.5 						"/>
					</g>
					<g>
						<polygon class="st4" points="42.6,55.5 43.9,54.7 37.2,50.9 35.9,51.6 						"/>
					</g>
					<g>
						<polygon class="st5" points="35.9,51.6 24.5,56.7 20.1,54.2 20.1,54.7 24.6,57.3 36,52.2 42.6,56 42.6,55.5 						"/>
					</g>
				</g>
			</g>
		</g>
		<g>
			<g>
				<g class="st0">
					<g>
						<polygon class="st4" points="28,54.7 29.3,53.9 24.9,51.4 23.6,52.1 						"/>
					</g>
					<g>
						<polygon class="st4" points="39.4,49.5 40.7,48.8 29.3,53.9 28,54.7 						"/>
					</g>
					<g>
						<polygon class="st4" points="46.2,53.9 47.5,53.2 47.5,52.7 46.2,53.4 						"/>
					</g>
					<g>
						<polygon class="st4" points="46.2,53.4 47.5,52.7 40.7,48.8 39.4,49.5 						"/>
					</g>
					<g>
						<polygon class="st5" points="39.4,49.5 28,54.7 23.6,52.1 23.6,52.6 28.2,55.3 39.6,50.1 46.2,53.9 46.2,53.4 						"/>
					</g>
				</g>
			</g>
		</g>
		<g>
			<g>
				<g class="st0">
					<g>
						<polygon class="st4" points="31.6,52.6 32.9,51.8 28.5,49.3 27.2,50 						"/>
					</g>
					<g>
						<polygon class="st4" points="43,47.4 44.3,46.7 32.9,51.8 31.6,52.6 						"/>
					</g>
					<g>
						<polygon class="st4" points="49.7,51.8 51,51.1 51,50.6 49.7,51.3 						"/>
					</g>
					<g>
						<polygon class="st4" points="49.7,51.3 51,50.6 44.3,46.7 43,47.4 						"/>
					</g>
					<g>
						<polygon class="st5" points="43,47.4 31.6,52.6 27.2,50 27.2,50.5 31.8,53.2 43.2,48 49.7,51.8 49.7,51.3 						"/>
					</g>
				</g>
			</g>
		</g>
		<g>
			<g>
				<g class="st0">
					<g>
						<polygon class="st4" points="35.2,50.5 36.5,49.8 32.1,47.2 30.8,48 						"/>
					</g>
					<g>
						<polygon class="st4" points="46.6,45.4 47.9,44.6 36.5,49.8 35.2,50.5 						"/>
					</g>
					<g>
						<polygon class="st4" points="53.3,49.8 54.6,49 54.6,48.5 53.3,49.3 						"/>
					</g>
					<g>
						<polygon class="st4" points="53.3,49.3 54.6,48.5 47.9,44.6 46.6,45.4 						"/>
					</g>
					<g>
						<polygon class="st5" points="46.6,45.4 35.2,50.5 30.8,48 30.8,48.5 35.4,51.1 46.8,46 53.3,49.8 53.3,49.3 						"/>
					</g>
				</g>
			</g>
		</g>
		<g>
			<g>
				<g class="st0">
					<g>
						<polygon class="st4" points="38.8,48.5 40,47.7 35.6,45.2 34.3,45.9 						"/>
					</g>
					<g>
						<polygon class="st4" points="50.2,43.4 51.4,42.6 40,47.7 38.8,48.5 						"/>
					</g>
					<g>
						<polygon class="st4" points="56.9,47.7 58.2,47 58.2,46.5 56.9,47.2 						"/>
					</g>
					<g>
						<polygon class="st4" points="56.9,47.2 58.2,46.5 51.4,42.6 50.2,43.4 						"/>
					</g>
					<g>
						<polygon class="st5" points="50.2,43.4 38.8,48.5 34.3,45.9 34.3,46.4 38.9,49.1 50.3,44 56.9,47.7 56.9,47.2 						"/>
					</g>
				</g>
			</g>
		</g>
		<g>
			<g>
				<g class="st0">
					<g>
						<polygon class="st4" points="42.3,46.4 43.6,45.7 39.2,43.1 37.9,43.9 						"/>
					</g>
					<g>
						<polygon class="st4" points="53.7,41.3 55,40.5 43.6,45.7 42.3,46.4 						"/>
					</g>
					<g>
						<polygon class="st4" points="60.5,45.7 61.7,44.9 61.7,44.4 60.5,45.2 						"/>
					</g>
					<g>
						<polygon class="st4" points="60.5,45.2 61.7,44.4 55,40.5 53.7,41.3 						"/>
					</g>
					<g>
						<polygon class="st5" points="53.7,41.3 42.3,46.4 37.9,43.9 37.9,44.4 42.5,47 53.9,41.9 60.5,45.7 60.5,45.2 						"/>
					</g>
				</g>
			</g>
		</g>
		<g>
			<g>
				<g class="st0">
					<g>
						<polygon class="st4" points="45.9,44.3 47.2,43.6 42.8,41 41.5,41.8 						"/>
					</g>
					<g>
						<polygon class="st4" points="57.3,39.2 58.6,38.5 47.2,43.6 45.9,44.3 						"/>
					</g>
					<g>
						<polygon class="st4" points="64,43.6 65.3,42.8 65.3,42.3 64,43.1 						"/>
					</g>
					<g>
						<polygon class="st4" points="64,43.1 65.3,42.3 58.6,38.5 57.3,39.2 						"/>
					</g>
					<g>
						<polygon class="st5" points="57.3,39.2 45.9,44.3 41.5,41.8 41.5,42.3 46.1,44.9 57.5,39.8 64,43.6 64,43.1 						"/>
					</g>
				</g>
			</g>
		</g>
		<g>
			<g>
				<g class="st0">
					<g>
						<polygon class="st4" points="49.5,42.3 50.8,41.5 46.3,39 45.1,39.7 						"/>
					</g>
					<g>
						<polygon class="st4" points="60.9,37.1 62.2,36.4 50.8,41.5 49.5,42.3 						"/>
					</g>
					<g>
						<polygon class="st4" points="67.6,41.5 68.9,40.8 68.9,40.3 67.6,41 						"/>
					</g>
					<g>
						<polygon class="st4" points="67.6,41 68.9,40.3 62.2,36.4 60.9,37.1 						"/>
					</g>
					<g>
						<polygon class="st5" points="60.9,37.1 49.5,42.3 45.1,39.7 45.1,40.2 49.6,42.9 61,37.7 67.6,41.5 67.6,41 						"/>
					</g>
				</g>
			</g>
		</g>
		<g>
			<g>
				<g class="st0">
					<g>
						<polygon class="st4" points="53,40.2 54.3,39.5 49.9,36.9 48.6,37.7 						"/>
					</g>
					<g>
						<polygon class="st4" points="64.4,35.1 65.7,34.4 54.3,39.5 53,40.2 						"/>
					</g>
					<g>
						<polygon class="st4" points="71.2,39.5 72.5,38.7 72.5,38.2 71.2,39 						"/>
					</g>
					<g>
						<polygon class="st4" points="71.2,39 72.5,38.2 65.7,34.4 64.4,35.1 						"/>
					</g>
					<g>
						<polygon class="st5" points="64.4,35.1 53,40.2 48.6,37.7 48.6,38.2 53.2,40.8 64.6,35.7 71.2,39.5 71.2,39 						"/>
					</g>
				</g>
			</g>
		</g>
		<g>
			<g>
				<g class="st0">
					<g>
						<polygon class="st4" points="56.6,38.2 57.9,37.4 53.5,34.9 52.2,35.6 						"/>
					</g>
					<g>
						<polygon class="st4" points="68,33 69.3,32.3 57.9,37.4 56.6,38.2 						"/>
					</g>
					<g>
						<polygon class="st4" points="74.7,37.4 76,36.7 76,36.2 74.7,36.9 						"/>
					</g>
					<g>
						<polygon class="st4" points="74.7,36.9 76,36.2 69.3,32.3 68,33 						"/>
					</g>
					<g>
						<polygon class="st5" points="68,33 56.6,38.2 52.2,35.6 52.2,36.1 56.8,38.8 68.2,33.6 74.7,37.4 74.7,36.9 						"/>
					</g>
				</g>
			</g>
		</g>
		<g>
			<g>
				<g class="st0">
					<g>
						<polygon class="st4" points="60.2,36.1 61.5,35.3 57.1,32.8 55.8,33.5 						"/>
					</g>
					<g>
						<polygon class="st4" points="71.6,31 72.9,30.2 61.5,35.3 60.2,36.1 						"/>
					</g>
					<g>
						<polygon class="st4" points="78.3,35.3 79.6,34.6 79.6,34.1 78.3,34.8 						"/>
					</g>
					<g>
						<polygon class="st4" points="78.3,34.8 79.6,34.1 72.9,30.2 71.6,31 						"/>
					</g>
					<g>
						<polygon class="st5" points="71.6,31 60.2,36.1 55.8,33.5 55.8,34 60.3,36.7 71.7,31.5 78.3,35.3 78.3,34.8 						"/>
					</g>
				</g>
			</g>
		</g>
		<g>
			<g>
				<g class="st0">
					<g>
						<polygon class="st4" points="63.8,34 65,33.3 60.6,30.7 59.3,31.5 						"/>
					</g>
					<g>
						<polygon class="st4" points="75.2,28.9 76.4,28.1 65,33.3 63.8,34 						"/>
					</g>
					<g>
						<polygon class="st4" points="81.9,33.3 83.2,32.5 83.2,32 81.9,32.8 						"/>
					</g>
					<g>
						<polygon class="st4" points="81.9,32.8 83.2,32 76.4,28.1 75.2,28.9 						"/>
					</g>
					<g>
						<polygon class="st5" points="75.2,28.9 63.8,34 59.3,31.5 59.3,32 63.9,34.6 75.3,29.5 81.9,33.3 81.9,32.8 						"/>
					</g>
				</g>
			</g>
		</g>
	</g>
	<g>
		<g class="st0">
			<g>
				<polygon class="st1" points="132.7,54.8 132.6,61.8 75.5,94.9 75.6,88 				"/>
			</g>
			<g>
				<polygon class="st2" points="75.6,88 75.5,94.9 18.1,61.8 18.2,54.8 				"/>
			</g>
			<g>
				<polygon class="st6" points="132.7,54.8 75.6,88 18.2,54.8 75.2,21.6 				"/>
			</g>
			<g>
				<polygon class="st2" points="96.8,57 59.5,35.5 72.1,28.3 109.3,49.8 				"/>
				<polygon class="st2" points="98.9,69.8 49.6,41.3 58.2,36.3 107.6,64.8 				"/>
				<polygon class="st2" points="83.1,68.9 42.4,45.4 48.3,42 89,65.5 				"/>
				<polygon class="st2" points="68.6,77.3 27.9,53.8 33.8,50.4 74.5,73.9 				"/>
				<g>
					<polygon class="st2" points="53.8,60.4 35.2,49.6 41,46.2 59.6,57 					"/>
					<polygon class="st2" points="75.8,73.1 57.2,62.4 63.1,59 81.7,69.7 					"/>
				</g>
			</g>
		</g>
	</g>
</g>
</svg>
