<?xml version="1.0" encoding="utf-8"?>
<!-- Generator: Adobe Illustrator 25.0.0, SVG Export Plug-In . SVG Version: 6.00 Build 0)  -->
<svg version="1.1" id="Capa_1" xmlns="http://www.w3.org/2000/svg" xmlns:xlink="http://www.w3.org/1999/xlink" x="0px" y="0px"
	 viewBox="0 0 150 150" style="enable-background:new 0 0 150 150;" xml:space="preserve">
<style type="text/css">
	.st0{fill:#575B68;}
	.st1{fill:#3B404F;}
	.st2{fill:#1C1A1A;}
	.st3{fill:#484246;}
	.st4{fill:#8A8D96;}
	.st5{fill:#AC831E;}
	.st6{fill:#DDAF47;}
	.st7{fill:#EFC156;}
	.st8{fill:#60777B;}
	.st9{fill:#839598;}
	.st10{fill:#D2D9D6;}
	.st11{fill:#D5DBDC;}
	.st12{fill:#8C9C9F;}
	.st13{enable-background:new    ;}
	.st14{clip-path:url(#SVGID_2_);enable-background:new    ;}
	.st15{fill:#3C373A;}
	.st16{fill:#302C2F;}
	.st17{fill:#878386;}
	.st18{fill:#A29EA1;}
	.st19{clip-path:url(#SVGID_4_);enable-background:new    ;}
	.st20{clip-path:url(#SVGID_6_);enable-background:new    ;}
	.st21{fill:#242123;}
	.st22{clip-path:url(#SVGID_8_);enable-background:new    ;}
	.st23{clip-path:url(#SVGID_10_);enable-background:new    ;}
	.st24{clip-path:url(#SVGID_12_);enable-background:new    ;}
	.st25{clip-path:url(#SVGID_14_);enable-background:new    ;}
	.st26{clip-path:url(#SVGID_16_);enable-background:new    ;}
	.st27{clip-path:url(#SVGID_18_);enable-background:new    ;}
	.st28{clip-path:url(#SVGID_20_);enable-background:new    ;}
	.st29{clip-path:url(#SVGID_22_);enable-background:new    ;}
	.st30{clip-path:url(#SVGID_24_);enable-background:new    ;}
</style>
<path class="st0" d="M114.1,109.2l-1.4-2.3l-7.8-4.5l-0.9,0.9c-0.8-0.2-1.4,0.4-1.4,1.4v8.5c0,0.9,0.4,2,1,2.9l1.5,2.1l8,4.6
	l1.5-0.4c0.6-0.1,1-0.8,1-1.7v-8.5C115.5,111.2,114.9,110,114.1,109.2z M109,117.7c-2.3-1.3-4.1-4.5-4.1-7.1s1.8-3.7,4.1-2.3
	c2.3,1.3,4.1,4.5,4.1,7.1C113.1,118,111.2,119,109,117.7z"/>
<path class="st1" d="M112.7,110l-0.4-2.8l-7.8-4.5l-1.9,1.4c-0.8-0.2-1.4,0.4-1.4,1.4v8.5c0,0.9,0.4,2,1,2.9l1.5,2.1l8,4.6l1.5-0.4
	c0.6-0.1,1-0.8,1-1.7V113C114.1,112,113.5,110.8,112.7,110z M107.6,118.5c-2.3-1.3-4.1-4.5-4.1-7.1s1.8-3.7,4.1-2.3
	c2.3,1.3,4.1,4.5,4.1,7.1C111.7,118.8,109.9,119.8,107.6,118.5z"/>
<polygon class="st2" points="87.4,133.1 23.6,96.3 23.6,60.7 87.4,97.5 "/>
<polygon class="st3" points="122.5,112.9 87.4,133.1 87.4,97.5 122.5,77.3 "/>
<path class="st0" d="M38.9,105.1l-1.4-2.3l-7.8-4.5l-0.9,0.9c-0.8-0.2-1.4,0.4-1.4,1.4v8.5c0,0.9,0.4,2,1,2.9l1.5,2.1l8,4.6l1.5-0.4
	c0.6-0.1,1-0.8,1-1.7v-8.5C40.3,107.1,39.7,105.9,38.9,105.1z M33.8,113.6c-2.3-1.3-4.1-4.5-4.1-7.1s1.8-3.7,4.1-2.3
	c2.3,1.3,4.1,4.5,4.1,7.1C37.9,113.9,36.1,115,33.8,113.6z"/>
<path class="st0" d="M79.3,128.5l-1.4-2.3l-7.8-4.5l-0.9,0.9c-0.8-0.2-1.4,0.4-1.4,1.4v8.5c0,0.9,0.4,2,1,2.9l1.5,2.1l8,4.6l1.5-0.4
	c0.6-0.1,1-0.8,1-1.7v-8.5C80.7,130.5,80.1,129.2,79.3,128.5z M74.2,137c-2.3-1.3-4.1-4.5-4.1-7.1s1.8-3.7,4.1-2.3
	c2.3,1.3,4.1,4.5,4.1,7.1C78.3,137.2,76.5,138.3,74.2,137z"/>
<path class="st4" d="M37.5,105.9l-0.4-2.8l-7.8-4.5l-1.9,1.4c-0.8-0.2-1.4,0.4-1.4,1.4v8.5c0,0.9,0.4,2,1,2.9l1.5,2.1l8,4.6l1.5-0.4
	c0.6-0.1,1-0.8,1-1.7V109C39,107.9,38.4,106.7,37.5,105.9z M32.4,114.4c-2.3-1.3-4.1-4.5-4.1-7.1s1.8-3.7,4.1-2.3
	c2.3,1.3,4.1,4.5,4.1,7.1C36.6,114.7,34.7,115.8,32.4,114.4z"/>
<path class="st4" d="M78,129.3l-0.4-2.8l-7.8-4.5l-1.9,1.4c-0.8-0.2-1.4,0.4-1.4,1.4v8.5c0,0.9,0.4,2,1,2.9l1.5,2.1l8,4.6l1.5-0.4
	c0.6-0.1,1-0.8,1-1.7v-8.5C79.4,131.3,78.8,130,78,129.3z M72.9,137.8c-2.3-1.3-4.1-4.5-4.1-7.1s1.8-3.7,4.1-2.3
	c2.3,1.3,4.1,4.5,4.1,7.1C77,138,75.1,139.1,72.9,137.8z"/>
<polygon class="st5" points="88,101.2 21.4,62.7 21.4,56.9 88,95.4 "/>
<polygon class="st6" points="124.6,80 88,101.2 88,95.4 124.6,74.2 "/>
<polygon class="st7" points="88,95.4 21.4,56.9 58,35.8 124.6,74.2 "/>
<path class="st8" d="M89.8,67.4v-7.8h-7.9c-5.5-1.9-12.4-1.9-17.8,0.1h-7.5v8.6l0,0c0.3,2.3,1.9,4.5,4.9,6.2c6.5,3.8,17,3.8,23.5,0
	C88.4,72.6,90,70,89.8,67.4z"/>
<polygon class="st9" points="97.1,59 97.1,56.1 49.2,63.4 49.2,66.3 66.8,76.5 90.7,72.8 "/>
<polygon class="st10" points="97.1,56.1 79.5,45.9 55.6,49.6 49.2,63.4 66.8,73.5 90.7,69.9 "/>
<path class="st9" d="M89.8,59.3v-7.8h-7.9c-5.5-1.9-12.4-1.9-17.8,0.1h-7.5v8.6l0,0c0.3,2.3,1.9,4.5,4.9,6.2c6.5,3.8,17,3.8,23.5,0
	C88.4,64.5,90,61.9,89.8,59.3z"/>
<path class="st11" d="M85,58.7c-6.5,3.7-17,3.7-23.5,0c-6.5-3.8-6.5-9.8-0.1-13.6c6.5-3.7,17-3.7,23.5,0C91.4,48.9,91.4,55,85,58.7z
	"/>
<path class="st12" d="M80.8,56.3c-4.2,2.4-11,2.4-15.2,0s-4.2-6.4,0-8.8c4.2-2.4,11-2.4,15.2,0C85,50,85,53.9,80.8,56.3z"/>
<g>
	<g class="st13">
		<g class="st13">
			<g>
				<defs>
					<path id="SVGID_1_" d="M63.8,46.6c0-0.8,0.1-2.9,1.4-5c1.2-1.9,2.8-2.8,3.9-3.4c0.9-0.4,2.8-1.1,5.5-1c2.6,0.1,4.3,1.1,5.1,1.6
						c0.8,0.5,1.5,1.6,1.5,3.8c0,3.7-3.3,8.6-7.3,10.8c4-2.2,7.3-7.1,7.3-10.8c0-2.2-0.6-3.3-1.5-3.8c4,2.5,4.7,6.7,4.1,9.5
						c-0.7,3.5-3.7,6.3-7.5,7.1c-3,0.7-6.2,0-8.7-1.7C66.2,52.7,63.9,50.5,63.8,46.6z"/>
				</defs>
				<clipPath id="SVGID_2_">
					<use xlink:href="#SVGID_1_"  style="overflow:visible;"/>
				</clipPath>
				<g class="st14">
					<path class="st15" d="M63.8,46.6c0.1,8.4,11.5,12.2,17.7,6c3.5-3.5,3.6-10-1.8-13.7c0.8,0.5,1.5,1.6,1.4,3.7
						c0,3.7-3.3,8.6-7.3,10.8c4-2.2,7.3-7.1,7.3-10.8c0-2.2-0.6-3.3-1.5-3.8C72.5,34.7,63.7,39,63.8,46.6L63.8,46.6z"/>
					<path class="st15" d="M81.2,42.7c0,2.2-1.2,4.9-3.1,7.2c0,0.1,0.1,0.3,0.1,0.4c0.6,5.5-6.5,6.3-10.3,3.3
						c-4.6-3.5-1.1-8.3,3.5-8.6c2.9-0.2,6.3,1.6,6.7,4.9C79.9,47.6,81.1,44.9,81.2,42.7c0-2.2-0.6-3.3-1.5-3.8
						c-0.2-0.1-0.4-0.2-0.5-0.3c-0.2-0.1-0.5-0.2-0.7-0.3L77.9,38c-0.2-0.1-0.4-0.2-0.6-0.2l-0.5-0.2c-0.2,0-0.4-0.1-0.6-0.1
						l-0.5-0.1c-0.2,0-0.4-0.1-0.5-0.1h-0.5c-0.2,0-0.4,0-0.5,0h-0.5c-0.2,0-0.4,0-0.5,0l-0.5,0.1c-0.2,0-0.4,0-0.5,0.1l-0.5,0.1
						c-0.2,0-0.4,0.1-0.6,0.1l-0.5,0.2C70.4,38,70.2,38,70,38.1l-0.6,0.2c-0.2,0.1-0.5,0.2-0.7,0.3L67.9,39
						c-0.2,0.1-0.5,0.3-0.7,0.5l-0.5,0.4c-0.2,0.2-0.5,0.5-0.7,0.7l-0.4,0.5c-0.2,0.3-0.4,0.6-0.6,0.9l-0.3,0.7
						c-0.2,0.4-0.3,0.9-0.5,1.2L64,44.7c-0.2,1.1-0.2,1.2-0.2,2v0.7c0.1,0.4,0.1,1,0.2,1.4l0.2,0.7c0.1,0.4,0.4,0.8,0.5,1.2l0.4,0.6
						c0.2,0.3,0.5,0.7,0.7,0.9l0.5,0.5c0.2,0.2,0.5,0.5,0.8,0.7l0.5,0.4c0.2,0.1,0.4,0.3,0.6,0.4l0.6,0.3c0.2,0.1,0.5,0.2,0.7,0.3
						L70,55c0.2,0.1,0.4,0.2,0.6,0.2l0.5,0.2c0.2,0,0.4,0.1,0.6,0.1l0.5,0.1c0.2,0,0.4,0.1,0.5,0.1h0.5c0.2,0,0.4,0,0.5,0h0.5
						c0.2,0,0.4,0,0.5,0h0.5c0.2,0,0.4,0,0.5-0.1l0.5-0.1c0.2,0,0.4-0.1,0.6-0.1l0.5-0.2c0.2-0.1,0.4-0.1,0.6-0.2l0.6-0.2
						c0.2-0.1,0.5-0.2,0.7-0.3l0.6-0.3c0.2-0.1,0.5-0.3,0.7-0.5l0.5-0.4c0.2-0.2,0.5-0.5,0.7-0.7l0.4-0.5c0.2-0.3,0.5-0.7,0.6-1
						l0.3-0.6c0.2-0.4,0.3-0.8,0.5-1.2l0.2-0.7c0.1-0.9,0.2-1,0.2-1.5v-0.9c-0.1-0.5-0.2-1.1-0.2-1.6l-0.2-0.8
						c-0.1-0.4-0.3-0.9-0.5-1.2L82.6,42c-0.2-0.3-0.4-0.6-0.6-0.9l-0.5-0.5c-0.2-0.2-0.5-0.5-0.7-0.6l-0.5-0.4
						c-0.2-0.1-0.4-0.3-0.6-0.4C80.5,39.4,81.2,40.5,81.2,42.7L81.2,42.7z"/>
					<g>
						<path class="st16" d="M65.3,51.3c-3.2-5.1,2.4-9.2,8.5-8c1.8,0.4,4.3,1.3,6.2,3.7c0.8-1.5,1.2-3,1.2-4.3
							c0-2.2-0.6-3.3-1.5-3.8c-0.2-0.1-0.4-0.2-0.5-0.3c-0.2-0.1-0.5-0.2-0.7-0.3L77.9,38c-0.2-0.1-0.4-0.2-0.6-0.2l-0.5-0.2
							c-0.2,0-0.4-0.1-0.6-0.1l-0.5-0.1c-0.2,0-0.4-0.1-0.5-0.1h-0.5c-0.2,0-0.4,0-0.5,0h-0.5c-0.2,0-0.4,0-0.5,0l-0.5,0.1
							c-0.2,0-0.4,0-0.5,0.1l-0.5,0.1c-0.2,0-0.4,0.1-0.6,0.1l-0.5,0.2C70.4,38,70.2,38,70,38.1l-0.6,0.2c-0.2,0.1-0.5,0.2-0.7,0.3
							L67.9,39c-0.2,0.1-0.5,0.3-0.7,0.5l-0.5,0.4c-0.2,0.2-0.5,0.5-0.7,0.7l-0.4,0.5c-0.2,0.3-0.4,0.6-0.6,0.9l-0.3,0.7
							c-0.2,0.4-0.3,0.9-0.5,1.2L64,44.7c-0.2,1.1-0.2,1.2-0.2,2v0.7c0.1,0.4,0.1,1,0.2,1.4l0.2,0.7c0.1,0.4,0.4,0.8,0.5,1.2
							l0.4,0.6c0.2,0.2,0.4,0.5,0.5,0.7l-0.4-0.5C65.3,51.4,65.3,51.4,65.3,51.3L65.3,51.3z"/>
						<path class="st16" d="M81.2,42.7c0,1.4-0.5,2.9-1.2,4.3c0.1,0.1,0.2,0.3,0.3,0.5c2.3,4-0.3,7.2-4.2,8l0.5-0.1l0.2-0.1l0.5-0.2
							c0.2-0.1,0.4-0.1,0.6-0.2l0.6-0.2c0.2-0.1,0.5-0.2,0.7-0.3l0.6-0.3c0.2-0.1,0.5-0.3,0.7-0.5l0.5-0.4c0.2-0.2,0.5-0.5,0.7-0.7
							l0.4-0.5c0.2-0.3,0.5-0.7,0.6-1l0.3-0.6c0.2-0.4,0.3-0.8,0.5-1.2l0.2-0.7c0.1-0.9,0.2-1,0.2-1.5v-0.9
							c-0.1-0.5-0.2-1.1-0.2-1.6l-0.2-0.8c-0.1-0.4-0.3-0.9-0.5-1.2l-0.4-0.6c-0.2-0.3-0.4-0.6-0.6-0.9l-0.5-0.5
							c-0.2-0.2-0.5-0.5-0.7-0.6l-0.5-0.4c-0.2-0.1-0.4-0.3-0.6-0.4C80.5,39.4,81.2,40.5,81.2,42.7L81.2,42.7z"/>
					</g>
					<path class="st3" d="M70.5,52.4c2.3,0.9,3.5,0,4.4-0.7c0,0,1.7-1.4,0.9-3.5c-1.2-2.8-5.9-2.9-7.1-0.1
						C67.8,50.1,69.4,52,70.5,52.4L70.5,52.4z"/>
					<path class="st17" d="M71.2,50.6c1.5,0.9,3.8-0.2,3.4-2c-0.3-1.4-3.1-2.5-4.4-0.5C70.2,48.1,69.3,49.5,71.2,50.6L71.2,50.6z"/>
					<path class="st18" d="M72.4,49.4c0.3,0,0.5-0.4,0.6-0.6c0-0.1,0.1-0.2,0-0.2c0-0.1-0.9-0.3-1-0.3c-0.2,0.1-0.5,0.3-0.4,0.5
						C71.6,49.1,72.1,49.4,72.4,49.4L72.4,49.4z"/>
				</g>
			</g>
		</g>
		<g class="st13">
			<g>
				<defs>
					<path id="SVGID_3_" d="M68.2,54.1c-1.7-1.1-2.9-2.4-3.7-4.2c-0.7-1.5-0.9-3.3-0.5-5c0.4-2,1.2-3.4,2.6-4.8
						c0.4-0.4,2.1-1.9,4.8-2.5c1.3-0.3,4.8-0.8,8.3,1.3c-1.3-0.8-3-0.3-3.1-0.2c-1.4-0.8-3.6-0.9-5-0.1c-1.4,0.8-1.5,2.1-0.1,3
						c1.4,0.8,3.6,0.9,5,0.1c1.4-0.8,1.5-2.1,0.1-3c0.1,0,1.8-0.6,3.1,0.2c0.6,0.4,1.4,0.9,2.1,1.8c0.9,1,1.2,1.8,1.5,2.4
						c0.5,1.2,0.9,3.3,0.5,5.2c-0.9,4.3-4.5,6.5-7.5,7.2C73.5,56.1,70.5,55.6,68.2,54.1z"/>
				</defs>
				<clipPath id="SVGID_4_">
					<use xlink:href="#SVGID_3_"  style="overflow:visible;"/>
				</clipPath>
				<g class="st19">
					<path class="st3" d="M68.2,54.1c-7.1-4.5-5.1-14.7,3.2-16.6c1.3-0.3,4.8-0.8,8.3,1.3c-1.3-0.8-3-0.3-3.1-0.2
						c-1.4-0.8-3.6-0.9-5-0.1c-1.4,0.8-1.5,2.1-0.1,3c1.4,0.8,3.6,0.9,5,0.1c1.4-0.8,1.5-2.1,0.1-3c0.1,0,1.8-0.6,3.1,0.2
						c7.2,4.8,5.2,14.7-3.4,16.6C73.5,56.1,70.5,55.6,68.2,54.1L68.2,54.1z"/>
					<path class="st3" d="M79.7,38.9c0.4,0.2,0.7,0.4,1.1,0.8l0.5,0.5c0.2,0.2,0.5,0.5,0.7,0.7l0.4,0.6c0.2,0.3,0.4,0.7,0.6,1
						l0.3,0.7c0.1,0.4,0.3,0.9,0.4,1.3l0.2,0.8C84,45.8,84,46.5,84,47v0.7c-0.1,0.9-0.1,1-0.3,1.5l-0.2,0.7
						c-0.2,0.4-0.4,0.8-0.6,1.2l-0.4,0.6c-0.2,0.3-0.5,0.6-0.7,0.9l-0.5,0.5c-0.2,0.2-0.5,0.5-0.8,0.7L80,53.9
						c-0.2,0.1-0.5,0.3-0.7,0.5l-0.6,0.3c-0.2,0.1-0.5,0.2-0.7,0.3l-0.6,0.2c-0.2,0.1-0.4,0.1-0.6,0.2l-0.5,0.1
						c-0.2,0-0.4,0.1-0.5,0.1l-0.5,0.1c-0.2,0-0.4,0-0.5,0h-0.5c-0.2,0-0.4,0-0.5,0h-0.5c-0.2,0-0.4,0-0.5,0l-0.5-0.1
						c-0.2,0-0.4-0.1-0.5-0.1l-0.5-0.1c-0.2,0-0.4-0.1-0.6-0.2L70,55c-0.2-0.1-0.4-0.2-0.6-0.2l-0.6-0.3c-0.2-0.1-0.5-0.3-0.7-0.4
						l-0.6-0.4c-0.2-0.1-0.4-0.3-0.6-0.4l-0.5-0.4c-0.2-0.2-0.5-0.5-0.7-0.7l-0.4-0.5c-0.2-0.3-0.4-0.7-0.6-1L64.5,50
						c-0.1-0.4-0.3-0.9-0.4-1.2L63.9,48c-0.1-0.4-0.1-1-0.1-1.4v-0.9c0.1-1.1,0.2-1.2,0.4-1.9l0.3-0.7c0.2-0.3,0.4-0.8,0.6-1.1
						l0.4-0.6c0.2-0.3,0.5-0.6,0.7-0.8l0.5-0.5c0.2-0.2,0.5-0.4,0.7-0.6l0.5-0.4c0.2-0.1,0.5-0.3,0.7-0.4l0.6-0.3
						c0.2-0.1,0.5-0.2,0.7-0.3l0.6-0.2c0.2-0.1,0.4-0.1,0.6-0.2l0.5-0.1c0.2,0,0.4-0.1,0.6-0.1l0.5-0.1c0.2,0,0.4,0,0.5-0.1h0.5
						c0.2,0,0.4,0,0.5,0h0.5c0.2,0,0.4,0,0.5,0l0.5,0.1c0.2,0,0.4,0.1,0.5,0.1l0.5,0.1c0.2,0,0.4,0.1,0.6,0.2l0.5,0.2
						c0.2,0.1,0.4,0.2,0.6,0.2l0.6,0.3C79.2,38.6,79.5,38.8,79.7,38.9c-1.3-0.8-3-0.3-3.1-0.2c-1.4-0.8-3.6-0.9-5-0.1
						c-1.4,0.8-1.5,2.1-0.1,3c0.4,0.3,0.9,0.4,1.5,0.6c0,0-0.1,0-0.2,0c-1.7,0.7-1.5,3.7,1.3,4.6c3.5,1.1,6.3-1.6,5.3-4.1
						c-0.6-1.5-1.8-1.9-2.1-1.8c0.5-0.7,0.2-1.6-0.8-2.2C76.7,38.6,78.4,38.1,79.7,38.9L79.7,38.9z"/>
					<path class="st15" d="M79.7,38.9c0.4,0.2,0.7,0.4,1.1,0.8l0.5,0.5c0.2,0.2,0.5,0.5,0.7,0.7l0.4,0.6c0.2,0.3,0.4,0.7,0.6,1
						l0.3,0.7c0.1,0.4,0.3,0.9,0.4,1.3l0.2,0.8C84,45.8,84,46.5,84,47v0.7c-0.1,0.9-0.1,1-0.3,1.5l-0.2,0.7
						c-0.2,0.4-0.4,0.8-0.6,1.2l-0.4,0.6c-0.2,0.3-0.5,0.6-0.7,0.9l-0.5,0.5c-0.2,0.2-0.5,0.5-0.8,0.7L80,53.9
						c-0.2,0.1-0.5,0.3-0.7,0.5l-0.6,0.3c-0.2,0.1-0.5,0.2-0.7,0.3l-0.6,0.2c-0.2,0.1-0.4,0.1-0.6,0.2l-0.5,0.1
						c-0.2,0-0.4,0.1-0.5,0.1l-0.5,0.1c-0.2,0-0.4,0-0.5,0h-0.5c-0.2,0-0.4,0-0.5,0h-0.5c-0.2,0-0.4,0-0.5,0l-0.5-0.1
						c-0.2,0-0.4-0.1-0.5-0.1l-0.5-0.1c-0.2,0-0.4-0.1-0.6-0.2L70,55c-0.2-0.1-0.4-0.2-0.6-0.2l-0.6-0.3c-0.2-0.1-0.5-0.3-0.7-0.4
						l-0.6-0.4c-0.2-0.1-0.4-0.3-0.6-0.4l-0.5-0.4c-0.2-0.2-0.5-0.5-0.7-0.7l-0.4-0.5c-0.2-0.3-0.4-0.7-0.6-1L64.5,50
						c-0.1-0.4-0.3-0.9-0.4-1.2L63.9,48c-0.1-0.4-0.1-1-0.1-1.4v-0.9c0.1-1.1,0.2-1.2,0.4-1.9l0.3-0.7c0.2-0.3,0.4-0.8,0.6-1.1
						l0.4-0.6c0.2-0.3,0.5-0.6,0.7-0.8l0.5-0.5c0.2-0.2,0.5-0.4,0.7-0.6l0.5-0.4c0.2-0.1,0.5-0.3,0.7-0.4l0.6-0.3
						c0.2-0.1,0.5-0.2,0.7-0.3l0.6-0.2c0.2-0.1,0.4-0.1,0.6-0.2l0.5-0.1c0.2,0,0.4-0.1,0.6-0.1l0.5-0.1c0.2,0,0.4,0,0.5-0.1h0.5
						c0.2,0,0.4,0,0.5,0h0.5c0.2,0,0.4,0,0.5,0l0.5,0.1c0.2,0,0.4,0.1,0.5,0.1l0.5,0.1c0.2,0,0.4,0.1,0.6,0.2l0.5,0.2
						c0.2,0.1,0.4,0.2,0.6,0.2l0.6,0.3C79.2,38.6,79.5,38.8,79.7,38.9c-0.4-0.2-0.8-0.4-1.3-0.4c-0.1,0-0.1-0.1-0.2-0.1
						c-6.4-2.5-10.7,1.4-8.6,5.8c2.8,5.9,10.9,4.1,12.2-0.1c0.1-0.3,0.9-3.4-3.5-5.6C78.8,38.5,79.3,38.6,79.7,38.9L79.7,38.9z"/>
					<path class="st16" d="M83,42.4c0.4,0.8,0.5,1,0.7,2l0.2,0.8c0.1,0.5,0.1,1.2,0.1,1.7v0.7c-0.1,0.9-0.1,1-0.3,1.5l-0.2,0.7
						c-0.2,0.4-0.4,0.8-0.6,1.2l-0.4,0.6c-0.2,0.3-0.5,0.6-0.7,0.9L81.3,53c-0.2,0.2-0.5,0.5-0.8,0.7L80,53.9
						c-0.2,0.1-0.5,0.3-0.7,0.5l-0.6,0.3c-0.2,0.1-0.5,0.2-0.7,0.3l-0.6,0.2c-0.2,0.1-0.4,0.1-0.6,0.2l-0.5,0.1
						c-0.2,0-0.4,0.1-0.5,0.1l-0.5,0.1c-0.2,0-0.4,0-0.5,0h-0.5c-0.2,0-0.4,0-0.5,0h-0.5c-0.2,0-0.4,0-0.5,0l-0.5-0.1
						c-0.2,0-0.4-0.1-0.5-0.1l-0.5-0.1c-0.2,0-0.4-0.1-0.6-0.2L70,55c-0.2-0.1-0.4-0.2-0.6-0.2l-0.6-0.3c-0.2-0.1-0.5-0.3-0.7-0.4
						l-0.6-0.4c-0.2-0.1-0.4-0.3-0.6-0.4l-0.5-0.4c-0.2-0.2-0.5-0.5-0.7-0.7l-0.4-0.5c-0.2-0.3-0.4-0.7-0.6-1L64.5,50
						c-0.1-0.4-0.3-0.9-0.4-1.2L63.9,48c-0.1-0.4-0.1-1-0.1-1.4v-0.9c0.1-1.1,0.2-1.2,0.4-1.9l0.3-0.7c0.2-0.3,0.4-0.8,0.6-1.1
						l0.4-0.6c0.2-0.3,0.5-0.6,0.7-0.8l0.5-0.5c0.2-0.2,0.5-0.4,0.7-0.6l0.5-0.4c0.2-0.1,0.5-0.3,0.7-0.4l0.6-0.3
						c0.2-0.1,0.5-0.2,0.7-0.3l0.6-0.2c0.2-0.1,0.4-0.1,0.6-0.2l0.5-0.1l0.3-0.1l-0.5,0.1c-6.4,1.8-5.8,7.7-0.7,10.6
						c6.3,3.6,14,0.7,12.8-4.8c-0.2-0.8-0.6-1.7-1.2-2.4l0.4,0.6C82.6,41.8,82.8,42.1,83,42.4L83,42.4z"/>
					<path class="st17" d="M78,44.4c0,1.5-1.9,1.8-1.9,1.8c-0.4,0.1-2,0.1-2.8-1c-0.9-1.4,1.2-2.7,3.2-2.3
						C76.5,42.8,78,43.1,78,44.4L78,44.4z"/>
					<path class="st18" d="M76.1,44.9c-0.3,0.5-1.4,0.1-1.4-0.4c0-0.1,0.1-0.2,0.1-0.2c0.2-0.1,0.5-0.3,0.7-0.3s0.6,0.1,0.7,0.3
						C76.3,44.4,76.2,44.8,76.1,44.9L76.1,44.9z"/>
				</g>
			</g>
		</g>
		<g class="st13">
			<g>
				<defs>
					<path id="SVGID_5_" d="M77.5,40.3c0.1-0.6-0.2-1.2-1-1.7c0.1-1,2.2-19.1,3.4-28.9c1.7,1,2.4,2.4,2.2,3.7
						C80.4,22.5,77.6,39.4,77.5,40.3z"/>
				</defs>
				<clipPath id="SVGID_6_">
					<use xlink:href="#SVGID_5_"  style="overflow:visible;"/>
				</clipPath>
				<g class="st20">
					<path class="st21" d="M77.5,40.3c0.1-0.9,2.9-17.8,4.6-26.8c0.2-1.3-0.5-2.7-2.2-3.7c-1.3,9.8-3.3,27.9-3.4,28.9
						C77.3,39.1,77.6,39.7,77.5,40.3L77.5,40.3z"/>
				</g>
			</g>
		</g>
		<g class="st13">
			<g>
				<defs>
					<path id="SVGID_7_" d="M66.3,13.3c-0.2-1.4,0.6-2.8,2.4-3.8c3.2-1.8,8.2-1.7,11.3,0.2c-1.3,9.8-3.3,27.9-3.4,28.9
						c-1.4-0.8-3.6-0.9-5-0.1c-0.8,0.4-1.2,1.1-1.1,1.7C70.3,39.4,67.8,22.4,66.3,13.3z"/>
				</defs>
				<clipPath id="SVGID_8_">
					<use xlink:href="#SVGID_7_"  style="overflow:visible;"/>
				</clipPath>
				<g class="st22">
					<path class="st21" d="M66.3,13.3c1.5,9.1,4,26,4.1,26.9c-0.1-0.6,0.3-1.2,1.1-1.7c1.4-0.8,3.7-0.7,5,0.1
						c0.1-1,2.2-19.1,3.4-28.9c-3-1.9-8.1-2-11.3-0.2C66.9,10.6,66.1,12,66.3,13.3L66.3,13.3z"/>
				</g>
			</g>
		</g>
		<g class="st13">
			<g>
				<defs>
					<path id="SVGID_9_" d="M82.1,13.5c-0.3,1.7-0.8,4.1-1.7,9.6c-0.4,2.3-0.8,4.6-1.2,6.8c-0.6,3.4-1.2,6.9-1.7,10.3l0,0
						C77.6,39.5,80.4,22.6,82.1,13.5z"/>
				</defs>
				<clipPath id="SVGID_10_">
					<use xlink:href="#SVGID_9_"  style="overflow:visible;"/>
				</clipPath>
				<g class="st23">
					<path class="st15" d="M82.1,13.5c-1.6,8.5-3.6,20.4-4.6,26.8l0,0C77.6,39.5,80.4,22.6,82.1,13.5L82.1,13.5z"/>
					<path class="st15" d="M77.5,40.3c0.1-0.9,2.9-17.8,4.6-26.8c-0.1,0.4-0.2,1-0.3,1.4c-0.1,0.5-0.2,1.1-0.3,1.5L81.3,18
						c-0.1,0.5-0.2,1.2-0.3,1.7l-0.3,1.7c-0.1,0.5-0.2,1.2-0.3,1.7l-0.3,1.7c-0.1,0.5-0.2,1.2-0.3,1.7l-0.3,1.7
						c-0.1,0.5-0.2,1.2-0.3,1.7L79,31.6c-0.1,0.5-0.2,1.1-0.3,1.5l-0.2,1.4c-0.1,0.4-0.2,0.9-0.2,1.3L78,37c-0.1,0.3-0.1,0.7-0.2,1
						l-0.1,0.9c0,0.2-0.1,0.5-0.1,0.7l-0.1,0.5C77.5,40.1,77.5,40.2,77.5,40.3L77.5,40.3L77.5,40.3z"/>
					<path class="st16" d="M77.5,40.3c0.1-0.9,2.9-17.8,4.6-26.8c-0.1,0.4-0.2,1-0.3,1.4c-0.1,0.5-0.2,1.1-0.3,1.5L81.3,18
						c-0.1,0.5-0.2,1.2-0.3,1.7l-0.3,1.7c-0.1,0.5-0.2,1.2-0.3,1.7l-0.3,1.7c-0.1,0.5-0.2,1.2-0.3,1.7l-0.3,1.7
						c-0.1,0.5-0.2,1.2-0.3,1.7L79,31.6c-0.1,0.5-0.2,1.1-0.3,1.5l-0.2,1.4c-0.1,0.4-0.2,0.9-0.2,1.3L78,37c-0.1,0.3-0.1,0.7-0.2,1
						l-0.1,0.9c0,0.2-0.1,0.5-0.1,0.7l-0.1,0.5C77.5,40.1,77.5,40.2,77.5,40.3L77.5,40.3L77.5,40.3z"/>
				</g>
			</g>
		</g>
		<g class="st13">
			<g>
				<defs>
					<path id="SVGID_11_" d="M77.5,40.3c0.1-0.9,2.9-17.8,4.6-26.8c0,0,0,0,0,0.1c-0.4,2-0.9,4.7-1.4,7.8c-0.3,1.6-1,5.9-1.5,8.6
						C78.6,33.4,78.1,36.9,77.5,40.3z"/>
				</defs>
				<clipPath id="SVGID_12_">
					<use xlink:href="#SVGID_11_"  style="overflow:visible;"/>
				</clipPath>
				<g class="st24">
					<path class="st15" d="M77.5,40.3c1-6.3,3-18.3,4.6-26.8c0,0,0,0,0-0.1C80.4,22.5,77.6,39.4,77.5,40.3L77.5,40.3z"/>
					<path class="st15" d="M77.5,40.3c0-0.2,0.1-0.5,0.1-0.7l0.1-0.7c0-0.3,0.1-0.6,0.1-0.9l0.2-1c0.1-0.4,0.1-0.8,0.2-1.2l0.2-1.3
						c0.1-0.4,0.2-1,0.2-1.4l0.3-1.5c0.1-0.5,0.2-1.1,0.3-1.6l0.3-1.7c0.1-0.5,0.2-1.2,0.3-1.7l0.3-1.7c0.1-0.5,0.2-1.2,0.3-1.7
						l0.3-1.7c0.1-0.5,0.2-1.2,0.3-1.7l0.3-1.7c0.1-0.5,0.2-1.1,0.3-1.6l0.3-1.5c0.1-0.4,0.2-1,0.3-1.4
						C80.4,22.5,77.6,39.4,77.5,40.3L77.5,40.3z"/>
					<path class="st16" d="M77.5,40.3c0-0.2,0.1-0.5,0.1-0.7l0.1-0.7c0-0.3,0.1-0.6,0.1-0.9l0.2-1c0.1-0.4,0.1-0.8,0.2-1.2l0.2-1.3
						c0.1-0.4,0.2-1,0.2-1.4l0.3-1.5c0.1-0.5,0.2-1.1,0.3-1.6l0.3-1.7c0.1-0.5,0.2-1.2,0.3-1.7l0.3-1.7c0.1-0.5,0.2-1.2,0.3-1.7
						l0.3-1.7c0.1-0.5,0.2-1.2,0.3-1.7l0.3-1.7c0.1-0.5,0.2-1.1,0.3-1.6l0.3-1.5c0.1-0.4,0.2-1,0.3-1.4
						C80.4,22.5,77.6,39.4,77.5,40.3L77.5,40.3z"/>
				</g>
			</g>
		</g>
		<g class="st13">
			<g>
				<defs>
					<path id="SVGID_13_" d="M66.3,13.4L66.3,13.4c1.5,9,4,26,4.1,26.8c-0.5-3.5-1-6.9-1.5-10.4c-0.6-3.8-1.3-8.6-1.3-8.6
						C67.1,18.2,66.3,13.4,66.3,13.4z"/>
				</defs>
				<clipPath id="SVGID_14_">
					<use xlink:href="#SVGID_13_"  style="overflow:visible;"/>
				</clipPath>
				<g class="st25">
					<path class="st21" d="M66.3,13.4c1.4,8.5,3.2,20.5,4.1,26.8C70.3,39.4,67.8,22.4,66.3,13.4L66.3,13.4L66.3,13.4z"/>
				</g>
			</g>
		</g>
		<g class="st13">
			<g>
				<defs>
					<path id="SVGID_15_" d="M70.4,40.2c-0.5-3.1-1.5-10.3-1.5-10.4c-0.4-2.9-0.9-5.7-1.3-8.6c-0.7-4.4-1.1-7.1-1.3-7.9
						C67.8,22.5,70.3,39.4,70.4,40.2C70.4,40.3,70.4,40.3,70.4,40.2z"/>
				</defs>
				<clipPath id="SVGID_16_">
					<use xlink:href="#SVGID_15_"  style="overflow:visible;"/>
				</clipPath>
				<g class="st26">
					<path class="st15" d="M70.4,40.2c-0.9-6.4-2.7-18.3-4.1-26.8C67.8,22.5,70.3,39.4,70.4,40.2C70.4,40.3,70.4,40.3,70.4,40.2
						L70.4,40.2z"/>
					<path class="st15" d="M70.4,40.3V40c0-0.1,0-0.3-0.1-0.5l-0.1-0.7c0-0.3-0.1-0.6-0.1-0.9l-0.2-1c-0.1-0.4-0.1-0.8-0.2-1.2
						l-0.2-1.3c-0.1-0.4-0.1-1-0.2-1.4l-0.2-1.5C69,31,69,30.3,68.9,29.9l-0.3-1.7c-0.1-0.5-0.2-1.2-0.3-1.7L68,24.8
						c-0.1-0.5-0.2-1.2-0.3-1.7l-0.3-1.7c-0.1-0.5-0.2-1.2-0.3-1.7L67,17.9c-0.1-0.5-0.2-1.1-0.3-1.6l-0.2-1.5
						c-0.1-0.4-0.2-1-0.2-1.4C67.8,22.5,70.3,39.4,70.4,40.3L70.4,40.3z"/>
					<path class="st16" d="M70.4,40.3V40c0-0.1,0-0.3-0.1-0.5l-0.1-0.7c0-0.3-0.1-0.6-0.1-0.9l-0.2-1c-0.1-0.4-0.1-0.8-0.2-1.2
						l-0.2-1.3c-0.1-0.4-0.1-1-0.2-1.4l-0.2-1.5C69,31,69,30.3,68.9,29.9l-0.3-1.7c-0.1-0.5-0.2-1.2-0.3-1.7L68,24.8
						c-0.1-0.5-0.2-1.2-0.3-1.7l-0.3-1.7c-0.1-0.5-0.2-1.2-0.3-1.7L67,17.9c-0.1-0.5-0.2-1.1-0.3-1.6l-0.2-1.5
						c-0.1-0.4-0.2-1-0.2-1.4C67.8,22.5,70.3,39.4,70.4,40.3L70.4,40.3z"/>
				</g>
			</g>
		</g>
		<g class="st13">
			<g>
				<defs>
					<path id="SVGID_17_" d="M78.6,4.5c1.1,0.7,1.8,2.2,1.4,5.3c-3-1.9-8.1-2-11.3-0.2c-1.8,1-2.6,2.4-2.4,3.8c0,0,0,0,0,0.1
						c-0.8-5.1,1.8-7.7,3-8.5C72.1,2.8,75.6,2.7,78.6,4.5z"/>
				</defs>
				<clipPath id="SVGID_18_">
					<use xlink:href="#SVGID_17_"  style="overflow:visible;"/>
				</clipPath>
				<g class="st27">
					<path class="st21" d="M78.6,4.5c-6-3.4-13.6,0.7-12.3,8.9c0,0,0,0,0-0.1c-0.2-1.4,0.6-2.8,2.4-3.8c3.2-1.8,8.2-1.7,11.3,0.2
						C80.4,6.6,79.6,5.1,78.6,4.5L78.6,4.5z"/>
				</g>
			</g>
		</g>
		<g class="st13">
			<g>
				<defs>
					<path id="SVGID_19_" d="M82.1,13.5L82.1,13.5c0.2-1.4-0.5-2.7-2.2-3.8c0.4-3.1-0.3-4.6-1.4-5.3c0.7,0.4,1.3,0.9,1.7,1.5
						c0.9,1,1.3,2,1.3,2c0.4,0.9,0.6,1.5,0.7,2.9C82.4,11.7,82.3,12.4,82.1,13.5z"/>
				</defs>
				<clipPath id="SVGID_20_">
					<use xlink:href="#SVGID_19_"  style="overflow:visible;"/>
				</clipPath>
				<g class="st28">
					<path class="st21" d="M82.1,13.5c0.2-1.5,0.9-6.3-3.6-9.1c1.1,0.7,1.8,2.2,1.4,5.3C81.6,10.8,82.4,12.2,82.1,13.5L82.1,13.5
						L82.1,13.5z"/>
				</g>
			</g>
		</g>
		<g class="st13">
			<g>
				<defs>
					<path id="SVGID_21_" d="M70.2,4.3c2.7-1.5,5.8-1.4,8.4,0.2c-1.6-1-4.1,0-4.3,0.1c0.2-0.1,2.6-1.1,4.3-0.1
						C79.3,5,80.9,6,81.8,8.3c0.4,1,0.5,2,0.5,2.5c0.1,1.1,0,1.8-0.2,2.8s-1,2.1-2.4,2.8c-3.2,1.8-8.2,1.7-11.3-0.2
						c-1.3-0.8-2-1.8-2.2-2.8C66,12,66,11.7,66.1,10.3c0-0.3,0.2-1.3,0.5-2.1C67.5,6.4,68.7,5.1,70.2,4.3z"/>
				</defs>
				<clipPath id="SVGID_22_">
					<use xlink:href="#SVGID_21_"  style="overflow:visible;"/>
				</clipPath>
				<g class="st29">
					<path class="st15" d="M70.2,4.3c1.5-0.8,4.7-1.9,8.3,0.2c-1.6-1-4,0-4.2,0.1c0.2-0.1,2.6-1.1,4.3-0.1c4,2.7,3.9,6.5,3.6,9.1
						c-0.2,1-1,2.1-2.4,2.8c-3.2,1.8-8.2,1.7-11.3-0.2c-1.3-0.8-2-1.8-2.2-2.8C65.6,8,68.1,5.5,70.2,4.3L70.2,4.3z"/>
					<path class="st15" d="M78.6,4.5c0.2,0.1,0.4,0.3,0.6,0.4l0.5,0.4c0.2,0.2,0.4,0.4,0.5,0.5l0.4,0.5C80.8,6.5,81,6.8,81.1,7
						l0.4,0.6c0.1,0.3,0.3,0.7,0.4,1l0.2,0.8c0.1,0.4,0.2,1,0.2,1.4v0.9c0,0.6-0.1,1.3-0.2,1.8c-0.2,1-1,2.1-2.4,2.8
						c-3.2,1.8-8.2,1.7-11.3-0.2c-1.3-0.8-2-1.8-2.2-2.8c0-0.3-0.1-0.7-0.1-1c0-0.4,0-0.8,0-1.2l0.1-0.9c0.1-0.4,0.2-1,0.3-1.4
						l0.3-0.7c0.1-0.3,0.3-0.7,0.5-1l0.4-0.6c0.2-0.2,0.4-0.5,0.6-0.7l0.4-0.4C68.8,5.3,69,5.1,69.2,5l0.5-0.3
						c0.2-0.1,0.4-0.2,0.6-0.3L70.7,4c0.1,0,0.3-0.1,0.5-0.2l0.4-0.2c0.1,0,0.3-0.1,0.4-0.1l0.4-0.1c0.1,0,0.3-0.1,0.4-0.1l0.4-0.1
						c0.1,0,0.3,0,0.4,0H74c0.1,0,0.3,0,0.4,0h0.4c0.1,0,0.3,0,0.4,0l0.4,0.1c0.1,0,0.3,0,0.4,0.1l0.4,0.1c0.1,0,0.3,0.1,0.4,0.1
						l0.4,0.1c0.1,0.1,0.3,0.1,0.5,0.2l0.5,0.2C78.2,4.3,78.4,4.4,78.6,4.5c-0.4-0.2-0.8-0.4-1.3-0.4C77.2,4,77,4,76.9,3.9
						c-4.6-1.4-6.6,2.6-5.3,5.1c2,3.9,7.4,3.2,8.6-0.3c0.5-1.4-0.3-3.6-2.9-4.7C77.8,4.1,78.2,4.2,78.6,4.5L78.6,4.5z"/>
					<path class="st16" d="M81.1,7c0.4,0.8,0.5,0.9,0.8,1.6l0.2,0.8c0.1,0.4,0.2,1,0.2,1.4v0.9c0,0.6-0.1,1.3-0.2,1.8
						c-0.2,1-1,2.1-2.4,2.8c-3.2,1.8-8.2,1.7-11.3-0.2c-1.3-0.8-2-1.8-2.2-2.8c0-0.3-0.1-0.7-0.1-1c0-0.4,0-0.8,0-1.2l0.1-0.9
						c0.1-0.4,0.2-1,0.3-1.4l0.3-0.7c0.1-0.3,0.3-0.7,0.5-1l0.4-0.6c0.2-0.2,0.4-0.5,0.6-0.7l0.4-0.4C68.8,5.3,69,5.1,69.2,5
						l0.5-0.3c0.2-0.1,0.4-0.2,0.6-0.3L70.7,4c0.1,0,0.3-0.1,0.5-0.2l0.4-0.2c0.1,0,0.3-0.1,0.4-0.1l0.4-0.1h0.2h-0.2
						c-4.7,1.2-5,6-0.4,8.8c4.7,2.9,10.7,0.4,9.6-3.9c-0.1-0.3-0.3-1.1-1-2L81,6.8L81.1,7L81.1,7z"/>
					<path class="st3" d="M76.4,5.4c2.7,1.7,2.2,4.5-0.1,5.1C74.2,11,71.5,9,73.4,6.1c0.2-0.4,0.5-0.7,0.7-1
						c0.1-0.1,0.2-0.3,0.2-0.4l0,0C74.3,4.6,75.8,5.1,76.4,5.4L76.4,5.4z"/>
					<path class="st17" d="M77.1,8.7c0,0-0.3,1-1.3,1.1c-0.8,0.1-1.6-0.4-1.7-0.6c0,0-0.6-0.8-0.3-1.6C74.4,6,75,6.2,75.2,6.2
						C75.8,6.4,76.5,7,76.5,7c0.2,0.2,0.4,0.4,0.5,0.7C77.1,8,77.1,8.4,77.1,8.7L77.1,8.7z"/>
					<path class="st18" d="M75.6,8.5c0,0-0.7-0.2-0.7-0.3V8.1C75,8,75.2,7.8,75.4,7.8c0.2,0,0.4,0.2,0.5,0.4
						C75.8,8.3,75.7,8.5,75.6,8.5L75.6,8.5z"/>
				</g>
			</g>
		</g>
		<g class="st13">
			<g>
				<defs>
					<path id="SVGID_23_" d="M70.4,40.3c-0.1-0.9-2.6-17.8-4.1-26.9c0.2,1,0.9,2,2.2,2.8c3,1.9,8.1,2,11.3,0.2
						c1.4-0.8,2.2-1.8,2.4-2.8c-1.7,9-4.5,25.9-4.6,26.8c-0.1,0.5-0.4,0.9-1.1,1.3c-1.4,0.8-3.7,0.7-5-0.1
						C70.8,41.2,70.5,40.7,70.4,40.3z"/>
				</defs>
				<clipPath id="SVGID_24_">
					<use xlink:href="#SVGID_23_"  style="overflow:visible;"/>
				</clipPath>
				<g class="st30">
					<path class="st15" d="M70.4,40.3c-0.1-0.9-2.6-17.8-4.1-26.9c0.2,1,0.9,2,2.2,2.8c3,1.9,8.1,2,11.3,0.2
						c1.4-0.8,2.2-1.8,2.4-2.8c-1.7,9-4.5,25.9-4.6,26.8c-0.1,0.5-0.4,0.9-1.1,1.3c-1.4,0.8-3.7,0.7-5-0.1
						C70.8,41.2,70.5,40.7,70.4,40.3L70.4,40.3z"/>
					<path class="st15" d="M77.5,40.3c-0.1,0.5-0.4,0.9-1.1,1.3c-1.4,0.8-3.7,0.7-5-0.1c-0.6-0.4-0.9-0.8-1-1.2
						c-0.1-0.9-2.6-17.8-4.1-26.9c0.2,1,0.9,2,2.2,2.8c3,1.9,8.1,2,11.3,0.2c1.4-0.8,2.2-1.8,2.4-2.8C80.4,22.6,77.6,39.5,77.5,40.3
						L77.5,40.3z"/>
					<path class="st16" d="M77.5,40.3c-0.1,0.5-0.4,0.9-1.1,1.3c-1.4,0.8-3.7,0.7-5-0.1c-0.6-0.4-0.9-0.8-1-1.2
						c-0.1-0.9-2.6-17.8-4.1-26.9c0.2,1,0.9,2,2.2,2.8c3,1.9,8.1,2,11.3,0.2c1.4-0.8,2.2-1.8,2.4-2.8C80.4,22.6,77.6,39.5,77.5,40.3
						L77.5,40.3z"/>
				</g>
			</g>
		</g>
	</g>
</g>
</svg>
