<?xml version="1.0" encoding="utf-8"?>
<!-- Generator: Adobe Illustrator 25.0.0, SVG Export Plug-In . SVG Version: 6.00 Build 0)  -->
<svg version="1.1" id="Capa_1" xmlns="http://www.w3.org/2000/svg" xmlns:xlink="http://www.w3.org/1999/xlink" x="0px" y="0px"
	 viewBox="0 0 150 150" style="enable-background:new 0 0 150 150;" xml:space="preserve">
<style type="text/css">
	.st0{fill:#5C8DBC;}
	.st1{fill:#1A4674;}
	.st2{fill:#1B598E;}
	.st3{fill:#FFFFFF;}
</style>
<g>
	<path class="st0" d="M130.6,49.3c0-2.1-0.5-4-1.4-5.6c-0.9-1.6-2.2-2.9-4-3.9c-14.8-8.5-29.6-17-44.4-25.6c-4-2.3-7.9-2.2-11.8,0.1
		c-5.9,3.5-35.4,20.4-44.2,25.5c-3.6,2.1-5.4,5.3-5.4,9.5c0,17.2,0,34.3,0,51.5c0,2.1,0.4,3.9,1.3,5.4c0.9,1.6,2.2,3,4.1,4
		c8.8,5.1,38.3,22,44.2,25.5c4,2.3,7.8,2.4,11.8,0.1c14.8-8.5,29.6-17.1,44.4-25.6c1.8-1.1,3.2-2.4,4.1-4c0.9-1.6,1.3-3.4,1.3-5.4
		C130.6,100.7,130.6,66.4,130.6,49.3"/>
	<path class="st1" d="M75.2,74.8l-54.5,31.4c0.9,1.6,2.2,3,4.1,4c8.8,5.1,38.3,22,44.2,25.5c4,2.3,7.8,2.4,11.8,0.1
		c14.8-8.5,29.6-17.1,44.4-25.6c1.8-1.1,3.2-2.4,4.1-4L75.2,74.8"/>
	<path class="st1" d="M59,84.1c3.2,5.5,9.1,9.3,16,9.3c6.9,0,12.9-3.8,16-9.4l-15.9-9.2L59,84.1"/>
	<path class="st2" d="M130.6,49.3c0-2.1-0.5-4-1.4-5.6L75.2,74.8l54.1,31.4c0.9-1.6,1.3-3.4,1.3-5.4
		C130.6,100.7,130.6,66.4,130.6,49.3"/>
	<path class="st3" d="M127.6,77.1h-4.2v4.2h-4.2v-4.2h-4.2v-4.2h4.2v-4.2h4.2v4.2h4.2V77.1 M112.2,77.1H108v4.2h-4.2v-4.2h-4.2v-4.2
		h4.2v-4.2h4.2v4.2h4.2V77.1"/>
	<path class="st3" d="M91,84c-3.2,5.6-9.1,9.4-16,9.4c-6.8,0-12.8-3.7-16-9.3c-1.6-2.8-2.4-5.9-2.4-9.1c0-10.2,8.2-18.4,18.4-18.4
		c6.8,0,12.7,3.7,15.9,9.2l16.1-9.3c-6.4-11-18.3-18.4-32-18.4c-20.4,0-36.9,16.5-36.9,36.9c0,6.7,1.8,13,4.9,18.4
		c6.4,11.1,18.3,18.6,32,18.6c13.7,0,25.7-7.5,32.1-18.6L91,84"/>
</g>
</svg>
