<?xml version="1.0" encoding="utf-8"?>
<!-- Generator: Adobe Illustrator 25.0.0, SVG Export Plug-In . SVG Version: 6.00 Build 0)  -->
<svg version="1.1" id="Capa_1" xmlns="http://www.w3.org/2000/svg" xmlns:xlink="http://www.w3.org/1999/xlink" x="0px" y="0px"
	 viewBox="0 0 150 150" style="enable-background:new 0 0 150 150;" xml:space="preserve">
<style type="text/css">
	.st0{fill:url(#SVGID_1_);}
	.st1{fill:url(#SVGID_2_);}
</style>
<g>
	
		<linearGradient id="SVGID_1_" gradientUnits="userSpaceOnUse" x1="8.523686e-03" y1="150.129" x2="4.183092e-02" y2="150.0886" gradientTransform="matrix(2454.3228 0 0 -2187.2434 16.0698 328374.1562)">
		<stop  offset="0" style="stop-color:#41D1FF"/>
		<stop  offset="1" style="stop-color:#BD34FE"/>
	</linearGradient>
	<path class="st0" d="M144.4,25.7L78.8,143.2c-1.4,2.4-4.8,2.4-6.2,0L5.6,25.7c-1.5-2.6,0.7-5.8,3.7-5.3L75,32.2
		c0.4,0.1,0.8,0.1,1.3,0l64.4-11.7C143.7,19.9,145.9,23.1,144.4,25.7z"/>
	
		<linearGradient id="SVGID_2_" gradientUnits="userSpaceOnUse" x1="-0.6926" y1="150.005" x2="-0.6887" y2="149.9555" gradientTransform="matrix(1125.4194 0 0 -2051.6592 862.868 307766.3438)">
		<stop  offset="0" style="stop-color:#FFEA83"/>
		<stop  offset="8.299999e-02" style="stop-color:#FFDD35"/>
		<stop  offset="1" style="stop-color:#FFA800"/>
	</linearGradient>
	<path class="st1" d="M106.4,5l-48.6,9.5c-0.8,0.2-1.4,0.8-1.4,1.6l-3,50.5c-0.1,1,0.7,1.8,1.7,1.9c0.2,0,0.3,0,0.5,0L69,65.4
		c1.3-0.3,2.4,0.8,2.1,2.1l-4,19.7c-0.3,1.3,1,2.5,2.3,2.1l8.4-2.5c1.3-0.4,2.5,0.7,2.3,2.1l-6.4,30.9c-0.4,1.9,2.2,3,3.2,1.3
		l0.7-1.1l39.6-79c0.7-1.3-0.5-2.8-1.9-2.6L101.4,41c-1.3,0.3-2.4-1-2.1-2.2l9.1-31.5C108.8,6,107.7,4.8,106.4,5L106.4,5z"/>
</g>
</svg>
