<?xml version="1.0" encoding="utf-8"?>
<!-- Generator: Adobe Illustrator 25.0.0, SVG Export Plug-In . SVG Version: 6.00 Build 0)  -->
<svg version="1.1" id="Capa_1" xmlns="http://www.w3.org/2000/svg" xmlns:xlink="http://www.w3.org/1999/xlink" x="0px" y="0px"
	 viewBox="0 0 150 150" style="enable-background:new 0 0 150 150;" xml:space="preserve">
<style type="text/css">
	.st0{fill:#9CC2C8;}
	.st1{fill:#3D2BA1;}
	.st2{fill:#5343AC;}
	.st3{fill:#6556BA;}
	.st4{fill:#978DCE;}
	.st5{fill:#CFD7DE;}
	.st6{fill:#889299;}
</style>
<g>
	<path class="st0" d="M48.2,80.9L43.5,81v51.6v0v0l0,0c0,0.3,0.2,0.7,0.7,1c0.9,0.5,2.4,0.5,3.3,0c0.5-0.3,0.7-0.6,0.7-1l0,0V80.9z"
		/>
	<path class="st0" d="M64.8,89.6l-4.7,0.1v51.6v0v0l0,0c0,0.3,0.2,0.7,0.7,1c0.9,0.5,2.4,0.5,3.3,0c0.5-0.3,0.7-0.6,0.7-1l0,0V89.6z
		"/>
	<path class="st0" d="M90.1,87.9L85.4,88v51.6v0v0l0,0c0,0.3,0.2,0.7,0.7,1c0.9,0.5,2.4,0.5,3.3,0c0.5-0.3,0.7-0.6,0.7-1h0V87.9z"/>
	<path class="st0" d="M101.6,71.4l-4.7,0.1v51.6v0v0l0,0c0,0.3,0.2,0.7,0.7,1c0.9,0.5,2.4,0.5,3.3,0c0.5-0.3,0.7-0.6,0.7-1l0,0V71.4
		z"/>
	<path class="st1" d="M106.9,25.8v78.6c0.1,5.1-3.3,10.2-10,14.2c0,0-0.1,0-0.1,0.1c-6.8,3.9-15.7,5.9-24.6,5.8
		c-8.9,0-17.7-2-24.5-5.9c-3.4-2-5.9-4.2-7.6-6.6c-1.7-2.4-2.6-5-2.6-7.5V27.4l34.7-0.8l24.7-0.6L106.9,25.8z"/>
	<path class="st2" d="M96.9,26.1v92.6c0,0-0.1,0-0.1,0.1c-6.8,3.9-15.7,5.9-24.6,5.8V26.6L96.9,26.1z"/>
	<path class="st3" d="M96.8,41.8c-13.5,7.8-35.5,7.8-49.1-0.1C34.1,33.9,34,21.2,47.5,13.4C61,5.5,83,5.6,96.7,13.4
		C110.3,21.3,110.3,34,96.8,41.8z"/>
	<path class="st4" d="M93.3,36.7c-11.6,6.7-30.5,6.7-42.2-0.1C39.5,29.9,39.4,19,51,12.3c11.6-6.7,30.5-6.7,42.2,0.1
		C104.9,19.1,104.9,30,93.3,36.7z"/>
	<path class="st5" d="M87.8,33.5c-0.4,0.3-0.9,0.5-1.3,0.7c-8.2,4-20.2,4-28.4-0.1c-0.5-0.2-0.9-0.5-1.4-0.7
		c-0.4-0.3-0.9-0.5-1.2-0.8c-7-4.7-7-11.7-0.1-16.4c0.4-0.3,0.8-0.5,1.2-0.8c0.4-0.3,0.9-0.5,1.3-0.7c8.2-4,20.2-4,28.4,0.1
		c0.5,0.2,0.9,0.5,1.4,0.7c0.4,0.3,0.9,0.5,1.2,0.8c7,4.7,7,11.7,0.1,16.4C88.6,33,88.2,33.3,87.8,33.5z"/>
	<path class="st6" d="M87.8,33.5c-0.4,0.3-0.9,0.5-1.3,0.7L72.2,26l-2.6-1.5l-14.2-8.2c0.4-0.3,0.8-0.5,1.2-0.8
		c0.4-0.3,0.9-0.5,1.3-0.7L72.2,23l2.6,1.5L89,32.8C88.6,33,88.2,33.3,87.8,33.5z"/>
	<path class="st6" d="M88.9,16.4l-14.2,8.2L72.2,26L58,34.2c-0.5-0.2-0.9-0.5-1.4-0.7c-0.4-0.3-0.9-0.5-1.2-0.8l14.2-8.2l2.6-1.5
		l14.2-8.2c0.5,0.2,0.9,0.5,1.4,0.7C88.1,15.8,88.5,16.1,88.9,16.4z"/>
</g>
</svg>
