<?xml version="1.0" encoding="utf-8"?>
<!-- Generator: Adobe Illustrator 25.0.0, SVG Export Plug-In . SVG Version: 6.00 Build 0)  -->
<svg version="1.1" id="Capa_1" xmlns="http://www.w3.org/2000/svg" xmlns:xlink="http://www.w3.org/1999/xlink" x="0px" y="0px"
	 viewBox="0 0 150 150" style="enable-background:new 0 0 150 150;" xml:space="preserve">
<style type="text/css">
	.st0{fill:#F9DC3E;}
</style>
<path d="M101,52.6l0-0.3l-0.5,0l0,0.3C100.5,52.6,101,52.6,101,52.6z M104.3,60.4l0,0.2l0.3,0c0-0.1,0-0.3,0.1-0.5l0-0.3
	C104.6,59.8,104.4,60,104.3,60.4L104.3,60.4z M91.5,70.3c0-0.3-0.9-1.4-2.6-3.3c0-0.4,0.6-0.9,1.8-1.6l3.5-3c0.8-1,1.2-2.6,1.4-4.8
	l0-0.5c-0.1-1.5-1.2-2.8-3.3-3.7c-1.2-0.8-3.5-1.3-6.7-1.4c-2.7,0.2-6.2,1.2-10.4,2.9c-1.2,0.8-2.5,1.7-4,2.5l0,0.3
	c0.1,0,0.2-0.1,0.4-0.2c0.2,0,0.3,0.1,0.3,0.2l0.3-0.1l0.1,0l0,0.1c0,0.1-0.9,0.9-2.8,2.2l0.1,0.3l-0.1,0L69,60.1
	c0,0.1-0.1,0.2-0.4,0.2l0,0.1l0.3,0.4c-0.1,0-0.2,0-0.4-0.1c-0.4,0-0.9,0.3-1.3,0.7l0.2-0.8c0.6-2.7,1.1-5.1,1.3-7.2l0-0.1
	c-0.4-0.3-0.9-0.7-1.3-1.2c0-0.3,0-0.5,0-0.5l0-0.1l-0.1,0c-1.4,2-4,5.5-7.9,10.5c-3,3.5-4.5,5.5-4.6,5.9c-1.2,1.3-1.8,2-1.7,2.3
	c-0.3,0.2-0.5,0.4-0.4,0.6c-0.1,0-0.2,0-0.2-0.1c-0.5,0.8-1.3,1.4-2.3,1.6L49,72.5c-0.1,0-0.2,0.1-0.2,0.3l0,0.1l0.4-0.1l0,0.1
	l-0.9,0.4l-1.6,0.4l-0.8,0.1c-0.1,0.1,0.7,0,0.4,0.1L45.2,74c-0.6,0.1-1,0.1-1.1-0.2l-0.1,0c0,0.1,0,0.2,0,0.3L44,73.9l-0.8,0.2
	c-0.1-0.4-1.2-1.8-3.4-4.3c0-0.5,0.7-1.2,2.3-2.1l4.5-4c1-1.3,1.6-3.4,1.8-6.3l-0.1-0.7c-0.2-2-1.6-3.7-4.4-4.9
	c-1.6-1.1-4.6-1.7-8.8-1.8c-3.5,0.3-8.1,1.6-13.8,3.7c-1.6,1.1-3.3,2.2-5.3,3.3l0,0.4c0.1,0,0.3-0.1,0.5-0.2c0.2,0,0.4,0.1,0.4,0.3
	l0.4-0.2l0.2,0l0,0.2c0,0.2-1.2,1.1-3.7,2.9l0.2,0.3l-0.2,0l-0.4-0.1c0,0.1-0.2,0.2-0.5,0.2l0,0.2l0.4,0.5c-0.1,0-0.3,0-0.6-0.1
	c-0.8,0.1-1.6,0.7-2.4,1.7l0.2,0.3c0.7-0.6,1.1-0.9,1.2-0.9l0,0.5c-0.1,0-0.3,0.1-0.5,0.2l0.4,0.6c0.8-0.9,1.7-1.6,2.7-2.3
	c0.5,0.1,0.7,0.3,0.8,0.4l0.4,0c2.7-2,5.3-3.4,7.9-4.3l0,0.4c-0.5,0.7-0.8,1.1-1,1.1c0,0.2,0.1,0.5,0.3,0.7c0,0.4-1.1,3.4-3.6,9
	C13.8,81.7,9.2,91.3,5.5,97.4c0,0.1,0.1,0.3,0.2,0.5c0.9-0.2,1.5-0.4,1.7-0.7l0.2,0l0,0.4l0.3,0l0.4-0.2c0,0.1,0.1,0.2,0.4,0.1
	l0,0.4c0,0.3-0.2,0.9-0.6,1.6c-0.4,0.4-0.8,1.3-1.2,2.7l0,0.2l0.3,0c1.5-1.7,2.6-3.3,3.4-4.9c4.3-1.3,7.7-2.5,9.9-3.8
	c2.3-0.2,4.1-0.8,5.3-1.8l0-0.2L25,91.8l-0.2,0l0-0.2c1.7-0.3,2.9-0.6,3.5-1.1c3.3-2.5,5.8-4.3,7.5-5.4c3.5-2.5,5.7-5,6.7-7.4
	c0.2,0,0.4-0.1,0.6-0.1c0.5,0,0.8,0,0.8-0.1c0-0.1,0-0.1,0.1-0.2c0.8-0.1,0.4,0.1,0.9-0.1l1.3-0.3c-0.1,0-0.1,0.1-0.1,0.1l0.2-0.1
	c0,0-0.1,0-0.1,0l0.2-0.1L46.4,77c0.1,0,0.3,0,0.5,0l0.1,0.4L41,86.8l-1.3,1.6l-0.6,2.2l0.1,0l0.6-0.3l-0.2,0.8l0.1,0.2l0.2,0.2
	c-0.1,0-0.1,0.1-0.1,0.2l0,0.1l0.3-0.1c0.4-0.3,0.6-0.7,0.5-0.9c0.4,0.1,0.7,0.1,0.8,0.1l0,0.1c-0.3,0.1-0.4,0.3-0.4,0.6l0,0.1
	l0.1,0c2.2-2.3,7.4-10.4,11.7-15.8c-0.1-0.6,2.1-1.4,6.6-2.5l0.1,0c0.2,0.7-0.2,2.4-1.1,5.2c-0.6,1.7-0.8,2.6-0.8,2.7
	c-0.7,2.2-1.1,3.4-1,3.6l-1.6,5.3c-1,2.7-1.8,5.6-2.4,8.6c0.1,0,0.2,0,0.4,0l0.2-0.2c0,0.1,0.1,0.1,0.2,0.1l-0.1-0.4l0.7,0
	c0.2-0.1,0.4-0.3,0.5-0.8c0-0.7,0.1-1.1,0.4-1.2c0.4-1.7,0.7-2.5,0.8-2.6c0.4-1.7,0.7-2.6,0.9-2.9c0.6-2.2,1.1-3.3,1.3-3.4l0.1,0.3
	l-0.4,1.1c-0.8,3.4-1.6,6.2-2.4,8.2l0.2,1l0.1,0c1.9-4.1,4.7-12.3,8.3-24.6c0.1-1.1,0.6-1.9,1.5-2.5l-0.2-0.2l0-0.1
	c0.4-0.1,0.7-0.3,0.9-0.5c0-0.1-0.4-0.2-1.1-0.4L67,62c0.4-0.4,0.6-0.5,0.7-0.5l0,0.4c-0.1,0-0.2,0.1-0.4,0.2l0.3,0.5
	c0.6-0.7,1.3-1.3,2-1.7c0.4,0.1,0.6,0.2,0.6,0.4l0.3,0c2-1.5,4.1-2.6,6-3.2l0,0.3C76.3,58.7,76,59,75.9,59c0,0.2,0.1,0.4,0.2,0.5
	c0,0.3-0.9,2.6-2.7,6.8c-4.2,9.8-7.6,17-10.5,21.7c0,0.1,0.1,0.2,0.2,0.4c0.7-0.2,1.1-0.3,1.3-0.5l0.1,0l0,0.3l0.3,0l0.3-0.1
	c0,0.1,0.1,0.1,0.3,0.1l0,0.3c0,0.2-0.1,0.6-0.4,1.2c-0.3,0.3-0.6,1-0.9,2l0,0.1l0.3,0c1.1-1.3,2-2.5,2.6-3.7c3.3-1,5.8-1.9,7.5-2.8
	c1.8-0.2,3.1-0.6,4-1.4l0-0.1l-0.7,0.2l-0.1,0l0-0.1c1.3-0.2,2.2-0.5,2.7-0.9c2.5-1.9,4.4-3.3,5.7-4.1C89.9,75.8,91.8,73,91.5,70.3
	L91.5,70.3z M90.9,70.5l0.1,1c-0.1,0.3-0.3,0.4-0.4,0.4l-0.2-1.8C90.7,70.3,90.8,70.4,90.9,70.5L90.9,70.5z M12.6,62.1l-0.2,0l0-0.3
	l0.7-0.1l0,0.2C13,61.9,12.8,62,12.6,62.1L12.6,62.1z M9.1,96.9c-0.4-0.2-0.8-0.3-1.1-0.2l0-0.5c0-0.2,0.1-0.3,0.3-0.4
	c0.2,0,0.4,0.1,0.4,0.5c0.6-0.7,0.9-1.1,1-1.1l0.4,0.2C9.9,96.4,9.6,96.9,9.1,96.9z M46.3,58c-0.2,0-0.5-0.5-1-1.6l0-0.3
	c0.3,0,0.7,0.5,1,1.6L46.3,58z M45.8,54.1l-0.1,0.3l-5.1-2.1C44,52.5,45.7,53.1,45.8,54.1z M24.5,72.5l-0.7,0.1l0-0.3l0.7-0.1
	L24.5,72.5z M23.9,61.5l0.2,0l0,0.5c-0.2,0-0.4,0.3-0.7,0.7l0-0.4C23.7,62,23.9,61.7,23.9,61.5L23.9,61.5z M22.4,65l0.1,0.7l-0.2,0
	L22.2,65L22.4,65z M21.6,66.3l0.3,0c0,0.6-0.2,0.9-0.5,0.9l-0.2,0C21.5,66.7,21.6,66.5,21.6,66.3z M21,68l0.2,0l0,0.2l-0.3,0.5
	l-0.3,0l0-0.2C20.9,68.5,21,68.4,21,68L21,68z M20.4,69.6l-0.1,0.8l-0.2,0l-0.1-0.8L20.4,69.6z M14.6,86.1c-0.2,1.2-0.5,1.7-0.7,1.8
	l0-0.2C13.8,87.1,14.1,86.6,14.6,86.1L14.6,86.1z M13.6,88.4l0,0.2c0,0.2-0.1,0.4-0.3,0.4l0-0.2C13.2,88.6,13.3,88.4,13.6,88.4z
	 M13.3,93.2l0.5-0.1l0,0.2c-0.1,0-0.3,0.1-0.5,0.2l-0.3,0C12.9,93.4,13,93.2,13.3,93.2L13.3,93.2L13.3,93.2z M28.6,88.5
	c-3,1.5-4.8,2.5-5.3,3c-3.3,1.1-4.9,1.8-4.9,2.1c-2.9,1.1-4.8,2-5.7,2.5c-0.2,0-0.5-0.1-0.9-0.2c-0.1-0.6,0.2-1.1,0.8-1.4
	c0.5,0,1,0,1.5,0.2c0.5-0.3,1.5-0.6,2.8-0.9l0-0.4l-1.1,0.1c0.1-0.2,1.2-0.7,3.1-1.5l0.5-0.1l0,0.2c-0.9,0.1-1.4,0.4-1.5,0.8
	c0,0.2,0.1,0.3,0.4,0.3c0.7-0.4,1-0.7,1-0.8c1.3-0.2,4.9-2.2,10.9-5.7l0,0.3C30.1,87.3,29.6,87.7,28.6,88.5L28.6,88.5z M19.4,91.5
	c0.9-0.1,1.6-0.4,2.2-1c0.2,0,0.4,0.1,0.4,0.3c-0.4,0-1.2,0.4-2.4,1.1l-0.2,0L19.4,91.5L19.4,91.5z M34.1,80.2l-4.6,3.6
	c-3.4,2.2-5.2,3.3-5.5,3.4c-5.4,3-8.8,4.5-10.1,4.6l-0.2,0c0.2-0.6,2.6-5.5,7.2-14.8c2-0.2,5.3-1.1,9.7-2.9l1.1-0.1
	c2.2-0.2,3.9,0.2,5,1.3l0.1,0.7C36,78.4,35.1,79.8,34.1,80.2L34.1,80.2z M25.2,75.1l0.7-0.1l0,0.2l-0.7,0.1L25.2,75.1z M35.5,73.4
	l0.5-0.1c0.5,0.2,0.8,0.4,0.8,0.6l0,0.2C36.4,74.2,35.9,73.9,35.5,73.4z M37,65.1c-0.5,0.6-1.8,1.5-3.9,2.9
	c-0.7,0.1-3.3,1.1-7.8,3.1c-0.2-0.1-0.5-0.1-0.7-0.1l0-0.3c-0.1-0.7,0.2-1.5,0.9-2.5c0.4-1.9,0.7-2.9,1.2-3.2l3.8-8.5
	c0-0.5,0.8-0.9,2.4-1.2l0.5-0.1l0,0.5c1.6-0.2,2.6-0.4,3-0.4c3-0.3,4.6,0.4,4.7,1.8l0.3,0l-0.1-0.9l0.4,0c0.9,0.5,1.4,1.1,1.4,1.8
	c0,0.5-0.2,1.1-0.8,1.8c-0.2,0-0.4-0.1-0.4-0.5l-0.4,0l-0.1,1c-1.5,2.3-2.6,3.4-3.3,3.5C37.5,64.7,37.2,65.1,37,65.1z M39.3,71
	c-0.3-0.2-0.6-0.3-0.7-0.3l0-0.5l0.3,0l0.8,0.4C39.7,70.9,39.6,71,39.3,71L39.3,71z M41.7,73.9c0.3,0.1,0.5,0.3,0.6,0.4l-0.2,0l0,0
	c0,0-0.1,0-0.1,0l-0.2,0.2L41.7,73.9z M41.9,75.3l0-0.1l0.4-0.1l0,0.1L41.9,75.3z M43,76.5c0.4-0.1,0.7-0.1,1.5-0.3l0,0.1l-1.6,0.4
	C43,76.6,43,76.5,43,76.5z M44.5,77.1c-0.7,0.1-0.5,0-1.6,0.2l0-0.1l1.3-0.4l0.6-0.1l0.1,0.2C44.6,76.9,44.8,76.9,44.5,77.1z
	 M45.9,76.8c-0.2,0-0.3,0-0.4-0.2l0.4-0.1c0.2,0,0.3,0,0.3,0.2L45.9,76.8L45.9,76.8z M49.7,72.7l0-0.1l0.7-0.2l0.1,0.2L49.7,72.7z
	 M53.7,97.5c0-0.2,0.1-0.3,0-0.4l0.1,0c0.2,0,0.3,0,0.3,0.2l0,0.1L53.7,97.5L53.7,97.5z M56.6,73.8l-0.3-0.1
	c-0.5,0.2-0.9,0.3-1.2,0.4l-0.3,0.1c-0.2,0-0.3,0-0.3-0.2l1.9-0.4l0.6-0.3l0.2,0.2C56.9,73.6,56.7,73.7,56.6,73.8L56.6,73.8z
	 M58,73.3l0-0.1c0.1,0,0.2-0.1,0.4-0.2l1.3-0.3l0,0.1C59,73,58.4,73.1,58,73.3L58,73.3z M58.2,70.6c-0.1,0-0.2,0.1-0.4,0.2
	c0-0.1-0.2-0.1-0.6,0c-0.1-0.3,0.9-0.6,3-1.1l0.3-0.1l0.1,0.2C59.2,70.3,58.4,70.6,58.2,70.6L58.2,70.6z M61.9,66.7
	c-0.1,1.6-0.7,2.6-1.7,2.8l0-0.1l-0.9,0.4l-0.4,0.1c-0.2,0.1-0.4,0-0.6,0l-0.1-0.4c0-0.1,1.3-2,3.9-5.4l0.3,0.1
	C62.5,64.5,62.3,65.4,61.9,66.7L61.9,66.7z M68.3,61.2l-0.1,0l0-0.3l0.5-0.1l0,0.1C68.6,61.1,68.4,61.1,68.3,61.2L68.3,61.2z
	 M65.6,87.7c-0.3-0.1-0.6-0.2-0.8-0.2l0-0.4c0-0.1,0.1-0.2,0.2-0.3c0.2,0,0.3,0.1,0.3,0.4c0.4-0.6,0.7-0.9,0.7-0.9l0.3,0.1
	C66.2,87.2,66,87.7,65.6,87.7L65.6,87.7z M93.9,58.1c-0.1,0-0.4-0.4-0.8-1.2l0-0.3c0.3,0,0.5,0.4,0.8,1.2L93.9,58.1L93.9,58.1z
	 M93.5,55.2l-0.1,0.3l-3.8-1.6C92.1,53.9,93.4,54.4,93.5,55.2z M77.3,69.1l-0.5,0.1l0-0.3l0.5,0L77.3,69.1L77.3,69.1z M76.9,60.7
	l0.1,0l0,0.4c-0.1,0-0.3,0.2-0.5,0.6l0-0.3C76.7,61.1,76.9,60.9,76.9,60.7L76.9,60.7z M75.7,63.4l0,0.5l-0.1,0l0-0.5L75.7,63.4z
	 M75.1,64.4l0.3,0c0,0.4-0.1,0.7-0.3,0.7l-0.1,0C75.1,64.8,75.1,64.5,75.1,64.4L75.1,64.4z M74.7,65.7l0.1,0l0,0.1l-0.2,0.4l-0.3,0
	l0-0.1C74.6,66.1,74.7,66,74.7,65.7L74.7,65.7z M74.2,66.9l-0.1,0.7l-0.1,0L74,66.9L74.2,66.9L74.2,66.9z M69.8,79.4
	c-0.2,0.9-0.4,1.3-0.6,1.3l0-0.1C69.2,80.2,69.4,79.8,69.8,79.4z M69,81.2l0,0.1c0,0.2-0.1,0.3-0.2,0.3l0-0.1
	C68.8,81.3,68.8,81.2,69,81.2L69,81.2z M68.8,84.8l0.4,0l0,0.1c-0.1,0-0.2,0.1-0.4,0.2l-0.3,0C68.5,85,68.6,84.9,68.8,84.8
	L68.8,84.8z M80.4,81.2c-2.3,1.1-3.6,1.9-4.1,2.3c-2.5,0.9-3.7,1.4-3.7,1.6c-2.2,0.9-3.6,1.5-4.3,1.9c-0.2,0-0.4-0.1-0.7-0.2
	c0-0.4,0.2-0.8,0.6-1.1c0.4,0,0.8,0,1.1,0.2c0.4-0.2,1.1-0.4,2.1-0.7l0-0.3l-0.8,0.1c0.1-0.1,0.9-0.5,2.4-1.1l0.4,0l0,0.1
	c-0.7,0.1-1.1,0.3-1.2,0.6c0,0.2,0.1,0.2,0.3,0.2c0.5-0.3,0.8-0.5,0.8-0.6c1-0.2,3.7-1.6,8.3-4.3l0,0.3
	C81.6,80.3,81.2,80.7,80.4,81.2L80.4,81.2z M73.5,83.5c0.7-0.1,1.2-0.3,1.7-0.8c0.2,0,0.3,0.1,0.3,0.2c-0.3,0-0.9,0.3-1.8,0.8
	l-0.1,0L73.5,83.5L73.5,83.5z M84.7,74.9l-3.4,2.8c-2.6,1.7-4,2.5-4.2,2.6c-4.1,2.3-6.6,3.4-7.6,3.5l-0.1,0c0.1-0.5,2-4.2,5.5-11.2
	c1.5-0.1,4-0.9,7.3-2.2l0.8-0.1c1.7-0.1,2.9,0.2,3.8,1l0,0.5C86.1,73.6,85.4,74.6,84.7,74.9L84.7,74.9z M77.9,71.1l0.5-0.1l0,0.1
	l-0.5,0.1L77.9,71.1z M85.7,69.8l0.4,0c0.4,0.2,0.6,0.4,0.6,0.5l0,0.1C86.4,70.4,86,70.2,85.7,69.8z M86.8,63.5
	c-0.4,0.4-1.3,1.2-2.9,2.2c-0.5,0.1-2.5,0.8-6,2.3c-0.2-0.1-0.4-0.1-0.5-0.1l0-0.3c0-0.5,0.2-1.1,0.7-1.9c0.3-1.4,0.6-2.2,0.9-2.4
	l2.9-6.5c0-0.4,0.6-0.7,1.8-0.9l0.4,0l0,0.4c1.2-0.2,2-0.3,2.3-0.3c2.3-0.2,3.5,0.3,3.6,1.4l0.3,0l-0.1-0.6l0.3,0
	c0.7,0.4,1,0.8,1.1,1.3c0,0.4-0.2,0.8-0.5,1.4c-0.2,0-0.3-0.1-0.3-0.4l-0.3,0l-0.1,0.8c-1.1,1.7-2,2.6-2.5,2.7
	C87.2,63.2,86.9,63.5,86.8,63.5L86.8,63.5z M88,67.8l0-0.4l0.3,0l0.6,0.4c0,0.2-0.1,0.3-0.2,0.3C88.3,67.9,88.2,67.8,88,67.8
	L88,67.8z M39.9,92.9L39.6,93l-0.2,0.2c0,0.2,0.1,0.2,0.3,0.2c0.2,0,0.2-0.1,0.2-0.3L39.9,92.9z M38.9,90.9l0,0.1
	c0.2,0,0.2-0.1,0.2-0.3l0-0.1C38.9,90.6,38.8,90.7,38.9,90.9L38.9,90.9z M46.1,73.5l0.3-0.1l-0.1-0.3l-0.3,0.1L46.1,73.5L46.1,73.5z
	 M140,81.4c-3.1,0.7-3.5,0.6-4.2,0.6l0,0.3l0.3,0l0.2,0l0,0l0.3-0.1c3.1-0.3,3.5-0.2,3.4-0.6L140,81.4z M123,83.7l0,0.3h0L123,83.7
	L123,83.7L123,83.7z M121.1,76.9l-0.3-0.1c-0.2,0.6-0.3,1-0.3,1.1l0,0.1C120.7,77.9,120.9,77.6,121.1,76.9z M140.6,81.4l0,0.3
	l0.5,0.1l0-0.3L140.6,81.4L140.6,81.4z M119.2,84l-0.7-0.1l-0.1,0.3l0,0.1l4.2-0.4l0-0.3L119.2,84L119.2,84z M117.3,74.8l0-0.1
	l-0.1,0l-0.3,0.2l0.1,0.2C117.2,75.1,117.3,75,117.3,74.8L117.3,74.8z M142.6,79.5l0.2,0c0.1,0,0.2-0.1,0.2-0.3l-0.1-0.2
	c-0.7,0.1-1,0.1-1.6,0.4l0-0.1l-0.9,0.1c0-0.3-0.1-0.4-0.2-0.4l-0.4,0c-0.5,0-0.8,0-1,0.2c0-0.1,0-0.1-0.1-0.1l-0.5,0l-0.3,0.2
	c0-0.1,0-0.1-0.1-0.1l-0.2,0.2l0-0.1l-0.7-0.1l-0.2,0l0,0.3l0.4,0.1l0.3,0c0.1,0.1,0.2,0.1,0.4,0.1l0.3-0.1l0,0.1
	c-1.6,0.4-1.6,0.3-2.7,0.5c-0.1-0.1-0.2-0.1-0.3-0.1l0,0c-0.1,0-0.2-0.1-0.2-0.2l0.6-0.1c0,0,0.1,0,0.4,0.1c0.5-0.2,0.5-0.3,0.7-0.3
	l0-0.3c-1.6,0.3-1,0.1-2.9,0.3l-0.1,0l0-0.3c2.6-0.3,1.7-0.1,2.6-0.4c0,0.1,0,0.1,0.1,0.1c0.1-0.1,0.2-0.2,0.4-0.2l0.2,0
	c0.9-0.1,1.2,0.1,3-0.4l0,0.1l0.3-0.1l0.3,0c0-0.3,0.4-0.3,0.5-0.3l0-0.3c-3.1,0.6-3.9,0.5-4.8,0.7l0-0.1c-0.8,0.1-0.8,0.1-1.1,0.1
	c-0.1,0-0.2,0.1-0.3,0.2c0-0.1,0-0.1-0.1-0.1c0,0,0,0-0.1,0l-2.6,0.4c0-0.1,0-0.1-0.1-0.1c-1.4,0.3-1,0.3-2.8,0.5
	c-0.1,0-0.2,0.1-0.3,0.1c0-0.1-0.1-0.1-0.1-0.1l-1.1,0.1l-0.8,0.2c0-0.1-0.1-0.1-0.1-0.1c-0.4,0.1-0.8,0.2-1.1,0.2h0
	c-0.2,0,0.1-0.1-0.1-0.1l-0.2,0.1c-0.3,0-0.2,0-1.3,0c-2,0.2-1.8,0.3-2,0.3l-0.7-0.1c0,0.1,0,0.1-0.1,0.1c-0.8-0.1-1.3-0.2-1.3-0.4
	c0.1-0.8,0.3-1.2,0.6-1.2l0.1,0l-0.1,0.3l0.1,0c0.3-0.1,0.4-0.3,0.4-0.4l0-0.3l-0.3,0l0-0.3c0-0.2,0-0.4,0.1-0.5l0.6-1l0,0.3l0.3,0
	l0-0.3l-0.2-0.2c0.2-0.2,0.4-0.3,0.5-0.3l0-0.1l-0.4,0l0-0.4c0.8-1.6,1.2-2.6,1.1-2.9l0.3,0.1c0.2,0,0.3-0.1,0.2-0.3l-0.3,0l0-0.1
	c0-0.2,0-0.4,0.1-0.5c0.4-0.4,0.6-0.9,0.6-1.4c0.1,0,0.1,0,0.1,0.1c0.4-0.2,0.6-0.8,0.8-1.7c0.6-1.2,1.6-3.5,2.7-6.9
	c2.3-6.1,2.2-6.8,2.5-8.2l-0.3,0c0,0.2,0,0.4-0.1,0.5c-0.2-0.1-0.3-0.1-0.4-0.1l0-0.1c0-0.5,0.2-1.2,0.7-1.9l0.1,0l0.2,0.9l0.3,0
	c0-0.1,0.1-0.4,0.2-1.1c0-0.1-0.1-0.2-0.3-0.2l-0.3,0.2c0-0.2,0-0.7,0-1.4l-0.1,0c-0.2-0.2-0.3-0.4-0.4-0.6l-1.5,0.1
	c0-0.1-0.1-0.3-0.2-0.5c0-0.1,0.3-0.3,1-0.4l0.3,0.1l0.3-0.2c0,0.1,0.1,0.1,0.2,0.1l0.3-0.2c0,0.1,0.1,0.1,0.2,0.1l0.1,0l0-0.3
	c-0.2,0-0.8,0-1.6,0l-0.3,0.2l0-0.2c-6.9,0.6-10.9,0.9-11.8,1c-0.1,0-0.6,0-1.5,0c0,0.1-0.1,0.2-0.3,0.2l-0.3-0.1l-1,0.3
	c-0.2,0-0.6,0-1.2-0.1c-0.2,0.1-0.3,0.2-0.6,0.2c-0.1,0,1.5-0.1,3-0.2c-0.2,0.1-0.4,0.2-0.7,0.2c-0.2,0-0.4,0-0.6-0.1
	c-0.2,0.1-1,0.3-2.2,0.5l-0.3-0.1l-4.8,0.7c-0.2-0.1-0.4-0.1-0.7-0.1c-0.3,0-0.7,0.1-1.3,0.3l-2.3,1l0.2,0.3c0.1,0,0.3-0.1,0.5-0.2
	l0.8,0.1l-0.1,0.8c-0.8,0.3-1.2,0.8-1.3,1.5c-1.1,0.5-1.7,0.9-1.7,1.1l0,0.1l0.2,0l0.3-0.2l0.4,0.4l0.1,0.6c0,0.2-1.9,4.2-5.8,12.2
	c-3.4,7.7-5.1,11.8-5.3,12.6c-1.1,0.3-1.8,0.8-2,1.4c0,0.2,0.4,0.3,1,0.4l0,0.3l-0.3,0.5l0.1,0.6c0,0.3,0.9,0.5,2.5,0.7
	c0-0.1,0-0.2,0.2-0.2c0,0.4-0.1,1.1-0.3,2.2l0.2,0c0.7-0.9,1-1.6,1-1.9l0.1,0c0.2,0,0.3,0.2,0.5,0.6c-0.2,0.1-0.9,1.7-2.2,4.9
	l0.2,0.3l0.2,0c1.5-3.8,2.5-6,2.9-6.4c2-0.2,5.4-0.5,10.4-1.1l0.3-0.2c0,0.1,0.1,0.2,0.2,0.1l0.3,0l0.3-0.2c0,0.1,0.1,0.2,0.2,0.1
	l3.7-0.3c1-0.1,1.4-0.4,1.4-0.9c0-0.1,0.6-0.3,1.7-0.5c0.1,0,0.3,0,0.5,0.1c0-0.1,0.6-0.2,1.8-0.3c0-0.6,0.2-1,0.6-1l0-0.3
	c-0.3,0-0.7,0.1-1.1,0.3c-0.8,0-1.3-0.1-1.5-0.2c-0.2,0.1-0.4,0.2-0.5,0.2l-2.6,0.1l-0.3,0.2c0-0.1-0.1-0.1-0.2-0.1l-0.1,0l-0.3,0.2
	c0-0.1-0.3-0.2-0.8-0.2l-0.3,0.2l-0.6,0.1l0-0.2c3.3-0.4,5-0.8,4.9-1.4c0.2,0,0.3,0.1,0.4,0.3l1-0.2l0-0.3l-8,0.2
	c0,0.1,0,0.2-0.2,0.2l-1-0.1c-0.2,0-0.5,0.1-0.6,0.2l-0.4-0.1c-1,0.1-1.7,0.2-2.2,0.4c-0.7-0.1-1.4,0-2.3,0l-1.8,0.2l-0.8-0.1
	c0-0.5,1-3.1,3.1-7.8c0.6-1.6,1.2-2.6,1.7-2.9c0.1,0,0.3,0,0.5,0.1l1.3-0.4l0.7,0.1c1.1-0.1,2.4-0.4,3.8-0.9c0.4,0,0.6,0,0.8,0.1
	l1-0.2l2.9-0.2c1.2-0.1,2.6-0.4,4-0.8l0-0.3c-0.5,0.1-0.8,0-0.8-0.3c0-0.4-0.4-0.6-1.2-0.5l0-0.3l0.8-0.2l2.1-0.2l0-0.3
	c-0.1,0-0.5,0-1.3,0l0-0.3l0.8-0.1c0.2,0,0.3-0.1,0.3-0.3c-1.1,0-1.6,0-1.6-0.2c-7.6,0.4-11.4,0.4-11.4,0.2c-0.1,0-0.3,0.1-0.5,0.2
	l-0.2-0.3c2-4.3,3.2-6.4,3.5-6.4c0,0.2-0.1,0.4-0.3,0.8l0,0.1l0.3,0c0.8-1.9,1.5-2.9,2-2.9c2.4-0.2-0.3-0.4,4.8-1.2
	c0.2,0.1,0.4,0.1,0.5,0.1c2-0.4,4.8-0.8,8.3-1.3l0-0.3l-1.9,0.2l0-0.3c0.2,0,0.4-0.1,0.6-0.2l0,0.2c0.1,0,0.2-0.1,0.4-0.2
	c0.3,0,0.6,0,0.8,0.1c0.7-0.2,1.2-0.3,1.6-0.3l1.2-0.1c0.3-0.2,0.4-0.4,0.4-0.5l0-0.1c-0.3,0-0.6,0-1-0.1c0-0.2,0.1-0.3,0.3-0.3
	l2.2-0.2l1-0.3c0,0.1,0.1,0.2,0.1,0.2c0.1,0,0.2-0.1,0.4-0.2c0.1,0,0.1,0,0.2,0c-0.1,0.3-0.3,0.7-0.4,1.2l-0.3,0
	c0-0.2-0.1-0.4-0.2-0.5l-0.1,0c-2.7,7.5-3.9,11-6.4,16.7c-0.5,1.5-0.8,2.3-1.2,2.5c0,0.2,0.1,0.2,0.3,0.2c0.1,0.7-0.1,1.4-0.5,2.1
	c-1.1,3.3-1.9,5.1-2.3,5.4l0.3,1.6c0,0.2-0.1,0.3-0.2,0.3l-0.3,0c0-0.4-0.2-0.6-0.5-0.6l-0.1,0c-0.4,0.5-0.6,1.2-0.8,1.9l0.3,0
	c0.4-0.2,0.5-0.5,0.5-0.8l0.5-0.1l0.3,0.1c-0.2,0.4-0.4,0.7-0.3,0.9l0.1,0.2l-0.4,0.8l0,0.1c0.3,0,0.7,0.1,1,0.3
	c0.2,0,0.5-0.1,0.8-0.3c0.3,0,1.5,0,3.5,0l1-0.3c1.2,0,1.4,0,2.5-0.1l0.4,0l0.2-0.2l0,0.1c1.1-0.1,1.2,0,2,0.1l0,0.1l-0.6,0.1l0,0.3
	c0.2,0,0.4-0.1,0.5-0.2c0.2,0,0.2,0.1,0.3,0.3c-0.2,0-0.5,0.1-0.8,0.2l-0.3-0.1c-0.4,0.1-0.3,0.1-0.6,0.2l-0.4-0.1
	c0,0.1,0,0.1-0.1,0.1c0,0.2,0.1,0.2,0.3,0.2l0.4,0l2.3-0.2l0.9-0.2c0,0.1,0,0.1,0.1,0.1l0.4-0.2l0.8-0.1c0.6-0.1,0.6-0.1,1.9-0.3
	c0-0.1,0-0.1,0.1-0.1l0,0.1c2.1-0.4,2.3-0.4,2.6-0.5l0,0.1c0.5-0.1,0.2-0.1,0.4-0.2c0,0.1,0,0.1,0.1,0.1l0.4,0l0-0.3l-0.8,0l0,0
	c0,0-0.1,0-0.1,0h-0.1v0c-0.5,0.1-0.5,0-0.8,0.1l-1.9,0.1l0-0.1l1.1-0.1l0.4,0l0.2-0.2l0,0.1c1.5-0.1,2,0.2,8.9-1.2
	c0.4,0,0.3-0.3,0.6-1c-0.1,0-0.3,0-0.4-0.1c-0.6,0.2-0.9,0.1-2,0.3c-0.1,0-0.2-0.1-0.2-0.2l0-0.1l1.1,0c0.2,0,0.6-0.1,1.1-0.4
	C142.7,79.4,142.5,79.5,142.6,79.5L142.6,79.5z M91.7,80.3l-0.5,0c0-0.2,0.2-0.9,0.8-2.2l0.3,0C92.3,78.4,92.1,79.1,91.7,80.3z
	 M92.3,77.9l0-0.1c0-0.2,0.1-0.3,0.3-0.3l0,0.1C92.6,77.8,92.5,77.9,92.3,77.9z M98.7,82.9l0,0.1l-0.8,0.1l0-0.1L98.7,82.9
	L98.7,82.9z M97.8,82.8c0,0.2-0.2,0.4-0.8,0.5l-1-0.1l-0.3,0l0-0.3L97.8,82.8L97.8,82.8z M104.3,52.8l-0.5,0l0-0.2
	c0-0.2,0.1-0.3,0.3-0.3l0.2,0l0.3,0.1C104.6,52.6,104.5,52.7,104.3,52.8z M111.7,51.3l0.2,0l0,0.3l-0.4,0
	C111.4,51.5,111.5,51.4,111.7,51.3z M109.8,52l-0.7-0.1l0-0.1c1-0.1,1.3-0.2,1.9-0.4c0,0.1,0.1,0.2,0.3,0.1l0,0.3l-0.3,0
	c-0.2,0-0.4,0-0.6-0.1C110.2,51.9,110,51.9,109.8,52L109.8,52z M110.7,54.6l0-0.1l1.2-0.1l0,0.1L110.7,54.6z M112,53.6l0-0.2
	l0.6-0.1l0,0.2L112,53.6z M112.2,51.6l-0.2,0l0.1-0.3l1.3-0.1l0,0.2C113.1,51.3,112.7,51.4,112.2,51.6z M112.8,54.4l0-0.3l0.6-0.1
	c0.2,0,0.3,0.1,0.3,0.3L112.8,54.4L112.8,54.4z M116.3,49.7l-0.7,0.2l-0.1,0c-0.4,0-0.8,0-1.3,0C115.1,49.8,116,49.7,116.3,49.7
	L116.3,49.7z M115.5,53l0,0.1l-1,0.1l0-0.1C114.5,53.1,115.5,53,115.5,53z M117.2,53.8c0-0.1-0.2-0.2-0.6-0.2l-1,0.3l-0.8,0
	c-0.2-0.1-0.3-0.2-0.3-0.3l0.9,0.1l2-0.3l1,0l0,0.2C118,53.6,117.6,53.6,117.2,53.8z M127.7,51c0.1,0,0.2,0,0.2,0
	c0.4-0.4,0.8-0.6,1.2-0.8c-0.4,1.6-1,2.8-1.7,3.6l-0.6-0.4C127.4,52.3,127.7,51.5,127.7,51L127.7,51z M126,54.1l0.1,0
	c-0.2,0.4-0.4,0.6-0.5,0.6l0-0.4C125.7,54.3,125.8,54.2,126,54.1z M124.8,56.8c0.3-1.1,0.5-1.7,0.8-1.9l0,0.1
	c-0.1,1-0.4,1.6-0.7,1.6l0.1,0.7c-0.2,0.4-0.4,0.6-0.4,0.8l-0.1,0l-0.1-0.9C124.6,57.3,124.7,57.1,124.8,56.8L124.8,56.8z
	 M124.4,58.3c0,0.2-0.1,0.5-0.3,1.1l-0.1,0l0-0.4C124.1,58.6,124.3,58.3,124.4,58.3L124.4,58.3z M116,82.5l0-0.1l0.3,0l0,0.4
	C116.2,82.8,116.1,82.7,116,82.5z M127.9,82.9c0-0.1-0.1-0.1-0.1-0.1l-0.7,0.1l0-0.1h0.1l1.6-0.1l0,0.1
	C128.3,82.7,128,82.7,127.9,82.9z M127.2,82.5C127.2,82.6,127.2,82.6,127.2,82.5C127.1,82.6,127.1,82.6,127.2,82.5z M127.2,80.7
	l-0.9,0.1l0-0.1l0.8-0.1l0.7-0.2c0,0.1,0.1,0.1,0.1,0.1c0.8-0.1,0.8-0.2,1.2-0.2c0.1,0,0.2,0.1,0.2,0.2L127.2,80.7L127.2,80.7z
	 M130.3,80.4c-0.5-0.1-0.5-0.1-0.9-0.1l0-0.1l0.8-0.1l0,0.1C130.2,80.3,130.5,80.3,130.3,80.4L130.3,80.4z M130.4,80.2l0-0.1l0.4,0
	l0,0.1L130.4,80.2z M131.4,80.2l0-0.1c0.1,0,0.2-0.1,0.3-0.2c0.2,0,0.3,0.1,0.4,0.3L131.4,80.2L131.4,80.2z M132.6,80l0-0.1l0.5,0
	l0,0.1L132.6,80z M133.3,79.9c0-0.2,0.1-0.2,0.2-0.3l0.2,0.2c0-0.1,0-0.1,0.1-0.1l0.1,0.2L133.3,79.9L133.3,79.9z M125.5,83.3l0-0.3
	l-0.1,0L125.5,83.3L125.5,83.3z M143.7,78.6c0.1-0.1,0.1-0.1-0.1-0.1c-0.1,0.1,0.1,0.1-0.1,0.1l0,0.1
	C143.6,78.7,143.6,78.7,143.7,78.6l-0.2,0.1v0l-0.2,0.3l0.4-0.2h0.1L143.7,78.6L143.7,78.6z M144.5,79.2L144.5,79.2l-0.1,0.3
	l0.6-0.1C145,79.3,144.6,79.2,144.5,79.2L144.5,79.2z M143.5,78.7L143.5,78.7L143.5,78.7C143.5,78.7,143.5,78.7,143.5,78.7
	L143.5,78.7z"/>
<path class="st0" d="M103.8,59.6l0,0.2l0.3,0c0-0.1,0-0.3,0.1-0.5l0-0.3C104.1,59,104,59.2,103.8,59.6L103.8,59.6z M100.5,51.8
	l0-0.3l-0.5,0l0,0.3L100.5,51.8z M91.1,69.5c0-0.3-0.9-1.4-2.6-3.3c0-0.4,0.6-0.9,1.8-1.6l3.5-3c0.8-1,1.2-2.6,1.4-4.8l0-0.5
	c-0.1-1.5-1.2-2.8-3.3-3.7c-1.2-0.8-3.5-1.3-6.7-1.4c-2.7,0.2-6.2,1.2-10.4,2.9c-1.2,0.8-2.5,1.7-4,2.5l0,0.3c0.1,0,0.2-0.1,0.4-0.2
	c0.2,0,0.3,0.1,0.3,0.2l0.3-0.1l0.1,0l0,0.1c0,0.1-0.9,0.9-2.8,2.2l0.1,0.3l-0.1,0l-0.3-0.1c0,0.1-0.1,0.2-0.4,0.2l0,0.1l0.3,0.4
	c-0.1,0-0.2,0-0.4-0.1c-0.4,0-0.9,0.3-1.3,0.7l0.2-0.8c0.6-2.7,1.1-5.1,1.3-7.2l0-0.1c-0.4-0.3-0.9-0.7-1.3-1.2c0-0.3,0-0.5,0-0.5
	l0-0.1l-0.1,0c-1.4,2-4,5.5-7.9,10.5c-3,3.5-4.5,5.5-4.6,5.9c-1.2,1.3-1.8,2-1.7,2.3c-0.3,0.2-0.5,0.4-0.4,0.6c-0.1,0-0.2,0-0.2-0.1
	c-0.5,0.8-1.3,1.4-2.3,1.6l-1.1,0.2c-0.1,0-0.2,0.1-0.2,0.3l0,0.1l0.4-0.1l0,0.1l-0.9,0.4l-1.6,0.4l-0.8,0.1c-0.1,0.1,0.7,0,0.4,0.1
	l-1.1,0.2c-0.6,0.1-1,0.1-1.1-0.2l-0.1,0c0,0.1,0,0.2,0,0.3l-0.1-0.3l-0.8,0.2c-0.1-0.4-1.2-1.8-3.4-4.3c0-0.5,0.7-1.2,2.3-2.1
	l4.5-4c1-1.3,1.6-3.4,1.8-6.3L47.9,56c-0.2-2-1.6-3.7-4.4-4.9c-1.6-1.1-4.6-1.7-8.8-1.8c-3.5,0.3-8.1,1.6-13.8,3.7
	c-1.6,1.1-3.3,2.2-5.3,3.3l0,0.4c0.1,0,0.3-0.1,0.5-0.2c0.2,0,0.4,0.1,0.4,0.3l0.4-0.2l0.2,0l0,0.2c0,0.2-1.2,1.1-3.7,2.9l0.2,0.3
	l-0.2,0L13,59.8c0,0.1-0.2,0.2-0.5,0.2l0,0.2l0.4,0.5c-0.1,0-0.3,0-0.6-0.1c-0.8,0.1-1.6,0.7-2.4,1.7l0.2,0.3
	c0.7-0.6,1.1-0.9,1.2-0.9l0,0.5c-0.1,0-0.3,0.1-0.5,0.2l0.4,0.6c0.8-0.9,1.7-1.6,2.7-2.3c0.5,0.1,0.7,0.3,0.8,0.4l0.4,0
	c2.7-2,5.3-3.4,7.9-4.3l0,0.4c-0.5,0.7-0.8,1.1-1,1.1c0,0.2,0.1,0.5,0.3,0.7c0,0.4-1.1,3.4-3.6,9C13.3,80.9,8.7,90.4,5,96.6
	c0,0.1,0.1,0.3,0.2,0.5c0.9-0.2,1.5-0.4,1.7-0.7l0.2,0l0,0.4l0.3,0l0.4-0.2c0,0.1,0.1,0.2,0.4,0.1l0,0.4c0,0.3-0.2,0.9-0.6,1.6
	c-0.4,0.4-0.8,1.3-1.2,2.7l0,0.2l0.3,0c1.5-1.7,2.6-3.3,3.4-4.9c4.3-1.3,7.7-2.5,9.9-3.8c2.3-0.2,4.1-0.8,5.3-1.8l0-0.2L24.6,91
	l-0.2,0l0-0.2c1.7-0.3,2.9-0.6,3.5-1.1c3.3-2.5,5.8-4.3,7.5-5.4c3.5-2.5,5.7-5,6.7-7.4c0.2,0,0.4-0.1,0.6-0.1c0.5,0,0.8,0,0.8-0.1
	c0-0.1,0-0.1,0.1-0.2c0.8-0.1,0.4,0.1,0.9-0.1l1.3-0.3l0.2-0.1l-0.1,0.1c0.1,0,0.3,0,0.5,0l0.1,0.4l-5.9,9.4l-1.3,1.6l-0.6,2.2
	l0.1,0l0.6-0.3l-0.2,0.8l0.1,0.2l0.2,0.2c-0.1,0-0.1,0.1-0.1,0.2l0,0.1l0.3-0.1c0.4-0.3,0.6-0.7,0.5-0.9c0.4,0.1,0.7,0.1,0.8,0.1
	l0,0.1c-0.3,0.1-0.4,0.3-0.4,0.6l0,0.1l0.1,0c2.2-2.3,7.4-10.4,11.7-15.8c-0.1-0.6,2.1-1.4,6.6-2.5l0.1,0c0.2,0.7-0.2,2.4-1.1,5.2
	c-0.6,1.7-0.8,2.6-0.8,2.7c-0.7,2.2-1.1,3.4-1,3.6l-1.6,5.3c-1,2.7-1.8,5.6-2.4,8.6c0.1,0,0.2,0,0.4,0l0.2-0.2
	c0,0.1,0.1,0.1,0.2,0.1L53,97.5l0.7,0c0.2-0.1,0.4-0.3,0.5-0.8c0-0.7,0.1-1.1,0.4-1.2c0.4-1.7,0.7-2.5,0.8-2.6
	c0.4-1.7,0.7-2.6,0.9-2.9c0.6-2.2,1.1-3.3,1.3-3.4l0.1,0.3l-0.4,1.1c-0.8,3.4-1.6,6.2-2.4,8.2l0.2,1l0.1,0
	c1.9-4.1,4.7-12.3,8.3-24.6c0.1-1.1,0.6-1.9,1.5-2.5L65,69.9l0-0.1c0.4-0.1,0.7-0.3,0.9-0.5c0-0.1-0.4-0.2-1.1-0.4l1.8-7.7
	c0.4-0.4,0.6-0.5,0.7-0.5l0,0.4c-0.1,0-0.2,0.1-0.4,0.2l0.3,0.5c0.6-0.7,1.3-1.3,2-1.7c0.4,0.1,0.6,0.2,0.6,0.4l0.3,0
	c2-1.5,4.1-2.6,6-3.2l0,0.3c-0.4,0.5-0.6,0.8-0.7,0.8c0,0.2,0.1,0.4,0.2,0.5c0,0.3-0.9,2.6-2.7,6.8c-4.2,9.8-7.6,17-10.5,21.7
	c0,0.1,0.1,0.2,0.2,0.4c0.7-0.2,1.1-0.3,1.3-0.5l0.1,0l0,0.3l0.3,0l0.3-0.1c0,0.1,0.1,0.1,0.3,0.1l0,0.3c0,0.2-0.1,0.6-0.4,1.2
	c-0.3,0.3-0.6,1-0.9,2l0,0.1l0.3,0c1.1-1.3,2-2.5,2.6-3.7c3.3-1,5.8-1.9,7.5-2.8c1.8-0.2,3.1-0.6,4-1.4l0-0.1L77.3,83l-0.1,0l0-0.1
	c1.3-0.2,2.2-0.5,2.7-0.9c2.5-1.9,4.4-3.3,5.7-4.1C89.4,75,91.3,72.2,91.1,69.5L91.1,69.5z M90.4,69.7l0.1,1
	c-0.1,0.3-0.3,0.4-0.4,0.4l-0.2-1.8C90.2,69.5,90.4,69.6,90.4,69.7L90.4,69.7z M12.1,61.3l-0.2,0l0-0.3l0.7-0.1l0,0.2
	C12.5,61.1,12.3,61.1,12.1,61.3L12.1,61.3z M8.6,96.1c-0.4-0.2-0.8-0.3-1.1-0.2l0-0.5c0-0.2,0.1-0.3,0.3-0.4c0.2,0,0.4,0.1,0.4,0.5
	c0.6-0.7,0.9-1.1,1-1.1l0.4,0.2C9.4,95.6,9.1,96.1,8.6,96.1z M45.8,57.2c-0.2,0-0.5-0.5-1-1.6l0-0.3c0.3,0,0.7,0.5,1,1.6L45.8,57.2z
	 M45.3,53.3l-0.1,0.3l-5.1-2.1C43.5,51.7,45.3,52.2,45.3,53.3z M24,71.6l-0.7,0.1l0-0.3l0.7-0.1L24,71.6z M23.4,60.6l0.2,0l0,0.5
	c-0.2,0-0.4,0.3-0.7,0.7l0-0.4C23.3,61.1,23.4,60.8,23.4,60.6L23.4,60.6z M21.9,64.2l0.1,0.7l-0.2,0l-0.1-0.7L21.9,64.2z M21.1,65.4
	l0.3,0c0,0.6-0.2,0.9-0.5,0.9l-0.2,0C21,65.9,21.2,65.6,21.1,65.4z M20.5,67.2l0.2,0l0,0.2l-0.3,0.5l-0.3,0l0-0.2
	C20.4,67.7,20.6,67.5,20.5,67.2L20.5,67.2z M20,68.8l-0.1,0.8l-0.2,0l-0.1-0.8L20,68.8z M14.2,85.3c-0.2,1.2-0.5,1.7-0.7,1.8l0-0.2
	C13.4,86.3,13.6,85.8,14.2,85.3L14.2,85.3z M13.1,87.6l0,0.2c0,0.2-0.1,0.4-0.3,0.4l0-0.2C12.8,87.7,12.9,87.6,13.1,87.6z
	 M12.8,92.4l0.5-0.1l0,0.2c-0.1,0-0.3,0.1-0.5,0.2l-0.3,0C12.5,92.6,12.6,92.4,12.8,92.4L12.8,92.4z M28.1,87.6
	c-3,1.5-4.8,2.5-5.3,3c-3.3,1.1-4.9,1.8-4.9,2.1c-2.9,1.1-4.8,2-5.7,2.5c-0.2,0-0.5-0.1-0.9-0.2c-0.1-0.6,0.2-1.1,0.8-1.4
	c0.5,0,1,0,1.5,0.2c0.5-0.3,1.5-0.6,2.8-0.9l0-0.4l-1.1,0.1c0.1-0.2,1.2-0.7,3.1-1.5l0.5-0.1l0,0.2c-0.9,0.1-1.4,0.4-1.5,0.8
	c0,0.2,0.1,0.3,0.4,0.3c0.7-0.4,1-0.7,1-0.8c1.3-0.2,4.9-2.2,10.9-5.7l0,0.3C29.6,86.5,29.1,86.9,28.1,87.6z M19,90.6
	c0.9-0.1,1.6-0.4,2.2-1c0.2,0,0.4,0.1,0.4,0.3c-0.4,0-1.2,0.4-2.4,1.1L19,91L19,90.6L19,90.6z M33.7,79.3l-4.6,3.6
	c-3.4,2.2-5.2,3.3-5.5,3.4c-5.4,3-8.8,4.5-10.1,4.6l-0.2,0c0.2-0.6,2.6-5.5,7.2-14.8c2-0.2,5.3-1.1,9.7-2.9l1.1-0.1
	c2.2-0.2,3.9,0.2,5,1.3l0.1,0.7C35.6,77.5,34.7,78.9,33.7,79.3L33.7,79.3z M24.8,74.3l0.7-0.1l0,0.2l-0.7,0.1L24.8,74.3z M35.1,72.6
	l0.5-0.1c0.5,0.2,0.8,0.4,0.8,0.6l0,0.2C35.9,73.4,35.5,73.1,35.1,72.6z M36.5,64.3c-0.5,0.6-1.8,1.5-3.9,2.9
	c-0.7,0.1-3.3,1.1-7.8,3.1c-0.2-0.1-0.5-0.1-0.7-0.1l0-0.3c-0.1-0.7,0.2-1.5,0.9-2.5c0.4-1.9,0.7-2.9,1.2-3.2l3.8-8.5
	c0-0.5,0.8-0.9,2.4-1.2l0.5-0.1l0,0.5c1.6-0.2,2.6-0.4,3-0.4c3-0.3,4.6,0.4,4.7,1.8l0.3,0l-0.1-0.9l0.4,0c0.9,0.5,1.4,1.1,1.4,1.8
	c0,0.5-0.2,1.1-0.8,1.8c-0.2,0-0.4-0.1-0.4-0.5l-0.4,0l-0.1,1c-1.5,2.3-2.6,3.4-3.3,3.5C37.1,63.8,36.7,64.3,36.5,64.3L36.5,64.3z
	 M38.9,70.2c-0.3-0.2-0.6-0.3-0.7-0.3l0-0.5l0.3,0l0.8,0.4C39.2,70.1,39.1,70.2,38.9,70.2L38.9,70.2z M41.3,73.1
	c0.3,0.1,0.5,0.3,0.6,0.4l-0.2,0l0,0c0,0-0.1,0-0.1,0l-0.2,0.2L41.3,73.1L41.3,73.1z M41.5,74.5l0-0.1l0.4-0.1l0,0.1L41.5,74.5
	L41.5,74.5z M42.5,75.6c0.4-0.1,0.7-0.1,1.5-0.3l0,0.1l-1.6,0.4C42.5,75.8,42.5,75.7,42.5,75.6L42.5,75.6z M44.1,76.3
	c-0.7,0.1-0.5,0-1.6,0.2l0-0.1l1.3-0.4l0.6-0.1l0.1,0.2C44.2,76.1,44.4,76.1,44.1,76.3z M45.4,76c-0.2,0-0.3,0-0.4-0.2l0.4-0.1
	c0.2,0,0.3,0,0.3,0.2L45.4,76L45.4,76z M49.2,71.9l0-0.1l0.7-0.2l0.1,0.2L49.2,71.9z M53.3,96.7c0-0.2,0.1-0.3,0-0.4l0.1,0
	c0.2,0,0.3,0,0.3,0.2l0,0.1L53.3,96.7L53.3,96.7z M56.1,73l-0.3-0.1c-0.5,0.2-0.9,0.3-1.2,0.4l-0.3,0.1c-0.2,0-0.3,0-0.3-0.2
	l1.9-0.4l0.6-0.3l0.2,0.2C56.5,72.8,56.2,72.8,56.1,73L56.1,73z M57.6,72.5l0-0.1c0.1,0,0.2-0.1,0.4-0.2l1.3-0.3l0,0.1
	C58.5,72.1,58,72.3,57.6,72.5z M57.8,69.8c-0.1,0-0.2,0.1-0.4,0.2c0-0.1-0.2-0.1-0.6,0c-0.1-0.3,0.9-0.6,3-1.1l0.3-0.1l0.1,0.2
	C58.7,69.5,57.9,69.7,57.8,69.8L57.8,69.8z M61.4,65.9c-0.1,1.6-0.7,2.6-1.7,2.8l0-0.1l-0.9,0.4L58.3,69c-0.2,0.1-0.4,0-0.6,0
	l-0.1-0.4c0-0.1,1.3-2,3.9-5.4l0.3,0.1C62,63.7,61.9,64.6,61.4,65.9L61.4,65.9z M67.8,60.4l-0.1,0l0-0.3l0.5-0.1l0,0.1
	C68.1,60.2,68,60.3,67.8,60.4z M65.2,86.9c-0.3-0.1-0.6-0.2-0.8-0.2l0-0.4c0-0.1,0.1-0.2,0.2-0.3c0.2,0,0.3,0.1,0.3,0.4
	c0.4-0.6,0.7-0.9,0.7-0.9l0.3,0.1C65.8,86.4,65.5,86.8,65.2,86.9z M93.4,57.3c-0.1,0-0.4-0.4-0.8-1.2l0-0.3c0.3,0,0.5,0.4,0.8,1.2
	L93.4,57.3L93.4,57.3z M93.1,54.3l-0.1,0.3L89.1,53C91.7,53.1,93,53.5,93.1,54.3z M76.8,68.3l-0.5,0.1l0-0.3l0.5-0.1L76.8,68.3z
	 M76.4,59.9l0.1,0l0,0.4c-0.1,0-0.3,0.2-0.5,0.6l0-0.3C76.3,60.3,76.4,60.1,76.4,59.9L76.4,59.9z M75.3,62.6l0,0.5l-0.1,0l0-0.5
	L75.3,62.6z M74.6,63.5l0.3,0c0,0.4-0.1,0.7-0.3,0.7l-0.1,0C74.6,63.9,74.7,63.7,74.6,63.5L74.6,63.5z M74.2,64.9l0.1,0l0,0.1
	l-0.2,0.4l-0.3,0l0-0.1C74.1,65.3,74.2,65.1,74.2,64.9L74.2,64.9z M73.8,66.1l-0.1,0.7l-0.1,0l-0.1-0.7L73.8,66.1L73.8,66.1z
	 M69.4,78.6c-0.2,0.9-0.4,1.3-0.6,1.3l0-0.1C68.8,79.4,69,79,69.4,78.6L69.4,78.6z M68.5,80.4l0,0.1c0,0.2-0.1,0.3-0.2,0.3l0-0.1
	C68.3,80.5,68.4,80.4,68.5,80.4L68.5,80.4z M68.3,84l0.4,0l0,0.1c-0.1,0-0.2,0.1-0.4,0.2l-0.3,0C68.1,84.1,68.1,84,68.3,84L68.3,84z
	 M79.9,80.4c-2.3,1.1-3.6,1.9-4.1,2.3c-2.5,0.9-3.7,1.4-3.7,1.6c-2.2,0.9-3.7,1.5-4.3,1.9c-0.2,0-0.4-0.1-0.7-0.2
	c0-0.4,0.2-0.8,0.6-1.1c0.4,0,0.8,0,1.1,0.2c0.4-0.2,1.1-0.4,2.1-0.7l0-0.3l-0.8,0.1c0.1-0.1,0.9-0.5,2.4-1.1l0.4,0l0,0.1
	c-0.7,0.1-1.1,0.3-1.2,0.6c0,0.2,0.1,0.2,0.3,0.2c0.5-0.3,0.8-0.5,0.8-0.6c1-0.2,3.7-1.6,8.3-4.3l0,0.3
	C81.1,79.5,80.7,79.8,79.9,80.4L79.9,80.4z M73,82.7c0.7-0.1,1.2-0.3,1.7-0.8c0.2,0,0.3,0.1,0.3,0.2c-0.3,0-0.9,0.3-1.8,0.8l-0.1,0
	L73,82.7L73,82.7z M84.2,74.1l-3.4,2.8c-2.6,1.7-4,2.5-4.2,2.6c-4.1,2.3-6.6,3.4-7.6,3.5l-0.1,0c0.1-0.5,2-4.2,5.5-11.2
	c1.5-0.1,4-0.9,7.3-2.2l0.8-0.1c1.7-0.1,2.9,0.2,3.8,1l0,0.5C85.6,72.7,84.9,73.8,84.2,74.1L84.2,74.1z M77.4,70.3l0.5-0.1l0,0.1
	l-0.5,0.1L77.4,70.3z M85.3,69l0.4,0c0.4,0.2,0.6,0.4,0.6,0.5l0,0.1C85.9,69.6,85.6,69.4,85.3,69z M86.3,62.7
	c-0.4,0.4-1.3,1.2-2.9,2.2c-0.5,0.1-2.5,0.8-6,2.3c-0.2-0.1-0.4-0.1-0.5-0.1l0-0.3c0-0.5,0.2-1.1,0.7-1.9c0.3-1.4,0.6-2.2,0.9-2.4
	l2.9-6.5c0-0.4,0.6-0.7,1.8-0.9l0.4,0l0,0.4c1.2-0.2,2-0.3,2.3-0.3c2.3-0.2,3.5,0.3,3.6,1.4l0.3,0l-0.1-0.6l0.3,0
	c0.7,0.4,1,0.8,1.1,1.3c0,0.4-0.2,0.8-0.5,1.4c-0.2,0-0.3-0.1-0.3-0.4l-0.3,0L89.7,59c-1.1,1.7-2,2.6-2.5,2.7
	C86.8,62.3,86.5,62.6,86.3,62.7L86.3,62.7z M87.6,67l0-0.4l0.3,0l0.6,0.4c0,0.2-0.1,0.3-0.2,0.3C87.9,67,87.7,67,87.6,67L87.6,67z
	 M39.4,92.1l-0.3,0.1l-0.2,0.2c0,0.2,0.1,0.2,0.3,0.2c0.2,0,0.2-0.1,0.2-0.3L39.4,92.1L39.4,92.1z M38.4,90l0,0.1
	c0.2,0,0.2-0.1,0.2-0.3l0-0.1C38.4,89.8,38.4,89.9,38.4,90L38.4,90z M45.7,76.3l0.2-0.1c0,0-0.1,0-0.1,0
	C45.7,76.2,45.7,76.2,45.7,76.3z M45.7,72.7l0.3-0.1l-0.1-0.3l-0.3,0.1L45.7,72.7z M118.7,83.2l-0.7-0.1l-0.1,0.3l0,0.1l4.2-0.4
	l0-0.3L118.7,83.2z M122.6,82.8l0,0.3h0L122.6,82.8L122.6,82.8z M140.1,80.5l0,0.3l0.5,0.1l0-0.3L140.1,80.5z M139.5,80.6
	c-3.1,0.7-3.5,0.6-4.2,0.6l0,0.3l0.3,0l0.2,0l0,0l0.3-0.1c3.1-0.3,3.5-0.2,3.4-0.6L139.5,80.6z M120.6,76l-0.3-0.1
	c-0.2,0.6-0.3,1-0.3,1.1l0,0.1C120.2,77.1,120.4,76.7,120.6,76z M116.8,74l0-0.1l-0.1,0l-0.3,0.2l0.1,0.2
	C116.8,74.3,116.9,74.2,116.8,74L116.8,74z M125.1,82.5l0-0.3l-0.1,0L125.1,82.5L125.1,82.5L125.1,82.5z M142.1,78.6l0.2,0
	c0.1,0,0.2-0.1,0.2-0.3l-0.1-0.2c-0.7,0.1-1,0.1-1.6,0.4l0-0.1l-0.9,0.1c0-0.3-0.1-0.4-0.2-0.4l-0.4,0c-0.5,0-0.8,0-1,0.2
	c0-0.1,0-0.1-0.1-0.1l-0.5,0l-0.3,0.2c0-0.1,0-0.1-0.1-0.1l-0.2,0.2l0-0.1l-0.7-0.1l-0.2,0l0,0.3l0.4,0.1l0.3,0
	c0.1,0.1,0.2,0.1,0.4,0.1l0.3-0.1l0,0.1c-1.6,0.4-1.6,0.3-2.7,0.5c-0.1-0.1-0.2-0.1-0.3-0.1l0,0c-0.1,0-0.2-0.1-0.2-0.2l0.6-0.1
	c0,0,0.1,0,0.4,0.1c0.5-0.2,0.5-0.3,0.7-0.3l0-0.3c-1.6,0.3-1,0.1-2.9,0.3l-0.1,0l0-0.3c2.6-0.3,1.7-0.1,2.6-0.4
	c0,0.1,0,0.1,0.1,0.1c0.1-0.1,0.2-0.2,0.4-0.2l0.2,0c0.9-0.1,1.2,0.1,3-0.4l0,0.1l0.3-0.1l0.3,0c0-0.3,0.4-0.3,0.5-0.3l0-0.3
	c-3.1,0.6-3.9,0.5-4.8,0.7l0-0.1c-0.8,0.1-0.8,0.1-1.1,0.1c-0.1,0-0.2,0.1-0.3,0.2c0-0.1,0-0.1-0.1-0.1c0,0,0,0-0.1,0l-2.6,0.4
	c0-0.1,0-0.1-0.1-0.1c-1.4,0.3-1,0.3-2.8,0.5c-0.1,0-0.2,0.1-0.3,0.1c0-0.1-0.1-0.1-0.1-0.1l-1.1,0.1l-0.8,0.2
	c0-0.1-0.1-0.1-0.1-0.1c-0.4,0.1-0.8,0.2-1.1,0.2h0c-0.2,0,0.1-0.1-0.1-0.1l-0.2,0.1c-0.3,0-0.2,0-1.3,0c-2,0.2-1.8,0.3-2,0.3
	l-0.7-0.1c0,0.1,0,0.1-0.1,0.1c-0.8-0.1-1.3-0.2-1.3-0.4c0.1-0.8,0.3-1.2,0.6-1.2l0.1,0l-0.1,0.3l0.1,0c0.3-0.1,0.4-0.3,0.4-0.4
	l0-0.3l-0.3,0l0-0.3c0-0.2,0-0.4,0.1-0.5l0.6-1l0,0.3l0.3,0l0-0.3l-0.2-0.2c0.2-0.2,0.4-0.3,0.5-0.3l0-0.1l-0.4,0l0-0.4
	c0.8-1.6,1.2-2.6,1.1-2.9l0.3,0.1c0.2,0,0.3-0.1,0.2-0.3l-0.3,0l0-0.1c0-0.2,0-0.4,0.1-0.5c0.4-0.4,0.6-0.9,0.6-1.4
	c0.1,0,0.1,0,0.1,0.1c0.4-0.2,0.6-0.8,0.8-1.7c0.6-1.2,1.6-3.5,2.7-6.9c2.3-6.1,2.2-6.8,2.5-8.2l-0.3,0c0,0.2,0,0.4-0.1,0.5
	c-0.2-0.1-0.3-0.1-0.4-0.1l0-0.1c0-0.5,0.2-1.2,0.7-1.9l0.1,0l0.2,0.9l0.3,0c0-0.1,0.1-0.4,0.2-1.1c0-0.1-0.1-0.2-0.3-0.2l-0.3,0.2
	c0-0.2,0-0.7,0-1.4l-0.1,0c-0.2-0.2-0.3-0.4-0.4-0.6l-1.5,0.1c0-0.1-0.1-0.3-0.2-0.5c0-0.1,0.3-0.3,1-0.4l0.3,0.1l0.3-0.2
	c0,0.1,0.1,0.1,0.2,0.1l0.3-0.2c0,0.1,0.1,0.1,0.2,0.1l0.1,0l0-0.3c-0.2,0-0.8,0-1.6,0l-0.3,0.2l0-0.2c-6.9,0.6-10.9,0.9-11.8,1
	c-0.1,0-0.6,0-1.5,0c0,0.1-0.1,0.2-0.3,0.2l-0.3-0.1l-1,0.3c-0.2,0-0.6,0-1.2-0.1c-0.2,0.1-0.3,0.2-0.6,0.2c-0.1,0,1.5-0.1,3-0.2
	c-0.2,0.1-0.4,0.2-0.7,0.2c-0.2,0-0.4,0-0.6-0.1c-0.2,0.1-1,0.3-2.2,0.5l-0.3-0.1l-4.8,0.7c-0.2-0.1-0.4-0.1-0.7-0.1
	c-0.3,0-0.7,0.1-1.3,0.3l-2.3,1l0.2,0.3c0.1,0,0.3-0.1,0.5-0.2l0.8,0.1l-0.1,0.8c-0.8,0.3-1.2,0.8-1.3,1.5c-1.1,0.5-1.7,0.9-1.7,1.1
	l0,0.1l0.2,0l0.3-0.2l0.4,0.4L100,56c0,0.2-1.9,4.2-5.8,12.2c-3.3,7.7-5.1,11.8-5.3,12.6c-1.1,0.3-1.8,0.8-2,1.4
	c0,0.2,0.4,0.3,1,0.4l0,0.3l-0.3,0.5l0.1,0.6c0,0.3,0.9,0.5,2.5,0.7c0-0.1,0-0.2,0.2-0.2c0,0.4-0.1,1.1-0.3,2.2l0.2,0
	c0.7-0.9,1-1.6,1-1.9l0.1,0c0.2,0,0.3,0.2,0.5,0.6c-0.2,0.1-0.9,1.7-2.2,4.9l0.2,0.3l0.2,0c1.5-3.8,2.5-6,2.9-6.4
	c2-0.2,5.4-0.5,10.4-1.1l0.3-0.2c0,0.1,0.1,0.2,0.2,0.1l0.3,0l0.3-0.2c0,0.1,0.1,0.2,0.2,0.1l3.7-0.3c1-0.1,1.4-0.4,1.4-0.9
	c0-0.1,0.6-0.3,1.7-0.5c0.1,0,0.3,0,0.5,0.1c0-0.1,0.6-0.2,1.8-0.3c0-0.6,0.2-1,0.6-1l0-0.3c-0.3,0-0.7,0.1-1.1,0.3
	c-0.8,0-1.3-0.1-1.5-0.2c-0.2,0.1-0.4,0.2-0.5,0.2l-2.6,0.1l-0.3,0.2c0-0.1-0.1-0.1-0.2-0.1l-0.1,0l-0.3,0.2c0-0.1-0.3-0.2-0.8-0.2
	l-0.3,0.2l-0.6,0.1l0-0.2c3.3-0.4,5-0.8,4.9-1.4c0.2,0,0.3,0.1,0.4,0.3l1-0.2l0-0.3l-8,0.2c0,0.1,0,0.2-0.2,0.2l-1-0.1
	c-0.2,0-0.5,0.1-0.6,0.2L102,79c-1,0.1-1.7,0.2-2.2,0.4c-0.7-0.1-1.4,0-2.3,0l-1.8,0.2l-0.8-0.1c0-0.5,1-3.1,3.1-7.8
	c0.6-1.6,1.2-2.6,1.7-2.9c0.1,0,0.3,0,0.5,0.1l1.3-0.4l0.7,0.1c1.1-0.1,2.4-0.4,3.8-0.9c0.4,0,0.6,0,0.8,0.1l1-0.2l2.9-0.2
	c1.2-0.1,2.6-0.4,4-0.8l0-0.3c-0.5,0.1-0.8,0-0.8-0.3c0-0.4-0.4-0.6-1.2-0.5l0-0.3l0.8-0.2l2.1-0.2l0-0.3c-0.1,0-0.5,0-1.3,0l0-0.3
	l0.8-0.1c0.2,0,0.3-0.1,0.3-0.3c-1.1,0-1.6,0-1.6-0.2c-7.6,0.4-11.4,0.4-11.4,0.2c-0.1,0-0.3,0.1-0.5,0.2l-0.2-0.3
	c2-4.3,3.2-6.4,3.5-6.4c0,0.2-0.1,0.4-0.2,0.8l0,0.1l0.3,0c0.8-1.9,1.5-2.9,2-2.9c2.4-0.2-0.3-0.4,4.8-1.2c0.2,0.1,0.4,0.1,0.5,0.1
	c2-0.4,4.8-0.8,8.3-1.3l0-0.3l-1.9,0.2l0-0.3c0.2,0,0.4-0.1,0.6-0.2l0,0.2c0.1,0,0.2-0.1,0.4-0.2c0.3,0,0.6,0,0.8,0.1
	c0.7-0.2,1.2-0.3,1.6-0.3l1.2-0.1c0.3-0.2,0.4-0.4,0.4-0.5l0-0.1c-0.3,0-0.6,0-1-0.1c0-0.2,0.1-0.3,0.3-0.3l2.2-0.2l1-0.3
	c0,0.1,0.1,0.2,0.1,0.2c0.1,0,0.2-0.1,0.4-0.2c0.1,0,0.1,0,0.2,0c-0.1,0.3-0.3,0.7-0.4,1.2l-0.3,0c0-0.2-0.1-0.4-0.2-0.5l-0.1,0
	c-2.7,7.5-3.9,11-6.4,16.7c-0.5,1.5-0.8,2.3-1.2,2.5c0,0.2,0.1,0.2,0.3,0.2c0.1,0.7-0.1,1.4-0.5,2.1c-1.1,3.3-1.9,5.1-2.3,5.4
	l0.3,1.6c0,0.2-0.1,0.3-0.2,0.3l-0.3,0c0-0.4-0.2-0.6-0.5-0.6l-0.1,0c-0.4,0.5-0.6,1.2-0.8,1.9l0.3,0c0.4-0.2,0.5-0.5,0.5-0.8
	l0.5-0.1l0.3,0.1c-0.2,0.4-0.4,0.7-0.3,0.9l0.1,0.2l-0.4,0.8l0,0.1c0.3,0,0.7,0.1,1,0.3c0.2,0,0.5-0.1,0.8-0.3c0.3,0,1.5,0,3.5,0
	l1-0.3c1.2,0,1.4,0,2.5-0.1l0.4,0l0.2-0.2l0,0.1c1.1-0.1,1.2,0,2,0.1l0,0.1l-0.6,0.1l0,0.3c0.2,0,0.4-0.1,0.5-0.2
	c0.2,0,0.2,0.1,0.3,0.3c-0.2,0-0.5,0.1-0.8,0.2l-0.3-0.1c-0.4,0.1-0.3,0.1-0.6,0.2l-0.4-0.1c0,0.1,0,0.1-0.1,0.1
	c0,0.2,0.1,0.2,0.3,0.2l0.4,0l2.3-0.2l0.9-0.2c0,0.1,0,0.1,0.1,0.1l0.4-0.2l0.8-0.1c0.6-0.1,0.6-0.1,1.9-0.3c0-0.1,0-0.1,0.1-0.1
	l0,0.1c2.1-0.4,2.3-0.4,2.6-0.5l0,0.1c0.5-0.1,0.2-0.1,0.4-0.2c0,0.1,0,0.1,0.1,0.1l0.4,0l0-0.3l-0.8,0l0,0c0,0-0.1,0-0.1,0h-0.1v0
	c-0.5,0.1-0.5,0-0.8,0.1l-1.9,0.1l0-0.1l1.1-0.1l0.4,0l0.2-0.2l0,0.1c1.5-0.1,2,0.2,8.9-1.2c0.4,0,0.3-0.3,0.6-1
	c-0.1,0-0.3,0-0.4-0.1c-0.6,0.2-0.9,0.1-2,0.3c-0.1,0-0.2-0.1-0.2-0.2l0-0.1l1.1,0c0.2,0,0.6-0.1,1.1-0.4
	C142.2,78.6,142,78.7,142.1,78.6L142.1,78.6L142.1,78.6z M91.2,79.5l-0.5,0c0-0.2,0.2-0.9,0.8-2.2l0.3,0
	C91.8,77.6,91.6,78.3,91.2,79.5z M91.8,77.1l0-0.1c0-0.2,0.1-0.3,0.3-0.3l0,0.1C92.1,77,92,77.1,91.8,77.1z M98.3,82.1l0,0.1
	l-0.8,0.1l0-0.1L98.3,82.1z M97.3,82c0,0.2-0.2,0.4-0.8,0.5l-1-0.1l-0.3,0l0-0.3L97.3,82z M103.8,51.9l-0.5,0l0-0.2
	c0-0.2,0.1-0.3,0.3-0.3l0.2,0l0.3,0.1C104.1,51.8,104,51.9,103.8,51.9z M111.2,50.5l0.2,0l0,0.3l-0.4,0
	C110.9,50.7,111,50.5,111.2,50.5L111.2,50.5z M109.4,51.1l-0.7-0.1l0-0.1c1-0.1,1.3-0.2,1.9-0.4c0,0.1,0.1,0.2,0.3,0.1l0,0.3l-0.3,0
	c-0.2,0-0.4,0-0.6-0.1C109.8,51,109.6,51.1,109.4,51.1z M110.3,53.8l0-0.1l1.2-0.1l0,0.1L110.3,53.8z M111.6,52.8l0-0.2l0.6-0.1
	l0,0.2L111.6,52.8z M111.7,50.8l-0.2,0l0.1-0.3l1.3-0.1l0,0.2C112.7,50.5,112.2,50.6,111.7,50.8z M112.4,53.6l0-0.3l0.6-0.1
	c0.2,0,0.3,0.1,0.3,0.3L112.4,53.6L112.4,53.6z M115.9,48.8l-0.7,0.2l-0.1,0c-0.4,0-0.8,0-1.3,0C114.6,49,115.5,48.9,115.9,48.8
	L115.9,48.8z M115.1,52.1l0,0.1l-1,0.1l0-0.1C114,52.2,115.1,52.1,115.1,52.1z M116.7,52.9c0-0.1-0.2-0.2-0.6-0.2l-1,0.3l-0.8,0
	c-0.2-0.1-0.3-0.2-0.3-0.3l0.9,0.1l2-0.3l1,0l0,0.2C117.5,52.7,117.1,52.8,116.7,52.9L116.7,52.9z M127.3,50.2c0.1,0,0.2,0,0.2,0
	c0.4-0.4,0.8-0.6,1.2-0.8c-0.4,1.6-1,2.8-1.7,3.6l-0.6-0.4C126.9,51.5,127.2,50.6,127.3,50.2z M125.5,53.3l0.1,0
	c-0.2,0.4-0.4,0.6-0.5,0.6l0-0.4C125.2,53.4,125.3,53.4,125.5,53.3L125.5,53.3z M124.4,56c0.3-1.1,0.5-1.7,0.8-1.9l0,0.1
	c-0.1,1-0.4,1.6-0.7,1.6l0.1,0.7c-0.2,0.4-0.4,0.6-0.4,0.8l-0.1,0l-0.1-0.9C124.1,56.4,124.3,56.3,124.4,56z M123.9,57.5
	c0,0.2-0.1,0.5-0.3,1.1l-0.1,0l0-0.4C123.6,57.7,123.8,57.5,123.9,57.5L123.9,57.5L123.9,57.5z M115.6,81.7l0-0.1l0.3,0l0,0.4
	C115.7,82,115.6,81.9,115.6,81.7L115.6,81.7z M127.5,82c0-0.1-0.1-0.1-0.1-0.1l-0.7,0.1l0-0.1h0.1l1.6-0.1l0,0.1
	C127.9,81.9,127.6,81.9,127.5,82z M126.7,81.7C126.8,81.7,126.7,81.8,126.7,81.7C126.7,81.8,126.6,81.7,126.7,81.7z M126.8,79.8
	l-0.9,0.1l0-0.1l0.8-0.1l0.7-0.2c0,0.1,0.1,0.1,0.1,0.1c0.8-0.1,0.8-0.2,1.2-0.2c0.1,0,0.2,0.1,0.2,0.2L126.8,79.8L126.8,79.8z
	 M129.9,79.6c-0.5-0.1-0.5-0.1-0.9-0.1l0-0.1l0.8-0.1l0,0.1C129.7,79.4,130,79.5,129.9,79.6z M129.9,79.4l0-0.1l0.4,0l0,0.1
	L129.9,79.4z M130.9,79.3l0-0.1c0.1,0,0.2-0.1,0.3-0.2c0.2,0,0.3,0.1,0.4,0.3L130.9,79.3L130.9,79.3z M132.1,79.2l0-0.1l0.5,0l0,0.1
	L132.1,79.2z M132.9,79.1c0-0.2,0.1-0.2,0.2-0.3l0.2,0.2c0-0.1,0-0.1,0.1-0.1l0.1,0.2L132.9,79.1L132.9,79.1z M143,77.9L143,77.9
	L143,77.9C143.1,77.9,143,77.9,143,77.9L143,77.9z M143.2,77.8c0.1-0.1,0.1-0.1-0.1-0.1c-0.1,0.1,0.1,0.1-0.1,0.1l0,0.1
	C143.1,77.9,143.1,77.8,143.2,77.8l-0.2,0.1v0l-0.2,0.3l0.4-0.2h0.1L143.2,77.8L143.2,77.8z M144,78.4L144,78.4l-0.1,0.3l0.6-0.1
	C144.5,78.4,144.1,78.4,144,78.4z"/>
</svg>
