<?xml version="1.0" encoding="utf-8"?>
<!-- Generator: Adobe Illustrator 25.0.0, SVG Export Plug-In . SVG Version: 6.00 Build 0)  -->
<svg version="1.1" id="Capa_1" xmlns="http://www.w3.org/2000/svg" xmlns:xlink="http://www.w3.org/1999/xlink" x="0px" y="0px"
	 viewBox="0 0 150 150" style="enable-background:new 0 0 150 150;" xml:space="preserve">
<style type="text/css">
	.st0{fill:url(#SVGID_1_);}
	.st1{fill:url(#SVGID_2_);}
</style>
<linearGradient id="SVGID_1_" gradientUnits="userSpaceOnUse" x1="1.232912e-02" y1="149.9873" x2="4.575295e-02" y2="149.9541" gradientTransform="matrix(1849.2675 0 0 -1853.3917 1.4159 278009.4688)">
	<stop  offset="0" style="stop-color:#387EB8"/>
	<stop  offset="1" style="stop-color:#366994"/>
</linearGradient>
<path class="st0" d="M74.5,12.8c-31.7,0-29.8,13.8-29.8,13.8l0,14.3h30.3v4.3H32.8c0,0-20.3-2.3-20.3,29.7c0,32,17.7,30.9,17.7,30.9
	h10.6V90.9c0,0-0.6-17.7,17.4-17.7h30c0,0,16.9,0.3,16.9-16.3V29.4C105.1,29.4,107.7,12.8,74.5,12.8z M57.9,22.4
	c3,0,5.4,2.4,5.4,5.4c0,0,0,0,0,0c0,3-2.4,5.4-5.4,5.4c0,0,0,0,0,0c-3,0-5.4-2.4-5.4-5.4c0,0,0,0,0,0C52.4,24.9,54.8,22.4,57.9,22.4
	C57.8,22.4,57.8,22.4,57.9,22.4z"/>
<linearGradient id="SVGID_2_" gradientUnits="userSpaceOnUse" x1="-0.3156" y1="150.3045" x2="-0.2797" y2="150.2705" gradientTransform="matrix(1849.2671 0 0 -1853.3918 645.8789 278636.8438)">
	<stop  offset="0" style="stop-color:#FFE052"/>
	<stop  offset="1" style="stop-color:#FFC331"/>
</linearGradient>
<path class="st1" d="M75.5,137.2c31.7,0,29.8-13.8,29.8-13.8l0-14.3H74.9v-4.3h42.3c0,0,20.3,2.3,20.3-29.7
	c0-32-17.7-30.9-17.7-30.9h-10.6v14.9c0,0,0.6,17.7-17.4,17.7h-30c0,0-16.9-0.3-16.9,16.3v27.4C44.9,120.6,42.3,137.2,75.5,137.2
	L75.5,137.2z M92.1,127.6c-3,0-5.4-2.4-5.4-5.4c0,0,0,0,0,0c0-3,2.4-5.4,5.4-5.4c0,0,0,0,0,0c3,0,5.4,2.4,5.4,5.4c0,0,0,0,0,0
	C97.6,125.1,95.2,127.6,92.1,127.6C92.2,127.6,92.2,127.6,92.1,127.6L92.1,127.6z"/>
</svg>
