<?xml version="1.0" encoding="utf-8"?>
<!-- Generator: Adobe Illustrator 25.0.0, SVG Export Plug-In . SVG Version: 6.00 Build 0)  -->
<svg version="1.1" id="Capa_1" xmlns="http://www.w3.org/2000/svg" xmlns:xlink="http://www.w3.org/1999/xlink" x="0px" y="0px"
	 viewBox="0 0 150 150" style="enable-background:new 0 0 150 150;" xml:space="preserve">
<style type="text/css">
	.st0{fill-rule:evenodd;clip-rule:evenodd;fill:#8993BE;}
	.st1{fill-rule:evenodd;clip-rule:evenodd;fill:#232531;}
</style>
<g>
	<ellipse class="st0" cx="75" cy="75" rx="70" ry="36.4"/>
	<path class="st1" d="M24.7,96.6l7.7-38.8h17.7c7.7,0.5,11.5,4.3,11.5,11c0,11.5-9.1,18.2-17.3,17.7h-8.6l-1.9,10.1H24.7z
		 M37.6,79.3L40,64.9h6.2c3.4,0,5.8,1.4,5.8,4.3c-0.5,8.2-4.3,9.6-8.6,10.1H37.6L37.6,79.3z M59.8,86.5l7.7-38.8h9.1l-1.9,10.1h8.6
		c7.7,0.5,10.5,4.3,9.6,9.1l-3.4,19.7h-9.6l3.4-17.7c0.5-2.4,0.5-3.8-2.9-3.8h-7.2l-4.3,21.6H59.8z M88.9,96.6l7.7-38.8h17.7
		c7.7,0.5,11.5,4.3,11.5,11c0,11.5-9.1,18.2-17.3,17.7h-8.6L98,96.6H88.9z M101.8,79.3l2.4-14.4h6.2c3.4,0,5.8,1.4,5.8,4.3
		c-0.5,8.2-4.3,9.6-8.6,10.1H101.8L101.8,79.3z"/>
</g>
</svg>
