<?xml version="1.0" encoding="utf-8"?>
<!-- Generator: Adobe Illustrator 25.0.0, SVG Export Plug-In . SVG Version: 6.00 Build 0)  -->
<svg version="1.1" id="Capa_1" xmlns="http://www.w3.org/2000/svg" xmlns:xlink="http://www.w3.org/1999/xlink" x="0px" y="0px"
	 viewBox="0 0 150 150" style="enable-background:new 0 0 150 150;" xml:space="preserve">
<style type="text/css">
	.Sombra_x0020_paralela{fill:none;}
	.Neón_x0020_azul_x0020_grueso{fill:none;stroke:#0073BC;stroke-width:10;stroke-linecap:round;stroke-linejoin:round;}
	.Agua_x0020_iluminada{fill:url(#SVGID_1_);stroke:#FFFFFF;stroke-width:0.25;stroke-miterlimit:1;}
	.Resalte_x0020_en_x0020_negro_x0020_{fill:url(#SVGID_2_);stroke:#FFFFFF;stroke-width:0.3629;stroke-miterlimit:1;}
	.Coco_GS{fill-rule:evenodd;clip-rule:evenodd;fill:#FFDD00;}
	.st0{fill:#191B1D;}
	.st1{enable-background:new    ;}
	.st2{fill:#202225;}
	.st3{fill:#282A2E;}
	.st4{fill:#35373C;}
	.st5{clip-path:url(#SVGID_3_);}
	.st6{fill:#DEDEDE;}
	.st7{fill:#CDCDCD;}
	.st8{fill:#B0B4B7;}
	.st9{clip-path:url(#SVGID_4_);fill:#DEDEDE;}
	.st10{fill:#F2F0ED;}
	.st11{fill:#FDB013;}
</style>
<linearGradient id="SVGID_1_" gradientUnits="userSpaceOnUse" x1="0" y1="0" x2="6.123234e-17" y2="-1">
	<stop  offset="0" style="stop-color:#1D59F4"/>
	<stop  offset="0.618" style="stop-color:#2D65EE"/>
	<stop  offset="0.6292" style="stop-color:#3864F3"/>
	<stop  offset="0.9831" style="stop-color:#00DDFC"/>
</linearGradient>
<linearGradient id="SVGID_2_" gradientUnits="userSpaceOnUse" x1="0" y1="0" x2="6.123234e-17" y2="-1">
	<stop  offset="0" style="stop-color:#060606"/>
	<stop  offset="0.618" style="stop-color:#000000"/>
	<stop  offset="0.6292" style="stop-color:#000000"/>
	<stop  offset="0.9831" style="stop-color:#000000"/>
</linearGradient>
<g>
	<g>
		<g>
			<g>
				<path class="st0" d="M115.1,53c19.2,11.1,19.3,29,0.2,40.1c-19.1,11.1-50.1,11.1-69.3,0C26.9,82.1,26.8,64.1,45.9,53
					C64.9,41.9,95.9,41.9,115.1,53z"/>
			</g>
			<g>
				<g class="st1">
					<g>
						<polygon class="st2" points="144,87.9 144,99.6 86.9,132.8 86.9,121.1 						"/>
					</g>
					<g>
						<polygon class="st3" points="86.9,121.1 86.9,132.8 5.8,85.9 5.8,74.2 						"/>
					</g>
				</g>
			</g>
			<path class="st4" d="M126.7,51L97,46.4c6.6,1.4,12.9,3.6,18.2,6.7c19.2,11.1,19.3,29,0.2,40.1s-50.1,11.1-69.3,0
				C26.9,82.1,26.8,64.1,45.9,53c11.8-6.9,28.2-9.5,43.5-7.8l-26.5-4.1L5.8,74.2l81.1,46.8L144,87.9L126.7,51z"/>
			<polygon class="st0" points="34,97 54.4,108.8 54.4,102.3 97.5,77.4 82.8,68.9 38.9,87.7 38.9,94.2 			"/>
			<g>
				<polygon class="st2" points="34.1,90.5 34,97 34,97 38.9,94.2 38.9,87.7 				"/>
			</g>
		</g>
		<g>
			<g>
				<g class="st1">
					<g class="st1">
						<defs>
							<path id="SVGID_5_" class="st1" d="M126.9,65.3l-0.4,8.6c0,6.9-4.6,13.8-13.6,19c-18.2,10.6-47.9,10.6-66.2,0
								c-9.2-5.3-13.8-12.3-13.8-19.3l0.4-8.6c0,7,4.6,14,13.8,19.3c18.3,10.6,48,10.6,66.2,0C122.3,79.1,126.9,72.2,126.9,65.3z"/>
						</defs>
						<use xlink:href="#SVGID_5_"  style="overflow:visible;fill:#1A4B6C;"/>
						<clipPath id="SVGID_3_">
							<use xlink:href="#SVGID_5_"  style="overflow:visible;"/>
						</clipPath>
						<g class="st5">
							<path class="st6" d="M113.3,84.3c-6.1,3.5-13.4,5.9-21.2,7.1c-7.7,1.2-15.8,1.2-23.6,0c-7.9-1.2-15.3-3.5-21.5-7.1
								c-1.3-0.7-2.4-1.5-3.5-2.3l-0.4,8.6c1.1,0.8,2.2,1.5,3.5,2.3c6.2,3.6,13.6,5.9,21.5,7.1c7.7,1.1,15.8,1.1,23.6,0
								c7.8-1.2,15.1-3.5,21.2-7.1c9.1-5.3,13.6-12.1,13.6-19l0.4-8.6C126.9,72.2,122.3,79.1,113.3,84.3z"/>
							<path class="st6" d="M43.6,82.1c-5.2-3.8-8.5-8.1-9.7-12.7c-0.4-1.5-0.6-2.9-0.6-4.4l-0.4,8.6c0,1.5,0.2,2.9,0.6,4.4
								c1.3,4.5,4.5,8.9,9.7,12.7L43.6,82.1z"/>
						</g>
					</g>
					<g>
						<path class="st7" d="M113.1,46c18.3,10.6,18.4,27.8,0.2,38.3c-18.2,10.6-47.9,10.6-66.2,0C28.7,73.7,28.6,56.6,46.9,46
							C65.1,35.4,94.7,35.4,113.1,46z"/>
					</g>
				</g>
			</g>
			<path class="st8" d="M40.1,31.9L40,65.6c0,0.3,0,0.7,0,1c0,0.1,0,0.2,0,0.3c0,0.2,0.1,0.5,0.1,0.7c0,0.1,0,0.3,0.1,0.4
				c0,0.2,0.1,0.4,0.1,0.7c0,0.1,0.1,0.3,0.1,0.4c0,0.1,0,0.2,0.1,0.2c0.1,0.2,0.1,0.4,0.2,0.6c0,0,0,0,0,0c0.1,0.3,0.2,0.6,0.4,1
				c0,0.1,0.1,0.2,0.1,0.2c0.1,0.3,0.3,0.6,0.4,1c0,0,0,0,0,0c0.2,0.3,0.3,0.6,0.5,0.9c0,0.1,0.1,0.1,0.1,0.2
				c0.2,0.3,0.4,0.6,0.6,0.9c0,0,0,0.1,0.1,0.1c0.2,0.3,0.4,0.6,0.6,0.8c0.1,0.1,0.1,0.1,0.2,0.2c0.2,0.3,0.5,0.6,0.8,0.9
				c0,0,0.1,0.1,0.1,0.1c0.2,0.3,0.5,0.5,0.8,0.8c0.1,0.1,0.1,0.1,0.2,0.2c0.3,0.3,0.6,0.6,0.9,0.9c0.1,0.1,0.1,0.1,0.2,0.2
				c0.3,0.2,0.6,0.5,0.9,0.7c0.1,0.1,0.1,0.1,0.2,0.2c0.3,0.2,0.6,0.5,0.9,0.7c0,0,0.1,0,0.1,0.1c0.3,0.2,0.6,0.4,0.9,0.6
				c0.2,0.1,0.3,0.2,0.5,0.3c0.5,0.3,1,0.6,1.5,0.9c0.6,0.3,1.2,0.7,1.8,1c0.2,0.1,0.4,0.2,0.5,0.3c0.5,0.2,0.9,0.5,1.4,0.7
				c0.2,0.1,0.4,0.2,0.5,0.2c0.6,0.3,1.3,0.5,2,0.8c0.1,0,0.1,0,0.2,0.1c0.6,0.2,1.2,0.5,1.9,0.7c0.2,0.1,0.4,0.1,0.6,0.2
				c0.5,0.2,1,0.3,1.6,0.5c0.2,0.1,0.4,0.1,0.6,0.2c0.7,0.2,1.4,0.4,2.1,0.5c0.1,0,0.2,0,0.3,0.1c0.6,0.1,1.3,0.3,1.9,0.4
				c0.2,0,0.4,0.1,0.7,0.1c0.6,0.1,1.1,0.2,1.7,0.3c0.1,0,0.3,0,0.4,0.1c0.1,0,0.1,0,0.2,0c0.7,0.1,1.5,0.2,2.2,0.3
				c0.1,0,0.2,0,0.4,0c0.6,0.1,1.3,0.1,1.9,0.2c0.2,0,0.5,0,0.7,0c0.6,0,1.1,0.1,1.7,0.1c0.2,0,0.4,0,0.6,0c0.8,0,1.5,0,2.3,0
				c0.1,0,0.2,0,0.3,0c0.7,0,1.3,0,2,0c0.2,0,0.5,0,0.7,0c0.6,0,1.1-0.1,1.7-0.1c0.2,0,0.4,0,0.7,0c0.8-0.1,1.5-0.1,2.2-0.2
				c0,0,0.1,0,0.1,0c0.7-0.1,1.4-0.2,2.1-0.3c0.1,0,0.2,0,0.3,0c0.1,0,0.3,0,0.4-0.1c0.5-0.1,1.1-0.2,1.6-0.3c0.2,0,0.4-0.1,0.7-0.1
				c0.7-0.1,1.5-0.3,2.2-0.5c0,0,0,0,0,0c0.7-0.2,1.4-0.3,2.1-0.5c0.2-0.1,0.4-0.1,0.6-0.2c0.5-0.1,1-0.3,1.5-0.5
				c0.2-0.1,0.4-0.1,0.6-0.2c0.7-0.2,1.4-0.5,2-0.7c0,0,0,0,0,0c0.7-0.3,1.3-0.5,1.9-0.8c0.2-0.1,0.4-0.2,0.6-0.3
				c0.5-0.2,0.9-0.4,1.4-0.7c0.2-0.1,0.4-0.2,0.5-0.3c0.6-0.3,1.2-0.6,1.8-1c7.7-4.5,11.5-10.3,11.5-16.2l0.1-33.9H40.1z"/>
			<g>
				<g class="st1">
					<g class="st1">
						<defs>
							<path id="SVGID_7_" class="st1" d="M123.5,30.1l-0.3,27.8c0,6.4-4.2,12.8-12.6,17.7c-16.9,9.8-44.5,9.8-61.5,0
								c-8.6-5-12.9-11.5-12.8-17.9l0.3-27.8c0,6.5,4.3,13,12.8,17.9c17,9.8,44.6,9.8,61.5,0C119.2,42.9,123.4,36.5,123.5,30.1z"/>
						</defs>
						<use xlink:href="#SVGID_7_"  style="overflow:visible;fill:#1A4B6C;"/>
						<clipPath id="SVGID_4_">
							<use xlink:href="#SVGID_7_"  style="overflow:visible;"/>
						</clipPath>
						<path class="st9" d="M110.8,47.8c-5.6,3.3-12.5,5.5-19.7,6.6c-7.2,1.1-14.7,1.1-21.9,0c-7.3-1.1-14.2-3.3-20-6.6
							c-1.2-0.7-2.2-1.4-3.3-2.1l0,0c-4.8-3.5-7.9-7.6-9-11.8c-0.4-1.4-0.6-2.7-0.6-4.1l-0.3,27.8c0,1.4,0.2,2.7,0.6,4.1
							c1.2,4.2,4.2,8.3,9,11.8l0,0c1,0.7,2.1,1.4,3.3,2.1c5.7,3.3,12.7,5.5,20,6.6c7.2,1.1,14.7,1.1,21.9,0c7.2-1.1,14-3.3,19.7-6.6
							c8.4-4.9,12.6-11.3,12.6-17.7l0.3-27.8C123.4,36.5,119.2,42.9,110.8,47.8z"/>
					</g>
					<g>
						<path class="st10" d="M110.6,12.2c17,9.8,17.1,25.8,0.2,35.6c-16.9,9.8-44.5,9.8-61.5,0C32.3,38,32.2,22,49.1,12.2
							C66,2.4,93.6,2.4,110.6,12.2z"/>
					</g>
					<path class="st11" d="M49.1,12.2C32.2,22,32.3,38,49.3,47.8l61.3-35.6C93.6,2.4,66,2.4,49.1,12.2z"/>
				</g>
			</g>
		</g>
		<g>
			<polygon class="st4" points="98.9,29.8 68.4,47.5 62.3,44 92.8,26.4 			"/>
			<polygon class="st4" points="90.7,44.5 77,52.4 70.9,48.9 84.7,41 			"/>
		</g>
	</g>
	<path class="st4" d="M110,69.4c-5.5,3-12,5.1-18.9,6.1c-7.2,1.1-14.7,1.1-21.9,0c-7.3-1.1-14.2-3.3-20-6.6
		c-1.2-0.7-2.2-1.4-3.3-2.1v0c-4.8-3.5-7.9-7.6-9-11.8c-0.4-1.4-0.8-3-0.8-4.3l0,3.2c0,1.4,0.1,2.7,0.5,4.1c1.2,4.2,4.2,8.3,9,11.8
		c1,0.7,2.1,1.4,3.3,2.1c5.7,3.3,12.7,5.5,20,6.6c7.2,1.1,14.7,1.1,21.9,0c7-1.1,13.7-3.2,19.2-6.3V69.4z"/>
	<path class="st4" d="M110,61.2c-5.5,3-12,5.1-18.9,6.1c-7.2,1.1-14.7,1.1-21.9,0c-7.3-1.1-14.2-3.3-20-6.6
		c-1.2-0.7-2.2-1.4-3.3-2.1v0c-4.8-3.5-7.9-7.6-9-11.8c-0.4-1.4-0.7-2.9-0.7-4.2l0,3.4c0,1.4,0,2.5,0.4,3.8c1.2,4.2,4.2,8.3,9,11.8
		c1,0.7,2.1,1.4,3.3,2.1c5.7,3.3,12.7,5.5,20,6.6c7.2,1.1,14.7,1.1,21.9,0c7-1.1,13.7-3.2,19.2-6.3V61.2z"/>
	<path class="st6" d="M74.2,64.1c-0.1,0-0.2,0-0.3,0c-0.1,0-0.1,0.1,0,0.1c0.1,0,0.2,0,0.3,0C74.3,64.3,74.3,64.1,74.2,64.1z"/>
</g>
</svg>
