<?xml version="1.0" encoding="utf-8"?>
<!-- Generator: Adobe Illustrator 25.0.0, SVG Export Plug-In . SVG Version: 6.00 Build 0)  -->
<svg version="1.1" id="Capa_1" xmlns="http://www.w3.org/2000/svg" xmlns:xlink="http://www.w3.org/1999/xlink" x="0px" y="0px"
	 viewBox="0 0 150 150" style="enable-background:new 0 0 150 150;" xml:space="preserve">
<style type="text/css">
	.Sombra_x0020_paralela{fill:none;}
	.Neón_x0020_azul_x0020_grueso{fill:none;stroke:#0073BC;stroke-width:10;stroke-linecap:round;stroke-linejoin:round;}
	.Agua_x0020_iluminada{fill:url(#SVGID_1_);stroke:#FFFFFF;stroke-width:0.25;stroke-miterlimit:1;}
	.Resalte_x0020_en_x0020_negro_x0020_{fill:url(#SVGID_2_);stroke:#FFFFFF;stroke-width:0.3629;stroke-miterlimit:1;}
	.Coco_GS{fill-rule:evenodd;clip-rule:evenodd;fill:#FFDD00;}
	.st0{fill:#DEDEDE;}
	.st1{enable-background:new    ;}
	.st2{fill:#E7A111;}
	.st3{fill:#FDB013;}
	.st4{fill:#FFBB33;}
	.st5{fill:#E7E8E8;}
	.st6{clip-path:url(#SVGID_4_);}
	.st7{fill:#282A2E;}
	.st8{fill:#35373C;}
	.st9{fill:#2E3034;}
</style>
<linearGradient id="SVGID_1_" gradientUnits="userSpaceOnUse" x1="0" y1="0" x2="6.123234e-17" y2="-1">
	<stop  offset="0" style="stop-color:#1D59F4"/>
	<stop  offset="0.618" style="stop-color:#2D65EE"/>
	<stop  offset="0.6292" style="stop-color:#3864F3"/>
	<stop  offset="0.9831" style="stop-color:#00DDFC"/>
</linearGradient>
<linearGradient id="SVGID_2_" gradientUnits="userSpaceOnUse" x1="0" y1="0" x2="6.123234e-17" y2="-1">
	<stop  offset="0" style="stop-color:#060606"/>
	<stop  offset="0.618" style="stop-color:#000000"/>
	<stop  offset="0.6292" style="stop-color:#000000"/>
	<stop  offset="0.9831" style="stop-color:#000000"/>
</linearGradient>
<g>
	<g>
		<g>
			<g>
				<path class="st0" d="M28.9,43.5l0,63.9c0,2.2,1.8,4,4,4c2.2,0,4-1.8,4-4l0-63.9H28.9z"/>
				<path class="st0" d="M71.9,43.5l0,88.7c0,2.2,1.8,4,4,4c2.2,0,4-1.8,4-4l0-88.7H71.9z"/>
			</g>
		</g>
		<g>
			<g>
				<path class="st0" d="M115,43.5l0,63.9c0,2.2,1.8,4,4,4c2.2,0,4-1.8,4-4l0-63.9H115z"/>
				<path class="st0" d="M71.9,46.2l0,88.7c0,2.2,1.8,4,4,4c2.2,0,4-1.8,4-4l0-88.7H71.9z"/>
			</g>
		</g>
		<g>
			<g class="st1">
				<g>
					<polygon class="st2" points="131.9,38.4 131.8,69.4 76,101.9 76.1,70.9 					"/>
				</g>
				<g>
					<polygon class="st3" points="76.1,70.9 76,101.9 19.9,69.4 19.9,38.4 					"/>
				</g>
				<g>
					<polygon class="st4" points="131.9,38.4 76.1,70.9 19.9,38.4 75.8,6 					"/>
				</g>
				<g>
					<polygon class="st5" points="81.6,13.3 32.9,41.5 27.6,38.4 76.3,10.3 					"/>
					<polygon class="st5" points="78.4,41.6 55.7,54.7 42.5,47 65.2,33.9 					"/>
					<polygon class="st5" points="62.9,32.7 40.3,45.8 35,42.7 57.7,29.6 					"/>
					<polygon class="st5" points="89,17.6 66.3,30.7 61,27.7 83.7,14.6 					"/>
					<polygon class="st5" points="96.4,22 73.7,35 68.5,32 91.2,18.9 					"/>
					<polygon class="st5" points="104.4,26.6 81.7,39.7 76.5,36.6 99.2,23.5 					"/>
				</g>
			</g>
		</g>
	</g>
	<g>
		<g>
			<g class="st1">
				<g class="st1">
					<defs>
						<path id="SVGID_3_" class="st1" d="M122.9,26.3l0,12.7c0,2-1.3,4-3.9,5.5c-5.2,3-13.8,3-19,0c-2.7-1.5-4-3.5-4-5.6l0-12.7
							c0,2,1.3,4,4,5.6c5.3,3,13.8,3,19,0C121.6,30.3,122.9,28.3,122.9,26.3z"/>
					</defs>
					<use xlink:href="#SVGID_3_"  style="overflow:visible;fill:#7E3529;"/>
					<clipPath id="SVGID_4_">
						<use xlink:href="#SVGID_3_"  style="overflow:visible;"/>
					</clipPath>
					<g class="st6">
						<path class="st7" d="M119,31.8c-1.7,1-3.9,1.7-6.1,2c-2.2,0.3-4.6,0.3-6.8,0c-2.3-0.3-4.4-1-6.2-2c-0.4-0.2-0.7-0.4-1-0.6
							l0,12.7c0.3,0.2,0.6,0.4,1,0.6c1.8,1,3.9,1.7,6.2,2c2.2,0.3,4.6,0.3,6.8,0c2.2-0.3,4.3-1,6.1-2c2.6-1.5,3.9-3.5,3.9-5.5
							l0-12.7C122.9,28.3,121.6,30.3,119,31.8z"/>
						<path class="st7" d="M99,31.1c-1.5-1.1-2.4-2.3-2.8-3.6c-0.1-0.4-0.2-0.8-0.2-1.3l0,12.7c0,0.4,0.1,0.8,0.2,1.3
							c0.4,1.3,1.3,2.6,2.8,3.6L99,31.1z"/>
					</g>
				</g>
				<g>
					<path class="st8" d="M119,20.8c5.3,3,5.3,8,0.1,11c-5.2,3-13.8,3-19,0c-5.3-3-5.3-8-0.1-11C105.2,17.7,113.7,17.7,119,20.8z"/>
				</g>
				<g>
					<path class="st9" d="M116.2,22.4c3.7,2.1,3.7,5.6,0,7.8c-3.7,2.1-9.7,2.1-13.4,0c-3.7-2.1-3.7-5.6,0-7.8
						C106.4,20.2,112.4,20.2,116.2,22.4z"/>
				</g>
				<g>
					<path class="st7" d="M118.9,27.1c-0.3-1.1-1.2-2.2-2.7-3.1c-3.7-2.1-9.7-2.1-13.4,0c-1.5,0.9-2.4,2-2.7,3.1
						c-0.4-1.6,0.5-3.4,2.7-4.6c3.7-2.1,9.7-2.1,13.4,0C118.4,23.7,119.3,25.4,118.9,27.1z"/>
				</g>
			</g>
		</g>
		<path class="st9" d="M107.8,34c-0.6,0-1.1-0.1-1.7-0.2c-2.3-0.3-4.4-1-6.2-2c-0.4-0.2-0.7-0.4-1-0.6l0,12.7c0.3,0.2,0.6,0.4,1,0.6
			c1.8,1,3.9,1.7,6.2,2c0.6,0.1,1.1,0.1,1.7,0.2V34z"/>
	</g>
	<g>
		<polygon class="st5" points="71.6,74 71.6,88.2 24.3,60.9 24.4,46.8 		"/>
	</g>
</g>
</svg>
