<?xml version="1.0" encoding="utf-8"?>
<!-- Generator: Adobe Illustrator 25.0.0, SVG Export Plug-In . SVG Version: 6.00 Build 0)  -->
<svg version="1.1" id="Capa_1" xmlns="http://www.w3.org/2000/svg" xmlns:xlink="http://www.w3.org/1999/xlink" x="0px" y="0px"
	 viewBox="0 0 150 150" style="enable-background:new 0 0 150 150;" xml:space="preserve">
<style type="text/css">
	.Sombra_x0020_paralela{fill:none;}
	.Neón_x0020_azul_x0020_grueso{fill:none;stroke:#0073BC;stroke-width:10;stroke-linecap:round;stroke-linejoin:round;}
	.Agua_x0020_iluminada{fill:url(#SVGID_1_);stroke:#FFFFFF;stroke-width:0.25;stroke-miterlimit:1;}
	.Resalte_x0020_en_x0020_negro_x0020_{fill:url(#SVGID_2_);stroke:#FFFFFF;stroke-width:0.3629;stroke-miterlimit:1;}
	.Coco_GS{fill-rule:evenodd;clip-rule:evenodd;fill:#FFDD00;}
	.st0{enable-background:new    ;}
	.st1{fill:#1B1C1E;}
	.st2{fill:#014040;}
	.st3{fill:#045049;}
	.st4{fill:#0E746B;}
	.st5{fill:#F2F0ED;}
	.st6{fill:#C2C2C2;}
	.st7{fill:#DEDEDE;}
	.st8{fill:#CDCDCD;}
</style>
<linearGradient id="SVGID_1_" gradientUnits="userSpaceOnUse" x1="0" y1="0" x2="6.123234e-17" y2="-1">
	<stop  offset="0" style="stop-color:#1D59F4"/>
	<stop  offset="0.618" style="stop-color:#2D65EE"/>
	<stop  offset="0.6292" style="stop-color:#3864F3"/>
	<stop  offset="0.9831" style="stop-color:#00DDFC"/>
</linearGradient>
<linearGradient id="SVGID_2_" gradientUnits="userSpaceOnUse" x1="0" y1="0" x2="6.123234e-17" y2="-1">
	<stop  offset="0" style="stop-color:#060606"/>
	<stop  offset="0.618" style="stop-color:#000000"/>
	<stop  offset="0.6292" style="stop-color:#000000"/>
	<stop  offset="0.9831" style="stop-color:#000000"/>
</linearGradient>
<g>
	<g>
		<g class="st0">
			<g>
				<polygon class="st1" points="4.9,78.4 4.9,82.2 4.8,70.6 4.8,64.4 				"/>
			</g>
			<g>
				<polygon class="st2" points="145,78.4 145,82.2 87.2,115.8 87.2,112 				"/>
			</g>
			<g>
				<polygon class="st2" points="63.1,112 63,115.8 4.9,82.2 4.9,78.4 				"/>
			</g>
			<g>
				<polygon class="st3" points="87.2,112 87.2,115.8 63,115.8 63.1,112 				"/>
			</g>
			<g>
				<polygon class="st4" points="144.9,64.4 145,78.4 87.2,112 63.1,112 4.9,78.4 4.8,64.4 62.6,30.8 86.7,30.8 				"/>
				<g>
					<path class="st3" d="M64.7,107.8h-0.5L9.1,76L9,66.9l54.7-31.8l21.8,0l55.1,31.8l0.1,9.1L86,107.8L64.7,107.8z M12.5,74
						l52.6,30.4l20,0L137.4,74l0-5.2L84.7,38.5h-20L12.4,68.8L12.5,74z"/>
				</g>
			</g>
		</g>
	</g>
	<g>
		<g>
			<g class="st0">
				<g>
					<polygon class="st5" points="28.3,59.5 28.2,78.3 28.1,55.7 28.1,37 					"/>
				</g>
				<g>
					<polygon class="st6" points="122.1,59.5 122.1,78.2 94.7,94.2 94.7,75.4 					"/>
				</g>
				<g>
					<polygon class="st7" points="55.9,75.4 55.8,94.2 28.2,78.3 28.3,59.5 					"/>
				</g>
				<g>
					<polygon class="st8" points="94.7,75.4 94.7,94.2 55.8,94.2 55.9,75.4 					"/>
				</g>
				<g>
					<polygon class="st5" points="122,37 122.1,59.5 94.7,75.4 55.9,75.4 28.3,59.5 28.1,37 55.5,21.1 94.4,21.1 					"/>
				</g>
			</g>
		</g>
		<polygon class="st6" points="94.2,45.1 104.7,43.5 107.6,37.4 90.3,27.4 79.7,29.1 76.9,35.1 		"/>
		<g>
			<polygon class="st6" points="96.4,58.4 59.7,37.2 67,33 103.6,54.2 			"/>
			<polygon class="st6" points="89.5,62.3 52.9,41.2 57.2,38.7 93.8,59.8 			"/>
			<polygon class="st6" points="74.7,70.9 38,49.8 42.4,47.3 79,68.4 			"/>
			<g>
				<polygon class="st6" points="60.7,54.3 45.5,45.5 49.8,43 65,51.8 				"/>
				<polygon class="st6" points="82.1,66.6 66.8,57.8 71.2,55.3 86.4,64.1 				"/>
			</g>
		</g>
	</g>
</g>
</svg>
