<?xml version="1.0" encoding="utf-8"?>
<!-- Generator: Adobe Illustrator 25.0.0, SVG Export Plug-In . SVG Version: 6.00 Build 0)  -->
<svg version="1.1" id="Capa_1" xmlns="http://www.w3.org/2000/svg" xmlns:xlink="http://www.w3.org/1999/xlink" x="0px" y="0px"
	 viewBox="0 0 150 150" style="enable-background:new 0 0 150 150;" xml:space="preserve">
<style type="text/css">
	.Sombra_x0020_paralela{fill:none;}
	.Neón_x0020_azul_x0020_grueso{fill:none;stroke:#0073BC;stroke-width:10;stroke-linecap:round;stroke-linejoin:round;}
	.Agua_x0020_iluminada{fill:url(#SVGID_1_);stroke:#FFFFFF;stroke-width:0.25;stroke-miterlimit:1;}
	.Resalte_x0020_en_x0020_negro_x0020_{fill:url(#SVGID_2_);stroke:#FFFFFF;stroke-width:0.3629;stroke-miterlimit:1;}
	.Coco_GS{fill-rule:evenodd;clip-rule:evenodd;fill:#FFDD00;}
	.st0{fill:#322F34;}
	.st1{enable-background:new    ;}
	.st2{clip-path:url(#SVGID_3_);}
	.st3{fill:#CDCDCD;}
	.st4{fill:#DEDEDE;}
	.st5{clip-path:url(#SVGID_4_);}
	.st6{fill:#F2F0ED;}
	.st7{clip-path:url(#SVGID_5_);}
	.st8{clip-path:url(#SVGID_6_);}
	.st9{clip-path:url(#SVGID_7_);}
	.st10{clip-path:url(#SVGID_8_);}
</style>
<linearGradient id="SVGID_1_" gradientUnits="userSpaceOnUse" x1="0" y1="0" x2="6.123234e-17" y2="-1">
	<stop  offset="0" style="stop-color:#1D59F4"/>
	<stop  offset="0.618" style="stop-color:#2D65EE"/>
	<stop  offset="0.6292" style="stop-color:#3864F3"/>
	<stop  offset="0.9831" style="stop-color:#00DDFC"/>
</linearGradient>
<linearGradient id="SVGID_2_" gradientUnits="userSpaceOnUse" x1="0" y1="0" x2="6.123234e-17" y2="-1">
	<stop  offset="0" style="stop-color:#060606"/>
	<stop  offset="0.618" style="stop-color:#000000"/>
	<stop  offset="0.6292" style="stop-color:#000000"/>
	<stop  offset="0.9831" style="stop-color:#000000"/>
</linearGradient>
<g>
	<path class="st0" d="M104.3,136.3L104.3,136.3c-1.9,0-3.5-1.6-3.5-3.5l0-56.2c0-15.8-11.6-35.8-25.2-43.7l-12.2-7
		c-6-3.5-11.6-4.1-15.5-1.9c-4,2.3-6.2,7.4-6.2,14.4l0,56.2c0,1.9-1.6,3.5-3.5,3.5l0,0c-1.9,0-3.5-1.6-3.5-3.5l0-56.2
		c0-9.6,3.4-16.9,9.7-20.5c6.3-3.6,14.3-3,22.6,1.9l12.2,7c15.9,9.2,28.8,31.5,28.8,49.8l0,56.2
		C107.8,134.8,106.2,136.3,104.3,136.3z"/>
	<g>
		<g>
			<g class="st1">
				<g class="st1">
					<defs>
						<path id="SVGID_13_" class="st1" d="M20.7,57.4l0-8.8c0,4.2,2.8,8.5,8.3,11.7l0,8.8C23.4,65.9,20.7,61.6,20.7,57.4z"/>
					</defs>
					<clipPath id="SVGID_3_">
						<use xlink:href="#SVGID_13_"  style="overflow:visible;"/>
					</clipPath>
					<g class="st2">
						<path class="st3" d="M29,60.3l0,8.8c-5.6-3.2-8.3-7.5-8.3-11.7l0-8.8C20.7,52.9,23.5,57.1,29,60.3L29,60.3z"/>
					</g>
				</g>
				<g>
					<polygon class="st4" points="82.8,91.3 82.8,100.1 29,69.1 29,60.3 					"/>
				</g>
				<g class="st1">
					<defs>
						<path id="SVGID_15_" class="st1" d="M131.1,79.8l0,8.8c0,4.2-2.7,8.4-8.2,11.5c-11,6.4-29,6.4-40.1,0l0-8.8
							c11.1,6.4,29.1,6.4,40.1,0C128.3,88.2,131.1,84,131.1,79.8z"/>
					</defs>
					<clipPath id="SVGID_4_">
						<use xlink:href="#SVGID_15_"  style="overflow:visible;"/>
					</clipPath>
					<g class="st5">
						<path class="st3" d="M131.1,79.8l0,8.8c0,4.2-2.7,8.4-8.2,11.5c-11,6.4-29,6.4-40.1,0l0-8.8c11.1,6.4,29.1,6.4,40.1,0
							C128.3,88.2,131.1,84,131.1,79.8L131.1,79.8z"/>
					</g>
				</g>
				<g>
					<path class="st6" d="M122.7,68.1c11.1,6.4,11.1,16.8,0.1,23.2c-11,6.4-29,6.4-40.1,0L29,60.3C18,53.9,17.9,43.5,28.9,37.1
						c11-6.4,29-6.4,40.1,0L122.7,68.1z"/>
				</g>
			</g>
		</g>
		<g>
			<g class="st1">
				<g class="st1">
					<defs>
						<path id="SVGID_17_" class="st1" d="M23.1,48.3l0-4.9c0,4.1,2.6,8.1,8,11.2l0,4.9C25.7,56.4,23.1,52.3,23.1,48.3z"/>
					</defs>
					<clipPath id="SVGID_5_">
						<use xlink:href="#SVGID_17_"  style="overflow:visible;"/>
					</clipPath>
					<g class="st7">
						<path class="st3" d="M31.1,54.5l0,4.9c-5.3-3.1-8-7.1-8-11.2l0-4.9C23.1,47.4,25.8,51.5,31.1,54.5L31.1,54.5z"/>
					</g>
				</g>
				<g>
					<polygon class="st4" points="82.5,84.2 82.5,89.1 31.1,59.5 31.1,54.5 					"/>
				</g>
				<g class="st1">
					<defs>
						<path id="SVGID_19_" class="st1" d="M128.7,73.2l0,4.9c0,4-2.6,8-7.8,11c-10.5,6.1-27.8,6.1-38.3,0l0-4.9
							c10.6,6.1,27.8,6.1,38.3,0C126,81.2,128.7,77.2,128.7,73.2z"/>
					</defs>
					<clipPath id="SVGID_6_">
						<use xlink:href="#SVGID_19_"  style="overflow:visible;"/>
					</clipPath>
					<g class="st8">
						<path class="st3" d="M128.7,73.2l0,4.9c0,4-2.6,8-7.8,11c-10.5,6.1-27.8,6.1-38.3,0l0-4.9c10.6,6.1,27.8,6.1,38.3,0
							C126,81.2,128.7,77.2,128.7,73.2L128.7,73.2z"/>
					</g>
				</g>
				<g>
					<path class="st6" d="M120.7,62c10.6,6.1,10.6,16.1,0.1,22.2c-10.5,6.1-27.8,6.1-38.3,0L31.1,54.5C20.5,48.4,20.5,38.4,31,32.3
						c10.5-6.1,27.8-6.1,38.3,0L120.7,62z"/>
				</g>
			</g>
		</g>
		<g>
			<g>
				<g class="st1">
					<g class="st1">
						<defs>
							<path id="SVGID_21_" class="st1" d="M29.6,43.9l0.1-26.4c0,2.7,1.8,5.5,5.4,7.5l-0.1,26.4C31.3,49.4,29.5,46.6,29.6,43.9z"/>
						</defs>
						<clipPath id="SVGID_7_">
							<use xlink:href="#SVGID_21_"  style="overflow:visible;"/>
						</clipPath>
						<g class="st9">
							<path class="st3" d="M35,25.1l-0.1,26.4c-3.6-2.1-5.4-4.8-5.4-7.5l0.1-26.4C29.6,20.3,31.4,23,35,25.1L35,25.1z"/>
						</g>
					</g>
					<g>
						<polygon class="st4" points="88.8,56.1 88.7,82.5 34.9,51.5 35,25.1 						"/>
					</g>
					<g class="st1">
						<defs>
							<path id="SVGID_23_" class="st1" d="M119.9,48.7L119.8,75c0,2.7-1.8,5.4-5.3,7.4c-7.1,4.1-18.7,4.1-25.9,0l0.1-26.4
								c7.2,4.1,18.8,4.1,25.9,0C118.1,54,119.9,51.4,119.9,48.7z"/>
						</defs>
						<clipPath id="SVGID_8_">
							<use xlink:href="#SVGID_23_"  style="overflow:visible;"/>
						</clipPath>
						<g class="st10">
							<path class="st3" d="M119.9,48.7L119.8,75c0,2.7-1.8,5.4-5.3,7.4c-7.1,4.1-18.7,4.1-25.9,0l0.1-26.4c7.2,4.1,18.8,4.1,25.9,0
								C118.1,54,119.9,51.4,119.9,48.7L119.9,48.7z"/>
						</g>
					</g>
					<g>
						<path class="st6" d="M114.5,41.1c7.2,4.1,7.2,10.9,0.1,15c-7.1,4.1-18.7,4.1-25.9,0L35,25.1c-7.2-4.1-7.2-10.8-0.1-15
							C42,6,53.6,6,60.8,10.1L114.5,41.1z"/>
					</g>
				</g>
			</g>
			<g>
				<polygon class="st3" points="43.2,21.1 38.4,18.4 50.4,11.4 55.2,14.2 				"/>
				<polygon class="st3" points="54.5,27.7 45.8,22.6 57.8,15.7 66.6,20.7 				"/>
				<polygon class="st3" points="62.2,32.1 57.8,29.6 69.9,22.6 74.2,25.2 				"/>
				<polygon class="st3" points="96.6,51.9 64.6,33.5 76.7,26.6 108.6,45 				"/>
			</g>
		</g>
	</g>
</g>
</svg>
