<?xml version="1.0" encoding="utf-8"?>
<!-- Generator: Adobe Illustrator 25.0.0, SVG Export Plug-In . SVG Version: 6.00 Build 0)  -->
<svg version="1.1" id="Capa_1" xmlns="http://www.w3.org/2000/svg" xmlns:xlink="http://www.w3.org/1999/xlink" x="0px" y="0px"
	 viewBox="0 0 150 150" style="enable-background:new 0 0 150 150;" xml:space="preserve">
<style type="text/css">
	.st0{fill:#FF2D20;}
</style>
<path class="st0" d="M135.6,40.8c0,0.2,0.1,0.3,0.1,0.5v26.8c0,0.7-0.4,1.3-1,1.7l-22.5,13v25.7c0,0.7-0.4,1.3-1,1.7l-47,27.1
	c-0.1,0.1-0.2,0.1-0.3,0.1c0,0-0.1,0-0.1,0.1c-0.3,0.1-0.7,0.1-1,0c-0.1,0-0.1,0-0.2-0.1c-0.1,0-0.2-0.1-0.3-0.1l-47-27.1
	c-0.6-0.3-1-1-1-1.7V28c0-0.2,0-0.3,0.1-0.5c0-0.1,0-0.1,0.1-0.2c0-0.1,0.1-0.2,0.1-0.3c0-0.1,0.1-0.1,0.1-0.2
	c0.1-0.1,0.1-0.2,0.2-0.2c0.1-0.1,0.1-0.1,0.2-0.1c0.1-0.1,0.1-0.1,0.2-0.2h0l23.5-13.5c0.6-0.3,1.4-0.3,2,0l23.5,13.5h0
	c0.1,0,0.1,0.1,0.2,0.2c0.1,0,0.1,0.1,0.2,0.1c0.1,0.1,0.1,0.2,0.2,0.2c0,0.1,0.1,0.1,0.1,0.2c0.1,0.1,0.1,0.2,0.1,0.3
	c0,0.1,0.1,0.1,0.1,0.2c0,0.2,0.1,0.3,0.1,0.5v50.3L84.8,67V41.3c0-0.2,0-0.3,0.1-0.5c0-0.1,0-0.1,0.1-0.2c0-0.1,0.1-0.2,0.1-0.3
	c0-0.1,0.1-0.1,0.1-0.2c0.1-0.1,0.1-0.2,0.2-0.2c0.1-0.1,0.1-0.1,0.2-0.1c0.1-0.1,0.1-0.1,0.2-0.2h0l23.5-13.5c0.6-0.3,1.4-0.3,2,0
	l23.5,13.5c0.1,0,0.1,0.1,0.2,0.2c0.1,0,0.1,0.1,0.2,0.1c0.1,0.1,0.1,0.2,0.2,0.2c0,0.1,0.1,0.1,0.1,0.2c0.1,0.1,0.1,0.2,0.1,0.3
	C135.6,40.7,135.6,40.7,135.6,40.8L135.6,40.8z M131.8,67V44.7l-8.2,4.7L112.2,56v22.3L131.8,67L131.8,67z M108.3,107.3V85
	l-11.2,6.4l-31.9,18.2v22.5L108.3,107.3z M18.2,31.4v76l43.1,24.8v-22.5L38.8,96.9l0,0l0,0c-0.1,0-0.1-0.1-0.2-0.2
	c-0.1,0-0.1-0.1-0.2-0.1l0,0c-0.1-0.1-0.1-0.1-0.2-0.2c0-0.1-0.1-0.1-0.1-0.2l0,0c0-0.1-0.1-0.2-0.1-0.2c0-0.1-0.1-0.1-0.1-0.2v0
	c0-0.1,0-0.2,0-0.3c0-0.1,0-0.1,0-0.2V42.7l-11.4-6.5L18.2,31.4L18.2,31.4z M39.7,16.7L20.2,28l19.6,11.3L59.3,28L39.7,16.7
	L39.7,16.7z M49.9,87.1l11.4-6.5V31.4l-8.2,4.7l-11.4,6.5v49.1L49.9,87.1z M110.3,30L90.7,41.3l19.6,11.3l19.6-11.3L110.3,30z
	 M108.3,56l-11.4-6.5l-8.2-4.7V67l11.4,6.5l8.2,4.7V56z M63.2,106.2L92,89.8l14.4-8.2L86.8,70.4l-22.5,13L43.7,95.2L63.2,106.2z"/>
</svg>
