<?xml version="1.0" encoding="utf-8"?>
<!-- Generator: Adobe Illustrator 25.0.0, SVG Export Plug-In . SVG Version: 6.00 Build 0)  -->
<svg version="1.1" id="Capa_1" xmlns="http://www.w3.org/2000/svg" xmlns:xlink="http://www.w3.org/1999/xlink" x="0px" y="0px"
	 viewBox="0 0 150 150" style="enable-background:new 0 0 150 150;" xml:space="preserve">
<style type="text/css">
	.Sombra_x0020_paralela{fill:none;}
	.Neón_x0020_azul_x0020_grueso{fill:none;stroke:#0073BC;stroke-width:10;stroke-linecap:round;stroke-linejoin:round;}
	.Agua_x0020_iluminada{fill:url(#SVGID_1_);stroke:#FFFFFF;stroke-width:0.25;stroke-miterlimit:1;}
	.Resalte_x0020_en_x0020_negro_x0020_{fill:url(#SVGID_2_);stroke:#FFFFFF;stroke-width:0.3629;stroke-miterlimit:1;}
	.Coco_GS{fill-rule:evenodd;clip-rule:evenodd;fill:#FFDD00;}
	.st0{fill:#DEDEDE;}
	.st1{enable-background:new    ;}
	.st2{clip-path:url(#SVGID_3_);enable-background:new    ;}
	.st3{fill:#2D9DD5;}
	.st4{fill:#1774A2;}
	.st5{clip-path:url(#SVGID_4_);enable-background:new    ;}
	.st6{fill:#1E8AC2;}
</style>
<linearGradient id="SVGID_1_" gradientUnits="userSpaceOnUse" x1="0" y1="0" x2="6.123234e-17" y2="-1">
	<stop  offset="0" style="stop-color:#1D59F4"/>
	<stop  offset="0.618" style="stop-color:#2D65EE"/>
	<stop  offset="0.6292" style="stop-color:#3864F3"/>
	<stop  offset="0.9831" style="stop-color:#00DDFC"/>
</linearGradient>
<linearGradient id="SVGID_2_" gradientUnits="userSpaceOnUse" x1="0" y1="0" x2="6.123234e-17" y2="-1">
	<stop  offset="0" style="stop-color:#060606"/>
	<stop  offset="0.618" style="stop-color:#000000"/>
	<stop  offset="0.6292" style="stop-color:#000000"/>
	<stop  offset="0.9831" style="stop-color:#000000"/>
</linearGradient>
<g>
	<g>
		<g>
			<path class="st0" d="M88.1,144.1c-1.3,0-2.4-1.1-2.4-2.4l0-78.8c0-6.5-4.7-14.6-10.3-17.9l-5.2-3c-2.3-1.3-4.3-1.6-5.7-0.8
				c-1.4,0.8-2.2,2.8-2.2,5.4l0,78.8c0,1.3-1.1,2.4-2.4,2.4l0,0c-1.3,0-2.4-1.1-2.4-2.4l0-78.8c0-4.4,1.6-7.8,4.6-9.5
				c3-1.7,6.7-1.4,10.5,0.8l5.2,3c7.1,4.1,12.7,13.8,12.7,22l0,78.8C90.5,143,89.4,144.1,88.1,144.1z"/>
		</g>
		<g>
			<g class="st1">
				<g>
					<defs>
						<path id="SVGID_5_" d="M65.1,4.4l-11.9,6.9c3.8-2.2,9.1-1.9,14.9,1.4L80,5.9C74.2,2.5,68.9,2.2,65.1,4.4z"/>
					</defs>
					<use xlink:href="#SVGID_5_"  style="overflow:visible;fill:#2D9DD5;"/>
					<clipPath id="SVGID_3_">
						<use xlink:href="#SVGID_5_"  style="overflow:visible;"/>
					</clipPath>
					<g class="st2">
						<path class="st3" d="M68.1,12.8L80,5.9c-5.8-3.4-11.1-3.6-14.9-1.4l-11.9,6.9C57,9.1,62.3,9.4,68.1,12.8L68.1,12.8z"/>
					</g>
				</g>
				<g>
					<polygon class="st4" points="94.8,80.2 106.7,73.3 106.8,45.5 94.9,52.4 					"/>
				</g>
				<g>
					<polygon class="st3" points="74,16.2 85.9,9.3 80,5.9 68.1,12.8 					"/>
				</g>
				<g>
					<defs>
						<path id="SVGID_7_" d="M94.9,52.4l11.9-6.9c0-13.3-9.4-29.6-20.9-36.2L74,16.2C85.5,22.9,94.9,39.2,94.9,52.4z"/>
					</defs>
					<use xlink:href="#SVGID_7_"  style="overflow:visible;fill:#2D9DD5;"/>
					<clipPath id="SVGID_4_">
						<use xlink:href="#SVGID_7_"  style="overflow:visible;"/>
					</clipPath>
					<g class="st5">
						<path class="st3" d="M94.9,52.4l11.9-6.9c0-13.3-9.4-29.6-20.9-36.2L74,16.2C85.5,22.9,94.9,39.2,94.9,52.4L94.9,52.4z"/>
					</g>
				</g>
				<g>
					<path class="st6" d="M68.1,12.8c-11.5-6.7-21-1.3-21,12l-0.1,27.8l47.9,27.6l0.1-27.8c0-13.3-9.4-29.6-20.9-36.2L68.1,12.8z"/>
				</g>
			</g>
		</g>
	</g>
	<g>
		<polygon class="st0" points="66,42.5 51.3,34 51.3,23.4 66,31.8 		"/>
		<polygon class="st0" points="86.5,54.3 71.8,45.8 71.8,35.2 86.5,43.7 		"/>
		<polygon class="st0" points="86.7,68.8 51.3,48.4 51.3,37.8 86.7,58.2 		"/>
	</g>
</g>
</svg>
