<?xml version="1.0" encoding="utf-8"?>
<!-- Generator: Adobe Illustrator 25.0.0, SVG Export Plug-In . SVG Version: 6.00 Build 0)  -->
<svg version="1.1" id="Capa_1" xmlns="http://www.w3.org/2000/svg" xmlns:xlink="http://www.w3.org/1999/xlink" x="0px" y="0px"
	 viewBox="0 0 150 150" style="enable-background:new 0 0 150 150;" xml:space="preserve">
<style type="text/css">
	.Sombra_x0020_paralela{fill:none;}
	.Neón_x0020_azul_x0020_grueso{fill:none;stroke:#0073BC;stroke-width:10;stroke-linecap:round;stroke-linejoin:round;}
	.Agua_x0020_iluminada{fill:url(#SVGID_1_);stroke:#FFFFFF;stroke-width:0.25;stroke-miterlimit:1;}
	.Resalte_x0020_en_x0020_negro_x0020_{fill:url(#SVGID_2_);stroke:#FFFFFF;stroke-width:0.3629;stroke-miterlimit:1;}
	.Coco_GS{fill-rule:evenodd;clip-rule:evenodd;fill:#FFDD00;}
	.st0{enable-background:new    ;}
	.st1{fill:#E7E8E8;}
	.st2{fill:#DEDEDE;}
	.st3{fill:#E4E2DF;}
	.st4{fill:#282A2E;}
	.st5{fill:#1A1B1C;}
	.st6{fill:#35373C;}
	.st7{fill:#202225;}
	.st8{fill:#CDCDCD;}
	.st9{fill:#F2F0ED;}
	.st10{fill:#FB6767;}
</style>
<linearGradient id="SVGID_1_" gradientUnits="userSpaceOnUse" x1="0" y1="0" x2="6.123234e-17" y2="-1">
	<stop  offset="0" style="stop-color:#1D59F4"/>
	<stop  offset="0.618" style="stop-color:#2D65EE"/>
	<stop  offset="0.6292" style="stop-color:#3864F3"/>
	<stop  offset="0.9831" style="stop-color:#00DDFC"/>
</linearGradient>
<linearGradient id="SVGID_2_" gradientUnits="userSpaceOnUse" x1="0" y1="0" x2="6.123234e-17" y2="-1">
	<stop  offset="0" style="stop-color:#060606"/>
	<stop  offset="0.618" style="stop-color:#000000"/>
	<stop  offset="0.6292" style="stop-color:#000000"/>
	<stop  offset="0.9831" style="stop-color:#000000"/>
</linearGradient>
<g>
	<g>
		<g>
			<g class="st0">
				<g>
					<polygon class="st1" points="67.2,143.6 65.5,142.6 65.4,117.2 67.1,118.1 					"/>
				</g>
				<g>
					<polygon class="st1" points="69.5,116.7 67.8,115.8 67.8,111.5 69.4,112.5 					"/>
				</g>
				<g>
					<polygon class="st1" points="67.1,118.1 65.4,117.2 65.4,112.9 67.1,113.9 					"/>
				</g>
				<g>
					<polygon class="st2" points="69.4,112.5 69.5,116.7 69.6,142.2 67.2,143.6 67.1,118.1 67.1,113.9 					"/>
				</g>
				<g>
					<polygon class="st3" points="67.1,113.9 65.4,112.9 67.8,111.5 69.4,112.5 					"/>
				</g>
				<g>
					<polygon class="st3" points="64.5,90.3 62.9,89.3 70.2,85.1 71.8,86.1 					"/>
				</g>
				<g>
					<polygon class="st1" points="64.6,117.9 63,116.9 62.9,89.3 64.5,90.3 					"/>
				</g>
				<g>
					<polygon class="st2" points="71.8,86.1 71.9,113.7 69.5,116.7 69.4,112.5 67.1,113.9 67.1,118.1 64.6,117.9 64.5,90.3 					"/>
				</g>
			</g>
		</g>
		<g>
			<g class="st0">
				<g>
					<polygon class="st1" points="84.1,133.7 82.5,132.8 82.3,107.3 84,108.3 					"/>
				</g>
				<g>
					<polygon class="st1" points="86.4,106.9 84.7,106 84.7,101.7 86.4,102.7 					"/>
				</g>
				<g>
					<polygon class="st1" points="84,108.3 82.3,107.3 82.3,103.1 84,104 					"/>
				</g>
				<g>
					<polygon class="st2" points="86.4,102.7 86.4,106.9 86.5,132.4 84.1,133.7 84,108.3 84,104 					"/>
				</g>
				<g>
					<polygon class="st3" points="84,104 82.3,103.1 84.7,101.7 86.4,102.7 					"/>
				</g>
				<g>
					<polygon class="st3" points="81.4,80.5 79.8,79.5 87.1,75.3 88.7,76.2 					"/>
				</g>
				<g>
					<polygon class="st1" points="81.5,108.1 79.9,107.1 79.8,79.5 81.4,80.5 					"/>
				</g>
				<g>
					<polygon class="st2" points="88.7,76.2 88.8,103.9 86.4,106.9 86.4,102.7 84,104 84,108.3 81.5,108.1 81.4,80.5 					"/>
				</g>
			</g>
		</g>
		<g>
			<g class="st0">
				<g>
					<polygon class="st1" points="98.9,125.1 97.3,124.2 97.2,98.7 98.8,99.7 					"/>
				</g>
				<g>
					<polygon class="st1" points="101.2,98.3 99.6,97.3 99.5,93.1 101.2,94 					"/>
				</g>
				<g>
					<polygon class="st1" points="98.8,99.7 97.2,98.7 97.2,94.5 98.8,95.4 					"/>
				</g>
				<g>
					<polygon class="st2" points="101.2,94 101.2,98.3 101.3,123.7 98.9,125.1 98.8,99.7 98.8,95.4 					"/>
				</g>
				<g>
					<polygon class="st3" points="98.8,95.4 97.2,94.5 99.5,93.1 101.2,94 					"/>
				</g>
				<g>
					<polygon class="st3" points="96.3,71.8 94.6,70.9 101.9,66.7 103.6,67.6 					"/>
				</g>
				<g>
					<polygon class="st1" points="96.4,99.5 94.7,98.5 94.6,70.9 96.3,71.8 					"/>
				</g>
				<g>
					<polygon class="st2" points="103.6,67.6 103.7,95.3 101.2,98.3 101.2,94 98.8,95.4 98.8,99.7 96.4,99.5 96.3,71.8 					"/>
				</g>
			</g>
		</g>
		<g>
			<g class="st0">
				<g>
					<polygon class="st4" points="58.5,109.3 44.2,101 44.1,46.8 58.4,55.1 					"/>
				</g>
				<g>
					<polygon class="st5" points="52,51.4 49.4,49.9 49.4,104 52,105.5 					"/>
				</g>
				<g>
					<polygon class="st6" points="58.4,55.1 44.1,46.8 91.3,19.6 105.5,27.9 					"/>
				</g>
				<g>
					<polygon class="st4" points="52,51.4 49.4,49.9 96.6,22.7 99.1,24.2 					"/>
				</g>
				<g>
					<polygon class="st7" points="105.5,27.9 105.7,82.1 58.5,109.3 58.4,55.1 					"/>
				</g>
			</g>
		</g>
		<g>
			<g class="st0">
				<g class="st0">
					<g>
						<path class="st8" d="M61.8,30.2l-2.1-1.2c1.7,1,4.7,0.6,8.1-1.4l2.1,1.2C66.4,30.7,63.5,31.2,61.8,30.2L61.8,30.2z"/>
					</g>
					<path class="st8" d="M77.9,13.2L75.7,12c0.9,0.6,1.5,1.5,1.5,2.9c0,3.9-4.3,9.6-9.5,12.6c-3.4,2-6.4,2.4-8.1,1.4l2.1,1.2
						c1.7,1,4.7,0.6,8.1-1.4c5.3-3,9.6-8.7,9.5-12.6C79.4,14.8,78.8,13.8,77.9,13.2z"/>
				</g>
				<g>
					<polygon class="st9" points="69.8,5.2 67.6,4 91.3,4.3 93.4,5.5 					"/>
				</g>
				<g>
					<polygon class="st9" points="46.2,32.7 44.1,31.5 67.6,4 69.8,5.2 					"/>
				</g>
				<g>
					<polygon class="st1" points="46.3,48.1 44.1,46.9 44.1,31.5 46.2,32.7 					"/>
				</g>
				<g>
					<path class="st2" d="M69.8,5.2l23.6,0.3l0,15.4L46.3,48.1l0-15.4L69.8,5.2z M69.8,28.8c5.3-3,9.6-8.7,9.5-12.6
						c0-3.9-4.3-4.6-9.6-1.6c-5.3,3-9.6,8.7-9.5,12.6C60.3,31.1,64.6,31.8,69.8,28.8L69.8,28.8z"/>
				</g>
			</g>
		</g>
	</g>
	<g>
		<polygon class="st10" points="99.7,38 99.8,43 64.4,63.5 64.3,58.5 		"/>
	</g>
	<g>
		<polygon class="st10" points="99.7,46.8 99.8,51.8 64.4,72.2 64.3,67.2 		"/>
	</g>
	<g>
		<polygon class="st10" points="99.7,55.9 99.8,60.9 64.4,81.3 64.3,76.3 		"/>
	</g>
</g>
</svg>
