<?xml version="1.0" encoding="utf-8"?>
<!-- Generator: Adobe Illustrator 25.0.0, SVG Export Plug-In . SVG Version: 6.00 Build 0)  -->
<svg version="1.1" id="Capa_1" xmlns="http://www.w3.org/2000/svg" xmlns:xlink="http://www.w3.org/1999/xlink" x="0px" y="0px"
	 viewBox="0 0 150 150" style="enable-background:new 0 0 150 150;" xml:space="preserve">
<style type="text/css">
	.st0{enable-background:new    ;}
	.st1{fill:#B5B0A0;}
	.st2{fill:#D6CFBF;}
	.st3{fill:#343135;}
	.st4{fill:#3C373D;}
	.st5{fill:#464047;}
	.st6{fill:#E5E1D6;}
	.st7{opacity:0.3;fill:#D6CFBF;}
</style>
<g>
	<g>
		<g>
			<g>
				<g>
					<g>
						<g class="st0">
							<g>
								<polygon class="st1" points="88.3,73.1 86.5,72.1 86.5,124.8 88.3,125.8 								"/>
							</g>
							<g>
								<polygon class="st2" points="88.3,73 88.3,125.8 90.2,124.7 90.2,71.8 								"/>
							</g>
						</g>
					</g>
					<g>
						<g class="st0">
							<g>
								<polygon class="st1" points="72.9,82 71.1,81 71.1,133.7 72.9,134.7 								"/>
							</g>
							<g>
								<polygon class="st2" points="72.9,81.8 72.9,134.7 74.8,133.6 74.8,80.7 								"/>
							</g>
						</g>
					</g>
					<g>
						<g class="st0">
							<g>
								<polygon class="st1" points="57.5,90.9 55.7,89.8 55.7,142.6 57.5,143.6 								"/>
							</g>
							<g>
								<polygon class="st2" points="57.5,90.7 57.5,143.6 59.4,142.5 59.4,89.6 								"/>
							</g>
						</g>
					</g>
				</g>
				<g id="Axonometric_Cube_14_">
					<polygon id="Cube_face_-_left_157_" class="st3" points="62.4,106.7 50.8,100 50.8,57.7 96.1,44.9 					"/>
					<polygon id="Cube_face_-_right_157_" class="st4" points="98.2,86.1 62.4,106.7 62.4,64.4 98.2,43.7 					"/>
					<polygon id="Cube_face_-_top_157_" class="st5" points="62.4,64.4 50.8,57.7 86.5,37 98.2,43.7 					"/>
				</g>
			</g>
			<g class="st0">
				<path class="st1" d="M74.1,19.5l-1.7-1c1,0.6,1.6,1.7,1.6,3.4c0,3.4-2.4,7.5-5.3,9.2c-1.5,0.9-2.8,0.9-3.8,0.4l1.7,1
					c1,0.6,2.3,0.5,3.8-0.4c3-1.7,5.3-5.8,5.3-9.2C75.6,21.2,75,20,74.1,19.5z"/>
				<g>
					<polygon class="st1" points="52.5,58.6 50.8,57.6 50.7,29.5 52.4,30.5 					"/>
				</g>
				<path class="st6" d="M85.4,6.6c-0.6-0.4-1.5-0.3-2.5,0.2L54.1,23.5c-1.9,1.1-3.5,3.8-3.5,6l1.7,1c0-2.2,1.6-4.9,3.5-6L84.7,7.9
					c1-0.6,1.8-0.6,2.5-0.2L85.4,6.6z"/>
				<g>
					<path class="st2" d="M84.7,7.9c1.9-1.1,3.5-0.2,3.5,2L88.2,38L52.5,58.6l-0.1-28.1c0-2.2,1.6-4.9,3.5-6L84.7,7.9z M70.3,32.1
						c3-1.7,5.3-5.8,5.3-9.2c0-3.4-2.4-4.8-5.4-3.1c-3,1.7-5.3,5.8-5.3,9.2C64.9,32.5,67.3,33.9,70.3,32.1L70.3,32.1z"/>
				</g>
			</g>
		</g>
	</g>
	<path class="st7" d="M90.1,63.3L69.7,75.1v-2.9l20.5-11.8V63.3z M81.9,72.1l-12.3,7.1v2.9L81.9,75V72.1z M91.3,73.7L69.7,86.2v2.9
		l21.6-12.5V73.7z"/>
</g>
</svg>
