<?xml version="1.0" encoding="utf-8"?>
<!-- Generator: Adobe Illustrator 25.0.0, SVG Export Plug-In . SVG Version: 6.00 Build 0)  -->
<svg version="1.1" id="Capa_1" xmlns="http://www.w3.org/2000/svg" xmlns:xlink="http://www.w3.org/1999/xlink" x="0px" y="0px"
	 viewBox="0 0 150 150" style="enable-background:new 0 0 150 150;" xml:space="preserve">
<style type="text/css">
	.st0{fill:#CDAD66;}
	.st1{fill:#E09200;}
	.st2{fill:#FFE66B;}
	.st3{fill:#1C1A1A;}
	.st4{fill:#484246;}
</style>
<g>
	<g>
		<g>
			<polygon class="st0" points="65.7,45.4 65.7,41.4 63.8,40.4 63.8,44.3 			"/>
			<polygon class="st1" points="65.7,41.4 66.6,37.9 63.2,35.9 63.8,40.4 			"/>
			<polygon class="st1" points="65.7,45.4 65.7,41.4 63.8,40.4 65.1,45.7 			"/>
			<polygon class="st1" points="66.6,37.9 66.8,34.1 63.4,32.1 63.2,35.9 			"/>
			<polygon class="st0" points="65.1,45.7 65.1,41.7 63.2,40.7 63.3,44.6 			"/>
			<polygon class="st0" points="65.1,41.7 66.1,38.2 62.6,36.3 63.2,40.7 			"/>
			<polygon class="st0" points="66.1,38.2 66.3,34.4 62.8,32.4 62.6,36.3 			"/>
			<polygon class="st1" points="59.9,39.3 66.6,35.5 66.5,34.1 63.4,33.3 56.5,36.1 56.5,37.3 			"/>
			<polygon class="st2" points="59.9,38.1 66.8,34.1 63.4,32.1 56.5,36.1 			"/>
		</g>
		<g>
			<polygon class="st0" points="76.5,51.6 76.5,47.7 74.6,46.6 74.6,50.6 			"/>
			<polygon class="st1" points="76.5,47.7 77.4,44.2 74,42.2 74.6,46.6 			"/>
			<polygon class="st1" points="76.5,51.6 76.5,47.7 74.6,46.6 75.9,51.9 			"/>
			<polygon class="st1" points="77.4,44.2 77.7,40.4 74.2,38.4 74,42.2 			"/>
			<polygon class="st0" points="75.9,51.9 75.9,48 74,46.9 74.1,50.9 			"/>
			<polygon class="st0" points="75.9,48 76.9,44.5 73.4,42.5 74,46.9 			"/>
			<polygon class="st0" points="76.9,44.5 77.1,40.7 73.7,38.7 73.4,42.5 			"/>
			<polygon class="st1" points="70.7,45.5 77.4,41.7 77.3,40.4 74.2,39.5 67.3,42.4 67.3,43.5 			"/>
			<polygon class="st2" points="70.7,44.3 77.7,40.4 74.2,38.4 67.3,42.4 			"/>
		</g>
		<g>
			<polygon class="st0" points="87.3,57.9 87.3,53.9 85.4,52.8 85.4,56.8 			"/>
			<polygon class="st1" points="87.3,53.9 88.2,50.4 84.8,48.4 85.4,52.8 			"/>
			<polygon class="st1" points="87.3,57.9 87.3,53.9 85.4,52.8 86.7,58.2 			"/>
			<polygon class="st1" points="88.2,50.4 88.5,46.6 85,44.6 84.8,48.4 			"/>
			<polygon class="st0" points="86.7,58.2 86.7,54.2 84.9,53.1 84.9,57.1 			"/>
			<polygon class="st0" points="86.7,54.2 87.7,50.7 84.2,48.7 84.9,53.1 			"/>
			<polygon class="st0" points="87.7,50.7 87.9,46.9 84.5,44.9 84.2,48.7 			"/>
			<polygon class="st1" points="81.5,51.8 88.2,47.9 88.1,46.6 85,45.8 78.1,48.6 78.1,49.8 			"/>
			<polygon class="st2" points="81.5,50.6 88.5,46.6 85,44.6 78.1,48.6 			"/>
		</g>
		<g>
			<polygon class="st0" points="98.1,64.1 98.1,60.2 96.2,59.1 96.2,63 			"/>
			<polygon class="st1" points="98.1,60.2 99,56.7 95.6,54.7 96.2,59.1 			"/>
			<polygon class="st1" points="98.1,64.1 98.1,60.2 96.2,59.1 97.5,64.4 			"/>
			<polygon class="st1" points="99,56.7 99.3,52.8 95.8,50.8 95.6,54.7 			"/>
			<polygon class="st0" points="97.5,64.4 97.5,60.5 95.7,59.4 95.7,63.3 			"/>
			<polygon class="st0" points="97.5,60.5 98.5,57 95,55 95.7,59.4 			"/>
			<polygon class="st0" points="98.5,57 98.7,53.1 95.3,51.1 95,55 			"/>
			<polygon class="st1" points="92.3,58 99,54.2 98.9,52.9 95.8,52 88.9,54.8 88.9,56 			"/>
			<polygon class="st2" points="92.3,56.8 99.3,52.8 95.8,50.8 88.9,54.8 			"/>
		</g>
		<g>
			<polygon class="st0" points="108.9,70.4 108.9,66.4 107,65.3 107,69.3 			"/>
			<polygon class="st1" points="108.9,66.4 109.8,62.9 106.4,60.9 107,65.3 			"/>
			<polygon class="st1" points="108.9,70.4 108.9,66.4 107,65.3 108.3,70.7 			"/>
			<polygon class="st1" points="109.8,62.9 110.1,59.1 106.6,57.1 106.4,60.9 			"/>
			<polygon class="st0" points="108.3,70.7 108.3,66.7 106.5,65.6 106.5,69.6 			"/>
			<polygon class="st0" points="108.3,66.7 109.3,63.2 105.8,61.2 106.5,65.6 			"/>
			<polygon class="st0" points="109.3,63.2 109.5,59.4 106.1,57.4 105.8,61.2 			"/>
			<polygon class="st1" points="103.2,64.2 109.8,60.4 109.7,59.1 106.6,58.3 99.7,61.1 99.7,62.3 			"/>
			<polygon class="st2" points="103.2,63.1 110.1,59.1 106.6,57.1 99.7,61.1 			"/>
		</g>
		<g>
			<polygon class="st0" points="119.7,76.6 119.7,72.6 117.8,71.5 117.8,75.5 			"/>
			<polygon class="st1" points="119.7,72.6 120.7,69.1 117.2,67.1 117.8,71.5 			"/>
			<polygon class="st1" points="119.7,76.6 119.7,72.6 117.8,71.5 119.2,76.9 			"/>
			<polygon class="st1" points="120.7,69.1 120.9,65.3 117.4,63.3 117.2,67.1 			"/>
			<polygon class="st0" points="119.2,76.9 119.1,72.9 117.3,71.9 117.3,75.8 			"/>
			<polygon class="st0" points="119.1,72.9 120.1,69.4 116.7,67.4 117.3,71.9 			"/>
			<polygon class="st0" points="120.1,69.4 120.3,65.6 116.9,63.6 116.7,67.4 			"/>
			<polygon class="st1" points="114,70.5 120.6,66.7 120.5,65.3 117.4,64.5 110.5,67.3 110.5,68.5 			"/>
			<polygon class="st2" points="114,69.3 120.9,65.3 117.4,63.3 110.5,67.3 			"/>
		</g>
		<g>
			<polygon class="st0" points="130.5,82.8 130.5,78.9 128.6,77.8 128.7,81.8 			"/>
			<polygon class="st1" points="130.5,78.9 131.5,75.4 128,73.4 128.6,77.8 			"/>
			<polygon class="st1" points="130.5,82.8 130.5,78.9 128.6,77.8 130,83.1 			"/>
			<polygon class="st1" points="131.5,75.4 131.7,71.5 128.2,69.6 128,73.4 			"/>
			<polygon class="st0" points="130,83.1 129.9,79.2 128.1,78.1 128.1,82.1 			"/>
			<polygon class="st0" points="129.9,79.2 130.9,75.7 127.5,73.7 128.1,78.1 			"/>
			<polygon class="st0" points="130.9,75.7 131.1,71.9 127.7,69.9 127.5,73.7 			"/>
			<polygon class="st1" points="124.8,76.7 131.4,72.9 131.3,71.6 128.2,70.7 121.3,73.6 121.3,74.7 			"/>
			<polygon class="st2" points="124.8,75.5 131.7,71.5 128.2,69.6 121.3,73.6 			"/>
		</g>
		<g>
			<polygon class="st0" points="141.3,89.1 141.3,85.1 139.4,84 139.5,88 			"/>
			<polygon class="st1" points="141.3,85.1 142.3,81.6 138.8,79.6 139.4,84 			"/>
			<polygon class="st1" points="141.3,89.1 141.3,85.1 139.4,84 140.8,89.4 			"/>
			<polygon class="st1" points="142.3,81.6 142.5,77.8 139.1,75.8 138.8,79.6 			"/>
			<polygon class="st0" points="140.8,89.4 140.8,85.4 138.9,84.3 138.9,88.3 			"/>
			<polygon class="st0" points="140.8,85.4 141.7,81.9 138.3,79.9 138.9,84.3 			"/>
			<polygon class="st0" points="141.7,81.9 141.9,78.1 138.5,76.1 138.3,79.9 			"/>
			<polygon class="st1" points="135.6,83 142.2,79.1 142.1,77.8 139.1,77 132.1,79.8 132.1,81 			"/>
			<polygon class="st2" points="135.6,81.8 142.5,77.8 139.1,75.8 132.1,79.8 			"/>
		</g>
	</g>
	<polygon class="st3" points="100.1,114.4 8.2,61.4 8.2,51.2 138.3,82.2 138.3,92.4 	"/>
	<polygon class="st4" points="100.1,104.3 8.2,51.2 46.4,29.2 138.3,82.2 	"/>
	<g>
		<g>
			<polygon class="st1" points="12.3,69.6 12.5,65.8 8.3,63.6 8.1,67.4 			"/>
			<polygon class="st1" points="10.6,76.8 10.6,72.9 8.7,71.8 10,77.1 			"/>
			<polygon class="st1" points="10.6,72.9 12.3,69.6 8.1,67.4 8.7,71.8 			"/>
			<polygon class="st1" points="11.2,67 18.1,63 18.1,61.9 7.7,65 			"/>
			<polygon class="st2" points="11.2,65.8 18.1,61.9 14.7,59.9 7.7,63.9 			"/>
			<polygon class="st0" points="10.9,69.7 11.2,65.8 7.7,63.9 7.5,67.7 			"/>
			<polygon class="st0" points="10,77.1 10,73.2 8.1,72.1 8.1,76.1 			"/>
			<polygon class="st0" points="10,73.2 10.9,69.7 7.5,67.7 8.1,72.1 			"/>
		</g>
		<g>
			<polygon class="st1" points="23.1,75.8 23.3,72 19.1,69.8 18.9,73.6 			"/>
			<polygon class="st1" points="21.4,83.1 21.4,79.1 19.5,78 20.8,83.4 			"/>
			<polygon class="st1" points="21.4,79.1 23.1,75.8 18.9,73.6 19.5,78 			"/>
			<polygon class="st1" points="22,73.3 28.9,69.3 28.9,68.1 18.5,71.3 			"/>
			<polygon class="st2" points="22,72.1 28.9,68.1 25.5,66.1 18.5,70.1 			"/>
			<polygon class="st0" points="21.8,75.9 22,72.1 18.5,70.1 18.3,73.9 			"/>
			<polygon class="st0" points="20.8,83.4 20.8,79.4 18.9,78.3 18.9,82.3 			"/>
			<polygon class="st0" points="20.8,79.4 21.8,75.9 18.3,73.9 18.9,78.3 			"/>
		</g>
		<g>
			<polygon class="st1" points="33.9,82.1 34.1,78.2 29.9,76 29.7,79.9 			"/>
			<polygon class="st1" points="32.2,89.3 32.2,85.3 30.3,84.3 31.6,89.6 			"/>
			<polygon class="st1" points="32.2,85.3 33.9,82.1 29.7,79.9 30.3,84.3 			"/>
			<polygon class="st1" points="32.8,79.5 39.7,75.5 39.7,74.3 29.3,77.5 			"/>
			<polygon class="st2" points="32.8,78.3 39.7,74.3 36.3,72.3 29.3,76.3 			"/>
			<polygon class="st0" points="32.6,82.1 32.8,78.3 29.3,76.3 29.1,80.2 			"/>
			<polygon class="st0" points="31.6,89.6 31.6,85.6 29.7,84.6 29.8,88.5 			"/>
			<polygon class="st0" points="31.6,85.6 32.6,82.1 29.1,80.2 29.7,84.6 			"/>
		</g>
		<g>
			<polygon class="st1" points="44.7,88.3 44.9,84.5 40.7,82.3 40.5,86.1 			"/>
			<polygon class="st1" points="43,95.5 43,91.6 41.1,90.5 42.4,95.8 			"/>
			<polygon class="st1" points="43,91.6 44.7,88.3 40.5,86.1 41.1,90.5 			"/>
			<polygon class="st1" points="43.6,85.7 50.5,81.7 50.5,80.6 40.2,83.8 			"/>
			<polygon class="st2" points="43.6,84.6 50.5,80.6 47.1,78.6 40.2,82.6 			"/>
			<polygon class="st0" points="43.4,88.4 43.6,84.6 40.2,82.6 39.9,86.4 			"/>
			<polygon class="st0" points="42.4,95.8 42.4,91.9 40.5,90.8 40.6,94.8 			"/>
			<polygon class="st0" points="42.4,91.9 43.4,88.4 39.9,86.4 40.5,90.8 			"/>
		</g>
		<g>
			<polygon class="st1" points="55.5,94.5 55.8,90.7 51.5,88.5 51.3,92.3 			"/>
			<polygon class="st1" points="53.8,101.8 53.8,97.8 51.9,96.7 53.2,102.1 			"/>
			<polygon class="st1" points="53.8,97.8 55.5,94.5 51.3,92.3 51.9,96.7 			"/>
			<polygon class="st1" points="54.4,92 61.3,88 61.3,86.8 51,90 			"/>
			<polygon class="st2" points="54.4,90.8 61.3,86.8 57.9,84.8 51,88.8 			"/>
			<polygon class="st0" points="54.2,94.6 54.4,90.8 51,88.8 50.7,92.6 			"/>
			<polygon class="st0" points="53.2,102.1 53.2,98.1 51.3,97 51.4,101 			"/>
			<polygon class="st0" points="53.2,98.1 54.2,94.6 50.7,92.6 51.3,97 			"/>
		</g>
		<g>
			<polygon class="st1" points="66.3,100.8 66.6,97 62.3,94.8 62.1,98.6 			"/>
			<polygon class="st1" points="64.6,108 64.6,104.1 62.7,103 64,108.3 			"/>
			<polygon class="st1" points="64.6,104.1 66.3,100.8 62.1,98.6 62.7,103 			"/>
			<polygon class="st1" points="65.2,98.2 72.1,94.2 72.1,93 61.8,96.2 			"/>
			<polygon class="st2" points="65.2,97 72.1,93 68.7,91.1 61.8,95.1 			"/>
			<polygon class="st0" points="65,100.9 65.2,97 61.8,95.1 61.5,98.9 			"/>
			<polygon class="st0" points="64,108.3 64,104.4 62.2,103.3 62.2,107.2 			"/>
			<polygon class="st0" points="64,104.4 65,100.9 61.5,98.9 62.2,103.3 			"/>
		</g>
		<g>
			<polygon class="st1" points="77.1,107 77.4,103.2 73.1,101 72.9,104.8 			"/>
			<polygon class="st1" points="75.4,114.3 75.4,110.3 73.5,109.2 74.8,114.6 			"/>
			<polygon class="st1" points="75.4,110.3 77.1,107 72.9,104.8 73.5,109.2 			"/>
			<polygon class="st1" points="76,104.5 82.9,100.5 82.9,99.3 72.6,102.5 			"/>
			<polygon class="st2" points="76,103.3 82.9,99.3 79.5,97.3 72.6,101.3 			"/>
			<polygon class="st0" points="75.8,107.1 76,103.3 72.6,101.3 72.3,105.1 			"/>
			<polygon class="st0" points="74.8,114.6 74.8,110.6 73,109.5 73,113.5 			"/>
			<polygon class="st0" points="74.8,110.6 75.8,107.1 72.3,105.1 73,109.5 			"/>
		</g>
		<g>
			<polygon class="st1" points="87.9,113.3 88.2,109.4 83.9,107.2 83.7,111 			"/>
			<polygon class="st1" points="86.2,120.5 86.2,116.5 84.3,115.5 85.7,120.8 			"/>
			<polygon class="st1" points="86.2,116.5 87.9,113.3 83.7,111 84.3,115.5 			"/>
			<polygon class="st1" points="86.8,110.7 93.7,106.7 93.7,105.5 83.4,108.7 			"/>
			<polygon class="st2" points="86.8,109.5 93.7,105.5 90.3,103.5 83.4,107.5 			"/>
			<polygon class="st0" points="86.6,113.3 86.8,109.5 83.4,107.5 83.2,111.4 			"/>
			<polygon class="st0" points="85.7,120.8 85.6,116.8 83.8,115.8 83.8,119.7 			"/>
			<polygon class="st0" points="85.6,116.8 86.6,113.3 83.2,111.4 83.8,115.8 			"/>
		</g>
	</g>
</g>
</svg>
