<?xml version="1.0" encoding="utf-8"?>
<!-- Generator: Adobe Illustrator 25.0.0, SVG Export Plug-In . SVG Version: 6.00 Build 0)  -->
<svg version="1.1" id="Capa_1" xmlns="http://www.w3.org/2000/svg" xmlns:xlink="http://www.w3.org/1999/xlink" x="0px" y="0px"
	 viewBox="0 0 150 150" style="enable-background:new 0 0 150 150;" xml:space="preserve">
<style type="text/css">
	.st0{enable-background:new    ;}
	.st1{clip-path:url(#SVGID_1_);enable-background:new    ;}
	.st2{fill:#232528;}
	.st3{clip-path:url(#SVGID_2_);enable-background:new    ;}
	.st4{clip-path:url(#SVGID_3_);enable-background:new    ;}
	.st5{fill:#1E1F22;}
	.st6{clip-path:url(#SVGID_4_);enable-background:new    ;}
	.st7{fill:#35373C;}
	.st8{clip-path:url(#SVGID_5_);enable-background:new    ;}
	.st9{clip-path:url(#SVGID_6_);enable-background:new    ;}
	.st10{clip-path:url(#SVGID_7_);enable-background:new    ;}
	.st11{clip-path:url(#SVGID_8_);enable-background:new    ;}
	.st12{fill:#CDCDCD;}
	.st13{fill:#DEDEDE;}
	.st14{fill:#F2F0ED;}
	.st15{fill:#CBCBCB;}
	.st16{fill:#B5B5B5;}
	.st17{fill:#EEEEEE;}
	.st18{fill:#45464A;}
	.st19{fill:#282A2E;}
	.st20{fill:#787878;}
	.st21{fill:#989898;}
	.st22{clip-path:url(#SVGID_12_);enable-background:new    ;}
	.st23{fill:#652C22;}
	.st24{clip-path:url(#SVGID_18_);enable-background:new    ;}
	.st25{fill:#7E3529;}
	.st26{clip-path:url(#SVGID_24_);enable-background:new    ;}
	.st27{fill:#5D4036;}
	.st28{fill:#AB4433;}
	.st29{fill:#0D0F0E;}
	.st30{fill:#FFFFFF;}
	.st31{fill:#4A4E57;}
	.st32{fill:#393C41;}
	.st33{fill:#1B2029;}
</style>
<g>
	<g>
		<g class="st0">
			<g class="st0">
				<defs>
					<path id="SVGID_35_" class="st0" d="M30,82.3l0.9,0.5c-0.5-0.3-1.1-0.2-1.8,0.2l-0.9-0.5C28.9,82.1,29.5,82,30,82.3z"/>
				</defs>
				<clipPath id="SVGID_1_">
					<use xlink:href="#SVGID_35_"  style="overflow:visible;"/>
				</clipPath>
				<g class="st1">
					<path class="st2" d="M29,83l-0.9-0.5c0.7-0.4,1.3-0.4,1.8-0.2l0.9,0.5C30.4,82.5,29.7,82.6,29,83L29,83z"/>
				</g>
			</g>
			<g class="st0">
				<defs>
					<path id="SVGID_37_" class="st0" d="M23,87.2l0.9,0.5c0.3,0.2,0.4,0.5,0.4,1c0,1-0.7,2.1-1.5,2.6l-0.9-0.5
						c0.8-0.5,1.5-1.7,1.5-2.6C23.4,87.7,23.3,87.3,23,87.2z"/>
				</defs>
				<clipPath id="SVGID_2_">
					<use xlink:href="#SVGID_37_"  style="overflow:visible;"/>
				</clipPath>
				<g class="st3">
					<path class="st2" d="M22.8,91.3l-0.9-0.5c0.8-0.5,1.5-1.7,1.5-2.6c0-0.5-0.2-0.8-0.4-1l0.9,0.5c0.3,0.2,0.4,0.5,0.4,1
						C24.3,89.6,23.6,90.8,22.8,91.3L22.8,91.3z"/>
				</g>
			</g>
			<g class="st0">
				<defs>
					<path id="SVGID_39_" class="st0" d="M21.7,91.4l-0.9-0.5c0.3,0.2,0.7,0.1,1.1-0.1l0.9,0.5C22.4,91.5,22,91.5,21.7,91.4z"/>
				</defs>
				<clipPath id="SVGID_3_">
					<use xlink:href="#SVGID_39_"  style="overflow:visible;"/>
				</clipPath>
				<g class="st4">
					<path class="st2" d="M21.7,91.4l-0.9-0.5c0.3,0.2,0.7,0.1,1.1-0.1l0.9,0.5C22.4,91.5,22,91.5,21.7,91.4L21.7,91.4z"/>
				</g>
			</g>
			<g>
				<polygon class="st5" points="22.8,86.6 21.9,86.1 28.2,82.5 29,83 				"/>
			</g>
			<g class="st0">
				<defs>
					<path id="SVGID_41_" class="st0" d="M21,92.6l-0.9-0.5c-0.5-0.3-0.7-0.8-0.7-1.6c0-1.6,1.1-3.6,2.5-4.4l0.9,0.5
						c-1.4,0.8-2.5,2.8-2.5,4.4C20.3,91.8,20.5,92.3,21,92.6z"/>
				</defs>
				<clipPath id="SVGID_4_">
					<use xlink:href="#SVGID_41_"  style="overflow:visible;"/>
				</clipPath>
				<g class="st6">
					<path class="st2" d="M21,92.6l-0.9-0.5c-0.5-0.3-0.7-0.8-0.7-1.6c0-1.6,1.1-3.6,2.5-4.4l0.9,0.5c-1.4,0.8-2.5,2.8-2.5,4.4
						C20.3,91.8,20.5,92.3,21,92.6L21,92.6z"/>
				</g>
			</g>
			<g>
				<path class="st7" d="M29,83c1.4-0.8,2.5-0.2,2.5,1.4c0,1.6-1.1,3.6-2.5,4.4l-6.3,3.6c-1.4,0.8-2.5,0.2-2.5-1.4
					c0-1.6,1.1-3.6,2.5-4.4L29,83z M22.8,91.3c0.8-0.5,1.5-1.7,1.5-2.6c0-1-0.7-1.3-1.5-0.9c-0.8,0.5-1.5,1.7-1.5,2.6
					C21.3,91.4,21.9,91.7,22.8,91.3L22.8,91.3z"/>
			</g>
		</g>
	</g>
	<g>
		<g class="st0">
			<g class="st0">
				<defs>
					<path id="SVGID_43_" class="st0" d="M30,35.8l0.9,0.5c-0.5-0.3-1.1-0.2-1.8,0.2L28.2,36C28.9,35.6,29.5,35.5,30,35.8z"/>
				</defs>
				<clipPath id="SVGID_5_">
					<use xlink:href="#SVGID_43_"  style="overflow:visible;"/>
				</clipPath>
				<g class="st8">
					<path class="st2" d="M29,36.5L28.2,36c0.7-0.4,1.3-0.4,1.8-0.2l0.9,0.5C30.4,36,29.7,36.1,29,36.5L29,36.5z"/>
				</g>
			</g>
			<g class="st0">
				<defs>
					<path id="SVGID_45_" class="st0" d="M23,40.7l0.9,0.5c0.3,0.2,0.4,0.5,0.4,1c0,1-0.7,2.1-1.5,2.6l-0.9-0.5
						c0.8-0.5,1.5-1.7,1.5-2.6C23.4,41.1,23.3,40.8,23,40.7z"/>
				</defs>
				<clipPath id="SVGID_6_">
					<use xlink:href="#SVGID_45_"  style="overflow:visible;"/>
				</clipPath>
				<g class="st9">
					<path class="st2" d="M22.8,44.7l-0.9-0.5c0.8-0.5,1.5-1.7,1.5-2.6c0-0.5-0.2-0.8-0.4-1l0.9,0.5c0.3,0.2,0.4,0.5,0.4,1
						C24.3,43.1,23.6,44.3,22.8,44.7L22.8,44.7z"/>
				</g>
			</g>
			<g class="st0">
				<defs>
					<path id="SVGID_47_" class="st0" d="M21.7,44.8l-0.9-0.5c0.3,0.2,0.7,0.1,1.1-0.1l0.9,0.5C22.4,45,22,45,21.7,44.8z"/>
				</defs>
				<clipPath id="SVGID_7_">
					<use xlink:href="#SVGID_47_"  style="overflow:visible;"/>
				</clipPath>
				<g class="st10">
					<path class="st2" d="M21.7,44.8l-0.9-0.5c0.3,0.2,0.7,0.1,1.1-0.1l0.9,0.5C22.4,45,22,45,21.7,44.8L21.7,44.8z"/>
				</g>
			</g>
			<g>
				<polygon class="st5" points="22.8,40.1 21.9,39.6 28.2,36 29,36.5 				"/>
			</g>
			<g class="st0">
				<defs>
					<path id="SVGID_49_" class="st0" d="M21,46.1l-0.9-0.5c-0.5-0.3-0.7-0.8-0.7-1.6c0-1.6,1.1-3.6,2.5-4.4l0.9,0.5
						c-1.4,0.8-2.5,2.8-2.5,4.4C20.3,45.2,20.5,45.8,21,46.1z"/>
				</defs>
				<clipPath id="SVGID_8_">
					<use xlink:href="#SVGID_49_"  style="overflow:visible;"/>
				</clipPath>
				<g class="st11">
					<path class="st2" d="M21,46.1l-0.9-0.5c-0.5-0.3-0.7-0.8-0.7-1.6c0-1.6,1.1-3.6,2.5-4.4l0.9,0.5c-1.4,0.8-2.5,2.8-2.5,4.4
						C20.3,45.2,20.5,45.8,21,46.1L21,46.1z"/>
				</g>
			</g>
			<g>
				<path class="st7" d="M29,36.5c1.4-0.8,2.5-0.2,2.5,1.4c0,1.6-1.1,3.6-2.5,4.4l-6.3,3.6c-1.4,0.8-2.5,0.2-2.5-1.4
					c0-1.6,1.1-3.6,2.5-4.4L29,36.5z M22.8,44.7c0.8-0.5,1.5-1.7,1.5-2.6c0-1-0.7-1.3-1.5-0.9c-0.8,0.5-1.5,1.7-1.5,2.6
					C21.3,44.8,21.9,45.2,22.8,44.7L22.8,44.7z"/>
			</g>
		</g>
	</g>
	<g class="st0">
		<g class="st0">
			<path class="st12" d="M78.7,75l0,1.4c-0.6-0.3-1.3-0.6-2.1-0.6l0-1.4C77.4,74.4,78.1,74.6,78.7,75L78.7,75z"/>
			<path class="st12" d="M76.6,74.3l0,1.4c-0.7-0.1-1.3-0.1-2,0.1l0-1.4C75.3,74.3,76,74.3,76.6,74.3L76.6,74.3z"/>
			<path class="st13" d="M74.7,74.4l0,1.4c-0.6,0.1-1.2,0.3-1.6,0.6c-0.2,0.1-0.4,0.3-0.6,0.4l0-1.4c0.2-0.1,0.3-0.3,0.6-0.4
				C73.5,74.7,74.1,74.5,74.7,74.4L74.7,74.4z"/>
			<path class="st12" d="M72.5,75.4l0,1.4c-0.4,0.3-0.6,0.7-0.6,1.1l0-1.4C71.9,76.1,72.1,75.7,72.5,75.4L72.5,75.4z"/>
			<path class="st12" d="M71.9,76.5l0,1.4c0,0.1,0,0.1,0,0.2l0-1.4C71.9,76.6,71.9,76.5,71.9,76.5L71.9,76.5z"/>
		</g>
		<g>
			<path class="st12" d="M84.6,79.4l0,1.4c0-0.6-0.4-1.2-1.2-1.7l0-1.4C84.2,78.2,84.6,78.8,84.6,79.4L84.6,79.4z"/>
		</g>
		<g class="st0">
			<path class="st12" d="M124.1,101.2l0,1.4c-0.6-0.3-1.3-0.6-2.1-0.6l0-1.4C122.8,100.6,123.5,100.8,124.1,101.2L124.1,101.2z"/>
			<path class="st12" d="M122,100.5l0,1.4c-0.7-0.1-1.3-0.1-2,0.1l0-1.4C120.7,100.5,121.4,100.5,122,100.5L122,100.5z"/>
			<path class="st13" d="M120.1,100.6l0,1.4c-0.6,0.1-1.2,0.3-1.6,0.6c-0.2,0.1-0.4,0.3-0.6,0.4l0-1.4c0.2-0.1,0.3-0.3,0.6-0.4
				C118.9,100.9,119.4,100.7,120.1,100.6L120.1,100.6z"/>
			<path class="st12" d="M117.9,101.6l0,1.4c-0.4,0.3-0.6,0.7-0.6,1.1l0-1.4C117.3,102.3,117.5,101.9,117.9,101.6L117.9,101.6z"/>
			<path class="st12" d="M117.3,102.7l0,1.4c0,0.1,0,0.1,0,0.2l0-1.4C117.2,102.8,117.2,102.7,117.3,102.7L117.3,102.7z"/>
		</g>
		<g class="st0">
			<g>
				<path class="st12" d="M130,105.6l0,1.4c0-0.6-0.4-1.2-1.2-1.7l0-1.4C129.6,104.4,130,105,130,105.6L130,105.6z"/>
			</g>
			<g>
				<path class="st12" d="M83.4,77.7L78.7,75c-1.6-0.9-4.1-0.9-5.7,0c-0.8,0.5-1.2,1-1.2,1.6l0,1.4c0-0.6,0.4-1.2,1.2-1.6
					c1.6-0.9,4.1-0.9,5.7,0l4.7,2.7c0.8,0.5,1.2,1.1,1.2,1.7l0-1.4C84.6,78.8,84.2,78.2,83.4,77.7z"/>
				<path class="st12" d="M128.8,103.9l-4.7-2.7c-1.6-0.9-4.1-0.9-5.7,0c-0.8,0.5-1.2,1-1.2,1.6l0,1.4c0-0.6,0.4-1.2,1.2-1.6
					c1.6-0.9,4.1-0.9,5.7,0l4.7,2.7c0.8,0.5,1.2,1.1,1.2,1.7l0-1.4C130,105,129.6,104.4,128.8,103.9z"/>
			</g>
		</g>
		<g>
			<polygon class="st12" points="136.4,105.4 136.4,106.8 125.7,113 125.7,111.6 			"/>
		</g>
		<g>
			<path class="st14" d="M76.2,70.6l60.2,34.8l-10.7,6.2L65.5,76.8L76.2,70.6z M123.2,107.2c1.6,0.9,4.1,0.9,5.7,0
				c1.6-0.9,1.6-2.4,0-3.3l-4.7-2.7c-1.6-0.9-4.1-0.9-5.7,0c-1.6,0.9-1.6,2.4,0,3.3L123.2,107.2L123.2,107.2z M77.8,81
				c1.6,0.9,4.1,0.9,5.7,0c1.6-0.9,1.6-2.4,0-3.3L78.7,75c-1.6-0.9-4.1-0.9-5.7,0c-1.6,0.9-1.6,2.4,0,3.3L77.8,81L77.8,81z"/>
		</g>
		<g>
			<polygon class="st13" points="125.7,111.6 125.7,113 65.5,78.2 65.5,76.8 			"/>
		</g>
	</g>
	<g>
		<g class="st0">
			<g>
				<polygon class="st15" points="116,109.9 108.8,105.7 114.9,105.3 122.1,109.5 				"/>
			</g>
			<g>
				<polygon class="st15" points="115.6,111 108.5,106.8 108.8,105.7 116,109.9 				"/>
			</g>
			<g>
				<polygon class="st16" points="116,109.9 122.1,109.5 121.7,110.6 115.6,111 				"/>
			</g>
		</g>
	</g>
	<g>
		<g class="st0">
			<g>
				<polygon class="st14" points="58.7,121.2 45.7,113.7 45.4,113 58.3,120.5 				"/>
			</g>
			<g>
				<polygon class="st15" points="58.3,120.5 45.4,113 51.4,106.3 64.4,113.9 				"/>
			</g>
			<g>
				<polygon class="st16" points="64.4,113.9 64.8,114.6 58.7,121.2 58.3,120.5 				"/>
			</g>
		</g>
	</g>
	<g>
		<g class="st0">
			<g>
				<polygon class="st14" points="33,106.3 25.8,102.1 25.5,101.4 32.7,105.6 				"/>
			</g>
			<g>
				<polygon class="st15" points="32.7,105.6 25.5,101.4 31.6,94.8 38.8,99 				"/>
			</g>
			<g>
				<polygon class="st16" points="38.8,99 39.1,99.7 33,106.3 32.7,105.6 				"/>
			</g>
		</g>
	</g>
	<g>
		<g class="st0">
			<g>
				<polygon class="st14" points="82.4,134.8 75.2,130.7 74.9,129.9 82,134.1 				"/>
			</g>
			<g>
				<polygon class="st15" points="82,134.1 74.9,129.9 80.9,123.3 88.1,127.5 				"/>
			</g>
			<g>
				<polygon class="st16" points="88.1,127.5 88.5,128.2 82.4,134.8 82,134.1 				"/>
			</g>
		</g>
	</g>
	<g>
		<g class="st0">
			<g>
				<polygon class="st17" points="77.8,25.4 66.1,18.6 66.2,33.9 77.8,40.7 				"/>
			</g>
			<g>
				<polygon class="st18" points="86.8,10.5 75.1,3.7 66.1,8.9 77.8,15.7 				"/>
			</g>
			<g>
				<polygon class="st19" points="86.8,10.5 86.8,35.5 77.8,40.7 77.8,25.4 77.8,15.7 				"/>
			</g>
		</g>
	</g>
	<g class="st0">
		<g class="st0">
			<path class="st12" d="M26.8,105.2l0,1.4c-0.6-0.3-1.3-0.6-2.1-0.6l0-1.4C25.5,104.6,26.3,104.8,26.8,105.2L26.8,105.2z"/>
			<path class="st12" d="M24.8,104.5l0,1.4c-0.7-0.1-1.3-0.1-2,0.1l0-1.4C23.4,104.5,24.1,104.4,24.8,104.5L24.8,104.5z"/>
			<path class="st13" d="M22.8,104.6l0,1.4c-0.6,0.1-1.2,0.3-1.6,0.6c-0.2,0.1-0.4,0.3-0.6,0.4l0-1.4c0.2-0.1,0.3-0.3,0.6-0.4
				C21.6,104.9,22.2,104.7,22.8,104.6L22.8,104.6z"/>
			<path class="st12" d="M20.6,105.6l0,1.4c-0.4,0.3-0.6,0.7-0.6,1.1l0-1.4C20,106.3,20.2,105.9,20.6,105.6L20.6,105.6z"/>
			<path class="st12" d="M20,106.6l0,1.4c0,0.1,0,0.1,0,0.2l0-1.4C20,106.7,20,106.7,20,106.6L20,106.6z"/>
		</g>
		<g>
			<path class="st12" d="M32.8,109.6l0,1.4c0-0.6-0.4-1.2-1.2-1.7l0-1.4C32.4,108.3,32.8,108.9,32.8,109.6L32.8,109.6z"/>
		</g>
		<g class="st0">
			<path class="st12" d="M72.2,131.4l0,1.4c-0.6-0.3-1.3-0.6-2.1-0.6l0-1.4C70.9,130.8,71.6,131,72.2,131.4L72.2,131.4z"/>
			<path class="st12" d="M70.2,130.7l0,1.4c-0.7-0.1-1.3-0.1-2,0.1l0-1.4C68.8,130.7,69.5,130.7,70.2,130.7L70.2,130.7z"/>
			<path class="st13" d="M68.2,130.8l0,1.4c-0.6,0.1-1.2,0.3-1.6,0.6c-0.2,0.1-0.4,0.3-0.6,0.4l0-1.4c0.2-0.1,0.3-0.3,0.6-0.4
				C67,131.1,67.6,130.9,68.2,130.8L68.2,130.8z"/>
			<path class="st12" d="M66,131.8l0,1.4c-0.4,0.3-0.6,0.7-0.6,1.1l0-1.4C65.4,132.5,65.6,132.1,66,131.8L66,131.8z"/>
			<path class="st12" d="M65.4,132.8l0,1.4c0,0.1,0,0.1,0,0.2l0-1.4C65.4,132.9,65.4,132.9,65.4,132.8L65.4,132.8z"/>
		</g>
		<g class="st0">
			<g>
				<path class="st12" d="M78.2,135.8l0,1.4c0-0.6-0.4-1.2-1.2-1.7l0-1.4C77.8,134.6,78.2,135.2,78.2,135.8L78.2,135.8z"/>
			</g>
			<g>
				<path class="st12" d="M31.6,107.9l-4.7-2.7c-1.6-0.9-4.1-0.9-5.7,0c-0.8,0.5-1.2,1-1.2,1.6l0,1.4c0-0.6,0.4-1.2,1.2-1.6
					c1.6-0.9,4.1-0.9,5.7,0l4.7,2.7c0.8,0.5,1.2,1.1,1.2,1.7l0-1.4C32.8,108.9,32.4,108.3,31.6,107.9z"/>
				<path class="st12" d="M77,134.1l-4.7-2.7c-1.6-0.9-4.1-0.9-5.7,0c-0.8,0.4-1.2,1-1.2,1.6l0,1.4c0-0.6,0.4-1.2,1.2-1.6
					c1.6-0.9,4.1-0.9,5.7,0l4.7,2.7c0.8,0.5,1.2,1.1,1.2,1.7l0-1.4C78.2,135.2,77.8,134.6,77,134.1z"/>
			</g>
		</g>
		<g>
			<polygon class="st12" points="84.5,135.5 84.5,136.9 73.8,143.2 73.8,141.8 			"/>
		</g>
		<g>
			<path class="st14" d="M24.3,100.8l60.2,34.8l-10.7,6.2L13.6,107L24.3,100.8z M71.3,137.4c1.6,0.9,4.1,0.9,5.7,0
				c1.6-0.9,1.6-2.4,0-3.3l-4.7-2.7c-1.6-0.9-4.1-0.9-5.7,0c-1.6,0.9-1.6,2.4,0,3.3L71.3,137.4L71.3,137.4z M25.9,111.2
				c1.6,0.9,4.1,0.9,5.7,0c1.6-0.9,1.6-2.4,0-3.3l-4.7-2.7c-1.6-0.9-4.1-0.9-5.7,0c-1.6,0.9-1.6,2.4,0,3.3L25.9,111.2L25.9,111.2z"
				/>
		</g>
		<g>
			<polygon class="st13" points="73.8,141.8 73.8,143.2 13.6,108.4 13.6,107 			"/>
		</g>
	</g>
	<g>
		<polygon class="st20" points="40.1,92 72.7,73.1 72.8,36.7 40.2,55.7 		"/>
	</g>
	<g>
		<polygon class="st21" points="73.1,111 105.7,92.1 72.7,73.1 40.1,92 		"/>
	</g>
	<g>
		<g class="st0">
			<g>
				<g>
					<defs>
						<path id="SVGID_9_" d="M44.4,90l0.1-37.9c0,2,1.3,4.1,4,5.6l-0.1,37.9C45.7,94.1,44.4,92,44.4,90z"/>
					</defs>
					<clipPath id="SVGID_10_">
						<use xlink:href="#SVGID_9_"  style="overflow:visible;"/>
					</clipPath>
				</g>
				<g>
					<defs>
						<path id="SVGID_11_" d="M44.4,90l0.1-37.9c0,2,1.3,4.1,4,5.6l-0.1,37.9C45.7,94.1,44.4,92,44.4,90z"/>
					</defs>
					<use xlink:href="#SVGID_11_"  style="overflow:visible;fill:#652C22;"/>
					<clipPath id="SVGID_12_">
						<use xlink:href="#SVGID_11_"  style="overflow:visible;"/>
					</clipPath>
					<g class="st22">
						<path class="st23" d="M48.5,57.7l-0.1,37.9c-2.7-1.5-4-3.6-4-5.6l0.1-37.9C44.5,54.1,45.8,56.1,48.5,57.7L48.5,57.7z"/>
					</g>
				</g>
				<g>
					<defs>
						<path id="SVGID_13_" d="M44.4,90l0.1-37.9c0,2,1.3,4.1,4,5.6l-0.1,37.9C45.7,94.1,44.4,92,44.4,90z"/>
					</defs>
					<clipPath id="SVGID_14_">
						<use xlink:href="#SVGID_13_"  style="overflow:visible;"/>
					</clipPath>
				</g>
			</g>
			<g>
				<g>
					<defs>
						<path id="SVGID_15_" d="M94,54.5l-0.1,37.9c0,2-1.3,4-3.9,5.5L90.1,60C92.7,58.5,94,56.5,94,54.5z"/>
					</defs>
					<clipPath id="SVGID_16_">
						<use xlink:href="#SVGID_15_"  style="overflow:visible;"/>
					</clipPath>
				</g>
				<g>
					<defs>
						<path id="SVGID_17_" d="M94,54.5l-0.1,37.9c0,2-1.3,4-3.9,5.5L90.1,60C92.7,58.5,94,56.5,94,54.5z"/>
					</defs>
					<use xlink:href="#SVGID_17_"  style="overflow:visible;fill:#652C22;"/>
					<clipPath id="SVGID_18_">
						<use xlink:href="#SVGID_17_"  style="overflow:visible;"/>
					</clipPath>
					<g class="st24">
						<path class="st23" d="M94,54.5l-0.1,37.9c0,0.2,0,0.3,0,0.5L94,55C94,54.8,94,54.6,94,54.5L94,54.5z"/>
						<path class="st23" d="M94,55l-0.1,37.9c-0.1,1.3-0.8,2.5-2,3.6L92,58.6C93.2,57.5,93.9,56.2,94,55L94,55z"/>
						<path class="st23" d="M92,58.6l-0.1,37.9c-0.5,0.5-1.1,0.9-1.9,1.4L90.1,60C90.8,59.6,91.5,59.1,92,58.6L92,58.6z"/>
					</g>
				</g>
				<g>
					<defs>
						<path id="SVGID_19_" d="M94,54.5l-0.1,37.9c0,2-1.3,4-3.9,5.5L90.1,60C92.7,58.5,94,56.5,94,54.5z"/>
					</defs>
					<clipPath id="SVGID_20_">
						<use xlink:href="#SVGID_19_"  style="overflow:visible;"/>
					</clipPath>
				</g>
			</g>
			<g>
				<g>
					<polygon class="st23" points="90.1,60 90,97.9 80.8,103.2 80.9,65.3 					"/>
				</g>
			</g>
			<g>
				<g>
					<polygon class="st25" points="61.7,65.3 61.6,103.2 48.4,95.6 48.5,57.7 					"/>
				</g>
			</g>
			<g>
				<g>
					<defs>
						<path id="SVGID_21_" d="M80.9,65.3l-0.1,37.9c-5.3,3.1-13.9,3.1-19.2,0l0.1-37.9C67,68.4,75.7,68.4,80.9,65.3z"/>
					</defs>
					<clipPath id="SVGID_22_">
						<use xlink:href="#SVGID_21_"  style="overflow:visible;"/>
					</clipPath>
				</g>
				<g>
					<defs>
						<path id="SVGID_23_" d="M80.9,65.3l-0.1,37.9c-5.3,3.1-13.9,3.1-19.2,0l0.1-37.9C67,68.4,75.7,68.4,80.9,65.3z"/>
					</defs>
					<use xlink:href="#SVGID_23_"  style="overflow:visible;fill:#652C22;"/>
					<clipPath id="SVGID_24_">
						<use xlink:href="#SVGID_23_"  style="overflow:visible;"/>
					</clipPath>
					<g class="st26">
						<path class="st23" d="M80.9,65.3l-0.1,37.9c-1.6,0.9-3.5,1.6-5.6,1.9l0.1-37.9C77.4,66.9,79.3,66.2,80.9,65.3L80.9,65.3z"/>
						<path class="st23" d="M75.4,67.3l-0.1,37.9c-2.2,0.4-4.4,0.5-6.6,0.2l0.1-37.9C70.9,67.7,73.2,67.6,75.4,67.3L75.4,67.3z"/>
						<path class="st25" d="M68.7,67.5l-0.1,37.9c-2.6-0.3-5-1-7-2.1l0.1-37.9C63.7,66.5,66.2,67.2,68.7,67.5L68.7,67.5z"/>
					</g>
				</g>
				<g>
					<defs>
						<path id="SVGID_25_" d="M80.9,65.3l-0.1,37.9c-5.3,3.1-13.9,3.1-19.2,0l0.1-37.9C67,68.4,75.7,68.4,80.9,65.3z"/>
					</defs>
					<clipPath id="SVGID_26_">
						<use xlink:href="#SVGID_25_"  style="overflow:visible;"/>
					</clipPath>
				</g>
			</g>
			<g>
				<path class="st27" d="M90,48.9c5.3,3.1,5.3,8.1,0.1,11.1l-9.2,5.3c-5.3,3.1-13.9,3.1-19.2,0l-13.2-7.6
					c-5.3-3.1-5.3-8.1-0.1-11.1l9.2-5.3c5.3-3.1,13.9-3.1,19.2,0L90,48.9z"/>
			</g>
			<g>
				<g>
					<g>
						<path class="st28" d="M48.5,59.1l13.2,7.6c5.3,3.1,13.9,3.1,19.2,0l9.2-5.3c2.9-1.7,4.2-4,3.9-6.2c-0.3,1.8-1.6,3.5-3.9,4.8
							l-9.2,5.3c-5.3,3.1-13.9,3.1-19.2,0l-13.2-7.6c-2.3-1.4-3.7-3.1-3.9-4.9C44.2,55.1,45.5,57.4,48.5,59.1z"/>
						<path class="st28" d="M48.5,61.4L61.7,69c5.3,3.1,13.9,3.1,19.2,0l9.2-5.3c2.9-1.7,4.2-4,3.9-6.2c-0.3,1.8-1.6,3.5-3.9,4.8
							l-9.2,5.3c-5.3,3.1-13.9,3.1-19.2,0L48.5,60c-2.3-1.4-3.7-3.1-3.9-4.9C44.2,57.3,45.5,59.7,48.5,61.4z"/>
						<path class="st28" d="M48.5,63.7l13.2,7.6c5.3,3.1,13.9,3.1,19.2,0l9.2-5.3c2.9-1.7,4.2-4,3.9-6.2c-0.3,1.8-1.6,3.5-3.9,4.8
							l-9.2,5.3c-5.3,3.1-13.9,3.1-19.2,0l-13.2-7.6c-2.3-1.4-3.7-3.1-3.9-4.9C44.2,59.6,45.5,62,48.5,63.7z"/>
						<path class="st28" d="M48.5,65.9l13.2,7.6c5.3,3.1,13.9,3.1,19.2,0l9.2-5.3c2.9-1.7,4.2-4,3.9-6.2c-0.3,1.8-1.6,3.5-3.9,4.8
							l-9.2,5.3c-5.3,3.1-13.9,3.1-19.2,0l-13.2-7.6c-2.3-1.4-3.7-3.1-3.9-4.9C44.2,61.9,45.5,64.2,48.5,65.9z"/>
						<path class="st28" d="M48.5,68.2l13.2,7.6c5.3,3.1,13.9,3.1,19.2,0l9.2-5.3c2.9-1.7,4.2-4,3.9-6.2c-0.3,1.8-1.6,3.5-3.9,4.8
							l-9.2,5.3c-5.3,3.1-13.9,3.1-19.2,0l-13.2-7.6c-2.3-1.4-3.7-3.1-3.9-4.9C44.2,64.2,45.5,66.5,48.5,68.2z"/>
						<path class="st28" d="M48.5,70.5l13.2,7.6c5.3,3.1,13.9,3.1,19.2,0l9.2-5.3c2.9-1.7,4.2-4,3.9-6.2c-0.3,1.8-1.6,3.5-3.9,4.8
							l-9.2,5.3c-5.3,3.1-13.9,3.1-19.2,0l-13.2-7.6c-2.3-1.4-3.7-3.1-3.9-4.9C44.2,66.5,45.5,68.8,48.5,70.5z"/>
						<path class="st28" d="M48.5,72.8l13.2,7.6c5.3,3.1,13.9,3.1,19.2,0l9.2-5.3c2.9-1.7,4.2-4,3.9-6.2c-0.3,1.8-1.6,3.5-3.9,4.8
							L80.9,79C75.7,82,67,82,61.7,79l-13.2-7.6c-2.3-1.4-3.7-3.1-3.9-4.9C44.2,68.7,45.5,71.1,48.5,72.8z"/>
						<path class="st28" d="M48.5,75l13.2,7.6c5.3,3.1,13.9,3.1,19.2,0l9.2-5.3c2.9-1.7,4.2-4,3.9-6.2c-0.3,1.8-1.6,3.5-3.9,4.8
							l-9.2,5.3c-5.3,3.1-13.9,3.1-19.2,0l-13.2-7.6c-2.3-1.4-3.7-3.1-3.9-4.9C44.2,71,45.5,73.3,48.5,75z"/>
						<path class="st28" d="M48.5,77.3L61.7,85C67,88,75.7,88,80.9,85l9.2-5.3c2.9-1.7,4.2-4,3.9-6.2c-0.3,1.8-1.6,3.5-3.9,4.8
							l-9.2,5.3c-5.3,3.1-13.9,3.1-19.2,0l-13.2-7.6c-2.3-1.4-3.7-3.1-3.9-4.9C44.2,73.3,45.5,75.6,48.5,77.3z"/>
						<path class="st28" d="M48.5,79.6l13.2,7.6c5.3,3.1,13.9,3.1,19.2,0l9.2-5.3c2.9-1.7,4.2-4,3.9-6.2c-0.3,1.8-1.6,3.5-3.9,4.8
							l-9.2,5.3c-5.3,3.1-13.9,3.1-19.2,0l-13.2-7.6c-2.3-1.4-3.7-3.1-3.9-4.9C44.2,75.6,45.5,77.9,48.5,79.6z"/>
						<path class="st28" d="M48.5,81.9l13.2,7.6c5.3,3.1,13.9,3.1,19.2,0l9.2-5.3c2.9-1.7,4.2-4,3.9-6.2c-0.3,1.8-1.6,3.5-3.9,4.8
							l-9.2,5.3c-5.3,3.1-13.9,3.1-19.2,0l-13.2-7.6c-2.3-1.4-3.7-3.1-3.9-4.9C44.2,77.8,45.5,80.2,48.5,81.9z"/>
						<path class="st28" d="M48.5,84.1l13.2,7.6c5.3,3.1,13.9,3.1,19.2,0l9.2-5.3c2.9-1.7,4.2-4,3.9-6.2c-0.3,1.8-1.6,3.5-3.9,4.8
							l-9.2,5.3c-5.3,3.1-13.9,3.1-19.2,0l-13.2-7.6c-2.3-1.4-3.7-3.1-3.9-4.9C44.2,80.1,45.5,82.4,48.5,84.1z"/>
						<path class="st28" d="M48.5,86.4l13.2,7.6c5.3,3.1,13.9,3.1,19.2,0l9.2-5.3c2.9-1.7,4.2-4,3.9-6.2c-0.3,1.8-1.6,3.5-3.9,4.8
							l-9.2,5.3c-5.3,3.1-13.9,3.1-19.2,0L48.5,85c-2.3-1.4-3.7-3.1-3.9-4.9C44.2,82.4,45.5,84.7,48.5,86.4z"/>
						<path class="st28" d="M48.5,88.7l13.2,7.6c5.3,3.1,13.9,3.1,19.2,0l9.2-5.3c2.9-1.7,4.2-4,3.9-6.2c-0.3,1.8-1.6,3.5-3.9,4.8
							l-9.2,5.3C75.7,98,67,98,61.7,94.9l-13.2-7.6c-2.3-1.4-3.7-3.1-3.9-4.9C44.2,84.7,45.5,87,48.5,88.7z"/>
						<path class="st28" d="M48.5,91l13.2,7.6c5.3,3.1,13.9,3.1,19.2,0l9.2-5.3c2.9-1.7,4.2-4,3.9-6.2c-0.3,1.8-1.6,3.5-3.9,4.8
							l-9.2,5.3c-5.3,3.1-13.9,3.1-19.2,0l-13.2-7.6c-2.3-1.4-3.7-3.1-3.9-4.9C44.2,86.9,45.5,89.3,48.5,91z"/>
						<path class="st28" d="M48.5,93.3l13.2,7.6c5.3,3.1,13.9,3.1,19.2,0l9.2-5.3c2.9-1.7,4.2-4,3.9-6.2c-0.3,1.8-1.6,3.5-3.9,4.8
							l-9.2,5.3c-5.3,3.1-13.9,3.1-19.2,0l-13.2-7.6c-2.3-1.4-3.7-3.1-3.9-4.9C44.2,89.2,45.5,91.5,48.5,93.3z"/>
						<path class="st28" d="M48.5,95.5l13.2,7.6c5.3,3.1,13.9,3.1,19.2,0l9.2-5.3c2.9-1.7,4.2-4,3.9-6.2c-0.3,1.8-1.6,3.5-3.9,4.8
							l-9.2,5.3c-5.3,3.1-13.9,3.1-19.2,0l-13.2-7.6c-2.3-1.4-3.7-3.1-3.9-4.9C44.2,91.5,45.5,93.8,48.5,95.5z"/>
					</g>
				</g>
			</g>
		</g>
	</g>
	<g>
		<polygon class="st12" points="86.6,133 100.9,124.7 102.8,123.6 105.7,122 107.6,120.9 110.4,119.2 112.3,118.1 115.2,116.5 
			117.1,115.4 119.2,114.1 119.4,49.5 117.1,50.8 115.2,51.9 112.3,53.6 110.4,54.7 107.6,56.4 105.7,57.5 102.8,59.1 100.9,60.2 
			86.8,68.4 		"/>
	</g>
	<g>
		<polygon class="st14" points="86.8,68.4 119.4,49.5 59.2,14.7 26.6,33.7 		"/>
	</g>
	<g>
		<path class="st13" d="M86.6,133L26.3,98.3l0.3-64.7l60.2,34.8L86.6,133z M40,92.1l33,19l0.1-36.3l-33-19L40,92.1L40,92.1z"/>
	</g>
	<g>
		<path class="st12" d="M72.2,113.3l-31-17.9c-1.9-1.1-3.4-3.7-3.4-5.9l0-34.2c0-2.2,1.5-3,3.4-2l31,17.9c1.9,1.1,3.4,3.7,3.4,5.9
			l0,34.2C75.6,113.5,74.1,114.4,72.2,113.3z M40.4,91.9L73,110.7l0-35.9L40.4,56L40.4,91.9z"/>
	</g>
	<g>
		<g>
			<g class="st0">
				<g>
					<polygon class="st7" points="51.3,49.4 28.6,36.1 28.6,58.3 51.4,71.5 					"/>
				</g>
				<g>
					<polygon class="st18" points="58.9,45 36.1,31.8 28.6,36.1 51.3,49.4 					"/>
				</g>
				<g>
					<polygon class="st19" points="51.3,49.4 51.4,71.5 58.9,67.2 58.9,52.4 64.3,49.3 58.9,45 					"/>
				</g>
			</g>
		</g>
	</g>
	<path class="st29" d="M79.8,71c0-1.4,1-2,2.2-1.3c1.2,0.7,2.2,2.4,2.2,3.8s-1,2-2.2,1.3C80.8,74.1,79.8,72.4,79.8,71z"/>
	<path class="st29" d="M79.8,122.9c0-1.4,1-2,2.2-1.3c1.2,0.7,2.2,2.4,2.2,3.8c0,1.4-1,2-2.2,1.3C80.8,126,79.8,124.3,79.8,122.9z"
		/>
	<path class="st29" d="M27.3,93.7c0-1.4,1-2,2.2-1.3c1.2,0.7,2.2,2.4,2.2,3.8c0,1.4-1,2-2.2,1.3C28.3,96.8,27.3,95.1,27.3,93.7z"/>
	<g>
		<polygon class="st18" points="100.9,60.2 100.9,124.7 102.8,123.6 102.8,59.1 		"/>
		<polygon class="st18" points="105.7,57.5 105.7,122 107.6,120.9 107.6,56.4 		"/>
		<polygon class="st18" points="110.4,54.7 110.4,119.2 112.3,118.1 112.3,53.6 		"/>
		<polygon class="st18" points="115.2,51.9 115.2,116.5 117.1,115.4 117.1,50.8 		"/>
	</g>
	<polygon class="st19" points="77.8,15.7 77.8,15.7 77.8,25.4 72.3,28.6 	"/>
	<g>
		<polygon class="st7" points="77.8,15.7 66.1,8.9 60.6,21.8 72.3,28.6 		"/>
	</g>
	<g>
		<polygon class="st30" points="35.2,53.1 30.4,50.4 30.4,41.4 35.2,44.1 		"/>
		<polygon class="st31" points="33,48.9 34.7,49.8 34.7,52.2 30.9,50.1 30.9,50.1 		"/>
		<g>
			<polygon class="st32" points="34.7,44.4 34.7,49.8 33,48.9 33,43.5 33.5,43.8 			"/>
			<polygon class="st33" points="34.7,45.3 34.7,49.1 33.5,48.4 33.5,44.6 			"/>
			<polygon class="st33" points="30.9,47.7 30.9,42.3 33,43.5 33,48.9 30.9,50.1 			"/>
		</g>
	</g>
	<g>
		<polygon class="st30" points="42.4,57.3 37.6,54.5 37.6,45.6 42.4,48.3 		"/>
		<polygon class="st31" points="40.2,53 41.8,54 41.8,56.4 38.1,54.2 38.1,54.2 		"/>
		<g>
			<polygon class="st32" points="41.8,48.6 41.8,54 40.2,53 40.2,47.7 40.7,48 			"/>
			<polygon class="st33" points="41.8,49.4 41.8,53.2 40.7,52.6 40.7,48.8 			"/>
			<polygon class="st33" points="38.1,51.9 38.1,46.5 40.2,47.7 40.2,53 38.1,54.2 			"/>
		</g>
	</g>
	<g>
		<polygon class="st30" points="49.6,61.4 44.8,58.7 44.8,49.7 49.6,52.5 		"/>
		<polygon class="st31" points="47.4,57.2 49.1,58.1 49.1,60.5 45.4,58.4 45.4,58.4 		"/>
		<g>
			<polygon class="st32" points="49.1,52.8 49.1,58.1 47.4,57.2 47.4,51.8 48,52.1 			"/>
			<polygon class="st33" points="49.1,53.6 49.1,57.4 48,56.7 48,52.9 			"/>
			<polygon class="st33" points="45.4,56 45.4,50.6 47.4,51.8 47.4,57.2 45.4,58.4 			"/>
		</g>
	</g>
	<g>
		<path class="st7" d="M39.3,35.7c-0.1,0.2-0.3,0.3-0.5,0.5c-0.9,0.5-2.2,0.5-3.1,0c-0.2-0.1-0.4-0.3-0.5-0.5
			c-0.3-0.4-0.1-1,0.5-1.3c0.9-0.5,2.2-0.5,3.1,0C39.4,34.8,39.6,35.3,39.3,35.7z"/>
		<path class="st29" d="M39.3,35.7c-0.1,0.2-0.3,0.3-0.5,0.5c-0.9,0.5-2.2,0.5-3.1,0c-0.2-0.1-0.4-0.3-0.5-0.5
			c0.1-0.2,0.3-0.3,0.5-0.5c0.9-0.5,2.2-0.5,3.1,0C39.1,35.4,39.2,35.5,39.3,35.7z"/>
	</g>
	<g>
		<path class="st7" d="M46.9,40.1c-0.1,0.2-0.3,0.3-0.5,0.5c-0.9,0.5-2.2,0.5-3.1,0c-0.2-0.1-0.4-0.3-0.5-0.5
			c-0.3-0.4-0.1-1,0.5-1.3c0.9-0.5,2.2-0.5,3.1,0C47,39.1,47.2,39.6,46.9,40.1z"/>
		<path class="st29" d="M46.9,40.1c-0.1,0.2-0.3,0.3-0.5,0.5c-0.9,0.5-2.2,0.5-3.1,0c-0.2-0.1-0.4-0.3-0.5-0.5
			c0.1-0.2,0.3-0.3,0.5-0.5c0.9-0.5,2.2-0.5,3.1,0C46.6,39.7,46.8,39.9,46.9,40.1z"/>
	</g>
	<g>
		<path class="st7" d="M79.9,12.5c-0.1,0.2-0.3,0.3-0.5,0.5c-0.9,0.5-2.2,0.5-3.1,0c-0.2-0.1-0.4-0.3-0.5-0.5
			c-0.3-0.4-0.1-1,0.5-1.3c0.9-0.5,2.2-0.5,3.1,0C80,11.5,80.2,12.1,79.9,12.5z"/>
		<path class="st29" d="M79.9,12.5c-0.1,0.2-0.3,0.3-0.5,0.5c-0.9,0.5-2.2,0.5-3.1,0c-0.2-0.1-0.4-0.3-0.5-0.5
			c0.1-0.2,0.3-0.3,0.5-0.5c0.9-0.5,2.2-0.5,3.1,0C79.6,12.2,79.8,12.3,79.9,12.5z"/>
	</g>
	<g>
		<path class="st7" d="M54.5,44.5c-0.1,0.2-0.3,0.3-0.5,0.5c-0.9,0.5-2.2,0.5-3.1,0c-0.2-0.1-0.4-0.3-0.5-0.5
			c-0.3-0.4-0.1-1,0.5-1.3c0.9-0.5,2.2-0.5,3.1,0C54.6,43.5,54.7,44,54.5,44.5z"/>
		<path class="st29" d="M54.5,44.5c-0.1,0.2-0.3,0.3-0.5,0.5c-0.9,0.5-2.2,0.5-3.1,0c-0.2-0.1-0.4-0.3-0.5-0.5
			c0.1-0.2,0.3-0.3,0.5-0.5c0.9-0.5,2.2-0.5,3.1,0C54.2,44.1,54.4,44.3,54.5,44.5z"/>
	</g>
	<g>
		<g>
			<g>
				<polygon class="st30" points="84.3,58.5 103.3,47.6 63.5,24.6 44.5,35.5 				"/>
			</g>
		</g>
		<g>
			<polygon class="st7" points="85.1,43.7 94.9,49.3 98.3,47.3 88.5,41.7 			"/>
			<polygon class="st7" points="55.1,31.7 90.3,52 93.7,50 58.5,29.7 			"/>
			<polygon class="st7" points="50.1,34.6 85.2,54.9 88.7,52.9 53.5,32.6 			"/>
			<polygon class="st7" points="59.7,29 82.6,42.3 86.1,40.3 63.1,27 			"/>
		</g>
	</g>
</g>
</svg>
