<?xml version="1.0" encoding="utf-8"?>
<!-- Generator: Adobe Illustrator 25.0.0, SVG Export Plug-In . SVG Version: 6.00 Build 0)  -->
<svg version="1.1" id="Capa_1" xmlns="http://www.w3.org/2000/svg" xmlns:xlink="http://www.w3.org/1999/xlink" x="0px" y="0px"
	 viewBox="0 0 150 150" style="enable-background:new 0 0 150 150;" xml:space="preserve">
<style type="text/css">
	.st0{fill:#C6C0B0;}
	.st1{fill:url(#SVGID_1_);}
	.st2{fill:url(#SVGID_2_);}
	.st3{fill:url(#Cylinder_face_1_);}
	.st4{fill:#4E5047;}
	.st5{fill:url(#SVGID_3_);}
	.st6{fill:url(#SVGID_4_);}
	.st7{fill:#FFD040;}
	.st8{fill:url(#SVGID_5_);}
	.st9{fill:url(#SVGID_6_);}
	.st10{fill:#E5E1D6;}
	.st11{fill:url(#SVGID_7_);}
</style>
<g id="_x31__1_">
	<path class="st0" d="M61.8,106.3c0-0.1-0.1-0.2-0.2-0.3c-0.3-0.2-0.7-0.2-1,0c-0.2,0.1-0.2,0.3-0.2,0.3v35.6c0,0.1,0.1,0.2,0.2,0.3
		c0.3,0.2,0.7,0.2,1,0c0.1-0.1,0.2-0.2,0.2-0.3L61.8,106.3C61.8,106.3,61.8,106.3,61.8,106.3z"/>
	<path class="st0" d="M89.4,90.4c0-0.1-0.1-0.2-0.2-0.3c-0.3-0.2-0.7-0.2-1,0c-0.2,0.1-0.2,0.3-0.2,0.3V126c0,0.1,0.1,0.2,0.2,0.3
		c0.3,0.2,0.7,0.2,1,0c0.1-0.1,0.2-0.2,0.2-0.3L89.4,90.4C89.4,90.4,89.4,90.4,89.4,90.4z"/>
	<g>
		<g id="Axonometric_Cylinder_4_">
			<linearGradient id="SVGID_1_" gradientUnits="userSpaceOnUse" x1="48.456" y1="103.1937" x2="101.5452" y2="103.1937">
				<stop  offset="0" style="stop-color:#D28D05"/>
				<stop  offset="1" style="stop-color:#F0B324"/>
			</linearGradient>
			<path class="st1" d="M48.5,92.8v5.9c0.1,3.9,2.7,7.7,7.8,10.7c10.4,6,27.2,6,37.5,0c5.2-3,7.8-7,7.8-11v-5.9L48.5,92.8z"/>
			<linearGradient id="SVGID_2_" gradientUnits="userSpaceOnUse" x1="51.9382" y1="103.3222" x2="66.7619" y2="103.3222">
				<stop  offset="0" style="stop-color:#41433C"/>
				<stop  offset="1" style="stop-color:#45483F"/>
			</linearGradient>
			<path class="st2" d="M53.7,93.5v14.1c0.8,0.6,1.6,1.2,2.6,1.7c3.1,1.8,6.7,3,10.5,3.7V93.5H53.7z"/>
			<linearGradient id="Cylinder_face_1_" gradientUnits="userSpaceOnUse" x1="48.4548" y1="92.6674" x2="101.5452" y2="92.6674">
				<stop  offset="0" style="stop-color:#F0B324"/>
				<stop  offset="1" style="stop-color:#FFD040"/>
			</linearGradient>
			<ellipse id="Cylinder_face_109_" class="st3" cx="75" cy="92.7" rx="26.5" ry="15.3"/>
			<path class="st4" d="M55.1,100.2l-1.5,1.6c0.8,0.6,1.6,1.2,2.6,1.7c3,1.8,6.7,3,10.5,3.7l1.1-2.9L55.1,100.2z"/>
		</g>
		<g id="Axonometric_Cylinder_11_">
			<linearGradient id="SVGID_3_" gradientUnits="userSpaceOnUse" x1="49.7627" y1="95.6561" x2="100.2385" y2="95.6561">
				<stop  offset="0" style="stop-color:#C68209"/>
				<stop  offset="1" style="stop-color:#DD9B10"/>
			</linearGradient>
			<path class="st5" d="M49.8,85.8v5.6c0.1,3.7,2.5,7.4,7.4,10.2c9.9,5.7,25.8,5.7,35.7,0c5-2.9,7.5-6.7,7.4-10.4v-5.6L49.8,85.8z"
				/>
			<linearGradient id="SVGID_4_" gradientUnits="userSpaceOnUse" x1="53.4776" y1="95.997" x2="67.4824" y2="95.997">
				<stop  offset="0" style="stop-color:#383A33"/>
				<stop  offset="1" style="stop-color:#3E3F39"/>
			</linearGradient>
			<path class="st6" d="M55.1,86.8v13.4c4.7,3.3,8.7,4.2,12.4,4.9V86.8H55.1z"/>
			<ellipse id="Cylinder_face_108_" class="st7" cx="75" cy="85.6" rx="25.2" ry="14.6"/>
			<path class="st4" d="M60.9,91.1l-6.2,3.2c0.7,0.6,1.5,1.1,2.4,1.6c2.9,1.7,6.3,2.9,10,3.5l2.1-4.4L60.9,91.1z"/>
		</g>
		<g id="Axonometric_Cylinder">
			<linearGradient id="SVGID_5_" gradientUnits="userSpaceOnUse" x1="48.456" y1="61.8068" x2="101.5452" y2="61.8068">
				<stop  offset="0" style="stop-color:#D28D05"/>
				<stop  offset="1" style="stop-color:#F0B324"/>
			</linearGradient>
			<path class="st8" d="M48.5,23.2v62.4c0.1,3.9,2.7,7.7,7.8,10.7c10.4,6,27.2,6,37.5,0c5.2-3,7.8-7,7.8-11V22.9L48.5,23.2z"/>
			<linearGradient id="SVGID_6_" gradientUnits="userSpaceOnUse" x1="51.9382" y1="61.9353" x2="66.7619" y2="61.9353">
				<stop  offset="0" style="stop-color:#41433C"/>
				<stop  offset="1" style="stop-color:#45483F"/>
			</linearGradient>
			<path class="st9" d="M53.7,23.9v70.6c0.8,0.6,1.6,1.2,2.6,1.7c3.1,1.8,6.7,3,10.5,3.7V23.9H53.7z"/>
			<ellipse id="Cylinder_face_95_" class="st7" cx="75" cy="23" rx="26.5" ry="15.3"/>
			<path class="st4" d="M59,28.2l-5.4,4c0.8,0.6,1.6,1.2,2.6,1.7c3,1.8,6.7,3,10.5,3.7l2-5L59,28.2z"/>
			<path id="Cylinder_face_107_" class="st10" d="M88.6,30.9c-7.5,4.3-19.6,4.3-27.1,0c-7.5-4.3-7.5-11.3,0-15.7
				c7.5-4.3,19.6-4.3,27.1,0C96,19.5,96,26.5,88.6,30.9z"/>
			<path class="st0" d="M76,22.9l12.9-7.4c-0.1-0.1-0.2-0.1-0.3-0.2c-0.2-0.1-0.5-0.2-0.7-0.4L75,22.3l-12.9-7.4
				c-0.2,0.1-0.5,0.2-0.7,0.4c-0.1,0.1-0.2,0.1-0.3,0.2L74,22.9l-13.2,7.6c0.2,0.1,0.4,0.3,0.6,0.4c0.1,0.1,0.2,0.1,0.4,0.2L75,23.4
				l13.2,7.6c0.1-0.1,0.2-0.1,0.4-0.2c0.2-0.1,0.4-0.3,0.6-0.4L76,22.9z"/>
			<linearGradient id="SVGID_7_" gradientUnits="userSpaceOnUse" x1="55.8286" y1="17.6857" x2="94.1714" y2="17.6857">
				<stop  offset="0" style="stop-color:#F0B324"/>
				<stop  offset="1" style="stop-color:#D28D05"/>
			</linearGradient>
			<path class="st11" d="M61.4,16c7.5-4.3,19.6-4.3,27.1,0c3.6,2.1,5.4,4.7,5.6,7.4c0.2-3-1.7-6-5.6-8.2c-7.5-4.3-19.6-4.3-27.1,0
				c-3.9,2.3-5.8,5.3-5.6,8.2C56,20.7,57.9,18,61.4,16z"/>
		</g>
	</g>
</g>
</svg>
