<?xml version="1.0" encoding="utf-8"?>
<!-- Generator: Adobe Illustrator 25.0.0, SVG Export Plug-In . SVG Version: 6.00 Build 0)  -->
<svg version="1.1" id="Capa_1" xmlns="http://www.w3.org/2000/svg" xmlns:xlink="http://www.w3.org/1999/xlink" x="0px" y="0px"
	 viewBox="0 0 150 150" style="enable-background:new 0 0 150 150;" xml:space="preserve">
<style type="text/css">
	.st0{fill:#599636;}
	.st1{fill:#6CAC48;}
	.st2{fill:#C2BFBF;}
</style>
<path class="st0" d="M74.6,5.4l3.7,7c0.8,1.3,1.7,2.4,2.8,3.5c3.1,3.1,6.1,6.4,8.8,9.9c6.3,8.3,10.6,17.5,13.6,27.5
	c1.8,6.1,2.8,12.4,2.9,18.7c0.3,18.9-6.2,35.2-19.2,48.6c-2.1,2.1-4.4,4.1-6.9,5.9c-1.3,0-1.9-1-2.4-1.9c-1-1.7-1.6-3.6-1.9-5.5
	c-0.5-2.3-0.8-4.6-0.6-6.9v-1.1C75.2,110.9,74.1,5.9,74.6,5.4L74.6,5.4z"/>
<path class="st1" d="M74.6,5.2c-0.2-0.3-0.3-0.1-0.5,0.1c0.1,1.5-0.5,2.9-1.3,4.2c-0.9,1.3-2.1,2.3-3.4,3.4
	c-6.8,5.9-12.1,13-16.4,20.9c-5.7,10.7-8.6,22.1-9.4,34.2c-0.4,4.3,1.4,19.7,2.7,24.1c3.7,11.7,10.4,21.6,19.1,30.1
	c2.1,2.1,4.4,4,6.8,5.8c0.7,0,0.8-0.6,0.9-1.1c0.3-1,0.5-2,0.7-3l1.5-11.4L74.6,5.2z"/>
<path class="st2" d="M78.3,131.2c0.2-1.7,1-3.2,1.9-4.7c-0.9-0.4-1.6-1.1-2.1-2c-0.5-0.8-0.8-1.6-1.1-2.5c-1.1-3.2-1.3-6.6-1.6-9.8
	v-2c-0.4,0.3-0.5,2.9-0.5,3.3c-0.2,3.5-0.7,6.9-1.4,10.3c-0.2,1.4-0.4,2.7-1.2,4c0,0.2,0,0.3,0.1,0.5c1.4,4,1.7,8.2,2,12.4v1.5
	c0,1.8-0.1,1.4,1.4,2.1c0.6,0.2,1.3,0.3,1.9,0.8c0.5,0,0.5-0.4,0.5-0.7l-0.2-2.5v-7C77.9,133.6,78.1,132.3,78.3,131.2L78.3,131.2z"
	/>
</svg>
