<?xml version="1.0" encoding="utf-8"?>
<!-- Generator: Adobe Illustrator 25.0.0, SVG Export Plug-In . SVG Version: 6.00 Build 0)  -->
<svg version="1.1" id="Capa_1" xmlns="http://www.w3.org/2000/svg" xmlns:xlink="http://www.w3.org/1999/xlink" x="0px" y="0px"
	 viewBox="0 0 150 150" style="enable-background:new 0 0 150 150;" xml:space="preserve">
<style type="text/css">
	.st0{fill-rule:evenodd;clip-rule:evenodd;fill:#E0234E;}
</style>
<path class="st0" d="M87.4,5.3c-1,0-2,0.2-2.8,0.5c1.8,1.2,2.9,2.9,3.4,4.7c0,0.3,0.1,0.4,0.1,0.7c0,0.2,0.1,0.4,0.1,0.7
	c0.1,3.2-0.8,3.6-1.5,5.5c-1,2.4-0.8,5,0.5,7.1c0.1,0.3,0.3,0.5,0.4,0.8c-1.4-9.1,6.3-10.5,7.7-13.4c0.1-2.5-2-4.2-3.6-5.3
	C90.1,5.6,88.7,5.3,87.4,5.3L87.4,5.3z M98.9,7.3c-0.1,0.8,0,0.6-0.1,1c0,0.3,0,0.7-0.1,0.9c-0.1,0.3-0.1,0.6-0.3,0.9
	c-0.1,0.3-0.2,0.6-0.3,0.9c-0.1,0.3-0.3,0.5-0.4,0.8c-0.1,0.1-0.2,0.3-0.3,0.4l-0.2,0.3c-0.2,0.3-0.4,0.5-0.5,0.7
	c-0.2,0.2-0.4,0.5-0.7,0.7v0c-0.2,0.2-0.4,0.4-0.7,0.6c-0.8,0.6-1.6,1-2.4,1.6c-0.3,0.2-0.5,0.3-0.7,0.5c-0.3,0.2-0.5,0.4-0.7,0.6
	c-0.3,0.2-0.4,0.4-0.7,0.7c-0.2,0.2-0.4,0.5-0.5,0.7c-0.2,0.3-0.4,0.5-0.5,0.8c-0.1,0.3-0.3,0.5-0.4,0.8c-0.1,0.3-0.2,0.5-0.3,0.8
	c-0.1,0.3-0.2,0.6-0.3,0.9c0,0.1,0,0.3-0.1,0.5c0,0.1,0,0.3-0.1,0.4c0,0.3,0,0.6,0,0.9c0,0.2,0,0.4,0,0.7c0,0.3,0,0.6,0.1,0.9
	c0,0.3,0.1,0.6,0.2,0.9c0.1,0.3,0.2,0.6,0.3,0.9c0.1,0.2,0.2,0.4,0.3,0.5l-8.3-3.2c-1.4-0.4-2.8-0.8-4.2-1.1l-2.3-0.5
	c-2.2-0.4-4.4-0.8-6.6-1c-0.1,0-0.1,0-0.2,0c-2.2-0.2-4.3-0.3-6.5-0.3c-1.6,0-3.2,0.1-4.7,0.2c-2.2,0.1-4.4,0.4-6.6,0.8
	c-0.5,0.1-1.1,0.2-1.6,0.3c-1.1,0.2-2.2,0.5-3.3,0.7l-1.6,0.4c-0.5,0.2-1,0.5-1.6,0.7L41,25.1c-0.1,0-0.1,0-0.2,0.1
	c-0.4,0.2-0.7,0.3-1,0.5c-0.1,0-0.2,0.1-0.3,0.1c-0.4,0.2-0.8,0.4-1.1,0.6c-0.3,0.1-0.5,0.3-0.7,0.4c-0.1,0.1-0.3,0.1-0.3,0.2
	c-0.3,0.2-0.7,0.4-0.9,0.5c-0.3,0.2-0.6,0.4-0.9,0.5c-0.3,0.2-0.5,0.3-0.7,0.5c0,0-0.1,0-0.1,0.1c-0.2,0.1-0.5,0.3-0.7,0.5L34,29.2
	l-0.5,0.4c-0.1,0-0.1,0.1-0.2,0.1c-0.2,0.1-0.4,0.3-0.5,0.5c0,0.1-0.1,0.1-0.1,0.1c-0.2,0.2-0.4,0.4-0.7,0.6c0,0,0,0-0.1,0.1
	c-0.2,0.2-0.4,0.4-0.7,0.6c0,0,0,0.1-0.1,0.1c-0.2,0.2-0.4,0.4-0.5,0.6c-0.1,0.1-0.2,0.1-0.3,0.2c-0.2,0.2-0.4,0.4-0.6,0.7
	c0,0.1-0.1,0.1-0.1,0.2c-0.3,0.3-0.5,0.6-0.8,0.9l-0.1,0.1c-0.6,0.6-1.2,1.2-1.8,1.8c-0.6,0.6-1.3,1.1-2,1.6c-0.7,0.5-1.4,1-2.2,1.4
	c-0.7,0.4-1.5,0.8-2.3,1.1c-0.8,0.3-1.6,0.6-2.3,0.9c-1.5,0.3-3.1,0.9-4.4,1c-0.3,0-0.6,0.1-0.9,0.1c-0.3,0.1-0.6,0.1-0.9,0.2
	l-0.9,0.3c-0.3,0.1-0.6,0.3-0.9,0.4c-0.3,0.2-0.5,0.3-0.8,0.5C9,43.8,8.7,44,8.5,44.3c-0.3,0.2-0.5,0.4-0.7,0.7
	c-0.2,0.3-0.4,0.5-0.6,0.7c-0.2,0.3-0.4,0.5-0.5,0.8c-0.2,0.3-0.4,0.5-0.5,0.8c-0.1,0.3-0.3,0.6-0.4,0.9c-0.1,0.3-0.2,0.6-0.3,0.9
	c-0.1,0.3-0.1,0.6-0.2,0.9c0,0,0,0.1,0,0.1c-0.1,0.3-0.1,0.8-0.1,1C5,51.4,5,51.6,5,51.8c0,0.1,0,0.3,0,0.5c0,0.3,0.1,0.5,0.1,0.7
	c0.1,0.2,0.1,0.4,0.3,0.7v0c0.1,0.2,0.3,0.4,0.4,0.7C6,54.6,6.1,54.8,6.3,55c0.2,0.2,0.4,0.4,0.6,0.6c0.2,0.2,0.4,0.4,0.7,0.6
	c0.9,0.8,1.1,1,2.2,1.6c0.2,0.1,0.4,0.2,0.6,0.3c0,0,0.1,0,0.1,0c0,0.1,0,0.1,0,0.2c0,0.3,0.1,0.6,0.2,0.9c0.1,0.3,0.2,0.6,0.3,0.9
	c0.1,0.2,0.2,0.4,0.3,0.7c0,0.1,0.1,0.1,0.1,0.2c0.1,0.3,0.3,0.5,0.4,0.8l0.5,0.8c0.2,0.2,0.4,0.5,0.6,0.7c0.2,0.2,0.4,0.4,0.7,0.6
	c0,0,0,0,0.1,0c0.2,0.2,0.4,0.4,0.7,0.5c0.3,0.2,0.5,0.3,0.8,0.5c0.3,0.1,0.5,0.3,0.8,0.4c0.2,0.1,0.5,0.2,0.7,0.3
	c0,0,0.1,0,0.1,0.1c0.1,0,0.3,0.1,0.5,0.1c-0.1,2-0.1,3.8,0.1,4.4c0.3,0.7,1.9-1.5,3.5-4c-0.2,2.5-0.4,5.4,0,6.3
	c0.4,0.9,2.6-1.9,4.4-5c25.6-5.9,49,11.8,51.5,36.8c-0.5-3.9-5.3-6.1-7.5-5.5c-1.1,2.7-2.9,6.1-5.9,8.2c0.3-2.4,0.1-4.9-0.4-7.2
	c-0.8,3.3-2.3,6.4-4.5,9.1c-3.4,0.3-6.9-1.4-8.7-3.9c-0.1-0.1-0.2-0.3-0.3-0.5c-0.1-0.3-0.2-0.5-0.3-0.8c-0.1-0.2-0.2-0.5-0.2-0.8
	c0-0.3,0-0.5,0-0.8v-0.5c0-0.3,0.1-0.5,0.2-0.8c0.1-0.3,0.1-0.5,0.3-0.8c0.1-0.3,0.3-0.5,0.4-0.8c0.6-1.7,0.6-3.1-0.5-4
	c-0.2-0.1-0.4-0.3-0.7-0.4c-0.1,0-0.3-0.1-0.5-0.1c-0.1,0-0.2-0.1-0.3-0.1c-0.3-0.1-0.5-0.1-0.8-0.2c-0.2-0.1-0.5-0.1-0.8-0.1
	c-0.3,0-0.5-0.1-0.8-0.1c-0.2,0-0.4,0-0.5,0c-0.3,0-0.5,0-0.8,0.1c-0.3,0-0.5,0.1-0.8,0.1c-0.3,0.1-0.5,0.1-0.8,0.3
	c-0.3,0.1-0.5,0.2-0.7,0.3c-0.2,0.1-0.4,0.3-0.7,0.4c-8.4,5.5-3.4,18.4,2.3,22.1c-2.2,0.4-4.4,0.9-5,1.3l-0.1,0.1
	c1.6,0.9,3.2,1.7,4.9,2.4c2.3,0.8,4.8,1.4,5.9,1.7v0c3,0.6,6.1,0.8,9.1,0.7c16-1.1,29.1-13.3,31.5-29.4c0.1,0.3,0.1,0.6,0.2,0.9
	c0.1,0.7,0.3,1.3,0.3,2v0c0.1,0.3,0.1,0.7,0.1,0.9v0.1c0,0.3,0.1,0.7,0.1,0.9c0,0.4,0.1,0.8,0.1,1.2v0.6c0,0.2,0,0.4,0,0.6
	c0,0.2,0,0.4,0,0.7v0.5c0,0.3,0,0.5,0,0.7c0,0.1,0,0.3,0,0.5c0,0.3,0,0.5,0,0.8c0,0.1,0,0.2,0,0.3c0,0.3-0.1,0.5-0.1,0.8
	c0,0.1,0,0.2,0,0.3c0,0.4-0.1,0.7-0.1,1v0.1c-0.1,0.3-0.1,0.7-0.2,1v0.1l-0.2,1c0,0,0,0.1,0,0.1c-0.1,0.3-0.1,0.7-0.3,1v0.1
	c-0.1,0.4-0.2,0.7-0.3,1c0,0,0,0.1,0,0.1l-0.3,1.1c-0.1,0.4-0.3,0.7-0.4,1c-0.1,0.4-0.3,0.7-0.4,1c-0.1,0.4-0.3,0.7-0.4,1h0
	c-0.1,0.3-0.3,0.7-0.5,1c0,0.1-0.1,0.2-0.1,0.3c0,0,0,0.1-0.1,0.1c-2.3,4.7-5.8,8.9-10.2,12.1c-0.3,0.2-0.6,0.4-0.9,0.6
	c-0.1,0.1-0.2,0.1-0.3,0.2c-0.3,0.2-0.5,0.4-0.8,0.5l0.1,0.2h0l1.5-0.2h0c0.9-0.1,1.9-0.3,2.8-0.5c0.3,0,0.5-0.1,0.8-0.2
	c0.2,0,0.3-0.1,0.5-0.1c0.3,0,0.5-0.1,0.8-0.1c0.2-0.1,0.4-0.1,0.7-0.2c3.6-0.9,7.1-2.1,10.5-3.5c-5.7,7.8-13.5,14.2-22.5,18.3
	c4.2-0.3,8.3-1,12.3-2.1c14.6-4.3,26.8-14.1,34.2-27.3c-1.5,8.4-4.8,16.3-9.7,23.2c3.5-2.3,6.7-5,9.7-8c8.1-8.5,13.4-19.2,15.2-30.7
	c1.2,5.7,1.6,11.6,1,17.4c26.1-36.4,2.2-74.2-7.8-84.1c0-0.1-0.1-0.1-0.1-0.2c0,0,0,0,0,0.1c0,0,0,0,0-0.1c0,0.4,0,0.9-0.1,1.3
	c-0.1,0.8-0.2,1.6-0.4,2.4c-0.2,0.8-0.4,1.6-0.6,2.4c-0.3,0.8-0.5,1.6-0.9,2.3c-0.3,0.7-0.7,1.5-1.1,2.2c-0.4,0.7-0.8,1.4-1.3,2.1
	c-0.5,0.7-1,1.3-1.5,2c-0.5,0.7-1.1,1.2-1.7,1.8c-0.3,0.3-0.7,0.6-1,0.9c-0.3,0.3-0.5,0.5-0.8,0.7c-0.7,0.5-1.3,1-2,1.4
	c-0.7,0.4-1.4,0.9-2.1,1.2c-0.8,0.4-1.5,0.7-2.3,1c-0.8,0.3-1.6,0.5-2.4,0.8c-0.8,0.2-1.6,0.4-2.4,0.5c-0.8,0.1-1.7,0.2-2.5,0.3
	c-0.6,0-1.2,0.1-1.7,0.1c-0.8,0-1.7-0.1-2.5-0.1c-0.8-0.1-1.7-0.2-2.5-0.4c-0.8-0.1-1.6-0.4-2.4-0.6h0c0.8-0.1,1.6-0.1,2.4-0.3
	c0.8-0.1,1.6-0.3,2.4-0.5c0.8-0.2,1.6-0.5,2.3-0.8c0.8-0.3,1.6-0.7,2.3-1c0.8-0.4,1.4-0.8,2.2-1.2c0.7-0.5,1.4-0.9,2-1.4
	c0.6-0.5,1.3-1,1.8-1.6c0.6-0.5,1.2-1.2,1.7-1.8c0.5-0.6,1-1.3,1.5-2c0.1-0.1,0.1-0.3,0.2-0.4c0.4-0.6,0.7-1.2,1-1.7
	c0.4-0.7,0.8-1.5,1.1-2.2c0.3-0.8,0.6-1.5,0.9-2.3c0.3-0.8,0.4-1.6,0.6-2.3c0.1-0.8,0.3-1.6,0.4-2.4c0.1-0.8,0.1-1.7,0.1-2.5
	c0-0.6,0-1.2-0.1-1.7c-0.1-0.8-0.2-1.6-0.3-2.4c-0.1-0.8-0.3-1.6-0.5-2.4c-0.3-0.8-0.5-1.6-0.8-2.3c-0.3-0.8-0.7-1.5-1-2.2
	c-0.4-0.7-0.8-1.4-1.2-2.1c-0.5-0.7-0.9-1.3-1.4-2c-0.5-0.6-1.1-1.2-1.7-1.8c-0.3-0.3-0.6-0.6-0.9-0.9c-1.6-1.3-3.3-2.4-5-3.5
	c-0.3-0.1-0.5-0.3-0.7-0.4C101.2,8.1,100.1,7.7,98.9,7.3L98.9,7.3z"/>
</svg>
