<?xml version="1.0" encoding="utf-8"?>
<!-- Generator: Adobe Illustrator 25.0.0, SVG Export Plug-In . SVG Version: 6.00 Build 0)  -->
<svg version="1.1" id="Capa_1" xmlns="http://www.w3.org/2000/svg" xmlns:xlink="http://www.w3.org/1999/xlink" x="0px" y="0px"
	 viewBox="0 0 150 150" style="enable-background:new 0 0 150 150;" xml:space="preserve">
<style type="text/css">
	.Sombra_x0020_paralela{fill:none;}
	.Neón_x0020_azul_x0020_grueso{fill:none;stroke:#0073BC;stroke-width:10;stroke-linecap:round;stroke-linejoin:round;}
	.Agua_x0020_iluminada{fill:url(#SVGID_1_);stroke:#FFFFFF;stroke-width:0.25;stroke-miterlimit:1;}
	.Resalte_x0020_en_x0020_negro_x0020_{fill:url(#SVGID_2_);stroke:#FFFFFF;stroke-width:0.3629;stroke-miterlimit:1;}
	.Coco_GS{fill-rule:evenodd;clip-rule:evenodd;fill:#FFDD00;}
	.st0{enable-background:new    ;}
	.st1{fill:#F2F0ED;}
	.st2{fill:#DEDEDE;}
	.st3{fill:#0E0F11;}
	.st4{fill:#2B2D30;}
	.st5{fill:#202124;}
	.st6{fill:#35373C;}
</style>
<linearGradient id="SVGID_1_" gradientUnits="userSpaceOnUse" x1="0" y1="0" x2="6.123234e-17" y2="-1">
	<stop  offset="0" style="stop-color:#1D59F4"/>
	<stop  offset="0.618" style="stop-color:#2D65EE"/>
	<stop  offset="0.6292" style="stop-color:#3864F3"/>
	<stop  offset="0.9831" style="stop-color:#00DDFC"/>
</linearGradient>
<linearGradient id="SVGID_2_" gradientUnits="userSpaceOnUse" x1="0" y1="0" x2="6.123234e-17" y2="-1">
	<stop  offset="0" style="stop-color:#060606"/>
	<stop  offset="0.618" style="stop-color:#000000"/>
	<stop  offset="0.6292" style="stop-color:#000000"/>
	<stop  offset="0.9831" style="stop-color:#000000"/>
</linearGradient>
<g>
	<g>
		<g>
			<g>
				<g class="st0">
					<g>
						<polygon class="st1" points="87.3,31.1 85.7,30.3 85.7,28.1 87.3,29 						"/>
					</g>
					<g>
						<polygon class="st1" points="84.1,62.9 82.6,62 82.5,32.1 84.1,33 						"/>
					</g>
					<g>
						<polygon class="st1" points="84.1,33 82.5,32.1 82.5,29.9 84.1,30.8 						"/>
					</g>
					<g>
						<polygon class="st2" points="87.3,29 87.3,31.1 87.3,61 84.1,62.9 84.1,33 84.1,30.8 						"/>
					</g>
					<g>
						<polygon class="st1" points="84.1,30.8 82.5,29.9 85.7,28.1 87.3,29 						"/>
					</g>
					<g>
						<polygon class="st1" points="81.6,24.9 80.1,24 88.2,19.4 89.7,20.3 						"/>
					</g>
					<g>
						<polygon class="st1" points="81.6,32.2 80.1,31.3 80.1,24 81.6,24.9 						"/>
					</g>
					<g>
						<polygon class="st2" points="89.7,20.3 89.7,27.5 87.3,31.1 87.3,29 84.1,30.8 84.1,33 81.6,32.2 81.6,24.9 						"/>
					</g>
				</g>
			</g>
			<g>
				<g class="st0">
					<g>
						<polygon class="st1" points="80.1,22.3 80.1,24.1 86.4,27.7 86.3,26 						"/>
					</g>
					<g>
						<polygon class="st2" points="86.3,26 86.4,27.7 94.4,23.1 94.4,21.3 						"/>
					</g>
					<g>
						<polygon class="st1" points="80.1,22.3 86.3,26 94.4,21.3 88.2,17.6 						"/>
					</g>
				</g>
			</g>
		</g>
		<g>
			<g>
				<g class="st0">
					<g>
						<polygon class="st1" points="72,39.5 70.5,38.6 70.5,36.4 72,37.3 						"/>
					</g>
					<g>
						<polygon class="st1" points="68.9,71.2 67.4,70.3 67.3,40.4 68.8,41.3 						"/>
					</g>
					<g>
						<polygon class="st1" points="68.8,41.3 67.3,40.4 67.3,38.2 68.8,39.1 						"/>
					</g>
					<g>
						<polygon class="st2" points="72,37.3 72,39.5 72.1,69.4 68.9,71.2 68.8,41.3 68.8,39.1 						"/>
					</g>
					<g>
						<polygon class="st1" points="68.8,39.1 67.3,38.2 70.5,36.4 72,37.3 						"/>
					</g>
					<g>
						<polygon class="st1" points="66.3,33.3 64.8,32.4 72.9,27.7 74.4,28.6 						"/>
					</g>
					<g>
						<polygon class="st1" points="66.4,40.5 64.8,39.6 64.8,32.4 66.3,33.3 						"/>
					</g>
					<g>
						<polygon class="st2" points="74.4,28.6 74.5,35.9 72,39.5 72,37.3 68.8,39.1 68.8,41.3 66.4,40.5 66.3,33.3 						"/>
					</g>
				</g>
			</g>
			<g>
				<g class="st0">
					<g>
						<polygon class="st1" points="64.8,30.6 64.8,32.4 71.1,36.1 71.1,34.3 						"/>
					</g>
					<g>
						<polygon class="st2" points="71.1,34.3 71.1,36.1 79.2,31.4 79.2,29.6 						"/>
					</g>
					<g>
						<polygon class="st1" points="64.8,30.6 71.1,34.3 79.2,29.6 72.9,26 						"/>
					</g>
				</g>
			</g>
		</g>
		<g>
			<g>
				<g class="st0">
					<g>
						<polygon class="st1" points="57.6,47.7 56.1,46.9 56.1,44.7 57.6,45.6 						"/>
					</g>
					<g>
						<polygon class="st1" points="54.5,79.5 53,78.6 52.9,48.7 54.4,49.6 						"/>
					</g>
					<g>
						<polygon class="st1" points="54.4,49.6 52.9,48.7 52.9,46.5 54.4,47.4 						"/>
					</g>
					<g>
						<polygon class="st2" points="57.6,45.6 57.6,47.7 57.7,77.6 54.5,79.5 54.4,49.6 54.4,47.4 						"/>
					</g>
					<g>
						<polygon class="st1" points="54.4,47.4 52.9,46.5 56.1,44.7 57.6,45.6 						"/>
					</g>
					<g>
						<polygon class="st1" points="52,41.5 50.4,40.7 58.5,36 60.1,36.9 						"/>
					</g>
					<g>
						<polygon class="st1" points="52,48.8 50.5,47.9 50.4,40.7 52,41.5 						"/>
					</g>
					<g>
						<polygon class="st2" points="60.1,36.9 60.1,44.1 57.6,47.7 57.6,45.6 54.4,47.4 54.4,49.6 52,48.8 52,41.5 						"/>
					</g>
				</g>
			</g>
			<g>
				<g class="st0">
					<g>
						<polygon class="st1" points="50.4,38.9 50.4,40.7 56.7,44.3 56.7,42.6 						"/>
					</g>
					<g>
						<polygon class="st2" points="56.7,42.6 56.7,44.3 64.8,39.7 64.8,37.9 						"/>
					</g>
					<g>
						<polygon class="st1" points="50.4,38.9 56.7,42.6 64.8,37.9 58.5,34.3 						"/>
					</g>
				</g>
			</g>
		</g>
		<g>
			<g>
				<g class="st0">
					<g>
						<polygon class="st1" points="42.4,56.1 40.9,55.2 40.9,53 42.4,53.9 						"/>
					</g>
					<g>
						<polygon class="st1" points="39.3,87.8 37.8,86.9 37.7,57 39.2,57.9 						"/>
					</g>
					<g>
						<polygon class="st1" points="39.2,57.9 37.7,57 37.7,54.9 39.2,55.7 						"/>
					</g>
					<g>
						<polygon class="st2" points="42.4,53.9 42.4,56.1 42.5,86 39.3,87.8 39.2,57.9 39.2,55.7 						"/>
					</g>
					<g>
						<polygon class="st1" points="39.2,55.7 37.7,54.9 40.9,53 42.4,53.9 						"/>
					</g>
					<g>
						<polygon class="st1" points="36.7,49.9 35.2,49 43.3,44.3 44.8,45.2 						"/>
					</g>
					<g>
						<polygon class="st1" points="36.7,57.1 35.2,56.3 35.2,49 36.7,49.9 						"/>
					</g>
					<g>
						<polygon class="st2" points="44.8,45.2 44.8,52.5 42.4,56.1 42.4,53.9 39.2,55.7 39.2,57.9 36.7,57.1 36.7,49.9 						"/>
					</g>
				</g>
			</g>
			<g>
				<g class="st0">
					<g>
						<polygon class="st1" points="35.2,47.3 35.2,49 41.5,52.7 41.5,50.9 						"/>
					</g>
					<g>
						<polygon class="st2" points="41.5,50.9 41.5,52.7 49.6,48 49.6,46.2 						"/>
					</g>
					<g>
						<polygon class="st1" points="35.2,47.3 41.5,50.9 49.6,46.2 43.3,42.6 						"/>
					</g>
				</g>
			</g>
		</g>
		<g>
			<g>
				<g class="st0">
					<g>
						<polygon class="st1" points="27.5,64.4 25.9,63.5 25.9,61.3 27.4,62.2 						"/>
					</g>
					<g>
						<polygon class="st1" points="24.3,96.1 22.8,95.3 22.7,65.4 24.3,66.2 						"/>
					</g>
					<g>
						<polygon class="st1" points="24.3,66.2 22.7,65.4 22.7,63.2 24.2,64.1 						"/>
					</g>
					<g>
						<polygon class="st2" points="27.4,62.2 27.5,64.4 27.5,94.3 24.3,96.1 24.3,66.2 24.2,64.1 						"/>
					</g>
					<g>
						<polygon class="st1" points="24.2,64.1 22.7,63.2 25.9,61.3 27.4,62.2 						"/>
					</g>
					<g>
						<polygon class="st1" points="21.8,58.2 20.3,57.3 28.4,52.6 29.9,53.5 						"/>
					</g>
					<g>
						<polygon class="st1" points="21.8,65.5 20.3,64.6 20.3,57.3 21.8,58.2 						"/>
					</g>
					<g>
						<polygon class="st2" points="29.9,53.5 29.9,60.8 27.5,64.4 27.4,62.2 24.2,64.1 24.3,66.2 21.8,65.5 21.8,58.2 						"/>
					</g>
				</g>
			</g>
			<g>
				<g class="st0">
					<g>
						<polygon class="st1" points="20.3,55.6 20.3,57.3 26.6,61 26.5,59.2 						"/>
					</g>
					<g>
						<polygon class="st2" points="26.5,59.2 26.6,61 34.6,56.3 34.6,54.6 						"/>
					</g>
					<g>
						<polygon class="st1" points="20.3,55.6 26.5,59.2 34.6,54.6 28.4,50.9 						"/>
					</g>
				</g>
			</g>
		</g>
		<g>
			<g>
				<g class="st0">
					<g>
						<polygon class="st1" points="12.2,72.7 10.7,71.8 10.7,69.7 12.2,70.5 						"/>
					</g>
					<g>
						<polygon class="st1" points="9.1,104.5 7.6,103.6 7.5,73.7 9,74.6 						"/>
					</g>
					<g>
						<polygon class="st1" points="9,74.6 7.5,73.7 7.5,71.5 9,72.4 						"/>
					</g>
					<g>
						<polygon class="st2" points="12.2,70.5 12.2,72.7 12.3,102.6 9.1,104.5 9,74.6 9,72.4 						"/>
					</g>
					<g>
						<polygon class="st1" points="9,72.4 7.5,71.5 10.7,69.7 12.2,70.5 						"/>
					</g>
					<g>
						<polygon class="st1" points="6.5,66.5 5,65.6 13.1,61 14.6,61.8 						"/>
					</g>
					<g>
						<polygon class="st1" points="6.6,73.8 5,72.9 5,65.6 6.5,66.5 						"/>
					</g>
					<g>
						<polygon class="st2" points="14.6,61.8 14.7,69.1 12.2,72.7 12.2,70.5 9,72.4 9,74.6 6.6,73.8 6.5,66.5 						"/>
					</g>
				</g>
			</g>
			<g>
				<g class="st0">
					<g>
						<polygon class="st1" points="5,63.9 5,65.7 11.3,69.3 11.3,67.6 						"/>
					</g>
					<g>
						<polygon class="st2" points="11.3,67.6 11.3,69.3 19.4,64.6 19.4,62.9 						"/>
					</g>
					<g>
						<polygon class="st1" points="5,63.9 11.3,67.6 19.4,62.9 13.1,59.2 						"/>
					</g>
				</g>
			</g>
		</g>
	</g>
	<g>
		<g class="st0">
			<g>
				<polygon class="st3" points="7.9,75.6 10.3,89.2 25.3,97.9 48.7,99.3 142.7,45.1 141.7,33.5 121.9,22 101.8,21.4 				"/>
			</g>
			<g>
				<polygon class="st4" points="7.9,75.6 8,84.4 10.4,97.9 10.3,89.2 				"/>
			</g>
			<g>
				<polygon class="st5" points="10.3,89.2 10.4,97.9 25.4,106.7 25.3,97.9 				"/>
			</g>
			<g>
				<polygon class="st4" points="25.3,97.9 25.4,106.7 48.8,108.1 48.7,99.3 				"/>
			</g>
			<g>
				<polygon class="st5" points="48.7,99.3 48.8,108.1 142.8,53.9 142.7,45.1 				"/>
			</g>
		</g>
	</g>
	<g>
		<g>
			<g>
				<g class="st0">
					<g>
						<polygon class="st1" points="138.5,60.6 137,59.7 137,57.5 138.5,58.4 						"/>
					</g>
					<g>
						<polygon class="st1" points="135.4,92.3 133.9,91.4 133.8,61.5 135.3,62.4 						"/>
					</g>
					<g>
						<polygon class="st1" points="135.3,62.4 133.8,61.5 133.8,59.3 135.3,60.2 						"/>
					</g>
					<g>
						<polygon class="st2" points="138.5,58.4 138.5,60.6 138.6,90.5 135.4,92.3 135.3,62.4 135.3,60.2 						"/>
					</g>
					<g>
						<polygon class="st1" points="135.3,60.2 133.8,59.3 137,57.5 138.5,58.4 						"/>
					</g>
					<g>
						<polygon class="st1" points="132.9,54.4 131.3,53.5 139.4,48.8 141,49.7 						"/>
					</g>
					<g>
						<polygon class="st1" points="132.9,61.6 131.4,60.7 131.3,53.5 132.9,54.4 						"/>
					</g>
					<g>
						<polygon class="st2" points="141,49.7 141,56.9 138.5,60.6 138.5,58.4 135.3,60.2 135.3,62.4 132.9,61.6 132.9,54.4 						"/>
					</g>
				</g>
			</g>
			<g>
				<g class="st0">
					<g>
						<polygon class="st1" points="126.6,48.9 126.6,50.7 132.9,54.4 132.9,52.6 						"/>
					</g>
					<g>
						<polygon class="st2" points="132.9,52.6 132.9,54.4 141,49.7 141,47.9 						"/>
					</g>
					<g>
						<polygon class="st1" points="126.6,48.9 132.9,52.6 141,47.9 134.7,44.3 						"/>
					</g>
				</g>
			</g>
		</g>
		<g>
			<g>
				<g class="st0">
					<g>
						<polygon class="st1" points="123.3,68.9 121.8,68 121.8,65.8 123.3,66.7 						"/>
					</g>
					<g>
						<polygon class="st1" points="120.2,100.6 118.7,99.7 118.6,69.9 120.1,70.7 						"/>
					</g>
					<g>
						<polygon class="st1" points="120.1,70.7 118.6,69.9 118.6,67.7 120.1,68.6 						"/>
					</g>
					<g>
						<polygon class="st2" points="123.3,66.7 123.3,68.9 123.4,98.8 120.2,100.6 120.1,70.7 120.1,68.6 						"/>
					</g>
					<g>
						<polygon class="st1" points="120.1,68.6 118.6,67.7 121.8,65.8 123.3,66.7 						"/>
					</g>
					<g>
						<polygon class="st1" points="117.6,62.7 116.1,61.8 124.2,57.1 125.7,58 						"/>
					</g>
					<g>
						<polygon class="st1" points="117.6,70 116.1,69.1 116.1,61.8 117.6,62.7 						"/>
					</g>
					<g>
						<polygon class="st2" points="125.7,58 125.7,65.3 123.3,68.9 123.3,66.7 120.1,68.6 120.1,70.7 117.6,70 117.6,62.7 						"/>
					</g>
				</g>
			</g>
			<g>
				<g class="st0">
					<g>
						<polygon class="st1" points="111.4,57.3 111.4,59 117.7,62.7 117.7,60.9 						"/>
					</g>
					<g>
						<polygon class="st2" points="117.7,60.9 117.7,62.7 125.8,58 125.8,56.2 						"/>
					</g>
					<g>
						<polygon class="st1" points="111.4,57.3 117.7,60.9 125.8,56.2 119.5,52.6 						"/>
					</g>
				</g>
			</g>
		</g>
		<g>
			<g>
				<g class="st0">
					<g>
						<polygon class="st1" points="108.9,77.2 107.4,76.3 107.4,74.1 108.9,75 						"/>
					</g>
					<g>
						<polygon class="st1" points="105.8,108.9 104.3,108 104.2,78.1 105.7,79 						"/>
					</g>
					<g>
						<polygon class="st1" points="105.7,79 104.2,78.1 104.2,76 105.7,76.8 						"/>
					</g>
					<g>
						<polygon class="st2" points="108.9,75 108.9,77.2 109,107.1 105.8,108.9 105.7,79 105.7,76.8 						"/>
					</g>
					<g>
						<polygon class="st1" points="105.7,76.8 104.2,76 107.4,74.1 108.9,75 						"/>
					</g>
					<g>
						<polygon class="st1" points="103.2,71 101.7,70.1 109.8,65.4 111.3,66.3 						"/>
					</g>
					<g>
						<polygon class="st1" points="103.3,78.2 101.7,77.3 101.7,70.1 103.2,71 						"/>
					</g>
					<g>
						<polygon class="st2" points="111.3,66.3 111.4,73.6 108.9,77.2 108.9,75 105.7,76.8 105.7,79 103.3,78.2 103.2,71 						"/>
					</g>
				</g>
			</g>
			<g>
				<g class="st0">
					<g>
						<polygon class="st1" points="97,65.6 97,67.3 103.3,71 103.3,69.2 						"/>
					</g>
					<g>
						<polygon class="st2" points="103.3,69.2 103.3,71 111.4,66.3 111.4,64.5 						"/>
					</g>
					<g>
						<polygon class="st1" points="97,65.6 103.3,69.2 111.4,64.5 105.1,60.9 						"/>
					</g>
				</g>
			</g>
		</g>
		<g>
			<g>
				<g class="st0">
					<g>
						<polygon class="st1" points="93.7,85.5 92.1,84.6 92.1,82.4 93.7,83.3 						"/>
					</g>
					<g>
						<polygon class="st1" points="90.6,117.2 89,116.4 88.9,86.5 90.5,87.3 						"/>
					</g>
					<g>
						<polygon class="st1" points="90.5,87.3 88.9,86.5 88.9,84.3 90.5,85.2 						"/>
					</g>
					<g>
						<polygon class="st2" points="93.7,83.3 93.7,85.5 93.8,115.4 90.6,117.2 90.5,87.3 90.5,85.2 						"/>
					</g>
					<g>
						<polygon class="st1" points="90.5,85.2 88.9,84.3 92.1,82.4 93.7,83.3 						"/>
					</g>
					<g>
						<polygon class="st1" points="88,79.3 86.5,78.4 94.6,73.7 96.1,74.6 						"/>
					</g>
					<g>
						<polygon class="st1" points="88,86.6 86.5,85.7 86.5,78.4 88,79.3 						"/>
					</g>
					<g>
						<polygon class="st2" points="96.1,74.6 96.1,81.9 93.7,85.5 93.7,83.3 90.5,85.2 90.5,87.3 88,86.6 88,79.3 						"/>
					</g>
				</g>
			</g>
			<g>
				<g class="st0">
					<g>
						<polygon class="st1" points="81.7,73.9 81.8,75.6 88,79.3 88,77.5 						"/>
					</g>
					<g>
						<polygon class="st2" points="88,77.5 88,79.3 96.1,74.6 96.1,72.9 						"/>
					</g>
					<g>
						<polygon class="st1" points="81.7,73.9 88,77.5 96.1,72.9 89.8,69.2 						"/>
					</g>
				</g>
			</g>
		</g>
		<g>
			<g>
				<g class="st0">
					<g>
						<polygon class="st1" points="78.7,93.8 77.2,92.9 77.2,90.8 78.7,91.6 						"/>
					</g>
					<g>
						<polygon class="st1" points="75.6,125.6 74.1,124.7 74,94.8 75.5,95.7 						"/>
					</g>
					<g>
						<polygon class="st1" points="75.5,95.7 74,94.8 74,92.6 75.5,93.5 						"/>
					</g>
					<g>
						<polygon class="st2" points="78.7,91.6 78.7,93.8 78.8,123.7 75.6,125.6 75.5,95.7 75.5,93.5 						"/>
					</g>
					<g>
						<polygon class="st1" points="75.5,93.5 74,92.6 77.2,90.8 78.7,91.6 						"/>
					</g>
					<g>
						<polygon class="st1" points="73.1,87.6 71.5,86.7 79.6,82.1 81.2,82.9 						"/>
					</g>
					<g>
						<polygon class="st1" points="73.1,94.9 71.6,94 71.5,86.7 73.1,87.6 						"/>
					</g>
					<g>
						<polygon class="st2" points="81.2,82.9 81.2,90.2 78.7,93.8 78.7,91.6 75.5,93.5 75.5,95.7 73.1,94.9 73.1,87.6 						"/>
					</g>
				</g>
			</g>
			<g>
				<g class="st0">
					<g>
						<polygon class="st1" points="66.8,82.2 66.8,84 73.1,87.6 73.1,85.9 						"/>
					</g>
					<g>
						<polygon class="st2" points="73.1,85.9 73.1,87.6 81.2,82.9 81.2,81.2 						"/>
					</g>
					<g>
						<polygon class="st1" points="66.8,82.2 73.1,85.9 81.2,81.2 74.9,77.5 						"/>
					</g>
				</g>
			</g>
		</g>
		<g>
			<g>
				<g class="st0">
					<g>
						<polygon class="st1" points="63.5,102.2 62,101.3 62,99.1 63.5,100 						"/>
					</g>
					<g>
						<polygon class="st1" points="60.4,133.9 58.9,133 58.8,103.1 60.3,104 						"/>
					</g>
					<g>
						<polygon class="st1" points="60.3,104 58.8,103.1 58.8,100.9 60.3,101.8 						"/>
					</g>
					<g>
						<polygon class="st2" points="63.5,100 63.5,102.2 63.6,132 60.4,133.9 60.3,104 60.3,101.8 						"/>
					</g>
					<g>
						<polygon class="st1" points="60.3,101.8 58.8,100.9 62,99.1 63.5,100 						"/>
					</g>
					<g>
						<polygon class="st1" points="57.8,95.9 56.3,95.1 64.4,90.4 65.9,91.3 						"/>
					</g>
					<g>
						<polygon class="st1" points="57.8,103.2 56.3,102.3 56.3,95.1 57.8,95.9 						"/>
					</g>
					<g>
						<polygon class="st2" points="65.9,91.3 65.9,98.5 63.5,102.2 63.5,100 60.3,101.8 60.3,104 57.8,103.2 57.8,95.9 						"/>
					</g>
				</g>
			</g>
			<g>
				<g class="st0">
					<g>
						<polygon class="st1" points="51.6,90.5 51.6,92.3 57.9,95.9 57.9,94.2 						"/>
					</g>
					<g>
						<polygon class="st2" points="57.9,94.2 57.9,95.9 66,91.3 66,89.5 						"/>
					</g>
					<g>
						<polygon class="st1" points="51.6,90.5 57.9,94.2 66,89.5 59.7,85.9 						"/>
					</g>
				</g>
			</g>
		</g>
	</g>
	<g>
		<g class="st0">
			<g>
				<polygon class="st4" points="7.9,65.2 8,74 10.4,87.6 10.3,78.8 				"/>
			</g>
			<g>
				<polygon class="st5" points="10.3,78.8 10.4,87.6 25.4,96.3 25.3,87.5 				"/>
			</g>
			<g>
				<polygon class="st4" points="25.3,87.5 25.4,96.3 48.8,97.7 48.7,88.9 				"/>
			</g>
			<g>
				<polygon class="st5" points="48.7,88.9 48.8,97.7 142.8,43.5 142.7,34.7 				"/>
			</g>
			<g>
				<polygon class="st6" points="7.9,65.2 10.3,78.8 25.3,87.5 48.7,88.9 142.7,34.7 141.7,23.1 121.9,11.6 101.8,11 				"/>
			</g>
		</g>
	</g>
	<path class="st3" d="M27.5,75.7c-2.2-1.3-5.7-1.3-7.9,0c-2.2,1.3-2.2,3.3,0,4.5c2.2,1.3,5.7,1.3,7.9,0C29.6,79,29.6,76.9,27.5,75.7
		z"/>
	<g>
		<polygon class="st2" points="58.3,56.4 28.3,73.7 19,68.3 49,50.9 		"/>
		<polygon class="st2" points="137,26.7 42,81.6 32.6,76.1 127.6,21.3 		"/>
		<polygon class="st2" points="123.3,18.8 93.3,36.2 84,30.7 114,13.4 		"/>
	</g>
</g>
</svg>
