<?xml version="1.0" encoding="utf-8"?>
<!-- Generator: Adobe Illustrator 25.0.0, SVG Export Plug-In . SVG Version: 6.00 Build 0)  -->
<svg version="1.1" id="Capa_1" xmlns="http://www.w3.org/2000/svg" xmlns:xlink="http://www.w3.org/1999/xlink" x="0px" y="0px"
	 viewBox="0 0 150 150" style="enable-background:new 0 0 150 150;" xml:space="preserve">
<style type="text/css">
	.st0{fill:#9CC2C8;}
	.st1{fill:#E03300;}
	.st2{fill:#F2743D;}
	.st3{fill:#F2633D;}
	.st4{fill:#CC3200;}
</style>
<g>
	<path class="st0" d="M50.4,83l-2.8,0.1v31v0v0l0,0c0,0.2,0.1,0.4,0.4,0.6c0.6,0.3,1.5,0.3,2,0c0.3-0.2,0.4-0.4,0.4-0.6l0,0V83z"/>
	<path class="st0" d="M96.8,110.5l-2.8,0.1v31v0v0l0,0c0,0.2,0.1,0.4,0.4,0.6c0.6,0.3,1.5,0.3,2,0c0.3-0.2,0.4-0.4,0.4-0.6l0,0
		V110.5z"/>
	<g>
		
			<ellipse transform="matrix(0.8633 -0.5047 0.5047 0.8633 -15.4572 50.1694)" class="st1" cx="84.9" cy="53.6" rx="27.5" ry="47.6"/>
		<path class="st2" d="M118,75.5c0,23.1-16.3,32.4-36.5,20.8C61.3,84.7,45,56.5,45,33.4c0-23.1,16.3-32.4,36.5-20.8
			C101.6,24.2,118,52.4,118,75.5z"/>
		<polygon class="st2" points="54.7,10.6 44.5,17.8 43.8,29.8 96.5,105.8 108.6,98.1 93,30.8 		"/>
		<path class="st2" d="M48.7,93.9l-3.6-3c-2.7-2.2-4.5-6.1-4.4-9.2L42,56.3l21.7,18.1l-8.6,19.4C54.1,96.1,51.4,96.2,48.7,93.9z"/>
		<path class="st2" d="M93.6,119.9l3.6,1.1c2.7,0.9,4.5-0.9,4.4-4.1l-1.3-27L78.6,83l8.6,29.3C88.2,115.8,90.9,119,93.6,119.9z"/>
		
			<ellipse transform="matrix(0.8633 -0.5047 0.5047 0.8633 -20.9611 44.3614)" class="st3" cx="71.4" cy="60.9" rx="29.7" ry="51.4"/>
		
			<ellipse transform="matrix(0.8633 -0.5047 0.5047 0.8633 -21.2728 43.2113)" class="st1" cx="69.1" cy="60.9" rx="27.5" ry="47.6"/>
		
			<ellipse transform="matrix(0.8633 -0.5047 0.5047 0.8633 -22.7345 42.3724)" class="st4" cx="66.9" cy="63.2" rx="23.9" ry="41.4"/>
	</g>
</g>
</svg>
