<?xml version="1.0" encoding="utf-8"?>
<!-- Generator: Adobe Illustrator 25.0.0, SVG Export Plug-In . SVG Version: 6.00 Build 0)  -->
<svg version="1.1" id="Capa_1" xmlns="http://www.w3.org/2000/svg" xmlns:xlink="http://www.w3.org/1999/xlink" x="0px" y="0px"
	 viewBox="0 0 150 150" style="enable-background:new 0 0 150 150;" xml:space="preserve">
<style type="text/css">
	.Sombra_x0020_paralela{fill:none;}
	.Neón_x0020_azul_x0020_grueso{fill:none;stroke:#0073BC;stroke-width:10;stroke-linecap:round;stroke-linejoin:round;}
	.Agua_x0020_iluminada{fill:url(#SVGID_1_);stroke:#FFFFFF;stroke-width:0.25;stroke-miterlimit:1;}
	.Resalte_x0020_en_x0020_negro_x0020_{fill:url(#SVGID_2_);stroke:#FFFFFF;stroke-width:0.3629;stroke-miterlimit:1;}
	.Coco_GS{fill-rule:evenodd;clip-rule:evenodd;fill:#FFDD00;}
	.st0{fill:#322F34;}
	.st1{enable-background:new    ;}
	.st2{clip-path:url(#SVGID_3_);}
	.st3{fill:#1774A2;}
	.st4{fill:#2D9DD5;}
	.st5{clip-path:url(#SVGID_4_);}
	.st6{fill:#1E8AC2;}
	.st7{fill:#FDB013;}
	.st8{opacity:0.2;fill:#F2F0ED;}
	.st9{opacity:0.1;}
	.st10{fill:#312E33;}
</style>
<linearGradient id="SVGID_1_" gradientUnits="userSpaceOnUse" x1="0" y1="0" x2="6.123234e-17" y2="-1">
	<stop  offset="0" style="stop-color:#1D59F4"/>
	<stop  offset="0.618" style="stop-color:#2D65EE"/>
	<stop  offset="0.6292" style="stop-color:#3864F3"/>
	<stop  offset="0.9831" style="stop-color:#00DDFC"/>
</linearGradient>
<linearGradient id="SVGID_2_" gradientUnits="userSpaceOnUse" x1="0" y1="0" x2="6.123234e-17" y2="-1">
	<stop  offset="0" style="stop-color:#060606"/>
	<stop  offset="0.618" style="stop-color:#000000"/>
	<stop  offset="0.6292" style="stop-color:#000000"/>
	<stop  offset="0.9831" style="stop-color:#000000"/>
</linearGradient>
<g>
	<path class="st0" d="M85.2,143.1L85.2,143.1c-1.2,0-2.2-1-2.2-2.2l0-57.8c0-4.6-3.4-10.4-7.3-12.7l-3.8-2.2
		c-1.5-0.9-2.9-1.1-3.7-0.6c-0.9,0.5-1.4,1.8-1.4,3.5l0,57.8c0,1.2-1,2.2-2.2,2.2l0,0c-1.2,0-2.2-1-2.2-2.2l0-57.8
		c0-3.4,1.3-6.1,3.6-7.4c2.3-1.3,5.3-1.1,8.2,0.6l3.8,2.2c5.4,3.1,9.6,10.4,9.6,16.6l0,57.8C87.4,142.1,86.4,143.1,85.2,143.1z"/>
	<g>
		<g class="st1">
			<g class="st1">
				<defs>
					<path id="SVGID_5_" class="st1" d="M101.1,66l-0.2,4.8c0,3.8-2.5,7.7-7.6,10.6c-10.2,5.9-26.7,5.9-36.9,0
						c-5.1-3-7.7-6.9-7.7-10.8l0.2-4.8c0,3.9,2.6,7.8,7.7,10.8c10.2,5.9,26.8,5.9,36.9,0C98.5,73.6,101.1,69.8,101.1,66z"/>
				</defs>
				<use xlink:href="#SVGID_5_"  style="overflow:visible;fill:#EA6060;"/>
				<clipPath id="SVGID_3_">
					<use xlink:href="#SVGID_5_"  style="overflow:visible;"/>
				</clipPath>
				<g class="st2">
					<path class="st3" d="M101.1,66l-0.2,4.8c0,3.8-2.5,7.7-7.6,10.6c-3.4,2-7.5,3.3-11.8,3.9l0.2-4.8c4.3-0.7,8.4-2,11.8-3.9
						C98.5,73.6,101.1,69.8,101.1,66L101.1,66z"/>
					<path class="st3" d="M81.7,80.5l-0.2,4.8c-4.3,0.7-8.8,0.7-13.1,0l0.2-4.8C72.8,81.2,77.4,81.2,81.7,80.5L81.7,80.5z"/>
					<path class="st3" d="M68.5,80.5l-0.2,4.8c-4.4-0.6-8.5-2-12-4c-0.7-0.4-1.3-0.8-2-1.3l0.2-4.8c0.6,0.4,1.3,0.9,2,1.3
						C60,78.6,64.1,79.9,68.5,80.5L68.5,80.5z"/>
					<path class="st3" d="M49.2,68.3c-0.2-0.8-0.3-1.6-0.3-2.5l-0.2,4.8c0,0.8,0.1,1.6,0.3,2.5c0.7,2.5,2.5,5,5.4,7.1l0.2-4.8
						C51.7,73.2,49.9,70.8,49.2,68.3z"/>
				</g>
			</g>
			<g>
				<path class="st4" d="M93.4,55.2c10.2,5.9,10.3,15.5,0.1,21.4c-10.2,5.9-26.7,5.9-36.9,0c-10.2-5.9-10.3-15.5-0.1-21.4
					C66.6,49.3,83.1,49.3,93.4,55.2z"/>
			</g>
		</g>
	</g>
	<g>
		<g class="st1">
			<g class="st1">
				<defs>
					<path id="SVGID_7_" class="st1" d="M98.6,18.8l-0.2,45.8c0,3.5-2.3,7-6.9,9.6c-9.2,5.4-24.2,5.4-33.5,0c-4.7-2.7-7-6.2-7-9.8
						l0.2-45.8c0,3.5,2.3,7.1,7,9.8c9.3,5.4,24.3,5.4,33.5,0C96.3,25.8,98.6,22.3,98.6,18.8z"/>
				</defs>
				<use xlink:href="#SVGID_7_"  style="overflow:visible;fill:#EA6060;"/>
				<clipPath id="SVGID_4_">
					<use xlink:href="#SVGID_7_"  style="overflow:visible;"/>
				</clipPath>
				<g class="st5">
					<path class="st6" d="M98.6,18.8l-0.2,45.8c0,3.5-2.3,7-6.9,9.6c-3.1,1.8-6.8,3-10.7,3.6L81,32c3.9-0.6,7.6-1.8,10.7-3.6
						C96.3,25.8,98.6,22.3,98.6,18.8L98.6,18.8z"/>
					<path class="st6" d="M81,32l-0.2,45.8c-3.9,0.6-8,0.6-11.9,0L69.1,32C73,32.6,77.1,32.6,81,32L81,32z"/>
					<path class="st7" d="M69.1,32l-0.2,45.8c-4-0.6-7.8-1.8-10.9-3.6c-0.6-0.4-1.2-0.7-1.8-1.1l0.2-45.8c0.5,0.4,1.1,0.8,1.8,1.1
						C61.4,30.2,65.1,31.4,69.1,32L69.1,32z"/>
					<path class="st6" d="M69.1,32l-0.2,45.8c-4-0.6-7.8-1.8-10.9-3.6c-0.6-0.4-1.2-0.7-1.8-1.1l0.2-45.8c0.5,0.4,1.1,0.8,1.8,1.1
						C61.4,30.2,65.1,31.4,69.1,32L69.1,32z"/>
					<path class="st8" d="M69.1,32l-0.2,45.8c-4-0.6-7.8-1.8-10.9-3.6c-0.6-0.4-1.2-0.7-1.8-1.1l0.2-45.8c0.5,0.4,1.1,0.8,1.8,1.1
						C61.4,30.2,65.1,31.4,69.1,32L69.1,32z"/>
					<path class="st6" d="M51.5,20.9c-0.2-0.7-0.3-1.5-0.3-2.2L51,64.5c0,0.7,0.1,1.5,0.3,2.2c0.6,2.3,2.3,4.5,4.9,6.4l0.2-45.8
						C53.8,25.4,52.2,23.2,51.5,20.9z"/>
				</g>
			</g>
			<g>
				<path class="st4" d="M91.7,9c9.3,5.4,9.3,14.1,0.1,19.4c-9.2,5.4-24.2,5.4-33.5,0c-9.3-5.4-9.3-14.1-0.1-19.4
					C67.4,3.7,82.4,3.7,91.7,9z"/>
			</g>
		</g>
	</g>
	<g class="st9">
		<path class="st10" d="M66.9,53.2l17.9-18.4l-22.4-1l0,28.1l0,0v14.5c1.4,0.4,3,0.8,4.5,1.1V60.1h0V53.2z"/>
		<path class="st10" d="M87.4,60.1l0-13.6l0-6.6L75,53.5V65l7.9,4.6v7.9c1.5-0.3,3-0.6,4.5-1.1L87.4,60.1L87.4,60.1z"/>
	</g>
</g>
</svg>
