<?xml version="1.0" encoding="utf-8"?>
<!-- Generator: Adobe Illustrator 25.0.0, SVG Export Plug-In . SVG Version: 6.00 Build 0)  -->
<svg version="1.1" id="Capa_1" xmlns="http://www.w3.org/2000/svg" xmlns:xlink="http://www.w3.org/1999/xlink" x="0px" y="0px"
	 viewBox="0 0 150 150" style="enable-background:new 0 0 150 150;" xml:space="preserve">
<style type="text/css">
	.st0{fill:#9CC2C8;}
	.st1{fill:#4A181C;}
	.st2{fill:#F14C4B;}
	.st3{fill:#C00000;}
	.st4{fill:#AE3D33;}
	.st5{fill:#E65757;}
</style>
<g>
	<path class="st0" d="M66.7,85.7l-5.2,0.1v57v0v0l0,0c0,0.4,0.3,0.8,0.8,1.1c1,0.6,2.7,0.6,3.7,0c0.5-0.3,0.8-0.7,0.8-1.1h0V85.7z"
		/>
	<path class="st0" d="M87.2,74.3L82,74.4v57v0v0l0,0c0,0.4,0.3,0.8,0.8,1.1c1,0.6,2.7,0.6,3.7,0c0.5-0.3,0.8-0.7,0.8-1.1h0V74.3z"/>
	<g>
		<path class="st1" d="M105.3,83.1h-62v10.4h0c-0.2,4.7,2.8,9.5,9.1,13.1c12.1,7,31.7,7,43.8,0.1c6.1-3.5,9.1-8.1,9-12.7l0,0V83.1z"
			/>
		<path class="st2" d="M96.3,95.8c-12.1,7-31.7,6.9-43.8-0.1c-12.1-7-12.2-18.3-0.1-25.3c12.1-7,31.7-6.9,43.8,0.1
			C108.3,77.5,108.4,88.8,96.3,95.8z"/>
		<polygon class="st1" points="47.2,82.8 47.2,41.1 101.5,41.1 101.5,83.6 		"/>
		<path class="st3" d="M93.6,93.9C83,100,65.8,99.9,55.2,93.8c-10.6-6.1-10.7-16.1-0.1-22.2c10.6-6.1,27.7-6.1,38.4,0.1
			C104.1,77.8,104.1,87.8,93.6,93.9z"/>
		<path class="st1" d="M93.6,52.2c-10.6,6.1-27.7,6.1-38.4-0.1C44.6,46,44.5,36.1,55.1,30c10.6-6.1,27.7-6.1,38.4,0.1
			C104.1,36.2,104.1,46.1,93.6,52.2z"/>
		<path class="st1" d="M74.3,4.8L74.3,4.8C59.3,4.8,47.2,17,47.2,32v9.1h54.3v-9.9c0-14.5-11.8-26.3-26.3-26.3H74.3z"/>
		<path class="st2" d="M85.3,13.3c-2.5,0.9-6.8,0.3-9.7-1.4c-2.9-1.7-3.3-3.8-0.8-4.7c2.5-0.9,6.8-0.3,9.7,1.4
			C87.4,10.3,87.8,12.4,85.3,13.3z"/>
		<g>
			<polygon class="st4" points="82,27.7 79.2,29.4 79.2,33.6 69.2,57 74.3,59.2 80,50.8 80,62.7 82,61.5 			"/>
			<polygon class="st4" points="76.4,36.1 81.5,38.3 64.8,53.4 64.8,76.6 59.7,74.4 59.7,51.2 63.6,43.3 			"/>
			<polygon class="st4" points="77.6,72.3 82.7,74.4 89.8,62.2 84.7,60 77.6,64.1 			"/>
			<polygon class="st4" points="59.7,90.8 64.8,92.9 65,81 59.7,82.6 			"/>
			<polygon class="st4" points="79.4,79.4 84.5,81.6 84.5,69.6 79.4,71.2 			"/>
			<polygon class="st4" points="79.4,63.1 84.5,65.2 88,29.4 82.9,27.2 79.4,29.2 			"/>
			<polygon class="st4" points="57.9,83.6 63,85.8 70.1,73.5 65,71.4 57.9,75.5 			"/>
		</g>
		<g>
			<polygon class="st5" points="87.1,29.9 84.2,31.6 84.2,35.8 74.3,59.2 85.1,53 85.1,64.9 87.1,63.7 			"/>
			<polygon class="st5" points="81.5,38.3 72.2,59.8 68.3,62 68.3,74.6 64.8,76.6 64.8,53.4 68.7,45.5 			"/>
			<polygon class="st5" points="82.7,74.4 89.8,70.3 89.8,62.2 82.7,66.3 			"/>
			<polygon class="st5" points="64.8,92.9 68.3,90.9 68.3,82.8 64.8,84.8 			"/>
			<polygon class="st5" points="84.5,81.6 88,79.5 88,71.4 84.5,73.4 			"/>
			<polygon class="st5" points="84.5,65.2 88,63.2 88,29.4 84.5,31.4 			"/>
			<polygon class="st5" points="63,85.8 70.1,81.7 70.1,73.5 63,77.6 			"/>
		</g>
	</g>
</g>
</svg>
