<?xml version="1.0" encoding="utf-8"?>
<!-- Generator: Adobe Illustrator 25.0.0, SVG Export Plug-In . SVG Version: 6.00 Build 0)  -->
<svg version="1.1" id="Capa_1" xmlns="http://www.w3.org/2000/svg" xmlns:xlink="http://www.w3.org/1999/xlink" x="0px" y="0px"
	 viewBox="0 0 150 150" style="enable-background:new 0 0 150 150;" xml:space="preserve">
<style type="text/css">
	.Sombra_x0020_paralela{fill:none;}
	.Neón_x0020_azul_x0020_grueso{fill:none;stroke:#0073BC;stroke-width:10;stroke-linecap:round;stroke-linejoin:round;}
	.Agua_x0020_iluminada{fill:url(#SVGID_1_);stroke:#FFFFFF;stroke-width:0.25;stroke-miterlimit:1;}
	.Resalte_x0020_en_x0020_negro_x0020_{fill:url(#SVGID_2_);stroke:#FFFFFF;stroke-width:0.3629;stroke-miterlimit:1;}
	.Coco_GS{fill-rule:evenodd;clip-rule:evenodd;fill:#FFDD00;}
	.st0{fill:#322F34;}
	.st1{enable-background:new    ;}
	.st2{fill:#2D9DD5;}
	.st3{fill:#1774A2;}
	.st4{fill:#1E8AC2;}
	.st5{fill:#312E33;}
	.st6{fill:#DEDEDE;}
	.st7{fill:#FDB013;}
	.st8{fill:#D81E18;}
	.st9{fill:#E7A111;}
	.st10{opacity:0.2;fill:#F6F4F1;}
	.st11{opacity:0.4;fill:#F6F4F1;}
</style>
<linearGradient id="SVGID_1_" gradientUnits="userSpaceOnUse" x1="0" y1="0" x2="6.123234e-17" y2="-1">
	<stop  offset="0" style="stop-color:#1D59F4"/>
	<stop  offset="0.618" style="stop-color:#2D65EE"/>
	<stop  offset="0.6292" style="stop-color:#3864F3"/>
	<stop  offset="0.9831" style="stop-color:#00DDFC"/>
</linearGradient>
<linearGradient id="SVGID_2_" gradientUnits="userSpaceOnUse" x1="0" y1="0" x2="6.123234e-17" y2="-1">
	<stop  offset="0" style="stop-color:#060606"/>
	<stop  offset="0.618" style="stop-color:#000000"/>
	<stop  offset="0.6292" style="stop-color:#000000"/>
	<stop  offset="0.9831" style="stop-color:#000000"/>
</linearGradient>
<g>
	<path class="st0" d="M135.1,63.3c-1.6,0-2.9-1.3-2.9-2.9l0-21.9c0-4.6-1.4-7.9-4-9.4c-2.6-1.5-6.2-1-10.1,1.3l-29.4,17
		c-1.4,0.8-3.2,0.3-4-1.1c-0.8-1.4-0.3-3.2,1.1-4l29.4-17c5.8-3.4,11.5-3.8,15.9-1.3c4.4,2.6,6.9,7.7,6.9,14.4l0,21.9
		C138,62,136.7,63.3,135.1,63.3z"/>
	<g>
		<g class="st1">
			<path class="st2" d="M123.7,42.9c0,5.3-1.9,9.1-4.9,10.8l-13.7,8c3-1.8,4.9-5.5,4.9-10.8c0-7.8-4-16.9-9.8-23.3
				c-0.5-0.5-1-1.1-1.5-1.6c-1.7-1.7-3.6-3.2-5.5-4.3c-0.3-0.2-0.6-0.3-0.9-0.5c-0.5-0.3-1-0.5-1.5-0.7h0c-1.7-0.7-3.4-1.1-4.9-1.1
				c-1.7,0-3.3,0.4-4.6,1.1l13.7-8c2.5-1.5,5.9-1.6,9.6,0c0.5,0.2,1,0.4,1.5,0.7c0.3,0.1,0.6,0.3,0.8,0.5c2,1.1,3.8,2.6,5.6,4.3
				c0.5,0.5,1,1,1.5,1.6C119.8,26.1,123.8,35.1,123.7,42.9z"/>
			<g>
				<path class="st3" d="M93.2,21.8c-9.3-5.4-16.9-1.1-16.9,9.6c0,10.7,7.5,23.8,16.8,29.1c9.3,5.4,16.9,1.1,16.9-9.7
					C110,40.2,102.5,27.2,93.2,21.8z"/>
			</g>
		</g>
	</g>
	<g>
		<g class="st1">
			<path class="st4" d="M108.1,51.6c0,5-1.8,8.5-4.6,10.2L62.3,85.7l-8.1,4.7c-1.5-2.9-3-5.9-4.4-8.9c-3.1-6.5-6.5-12.8-10.1-19.1
				c-1.5-2.7-3.1-5.5-4.7-8.2c-0.7-1.1-1.3-2.3-2-3.4L53,39.4l28-16.3c0.2-0.1,0.4-0.2,0.6-0.3c1.1-0.5,2.4-0.8,3.8-0.8h0
				c0.3,0,0.6,0,0.9,0.1c1,0.1,2.1,0.4,3.3,0.8c0.9,0.3,1.8,0.8,2.8,1.3c0.3,0.2,0.6,0.3,0.8,0.5c0.4,0.3,0.8,0.5,1.2,0.8
				c0.3,0.2,0.6,0.4,0.9,0.7c0.2,0.2,0.5,0.4,0.7,0.6c0.4,0.3,0.8,0.7,1.2,1.1c0.3,0.3,0.7,0.7,1,1c1,1.1,2,2.2,3,3.5
				c0.1,0.1,0.1,0.2,0.2,0.3c2.2,3,3.9,6.3,5.1,9.7C107.5,45.4,108.1,48.6,108.1,51.6z"/>
			<path class="st5" d="M63.6,33.1l1.6-0.9c2.9-1.7,6.9-1.4,11.3,1.1c8.8,5.1,15.9,17.3,15.8,27.4c0,3.1-0.7,5.7-1.9,7.6
				c-0.2,0.4-0.5,0.7-0.8,1c-0.3,0.3-0.6,0.6-0.9,0.9s-0.7,0.5-1,0.7l-1.6,0.9c2.9-1.7,4.6-5.2,4.6-10.2c0-10.1-7.1-22.4-15.8-27.4
				c-1.7-1-3.3-1.6-4.8-1.9c-0.5-0.1-1-0.2-1.5-0.2c-0.5,0-0.9-0.1-1.4,0C65.9,32.1,64.7,32.5,63.6,33.1L63.6,33.1L63.6,33.1z"/>
			<path class="st6" d="M44,44.6l1.6-0.9c2.9-1.7,6.9-1.4,11.3,1.1c8.8,5.1,15.9,17.3,15.8,27.4c0,3.1-0.7,5.7-1.9,7.6
				c-0.2,0.4-0.5,0.7-0.8,1c-0.3,0.3-0.6,0.6-0.9,0.9c-0.3,0.3-0.7,0.5-1,0.7l-1.6,0.9c2.9-1.7,4.6-5.2,4.6-10.2
				c0-10.1-7.1-22.4-15.8-27.4c-1.7-1-3.3-1.6-4.8-1.9c-0.5-0.1-1-0.2-1.5-0.2c-0.5,0-0.9-0.1-1.4,0C46.3,43.6,45.1,43.9,44,44.6
				L44,44.6C44,44.6,44,44.6,44,44.6z"/>
			<path class="st7" d="M51.7,39.9l1.6-0.9c2.9-1.7,6.9-1.4,11.3,1.1c8.8,5.1,15.9,17.3,15.8,27.4c0,3.1-0.7,5.7-1.9,7.6
				c-0.2,0.4-0.5,0.7-0.8,1c-0.3,0.3-0.6,0.6-0.9,0.9c-0.3,0.3-0.7,0.5-1,0.7l-1.6,0.9c2.9-1.7,4.6-5.2,4.6-10.2
				c0-10.1-7.1-22.4-15.8-27.4c-1.7-1-3.3-1.6-4.8-1.9c-0.5-0.1-1-0.2-1.5-0.2c-0.5,0-0.9-0.1-1.4,0C54,38.9,52.8,39.3,51.7,39.9
				L51.7,39.9L51.7,39.9z"/>
			<path class="st8" d="M70.5,29.1l1.6-0.9c2.9-1.7,6.9-1.4,11.3,1.1c8.8,5.1,15.9,17.3,15.8,27.4c0,3.1-0.7,5.7-1.9,7.6
				c-0.2,0.4-0.5,0.7-0.8,1c-0.3,0.3-0.6,0.6-0.9,0.9c-0.3,0.3-0.7,0.5-1,0.7L93,67.8c2.9-1.7,4.6-5.2,4.6-10.2
				c0-10.1-7.1-22.4-15.8-27.4c-1.7-1-3.3-1.6-4.8-1.9c-0.5-0.1-1-0.2-1.5-0.2c-0.5,0-0.9-0.1-1.4,0C72.9,28.1,71.6,28.5,70.5,29.1
				L70.5,29.1L70.5,29.1z"/>
			<g>
				<path class="st9" d="M33.7,58.3c-8.8-5.1-15.9-1-15.9,9.1c0,10.1,7.1,22.4,15.8,27.4c8.8,5.1,15.9,1,15.9-9.1
					C49.5,75.6,42.5,63.3,33.7,58.3z"/>
			</g>
		</g>
	</g>
	<path class="st10" d="M98.1,28.8L53.5,54.6l-4.6,2.6l-9.1,5.3l-0.1,0c-0.3-0.3-0.6-0.6-0.9-0.9c-1.7-1.7-3.6-3.2-5.5-4.3
		c-0.6-0.4-1.2-0.7-1.8-0.9l3.7-2.1l5.2-3l4.9-2.8h0l44.3-25.6c0.9,0.3,1.8,0.8,2.8,1.3c0.3,0.2,0.6,0.3,0.8,0.5
		c0.4,0.3,0.8,0.5,1.2,0.8c0.3,0.2,0.6,0.4,0.9,0.7c0.2,0.2,0.5,0.4,0.7,0.6c0.4,0.3,0.8,0.7,1.2,1.1C97.4,28.1,97.8,28.5,98.1,28.8
		z"/>
	<g>
		<g class="st1">
			<path class="st2" d="M63.9,78.5c0,5.3-1.9,9.1-4.9,10.8l-13.8,8c3-1.8,4.9-5.5,4.9-10.8c0-8.1-4.3-17.5-10.4-24
				c-0.3-0.3-0.6-0.6-0.9-0.9c-1.7-1.7-3.6-3.2-5.5-4.3c-0.6-0.4-1.2-0.7-1.8-0.9c-0.2-0.1-0.4-0.2-0.6-0.3h0
				c-1.7-0.7-3.4-1.1-4.9-1.1c-1.7,0-3.3,0.4-4.6,1.1l13.8-8c2.5-1.5,5.9-1.6,9.6,0c0.2,0.1,0.4,0.2,0.6,0.3h0
				c0.6,0.3,1.2,0.6,1.8,0.9c2,1.1,3.8,2.6,5.6,4.3c0.3,0.3,0.6,0.6,0.9,0.9C59.6,61,63.9,70.5,63.9,78.5z"/>
			<g>
				<path class="st3" d="M33.3,57.4C24,52,16.4,56.3,16.3,67c0,10.7,7.5,23.8,16.8,29.1c9.3,5.4,16.9,1.1,16.9-9.7
					C50.1,75.8,42.6,62.8,33.3,57.4z"/>
			</g>
			<g>
				<path class="st2" d="M33.2,67.3c-4.6-2.6-8.3-0.5-8.3,4.7c0,5.3,3.7,11.6,8.2,14.3c4.6,2.6,8.3,0.5,8.3-4.7
					C41.5,76.3,37.8,69.9,33.2,67.3z"/>
			</g>
		</g>
	</g>
	<path class="st11" d="M114,19.7l-11.4,6.6l-2.3,1.3c-0.5-0.5-1-1.1-1.5-1.6c-1.7-1.7-3.6-3.2-5.5-4.3c-0.3-0.2-0.6-0.3-0.9-0.5
		l1.7-1l12-7c0.3,0.1,0.6,0.3,0.8,0.5c2,1.1,3.8,2.6,5.6,4.3C113,18.6,113.5,19.1,114,19.7z"/>
	<g>
		<path class="st0" d="M14.7,133.5c-1.6,0-2.9-1.3-2.9-2.9l0-21.9c0-12.7,8.9-28.1,19.9-34.4c1.4-0.8,3.2-0.3,4,1.1
			c0.8,1.4,0.3,3.2-1.1,4c-9.2,5.3-17,18.8-17,29.4l0,21.9C17.6,132.2,16.3,133.5,14.7,133.5z"/>
	</g>
	<path class="st11" d="M53.5,54.6l-4.6,2.6l-9.1,5.3l-0.1,0c-0.3-0.3-0.6-0.6-0.9-0.9c-1.7-1.7-3.6-3.2-5.5-4.3
		c-0.6-0.4-1.2-0.7-1.8-0.9l3.7-2.1l5.2-3l4.9-2.8h0c0.6,0.3,1.2,0.6,1.8,0.9c2,1.1,3.8,2.6,5.6,4.3C52.9,54,53.2,54.3,53.5,54.6z"
		/>
</g>
</svg>
