<?xml version="1.0" encoding="utf-8"?>
<!-- Generator: Adobe Illustrator 25.0.0, SVG Export Plug-In . SVG Version: 6.00 Build 0)  -->
<svg version="1.1" id="Capa_1" xmlns="http://www.w3.org/2000/svg" xmlns:xlink="http://www.w3.org/1999/xlink" x="0px" y="0px"
	 viewBox="0 0 150 150" style="enable-background:new 0 0 150 150;" xml:space="preserve">
<style type="text/css">
	.st0{fill:#343135;}
	.st1{fill:#464047;}
	.st2{fill:#3C373D;}
	.st3{fill:url(#SVGID_1_);}
	.st4{fill:url(#Cylinder_face_1_);}
	.st5{fill:url(#SVGID_2_);}
	.st6{fill:url(#SVGID_3_);}
	.st7{fill:url(#Cylinder_face_2_);}
	.st8{fill:#E5E1D6;}
	.st9{fill:#8A6AA5;}
	.st10{opacity:0.8;fill:#8A6AA5;}
</style>
<g id="_x32__1_">
	<g id="Axonometric_Cube_1_">
		<polygon id="Cube_face_-_left_97_" class="st0" points="75,146.2 22.4,115.8 22.4,102.9 81.4,129.6 		"/>
		<polygon id="Cube_face_-_top_97_" class="st1" points="75,133.3 22.4,102.9 75,72.6 127.6,102.9 		"/>
		<polygon id="Cube_face_-_right_97_" class="st2" points="127.6,115.8 75,146.2 75,133.3 127.6,102.9 		"/>
	</g>
	<g>
		<g>
			<g>
				<rect x="60.5" y="71.1" class="st2" width="28.8" height="9.9"/>
			</g>
			<g>
				<polygon class="st1" points="60.5,71.1 74.9,62.7 89.4,71.1 				"/>
			</g>
		</g>
		<g>
			<g id="Axonometric_Cylinder_17_">
				<linearGradient id="SVGID_1_" gradientUnits="userSpaceOnUse" x1="38.791" y1="107.5053" x2="111.367" y2="107.5053">
					<stop  offset="0" style="stop-color:#BCB7A7"/>
					<stop  offset="7.354700e-02" style="stop-color:#B7B2A2"/>
					<stop  offset="0.2759" style="stop-color:#B5B0A0"/>
					<stop  offset="0.5574" style="stop-color:#C3BDAD"/>
					<stop  offset="1" style="stop-color:#D6CFBF"/>
				</linearGradient>
				<path class="st3" d="M38.8,93.3v8c0.1,5.3,3.6,10.6,10.6,14.6c14.2,8.2,37.1,8.2,51.3,0c7.2-4.1,10.7-9.6,10.6-15v-8L38.8,93.3z
					"/>
				<linearGradient id="Cylinder_face_1_" gradientUnits="userSpaceOnUse" x1="38.7895" y1="93.1155" x2="111.367" y2="93.1155">
					<stop  offset="0" style="stop-color:#D6CFBF"/>
					<stop  offset="0.4977" style="stop-color:#DFDACD"/>
					<stop  offset="1" style="stop-color:#E5E1D6"/>
				</linearGradient>
				<ellipse id="Cylinder_face_237_" class="st4" cx="75.1" cy="93.1" rx="36.3" ry="21"/>
			</g>
			<linearGradient id="SVGID_2_" gradientUnits="userSpaceOnUse" x1="40.5773" y1="97.2011" x2="109.5806" y2="97.2011">
				<stop  offset="0" style="stop-color:#AAA597"/>
				<stop  offset="0.2759" style="stop-color:#A6A193"/>
				<stop  offset="0.8269" style="stop-color:#BEB8A8"/>
				<stop  offset="1" style="stop-color:#C6C0B0"/>
			</linearGradient>
			<path class="st5" d="M40.6,83.7v7.6c0.1,5,3.4,10.1,10.1,13.9c13.5,7.8,35.3,7.8,48.8,0c6.8-3.9,10.2-9.1,10.1-14.3v-7.6
				L40.6,83.7z"/>
			<g id="Axonometric_Cylinder_13_">
				<linearGradient id="SVGID_3_" gradientUnits="userSpaceOnUse" x1="38.791" y1="64.3413" x2="111.367" y2="64.3413">
					<stop  offset="0" style="stop-color:#BCB7A7"/>
					<stop  offset="7.354700e-02" style="stop-color:#B7B2A2"/>
					<stop  offset="0.2759" style="stop-color:#B5B0A0"/>
					<stop  offset="0.5574" style="stop-color:#C3BDAD"/>
					<stop  offset="1" style="stop-color:#D6CFBF"/>
				</linearGradient>
				<path class="st6" d="M38.8,24.9v58.4C38.9,88.7,42.4,94,49.4,98c14.2,8.2,37.1,8.2,51.3,0c7.2-4.1,10.7-9.6,10.6-15V24.6
					L38.8,24.9z"/>
				<linearGradient id="Cylinder_face_2_" gradientUnits="userSpaceOnUse" x1="86.163" y1="5.5471" x2="62.0932" y2="47.2372">
					<stop  offset="0" style="stop-color:#E5E1D6"/>
					<stop  offset="0.8675" style="stop-color:#DFDACD"/>
					<stop  offset="1" style="stop-color:#DED8CB"/>
				</linearGradient>
				<ellipse id="Cylinder_face_235_" class="st7" cx="75.1" cy="24.7" rx="36.3" ry="21"/>
				<ellipse id="Cylinder_face_204_" class="st8" cx="75.1" cy="23" rx="31.6" ry="18.2"/>
			</g>
		</g>
		<g>
			<g>
				<polygon class="st2" points="127.6,93.1 127.6,103 113.2,111.3 113.3,101.4 119.2,93.4 				"/>
			</g>
			<g>
				<polygon class="st1" points="113.3,84.8 127.6,93.1 113.3,101.4 				"/>
			</g>
		</g>
		<g>
			<g>
				<polygon class="st0" points="75,123.5 74.9,133.4 60.5,125 60.5,115.2 				"/>
			</g>
			<g>
				<polygon class="st2" points="89.3,115.2 89.3,125 74.9,133.4 75,123.5 				"/>
			</g>
			<g>
				<polygon class="st1" points="75,123.5 60.5,115.2 89.3,115.2 				"/>
			</g>
		</g>
		<g>
			<g>
				<polygon class="st0" points="36.9,101.6 36.9,111.4 22.4,103.1 22.4,93.2 				"/>
			</g>
			<g>
				<polygon class="st1" points="22.4,93.2 36.9,84.8 36.9,101.6 				"/>
			</g>
		</g>
	</g>
	<g>
		<path class="st9" d="M46.9,14.8c-6,6.8-4.1,15.4,5.8,21.1c9.9,5.7,24.7,6.8,36.6,3.4L46.9,14.8z"/>
	</g>
	<g>
		<path class="st10" d="M72.2,10.9l-11.2,6.4l-3-1.7l11.2-6.4L72.2,10.9z M79.7,11l-14.8,8.5l3,1.7l14.8-8.5L79.7,11z"/>
		<path class="st10" d="M91.2,21.8L80,28.3l-3-1.7l11.2-6.4L91.2,21.8z M98.6,21.9l-14.8,8.5l3,1.7l14.8-8.5L98.6,21.9z"/>
	</g>
</g>
</svg>
