<?xml version="1.0" encoding="utf-8"?>
<!-- Generator: Adobe Illustrator 25.0.0, SVG Export Plug-In . SVG Version: 6.00 Build 0)  -->
<svg version="1.1" id="Capa_1" xmlns="http://www.w3.org/2000/svg" xmlns:xlink="http://www.w3.org/1999/xlink" x="0px" y="0px"
	 viewBox="0 0 150 150" style="enable-background:new 0 0 150 150;" xml:space="preserve">
<style type="text/css">
	.Sombra_x0020_paralela{fill:none;}
	.Neón_x0020_azul_x0020_grueso{fill:none;stroke:#0073BC;stroke-width:10;stroke-linecap:round;stroke-linejoin:round;}
	.Agua_x0020_iluminada{fill:url(#SVGID_1_);stroke:#FFFFFF;stroke-width:0.25;stroke-miterlimit:1;}
	.Resalte_x0020_en_x0020_negro_x0020_{fill:url(#SVGID_2_);stroke:#FFFFFF;stroke-width:0.3629;stroke-miterlimit:1;}
	.Coco_GS{fill-rule:evenodd;clip-rule:evenodd;fill:#FFDD00;}
	.st0{enable-background:new    ;}
	.st1{fill:#E7E8E8;}
	.st2{fill:#DEDEDE;}
	.st3{fill:#E4E2DF;}
	.st4{clip-path:url(#SVGID_3_);}
	.st5{fill:#1B1C1E;}
	.st6{clip-path:url(#SVGID_4_);}
	.st7{fill:#282A2E;}
	.st8{fill:#35373C;}
	.st9{fill:#202225;}
</style>
<linearGradient id="SVGID_1_" gradientUnits="userSpaceOnUse" x1="0" y1="0" x2="6.123234e-17" y2="-1">
	<stop  offset="0" style="stop-color:#1D59F4"/>
	<stop  offset="0.618" style="stop-color:#2D65EE"/>
	<stop  offset="0.6292" style="stop-color:#3864F3"/>
	<stop  offset="0.9831" style="stop-color:#00DDFC"/>
</linearGradient>
<linearGradient id="SVGID_2_" gradientUnits="userSpaceOnUse" x1="0" y1="0" x2="6.123234e-17" y2="-1">
	<stop  offset="0" style="stop-color:#060606"/>
	<stop  offset="0.618" style="stop-color:#000000"/>
	<stop  offset="0.6292" style="stop-color:#000000"/>
	<stop  offset="0.9831" style="stop-color:#000000"/>
</linearGradient>
<g>
	<g>
		<g>
			<g class="st0">
				<g>
					<polygon class="st1" points="68.7,142.9 67.4,142.1 67.3,103.9 68.6,104.7 					"/>
				</g>
				<g>
					<polygon class="st1" points="70.5,103.6 69.2,102.8 69.2,99.4 70.5,100.1 					"/>
				</g>
				<g>
					<polygon class="st1" points="68.6,104.7 67.3,103.9 67.3,100.5 68.6,101.3 					"/>
				</g>
				<g>
					<polygon class="st2" points="70.5,100.1 70.5,103.6 70.6,141.8 68.7,142.9 68.6,104.7 68.6,101.3 					"/>
				</g>
				<g>
					<polygon class="st3" points="68.6,101.3 67.3,100.5 69.2,99.4 70.5,100.1 					"/>
				</g>
				<g>
					<polygon class="st3" points="66.6,82.2 65.2,81.4 71.1,78 72.5,78.8 					"/>
				</g>
				<g>
					<polygon class="st1" points="66.6,104.5 65.3,103.8 65.2,81.4 66.6,82.2 					"/>
				</g>
				<g>
					<polygon class="st2" points="72.5,78.8 72.5,101.1 70.5,103.6 70.5,100.1 68.6,101.3 68.6,104.7 66.6,104.5 66.6,82.2 					"/>
				</g>
			</g>
		</g>
		<g>
			<g class="st0">
				<g>
					<polygon class="st1" points="82.4,134.9 81.1,134.2 81,96 82.3,96.8 					"/>
				</g>
				<g>
					<polygon class="st1" points="84.2,95.6 82.9,94.9 82.9,91.4 84.2,92.2 					"/>
				</g>
				<g>
					<polygon class="st1" points="82.3,96.8 81,96 80.9,92.5 82.3,93.3 					"/>
				</g>
				<g>
					<polygon class="st2" points="84.2,92.2 84.2,95.6 84.3,133.8 82.4,134.9 82.3,96.8 82.3,93.3 					"/>
				</g>
				<g>
					<polygon class="st3" points="82.3,93.3 80.9,92.5 82.9,91.4 84.2,92.2 					"/>
				</g>
				<g>
					<polygon class="st3" points="80.2,74.2 78.9,73.5 84.8,70.1 86.1,70.8 					"/>
				</g>
				<g>
					<polygon class="st1" points="80.3,96.6 79,95.8 78.9,73.5 80.2,74.2 					"/>
				</g>
				<g>
					<polygon class="st2" points="86.1,70.8 86.2,93.2 84.2,95.6 84.2,92.2 82.3,93.3 82.3,96.8 80.3,96.6 80.2,74.2 					"/>
				</g>
			</g>
		</g>
		<g>
			<g class="st0">
				<g>
					<polygon class="st1" points="94.4,128 93.1,127.2 93,89 94.3,89.8 					"/>
				</g>
				<g>
					<polygon class="st1" points="96.2,88.7 94.9,87.9 94.9,84.5 96.2,85.2 					"/>
				</g>
				<g>
					<polygon class="st1" points="94.3,89.8 93,89 93,85.6 94.3,86.3 					"/>
				</g>
				<g>
					<polygon class="st2" points="96.2,85.2 96.2,88.7 96.3,126.9 94.4,128 94.3,89.8 94.3,86.3 					"/>
				</g>
				<g>
					<polygon class="st3" points="94.3,86.3 93,85.6 94.9,84.5 96.2,85.2 					"/>
				</g>
				<g>
					<polygon class="st3" points="92.2,67.3 90.9,66.5 96.8,63.1 98.1,63.9 					"/>
				</g>
				<g>
					<polygon class="st1" points="92.3,89.6 91,88.8 90.9,66.5 92.2,67.3 					"/>
				</g>
				<g>
					<polygon class="st2" points="98.1,63.9 98.2,86.2 96.2,88.7 96.2,85.2 94.3,86.3 94.3,89.8 92.3,89.6 92.2,67.3 					"/>
				</g>
			</g>
		</g>
		<g>
			<g>
				<g class="st0">
					<g class="st0">
						<defs>
							<path id="SVGID_5_" class="st0" d="M74,26.4l13.6,7.9c1.5,0.9,2.4,2.7,2.5,5.4c0,5.3-3.7,11.8-8.4,14.5l-13.6-7.9
								c4.6-2.7,8.4-9.2,8.4-14.5C76.5,29.1,75.5,27.2,74,26.4z"/>
						</defs>
						<clipPath id="SVGID_3_">
							<use xlink:href="#SVGID_5_"  style="overflow:visible;"/>
						</clipPath>
						<g class="st4">
							<path class="st5" d="M81.7,54.1l-13.6-7.9c4.6-2.7,8.4-9.2,8.4-14.5c0-2.6-0.9-4.5-2.5-5.4l13.6,7.9c1.5,0.9,2.4,2.7,2.5,5.4
								C90.1,45,86.3,51.5,81.7,54.1L81.7,54.1z"/>
						</g>
					</g>
					<g class="st0">
						<defs>
							<path id="SVGID_7_" class="st0" d="M75.7,54.7l-13.6-7.9c1.5,0.9,3.6,0.8,6-0.6l13.6,7.9C79.3,55.5,77.2,55.6,75.7,54.7z"/>
						</defs>
						<clipPath id="SVGID_4_">
							<use xlink:href="#SVGID_7_"  style="overflow:visible;"/>
						</clipPath>
						<g class="st6">
							<path class="st5" d="M75.7,54.7l-13.6-7.9c1.5,0.9,3.6,0.8,6-0.6l13.6,7.9C79.3,55.5,77.2,55.6,75.7,54.7L75.7,54.7z"/>
						</g>
					</g>
					<g>
						<polygon class="st7" points="63.1,95.4 49.5,87.5 49.4,29.6 62.9,37.4 						"/>
					</g>
					<g>
						<polygon class="st8" points="62.9,37.4 49.4,29.6 86.7,8 100.3,15.9 						"/>
					</g>
					<g>
						<path class="st9" d="M62.9,37.4l37.3-21.6l0.2,57.9L63.1,95.4L62.9,37.4z M81.7,54.1c4.6-2.7,8.4-9.2,8.4-14.5
							c0-5.3-3.8-7.5-8.4-4.8c-4.6,2.7-8.4,9.2-8.4,14.5C73.2,54.7,77,56.8,81.7,54.1L81.7,54.1z"/>
					</g>
				</g>
			</g>
		</g>
	</g>
	<g>
		<polygon class="st2" points="76.1,76.1 67.3,81.1 67.3,74.8 76.1,69.7 		"/>
		<polygon class="st2" points="88.4,68.9 79.6,74 79.6,67.6 88.4,62.5 		"/>
		<polygon class="st2" points="88.6,77.5 67.3,89.8 67.3,83.4 88.6,71.1 		"/>
	</g>
</g>
</svg>
