<?xml version="1.0" encoding="utf-8"?>
<!-- Generator: Adobe Illustrator 25.0.0, SVG Export Plug-In . SVG Version: 6.00 Build 0)  -->
<svg version="1.1" id="Capa_1" xmlns="http://www.w3.org/2000/svg" xmlns:xlink="http://www.w3.org/1999/xlink" x="0px" y="0px"
	 viewBox="0 0 150 150" style="enable-background:new 0 0 150 150;" xml:space="preserve">
<style type="text/css">
	.st0{fill:#778D9A;}
	.st1{fill:#DCE2E5;}
	.st2{fill:#B4CDD2;}
	.st3{fill:#B86329;}
	.st4{fill:#E29854;}
	.st5{fill:#DB7E29;}
</style>
<ellipse transform="matrix(5.423412e-03 -1 1 5.423412e-03 -47.6459 202.27)" class="st0" cx="77.9" cy="125.1" rx="19.4" ry="33.6"/>
<polygon class="st0" points="44.3,125.1 44.3,114.8 111.4,114.8 111.4,125.9 84.5,137.4 "/>
<ellipse transform="matrix(5.424626e-03 -1 1 5.424626e-03 -37.4073 192.0865)" class="st1" cx="77.9" cy="114.8" rx="19.4" ry="33.6"/>
<ellipse transform="matrix(5.420812e-03 -1 1 5.420812e-03 -38.4596 191.0286)" class="st2" cx="76.8" cy="114.8" rx="18.4" ry="31.9"/>
<ellipse transform="matrix(5.420298e-03 -1 1 5.420298e-03 -36.3477 191.0335)" class="st3" cx="77.9" cy="113.8" rx="17.3" ry="30"/>
<path class="st4" d="M99.2,123.5c-11.7,6.8-30.7,6.7-42.5-0.1s-11.8-17.8-0.1-24.5c11.7-6.8,30.7-6.7,42.5,0.1
	C110.8,105.7,110.9,116.7,99.2,123.5z"/>
<path class="st5" d="M99.2,120.9c-11.7,6.8-30.7,6.7-42.5-0.1C44.9,114,44.9,103,56.6,96.2s30.7-6.7,42.5,0.1
	C110.8,103.1,110.9,114.1,99.2,120.9z"/>
<ellipse transform="matrix(5.424106e-03 -1 1 5.424106e-03 -28.49 183.2175)" class="st3" cx="77.9" cy="105.9" rx="17.3" ry="30"/>
<path class="st4" d="M99.2,115.6c-11.7,6.8-30.7,6.7-42.5-0.1c-11.8-6.8-11.8-17.8-0.1-24.5c11.7-6.8,30.7-6.7,42.5,0.1
	C110.8,97.9,110.9,108.9,99.2,115.6z"/>
<path class="st5" d="M99.2,113c-11.7,6.8-30.7,6.7-42.5-0.1c-11.8-6.8-11.8-17.8-0.1-24.5s30.7-6.7,42.5,0.1
	C110.8,95.3,110.9,106.2,99.2,113z"/>
<ellipse transform="matrix(5.420239e-03 -1 1 5.420239e-03 -20.6317 175.4024)" class="st3" cx="77.9" cy="98.1" rx="17.3" ry="30"/>
<ellipse transform="matrix(5.420298e-03 -1 1 5.420298e-03 -18.0124 172.7973)" class="st5" cx="77.9" cy="95.5" rx="17.3" ry="30"/>
<ellipse transform="matrix(5.424166e-03 -1 1 5.424166e-03 -15.3934 170.1917)" class="st4" cx="77.9" cy="92.8" rx="17.3" ry="30"/>
<ellipse transform="matrix(5.420239e-03 -1 1 5.420239e-03 -12.7737 167.5869)" class="st3" cx="77.9" cy="90.2" rx="17.3" ry="30"/>
<ellipse transform="matrix(5.420990e-03 -1 1 5.420990e-03 -10.1545 164.9817)" class="st5" cx="77.9" cy="87.6" rx="17.3" ry="30"/>
<path class="st4" d="M99.2,97c-11.7,6.8-30.7,6.7-42.5-0.1s-11.8-17.8-0.1-24.5c11.7-6.8,30.7-6.7,42.5,0.1
	C110.8,79.2,110.9,90.2,99.2,97z"/>
<path class="st5" d="M99.2,94.3c-11.7,6.8-30.7,6.7-42.5-0.1c-11.8-6.8-11.8-17.8-0.1-24.5S87.3,63,99,69.8
	C110.8,76.6,110.9,87.6,99.2,94.3z"/>
<ellipse transform="matrix(5.422730e-03 -1 1 5.422730e-03 -1.9806 156.8518)" class="st3" cx="77.9" cy="79.4" rx="17.3" ry="30"/>
<path class="st4" d="M99.2,89.1c-11.7,6.8-30.7,6.7-42.5-0.1c-11.8-6.8-11.8-17.8-0.1-24.5c11.7-6.8,30.7-6.7,42.5,0.1
	C110.8,71.4,110.9,82.4,99.2,89.1z"/>
<path class="st5" d="M99.2,86.5c-11.7,6.8-30.7,6.7-42.5-0.1c-11.8-6.8-11.8-17.8-0.1-24.5C68.2,55.1,87.3,55.2,99,62
	S110.9,79.7,99.2,86.5z"/>
<ellipse transform="matrix(5.423439e-03 -1 1 5.423439e-03 5.8773 149.0362)" class="st3" cx="77.9" cy="71.6" rx="17.3" ry="30"/>
<ellipse transform="matrix(5.420298e-03 -1 1 5.420298e-03 8.4969 146.4313)" class="st5" cx="77.9" cy="68.9" rx="17.3" ry="30"/>
<ellipse transform="matrix(5.423474e-03 -1 1 5.423474e-03 11.116 143.8259)" class="st4" cx="77.9" cy="66.3" rx="17.3" ry="30"/>
<ellipse transform="matrix(5.420239e-03 -1 1 5.420239e-03 13.7356 141.2209)" class="st3" cx="77.9" cy="63.7" rx="17.3" ry="30"/>
<ellipse transform="matrix(5.419596e-03 -1 1 5.419596e-03 16.3549 138.6158)" class="st5" cx="77.9" cy="61.1" rx="17.3" ry="30"/>
<path class="st4" d="M99.2,70.5c-11.7,6.8-30.7,6.7-42.5-0.1c-11.8-6.8-11.8-17.8-0.1-24.5c11.7-6.8,30.7-6.7,42.5,0.1
	C110.8,52.7,110.9,63.7,99.2,70.5z"/>
<path class="st5" d="M99.2,67.8c-11.7,6.8-30.7,6.7-42.5-0.1C44.9,61,44.9,50,56.6,43.2c11.7-6.8,30.7-6.7,42.5,0.1
	C110.8,50.1,110.9,61.1,99.2,67.8z"/>
<ellipse transform="matrix(5.422711e-03 -1 1 5.422711e-03 24.5287 130.4858)" class="st3" cx="77.9" cy="52.9" rx="17.3" ry="30"/>
<path class="st4" d="M99.2,62.6c-11.7,6.8-30.7,6.7-42.5-0.1C44.9,55.7,44.9,44.7,56.6,38c11.7-6.8,30.7-6.7,42.5,0.1
	C110.8,44.9,110.9,55.8,99.2,62.6z"/>
<path class="st5" d="M99.2,60c-11.7,6.8-30.7,6.7-42.5-0.1c-11.8-6.8-11.8-17.8-0.1-24.5s30.7-6.7,42.5,0.1S110.9,53.2,99.2,60z"/>
<ellipse transform="matrix(5.423423e-03 -1 1 5.423423e-03 32.3866 122.6703)" class="st3" cx="77.9" cy="45.1" rx="17.3" ry="30"/>
<ellipse transform="matrix(5.420298e-03 -1 1 5.420298e-03 35.0062 120.0653)" class="st5" cx="77.9" cy="42.4" rx="17.3" ry="30"/>
<ellipse transform="matrix(5.422763e-03 -1 1 5.422763e-03 37.6254 117.46)" class="st4" cx="77.9" cy="39.8" rx="17.3" ry="30"/>
<ellipse transform="matrix(5.420940e-03 -1 1 5.420940e-03 40.2448 114.8549)" class="st3" cx="77.9" cy="37.2" rx="17.3" ry="30"/>
<ellipse transform="matrix(5.419577e-03 -1 1 5.419577e-03 42.8642 112.2498)" class="st5" cx="77.9" cy="34.6" rx="17.3" ry="30"/>
<ellipse transform="matrix(5.421241e-03 -1 1 5.421241e-03 42.2891 112.8217)" class="st0" cx="77.9" cy="35.2" rx="19.4" ry="33.6"/>
<polygon class="st0" points="44.3,35.2 44.3,24.9 111.4,24.9 111.4,36 84.5,47.5 "/>
<ellipse transform="matrix(5.424019e-03 -1 1 5.424019e-03 52.5275 102.6383)" class="st1" cx="77.9" cy="24.9" rx="19.4" ry="33.6"/>
<ellipse transform="matrix(5.420812e-03 -1 1 5.420812e-03 51.4752 101.58)" class="st2" cx="76.8" cy="24.9" rx="18.4" ry="31.9"/>
</svg>
