<?xml version="1.0" encoding="utf-8"?>
<!-- Generator: Adobe Illustrator 25.0.0, SVG Export Plug-In . SVG Version: 6.00 Build 0)  -->
<svg version="1.1" id="Capa_1" xmlns="http://www.w3.org/2000/svg" xmlns:xlink="http://www.w3.org/1999/xlink" x="0px" y="0px"
	 viewBox="0 0 150 150" style="enable-background:new 0 0 150 150;" xml:space="preserve">
<style type="text/css">
	.st0{fill:#563D7C;}
	.st1{fill:#FFFFFF;}
</style>
<path class="st0" d="M12.5,121.4c0,8.9,7.2,16.1,16.1,16.1h92.8c8.9,0,16.1-7.2,16.1-16.1V28.6c0-8.9-7.2-16.1-16.1-16.1H28.6
	c-8.9,0-16.1,7.2-16.1,16.1V121.4L12.5,121.4z"/>
<path class="st1" d="M64.3,67.8V50.1h15.6c1.5,0,2.9,0.1,4.3,0.4c1.4,0.2,2.6,0.7,3.7,1.3c1.1,0.6,1.9,1.5,2.5,2.6
	c0.6,1.1,1,2.6,1,4.3c0,3.2-1,5.5-2.9,6.9c-1.9,1.4-4.3,2.1-7.3,2.1H64.3L64.3,67.8z M47.7,37.2v75.7h36.7c3.4,0,6.7-0.4,9.9-1.3
	s6.1-2.2,8.6-3.9c2.5-1.8,4.5-4,6-6.8c1.5-2.8,2.2-6.1,2.2-9.9c0-4.7-1.1-8.8-3.4-12.1c-2.3-3.4-5.8-5.7-10.4-7
	c3.4-1.6,6-3.7,7.7-6.3c1.7-2.5,2.6-5.7,2.6-9.5c0-3.5-0.6-6.5-1.7-8.9c-1.2-2.4-2.8-4.3-4.9-5.8c-2.1-1.4-4.7-2.5-7.6-3.1
	c-3-0.6-6.3-1-9.9-1H47.7L47.7,37.2z M64.3,99.9V79.1h18.1c3.6,0,6.5,0.8,8.7,2.5c2.2,1.7,3.3,4.4,3.3,8.3c0,2-0.3,3.6-1,4.9
	s-1.6,2.3-2.7,3c-1.1,0.7-2.4,1.3-3.9,1.6c-1.5,0.3-3,0.5-4.7,0.5H64.3L64.3,99.9z"/>
</svg>
