<?xml version="1.0" encoding="utf-8"?>
<!-- Generator: Adobe Illustrator 25.0.0, SVG Export Plug-In . SVG Version: 6.00 Build 0)  -->
<svg version="1.1" id="Capa_1" xmlns="http://www.w3.org/2000/svg" xmlns:xlink="http://www.w3.org/1999/xlink" x="0px" y="0px"
	 viewBox="0 0 150 150" style="enable-background:new 0 0 150 150;" xml:space="preserve">
<style type="text/css">
	.st0{enable-background:new    ;}
	.st1{fill:#D9D4CD;}
	.st2{fill:#B5B0A0;}
	.st3{fill:#F1EDE7;}
	.st4{fill:url(#SVGID_1_);}
	.st5{fill:url(#SVGID_2_);}
	.st6{fill:#BCB7AA;}
	.st7{fill:#AF502B;}
	.st8{fill:url(#SVGID_3_);}
	.st9{fill:url(#SVGID_4_);}
	.st10{fill:url(#SVGID_5_);}
	.st11{fill:url(#SVGID_6_);}
	.st12{fill:url(#SVGID_7_);}
	.st13{fill:url(#SVGID_8_);}
	.st14{fill:url(#SVGID_9_);}
	.st15{fill:url(#SVGID_10_);}
	.st16{fill:url(#SVGID_11_);}
	.st17{opacity:0.6;fill:url(#SVGID_12_);}
	.st18{opacity:0.6;fill:url(#SVGID_13_);}
	.st19{opacity:0.6;fill:url(#SVGID_14_);}
	.st20{opacity:0.6;fill:url(#SVGID_15_);}
	.st21{opacity:0.6;fill:url(#SVGID_16_);}
	.st22{opacity:0.6;fill:url(#SVGID_17_);}
	.st23{opacity:0.6;fill:url(#SVGID_18_);}
	.st24{opacity:0.6;fill:url(#SVGID_19_);}
	.st25{opacity:0.6;fill:url(#SVGID_20_);}
</style>
<g id="_x37_">
	<g class="st0">
		<path class="st1" d="M62.9,31.7L33,49.1c-5.6,3.3-9.4,9.8-10.1,19C22,77.5,24.4,88.1,28.8,98c0.2,0.5,0.4,0.9,0.6,1.4
			c0.3,0.8,0.2,1.4-0.1,1.6l29.9-17.4c0.1,0,0.1-0.1,0.2-0.2c0,0.1-0.1,0.1-0.2,0.2c3-1.8,2.8-2.4,1.7-4.7
			C50.9,56.7,54.1,37.2,62.9,31.7z"/>
		<g class="st0">
			<g class="st0">
				<path class="st2" d="M84.2,135.5l8,4.6c0,0.1,0,0.2,0.1,0.2l-0.8-0.5l-0.8-0.5l-0.8-0.5l-0.8-0.5l-0.8-0.5l-0.8-0.5l-0.8-0.5
					l-0.8-0.5l-0.8-0.5l-0.8-0.5C84.2,135.7,84.2,135.6,84.2,135.5L84.2,135.5z"/>
			</g>
		</g>
		<path class="st3" d="M95.7,25.6c-11.6-8.1-24.5-12.5-37.4-6.4l66.8,102.9c0.5,0.3,0.9,0.3,1.3,0.1c0.1-0.1,0.2-0.1,0.3-0.2
			l0.3-0.2c3.4-2.4,5.5-8.7,6.5-12.7C139.5,80.9,119.6,42.2,95.7,25.6z"/>
		<linearGradient id="SVGID_1_" gradientUnits="userSpaceOnUse" x1="57.0879" y1="19.7846" x2="118.8151" y2="126.6992">
			<stop  offset="0" style="stop-color:#E9E5E0"/>
			<stop  offset="0.4852" style="stop-color:#E6E2DD"/>
			<stop  offset="0.8505" style="stop-color:#DEDAD3"/>
			<stop  offset="1" style="stop-color:#D9D4CD"/>
		</linearGradient>
		<path class="st4" d="M132,93.5c-0.9-8.7-3.5-17.7-7.3-26.5c-4.4-9.9-10.3-19.3-17.3-27.3c-4.5-5.1-9.3-9.5-14.4-13.1
			c-1.7-1.2-3.4-2.2-5-3.2c-12.4-7.1-23.6-7.8-31.7-3.1L26.3,37.7c8.1-4.7,19.3-4,31.7,3.1c1.6,1,3.3,2,5,3.2
			c5.1,3.6,10,8.1,14.4,13.1c7,8,13,17.4,17.3,27.3c3.9,8.7,6.4,17.8,7.3,26.5c1.2,12.3-0.9,21.9-5.4,28.5c-0.1,0.1-0.2,0.2-0.3,0.3
			l29.9-17.4c0.1-0.1,0.2-0.1,0.3-0.3C131.1,115.4,133.2,105.7,132,93.5z"/>
		<linearGradient id="SVGID_2_" gradientUnits="userSpaceOnUse" x1="80.6321" y1="55.8633" x2="54.4006" y2="96.6307">
			<stop  offset="0" style="stop-color:#D9D4CD"/>
			<stop  offset="1" style="stop-color:#BAB5A8"/>
		</linearGradient>
		<path class="st5" d="M102.1,110.8C99.6,86.2,83.3,58.2,63,44c-1.7-1.2-3.4-2.2-5-3.2c-12.4-7.1-23.6-7.8-32-3
			c-2.4,1.5-9.9,6.1-13.1,17C9.7,66,10.7,79.4,16.1,94.7c0.6,1.8,0.7,2,1.3,2.4c0.1,0.1,8.1,4.7,8.4,4.9c0.2,0.1,1.1,0.4,3.5-0.9
			c0.4-0.2,0.5-0.8,0.1-1.6C24.6,89.1,22,78,22.8,68.1c0.7-9.2,4.5-15.8,10.2-19c11.7-6,32.9,6.5,45.5,26.7
			c15.6,25.2,15,48.3,6.6,57.3c-1.2,1.2-1.6,1.7-0.7,2.7c0,0,6,3.5,7.9,4.5c0.4,0.2,0.8,0.3,1.2,0.3c0.6,0,1.5-0.2,3-1
			c0.1-0.1,0.2-0.2,0.3-0.2C101.2,132.8,103.3,123.1,102.1,110.8z"/>
		<path class="st6" d="M98.2,112.2C95.8,88,79.7,60.6,59.9,46.7c-1.6-1.1-3.3-2.2-4.9-3.1c-24.1-13.9-43.7-2.7-43.8,24.9
			c0,8.9,2,18.3,5.5,27.6c0.1,0.4,0.4,0.7,0.7,0.9c1.8,1,5.6,3.2,8.1,4.7c0.2,0.1,0.3-0.1,0.2-0.3c-4.9-10.6-7.6-22-6.8-32.1
			c1.6-19.5,16.2-27.3,34-18.2c0.7,0.4,1.4,0.7,2.1,1.1c20,11.5,36.1,39.5,36,62.4c0,9.2-2.6,16.2-7.1,20.5c-0.1,0.1,0,0.4,0.2,0.5
			c2.7,1.5,5.4,3.1,8,4.6c0.3,0.2,0.6,0.2,0.7-0.1C97.3,133.7,99.4,124.2,98.2,112.2z"/>
		<g>
			<path class="st7" d="M48.2,49.2L29.6,60c-3.1,1.8-6.9,1.5-9.7-0.7l-6.3-5c-0.4-0.4-0.7-0.9-0.6-1.4c0-0.6,0.4-1,0.8-1.3l0.5-0.3
				c0.8-1.9,1.8-3.6,2.8-5.1l-4.7,2.7c-1.3,0.8-2.2,2.1-2.3,3.7c-0.1,1.5,0.5,3,1.7,4l6.3,5c2.1,1.7,4.7,2.5,7.2,2.5
				c2,0,4-0.5,5.8-1.6l20.6-11.9C50.6,50.1,49.4,49.6,48.2,49.2z"/>
			<path class="st7" d="M54.8,52.3c0,0.6,0,1.1,0,1.7l0.3,0.1c1.3,0.6,0.2,1.9-0.6,2.4L30.4,71.9c-3.9,2.5-8.7,2.9-13,1.1l-6.2-2.7
				c-0.4-0.2-0.5-0.5-0.5-0.7c0-0.1,0-0.5,0.4-0.7c0-1.2,0-2.4,0.1-3.5l-1.6,0.9c-1.2,0.7-2,2.1-1.9,3.5c0.1,1.4,1,2.7,2.3,3.2
				l6.2,2.7c2.1,0.9,4.4,1.4,6.6,1.4c3.2,0,6.4-0.9,9.1-2.7L56.2,59c1.4-0.9,2.8-2.5,2.9-4C57.6,54,56.2,53.1,54.8,52.3z"/>
			<path class="st7" d="M58.3,67.2l-1.7-0.5c0.3,1.2,0.6,2.3,1,3.5c0.3,0.2,0.3,0.5,0.4,0.6c0,0.2,0,0.6-0.4,0.8L32.9,86.5
				c-3.5,2.1-7.7,2.7-11.6,1.7l-8.7-2.3l0.8-0.4c-0.3-1-0.5-2-0.7-3l-1.6,0.8C10,83.8,9.4,85,9.5,86.2c0.2,1.3,1,2.3,2.3,2.6
				l8.7,2.2c1.5,0.4,3,0.6,4.6,0.6c3.3,0,6.5-0.9,9.3-2.6l24.7-14.8c1.3-0.8,2-2.2,1.8-3.8C60.8,68.9,59.8,67.7,58.3,67.2z"/>
		</g>
		<g>
			<linearGradient id="SVGID_3_" gradientUnits="userSpaceOnUse" x1="59.7779" y1="8.242" x2="32.5947" y2="55.3248">
				<stop  offset="0" style="stop-color:#D47434"/>
				<stop  offset="1" style="stop-color:#AF502B"/>
			</linearGradient>
			<path class="st8" d="M30,37.2L65,17c0.9-0.5,2-0.6,2.9-0.4c1.6-0.2,3.2-0.2,4.8-0.1c-2-3-6-3.9-9.2-2.1l-35,20.2
				c-4.9,2.8-6.9,9-4.6,14.2c0.4,0.6,0.8,1.1,1.2,1.7c1.9,1.9,3.6,2.6,5.3,2.6c2,0,3.9-1,5.7-1.9l0.6-0.3c2.1-1.1,4.3-2.3,5.7-3.2
				c-0.3,0-1-0.1-2.2-0.2c-1.7,0-3.2,0.1-4.7,0.5c-0.1,0-0.1,0.1-0.2,0.1l-0.6,0.3c-2.7,1.4-4.3,2.2-6.2,1c-1.4-0.9-2.3-2.4-2.5-4.1
				C25.6,42.3,27.1,38.9,30,37.2z"/>
			<linearGradient id="SVGID_4_" gradientUnits="userSpaceOnUse" x1="73.523" y1="10.028" x2="46.8624" y2="56.2054">
				<stop  offset="0" style="stop-color:#D47434"/>
				<stop  offset="1" style="stop-color:#AF502B"/>
			</linearGradient>
			<path class="st9" d="M88,21l-1.7-2.5c-3.4-4.6-9.6-6-14.6-3.1l-31,17.9c-2.3,1.3-4.1,3.9-4.9,7c-0.8,3.1-0.5,6.2,0.8,8.5l0.9,1.5
				c0.7,1.2,1.9,1.8,3.2,1.8c0.6,0,1.3-0.2,1.9-0.5l4.6-2.7c-1.5-0.5-2.9-0.8-4.3-1L41.1,49c-0.3,0.2-0.8,0.1-1-0.3l-0.9-1.5
				c-0.9-1.6-1.1-3.9-0.5-6.2c0.6-2.3,1.9-4.2,3.5-5.1l31-17.9c2.8-1.6,6.2-1.4,8.7,0.4C84,19.1,86,20,88,21z"/>
			<linearGradient id="SVGID_5_" gradientUnits="userSpaceOnUse" x1="124.5656" y1="93.7281" x2="100.7873" y2="134.9133">
				<stop  offset="0" style="stop-color:#D47434"/>
				<stop  offset="1" style="stop-color:#AF502B"/>
			</linearGradient>
			<path class="st10" d="M136.6,100.7l-2.1-1.2c0,1.1-0.1,2.3-0.2,3.4l0.8,0.5c0.8,0.5,1.3,1.3,1.3,2.3c0,0.9-0.5,1.8-1.3,2.3
				L101.7,127c-2.6,1.5-5.9,1.5-8.6,0l-2.7-1.5c-0.9-0.5-1.4-1.4-1.4-2.5c0-1,0.5-1.9,1.3-2.4c0.2-1.2,0.3-2.4,0.4-3.7l-1.8,1
				c-1.8,1.1-2.9,3-2.9,5.1c0,2.1,1.1,4,2.9,5.1l2.7,1.5c1.8,1,3.8,1.5,5.8,1.5c2,0,4-0.5,5.8-1.5l33.4-19.3c1.8-1,2.8-2.8,2.8-4.9
				C139.4,103.5,138.3,101.7,136.6,100.7z"/>
			<linearGradient id="SVGID_6_" gradientUnits="userSpaceOnUse" x1="123.8536" y1="81.2704" x2="100.5416" y2="121.6479">
				<stop  offset="0" style="stop-color:#D47434"/>
				<stop  offset="1" style="stop-color:#AF502B"/>
			</linearGradient>
			<path class="st11" d="M138.1,91.1c-0.3-1.6-1.4-2.8-3-3.1l-1.6-0.3c0.2,1.1,0.3,2.1,0.5,3.2l0.6,0.1c0.5,0.1,0.6,0.4,0.6,0.6
				c0,0.2,0,0.5-0.4,0.8l-34.9,20.2c-2.4,1.4-5.3,1.6-7.9,0.5l-1.5-0.6c-0.6-0.2-0.9-0.8-1-1.4c0-0.6,0.3-1.2,0.8-1.5l0.3-0.2
				c-0.1-1.1-0.2-2.1-0.4-3.2l-1.4,0.8c-1.5,0.9-2.4,2.5-2.3,4.3c0.1,1.8,1.2,3.3,2.8,4l1.5,0.6c1.5,0.6,3,0.9,4.6,0.9
				c2.1,0,4.1-0.5,6-1.6L136.3,95C137.7,94.2,138.4,92.7,138.1,91.1z"/>
			<linearGradient id="SVGID_7_" gradientUnits="userSpaceOnUse" x1="121.8221" y1="66.4" x2="98.4061" y2="106.9577">
				<stop  offset="0" style="stop-color:#D47434"/>
				<stop  offset="1" style="stop-color:#AF502B"/>
			</linearGradient>
			<path class="st12" d="M135.1,75.7c-0.3-1.7-1.6-3-3.3-3.3l-2.3-0.4c0.4,1.1,0.7,2.1,1,3.2l0.8,0.1c0.6,0.1,0.8,0.6,0.8,0.8
				c0,0.2,0.1,0.7-0.5,1.1L97,97.4c-2,1.1-4.4,1.4-6.6,0.8l-2.7-1l0.4-0.3c-0.3-1-0.6-2-1-3L86,94.7c-1,0.7-1.5,1.9-1.3,3
				c0.2,1.2,1,2.1,2.2,2.5l2.7,0.8c1.1,0.3,2.2,0.5,3.3,0.5c2,0,3.9-0.5,5.7-1.5l34.7-20C134.7,79.1,135.5,77.4,135.1,75.7z"/>
			<linearGradient id="SVGID_8_" gradientUnits="userSpaceOnUse" x1="105.6409" y1="33.4506" x2="80.9058" y2="76.2931">
				<stop  offset="0" style="stop-color:#D47434"/>
				<stop  offset="1" style="stop-color:#AF502B"/>
			</linearGradient>
			<path class="st13" d="M120.2,42.5c-0.1-0.6-0.7-1.6-2.8-1.5l-4.7,0.7c-0.1,0-0.1,0.1-0.2,0.1c0.6,0.8,1.3,1.6,1.9,2.4L78.8,64.6
				c-1.8,1-3.8,1.5-5.8,1.5L71.1,66c-0.6-0.8-1.4-1.5-2.1-2.3l-1.4,0.8c-0.9,0.5-1.4,1.6-1.1,2.6c0.3,1,1.2,1.8,2.2,1.8l4.1,0.1
				c0.1,0,0.3,0,0.4,0c2.5,0,4.9-0.6,7-1.9l37.3-21.5C118.5,45.3,120.6,44.2,120.2,42.5z"/>
			<linearGradient id="SVGID_9_" gradientUnits="userSpaceOnUse" x1="97.4446" y1="22.1117" x2="71.0095" y2="67.8987">
				<stop  offset="0" style="stop-color:#D47434"/>
				<stop  offset="1" style="stop-color:#AF502B"/>
			</linearGradient>
			<path class="st14" d="M104.4,32.9c0,0,0.1,0.1,0.1,0.1c0.7,0.6,1.3,1.3,2,2c0.1-0.1,0.2-0.2,0.2-0.3c2.4-3.3,3.3-4.5,2.2-5.7
				c-1.4-1.5-1.8-1.3-22.1,10.6c-5.4,3.1-12.1,7-20.3,11.8c-1.8,1-3.7,2.7-5.3,4.7c-2.9,3.4-2.3,4.5-2,4.9c0.2,0.4,0.7,0.7,1.1,0.8
				c0.1,0,0.2,0.1,0.4,0.1c0.6,0,1.7-0.3,4.3-1.9c-0.6-0.5-1.1-1-1.7-1.5c0,0,0.3-0.6,1.5-1.9c1-1,2.1-1.9,3.2-2.6
				c8.2-4.7,14.9-8.6,20.3-11.8C95.6,37.9,104.4,32.9,104.4,32.9z"/>
			<linearGradient id="SVGID_10_" gradientUnits="userSpaceOnUse" x1="85.2228" y1="15.3006" x2="59.834" y2="59.2753">
				<stop  offset="0" style="stop-color:#D47434"/>
				<stop  offset="1" style="stop-color:#AF502B"/>
			</linearGradient>
			<path class="st15" d="M55.9,41.9l32.9-19c1.1-0.6,2.4-0.6,3.5,0c0.6,0.3,1.1,0.9,1.4,1.5c0.7,0.4,1.4,0.9,2.1,1.3
				c0.5,0.3,0.9,0.7,1.4,1.1l-0.1-1.1c-0.1-2.3-1.4-4.3-3.4-5.4c-2-1.1-4.4-1.1-6.4,0.1l-32.9,19c-3.2,1.9-5.1,5.5-4.8,9.2l0.4,4.3
				c0,0.5,0.3,1,0.8,1.2c0.2,0.1,0.5,0.2,0.7,0.2c0.3,0,0.5-0.1,0.8-0.2l2.8-1.6c-0.7-0.4-1.4-0.8-2.1-1.1l-0.3-3
				C52.3,45.6,53.7,43.1,55.9,41.9z"/>
			<linearGradient id="SVGID_11_" gradientUnits="userSpaceOnUse" x1="114.7753" y1="49.6349" x2="91.1714" y2="90.5179">
				<stop  offset="0" style="stop-color:#D47434"/>
				<stop  offset="1" style="stop-color:#AF502B"/>
			</linearGradient>
			<path class="st16" d="M128.3,58.8c-0.4-1.6-1.7-2.7-3.3-2.8l-3.1-0.2c0.6,1,1.1,2.1,1.7,3.1l1.2,0.1c0.4,0,0.5,0.3,0.5,0.5
				c0,0.2,0.1,0.5-0.3,0.7L89.4,80.7c-1.5,0.8-3.2,1.1-4.9,0.8l-4.2-0.8l0.8-0.5c-0.5-0.9-1-1.7-1.5-2.6l-0.8,0.5
				c-1.1,0.6-1.7,1.8-1.5,3.1c0.2,1.2,1.1,2.2,2.4,2.4l4.3,0.8c0.6,0.1,1.3,0.2,1.9,0.2c1.8,0,3.5-0.5,5-1.4l35.7-20.6
				C128,61.9,128.7,60.3,128.3,58.8z"/>
		</g>
	</g>
	<g>
		
			<linearGradient id="SVGID_12_" gradientUnits="userSpaceOnUse" x1="57.716" y1="158.1108" x2="41.2606" y2="141.6555" gradientTransform="matrix(0.7071 -0.7071 0.7071 0.7071 -17.8242 45.704)">
			<stop  offset="0" style="stop-color:#D47434"/>
			<stop  offset="1" style="stop-color:#000000"/>
		</linearGradient>
		<path class="st17" d="M135.4,109l-27.5,15.9c-0.2,0.1-0.6,0.1-0.8,0c-0.2-0.1-0.2-0.3,0-0.5l27.5-15.9c0.2-0.1,0.6-0.1,0.8,0
			C135.6,108.7,135.6,108.9,135.4,109z"/>
		
			<linearGradient id="SVGID_13_" gradientUnits="userSpaceOnUse" x1="66.6387" y1="146.548" x2="50.1834" y2="130.0927" gradientTransform="matrix(0.7071 -0.7071 0.7071 0.7071 -17.8242 45.704)">
			<stop  offset="0" style="stop-color:#D47434"/>
			<stop  offset="1" style="stop-color:#000000"/>
		</linearGradient>
		<path class="st18" d="M133.5,94.5l-27.5,15.9c-0.2,0.1-0.6,0.1-0.8,0c-0.2-0.1-0.2-0.3,0-0.5L132.7,94c0.2-0.1,0.6-0.1,0.8,0
			C133.8,94.2,133.8,94.4,133.5,94.5z"/>
		
			<linearGradient id="SVGID_14_" gradientUnits="userSpaceOnUse" x1="74.9671" y1="133.7216" x2="58.5117" y2="117.2663" gradientTransform="matrix(0.7071 -0.7071 0.7071 0.7071 -17.8242 45.704)">
			<stop  offset="0" style="stop-color:#D47434"/>
			<stop  offset="1" style="stop-color:#000000"/>
		</linearGradient>
		<path class="st19" d="M130.4,79.5l-27.5,15.9c-0.2,0.1-0.6,0.1-0.8,0c-0.2-0.1-0.2-0.3,0-0.5l27.5-15.9c0.2-0.1,0.6-0.1,0.8,0
			C130.6,79.2,130.6,79.4,130.4,79.5z"/>
		
			<linearGradient id="SVGID_15_" gradientUnits="userSpaceOnUse" x1="81.9677" y1="116.7314" x2="65.5123" y2="100.2761" gradientTransform="matrix(0.7071 -0.7071 0.7071 0.7071 -17.8242 45.704)">
			<stop  offset="0" style="stop-color:#D47434"/>
			<stop  offset="1" style="stop-color:#000000"/>
		</linearGradient>
		<path class="st20" d="M123.3,62.6L95.8,78.5c-0.2,0.1-0.6,0.1-0.8,0c-0.2-0.1-0.2-0.3,0-0.5l27.5-15.9c0.2-0.1,0.6-0.1,0.8,0
			C123.5,62.2,123.5,62.5,123.3,62.6z"/>
		
			<linearGradient id="SVGID_16_" gradientUnits="userSpaceOnUse" x1="87.4559" y1="98.5062" x2="71.0006" y2="82.0508" gradientTransform="matrix(0.7071 -0.7071 0.7071 0.7071 -17.8242 45.704)">
			<stop  offset="0" style="stop-color:#D47434"/>
			<stop  offset="1" style="stop-color:#000000"/>
		</linearGradient>
		<path class="st21" d="M114.3,45.8L86.8,61.7c-0.2,0.1-0.6,0.1-0.8,0c-0.2-0.1-0.2-0.3,0-0.5l27.5-15.9c0.2-0.1,0.6-0.1,0.8,0
			C114.5,45.5,114.5,45.7,114.3,45.8z"/>
		
			<linearGradient id="SVGID_17_" gradientUnits="userSpaceOnUse" x1="88.9238" y1="80.4837" x2="72.4684" y2="64.0284" gradientTransform="matrix(0.7071 -0.7071 0.7071 0.7071 -17.8242 45.704)">
			<stop  offset="0" style="stop-color:#D47434"/>
			<stop  offset="1" style="stop-color:#000000"/>
		</linearGradient>
		<path class="st22" d="M102.6,32L75.1,47.9c-0.2,0.1-0.6,0.1-0.8,0c-0.2-0.1-0.2-0.3,0-0.5l27.5-15.9c0.2-0.1,0.6-0.1,0.8,0
			C102.8,31.7,102.8,31.9,102.6,32z"/>
		
			<linearGradient id="SVGID_18_" gradientUnits="userSpaceOnUse" x1="84.8403" y1="62.3714" x2="68.385" y2="45.9161" gradientTransform="matrix(0.7071 -0.7071 0.7071 0.7071 -17.8242 45.704)">
			<stop  offset="0" style="stop-color:#D47434"/>
			<stop  offset="1" style="stop-color:#000000"/>
		</linearGradient>
		<path class="st23" d="M86.9,22.1L59.4,38c-0.2,0.1-0.6,0.1-0.8,0c-0.2-0.1-0.2-0.3,0-0.5l27.5-15.9c0.2-0.1,0.6-0.1,0.8,0
			C87.1,21.8,87.1,22,86.9,22.1z"/>
		
			<linearGradient id="SVGID_19_" gradientUnits="userSpaceOnUse" x1="78.6555" y1="48.1579" x2="62.2001" y2="31.7025" gradientTransform="matrix(0.7071 -0.7071 0.7071 0.7071 -17.8242 45.704)">
			<stop  offset="0" style="stop-color:#D47434"/>
			<stop  offset="1" style="stop-color:#000000"/>
		</linearGradient>
		<path class="st24" d="M72.5,16.4L45,32.3c-0.2,0.1-0.6,0.1-0.8,0c-0.2-0.1-0.2-0.3,0-0.5L71.7,16c0.2-0.1,0.6-0.1,0.8,0
			C72.7,16.1,72.7,16.3,72.5,16.4z"/>
		
			<linearGradient id="SVGID_20_" gradientUnits="userSpaceOnUse" x1="71.7457" y1="41.2481" x2="55.2904" y2="24.7928" gradientTransform="matrix(0.7071 -0.7071 0.7071 0.7071 -17.8242 45.704)">
			<stop  offset="0" style="stop-color:#D47434"/>
			<stop  offset="1" style="stop-color:#000000"/>
		</linearGradient>
		<path class="st25" d="M62.7,16.4L35.2,32.3c-0.2,0.1-0.6,0.1-0.8,0c-0.2-0.1-0.2-0.3,0-0.5L61.9,16c0.2-0.1,0.6-0.1,0.8,0
			C62.9,16.1,62.9,16.3,62.7,16.4z"/>
	</g>
</g>
</svg>
