<?xml version="1.0" encoding="utf-8"?>
<!-- Generator: Adobe Illustrator 25.0.0, SVG Export Plug-In . SVG Version: 6.00 Build 0)  -->
<svg version="1.1" id="Capa_1" xmlns="http://www.w3.org/2000/svg" xmlns:xlink="http://www.w3.org/1999/xlink" x="0px" y="0px"
	 viewBox="0 0 150 150" style="enable-background:new 0 0 150 150;" xml:space="preserve">
<style type="text/css">
	.st0{fill:#8CC84B;}
</style>
<g>
	<path class="st0" d="M69.7,11.4c3.2-1.8,7.4-1.9,10.6,0c16.2,9.2,32.4,18.3,48.6,27.5c3,1.7,5.1,5.1,5.1,8.6v55.1
		c0,3.7-2.2,7.1-5.4,8.8c-16.1,9.1-32.3,18.2-48.4,27.3c-3.3,1.9-7.6,1.7-10.8-0.3c-4.8-2.8-9.7-5.6-14.5-8.4c-1-0.6-2.1-1.1-2.8-2
		c0.6-0.8,1.7-0.9,2.6-1.3c2-0.6,3.9-1.7,5.7-2.7c0.5-0.3,1-0.2,1.5,0.1c4.1,2.4,8.2,4.8,12.4,7.2c0.9,0.5,1.8-0.2,2.5-0.6
		c15.8-9,31.7-17.9,47.6-26.8c0.6-0.3,0.9-0.9,0.9-1.5c0-18.2,0-36.3,0-54.5c0.1-0.7-0.4-1.4-1-1.7C108.1,37,92,27.9,75.9,18.8
		c-0.6-0.4-1.3-0.4-1.9,0C58,27.9,41.9,37,25.8,46.1c-0.7,0.3-1.1,1-1,1.7c0,18.2,0,36.3,0,54.5c-0.1,0.6,0.3,1.3,0.9,1.5
		c4.3,2.4,8.6,4.9,12.9,7.3c2.4,1.3,5.4,2.1,8.1,1.1c2.4-0.8,4-3.2,4-5.7c0-18.1,0-36.1,0-54.2c-0.1-0.8,0.7-1.5,1.5-1.4
		c2.1,0,4.1,0,6.2,0c0.9,0,1.5,0.8,1.3,1.7c0,18.2,0,36.4,0,54.5c0,4.8-2,10.1-6.5,12.5c-5.5,2.9-12.3,2.3-17.8-0.5
		c-4.7-2.4-9.2-5.1-13.9-7.7c-3.2-1.7-5.5-5.2-5.4-8.8V47.5c0-3.6,2.1-7,5.2-8.7C37.4,29.6,53.5,20.5,69.7,11.4z"/>
	<path class="st0" d="M83.8,49.5c7-0.5,14.6-0.3,20.9,3.2c4.9,2.7,7.6,8.2,7.7,13.7c-0.1,0.7-0.9,1.1-1.6,1.1c-2,0-4.1,0-6.1,0
		c-0.9,0-1.4-0.8-1.5-1.5c-0.6-2.6-2-5.2-4.5-6.4c-3.8-1.9-8.1-1.8-12.2-1.8c-3,0.2-6.2,0.4-8.8,2.2c-2,1.3-2.5,4-1.8,6.2
		c0.7,1.6,2.5,2.1,3.9,2.5c8.5,2.2,17.5,2,25.8,4.9c3.4,1.2,6.8,3.5,8,7.1c1.5,4.8,0.9,10.6-2.6,14.5c-2.8,3.2-6.9,4.9-10.9,5.9
		c-5.4,1.2-11,1.2-16.5,0.7c-5.1-0.6-10.5-1.9-14.5-5.4c-3.4-3-5.1-7.6-4.9-12c0-0.7,0.8-1.3,1.5-1.2c2.1,0,4.1,0,6.2,0
		c0.8-0.1,1.4,0.7,1.5,1.4c0.4,2.5,1.3,5.1,3.5,6.6c4.2,2.7,9.4,2.5,14.2,2.6c4-0.2,8.4-0.2,11.7-2.9c1.7-1.5,2.2-4,1.8-6.2
		c-0.5-1.8-2.4-2.7-4-3.2c-8.4-2.7-17.5-1.7-25.8-4.7c-3.4-1.2-6.6-3.4-7.9-6.9c-1.8-4.9-1-11,2.8-14.7
		C73.3,51.5,78.7,50.1,83.8,49.5L83.8,49.5z"/>
</g>
</svg>
