<?xml version="1.0" encoding="utf-8"?>
<!-- Generator: Adobe Illustrator 25.0.0, SVG Export Plug-In . SVG Version: 6.00 Build 0)  -->
<svg version="1.1"
	 id="svg2" xmlns:cc="http://web.resource.org/cc/" xmlns:dc="http://purl.org/dc/elements/1.1/" xmlns:inkscape="http://www.inkscape.org/namespaces/inkscape" xmlns:rdf="http://www.w3.org/1999/02/22-rdf-syntax-ns#" xmlns:sodipodi="http://sodipodi.sourceforge.net/DTD/sodipodi-0.dtd" xmlns:svg="http://www.w3.org/2000/svg"
	 xmlns="http://www.w3.org/2000/svg" xmlns:xlink="http://www.w3.org/1999/xlink" x="0px" y="0px" viewBox="0 0 401 230"
	 style="enable-background:new 0 0 401 230;" xml:space="preserve">
<style type="text/css">
	.st0{fill:none;}
	.st1{fill-rule:evenodd;clip-rule:evenodd;fill:#FFFFFF;stroke:#FFFFFF;stroke-width:0.8;stroke-miterlimit:3.2;}
	.st2{fill-rule:evenodd;clip-rule:evenodd;fill:#FFFFFF;stroke:#FFFFFF;}
	.st3{fill:#FFFFFF;}
	.st4{font-family:'ArialMT';}
	.st5{font-size:28px;}
	.st6{fill:none;stroke:#FFFFFF;stroke-miterlimit:10;}
	.st7{fill:#A87D26;stroke:#A87D26;stroke-width:6;}
</style>
<sodipodi:namedview  bordercolor="#666666" borderopacity="1.0" height="230px" id="base" inkscape:current-layer="layer1" inkscape:cx="248.766" inkscape:cy="241.23474" inkscape:document-units="px" inkscape:pageopacity="0.0" inkscape:pageshadow="2" inkscape:window-height="690" inkscape:window-width="1014" inkscape:window-x="0" inkscape:window-y="25" inkscape:zoom="0.5" pagecolor="#ffffff" width="401px">
	</sodipodi:namedview>
<path class="st0" d="M-10-833.7"/>
<path id="path2932" class="st1" d="M44.5,31.5l4,4l-4-14l-4,14L44.5,31.5z"/>
<path id="path1872" class="st2" d="M44.5,21.5"/>
<path class="st2" d="M-10-833.7"/>
<path id="path2932_1_" class="st1" d="M390.5,180.4l-4,4l14-4l-14-4L390.5,180.4z"/>
<path id="path1874" class="st2" d="M400.5,180.4"/>
<g id="g3661" transform="translate(-2,37.2567)">
	<text transform="matrix(1 0 0 1 55.6599 -5.5879)" class="st3 st4 st5">V</text>
	<text transform="matrix(1 0 0 1 55.6599 -5.5879)" class="st6 st4 st5">V</text>
	<text transform="matrix(1 0 0 1 71.9848 1.5847)" class="st3 st4 st5">o</text>
	<text transform="matrix(1 0 0 1 71.9848 1.5847)" class="st6 st4 st5">o</text>
</g>
<text transform="matrix(1 0 0 1 374.7463 171.1714)" class="st3 st4 st5">t</text>
<text transform="matrix(1 0 0 1 374.7463 171.1714)" class="st6 st4 st5">t</text>
<text transform="matrix(1 0 0 1 16.0203 116.3998)" class="st3 st4 st5">+</text>
<text transform="matrix(1 0 0 1 16.0203 116.3998)" class="st6 st4 st5">+</text>
<path id="path3667" class="st7" d="M44.5,77.4h311"/>
<line class="st6" x1="44.5" y1="28.6" x2="44.5" y2="204.9"/>
<line class="st6" x1="390.5" y1="180.4" x2="17.1" y2="180.4"/>
</svg>
