<?xml version="1.0" encoding="utf-8"?>
<!-- Generator: Adobe Illustrator 25.0.0, SVG Export Plug-In . SVG Version: 6.00 Build 0)  -->
<svg version="1.1" id="Capa_1" xmlns="http://www.w3.org/2000/svg" xmlns:xlink="http://www.w3.org/1999/xlink" x="0px" y="0px"
	 viewBox="0 0 78 128" style="enable-background:new 0 0 78 128;" xml:space="preserve">
<style type="text/css">
	.st0{fill:none;stroke:#795548;stroke-width:3;stroke-miterlimit:10;}
	.st1{fill:url(#SVGID_1_);}
	.st2{opacity:0.2;}
	.st3{fill:url(#SVGID_2_);}
	.st4{fill:url(#SVGID_3_);}
	.st5{fill:#424242;}
	.st6{fill:url(#SVGID_4_);}
	.st7{fill:url(#SVGID_5_);}
	.st8{display:none;}
	.st9{display:inline;opacity:0.3;}
	.st10{opacity:0.6;}
	.st11{opacity:0.61;fill:none;stroke:#000000;stroke-width:0.2625;stroke-miterlimit:10;enable-background:new    ;}
	.st12{opacity:0.61;fill:none;stroke:#000000;stroke-width:0.25;stroke-miterlimit:10;enable-background:new    ;}
	.st13{opacity:0.61;}
	.st14{opacity:0.61;fill:none;stroke:#000000;stroke-width:0.2578;stroke-miterlimit:10;enable-background:new    ;}
	.st15{opacity:0.61;fill:none;stroke:#000000;stroke-width:0.2567;stroke-miterlimit:10;enable-background:new    ;}
	.st16{opacity:0.61;fill:none;stroke:#000000;stroke-width:0.2627;stroke-miterlimit:10;enable-background:new    ;}
	.st17{clip-path:url(#SVGID_7_);}
	.st18{fill:none;stroke:#000000;stroke-width:0.25;stroke-miterlimit:10;}
	.st19{opacity:0.3;fill:#F44336;enable-background:new    ;}
</style>
<g id="图层_3">
	<g>
		<path class="st0" d="M35.7,100.6c-2.1,5.3,4.1,9.5,0.6,14c-6.5,8.2-19.2-8.9-27.8,12.5"/>
		<g>
			
				<radialGradient id="SVGID_1_" cx="29.678" cy="32.6973" r="7.6573" gradientTransform="matrix(0.9849 -0.1732 -0.1732 -0.9849 12.0976 135.8685)" gradientUnits="userSpaceOnUse">
				<stop  offset="0.258" style="stop-color:#FFE243"/>
				<stop  offset="0.4277" style="stop-color:#FED33F"/>
				<stop  offset="0.4777" style="stop-color:#FDD13B"/>
				<stop  offset="0.6055" style="stop-color:#FACB32"/>
				<stop  offset="0.782" style="stop-color:#F4C11E"/>
			</radialGradient>
			<path class="st1" d="M44.3,104.8l-1.1,0.3c-4.6,1.2-9.2,1.4-13.8,0.6l0,0l0.2-0.8c0.9-5.2,3.1-10.2,6.3-14.4l0,0l0,0
				c1.7,5,4.3,9.6,7.8,13.7L44.3,104.8z"/>
			<g class="st2">
				
					<radialGradient id="SVGID_2_" cx="29.678" cy="97.3152" r="7.6638" gradientTransform="matrix(0.9849 -0.1732 0.1732 0.9849 -10.4142 7.8325)" gradientUnits="userSpaceOnUse">
					<stop  offset="0.258" style="stop-color:#FFE243"/>
					<stop  offset="0.4277" style="stop-color:#FED33F"/>
					<stop  offset="0.4777" style="stop-color:#FDD13B"/>
					<stop  offset="0.6055" style="stop-color:#FACB32"/>
					<stop  offset="0.782" style="stop-color:#F4C11E"/>
				</radialGradient>
				<path class="st3" d="M35.3,97c1.1,2,2.2,4.1,3.6,6c-2,0.2-3.9,0.4-5.9,0.2C33.6,101,34.3,99,35.3,97 M35.9,90.5
					c-3.2,4.3-5.3,9.3-6.3,14.4l-0.2,0.8c3.7,0.6,7.3,0.6,11,0c1-0.2,2-0.3,2.8-0.6l1.1-0.3l-0.6-0.7
					C40.2,100.1,37.6,95.5,35.9,90.5L35.9,90.5L35.9,90.5z"/>
			</g>
			
				<radialGradient id="SVGID_3_" cx="57.263" cy="102.0136" r="46.0675" gradientTransform="matrix(0.9982 6.005515e-02 -6.005515e-02 0.9982 -21.0777 -81.8476)" gradientUnits="userSpaceOnUse">
				<stop  offset="0.258" style="stop-color:#FFE243"/>
				<stop  offset="0.4277" style="stop-color:#FED33F"/>
				<stop  offset="0.4777" style="stop-color:#FDD13B"/>
				<stop  offset="0.6055" style="stop-color:#FACB32"/>
				<stop  offset="0.782" style="stop-color:#F4C11E"/>
			</radialGradient>
			<path class="st4" d="M77.6,41.8c-2,32.6-30.1,52.3-41.9,51.5s-37.2-26-35.3-56.1C1.7,16,19.9-0.2,41.3,1.1S78.8,20.6,77.6,41.8z"
				/>
			<g class="st2">
				<path class="st5" d="M31.8,1.7l0.5,3l0.2,0c2.8-0.5,5.7-0.7,8.4-0.5C50.5,4.7,59.2,8.9,65.5,16s9.5,16.2,8.9,25.7
					C73.5,57.8,66.1,69.2,60,76c-8.1,9.1-16.8,13.4-21.9,14.3c-0.9,0.2-1.7,0.2-2.4,0.2c-4.5-0.3-13.1-5.8-20.5-15.8
					c-4.9-6.5-13-20.2-12-37.2c1.1-16.6,13-30.1,29.2-33L31.8,1.7 M32.2,1.6C15,4.6,1.5,19.1,0.4,37.2C-1.5,67.4,24,92.7,35.7,93.4
					c0.9,0,2-0.1,3.1-0.2c13-2.3,37-21.3,38.7-51.3C78.7,20.6,62.5,2.3,41.2,1C38.2,0.8,35.1,1.1,32.2,1.6L32.2,1.6z"/>
			</g>
			
				<radialGradient id="SVGID_4_" cx="30.998" cy="38.2348" r="4.7331" gradientTransform="matrix(0.9849 -0.1732 -0.1732 -0.9849 12.0976 135.8685)" gradientUnits="userSpaceOnUse">
				<stop  offset="0.258" style="stop-color:#FFE243"/>
				<stop  offset="0.4277" style="stop-color:#FED33F"/>
				<stop  offset="0.4777" style="stop-color:#FDD13B"/>
				<stop  offset="0.6055" style="stop-color:#FACB32"/>
				<stop  offset="0.782" style="stop-color:#F4C11E"/>
			</radialGradient>
			<path class="st6" d="M38.5,96l-5.3-0.3c-1.6-0.1-2.9-1.5-2.8-3.3l0,0c0.1-1.6,1.5-2.9,3.3-2.8l5.3,0.3c1.6,0.1,2.9,1.5,2.8,3.3
				l0,0C41.6,94.8,40.1,96.1,38.5,96z"/>
			<g>
				
					<radialGradient id="SVGID_5_" cx="31.003" cy="91.7802" r="4.7358" gradientTransform="matrix(0.9849 -0.1732 0.1732 0.9849 -10.4142 7.8325)" gradientUnits="userSpaceOnUse">
					<stop  offset="0.258" style="stop-color:#FFE243"/>
					<stop  offset="0.4277" style="stop-color:#FED33F"/>
					<stop  offset="0.4777" style="stop-color:#FDD13B"/>
					<stop  offset="0.6055" style="stop-color:#FACB32"/>
					<stop  offset="0.782" style="stop-color:#F4C11E"/>
				</radialGradient>
				<path class="st7" d="M33.2,91.7L33.2,91.7c0.1,0,0.2,0,0.2,0l5.3,0.3c0.3,0,0.5,0.1,0.7,0.4c0.1,0.2,0.3,0.5,0.2,0.8
					c0,0.5-0.4,0.9-0.8,1c-0.1,0-0.2,0-0.2,0l-5.3-0.3c-0.5,0-1-0.5-1-1C32.3,92.1,32.7,91.8,33.2,91.7 M32.8,89.7
					c-1.4,0.2-2.4,1.3-2.6,2.8c-0.1,1.6,1.2,3.1,2.8,3.3l5.3,0.3c0.2,0.1,0.5,0,0.7,0c1.4-0.2,2.4-1.3,2.5-2.8l0,0
					c0.1-1.6-1.2-3.1-2.8-3.3l-5.2-0.3C33.3,89.6,33.1,89.6,32.8,89.7L32.8,89.7z"/>
			</g>
		</g>
	</g>
</g>
<g id="Layer_2_x5F_复制" class="st8">
	<g class="st9">
		<g class="st10">
			<circle class="st11" cx="33.3" cy="64" r="28"/>
			<line class="st12" x1="53.3" y1="0" x2="53.3" y2="128"/>
			<line class="st12" x1="13.3" y1="0" x2="13.3" y2="128"/>
			<line class="st12" x1="33.3" y1="0" x2="33.3" y2="128"/>
			<line class="st12" x1="97.3" y1="64" x2="-30.7" y2="64"/>
			<line class="st12" x1="97.3" y1="44" x2="-30.7" y2="44"/>
			<line class="st12" x1="97.3" y1="83.8" x2="-30.7" y2="83.8"/>
			<line class="st12" x1="97.3" y1="128" x2="-30.7" y2="0"/>
			<line class="st12" x1="-30.7" y1="128" x2="97.3" y2="0"/>
			<g class="st13">
				<path d="M33.3,4.3C66.2,4.3,93,31.1,93,64s-26.8,59.7-59.7,59.7S-26.4,96.9-26.4,64S0.4,4.3,33.3,4.3 M33.3,4
					c-33.1,0-60,26.9-60,60s26.9,60,60,60s60-26.9,60-60S66.4,4,33.3,4L33.3,4z"/>
			</g>
			<path class="st14" d="M77.3,116h-88c-4.4,0-8-3.6-8-8V20c0-4.4,3.6-8,8-8h88c4.4,0,8,3.6,8,8v87.9C85.3,112.4,81.7,116,77.3,116z
				"/>
			<path class="st15" d="M69.1,124H-2.7c-4.4,0-8-3.6-8-8V12c0-4.4,3.6-8,8-8h71.8c4.4,0,8,3.6,8,8v104
				C77.1,120.4,73.5,124,69.1,124z"/>
			<path class="st16" d="M83.1,108h-99.6c-5.6,0-10.2-4.6-10.2-10.2V30.3c0-5.6,4.6-10.2,10.2-10.2H83c5.6,0,10.2,4.6,10.2,10.2
				v67.5C93.3,103.4,88.7,108,83.1,108z"/>
		</g>
		<g>
			<g class="st2">
				<g>
					<g>
						<defs>
							<rect id="SVGID_6_" x="-30.7" width="128" height="128"/>
						</defs>
						<clipPath id="SVGID_7_">
							<use xlink:href="#SVGID_6_"  style="overflow:visible;"/>
						</clipPath>
						<g class="st17">
							<g>
								<line class="st18" x1="-58.7" y1="160" x2="-58.7" y2="-32"/>
								<line class="st18" x1="-54.7" y1="160" x2="-54.7" y2="-32"/>
								<line class="st18" x1="-50.7" y1="160" x2="-50.7" y2="-32"/>
								<line class="st18" x1="-46.7" y1="160" x2="-46.7" y2="-32"/>
								<line class="st18" x1="-42.7" y1="160" x2="-42.7" y2="-32"/>
								<line class="st18" x1="-38.7" y1="160" x2="-38.7" y2="-32"/>
								<line class="st18" x1="-34.7" y1="160" x2="-34.7" y2="-32"/>
								<line class="st18" x1="-30.7" y1="160" x2="-30.7" y2="-32"/>
								<line class="st18" x1="-26.7" y1="160" x2="-26.7" y2="-32"/>
								<line class="st18" x1="-22.7" y1="160" x2="-22.7" y2="-32"/>
								<line class="st18" x1="-18.7" y1="160" x2="-18.7" y2="-32"/>
								<line class="st18" x1="-14.7" y1="160" x2="-14.7" y2="-32"/>
								<line class="st18" x1="-10.7" y1="160" x2="-10.7" y2="-32"/>
								<line class="st18" x1="-6.7" y1="160" x2="-6.7" y2="-32"/>
								<line class="st18" x1="-2.7" y1="160" x2="-2.7" y2="-32"/>
								<line class="st18" x1="1.3" y1="160" x2="1.3" y2="-32"/>
								<line class="st18" x1="5.3" y1="160" x2="5.3" y2="-32"/>
								<line class="st18" x1="9.3" y1="160" x2="9.3" y2="-32"/>
								<line class="st18" x1="13.3" y1="160" x2="13.3" y2="-32"/>
								<line class="st18" x1="17.3" y1="160" x2="17.3" y2="-32"/>
								<line class="st18" x1="21.3" y1="160" x2="21.3" y2="-32"/>
								<line class="st18" x1="25.3" y1="160" x2="25.3" y2="-32"/>
								<line class="st18" x1="29.3" y1="160" x2="29.3" y2="-32"/>
								<line class="st18" x1="33.3" y1="160" x2="33.3" y2="-32"/>
								<line class="st18" x1="37.3" y1="160" x2="37.3" y2="-32"/>
								<line class="st18" x1="41.3" y1="160" x2="41.3" y2="-32"/>
								<line class="st18" x1="45.3" y1="160" x2="45.3" y2="-32"/>
								<line class="st18" x1="49.3" y1="160" x2="49.3" y2="-32"/>
								<line class="st18" x1="53.3" y1="160" x2="53.3" y2="-32"/>
								<line class="st18" x1="57.3" y1="160" x2="57.3" y2="-32"/>
								<line class="st18" x1="61.3" y1="160" x2="61.3" y2="-32"/>
								<line class="st18" x1="65.3" y1="160" x2="65.3" y2="-32"/>
								<line class="st18" x1="69.3" y1="160" x2="69.3" y2="-32"/>
								<line class="st18" x1="73.3" y1="160" x2="73.3" y2="-32"/>
								<line class="st18" x1="77.3" y1="160" x2="77.3" y2="-32"/>
								<line class="st18" x1="81.3" y1="160" x2="81.3" y2="-32"/>
								<line class="st18" x1="85.3" y1="160" x2="85.3" y2="-32"/>
								<line class="st18" x1="89.3" y1="160" x2="89.3" y2="-32"/>
								<line class="st18" x1="93.3" y1="160" x2="93.3" y2="-32"/>
								<line class="st18" x1="97.3" y1="160" x2="97.3" y2="-32"/>
								<line class="st18" x1="101.3" y1="160" x2="101.3" y2="-32"/>
								<line class="st18" x1="105.3" y1="160" x2="105.3" y2="-32"/>
								<line class="st18" x1="106.3" y1="166.1" x2="106.3" y2="-26"/>
								<line class="st18" x1="113.3" y1="160" x2="113.3" y2="-32"/>
								<line class="st18" x1="117.3" y1="160" x2="117.3" y2="-32"/>
								<line class="st18" x1="121.3" y1="160" x2="121.3" y2="-32"/>
								<line class="st18" x1="125.3" y1="160" x2="125.3" y2="-32"/>
							</g>
							<g>
								<line class="st18" x1="-62.7" y1="-28" x2="129.3" y2="-28"/>
								<line class="st18" x1="-62.7" y1="-24" x2="129.3" y2="-24"/>
								<line class="st18" x1="-62.7" y1="-20" x2="129.3" y2="-20"/>
								<line class="st18" x1="-62.7" y1="-16" x2="129.3" y2="-16"/>
								<line class="st18" x1="-62.7" y1="-12" x2="129.3" y2="-12"/>
								<line class="st18" x1="-62.7" y1="-8" x2="129.3" y2="-8"/>
								<line class="st18" x1="-62.7" y1="-4" x2="129.3" y2="-4"/>
								<line class="st18" x1="-62.7" y1="0" x2="129.3" y2="0"/>
								<line class="st18" x1="-62.7" y1="4" x2="129.3" y2="4"/>
								<line class="st18" x1="-62.7" y1="8" x2="129.3" y2="8"/>
								<line class="st18" x1="-62.7" y1="12" x2="129.3" y2="12"/>
								<line class="st18" x1="-62.7" y1="16" x2="129.3" y2="16"/>
								<line class="st18" x1="-62.7" y1="20" x2="129.3" y2="20"/>
								<line class="st18" x1="-62.7" y1="24" x2="129.3" y2="24"/>
								<line class="st18" x1="-62.7" y1="28" x2="129.3" y2="28"/>
								<line class="st18" x1="-62.7" y1="32" x2="129.3" y2="32"/>
								<line class="st18" x1="-62.7" y1="36" x2="129.3" y2="36"/>
								<line class="st18" x1="-62.7" y1="40" x2="129.3" y2="40"/>
								<line class="st18" x1="-62.7" y1="44" x2="129.3" y2="44"/>
								<line class="st18" x1="-62.7" y1="48" x2="129.3" y2="48"/>
								<line class="st18" x1="-62.7" y1="52" x2="129.3" y2="52"/>
								<line class="st18" x1="-62.7" y1="56" x2="129.3" y2="56"/>
								<line class="st18" x1="-62.7" y1="60" x2="129.3" y2="60"/>
								<line class="st18" x1="-62.7" y1="64" x2="129.3" y2="64"/>
								<line class="st18" x1="-62.7" y1="68" x2="129.3" y2="68"/>
								<line class="st18" x1="-62.7" y1="72" x2="129.3" y2="72"/>
								<line class="st18" x1="-62.7" y1="76" x2="129.3" y2="76"/>
								<line class="st18" x1="-62.7" y1="80" x2="129.3" y2="80"/>
								<line class="st18" x1="-62.7" y1="84" x2="129.3" y2="84"/>
								<line class="st18" x1="-62.7" y1="88" x2="129.3" y2="88"/>
								<line class="st18" x1="-62.7" y1="92" x2="129.3" y2="92"/>
								<line class="st18" x1="-62.7" y1="96" x2="129.3" y2="96"/>
								<line class="st18" x1="-62.7" y1="100" x2="129.3" y2="100"/>
								<line class="st18" x1="-62.7" y1="104" x2="129.3" y2="104"/>
								<line class="st18" x1="-62.7" y1="108" x2="129.3" y2="108"/>
								<line class="st18" x1="-62.7" y1="112" x2="129.3" y2="112"/>
								<line class="st18" x1="-62.7" y1="116" x2="129.3" y2="116"/>
								<line class="st18" x1="-62.7" y1="120" x2="129.3" y2="120"/>
								<line class="st18" x1="-62.7" y1="124" x2="129.3" y2="124"/>
								<line class="st18" x1="-62.7" y1="128" x2="129.3" y2="128"/>
								<line class="st18" x1="-62.7" y1="132" x2="129.3" y2="132"/>
								<line class="st18" x1="-62.7" y1="136" x2="129.3" y2="136"/>
								<line class="st18" x1="-62.7" y1="140" x2="129.3" y2="140"/>
								<line class="st18" x1="-62.7" y1="144" x2="129.3" y2="144"/>
								<line class="st18" x1="-62.7" y1="148" x2="129.3" y2="148"/>
								<line class="st18" x1="-62.7" y1="152" x2="129.3" y2="152"/>
								<line class="st18" x1="-62.7" y1="156" x2="129.3" y2="156"/>
							</g>
							<path d="M129.1-31.8v191.5H-62.5V-31.8H129.1 M129.3-32h-192v192h192V-32L129.3-32z"/>
						</g>
					</g>
				</g>
			</g>
			<g>
				<rect x="-30.7" class="st19" width="4" height="128"/>
				<rect x="93.3" class="st19" width="4" height="128"/>
				<rect x="-26.7" class="st19" width="120" height="4"/>
				<rect x="-26.7" y="124" class="st19" width="120" height="4"/>
			</g>
		</g>
	</g>
</g>
</svg>
