<?xml version="1.0" encoding="utf-8"?>
<!-- Generator: Adobe Illustrator 25.0.0, SVG Export Plug-In . SVG Version: 6.00 Build 0)  -->
<svg version="1.1"
	 id="parabola" inkscape:output_extension="org.inkscape.output.svg.inkscape" sodipodi:docbase="D:\1dnu72" sodipodi:docname="Resistencia.svg" sodipodi:version="0.32" xmlns:cc="http://web.resource.org/cc/" xmlns:dc="http://purl.org/dc/elements/1.1/" xmlns:inkscape="http://www.inkscape.org/namespaces/inkscape" xmlns:rdf="http://www.w3.org/1999/02/22-rdf-syntax-ns#" xmlns:sodipodi="http://sodipodi.sourceforge.net/DTD/sodipodi-0.dtd" xmlns:svg="http://www.w3.org/2000/svg"
	 xmlns="http://www.w3.org/2000/svg" xmlns:xlink="http://www.w3.org/1999/xlink" x="0px" y="0px" viewBox="0 0 1000 219.8"
	 style="enable-background:new 0 0 1000 219.8;" xml:space="preserve">
<style type="text/css">
	.st0{fill:url(#rect21769_2_);stroke:#000000;stroke-width:0.5316;}
	.st1{fill:url(#rect21769_3_);stroke:#000000;stroke-width:0.5316;}
	.st2{fill:url(#rect5161_1_);stroke:#EEAA00;stroke-miterlimit:1;}
	.st3{fill-rule:evenodd;clip-rule:evenodd;fill:url(#path5157_2_);stroke:#EEAA00;}
	.st4{fill-rule:evenodd;clip-rule:evenodd;fill:url(#path5157_3_);stroke:#EEAA00;}
</style>
<linearGradient id="rect21769_2_" gradientUnits="userSpaceOnUse" x1="86.442" y1="-324.9003" x2="86.6261" y2="-290.0073" gradientTransform="matrix(0.9979 0 0 -1.2223 1.1078 -262.0043)">
	<stop  offset="0" style="stop-color:#DDDDDD"/>
	<stop  offset="1" style="stop-color:#DDDDDD;stop-opacity:0"/>
</linearGradient>
<polygon id="rect21769" class="st0" points="25,97.2 150,97.2 144.7,98.1 142.1,100.6 141.2,105.8 143.3,110.9 142.2,118.3 
	144.3,121 150,122.2 25,122.2 "/>
<linearGradient id="rect21769_3_" gradientUnits="userSpaceOnUse" x1="-109.3198" y1="-324.9003" x2="-109.1356" y2="-290.0073" gradientTransform="matrix(-0.9979 0 0 -1.2223 803.5473 -262.0043)">
	<stop  offset="0" style="stop-color:#DDDDDD"/>
	<stop  offset="1" style="stop-color:#DDDDDD;stop-opacity:0"/>
</linearGradient>
<polygon id="rect21769_1_" class="st1" points="975,122.2 850,122.2 855.7,121 857.8,118.3 856.7,110.9 858.8,105.8 857.9,100.6 
	855.3,98.1 850,97.2 975,97.2 "/>
<linearGradient id="rect5161_1_" gradientUnits="userSpaceOnUse" x1="499.0977" y1="-410.0866" x2="501.581" y2="-206.2798" gradientTransform="matrix(1.0003 0 0 -0.875 2.246218e-02 -199.351)">
	<stop  offset="0" style="stop-color:#EEAA00"/>
	<stop  offset="1" style="stop-color:#EEAA00;stop-opacity:0"/>
</linearGradient>
<rect id="rect5161" x="275" y="22.2" class="st2" width="450" height="175"/>
<linearGradient id="path5157_2_" gradientUnits="userSpaceOnUse" x1="189.4556" y1="-452.6501" x2="265.2543" y2="-182.0791" gradientTransform="matrix(1 0 0 -1 0.2655 -234.4444)">
	<stop  offset="0" style="stop-color:#EEAA00"/>
	<stop  offset="1" style="stop-color:#EEAA00;stop-opacity:0"/>
</linearGradient>
<path id="path5157" sodipodi:nodetypes="ccccccc" class="st3" d="M275,17.2c0,0-25-20-75,0c-25,30,0,65-50,80
	c-8.1-0.8-10.5,6.3-7.6,11c3.7,5.8-6.7,12.9,7.6,14c50,15,25,50,50,80c50,20,75,0,75,0V17.2z"/>
<linearGradient id="path5157_3_" gradientUnits="userSpaceOnUse" x1="250.8407" y1="-452.6501" x2="326.6394" y2="-182.0791" gradientTransform="matrix(-1 0 0 -1 1061.0698 -234.4444)">
	<stop  offset="0" style="stop-color:#EEAA00"/>
	<stop  offset="1" style="stop-color:#EEAA00;stop-opacity:0"/>
</linearGradient>
<path id="path5157_1_" sodipodi:nodetypes="ccccccc" class="st4" d="M725,202.2c0,0,25,20,75,0c25-30,0-65,50-80
	c14.2-1.1,3.8-8.2,7.6-14c3-4.7,0.5-11.8-7.6-11c-50-15-25-50-50-80c-50-20-75,0-75,0V202.2z"/>
</svg>
