<?xml version="1.0" encoding="utf-8"?>
<!-- Generator: Adobe Illustrator 25.0.0, SVG Export Plug-In . SVG Version: 6.00 Build 0)  -->
<svg version="1.1" xmlns="http://www.w3.org/2000/svg" xmlns:xlink="http://www.w3.org/1999/xlink" x="0px" y="0px"
	 viewBox="0 0 1280 664" style="enable-background:new 0 0 1280 664;" xml:space="preserve">
<style type="text/css">
	.st0{fill:#FFFFFF;stroke:#FFFFFF;stroke-miterlimit:10;}
	.st1{fill:none;stroke:#FFFFFF;stroke-width:6;stroke-miterlimit:10;}
	.st2{fill:#FFFFFF;}
	.st3{fill:none;stroke:#E2991A;stroke-width:6;stroke-miterlimit:10;}
	.st4{fill:none;stroke:#FFFFFF;stroke-width:3;stroke-miterlimit:10;}
</style>
<g id="Capa_1">
	<path class="st0" d="M409.2,64.6c-1.3,0.9-2.4,3-2.8,5.5c-0.5,2.9-1.1,3.9-2.5,3.9c-1.1,0-1.9,0.7-1.9,1.5c0,0.8,0.9,1.5,2,1.5
		c1.9,0,2,0.7,2,11.5V100h2.5h2.5V88.5V77h3.5c2.4,0,3.5-0.5,3.5-1.5c0-1.1-1.1-1.5-3.6-1.5c-3.4,0-3.5-0.1-3.2-3.3
		c0.3-2.9,0.6-3.2,4.1-3.5c2.9-0.3,3.7-0.7,3.7-2.3c0-1.5-0.7-1.9-3.8-1.9C413.1,63,410.4,63.7,409.2,64.6z"/>
	<path class="st0" d="M363.5,65.9c-2.1,0.4-3.1,1.3-3.3,2.8c-0.3,2.2-0.1,2.2,4.2,1.7l4.6-0.7v13.2V96h-4c-3.3,0-4,0.3-4,2
		c0,1.9,0.7,2,10,2c9.3,0,10-0.1,10-2c0-1.7-0.7-2-4-2h-4V80.5V65l-3.2,0.1C368,65.2,365.2,65.5,363.5,65.9z"/>
	<path class="st0" d="M397,65.5c0,0.4-9,29.8-11,35.8c-0.7,2.2-0.6,2.9,0.6,3.4c0.8,0.3,1.7,0.3,2,0.1c0.4-0.5,12.4-38.4,12.4-39.4
		c0-0.2-0.9-0.4-2-0.4S397,65.2,397,65.5z"/>
	<path class="st0" d="M35.9,83.5c-3.4,1.9-5.3,6.5-4.5,11c0.8,4.1,4.8,7.2,10.9,8.1c11.6,2,11.6,13.4,0,13.4c-2.7,0-6.1-0.7-7.7-1.5
		c-3.7-2-3.8-1.9-3.4,1.2c0.4,3.2,2.6,4.1,11.1,4.2c9,0.2,13.7-3.4,13.7-10.5c0-6.1-4.3-9.8-13.8-11.9c-6.1-1.3-8.2-6.4-4.2-10
		c1.5-1.4,3.1-1.6,7.2-1.3c2.9,0.3,6.1,0.9,7.1,1.3c1.3,0.6,1.7,0.2,1.7-1.8c0-1.7-0.7-2.6-2.2-3.1C47.7,81.5,38.6,82,35.9,83.5z"/>
	<path class="st0" d="M419,96v9h5.5c3,0,5.5-0.5,5.5-1c0-0.6-1.8-1-4-1h-4v-8c0-6.4-0.3-8-1.5-8C419.3,87,419,88.7,419,96z"/>
	<path class="st0" d="M433.3,89.4c-2.2,1.9-2.8,3.2-2.8,6.6s0.6,4.7,2.8,6.6c1.6,1.3,3.9,2.4,5.2,2.4c1.3,0,3.6-1.1,5.2-2.4
		c2.2-1.9,2.8-3.2,2.8-6.6s-0.6-4.7-2.8-6.6c-1.6-1.3-3.9-2.4-5.2-2.4C437.2,87,434.9,88.1,433.3,89.4z M442.2,90.7
		c2.3,2,2.4,8,0.1,10.5c-3.6,4-9.3,0.9-9.3-5C433,90,438.1,87,442.2,90.7z"/>
	<path class="st0" d="M61,119v10h5.5c3,0,5.5-0.5,5.5-1c0-0.6-1.8-1-4-1h-4v-9c0-7.3-0.3-9-1.5-9S61,110.8,61,119z"/>
	<path class="st0" d="M75.4,111.4c-2.4,2-2.8,3.1-2.8,7.6s0.4,5.6,2.8,7.6c1.5,1.3,3.8,2.4,5.1,2.4c1.3,0,3.6-1.1,5.1-2.4
		c2.4-2,2.8-3.1,2.8-7.6s-0.4-5.6-2.8-7.6c-1.5-1.3-3.8-2.4-5.1-2.4C79.2,109,76.9,110.1,75.4,111.4z M84,113c4,4,1.5,14-3.5,14
		c-2.9,0-5.5-3.8-5.5-8s2.6-8,5.5-8C81.3,111,82.9,111.9,84,113z"/>
	<path class="st0" d="M63.5,172.9c-2.1,0.4-3.1,1.3-3.3,2.9c-0.3,2.2-0.2,2.3,4.2,1.7l4.6-0.7v13.6V204h-4c-3.3,0-4,0.3-4,2
		c0,1.9,0.7,2,10,2c9.2,0,10-0.1,10-1.9c0-1.6-0.8-2-3.7-2.3l-3.8-0.3l-0.3-15.8L72.9,172l-3.2,0.1C68,172.2,65.2,172.5,63.5,172.9z
		"/>
	<path class="st0" d="M1237,357.4c0,3.9-0.3,4.6-2,4.6c-1.2,0-2,0.7-2,1.6c0,0.9,0.9,1.8,2,2.1c1.8,0.5,2,1.4,2,10.4
		c0,12,1.2,13.9,8.5,13.9c3.8,0,4.5-0.3,4.5-2c0-1.7-0.7-2-3.9-2c-4.8,0-5.1-0.7-5.1-11.6V366h4.5c3.8,0,4.5-0.3,4.5-2
		c0-1.7-0.7-2-4.4-2h-4.5l-0.3-4.2c-0.2-3.1-0.8-4.4-2-4.6C1237.3,352.9,1237,353.6,1237,357.4z"/>
	<path class="st0" d="M64.5,537.9c-2.1,0.4-3.1,1.3-3.3,2.9c-0.3,2.2-0.2,2.3,4.2,1.7l4.6-0.7v13.6V569h-4c-3.3,0-4,0.3-4,2
		c0,1.9,0.7,2,10,2c9.2,0,10-0.1,10-1.9c0-1.6-0.8-2-3.7-2.3l-3.8-0.3l-0.3-15.8L73.9,537l-3.2,0.1C69,537.2,66.2,537.5,64.5,537.9z
		"/>
	<path class="st0" d="M40,559c0,1.8,0.7,2,6.5,2s6.5-0.2,6.5-2s-0.7-2-6.5-2S40,557.2,40,559z"/>
</g>
<g id="Capa_2">
	<g>
		<g>
			<line class="st1" x1="112" y1="152.2" x2="112" y2="578.8"/>
			<g>
				<polygon class="st2" points="89.8,169 112,159.6 134.2,169 112,116.3 				"/>
			</g>
			<g>
				<polygon class="st2" points="89.8,562 112,571.4 134.2,562 112,614.7 				"/>
			</g>
		</g>
	</g>
	<g>
		<g>
			<line class="st1" x1="1183.9" y1="371.6" x2="112" y2="371.6"/>
			<g>
				<polygon class="st2" points="1167,349.4 1176.5,371.6 1167,393.8 1219.7,371.6 				"/>
			</g>
		</g>
	</g>
	<g>
		<g>
			<line class="st1" x1="512.2" y1="130" x2="297.8" y2="130"/>
			<g>
				<polygon class="st2" points="495.3,107.8 504.8,130 495.3,152.2 548,130 				"/>
			</g>
			<g>
				<polygon class="st2" points="314.7,107.8 305.2,130 314.7,152.2 262,130 				"/>
			</g>
		</g>
	</g>
	<polyline class="st3" points="116,196 259.5,196 259.5,559 407,559 407,196 546,196 546,549 694,549 694,190 836.5,190 836.5,557 
		979.1,557 	"/>
	<line class="st4" x1="262" y1="82.5" x2="262" y2="173"/>
	<line class="st4" x1="546" y1="82.5" x2="546" y2="173"/>
</g>
</svg>
